<svg id="Lumiere" xmlns="http://www.w3.org/2000/svg" viewBox="0 0 1538.31 209.73"><defs><style>.cls-1{fill:#fff;}</style></defs><title>Black copy</title><path class="cls-1" d="M211.71,119.52a16.55,16.55,0,0,1,1.86-1.25c3.28-1.53,6.6-3,9.86-4.55,10.09-4.83,20.08-9.86,29.75-15.52a166.65,166.65,0,0,0,27.32-19.36c9-8,15.37-17.63,18.47-29.3,1.08-4.07,1.57-8.16-.35-12.19a31.23,31.23,0,0,0-7.16-10.12,68.75,68.75,0,0,0-20.58-12.69c-25.65-10.09-58.47-8.22-85.09-3.19a200.61,200.61,0,0,0-49.36,16.17C121.13,34.85,104.9,43.67,95.14,58c-.83,1.22-1.11,2.22-.42,3.51,1.42,2.61,2.61,5.36,4.27,7.8s5.42,3.15,7.37-.15a45.26,45.26,0,0,1,8.06-9.42c18-17.32,44.54-27.53,68.34-33.7,26.58-6.89,57.9-10.32,84.7-2.93a54.14,54.14,0,0,1,18.85,9.18,6.63,6.63,0,0,1,2.62,6.76,19.07,19.07,0,0,1-.91,3.39,53.13,53.13,0,0,1-9.68,16.43c-9.48,11.38-22.69,19.36-35.23,26.93a344.1,344.1,0,0,1-33.24,17.67c-9.94,4.6-20.4,10.41-31.39,11.81a2.38,2.38,0,0,0-2.17,2,13.62,13.62,0,0,0-.33,2.53c-.18,5.44-.14,5.39,4.26,8.62a4.72,4.72,0,0,0,4.74.92,31.7,31.7,0,0,1,12-1.61c2.13.08,4.27-.08,6.4,0a60.92,60.92,0,0,1,17.31,2.57c5,1.62,8.93,4.91,13.19,7.69a2.07,2.07,0,0,1,.46,1.92,8.38,8.38,0,0,1-1.87,2.94c-3.31,3.15-6.43,6.62-10.16,9.19C201,166.81,174.63,180,149,184.76c-2.3.43-4.78.87-6.44,2.53-2.7,2.72-1.71,7.72,1.3,10.1s7.26,2.55,11,1.64c14-3.45,28.63-10.56,41.66-16.76,10.19-4.85,20.54-9.4,30-15.61,4.27-2.8,8.47-5.7,11.88-9.61a97.13,97.13,0,0,1,8.71-9.3c3.91-3.44,8.2-6.46,12.4-9.56,3.08-2.28,6.26-4.43,9.43-6.58a12,12,0,0,1,2.51-.81,22.84,22.84,0,0,1-1.67,2.74c-2.73,3.13-5.43,6.3-8.29,9.3a15.42,15.42,0,0,0-4.69,9.53c-.52,6,1.67,16.83,9.77,15.81,6.43-.81,14.53-7.24,18.76-11.75,2-2.17,4.37-4.06,6.6-6a9.49,9.49,0,0,1,1.55-.92c.67,1.44-.26,2.21-.75,3.09-3.26,5.86-6.91,11.6-6.8,18.68a11.68,11.68,0,0,0,.53,4c2.07,5.25,6.35,8.47,11.09,11,3.7,1.94,7.24,1.11,10.12-2,.57-.63,1.21-1.2,1.78-1.83,1.92-2.13,3.76-4.32,5.75-6.39,15.5-16.17,29.8-34.13,44.82-51.06a3.41,3.41,0,0,1,3-1.55,22.58,22.58,0,0,1-.94,2.76c-2.75,5.53-5.45,11.09-8.36,16.53A119,119,0,0,0,345.33,163a20.1,20.1,0,0,0,.58,13.12,7.23,7.23,0,0,0,2.28,3,39.26,39.26,0,0,0,5.05,3.36c3,1.74,6.64,1.24,8.5-1.65,1.21-1.87,2.32-3.81,3.45-5.73a19.77,19.77,0,0,1,1-2c5.79-7.65,10.42-16,15.55-24.12a116.92,116.92,0,0,1,11.33-15.42c5.25-5.85,11.13-11.15,16.88-16.54a78.29,78.29,0,0,1,15.34-10.9,17.61,17.61,0,0,1,4.7-1.88c3.25-.73,2.51,4.54,4,5.79,2.22,1.87,6.52-.38,6.8-3.88.18-2.17-2-4.89-4.68-5.37-7.42-1.36-14.51-1.07-21.29,3-10.2,6.21-19,14-27.31,22.48-1.15,1.18-2.14,2.58-4.12,3.24a5.87,5.87,0,0,1,.14-1.43c1.86-4.52,3.71-9,5.62-13.54,1.84-4.31,3.81-8.55,5.59-12.88a13,13,0,0,0,1-4.31c.14-3.16-1-4.48-4-5.07a37.91,37.91,0,0,0-6.31-1,7.23,7.23,0,0,0-4.16,1.14,41.93,41.93,0,0,0-5,4.84c-5.44,5.56-10.88,11.11-16.26,16.73q-7.27,7.59-14.38,15.33-4.12,4.45-8.07,9.07c-4.27,5-8.27,10.27-12.75,15.09-5.72,6.16-11.8,12-17.74,17.94a8.73,8.73,0,0,1-1.48,1c-.89-1.16-.24-2,.12-2.82,3.3-7.85,6.54-15.72,9.9-23.54,1.86-4.34,3.5-8.78,5.89-12.88,1.44-2.47,2.69-5,4.12-7.53a2.18,2.18,0,0,0-.34-2.87c-1.71-1.95-4-2.26-6.38-2.48-7.13-.66-13.79,9.52-19.24,14-5.2,4.24-10.49,8.37-15.76,12.53-3.93,3.1-7.86,6.19-11.83,9.22-.86.66-1.76,1.54-3.23,1.09a4.49,4.49,0,0,1,.16-1.31,68.52,68.52,0,0,1,8.83-14.39c2.81-3.34,5.58-6.72,8.52-9.93a73.1,73.1,0,0,1,6.84-6.64c3.66-3.08,7.43-6.06,11.31-8.86,2.57-1.85,5.43-3.32,8.18-4.91a2.24,2.24,0,0,1,2.87.35c1.72,1.42,2.76,1.26,3.79-.11,1.39-1.86,1.33-3.56-.64-4.57a18.07,18.07,0,0,0-6.3-2c-3.22-.31-6.07,1.13-8.82,2.81-4.54,2.78-9.18,5.38-13.81,8-6.38,3.64-13,7-19.14,10.93-7.71,4.94-15.09,10.4-22.64,15.61A11.46,11.46,0,0,1,246,143a25.69,25.69,0,0,0-1.2-3.23,29.49,29.49,0,0,0-13-12.4,86.67,86.67,0,0,0-17.89-6.8A14.94,14.94,0,0,1,211.71,119.52Z"/><path class="cls-1" d="M899.11,50.46a5.8,5.8,0,0,0,.91.67c7.12,4.23,10.72-7.47,13.47-11.87a5.92,5.92,0,0,0,1.27-3.59c-.54-5.19-12-10.23-16.06-11.81a29.84,29.84,0,0,0-13.38-2.2c-17.85,1.47-34.16,6.54-49.06,16.31C820.9,48,806.17,59.18,793,72c-19.69,19.26-47.07,50.8-39.84,80.66a43,43,0,0,0,9.56,17.85c5.27,6.19,12.89,8.82,20.94,9,6.84.11,13.58-1.51,20.11-3.54a178,178,0,0,0,34.39-14.9c10.27-5.77,21.83-10.45,31.15-17.54a30.05,30.05,0,0,1,5.57-3.21c1.74-.81,3.17-2.37,5.86-2.41-1.62,3.21-2.83,5.45-4,8.35-1.42,3.43-3.13,6.74-4.88,10C870,159.71,869.51,163,873,167.5c.78,1,1.72,1.91,2.46,2.94,1.94,2.69,4.82,4.29,8.14,2.53,3.84-2,6-11.42,7.75-15.23,8.56-18.17,24.88-35.66,40.38-48.26,5.77-4.69,12.06-8.74,18.17-13,1-.68,2.06-1.55,3.71-.91v2.37a1.75,1.75,0,0,0,2.87,1.33A33.3,33.3,0,0,0,959,96.9a2.94,2.94,0,0,0-.72-4.83,18.46,18.46,0,0,0-4.08-1c-5.69-.35-9,1.44-13.92,4.39a138.31,138.31,0,0,0-25.7,19.41,45.12,45.12,0,0,1-3.85,3l-.63-.41c.24-.86.42-1.74.73-2.58,1-2.69,2-5.38,3-8a3.7,3.7,0,0,0-.65-3.84c-1.81-2.57-4.51-3.86-7.13-5.26-1.38-.73-2.31-.36-3.28,1a14,14,0,0,0-1.08,2,289.93,289.93,0,0,1-15.46,27.38A12.73,12.73,0,0,1,881,132.8c-4.24,2-8.41,4.14-12.63,6.18-1.3.63-2.63,1.2-4,1.75-25.64,10.38-51,24.14-78.54,28.79-10.67,1.8-15.54-6.88-13.07-16.73,3.25-13,8.45-24.16,15.09-35.75,8.18-14.26,16.46-28.67,27.76-40.62C835.89,55,860.14,40.78,889.44,34.75c1.44-.3,2.9-.44,4.36-.62s2.89-.82,4,.86c-.37.89-.75,1.87-1.19,2.83C895.08,41.25,896,47.65,899.11,50.46Z"/><path class="cls-1" d="M215.37,49.07c-.53-4.73-9.42-7.33-12.84-8.56a2.64,2.64,0,0,0-3.14.91c-.89,1.06-1.94,2-2.77,3.09-6.86,9.1-13.74,18.18-20.5,27.35C150.17,107.08,128.74,145,107,182.78a40,40,0,0,0-2.06,3.59c-1.39,3.14-.68,5.57,2,7.59,3.25,2.48,5.2,5.26,9.48,6.1,4,.79,6.54-1.7,8.56-4.89C148.25,158.23,171.05,120.94,194.4,84c4-6.28,7.51-12.84,11.91-18.86.75-1,1.34-2.16,2-3.23,2-3.25,6.07-7.64,7-11.43A4.18,4.18,0,0,0,215.37,49.07Z"/><path class="cls-1" d="M454.82,79.09a3.81,3.81,0,0,0,.48-6.17,12.07,12.07,0,0,0-4-2,5.2,5.2,0,0,0-5,.48c-1.42.94-3,1.69-4.3,2.73a66.73,66.73,0,0,0-7,6c-2.08,2.16-1.89,3.11-.1,5.48l0,.06a6.68,6.68,0,0,0,9.9.89c3.71-3.45,5.32-5.43,10-7.36Z"/><path class="cls-1" d="M1198.6,78.8c2-1.84,3-4-.36-6.17l-.05,0c-4.42-3.29-5.39-3.07-10.83-3.81a3.85,3.85,0,0,0-4.22,4.92c.9,3,2.1,9.31,6,9.88a6.2,6.2,0,0,0,3.75-1.13A31,31,0,0,0,1198.6,78.8Z"/><path class="cls-1" d="M1041.86,145.18l.78.56c-.52,1.48-1.07,3-1.57,4.45-1,3.13-2.17,6.23-3.05,9.4-2.9,10.48,13.54,22.88,22.07,14.47,13.84-13.66,24.77-29.84,36.51-45.26,12.23-16.06,25.94-31,39.26-46.17a27.15,27.15,0,0,1,6.27-5.67,11.14,11.14,0,0,1-.6,2c-.7,1.19-1.55,2.3-2.21,3.51-11.51,21-19.81,43.22-27.88,66-.46,1.3-.82,2.65-1.27,4-1.73,5-.94,9.41,2.54,13.67a6.32,6.32,0,0,0,6.26,2.46,3.44,3.44,0,0,0,3.2-2.87c.59-2.12,1.13-4.26,1.87-6.33,6.38-17.74,12.71-35.58,20.84-52.62,7.44-15.6,17-29.75,26.35-44.23a8.11,8.11,0,0,1,4.12-3.34,60.56,60.56,0,0,1,22.55-3.76c2.77,0,5.54,0,8.31.14,5.42.2,10.85.22,16.24.74,5.7.55,11.39,1.42,17,2.49,2.78.53,5.41,1.87,8.13,2.78a13.45,13.45,0,0,1,6.36,4.09,19.87,19.87,0,0,0,2,1.83c.32-2.38-.79-3.88-1.71-5.38-3.85-6.35-10.28-9.72-17-12.32a82.18,82.18,0,0,0-15-4.12,188.27,188.27,0,0,0-30.64-2.76c-1.55,0-3.18.29-4.76-.74a9.89,9.89,0,0,1,.87-1.75c3.41-4.35,6.82-8.7,10.33-13a9.26,9.26,0,0,1,2.68-2.16,6.57,6.57,0,0,0,3.64-4.84,3.51,3.51,0,0,0-2.25-3.84,12.91,12.91,0,0,0-3.19-.89,11.89,11.89,0,0,0-3.93-.12,10.16,10.16,0,0,0-5.29,2.94q-6.11,6.75-12.23,13.51c-3.21,3.54-6.44,7.06-9.66,10.59a7.51,7.51,0,0,1-5.05,2.45c-8.72.58-17.44,1.06-26.14,1.89-10.06,1-20.07,2.35-30.12,3.37a169.12,169.12,0,0,1-18.8,1.26c-10.64-.12-21.31-.28-31.85-2.11-2.93-.51-5.88-1-8.75-1.84s-3.75-2.33-3.31-5.27a11.62,11.62,0,0,1,.77-2.42,15,15,0,0,0,.75-7.24,7.54,7.54,0,0,0-1-2,9.52,9.52,0,0,0-5,7.58c-.24,2.43-.14,4.9-.14,7.35a12.39,12.39,0,0,0,3.41,8.4,19.67,19.67,0,0,0,7,4.88A79.71,79.71,0,0,0,1063.73,63a108.81,108.81,0,0,0,21.82,2.84,254.21,254.21,0,0,0,39.19-2.12c6.43-.85,12.87-1.67,19.32-2.39,1.4-.16,2.91-.54,4.76.39-1,1.11-1.75,2.06-2.59,2.94s-1.9,1.72-2.74,2.68c-6.36,7.3-12.73,14.6-19,22-7.4,8.67-14.68,17.45-22.11,26.1-10.48,12.21-21,24.34-31.56,36.51-3.07,3.55-6.07,7.15-9.15,10.69a12,12,0,0,1-1.82,1.43l-.58-.37c.47-1.57.89-3.15,1.4-4.71,2.09-6.36,3.81-12.85,6.56-19,.74-1.65,1.61-3.25,2.34-4.9,4-9.25,8.05-18.52,12.12-27.78,2.46-5.66-12.22-5.09-14.87-4a3.18,3.18,0,0,1-1.44.38c-1.27-.09-1.78-1.64-2-2.89-2.4-12.1-22.45,4.7-25.8,7.16-2.05,1.5-3.86,3.34-5.86,4.92-3.58,2.85-7.34,5.47-10.78,8.47a29.19,29.19,0,0,1-8,5.16c-3.24,1.35-6.58,2.56-9.67,4.21-8.63,4.61-17.19,9.37-25.72,14.17-3.71,2.08-7.17,4.6-10.94,6.56s-7.85,3.66-11.83,5.36a26.84,26.84,0,0,1-4.43,1.4c-3.31.65-4.25-.07-4-3.2a27.7,27.7,0,0,1,.81-4.71,46.18,46.18,0,0,1,9.79-18.12,3.16,3.16,0,0,1,2.41-1.25,58.06,58.06,0,0,0,7.27-.95c6.19-1.28,12-3.74,17.73-6.28a58.53,58.53,0,0,0,22.16-16.86,74.47,74.47,0,0,0,4.46-6.61c6.43-9.91-4.49-19-14.19-14.94-1.38.57-2.78,1.11-4.11,1.76-3.63,1.78-7.58,3.15-10.78,5.53-6.15,4.58-12,9.61-17.83,14.57a57.82,57.82,0,0,0-5.86,5.88c-2.72,3.26-5.18,6.74-8,9.91-5,5.64-8.08,12.21-10.29,19.31-1.88,6-.72,11.44,2.45,16.8s10.17,6.89,14.45,5.76a37.61,37.61,0,0,0,6-2.06,172.24,172.24,0,0,0,30.16-18c3.95-2.9,8.08-5.54,12.16-8.25a5.18,5.18,0,0,1,1.61-.42,7.53,7.53,0,0,1-1.56,2.89c-5.15,7.16-10.26,14.05-9.62,23.36a10.39,10.39,0,0,0,.89,3.88,7.93,7.93,0,0,0,5,3.95,13,13,0,0,0,6.51-.05c7.61-1.81,12.59-7.9,18.62-12.3,4.36-3.18,8.27-7,12.39-10.47C1039.92,146.62,1040.9,145.92,1041.86,145.18ZM961.22,125.3a22.19,22.19,0,0,1,2.37-3.2c11.22-10.64,23-22.08,35.46-31.62a10.67,10.67,0,0,1,1.89-1.18c2.43-1.15,4.62.26,4.47,3a8.45,8.45,0,0,1-.88,3A50.3,50.3,0,0,1,991.46,112c-7.85,6.73-17,10.77-26.89,13.44a25.6,25.6,0,0,1-3,.45Zm50.8,30.41a10.14,10.14,0,0,1,2.05-4.17c2-2.64,3.89-5.36,6.09-7.8,5.84-6.48,11.59-13.08,17.82-19.18,5.31-5.21,11.18-9.85,16.9-14.63a14.58,14.58,0,0,1,4.23-2.14c.57-.22,1.76-.07,2,.32a3.71,3.71,0,0,1,.44,2.61,12.05,12.05,0,0,1-1.64,2.71c-3.8,6.28-8.94,11.35-14.44,16.09q-5.92,5.1-11.92,10.11c-5.06,4.24-10.09,8.51-15.24,12.62A16.44,16.44,0,0,1,1012,155.71Z"/><path class="cls-1" d="M1209.14,120.07l.76.45a23.4,23.4,0,0,1-1.06,2.45c-1.32,2.32-2.76,4.56-4,6.89-4.73,8.57-5.38,17.37-1.32,26.38,2.27,5,8.92,8.19,14.18,9.18,7.17,1.34,17.26-5.21,21.88-10.13,5.54-5.89,10-9.64,15.3-16.63,4.21-5.53,9.26-11.8,12.57-17.89a46.85,46.85,0,0,1,8.69-11.73c6.39-6.11,11.92-13.05,18.71-18.78a122.43,122.43,0,0,1,19.41-13.45c1-.55,2-1.31,3.33-.41-.08.41-.15.81-.23,1.22-.4,2-2.1,3.12-3.2,4.65-2.48,3.45-4.85,7-7.18,10.52-4.78,7.3-9.47,14.66-14.25,22-3.15,4.81-6.46,9.51-9.58,14.34a68.16,68.16,0,0,0-5,8.57c-1.62,3.56-2.15,7.22-.11,11,1.41,2.64,3.86,3.94,6,5.59,1,.75,2.59.68,4.13-.33a48,48,0,0,0,7.63-6.25c5-5.05,9.93-10.24,15-15.3,6.54-6.56,13.09-13.12,19.76-19.55,5.13-4.95,10.44-9.7,15.7-14.52a24.89,24.89,0,0,1,2.66-1.76,13.63,13.63,0,0,1-1,2.31,86.91,86.91,0,0,0-6.57,9.78c-4.13,7.33-8.86,14.32-12.93,21.68-5.66,10.24-11.47,20.43-14.46,31.94a6.75,6.75,0,0,0,1.59,6.68c1.29,1.53,2.73,2.94,4.07,4.42s2.53,1.89,4.48,1c.78-.34,1.52-.77,2.28-1.16a35.85,35.85,0,0,0,9.54-7.87c6.75-7.25,12.7-15.19,19.65-22.3,9.06-9.28,17.69-19,26.53-28.48q10.66-11.46,21.36-22.88a37.28,37.28,0,0,1,3-2.55c.27,2.2.34,2.23-.31,4a186.61,186.61,0,0,0-6,20.22c-1,3.91-1.37,3.25-2.57,7.11a3.88,3.88,0,0,1-2.41,2.77c-1.89.71-3.69,1.65-5.59,2.33a90.59,90.59,0,0,0-25.78,14.53,22.2,22.2,0,0,0-3.87,4.22c-1.2,1.62-2.62,4.06-2.48,6.08.22,3.1-2.27,5.67,6.2,6.44a7,7,0,0,1,2.44.66c7.93,4,20.41,6.62,29,3.61,9-3.12,13.32-10.92,16.28-19.37a47.88,47.88,0,0,0,3-14.44c.12-2.32.94-3.6,3.08-4.16,6-1.55,11.91-3.38,18-4.54A155.7,155.7,0,0,1,1481,117.4c3.36.4,6.72.89,10.06,1.44,2.1.34,5.42,1.94,7.89,1.8a.84.84,0,0,0,.41-1.55,23.51,23.51,0,0,0-4.48-2c-16.46-5.32-29.89-6.56-46.67-5.21a144,144,0,0,0-30.17,5.28,15.64,15.64,0,0,1-3.18.27c.89-4.1,1.37-6.27,2.25-9.87,1.61-6.63,3.22-12.23,5-18.81a19.5,19.5,0,0,1,1.93-5,91,91,0,0,1,5.79-8.43c2.87-3.71,6.29-6.63,11.29-7.08a11.09,11.09,0,0,0,1.22-.15,1.48,1.48,0,0,0,.84-2.42,10.26,10.26,0,0,0-10.75-2.84,26,26,0,0,0-10,6.19c-2.41,2.25-4.66,4.68-7.1,6.9-7.26,6.57-14.68,13-21.86,19.65-5.68,5.29-11.12,10.84-16.61,16.33-8,8-16,15.89-23.8,24-5,5.21-9.69,10.78-14.6,16.1q-5.84,6.34-11.92,12.46a23,23,0,0,1-3.64,2.49c-.68-2.07-.62-2-.17-3.3,4.52-12.61,11-24.26,17.7-35.76,4.73-8.06,10.73-15.35,14.41-24a94.88,94.88,0,0,0,3.27-9c.58-1.89-.48-3.19-2.46-3.74a8.37,8.37,0,0,0-6.79.84,113.83,113.83,0,0,0-9.67,6.22c-5.2,3.89-10.24,8-15.26,12.11-3.2,2.63-6.24,5.45-9.37,8.17-1.15,1-2.22,2.19-4.27,2.44a13.22,13.22,0,0,1,.77-2c6.45-10.5,14.53-20.89,18.59-32.64a11.72,11.72,0,0,0,.12-7.19,8.76,8.76,0,0,0-6-5.32,15.21,15.21,0,0,0-10,.36,87.61,87.61,0,0,0-17.35,10.14,156.41,156.41,0,0,0-20.58,18.16,13.61,13.61,0,0,1-1.69,1.28c-1.3-1.09-1.21-2.36-1.25-3.64-.06-1.79.22-3.86-1.36-5.07a23.69,23.69,0,0,0-3.67-2.6,5,5,0,0,0-1.76-.4,2.07,2.07,0,0,0-2.28,2.09c.1,3.79,1.19,7.31,0,11.3-2.67,9-7.65,16.65-13.53,23.73a138,138,0,0,1-17,17.73c-3.66,3.08-7.44,6-11.21,9a6.57,6.57,0,0,1-2.08.62,9.68,9.68,0,0,1-.18-1.54,28.65,28.65,0,0,1,.35-3.5c2.28-11.71,8.14-21.88,14.85-31.58,4.37-6.32,8.5-13.77,14.08-19.06,3.86-3.66,7.63-7.43,11.64-10.93,3-2.62,6-5.34,9.71-7a3.13,3.13,0,0,0,1.83-2.81,2.47,2.47,0,0,0-1.76-2.43c-1.65-.72-3.45-1.13-5.06-1.92-2.56-1.24-4.71-.52-6.88.92-27.28,18.08-53,38.75-78.6,59.08-5.34,4.24-10.93,8.16-16.45,12.17-1,.7-1.92,1.72-3.58,1.36a11.15,11.15,0,0,1,.36-2.2,101.56,101.56,0,0,1,9.3-18.17c5.95-9.36,15.23-18.76,17.31-29.93.41-2.18.27-3-1.68-3.92A33.34,33.34,0,0,0,1179,93a2,2,0,0,0-2.25,1.42c-1.92,4.81-5.06,8.87-8,13A178.75,178.75,0,0,0,1155.56,129a59.67,59.67,0,0,0-5.66,14.54,6.51,6.51,0,0,0,0,3.41c1.57,4.38,3.61,10.24,9.26,9.82a15,15,0,0,0,5.25-1.66c10-4.76,18.71-12.73,27.11-19.87,5.27-4.49,10.35-9.2,15.54-13.79A18.07,18.07,0,0,1,1209.14,120.07Zm185,12.09c-2.28,4.41-4.52,8.84-6.84,13.23-1.28,2.43-5.88,4.74-8.54,6.23a47.24,47.24,0,0,1-14.84,2.14h0a1.46,1.46,0,0,1-1.4-1.82,6.91,6.91,0,0,1,2.62-3.85c4-3.11,8-6.41,12.33-9,4.63-2.75,9.7-4.76,14.59-7.07a8.29,8.29,0,0,1,1.48-.39Z"/><path class="cls-1" d="M660.24,43.54a1.62,1.62,0,0,0,1.24-2.76c-2.91-3.06-9.65-5-12.65-6-8-2.65-15.52-4.84-25.71-3.85-2.21.22,6.21-9.75,2.22-12.86-5.2-4-10.2-4.88-13.3-3.55-1.29.55-2.68,2-5.32,5.76-1.69,2.45-3.94,5.67-5.7,8a7.69,7.69,0,0,1-6.54,3.21,109.69,109.69,0,0,0-11,1.16c-17.47,2.84-32.51,4.61-50.09,6.64-6.49.75-58.62,10.1-56.87-1,.39-2.45.4-4.63-.78-6.5-.86-1.36-3.81-.88-4.3.65a13.17,13.17,0,0,0,.17,7.13,43.16,43.16,0,0,0,1.62,4.85c1.9,5.2,5.1,9,10.76,10.41a60.57,60.57,0,0,0,14.2,2c10.42.12,20.52-2.24,30.68-4.06,4.19-.75,8.35-1.64,12.55-2.34q11.18-1.86,22.39-3.54c7.26-1.08,14.54-2.06,21.82-3.06.93-.13,1.93-.34,2.64.84-.3.6-.6,1.27-1,1.9-2.44,4.25-5,8.46-7.34,12.75-9.38,16.88-22,45.72-30.14,63.21a4.16,4.16,0,0,1-3.33,2.58c-8.81,1.57-17.59,3.32-26.4,4.89-1.27.23-2.67.71-4.1,0a1.19,1.19,0,0,1-.67-1.16,48.5,48.5,0,0,1,1.63-9.2c1.56-5.85,3.57-11.59,4.85-17.51,3.37-15.58,8-6.95,12.57-9.26,2.43-1.22,3-2.21,2.78-4.77-.19-1.91-5.2-4.77-7.63-5.3-2.07-.45-4.2-.93-6.11,0-5.84,2.76-9.88,7.55-14.51,11.85-4.8,4.46-10.34,8.11-15.3,12.4-10.35,9-20.4,18.26-30.87,27.08-9.92,8.35-21.77,15-31,24.05a34.53,34.53,0,0,1-6.27,4.31,2.36,2.36,0,0,1-1.37.1.76.76,0,0,1-.63-1.07c.37-.83.67-1.52,1-2.19,2.63-5.24,5.1-10.57,7.94-15.69,3.42-6.18,5.78-13,10.51-18.38a3.9,3.9,0,0,0-.92-6,16.83,16.83,0,0,0-1.93-.87c-3.39-1.33-5.45-.87-7.22,2.29-2.6,4.65-5,9.39-7.4,14.16-1.52,3-2.5,6.38-4.27,9.26a46.23,46.23,0,0,0-6.07,14c-.67,3-.88,7.06.95,9.69a8.54,8.54,0,0,0,7.84,3.22c5.35-.53,10.23-4.92,14.43-7.93,5.43-3.9,10.72-8,15.91-12.19,10-8.1,19.55-16.68,29-25.42,3.67-3.41,7.41-6.73,11.14-10.07a16.74,16.74,0,0,1,3-2,.51.51,0,0,1,.77.42,46.8,46.8,0,0,1,0,5.49c-1,7,.22,16.23-6,18.38-10,3.47-15.95,8.23-24.26,14.55-3.54,2.69-6,9-4,13.34,1.61,3.45,7.62,5.48,11.06,6.38a26.16,26.16,0,0,0,14.44-.82c6.94-2.2,18.68-6.39,21-14.19,1.49-5,3.27-10,3.43-15.28a5.4,5.4,0,0,1,3.87-4.94c8.7-2.66,15.19-4.33,23.78-7.33a25.06,25.06,0,0,1,5.43-1.33,20.12,20.12,0,0,0-1.34,3.14c-3,8.88-2.21,6.08-5.7,14.78-2,5-9.86,17.42-5.38,22.65,2.66,3.1,5.58,5.68,12.12,1.75,3.62-2.18,5.79-5.67,7.83-9.1a68.26,68.26,0,0,0,4.76-10.45,567.44,567.44,0,0,1,26-56.88c9.1-17.52,18-35.88,30-51.58a5.33,5.33,0,0,1,3.8-2.15c4.76-.45,9.52-1,14.29-1.22a68.64,68.64,0,0,1,15.5,1.53C652.41,41.18,656.4,43.34,660.24,43.54Zm-179,116.69a1.19,1.19,0,0,1-1.23-.93,2.71,2.71,0,0,1,1-2.43,35.88,35.88,0,0,1,5.67-4.77c1.05-.72,2.13-1.39,3.24-2a8.7,8.7,0,0,1,3.29-1.49,1.17,1.17,0,0,1,.95.25,1.2,1.2,0,0,1,.27.7,4.4,4.4,0,0,1-1.83,4.09c-3.07,2.25-6.32,4.27-9.58,6.25A3.73,3.73,0,0,1,481.22,160.23Z"/><path class="cls-1" d="M659.93,136.59q-1.4,1.09-2.78,2.21c-7,5.72-13.55,12.13-20.26,18.22a9.21,9.21,0,0,1-1.5.92c-1.06-1.34-.33-2.45,0-3.48q3.81-10.52,7.74-21c1.76-4.69,3.55-9.36,5.42-14,1.51-3.75,3.23-7.41,4.71-11.17,1.41-3.58.37-5.62-3.27-6.93l-6.23-2.26c.18-.77.24-1.18.37-1.58s.41-1,.55-1.5c.56-2,.15-2.68-1.86-3.24-2.38-.66-14.42-2-21.07-.67-13.52,2.7-22.29,11.13-31.45,21.13a138.17,138.17,0,0,0-12.88,16.56c-3.9,5.83-6.22,21.71-.24,27.05,2.09,1.87,5.15,2.2,7.94,1.93,11.7-1.13,17.17-10.81,24.77-18.32,3.86-3.82,7.69-7.67,11.56-11.48a25,25,0,0,1,2.1-1.68,2.77,2.77,0,0,1,0,2.3c-2.21,4.25-4.58,8.43-6.7,12.72-2.64,5.36-4.84,10.86-5.34,16.94-.52,6.34,2.16,11.12,6.73,15.12a7.41,7.41,0,0,0,1.65.94c2.27,1.11,4.62,1,7.11.94a7.35,7.35,0,0,0,4.43-1.32,45.2,45.2,0,0,0,4.77-4.17c3.9-3.93,7.62-8,11.58-11.92,5.62-5.51,10-12.94,15.62-18.4,5.14-5,7.18-8.42,13.3-10.86,2.22-.89,8-.67,8.42-2.66s-2.44-2.44-4.21-2.44c-2.23,0-9.25,3.11-11.08,4.38C664.08,132.87,665.93,131.89,659.93,136.59ZM589.87,148c-14.69,8.17-5.08-7.76-3.25-10.34,3.14-4.43,6.53-8.67,9.81-13,1.48-1.95,2.84-4,4.46-5.81a43.18,43.18,0,0,1,5.69-5.57c5.48-4.23,11.12-8.84,17.46-11.71A26.71,26.71,0,0,1,635.41,99c4.53.08,5.45.73,3.12,4.29a53.32,53.32,0,0,1-8.7,10.53c-5.54,4.82-11.11,9.61-16.65,14.42-5.3,4.6-9.57,8.95-14.88,13.54C596.23,143.54,592.94,146.86,589.87,148Z"/></svg>