<svg width="335" height="50" viewBox="0 0 335 50" fill="none" xmlns="http://www.w3.org/2000/svg">
<path d="M292.737 21.7788C291.454 21.2301 290.383 22.1105 289.221 22.3269C287.469 22.6532 285.853 23.6596 283.945 23.2185C283.269 23.0616 282.127 24.4942 282.302 25.1011C282.573 26.0474 283.108 25.9286 283.862 25.3561C281.735 28.7611 279.738 32.0322 276.374 34.3844C276.723 32.3122 277.384 30.3057 278.335 28.4341C279.468 26.1372 280.559 23.7612 282.222 21.8561C283.81 20.0365 285.889 18.6509 287.746 17.0667C290.527 14.817 293.054 12.2673 295.282 9.46322C296.237 8.19766 296.016 7.26796 294.62 6.76685C293.506 6.36739 292.226 6.17598 291.223 6.64797C289.175 7.60917 287.473 9.14758 285.792 10.6759C281.819 14.2531 278.47 18.4741 275.883 23.1638C275.233 24.3527 274.911 25.8424 274.004 26.7566C272.315 28.4579 270.307 29.8382 268.359 31.4117C268.503 30.9326 268.678 30.4634 268.882 30.007C270.273 27.3956 271.709 24.8086 273.078 22.1836C273.234 21.8614 273.283 21.4973 273.218 21.1448C273.153 20.7923 272.977 20.4702 272.716 20.2261C272.507 19.9956 272.23 19.8379 271.926 19.7759C271.622 19.714 271.306 19.7509 271.024 19.8813C268.664 20.9638 266.857 22.8179 264.898 24.4514C263.893 25.2895 262.964 26.2204 261.851 27.2488C262.282 26.328 262.652 25.6052 262.961 24.8568C263.219 24.2314 263.443 23.4438 262.8 23.0366C262.501 22.8226 262.144 22.7047 261.777 22.6986C261.41 22.6924 261.049 22.7983 260.743 23.0021C259.122 24.0501 257.682 25.3317 256.118 26.5182C256.702 25.3097 257.3 24.1678 257.804 22.9837C258.006 22.5082 258.487 21.9916 258.35 21.4673C257.968 19.6531 254.864 20.3646 253.007 21.3894C253.041 20.9717 253.003 20.5513 252.896 20.1465C252.718 19.5835 251.895 19.4967 251.408 19.4961C250.749 19.5037 250.1 19.6703 249.517 19.9818C246.137 21.7336 243.338 24.279 240.625 26.8927C238.491 28.9495 236.537 31.1959 234.38 33.491C234.48 33.1837 234.512 33.044 234.569 32.9156C236.471 28.7258 238.722 24.7049 241.296 20.8954C242.454 19.1395 243.382 17.2242 245.16 15.9349C247.897 14.0091 250.374 11.7345 252.529 9.16779C253.146 8.41464 253.617 7.12351 252.352 6.76388C251.733 6.66163 251.099 6.70228 250.498 6.88276C249.743 7.09039 249.029 7.42699 248.386 7.87786C248.05 8.09122 247.725 8.32382 247.415 8.57454C247.221 8.73028 246.996 8.85392 246.812 9.01264C246.598 9.19632 246.409 9.42101 246.211 9.62193C244.262 11.5024 242.517 13.5862 241.006 15.838C240.406 16.7855 239.876 17.9066 239.015 18.5308C237.106 19.926 235.026 21.0688 232.826 21.931C232.491 22.0605 231.724 22.3506 231.694 21.84C231.655 21.1582 231.326 21.333 231.013 21.3431C230.314 21.4251 229.663 21.7415 229.165 22.2413C226.905 24.0414 224.976 26.2269 223.468 28.698C221.01 29.9315 217.563 31.5638 215.761 32.2052C213.333 33.0701 210.94 34.0426 208.375 34.4474C207.311 34.6151 206.468 34.5408 206.041 33.2853C205.72 32.3396 205.961 31.4907 206.078 30.5889C206.374 28.2867 207.433 26.2882 208.532 24.317C209.812 22.0225 211.723 20.2154 213.353 18.1878C214.074 17.2479 214.864 16.3639 215.716 15.5431C217.574 13.8214 219.606 12.2992 221.777 11.001C223.534 9.96157 225.349 9.02554 227.213 8.19766C228.503 7.6662 229.878 7.37766 231.271 7.34642C231.473 7.33652 231.673 7.39398 231.84 7.5099C231.899 7.55448 231.791 7.83862 231.736 8.00506C231.491 8.7386 231.054 7.9165 230.769 8.11623C229.695 8.87176 230.248 9.7854 230.615 10.6158C230.843 11.1312 231.288 10.8744 231.675 10.6973C233.244 9.97979 233.985 8.31358 233.08 7.35178C232.373 6.67803 231.632 6.04116 230.86 5.44364C230.382 5.0881 229.787 4.92815 229.196 4.99602C227.162 5.11357 225.159 5.54729 223.257 6.28179C219.881 7.44396 216.746 9.21876 214.006 11.5182C211.112 13.7633 208.523 16.3815 206.307 19.3053C204.029 22.482 202.395 25.9577 202.307 30.1966C202.307 41.2104 215.37 34.4974 217.657 33.3471C218.76 32.7937 220.84 31.5412 222.664 30.3428C222.593 30.5503 222.586 30.6466 222.632 30.6086C222.155 32.0875 222.818 32.9037 223.932 33.3858C224.756 33.7424 226.757 32.5024 227.707 31.4485C228.972 30.0977 230.126 28.6454 231.156 27.1061C231.75 26.2082 232.254 25.2539 232.662 24.257C232.839 23.8135 232.833 23.5175 233.421 23.4188C234.772 23.1924 235.831 22.2983 236.943 21.6242C236.073 23.1751 235.17 24.7272 234.323 26.312C232.952 28.8835 231.491 31.4241 230.934 34.3428C230.791 34.9086 230.87 35.5081 231.156 36.0164C231.441 36.5246 231.911 36.9023 232.467 37.0707C232.784 37.1759 233.127 37.1757 233.444 37.0703C233.761 36.9649 234.037 36.7598 234.23 36.4852C235.521 35.1595 236.727 33.7522 237.84 32.2718C239.397 30.0997 240.864 27.8777 242.853 26.0528C244.55 24.4635 246.358 22.9984 248.263 21.6688C246.866 22.9696 245.588 24.3936 244.443 25.9238C242.657 28.3782 242.146 30.3113 243.77 32.887C243.841 33.0496 243.944 33.1959 244.073 33.3171C244.202 33.4382 244.354 33.5317 244.519 33.5916C244.685 33.6516 244.862 33.6769 245.038 33.6659C245.214 33.655 245.386 33.608 245.543 33.5278C247.2 32.8073 248.609 31.6111 249.593 30.089C250.152 29.2877 250.654 28.4478 251.096 27.5757C251.313 27.1365 251.484 26.6841 251.665 26.2317C252.109 25.1594 252.47 24.0542 252.744 22.926C253.733 21.8703 256.172 20.7397 256.358 21.7722C256.43 22.1652 256.004 22.7364 255.953 22.8512C255.086 24.9638 253.508 26.6841 252.688 28.8229C252.25 29.9666 251.458 31.0431 252.097 32.38C252.309 32.8217 252.603 32.8704 252.86 32.5441C254.451 30.3734 256.25 28.3657 258.233 26.5503L258.964 25.8602L260.193 24.6999C260.307 24.5923 260.79 24.0519 260.951 24.2011C260.962 24.2177 260.968 24.2363 260.971 24.2556C260.974 24.2749 260.973 24.2946 260.968 24.3135C260.961 24.3356 260.952 24.3567 260.94 24.3765C260.513 25.1867 260.069 25.9892 259.64 26.7988C259.187 27.6542 258.75 28.5227 258.379 29.4143C258.102 30.0565 257.882 30.7221 257.722 31.4033C257.636 31.781 257.685 32.1773 257.862 32.5215C258.039 32.8657 258.332 33.1353 258.689 33.2823C259.3 33.5451 259.377 32.8662 259.619 32.5619C262.255 29.2206 264.851 25.8447 268.187 23.1472C269.104 22.4049 270.023 21.665 270.945 20.9275C270.961 21.0283 270.958 21.1313 270.934 21.2305C270.911 21.3298 270.868 21.4234 270.808 21.5059C268.82 24.7498 266.376 27.6881 264.612 31.0865C263.778 32.6915 263.759 33.8167 264.809 35.0502C265.332 35.6631 266.447 35.9841 266.743 35.5852C267.5 34.6348 268.32 33.736 269.196 32.8948C270.486 31.5692 271.864 30.3298 273.306 28.9572C273.205 29.617 273.114 30.1021 273.059 30.5919C272.855 32.3937 272.972 34.1276 275.827 35.5715C277.174 36.2528 278.301 35.4621 279.335 34.6305C281.599 32.8104 282.614 30.1663 283.892 27.6875C284.483 26.539 284.689 25.072 286.07 24.4971C287.633 23.8498 289.233 23.2964 290.92 22.6633C289.882 24.4698 288.858 26.1146 287.973 27.8313C287.541 28.5077 287.209 29.243 286.986 30.0147C286.906 30.4044 286.939 30.8087 287.08 31.1804C287.225 31.6195 287.517 31.9941 287.907 32.2403C287.992 32.2825 288.085 32.3064 288.18 32.3104C288.338 32.3264 288.498 32.306 288.647 32.251C288.842 32.163 288.888 31.9538 288.962 31.7713C289.159 31.2731 289.362 30.7778 289.573 30.2852C289.99 29.3 290.432 28.3259 290.899 27.3629C291.501 26.1186 292.143 24.8956 292.826 23.6941C293.134 23.1525 294.075 22.35 292.737 21.7788ZM282.967 17.8157C283.882 16.0387 285.028 14.392 286.374 12.9187C287.878 11.2852 292.905 6.93983 293.777 8.17269C294.176 8.73563 293.524 9.17849 293.21 9.5625C290.634 12.7047 284.806 17.5375 281.805 20.2362C281.295 20.6933 282.859 18.032 282.967 17.8157ZM244.749 14.6996C245.21 13.654 245.806 12.6745 246.522 11.7869C247.219 10.8947 247.996 10.0682 248.842 9.31759C249.197 8.9999 249.57 8.70222 249.958 8.42593C250.122 8.31061 250.289 8.20142 250.461 8.09839C250.493 8.07941 250.527 8.06426 250.563 8.05322C250.728 8.0015 250.96 8.00388 251.05 8.15546C251.193 8.39799 250.891 8.69045 250.758 8.86522C250.182 9.61146 249.565 10.3245 248.909 11.001C248.166 11.7881 247.4 12.5525 246.611 13.2944C246.252 13.6336 245.888 13.9681 245.519 14.2978C245.356 14.4428 245.191 14.5863 245.026 14.7282C244.95 14.7929 244.875 14.8577 244.798 14.9214C244.753 14.9594 244.612 15.0402 244.592 15.0914C244.642 14.9606 244.695 14.83 244.749 14.6996ZM231.924 23.2494C230.801 25.3711 229.301 27.2683 227.499 28.8472C226.627 29.7407 225.657 30.5327 224.609 31.2083C225.378 28.5334 227.054 26.5896 228.633 24.5726C229.32 23.6206 230.223 22.8477 231.268 22.3185C231.327 22.3051 231.388 22.3005 231.448 22.3049C231.461 22.6895 232.213 22.6508 231.924 23.2494ZM251.594 22.7103C251.566 22.7923 251.535 22.8737 251.508 22.9552C251.205 23.8031 250.853 24.6324 250.453 25.4387C250.06 26.2313 249.611 26.9945 249.11 27.7226C248.607 28.4517 248.046 29.1382 247.432 29.7752C247.12 30.0985 246.794 30.4082 246.454 30.7043C246.282 30.8541 246.106 31.0015 245.927 31.1424C245.771 31.2672 245.557 31.4568 245.353 31.2963C245.297 31.2397 245.256 31.1691 245.236 31.0917C245.215 31.0143 245.215 30.9327 245.235 30.8553C245.251 30.6876 245.256 30.5206 245.278 30.3536C245.32 30.0392 245.383 29.728 245.466 29.4221C245.589 28.9705 245.742 28.5279 245.925 28.0977C246.172 27.5188 246.458 26.9576 246.78 26.4178C247.196 25.7229 247.656 25.0556 248.156 24.4199C248.785 23.621 249.459 22.86 250.176 22.1408C250.663 21.6492 251.429 21.4156 251.668 21.7841C251.859 22.0837 251.698 22.4125 251.594 22.7103ZM334.994 28.5506C334.715 26.7554 333.458 25.9185 331.881 25.5368C327.85 24.5596 323.931 25.3395 320.13 26.6472L319.783 26.7661C319.109 27.0015 318.437 27.2452 317.768 27.4973C317.142 27.7351 316.519 27.9788 315.899 28.2284C315.322 28.4634 314.746 28.7048 314.174 28.9525C313.643 29.1831 313.114 29.4199 312.589 29.6628C312.103 29.8867 311.621 30.1162 311.141 30.3512C310.701 30.5668 310.263 30.7869 309.827 31.0116C309.43 31.2153 309.036 31.4233 308.645 31.6358C308.29 31.8264 307.938 32.0202 307.589 32.2171C307.277 32.3919 306.966 32.5688 306.657 32.7479C306.386 32.9065 306.116 33.065 305.846 33.2235L305.153 33.6331C304.961 33.7468 304.768 33.8593 304.574 33.9707C304.492 34.0177 304.41 34.0646 304.327 34.1104C304.275 34.1463 304.22 34.1781 304.163 34.2055C304.118 34.2224 304.069 34.23 304.021 34.2278C303.972 34.2255 303.925 34.2135 303.881 34.1924C303.857 34.1725 303.84 34.1448 303.834 34.114C303.831 33.9709 303.859 33.8288 303.917 33.6979C303.964 33.5308 304.015 33.3644 304.068 33.1985C304.174 32.8674 304.288 32.5399 304.409 32.2141C304.652 31.565 304.921 30.926 305.202 30.2923C305.484 29.6587 305.776 29.0303 306.066 28.4002C306.355 27.7701 306.638 27.1448 306.904 26.5081C307.353 25.434 307.954 24.487 307.736 23.1716C307.603 22.3962 307.238 21.6803 306.688 21.1204C306.139 20.5606 305.432 20.1837 304.663 20.0407C303.727 19.8607 302.763 19.8958 301.843 20.1435C300.92 20.3576 300.043 20.7422 299.259 21.2777C295.84 23.5513 293.201 26.8313 291.704 30.6698C291.193 31.9562 291.482 33.9642 292.291 34.3333C292.808 34.6288 293.403 34.759 293.995 34.7065C294.588 34.6541 295.151 34.4215 295.609 34.0397C296.896 33.0642 303.02 26.712 304.532 25.0315C303.919 26.4766 303.382 27.615 302.948 28.792C302.144 30.9658 300.716 32.9982 301.411 35.5323C301.62 36.2932 302.825 37.0737 303.538 36.7414C304.287 36.3864 305.008 35.9738 305.694 35.5073C307.412 34.3511 309.085 33.1296 310.915 32.1476C313.448 30.7875 318.807 27.7975 325.261 26.413C326.927 26.0266 328.66 26.0386 330.321 26.4481C331.982 26.8577 333.524 27.6533 334.824 28.7712C334.864 28.8039 334.938 28.7967 334.995 28.808C335.002 28.7223 335.001 28.6362 334.994 28.5506ZM299.29 28.2213C298.578 28.7997 297.839 29.3442 297.093 29.8768C296.65 30.1925 296.207 30.5033 295.76 30.8154C295.583 30.9385 295.417 31.0758 295.235 31.1881C295.134 31.2476 294.959 31.3463 294.858 31.2517C294.844 31.2395 294.833 31.2253 294.824 31.2095C294.754 31.0859 294.829 30.9349 294.889 30.8238C294.959 30.6954 295.031 30.5681 295.102 30.4403C295.291 30.0944 295.483 29.7502 295.678 29.4078C296.135 28.6113 296.617 27.8272 297.147 27.0776C297.664 26.3393 298.24 25.645 298.87 25.0018C299.493 24.4121 300.15 23.8591 300.837 23.3457C301.015 23.2048 301.192 23.0604 301.374 22.9255C301.741 22.6471 302.123 22.3891 302.519 22.1527C303.097 21.7591 303.73 21.4538 304.397 21.2468C304.921 21.1279 305.579 20.9894 305.83 21.6183C305.94 21.796 305.983 22.0077 305.95 22.2145C305.917 22.4213 305.812 22.6093 305.653 22.7441C303.533 24.5714 301.462 26.4594 299.293 28.2213H299.29ZM295.729 17.2183C295.811 17.3052 295.873 17.4091 295.911 17.5227C295.949 17.6364 295.961 17.757 295.948 17.876C295.934 17.9951 295.894 18.1096 295.832 18.2117C295.77 18.3137 295.686 18.4007 295.586 18.4666C295.046 18.9138 294.439 19.271 293.787 19.5247C293.572 19.6017 293.344 19.638 293.116 19.6317C292.957 19.6295 292.801 19.5813 292.668 19.4928C292.535 19.4043 292.431 19.2791 292.366 19.1324C292.091 18.5528 292.669 18.0196 293.075 17.6849C293.549 17.3217 294.083 17.0476 294.654 16.8759C294.844 16.797 295.057 16.7881 295.253 16.8507C295.45 16.9133 295.618 17.0434 295.729 17.2183ZM195.091 24.8223C194.925 24.8372 194.765 24.891 194.624 24.9792C194.141 25.2765 193.678 25.6135 193.197 25.9125C189.729 28.0566 186.15 29.9707 182.169 30.9741C181.493 31.1441 180.711 31.1525 180.482 30.2246C180.311 29.5338 179.898 28.7385 180.829 28.2445C182.755 27.2888 184.438 25.9032 185.75 24.1934C186.305 23.4367 187.168 22.6288 186.531 21.5737C186.249 21.0781 185.82 20.6831 185.305 20.4432C184.79 20.2033 184.213 20.1303 183.655 20.2344C182.544 20.3759 181.823 21.0952 181.035 21.7705C179.054 23.3345 177.209 25.0646 175.519 26.9421C174.293 28.4163 172.987 29.8245 171.632 31.3582C172.032 28.276 174.719 22.6431 176.626 20.4686C178.967 17.7984 181.254 15.0813 183.489 12.3171C184.646 10.8905 185.808 9.39307 186.023 7.49622C186.093 6.88276 186.611 5.61662 185.127 5.69092C184.545 5.71591 183.982 5.90681 183.504 6.24137C180.056 8.87354 177.694 12.4158 175.364 16.011C174.768 16.93 174.453 17.849 174.09 18.4273C174.056 18.4832 174.008 18.5284 173.95 18.558C173.892 18.5875 173.827 18.6001 173.762 18.5944C172.366 18.626 170.992 18.9544 169.731 19.558C166.316 21.3174 163.396 23.9137 161.24 27.1073C160.05 28.8758 158.889 30.6781 159.834 33.0107C160.397 34.3999 161.156 34.8802 162.562 34.366C164.484 33.6628 165.572 31.9038 167.029 30.6151C168.26 29.5255 169.422 28.3562 170.482 27.3457C170.062 28.5381 169.585 29.9404 169.076 31.3284C168.494 32.9162 168.435 34.4415 169.511 35.8598C169.56 35.9366 169.624 36.0022 169.7 36.0525C169.776 36.1027 169.861 36.1365 169.95 36.1517C170.04 36.1669 170.131 36.1631 170.219 36.1405C170.307 36.118 170.389 36.0773 170.46 36.0209C172.342 35.0145 173.195 33.088 174.411 31.5109C175.771 29.7472 177.134 27.9978 178.725 26.284C178.68 26.4909 178.662 26.5872 178.638 26.6817C178.381 27.5204 178.308 28.4051 178.424 29.275C178.539 30.1448 178.84 30.9792 179.307 31.7208C180.193 33.1034 181.907 33.4773 184.255 32.5417C187.387 31.3124 190.309 29.5981 192.915 27.461C193.671 26.8357 194.228 26.0391 194.961 25.406C195.048 25.3402 195.109 25.2453 195.133 25.1383C195.157 25.0313 195.142 24.9192 195.091 24.8223ZM182.835 22.3174C183.462 21.8018 184.265 21.554 185.072 21.6272C185.111 21.6309 185.149 21.6453 185.181 21.6688C185.212 21.6923 185.237 21.724 185.253 21.7607C185.268 21.7973 185.273 21.8374 185.267 21.8767C185.262 21.916 185.246 21.953 185.221 21.9839C184.193 23.8213 182.067 25.5012 180.569 26.9177C180.411 25.4524 181.219 23.8153 182.835 22.3174ZM182.004 9.92807C182.667 9.20404 183.291 8.44197 183.926 7.69358C184.183 7.38863 184.506 7.0605 184.879 7.27212C185.233 7.47482 185.067 7.89807 184.928 8.23452C183.8 10.9689 181.693 12.9603 179.751 15.064C178.667 16.238 177.46 17.2979 176.492 18.233C177.915 15.2082 179.772 12.4101 182.004 9.92807ZM170.688 24.1946C170.301 24.5465 169.901 24.8835 169.506 25.2271C169.243 25.4566 168.982 25.689 168.73 25.9303C166.689 27.8825 164.782 29.988 162.34 31.6447C162.425 30.9718 163.114 29.6711 163.911 28.3259C164.969 26.7184 166.219 25.2482 167.634 23.9485C168.137 23.4973 168.664 23.0717 169.204 22.6675C169.745 22.2632 170.302 21.8787 170.866 21.5059C171.429 21.1332 172.002 20.773 172.576 20.4157C172.668 20.3563 173.088 20.0169 173.158 20.2749C173.167 20.4092 173.144 20.5437 173.09 20.6672C173.055 20.8023 173.015 20.9359 172.972 21.0678C172.884 21.3217 172.779 21.5688 172.655 21.8073C172.414 22.2673 172.12 22.6976 171.78 23.0895C171.439 23.4809 171.074 23.8503 170.688 24.1958V24.1946ZM119.152 20.9805C118.882 20.7024 118.529 20.5217 118.147 20.4666C117.765 20.4114 117.375 20.4849 117.039 20.6755C115.945 21.3169 114.815 21.9001 113.756 22.5938C112.539 23.3909 111.383 24.282 110.019 25.2628C110.638 24.3372 111.25 23.4147 111.847 22.4749C112.243 21.8537 114.457 18.5872 113.874 17.9203C113.696 17.7301 113.472 17.5912 113.223 17.518C112.974 17.4448 112.711 17.4401 112.459 17.5042C111.125 17.7747 110.151 18.6889 109.144 19.4795C105.507 22.3328 103.885 24.1993 100.666 27.4937C100.1 28.0733 99.4946 28.6136 98.733 29.3365C99.2193 28.122 99.637 27.1495 99.9998 26.1568C100.565 24.6113 101.017 23.0259 101.939 21.6391C102.302 21.0922 102.193 20.6844 101.514 20.5233C101.254 20.4639 101.12 20.3628 101.122 20.0412C101.129 18.8702 99.536 17.6819 98.4511 18.0005C96.2151 18.658 94.3609 19.9866 92.5469 21.3829C92.3058 21.5684 92.2798 21.6207 92.1167 21.2777C92.0362 21.0676 91.9063 20.8803 91.7382 20.7318C91.57 20.5832 91.3686 20.4778 91.1512 20.4247C89.2698 20.0085 87.9355 21.1017 86.5652 22.0558C84.9109 23.3146 83.3644 24.7106 81.942 26.2293C82.2068 25.7461 82.348 25.4524 82.5211 25.1796C83.6893 23.332 84.4019 21.2063 85.9028 19.5627C85.976 19.4986 86.0353 19.42 86.077 19.3318C86.1187 19.2437 86.1421 19.1479 86.1455 19.0503C86.1489 18.9527 86.1324 18.8555 86.097 18.7646C86.0615 18.6737 86.0079 18.5911 85.9395 18.5219C85.6875 18.2978 85.3735 18.1566 85.0395 18.117C84.5237 18.041 83.9334 17.5743 83.5168 18.3661C82.8235 19.5638 81.966 20.6572 80.9694 21.6141C78.6537 24.0299 75.9255 25.9773 73.3563 28.1036C71.4217 29.7056 69.4327 31.2541 67.0059 32.0637C66.743 32.1511 66.1745 32.4246 66.1367 31.8717C66.0428 30.5123 67.4308 28.4454 68.6309 27.8991C70.9514 26.9479 73.099 25.6159 74.986 23.9574C76.1087 22.8963 76.3545 21.8085 75.4321 21.3835C74.235 20.8318 73.0183 20.2124 71.7095 20.7777C70.4548 21.3521 69.3059 22.136 68.3112 23.0961C67.8003 23.575 67.3188 24.0848 66.8694 24.6226C66.2541 25.3291 65.7276 26.1091 65.3018 26.945C64.9567 27.6471 64.559 28.3336 63.7454 28.5286C62.1683 28.9055 60.6526 29.5392 59.1098 30.0629C60.1415 29.1843 61.159 28.3604 62.1405 27.4765C65.9187 24.0739 65.4288 20.0918 61.4757 17.6207C57.3909 15.0646 52.7612 14.7989 48.1096 16.1489C47.5241 16.3189 46.9024 16.565 47.1997 17.4858C47.436 18.211 48.1126 18.6746 48.528 18.3774C49.2952 17.8808 50.2052 17.6559 51.1138 17.7384C52.1862 17.7384 53.2581 17.7384 54.3188 17.7384C53.0862 19.7405 51.9262 21.714 50.6665 23.6233C50.6345 23.6709 50.5944 23.7333 50.5483 23.8064C49.1883 24.0342 47.8618 24.4314 46.5993 24.9887C43.8611 26.1639 39.5676 29.0119 39.4808 28.6618C38.8946 26.3132 38.6216 24.9537 39.1918 21.9963C39.3989 21.1407 39.8153 20.3507 40.4032 19.6983C41.0629 18.9856 41.9509 18.5291 42.9115 18.4089C43.4199 18.3802 43.93 18.4144 44.4301 18.5106C44.4532 18.5145 44.4765 18.5168 44.4999 18.5177C44.5454 18.5177 44.9466 18.5266 44.9897 18.1682C45.0252 17.8751 44.7315 17.742 44.5536 17.689L44.4354 17.6534C43.4915 17.327 42.511 17.1198 41.5164 17.0364H41.4148C40.6881 16.9871 39.9591 17.0873 39.2722 17.3309C38.5853 17.5744 37.955 17.9562 37.4196 18.453C36.8843 18.9497 36.4551 19.551 36.1584 20.2201C35.8617 20.8892 35.7035 21.6121 35.6937 22.3447C35.6462 24.8086 35.9797 27.2651 36.6823 29.626C36.6864 29.6402 36.6917 29.6545 36.6971 29.6682C36.76 29.7993 36.7695 29.95 36.7236 30.0882C36.6776 30.2263 36.5799 30.3409 36.4512 30.4076C36.0731 30.6395 35.6878 30.8594 35.3002 31.0752C34.6756 31.4229 34.0451 31.7588 33.4259 32.1161C32.7227 32.5209 32.042 32.9631 31.3341 33.3602C30.4572 33.8518 29.6205 34.4165 28.7932 34.9824C28.3955 35.2535 27.9949 35.521 27.5961 35.7909C27.2297 35.996 26.9218 36.2922 26.7014 36.651C26.5719 36.858 26.4964 37.0945 26.4821 37.3386C26.4677 37.5827 26.5149 37.8265 26.6193 38.0474C26.6428 38.0812 26.6695 38.1127 26.6991 38.1413C26.9804 38.4147 27.4737 38.3791 27.8348 38.4016C28.3666 38.4343 28.8984 38.4771 29.4361 38.4813C29.8497 38.4813 30.2634 38.4724 30.677 38.4361C31.1279 38.3963 31.5763 38.3262 32.0231 38.2542C32.8464 38.1223 33.6644 37.961 34.4771 37.7703C34.9649 37.6667 35.4464 37.5353 35.9194 37.3768C37.3967 36.8418 39.2527 36.1844 39.7815 34.5235C40.0243 33.57 40.0927 32.58 39.9836 31.6019L39.9789 31.499C39.9581 31.372 39.9452 31.2437 39.9405 31.115C39.9777 30.5901 39.7585 30.2234 40.4073 29.7437C41.1069 29.2259 47.2079 25.5148 49.7819 25.0012C49.2654 25.8198 48.7271 26.6799 48.694 26.7376C46.1774 31.052 43.542 35.3058 41.4077 39.8259C40.6183 41.4981 39.2214 43.2231 40.4877 45.3274C40.7104 45.6978 41.0195 46.0461 41.3557 45.995C41.5764 45.9842 41.7898 45.9123 41.9724 45.7872C42.155 45.662 42.2996 45.4885 42.3904 45.2858C43.844 41.0017 46.2814 37.23 48.5463 33.3733C50.589 29.8935 52.7872 26.504 54.7549 22.9825C55.6117 21.4489 57.4139 19.7951 55.1384 17.8276C57.3247 18.1664 59.5057 18.2466 61.2837 19.6977C61.6502 19.9415 61.9391 20.2866 62.1156 20.6915C62.2921 21.0964 62.3487 21.5438 62.2788 21.9803C62.0553 23.2135 61.4534 24.3452 60.5575 25.2164C58.3079 27.4753 55.6158 29.1397 53.01 30.923C52.2802 31.4218 51.6923 32.1809 50.784 32.3467C50.3946 32.4174 50.3704 32.6647 50.4685 32.8151C50.5754 33.0154 50.7328 33.1839 50.9249 33.3037C51.117 33.4234 51.337 33.4903 51.5628 33.4975C53.0081 33.3231 54.4317 33 55.8114 32.5334C58.5732 31.6025 61.341 30.6906 64.1767 29.7442C64.1389 30.0016 64.1218 30.1604 64.0904 30.3203C63.6886 32.3497 65.1488 34.6192 66.7643 34.4219C68.5046 34.1706 70.1321 33.4067 71.4418 32.2266C73.3788 30.5765 75.2401 28.8383 77.2432 27.036C77.1191 27.2862 77.066 27.4105 76.9986 27.527C76.0933 29.132 75.2111 30.737 74.9417 32.6071C74.9519 33.2884 75.1685 33.9504 75.5627 34.5045C75.6887 34.769 75.8876 34.9915 76.1359 35.1453C76.3379 35.2393 76.5584 35.2861 76.781 35.2823C77.0035 35.2785 77.2224 35.2242 77.4211 35.1233C77.8792 34.7374 78.2651 34.2722 78.5603 33.7496C79.4555 32.5381 80.2148 31.2173 81.1762 30.0641C82.517 28.4591 83.5989 26.8345 85.1181 25.4031C86.6148 23.9949 88.3397 21.6332 90.6028 22.1224C90.9616 22.2371 91.3498 22.216 91.6942 22.0629C90.7098 23.099 89.5581 23.9128 88.7758 25.0815C87.6637 26.7423 86.7313 28.421 87.6448 30.5253C88.1228 31.6262 88.9572 32.2141 89.6852 31.7618C90.3963 31.3332 91.0686 30.8424 91.6942 30.2953C93.1082 29.0196 94.4714 27.6869 96.0113 26.2305C95.7548 26.7169 95.5351 27.222 95.3542 27.7416C94.9719 29.2705 93.8297 30.7857 95.1769 32.3782C95.4098 32.6671 95.6015 32.9872 95.7466 33.3293C95.8728 33.5479 96.0584 33.7258 96.2815 33.8422C96.5046 33.9587 96.756 34.0088 97.0064 33.9868C97.6015 33.7324 98.1224 33.3296 98.5197 32.8163C100.351 30.7185 106.69 22.5498 109.268 20.4205C109.741 20.0311 110.201 19.6269 110.686 19.2548C111.116 18.8964 111.598 18.6069 112.116 18.3964C112.205 18.3649 112.504 18.2407 112.552 18.3798C112.561 18.4256 112.559 18.4729 112.546 18.5177C112.532 18.5624 112.509 18.6032 112.476 18.6366C112.362 18.7601 112.257 18.8914 112.162 19.0295C111.947 19.3089 111.735 19.5895 111.521 19.8689C111.2 20.285 110.875 20.7011 110.534 21.1053C109.466 22.3153 108.469 23.5862 107.547 24.9115C106.655 26.1479 105.441 27.5728 106.07 29.211C106.149 29.4155 106.248 29.6118 106.365 29.7972C106.492 30.001 106.557 30.0861 106.791 30.133C106.973 30.1792 107.164 30.1756 107.344 30.1226C107.524 30.0696 107.687 29.9692 107.816 29.8316C108.122 29.4472 108.455 29.085 108.812 28.748C110.326 27.4158 111.857 26.1021 113.421 24.833C114.489 23.9681 115.625 23.1906 116.992 22.1812C115.419 24.4995 113.951 26.4832 112.685 28.5922C111.929 29.8513 110.303 33.1777 110.924 34.8225C111.137 35.3419 111.431 35.8236 111.795 36.2492C112.091 36.6059 112.382 36.8478 112.645 36.081C113.099 34.7583 114.349 31.4836 114.966 30.2269C116.228 27.6566 117.574 25.1273 118.826 22.5521C119.061 22.0766 119.637 21.4221 119.152 20.9816V20.9805ZM72.3293 22.2668C72.8062 21.9197 73.3752 22.1723 73.8781 22.378C74.0695 22.4558 73.91 22.5741 73.8521 22.6443C72.5562 24.1993 70.7889 25.0571 69.0138 25.9196C70.1294 24.7004 70.9827 23.2465 72.3293 22.2668ZM37.3671 32.8341C37.3097 33.1005 37.2177 33.3581 37.0936 33.6004C36.7462 34.1452 36.2696 34.5946 35.7067 34.9081C34.2724 35.8207 32.6766 36.4464 31.0067 36.7509C30.7479 36.8002 29.9992 36.8698 30.1363 36.4537C30.3691 35.7403 31.2768 35.2256 31.821 34.7797C32.3404 34.3547 32.858 33.9249 33.3981 33.5255C34.0103 33.0731 34.6886 32.7176 35.289 32.2498C35.4556 32.1202 35.6086 31.9746 35.7812 31.8533C36.0408 31.636 36.3297 31.4567 36.6392 31.3207C36.7449 31.2681 36.8659 31.2552 36.9803 31.2846C37.0946 31.3139 37.1948 31.3834 37.2625 31.4806C37.3213 31.5718 37.3602 31.6745 37.3766 31.782C37.4079 31.9924 37.405 32.2076 37.4203 32.4204C37.4246 32.5603 37.4066 32.6999 37.3671 32.8341ZM90.6069 27.9758C90.2826 28.1925 89.9473 28.3921 89.6024 28.5738C90.8931 25.9781 92.6901 23.6704 94.8862 21.7883C96.062 20.7613 97.4099 19.9527 98.8671 19.4004C99.1395 19.3018 99.6613 19.0069 99.7735 19.3868C99.9301 19.917 100.044 20.7052 99.5372 21.047C96.4113 23.165 93.588 25.6735 90.6081 27.9758H90.6069ZM28.99 31.6708C26.8964 32.5357 24.8472 33.5623 22.8659 34.5556C22.2565 34.8612 21.6459 35.1653 21.0342 35.4681C19.19 36.377 17.3381 37.2734 15.5512 38.2935C15.1719 38.5104 14.7937 38.7316 14.4226 38.9628C14.0515 39.194 13.6994 39.4336 13.3371 39.6684C12.4382 40.2699 11.4366 40.6991 10.3826 40.9345C9.82437 41.0858 9.24689 41.1529 8.66905 41.1337C8.33143 41.1082 8.00299 41.0112 7.70529 40.8489C6.99653 40.3822 6.39466 39.769 5.93969 39.0502C5.17566 38.0206 5.16089 37.1706 5.88592 35.9115C6.50282 34.8416 7.05117 33.7121 7.5812 32.6195C7.89911 31.9657 8.22764 31.2892 8.56682 30.6353C9.86679 28.1262 11.4209 25.1564 13.1061 22.1557C14.2837 20.0591 15.5879 17.9898 16.8494 15.9896C17.8374 14.4226 18.8585 12.8028 19.8151 11.1746C20.0621 10.7537 20.3263 10.3501 20.6318 9.8817C20.7807 9.65344 20.9378 9.41388 21.1045 9.1553L21.5772 8.41285L20.721 8.60783L19.3341 8.9205C18.3887 9.13212 17.4976 9.33245 16.6077 9.54704C12.8703 10.3649 9.35919 12.0048 6.32614 14.3489C4.42304 15.8564 2.94747 17.8408 2.04745 20.1031C1.95244 20.3349 1.92477 20.589 1.96768 20.836C1.99014 20.9383 2.15323 21.16 2.05336 21.2521C1.98896 21.3116 1.88555 21.2587 1.82291 21.2242C1.65812 21.1163 1.50641 20.9894 1.37088 20.8461C1.05547 20.5403 0.766281 20.2082 0.506396 19.8534C0.414807 19.7345 0.323218 19.6156 0.230447 19.5021C-0.391768 18.7293 0.435488 16.8557 0.504623 16.6761C1.37982 14.5589 2.91581 12.7854 4.88081 11.6234C9.28476 8.79864 14.5124 6.97134 20.8652 6.0357C21.5872 5.92929 22.3081 5.81694 23.029 5.70459C25.6514 5.29502 33.9015 4.21077 36.5966 4.12279C38.3693 4.06335 40.1733 4.04135 41.9182 4.01936C42.0364 4.01936 42.2001 3.97002 42.307 4.02887C42.4902 4.12933 42.3141 4.27437 42.2048 4.3576C41.8225 4.61455 41.408 4.81943 40.9722 4.9669C40.084 5.30127 39.1632 5.54037 38.2251 5.68022C37.5604 5.7896 36.8915 5.87163 36.2232 5.95366C35.6547 6.02381 29.5277 6.75675 28.951 6.84532C28.378 6.94334 27.8104 7.07091 27.2504 7.22754L26.8675 7.32681C26.7604 7.34939 26.6607 7.39859 26.5774 7.46993C26.4941 7.54127 26.4299 7.63246 26.3906 7.73519C26.3587 7.83721 26.3528 7.94566 26.3735 8.05057C26.3941 8.15548 26.4407 8.25349 26.5088 8.33557C27.0323 9.02928 26.9502 9.64987 26.5839 10.6979C26.0655 11.9963 25.3603 13.211 24.4909 14.3031C24.2545 14.636 24.0129 14.9695 23.7818 15.3083C22.9185 16.5745 22.0446 17.8014 21.1192 19.0997C20.848 19.4807 20.5224 19.8219 20.2441 20.197C21.3775 19.8183 22.47 19.451 23.5851 19.1864C24.6428 18.9344 25.7028 18.6917 26.7653 18.4583C27.8277 18.2248 28.8913 17.9942 29.9561 17.7663C31.0197 17.5385 32.0833 17.3112 33.1469 17.0845C33.3833 17.0346 33.6149 16.9787 33.8501 16.9365H33.8649C33.9376 16.9234 34.1946 16.8497 34.2372 16.943C34.2962 17.0756 34.0634 17.185 33.9813 17.2403C33.7851 17.3681 33.5783 17.4828 33.375 17.5969C32.9236 17.8541 32.4658 18.1 32.0018 18.3346C31.0753 18.8048 30.1304 19.2364 29.1814 19.659C28.6928 19.8772 28.2029 20.0924 27.7137 20.3099C24.6581 21.6658 21.3574 22.29 18.2758 23.5633C18.2272 23.5839 18.1762 23.5984 18.124 23.6067C17.2341 24.9739 16.4328 26.4178 15.6422 27.8498C15.2156 28.6225 14.7742 29.425 14.321 30.1978C13.9593 30.8142 11.4782 35.4384 11.3535 35.7885C11.2944 35.9472 11.2353 36.1148 11.1638 36.289L10.7963 37.1646L11.6483 36.7551C12.0844 36.5452 12.5093 36.3348 12.9282 36.1267C13.8358 35.6767 14.6926 35.2517 15.5796 34.8784C16.018 34.6945 16.4563 34.5103 16.8943 34.3256C19.4237 33.21 22.0088 32.2269 24.6392 31.3801C27.4663 30.5585 30.3628 30.0013 33.2917 29.7157H33.3059C33.2368 29.7754 33.1589 29.8237 33.0749 29.859L32.3315 30.1984C31.2407 30.6918 30.1133 31.2072 28.99 31.6708ZM152.759 26.6882C150.98 27.0979 149.264 27.743 147.654 28.6065C146.812 29.0666 145.999 29.5754 145.19 30.0926C144.702 30.4041 144.216 30.7197 143.729 31.0342L142.911 31.5632L142.458 31.8545C142.37 31.911 142.103 32.0198 142.058 32.1101C142.434 31.348 142.629 30.9878 142.794 30.6139C143.672 28.435 144.713 26.3259 145.907 24.3045C147.22 22.2341 147.113 21.1772 145.475 20.1138C144.764 19.6701 143.955 19.4088 143.12 19.3528C142.284 19.2968 141.448 19.4479 140.684 19.7928C136.852 21.2789 134.132 24.0573 132.179 27.6429C132.039 27.8997 132.009 28.1678 131.519 28.0709C129.77 27.7366 127.985 27.6295 126.209 27.7523C124.093 27.9238 121.99 28.2297 119.913 28.6683C122.268 26.7792 124.805 25.4845 127.164 23.9128C129.667 22.1718 132.291 20.6147 135.016 19.2536C135.294 19.1216 135.719 19.4432 135.856 18.9356C136.123 17.9476 135.515 16.8622 134.368 16.3397C131.985 15.2542 129.431 15.558 126.934 15.4338C125.286 15.3511 123.631 15.3178 121.982 15.3684C121.423 15.3856 120.629 14.9047 120.292 15.7958C120.164 16.0718 120.102 16.3743 120.111 16.6789C120.12 16.9834 120.2 17.2816 120.345 17.5493C120.489 17.817 120.694 18.0469 120.943 18.2203C121.193 18.3938 121.479 18.506 121.779 18.548C123.105 18.8452 124.426 18.4826 125.751 18.4618C127.646 18.4327 129.542 18.4547 131.498 18.4547C131.114 18.7436 130.783 19.0152 130.43 19.2536C126.063 22.205 121.68 25.1338 117.447 28.2801C116.804 28.7587 115.902 29.2782 115.734 29.9363C115.267 31.782 116.112 32.3455 117.915 32.0406C119.079 31.8438 120.214 31.4794 121.374 31.2488C124.262 30.7364 127.187 30.4624 130.119 30.4296C130.513 30.4172 130.907 30.3779 131.301 30.3862C131.383 30.3853 131.464 30.3907 131.545 30.4023C131.616 30.4148 131.723 30.4576 131.733 30.5366C131.745 30.6219 131.762 30.7063 131.784 30.7893C131.831 30.9464 131.903 31.0952 131.995 31.2303C132.177 31.4886 132.419 31.6978 132.701 31.8396C132.968 31.9789 133.259 32.0678 133.558 32.1018C133.761 32.1288 133.966 32.1206 134.166 32.0774C136.227 31.587 137.39 29.8316 138.824 28.4745C139.702 27.6423 140.52 26.7507 141.365 25.8858C141.033 26.6945 140.641 27.4767 140.191 28.2255C139.778 28.975 139.419 29.7538 138.999 30.498C138.416 31.5335 137.915 32.6784 138.438 33.7787C139.222 35.4265 140.459 35.6874 141.968 34.6704C144.291 33.1094 144.945 32.6124 147.144 30.8903C147.327 30.7477 147.51 30.605 147.694 30.4641C148.712 29.6754 149.771 28.9437 150.869 28.2724C151.406 27.9496 151.954 27.6459 152.514 27.3659C152.799 27.2232 153.086 27.0865 153.376 26.9557C153.513 26.8963 153.933 26.7822 153.956 26.5872C153.991 26.3126 152.913 26.6508 152.759 26.6882ZM135.887 28.5679C135.612 28.827 135.349 29.0999 135.06 29.3406C134.781 29.5736 134.477 29.7746 133.976 30.1419C135.191 27.2292 137.12 25.2158 139.235 23.3713C140.393 22.3607 141.43 21.1338 143.038 20.7944C143.489 20.7025 143.947 20.6521 144.406 20.644C144.503 20.646 144.598 20.67 144.684 20.7143C144.77 20.7585 144.845 20.8219 144.903 20.8996C145.013 21.1047 144.798 21.2563 144.63 21.3805C141.565 23.5856 138.645 25.9863 135.887 28.5679Z" fill="white"/>
</svg>
