<?xml version="1.0" encoding="UTF-8"?>
<svg width="779px" height="105px" viewBox="0 0 779 105" version="1.1" xmlns="http://www.w3.org/2000/svg" xmlns:xlink="http://www.w3.org/1999/xlink">
    <title>Script/freedo-delicato</title>
    <g id="Script/freedo-delicato" stroke="none" stroke-width="1" fill="none" fill-rule="evenodd">
        <g id="Script_OL_Barista_Freddo_Delicato" transform="translate(184.000000, 18.000000)" fill="#FFFFFF" fill-rule="nonzero">
            <g id="Freddo_Delicato_W" transform="translate(0.857143, 0.000000)">
                <path d="M135.955988,57.7090909 C139.215863,54.5727273 142.539658,51.3109091 145.991291,48.1118182 C150.337792,44.0972727 155.131726,40.7727273 160.245257,37.7618182 C164.080404,35.5663636 167.532037,33.7472727 172.070295,33.7472727 C174.179627,33.7472727 176.288958,33.5590909 178.462208,33.4963636 C180.635459,33.4336364 182.808709,33.4336364 185.045879,33.5590909 C187.283048,33.6845455 189.584137,33.7472727 191.757387,34.1236364 C191.885226,34.1236364 191.949145,34.1863636 192.013064,34.2490909 C192.076983,34.3118182 192.076983,34.4372727 192.013064,34.5627273 C191.885226,34.7509091 191.56563,34.8763636 191.309953,34.9390909 C190.862519,35.0018182 190.415086,35.0645455 189.967652,35.1272727 C189.008865,35.2527273 187.986159,35.3154545 186.963453,35.3781818 C184.98196,35.5036364 182.936547,35.5036364 180.955054,35.6290909 C178.142613,35.8172727 175.39409,36.1936364 172.709487,37.0090909 C172.517729,37.0718182 172.389891,37.1972727 172.198134,37.3227273 C172.262053,37.3854545 172.325972,37.5109091 172.389891,37.5736364 C178.078694,41.9018182 173.412597,49.3036364 169.833126,53.4436364 C166.63717,57.0818182 162.546345,61.2218182 157.880249,62.8527273 C155.387403,63.7309091 152.447123,61.8490909 151.16874,58.5245455 C149.315086,53.9454545 150.721306,49.9936364 153.086314,46.0418182 C153.214152,45.8536364 152.958476,45.6027273 152.766719,45.7909091 C148.675894,48.99 145.160342,52.5027273 141.772628,56.2663636 C140.430327,57.7718182 138.960187,59.1518182 137.490047,60.5945455 C135.955988,62.1 134.358009,64.1072727 131.865163,63.5427273 C130.842457,63.2918182 129.88367,62.6645455 129.372317,61.7236364 C128.093935,59.4654545 129.500156,56.8309091 130.075428,54.6354545 C130.331104,53.6945455 130.586781,52.7536364 130.970295,51.8127273 C131.35381,50.7463636 131.609487,49.1154545 132.248678,48.1118182 C130.522862,50.8090909 128.669207,53.3181818 126.176361,55.3881818 C125.345412,56.0781818 124.514463,56.8936364 123.619596,57.5836364 C122.916485,58.1481818 121.638103,59.0890909 120.743235,59.4027273 C119.528771,59.9045455 118.122551,59.8418182 117.291602,58.7127273 C116.972006,58.2736364 116.780249,57.8345455 116.71633,57.3327273 C116.332815,55.5763636 116.908087,53.82 117.483359,52.1890909 C117.866874,50.9972727 118.250389,49.4290909 119.145257,48.4881818 C117.355521,50.37 113.392535,53.9454545 111.53888,55.7645455 C108.662519,58.7127273 106.169673,62.0372727 102.78196,64.4836364 C100.928305,65.8009091 98.9468118,64.9227273 97.9880249,62.6645455 C96.3900467,58.9009091 98.3715397,55.7018182 99.6499222,52.44 C100.928305,49.1154545 102.398445,45.9163636 103.421151,42.4663636 C101.375739,45.4145455 99.3303266,48.3627273 97.2209953,51.2481818 C95.7508554,53.3181818 94.088958,55.3254545 92.3631415,57.2072727 C90.637325,59.0890909 88.7197512,61.5981818 85.8433904,60.2809091 C83.6062208,59.2145455 82.711353,57.0190909 82.2,54.7609091 C81.9443235,53.82 81.8164852,52.0009091 82.6474339,51.2481818 C80.4102644,53.1927273 78.4926905,55.1372727 76.3194401,56.8309091 C73.6348367,58.9636364 70.9502333,61.2218182 67.4986003,61.9118182 C66.4119751,62.1627273 65.2614308,62.1627273 64.1748056,61.7863636 C62.5129082,61.1590909 61.6180404,59.5281818 60.9788491,58.0227273 C60.3396579,56.3290909 60.1479005,54.51 60.403577,52.7536364 C60.5953344,51.4990909 61.1706065,50.2445455 61.6819596,49.1154545 C61.6819596,49.0527273 61.7458787,48.99 61.7458787,48.9272727 C61.7458787,48.8018182 61.6180404,48.8018182 61.5541213,48.7390909 C61.1066874,48.5509091 60.7231726,48.4254545 60.2757387,48.1745455 C60.0200622,48.0490909 59.5087092,47.8609091 59.44479,47.5472727 C59.2530327,47.1081818 59.9561431,47.1081818 60.2118196,47.1081818 C62.5768274,47.1709091 64.1108865,45.3518182 65.3253499,43.6581818 C68.0099533,39.9572727 70.822395,36.5072727 75.3606532,34.8763636 C77.0864697,34.2490909 80.9216174,36.3190909 80.8576983,37.95 C80.72986,39.9572727 79.2597201,41.4 77.8534992,42.8427273 C74.9771384,45.7909091 71.3976672,47.6727273 67.4346812,48.9272727 C66.2202177,49.3036364 65.7727838,51.6245455 65.4531882,52.6281818 C64.877916,54.1963636 64.4944012,55.89 64.6222395,57.5836364 C64.6861586,58.0854545 64.8139969,58.65 65.2614308,58.9009091 C65.6449456,59.0890909 66.1562986,58.9636364 66.5398134,58.8381818 C71.0141524,57.27 74.7214619,53.82 78.3648523,50.9345455 C82.5835148,47.61 85.9712286,43.3445455 89.9981337,39.8318182 C92.4270607,37.6990909 95.1116641,35.1272727 98.6272162,34.6881818 C100.608709,34.4372727 102.71804,34.8136364 104.763453,34.9390909 C105.146967,34.9390909 105.338725,34.8136364 105.594401,34.5627273 C109.429549,30.4227273 111.794557,25.4045455 114.287403,20.5118182 C115.629705,17.8145455 117.163764,15.18 118.88958,12.6709091 C119.592691,11.6045455 120.295801,10.4754545 121.12675,9.53454545 C121.957698,8.53090909 122.788647,8.71909091 123.683515,9.53454545 C124.514463,10.2245455 125.601089,10.6636364 124.961897,12.4827273 C121.638103,22.6445455 116.077138,31.6145455 111.347123,41.1490909 C108.982115,45.9163636 107.256299,50.9345455 105.083048,55.7645455 C104.443857,57.2072727 103.676827,58.5245455 103.357232,60.03 C103.293313,60.2809091 103.229393,60.5945455 103.165474,61.0963636 C103.165474,61.2218182 103.293313,61.3472727 103.421151,61.2218182 C106.105754,58.3363636 108.470762,55.89 110.771851,53.2554545 C113.200778,50.5581818 115.821462,48.0490909 118.761742,45.9163636 C121.12675,44.2227273 122.59689,41.5881818 124.706221,39.6436364 C127.518663,36.9463636 132.632193,33.3709091 136.467341,36.1309091 C137.298289,36.7581818 137.617885,36.3190909 137.937481,35.6290909 C140.558165,30.36 143.11493,25.0909091 145.799533,19.8218182 C146.886159,17.7518182 148.164541,15.8072727 149.379005,13.8 C149.6986,13.2354545 150.529549,13.2981818 150.849145,13.4236364 C151.871851,13.8627273 152.766719,14.49 153.214152,15.6190909 C153.725505,16.9363636 153.214152,18.0654545 152.63888,19.1945455 C148.931571,26.6590909 145.416019,34.2490909 142.028305,41.8390909 C139.791135,46.8572727 138.257076,52.1890909 136.083826,57.27 C135.955988,57.5836364 135.892068,57.7718182 135.955988,57.7090909 Z M169.769207,40.6472727 C169.641369,39.8945455 169.705288,38.1381818 168.426905,38.0127273 C166.956765,37.8245455 165.039191,38.2636364 164.016485,39.2045455 C161.651477,41.4 159.158631,43.5954545 157.368896,46.4181818 C155.451322,49.4918182 153.341991,52.5027273 153.853344,56.3918182 C154.172939,58.7127273 155.387403,59.2772727 157.496734,58.2109091 C159.98958,56.9563636 161.587558,54.7609091 163.441213,52.9418182 C166.765008,49.5545455 169.641369,45.9790909 169.769207,40.6472727 Z M119.912286,55.7018182 C119.912286,55.7645455 119.912286,55.8272727 119.912286,55.89 C120.104044,56.6427273 121.318507,56.2036364 121.702022,55.89 C124.322706,53.9454545 126.559876,51.5618182 128.605288,48.99 C131.162053,45.7909091 133.335303,42.3409091 135.636392,39.0163636 C135.700311,38.8909091 135.828149,38.7654545 135.828149,38.64 C135.892068,38.5145455 135.892068,38.3890909 135.892068,38.3263636 C135.828149,37.8245455 134.741524,37.8245455 134.358009,37.7618182 C133.782737,37.6990909 133.143546,37.7618182 132.632193,38.0127273 C128.669207,39.8318182 125.728927,42.8427273 123.555677,46.4809091 C121.82986,49.3036364 120.679316,52.1263636 119.976205,55.3254545 C119.912286,55.3881818 119.912286,55.5136364 119.912286,55.7018182 Z M102.398445,37.1345455 C102.01493,37.0718182 101.567496,37.1345455 101.183981,37.26 C100.800467,37.3227273 100.416952,37.4481818 100.033437,37.6363636 C99.3303266,37.95 98.6911353,38.3890909 98.1158631,38.8909091 C97.9880249,38.9536364 97.9241058,39.0790909 97.7962675,39.1418182 C97.7323484,39.2045455 97.6684292,39.2045455 97.6684292,39.2672727 C97.6684292,39.2672727 97.540591,39.3927273 97.540591,39.3927273 C95.6230171,41.0863636 94.088958,43.0936364 92.8105754,45.2890909 C90.8290824,48.6763636 88.7836703,52.0636364 87.9527216,55.89 C87.8888025,56.0781818 88.0166407,56.3290909 88.0166407,56.58 C88.2083981,56.5172727 88.4640747,56.5172727 88.5919129,56.3290909 C90.7012442,54.3218182 92.4270607,52.0636364 94.0250389,49.68 C96.7735614,45.6654545 99.4581649,41.6509091 102.590202,37.8872727 C102.654121,37.8245455 102.71804,37.6990909 102.78196,37.6363636 C102.909798,37.5109091 102.909798,37.3227273 102.845879,37.1972727 C102.78196,37.0718182 102.654121,37.0090909 102.526283,37.0090909 C102.462364,37.1972727 102.398445,37.1972727 102.398445,37.1345455 Z M68.0099533,47.0454545 C70.1192846,46.7945455 77.725661,39.5809091 77.9813375,37.8245455 C78.0452566,37.3227273 77.9813375,37.0718182 77.3421462,37.26 C74.6575428,38.1381818 73.2513219,40.3963636 71.5255054,42.3409091 C70.311042,43.7836364 69.2883359,45.4145455 68.0099533,47.0454545 Z M286.22986,57.4581818 C290.001089,53.9454545 294.219751,50.0563636 298.374495,46.23 C302.209642,42.7172727 306.236547,39.3927273 309.560342,35.4409091 C310.071695,34.8136364 310.966563,33.3081818 311.92535,34.3745455 C312.884137,35.4409091 313.331571,35.4409091 312.372784,36.7581818 C311.286159,38.2636364 310.583048,40.2081818 309.879938,41.9645455 C308.345879,45.8536364 306.875739,49.7427273 305.086003,53.5063636 C304.702488,54.3218182 304.063297,55.0118182 303.10451,54.6354545 C301.698289,54.1336364 300.483826,52.5654545 300.867341,51.06 C301.698289,47.7354545 303.87154,44.9754545 305.34168,41.9018182 C305.469518,41.5881818 305.597356,41.3372727 306.04479,40.4590909 C302.529238,44.2854545 299.333281,47.61 296.265163,50.9972727 C292.685692,54.9490909 289.17014,58.9636364 285.590669,62.9154545 C284.05661,64.6090909 282.139036,64.5463636 280.413219,63.6054545 C278.495645,62.5390909 277.536858,60.7827273 277.664697,58.3990909 C277.856454,54.4472727 279.710109,50.9345455 280.860653,47.2963636 C280.988491,46.9827273 281.052411,46.6690909 281.244168,46.1672727 C278.048212,48.6136364 274.980093,50.9345455 271.911975,53.3181818 C269.163453,55.4509091 266.223173,57.4581818 262.899378,58.65 C260.214774,59.6536364 256.827061,58.7754545 255.804355,55.89 C255.42084,54.8236364 255.42084,53.6318182 255.484759,52.44 C253.439347,53.5690909 251.138258,54.3845455 248.83717,54.8236364 C248.389736,54.8863636 247.878383,54.9490909 247.430949,54.7609091 C246.983515,54.5727273 246.727838,54.0081818 246.983515,53.6318182 C247.047434,53.5063636 247.239191,53.4436364 247.36703,53.3181818 C250.051633,51.75 253.631104,51.8754545 255.932193,49.8681818 C257.466252,48.5509091 258.233281,46.5436364 259.128149,44.7245455 C260.853966,41.3372727 263.282893,38.3890909 266.287092,36.0681818 C268.843857,34.0609091 271.975894,32.5554545 275.23577,32.43 C276.386314,32.3672727 277.536858,32.5554545 278.687403,32.8690909 C279.198756,32.9945455 279.710109,33.1827273 279.965785,33.6218182 C280.604977,34.5 279.965785,35.6918182 279.326594,36.57 C276.386314,40.2709091 272.679005,43.2818182 268.58818,45.6654545 C267.309798,46.4181818 265.967496,47.1081818 264.816952,47.9863636 C263.47465,49.0527273 262.579782,50.4954545 261.940591,52.0636364 C261.684914,52.6281818 260.086936,56.3290909 260.726128,56.6427273 C260.853966,56.7054545 260.981804,56.7054545 261.045723,56.7054545 C263.602488,56.3918182 265.839658,54.6981818 267.88507,53.3181818 C270.377916,51.6872727 272.615086,49.8054545 274.980093,47.9863636 C276.322395,46.92 277.536858,45.7281818 278.815241,44.5990909 C279.901866,43.6581818 281.11633,42.9054545 282.011198,41.8390909 C283.864852,39.7690909 284.75972,37.1345455 285.782426,34.6254545 C289.617574,25.4672727 293.772317,16.4972727 300.483826,8.90727273 C303.551944,5.45727273 307.642768,3.19909091 312.372784,3.32454545 C312.884137,3.32454545 313.331571,3.38727273 313.779005,3.51272727 C315.376983,4.14 315.760498,6.58636364 315.121306,7.96636364 C313.203733,11.9809091 310.263453,15.3681818 307.51493,18.8181818 C304.510731,22.5818182 301.570451,26.4081818 298.118818,29.7954545 C293.388802,34.5 292.238258,40.71 289.87325,46.4181818 C288.46703,50.2445455 287.380404,54.2590909 286.22986,57.4581818 Z M295.370295,25.5927273 C295.562053,25.8436364 295.945568,25.3418182 296.073406,25.2163636 C296.265163,25.0281818 296.456921,24.84 296.648678,24.7145455 C297.032193,24.3381818 297.351788,24.0245455 297.671384,23.6481818 C298.374495,22.8954545 299.013686,22.1427273 299.652877,21.39 C299.972473,21.0763636 300.228149,20.7627273 300.547745,20.3863636 C304.446812,16.2463636 308.665474,12.42 312.053188,7.77818182 C312.181026,7.65272727 312.308865,7.46454545 312.308865,7.27636364 C312.564541,5.95909091 310.391291,6.46090909 309.7521,6.64909091 C307.51493,7.21363636 305.725194,9.28363636 304.446812,11.1027273 C303.168429,12.7963636 301.953966,14.5527273 300.739502,16.2463636 C299.588958,17.94 298.438414,19.6336364 297.351788,21.39 C296.968274,22.08 296.52084,22.7072727 296.137325,23.3972727 C295.945568,23.7109091 295.75381,24.0872727 295.625972,24.4636364 C295.498134,24.7772727 295.178538,25.3418182 295.370295,25.5927273 C295.370295,25.5927273 295.370295,25.5927273 295.370295,25.5927273 Z M264.561275,45.6027273 C268.716019,42.9054545 272.487247,40.3336364 275.555365,36.8209091 C275.683204,36.6327273 275.874961,36.3190909 275.811042,36.1936364 C275.619285,35.9427273 275.299689,35.6918182 275.044012,35.6918182 C273.637792,35.4409091 272.423328,36.0681818 271.400622,36.8836364 C268.6521,39.2672727 266.734526,42.2781818 264.561275,45.6027273 Z M359.928616,61.0336364 C363.380249,57.3954545 366.640124,53.82 370.091757,50.4327273 C375.716641,44.9754545 381.469362,39.5809091 387.925194,35.0645455 C390.737636,33.12 393.486159,31.1754545 396.618196,29.8581818 C398.152255,29.2309091 399.814152,28.98 401.156454,30.2345455 C401.348212,30.4227273 401.667807,30.4854545 401.731726,29.9209091 C401.795645,29.5445455 401.667807,29.4190909 401.731726,29.0427273 C401.859565,28.6036364 402.243079,28.7918182 402.434837,28.98 C404.352411,31.4263636 404.735925,36.0054545 403.137947,39.1418182 C401.092535,43.3445455 398.663608,47.2963636 395.787247,50.9972727 C393.038725,54.51 389.587092,57.3954545 385.30451,59.0890909 C380.382737,61.0336364 377.762053,59.4027273 376.739347,54.3218182 C376.164075,51.5618182 376.48367,48.9272727 377.825972,45.9790909 C374.246501,49.3663636 370.922706,53.0045455 367.66283,56.7054545 C364.850389,59.9045455 362.485381,63.6054545 359.033748,66.1772727 C358.13888,66.8672727 356.988336,68.1845455 355.96563,67.7454545 C353.344946,66.4909091 352.066563,63.7309091 352.450078,61.4727273 C353.792379,53.4436364 357.691446,46.4181818 361.015241,39.1418182 C362.868896,35.1272727 364.914308,31.1754545 366.895801,27.2236364 C367.023639,27.0354545 366.95972,26.7845455 367.023639,26.5336364 C366.831882,26.5336364 366.576205,26.5963636 366.384448,26.5963636 C361.206998,27.5372727 356.093468,28.5409091 350.78818,28.4781818 C346.313841,28.4781818 343.5014,24.0872727 345.482893,20.1354545 C345.930327,19.2572727 346.569518,19.8845455 346.44168,20.3236364 C346.058165,21.2645455 345.67465,22.5190909 346.633437,23.3345455 C348.423173,24.84 351.363453,24.4009091 353.472784,24.0872727 C357.499689,23.46 361.526594,23.0209091 365.48958,22.1427273 C367.087558,21.8290909 368.749456,21.3272727 369.963919,20.2609091 C371.945412,18.5045455 372.776361,15.9954545 374.182582,13.8627273 C375.460964,11.9181818 376.48367,9.72272727 378.273406,8.15454545 C379.42395,7.08818182 380.766252,7.90363636 381.66112,8.28 C382.36423,8.59363636 382.939502,9.84818182 382.683826,10.9772727 C382.172473,13.6745455 380.958009,15.9954545 379.679627,18.3790909 C379.360031,18.9436364 379.615708,19.1318182 380.19098,19.0690909 C384.793157,18.6927273 389.395334,18.63 393.933593,18.9436364 C398.855365,19.32 403.777138,19.6963636 408.315397,22.08 C408.507154,22.1427273 408.634992,22.2681818 408.82675,22.4563636 C409.52986,23.2090909 410.808243,23.9618182 410.360809,24.9027273 C410.041213,25.5927273 408.698911,24.84 407.804044,24.7145455 C400.517263,23.5227273 393.230482,22.5818182 385.879782,23.0209091 C382.875583,23.2090909 379.807465,23.5227273 376.995023,24.9027273 C375.652722,25.53 375.333126,27.0354545 374.757854,28.1645455 C371.178383,35.3154545 367.598911,42.4663636 364.211198,49.7427273 C362.5493,53.3809091 361.015241,57.0190909 359.928616,61.0336364 Z M380.638414,57.0190909 C381.085848,56.9563636 381.405443,56.9563636 381.66112,56.8309091 C384.920995,55.6390909 387.861275,53.7572727 390.354121,51.3736364 C392.910886,48.99 394.764541,46.23 396.682115,43.3445455 C398.727527,40.2709091 400.581182,37.0718182 401.412131,33.4336364 C401.667807,32.3045455 400.900778,31.8654545 400.069829,31.9909091 C396.809953,32.6181818 394.12535,34.6254545 391.440747,36.4445455 C389.71493,37.6363636 388.24479,39.2045455 386.902488,40.7727273 C385.496267,42.5290909 383.898289,44.0972727 382.428149,45.8536364 C380.638414,48.1118182 378.912597,50.8090909 378.848678,53.7572727 C378.976516,55.0745455 378.848678,56.6427273 380.638414,57.0190909 Z M215.215708,57.8345455 C215.215708,57.7718182 215.279627,57.7718182 215.279627,57.7718182 C218.219907,53.8827273 219.881804,50.1190909 221.863297,45.7281818 C224.036547,40.8981818 226.01804,35.9427273 228.127372,31.1127273 C230.108865,26.7218182 231.8986,21.7663636 235.797667,18.63 C236.692535,17.94 237.523484,16.6854545 236.436858,15.4309091 C235.733748,14.5527273 233.176983,13.8627273 232.090358,14.4272727 C230.108865,15.4309091 228.702644,17.1245455 227.5521,18.8809091 C221.863297,27.2863636 218.347745,36.6954545 214.065163,45.7909091 C211.316641,51.6872727 208.120684,57.27 204.477294,62.6645455 C204.157698,63.1036364 203.646345,63.48 204.093779,64.0445455 C204.541213,64.6090909 205.052566,64.17 205.563919,64.0445455 C206.522706,63.8563636 207.417574,63.3545455 208.248523,62.8527273 C209.14339,62.3509091 209.974339,62.1 210.997045,61.9118182 C213.042457,61.5354545 215.151788,61.3472727 217.069362,60.8454545 C219.753966,60.1554545 222.37465,59.2145455 224.995334,58.2736364 C233.176983,55.3881818 240.783359,51.2481818 247.750544,46.1672727 C254.078538,41.4 260.214774,35.1272727 260.853966,26.9727273 C261.173561,22.9581818 259.83126,18.8809091 256.954899,15.9327273 C253.247589,12.1063636 248.709331,9.59727273 243.531882,8.21727273 C242.509176,7.96636364 241.550389,7.71545455 240.527683,7.46454545 C229.469673,5.01818182 218.219907,6.71181818 207.545412,9.91090909 C206.842302,10.0990909 206.075272,10.2872727 205.755677,11.04 C205.052566,12.9218182 205.244323,14.9290909 206.075272,16.7481818 C206.20311,17.0618182 206.394868,18.2536364 207.289736,17.6263636 C210.166096,15.6190909 213.425972,14.6781818 216.749767,13.8 C221.735459,12.4827273 226.912908,12.1063636 232.090358,12.2945455 C239.504977,12.5454545 246.536081,13.8 252.927994,17.8145455 C257.402333,20.6372727 258.872473,25.2790909 256.699222,29.4818182 C255.037325,32.6809091 252.800156,35.3781818 250.307309,38.0127273 C243.020529,45.8536364 233.432659,50.1818182 224.036547,54.6354545 C220.648834,56.2663636 218.859098,56.8309091 215.343546,58.2109091 C214.960031,58.3363636 215.02395,58.0854545 215.215708,57.8345455 Z M345.866407,47.4218182 C343.948834,49.1781818 341.775583,51.2481818 339.538414,53.3181818 C338.771384,54.0081818 336.662053,55.2627273 335.639347,54.5727273 C335.447589,54.4472727 335.319751,54.2590909 335.255832,54.0081818 C335.064075,53.5690909 333.721773,50.8718182 334.233126,50.4327273 C333.274339,51.2481818 332.059876,52.0636364 331.03717,53.1927273 C328.03297,56.5172727 324.964852,59.7790909 320.618351,61.41 C317.486314,62.6018182 314.482115,62.8527273 311.92535,60.4063636 C309.112908,57.7090909 308.601555,54.51 309.943857,50.8718182 C311.22224,47.3590909 313.39549,44.2854545 315.696579,41.3372727 C319.915241,35.9427273 325.412286,30.7363636 331.995956,28.1645455 C335.703266,26.7218182 340.177605,26.7218182 342.862208,29.9836364 C343.309642,30.4854545 343.117885,31.4263636 342.73437,31.8027273 C342.350855,32.1163636 341.711664,32.7436364 340.944635,32.1163636 C339.027061,30.5481818 336.789891,31.1754545 334.808398,31.8027273 C331.548523,32.8690909 328.608243,34.7509091 326.115397,37.1345455 C323.622551,39.5809091 321.832815,42.5918182 319.915241,45.4772727 C318.061586,48.3627273 316.271851,51.3736364 315.249145,54.6981818 C314.929549,55.7018182 314.290358,57.0190909 315.057387,57.8345455 C315.952255,58.8381818 317.294557,58.2736364 318.445101,57.8345455 C322.088491,56.5172727 325.028771,54.0709091 327.969051,51.6245455 C332.123795,48.2372727 336.278538,44.85 340.433281,41.4627273 C343.245723,39.1418182 345.355054,36.2563636 349.126283,35.3154545 C349.765474,35.19 350.468585,35.0645455 351.107776,35.19 C352.066563,35.3781818 352.833593,36.2563636 353.408865,36.9463636 C354.175894,37.8872727 354.175894,38.8281818 353.600622,39.8945455 C351.299533,43.9090909 350.404666,48.5509091 349.062364,52.9418182 C348.806687,53.8827273 348.423173,54.8236364 347.975739,55.7018182 C347.14479,57.5209091 346.37776,56.7054545 345.482893,55.7018182 C343.245723,53.13 344.332348,50.6836364 345.610731,48.2372727 C345.67465,48.1118182 345.738569,48.0490909 345.802488,47.9236364 C345.738569,47.61 345.866407,47.2963636 345.866407,47.4218182 Z M337.684759,50.37 C337.556921,50.6209091 337.876516,50.8718182 338.132193,50.6836364 C338.835303,50.0563636 339.346656,49.5545455 339.921928,49.0527273 C343.757076,45.6654545 347.14479,41.7763636 350.532504,37.95 C351.043857,37.3227273 350.78818,36.9463636 350.021151,37.1972727 C349.38196,37.3854545 348.678849,37.5736364 348.167496,38.0127273 C345.994246,39.9572727 343.948834,41.9645455 341.903421,43.9718182 C340.113686,45.7281818 338.899222,47.7981818 337.684759,50.37 Z M14.3178849,67.3690909 C18.0251944,65.8636364 21.2211509,63.2918182 23.9057543,60.4063636 C29.1471229,54.7609091 32.9822706,47.7354545 36.5617418,41.0236364 C37.2009331,39.8945455 37.2648523,38.2009091 39.0545879,37.8872727 C44.8073095,36.9463636 50.496112,36.3190909 56.3766719,36.7581818 C56.6962675,36.7581818 57.2076205,36.6954545 57.3354588,36.4445455 C57.5272162,36.0681818 57.0797823,36.0054545 56.8241058,35.88 C51.9023328,33.6218182 46.6609642,34.1236364 41.4195956,34.3118182 C41.1,34.3118182 40.7164852,34.3118182 40.3968896,34.2490909 C40.5247278,33.9981818 40.588647,33.6845455 40.7164852,33.4336364 C42.0587869,30.7990909 43.4650078,28.1645455 44.9990669,25.5927273 C46.3413686,23.2718182 47.6836703,20.9509091 49.4734059,18.8809091 C50.2404355,18.0654545 51.007465,17.1872727 51.9023328,16.4972727 C52.6054432,15.9954545 53.5642302,15.4309091 53.0528771,14.4272727 C52.8611198,14.1136364 52.7332815,13.6745455 52.0940902,13.7372727 C50.5600311,13.9254545 49.1538103,14.5527273 48.0671851,15.5563636 C42.5062208,20.8254545 37.9679627,27.0981818 34.3245723,33.7472727 C34.0049767,34.3745455 33.8771384,35.4409091 32.9822706,35.5036364 C26.718196,35.9427273 21.0933126,38.2009091 15.4684292,40.71 C14.1261275,41.2745455 12.0807154,41.7763636 13.2951788,44.0972727 C13.6786936,44.85 14.3178849,45.4772727 15.0849145,45.6654545 C15.9797823,45.8536364 16.4272162,45.2263636 16.6189736,44.4109091 C16.6828927,44.2227273 16.8746501,43.9718182 17.0664075,43.8463636 C21.2211509,41.6509091 25.759409,40.3336364 30.2976672,39.2672727 C30.5533437,39.2045455 30.8729393,39.2672727 31.1286159,39.2672727 C31.0646967,39.5181818 31.0646967,39.7690909 30.9368585,39.9572727 C30.0419907,41.5254545 29.1471229,43.0936364 28.1883359,44.6618182 C27.9965785,44.9754545 27.8048212,45.2890909 27.5491446,45.6654545 C22.5634526,53.5690909 16.2993779,61.1590909 7.4785381,65.1109091 C5.43312597,66.0518182 3.32379471,66.3654545 1.15054432,66.8672727 C0.447433904,67.0554545 0.447433904,68.0590909 1.21446345,68.1845455 C5.68880249,68.9372727 10.0353033,69.1254545 14.3178849,67.3690909 Z M72.5482115,11.8554545 C74.5297045,11.2909091 76.4472784,10.0990909 77.6617418,8.40545455 C78.5566096,7.15090909 79.0040435,5.64545455 79.1318818,4.14 C79.3236392,2.76 79.1318818,1.25454545 78.1730949,0.188181818 C78.1091757,0.125454545 78.0452566,0.0627272727 77.9813375,0.0627272727 C77.7895801,1.0401402e-13 77.6617418,0.188181818 77.5978227,0.313636364 C77.5339036,0.439090909 77.5978227,0.627272727 77.5978227,0.815454545 C77.5339036,2.19545455 74.7214619,3.51272727 73.6348367,4.01454545 C72.0368585,4.76727273 70.311042,5.26909091 68.6491446,5.64545455 C63.0242613,6.77454545 56.8241058,6.58636364 51.1353033,6.21 C45.8300156,5.89636364 40.6525661,5.01818182 35.3472784,4.64181818 C28.3800933,4.20272727 20.3902022,4.83 14.0622084,7.90363636 C10.8023328,9.53454545 7.92597201,11.9181818 6.07231726,14.9918182 C5.11353033,16.6227273 4.41041991,18.5672727 4.66609642,20.4490909 C4.73001555,21.0763636 4.92177294,21.7036364 5.43312597,22.08 C5.944479,22.4563636 6.71150855,22.5190909 7.09502333,22.0172727 C7.28678072,21.7663636 7.35069984,21.4527273 7.35069984,21.1390909 C7.92597201,17.5636364 10.6105754,14.5527273 13.6786936,12.7336364 C18.7283048,9.78545455 25.0562986,9.22090909 30.8090202,9.40909091 C35.7307932,9.53454545 40.5247278,10.4127273 45.3186625,11.2909091 C51.6466563,12.42 58.1664075,12.9845455 64.5583204,12.7963636 C67.3707621,12.6081818 70.1192846,12.6081818 72.5482115,11.8554545 Z M51.1992224,43.7836364 C51.1992224,43.1563636 51.0713841,42.5290909 50.7517885,42.0272727 C50.4321928,41.5254545 49.7290824,41.1490909 49.1538103,41.2745455 C48.5785381,41.4 48.1950233,41.8390909 47.8754277,42.3409091 C45.1269051,45.9790909 43.081493,50.0563636 41.1,54.1336364 C40.3968896,55.5763636 39.62986,57.0818182 39.3741835,58.7127273 C39.118507,60.3436364 39.3741835,62.1 40.4608087,63.3545455 C40.6525661,63.5427273 40.7804044,63.7309091 41.0360809,63.7936364 C41.7391913,63.9818182 42.3144635,63.3545455 42.6979782,62.7272727 C44.6155521,59.7790909 46.533126,56.7681818 48.6424572,53.9454545 C51.5827372,49.9936364 54.5230171,45.9163636 59.0612753,43.5954545 C60.2118196,42.9681818 61.7458787,43.0309091 63.0881804,42.7172727 C63.7912908,42.5290909 64.2387247,41.7763636 64.2387247,41.2118182 C64.2387247,40.5218182 63.5356143,40.2709091 62.896423,40.0827273 C61.9376361,39.7690909 60.9788491,40.1454545 60.1479005,40.4590909 C55.8013997,42.09 52.6693624,45.4772727 49.6012442,48.7390909 C50.6239502,47.2963636 51.2631415,45.54 51.1992224,43.7836364 Z M319.221846,28.3198701 C320.052795,27.8180519 322.162126,26.3753247 320.755905,25.308961 C319.797119,24.618961 318.518736,23.8035065 317.304272,24.2425974 C316.217647,24.6816883 315.194941,25.8107792 314.491831,26.688961 C313.85264,27.5044156 313.021691,28.5707792 312.638176,29.5116883 C312.574257,29.6998701 312.574257,29.9507792 312.702095,30.138961 C312.893853,30.3271429 313.213448,30.3271429 313.533044,30.2644156 C313.596963,30.2644156 313.596963,30.2644156 313.660882,30.2644156 C315.706294,29.9507792 317.432111,29.3862338 319.221846,28.3198701 Z" id="Shape"></path>
            </g>
        </g>
    </g>
</svg>