<svg width="335" height="50" viewBox="0 0 335 50" fill="none" xmlns="http://www.w3.org/2000/svg">
<path d="M292.449 34.3955C292.61 34.2845 292.734 34.2063 292.849 34.1181C295.892 31.8523 298.721 29.3155 301.301 26.5393C301.918 25.8578 302.61 25.2481 303.232 24.5707C303.913 23.9201 304.416 23.1072 304.694 22.2091C304.704 22.1572 304.71 22.1052 304.717 22.0532C304.726 22.0123 304.731 21.9703 304.731 21.9282C304.706 21.6561 304.215 21.9107 304.096 21.9662C303.139 22.3652 302.225 22.8586 301.367 23.439C300.549 24.0411 299.754 24.6741 298.994 25.3474C297.578 26.5834 296.314 27.9812 295.227 29.5117C294.163 31.03 292.919 32.4666 292.449 34.3955ZM279.242 27.9391C280.581 26.8405 282.013 25.8582 283.521 25.0029C284.289 24.5655 285.119 24.3208 285.833 24.8861C286.529 25.4385 286.009 26.412 285.801 27.0777C284.892 29.9368 283.798 32.7343 282.526 35.4525L282.372 35.7836C282.328 35.8794 282.304 35.9845 282.228 36.2122C283.604 35.1027 284.933 34.1228 286.181 33.0763C288.789 30.8887 290.535 28.5581 292.648 26.2438C295.224 23.4655 298.44 21.3498 302.019 20.0782C302.862 19.6831 303.807 19.5541 304.725 19.7086C304.849 19.7407 305.568 20.2108 305.531 20.2832C306.846 17.7073 308.125 15.1045 309.495 12.5508C310.354 10.9401 311.293 9.37326 312.31 7.85622C313.179 6.56739 313.871 7.62964 314.513 8.20661C314.789 8.45538 315.218 8.7281 315.19 9.14914C315.17 9.44113 314.955 9.59413 314.813 9.81896C314.662 10.1195 314.531 10.4297 314.421 10.7475C314.301 11.0149 314.138 11.2608 314.01 11.5259C313.667 12.2267 313.343 12.9274 313.015 13.6346C311.701 16.4576 310.372 19.2729 309.084 22.1098C307.905 24.7144 306.747 27.3312 305.666 29.9771C305.178 31.1749 304.63 32.3492 304.033 33.4973C303.529 34.4687 302.991 35.4225 302.42 36.3588C302.075 36.9264 301.558 38.1388 300.667 37.883C300.574 37.8514 300.489 37.8015 300.416 37.7364C300.343 37.6713 300.284 37.5922 300.243 37.504C300.044 37.0663 299.953 36.5879 299.977 36.1083C299.97 35.5733 300.02 35.039 300.123 34.514C300.354 33.4773 300.656 32.4574 301.026 31.4616C301.561 29.8755 302.208 28.3268 302.911 26.4867C300.833 28.582 299.002 30.5477 297.037 32.3703C295.615 33.6889 294.425 35.2609 292.763 36.3208C292.353 36.6069 291.857 36.747 291.356 36.7185C290.855 36.69 290.378 36.4946 290.003 36.1638C289.541 35.8203 289.172 35.3686 288.929 34.8489C288.686 34.3292 288.576 33.7577 288.609 33.1855C288.632 32.9864 288.637 32.7855 288.658 32.4777C287.148 33.7742 285.723 35.1643 284.39 36.6397C283.561 37.5104 282.746 38.6252 281.536 38.9808C281.192 39.097 280.82 39.097 280.476 38.9808C280.133 38.8646 279.838 38.6388 279.637 38.3385C279.509 38.0803 279.42 37.8048 279.372 37.5209C279.072 35.7363 279.689 34.0585 280.413 32.4503C281.361 30.3421 282.503 28.3198 283.643 26.0996C281.99 27.202 280.488 28.5135 279.175 30.0011C278.514 30.7153 277.873 31.4476 277.223 32.1717C276.899 32.532 276.573 32.8906 276.241 33.2433C275.986 33.5149 275.713 33.9523 275.292 33.947C274.84 33.9417 274.531 33.5341 274.287 33.2048C274.113 32.9945 273.99 32.7466 273.929 32.4809C273.867 32.2152 273.87 31.939 273.935 31.6742C274.2 30.8774 274.569 30.1187 275.034 29.4177C275.441 28.6994 275.915 28.0162 276.379 27.3317C276.843 26.6473 277.321 25.9775 277.827 25.2557C275.69 27.0688 273.675 29.0179 271.793 31.0908C270.079 33.0331 268.265 34.8919 266.448 36.7419C265.728 37.4759 265.391 38.5522 264.338 38.9966C263.956 39.159 263.803 39.1759 263.472 38.8384C261.052 36.3687 261.689 35.2557 262.843 32.7306C263.616 31.0371 264.529 29.4089 265.424 27.6646C264.098 28.839 262.833 29.9462 261.584 31.0715C260.358 32.2157 259.035 33.2523 257.629 34.1695C256.779 34.7027 255.407 33.7251 255.254 32.6675C254.869 30.0058 256.259 28.1458 257.935 26.3775C260.627 23.4716 264.112 21.4086 267.964 20.4409C268.473 20.3462 268.995 20.3432 269.505 20.4321C269.778 20.5199 270.033 20.6562 270.258 20.8344C270.177 20.9825 270.067 21.113 269.936 21.2186C269.804 21.3242 269.652 21.4026 269.489 21.4494C265.36 22.4713 262.186 24.9415 259.604 28.1651C258.824 29.1391 257.896 30.0998 257.509 31.4505C258.835 30.7666 260.078 29.9349 261.214 28.9715C263.541 27.0987 266.09 25.5413 268.529 23.8279C268.783 23.661 269.074 23.56 269.378 23.5341C269.681 23.5082 269.985 23.5582 270.264 23.6796C270.413 23.7411 270.535 23.8521 270.61 23.9935C270.685 24.135 270.708 24.298 270.675 24.4545C270.486 25.0596 270.266 25.6547 270.016 26.2374C269.221 28.4051 267.96 30.3305 266.844 32.3335C266.551 32.8637 266.288 33.4121 265.973 34.027C267.324 32.8392 268.589 31.666 269.919 30.5716C273.502 27.6231 277.122 24.722 280.698 21.7671C281.396 21.1901 281.956 21.6106 282.533 21.8447C282.605 21.8788 282.667 21.9294 282.715 21.9923C282.763 22.0553 282.795 22.1287 282.809 22.2065C282.823 22.2843 282.817 22.3643 282.793 22.4396C282.769 22.5149 282.728 22.5835 282.672 22.6395C281.88 23.6685 281.193 24.6974 280.463 25.7684C280.009 26.4649 279.601 27.19 279.242 27.9391ZM226.865 4.53925C229.907 4.53341 232.389 5.56646 233.967 8.30529C234.677 9.53748 234.075 10.5828 233.529 11.6474C232.175 14.2945 230.237 16.5387 228.456 18.8886C225.978 22.1589 223.44 25.3865 220.946 28.6463C220.317 29.4691 219.693 30.2966 219.095 31.1428C218.497 31.9889 217.925 32.8561 217.402 33.7514C216.874 34.6474 216.406 35.5772 216.002 36.5346C215.898 36.7814 215.8 37.0304 215.708 37.2815C215.644 37.4532 215.516 37.7487 215.732 37.8707C215.793 37.9034 215.863 37.9151 215.932 37.904C216.132 37.8513 216.325 37.7727 216.505 37.6704C216.748 37.5614 216.99 37.4489 217.23 37.3329C217.709 37.1024 218.18 36.8589 218.645 36.6023C219.572 36.0937 220.473 35.5407 221.354 34.9567C222.234 34.3727 223.095 33.7595 223.942 33.1294C224.79 32.4993 225.63 31.8494 226.464 31.1971C226.694 31.018 226.924 30.8381 227.153 30.6575C230.822 27.8247 234.337 24.8007 237.684 21.5983C239.511 19.8224 241.017 17.7108 242.755 15.8169C243.723 14.7658 244.677 14.5795 245.853 15.1851C246.276 15.4035 245.932 15.8905 245.801 16.0494C243.694 18.6013 242.202 21.5387 240.641 24.4078C239.063 27.3084 237.822 30.3877 236.387 33.3677C235.564 35.0746 235.039 36.885 234.378 38.6474C233.945 39.8007 232.627 40.1517 231.088 39.4977C229.683 38.8997 229.285 38.0453 229.693 36.4557C230.361 33.8541 233.922 27.5093 234.127 27.2015C234.206 27.0847 234.529 26.5498 234.223 26.6958C233.279 27.4049 232.395 28.1894 231.579 29.0416C230.49 30.1407 229.329 31.1668 228.103 32.1133C226.739 33.1978 225.454 34.3359 224.019 35.3322C222.592 36.4228 221.107 37.4365 219.571 38.3688C218.908 38.7315 218.254 39.0603 217.57 39.3855C216.817 39.8291 215.936 40.0108 215.068 39.9018C214.348 39.7633 213.678 39.4381 213.126 38.9592C212.558 38.496 212.123 37.893 211.863 37.2103C211.602 36.5276 211.527 35.7891 211.643 35.0682C212.134 32.6255 213.565 30.6119 214.838 28.5324C216.923 25.1237 219.45 22.0287 221.779 18.7929C223.964 15.7562 226.345 12.8521 228.246 9.61982C228.653 8.94722 228.978 8.22871 229.214 7.47955C229.314 7.14377 229.346 6.74667 228.997 6.54987C228.434 6.33767 227.829 6.25676 227.229 6.31336C226.38 6.27228 225.529 6.28145 224.68 6.34081C223.818 6.40738 222.959 6.52243 222.107 6.66901C220.959 6.86639 219.82 7.08538 218.694 7.38379C218.166 7.52865 217.649 7.70952 217.146 7.92513C216.974 8.02127 216.787 8.0854 216.592 8.11434C216.448 8.12251 216.247 8.09915 216.196 7.93914C216.18 7.89026 216.174 7.83861 216.179 7.78738C216.184 7.73616 216.199 7.68645 216.224 7.64132C216.257 7.57865 216.299 7.52086 216.348 7.46963C216.432 7.39215 216.525 7.32401 216.624 7.26641C216.731 7.19166 216.841 7.11925 216.952 7.04975C217.176 6.90902 217.408 6.77938 217.645 6.65966C219.036 6.02213 220.494 5.53993 221.992 5.22191C222.909 4.98371 223.84 4.79906 224.779 4.6689C225.47 4.57657 226.167 4.53286 226.863 4.53809L226.865 4.53925ZM243.581 33.7753C243.603 33.7942 243.627 33.8109 243.652 33.8249C243.946 33.9943 244.243 33.7975 244.481 33.6252C244.842 33.3619 245.234 33.1429 245.597 32.8777C245.8 32.7277 245.996 32.5676 246.19 32.4059C246.761 31.9276 247.301 31.4131 247.845 30.9045C248.667 30.1354 249.465 29.34 250.253 28.5318C251.328 27.4357 252.385 26.3232 253.471 25.2382C254.11 24.5999 253.973 24.1076 253.356 23.6831C252.823 23.3163 251.806 24.0054 251.465 24.2186C249.35 25.5389 247.74 26.7121 246.226 28.7841C245.458 29.8451 244.763 30.9573 244.148 32.1127C243.971 32.4351 243.79 32.7522 243.622 33.0775C243.516 33.283 243.366 33.5855 243.581 33.7782L243.581 33.7753ZM246.63 38.8757C246.564 38.8584 246.496 38.8498 246.427 38.85C242.658 39.6518 238.912 40.5436 235.432 42.2546C233.4 43.2549 231.42 44.347 229.872 46.0504C229.765 46.2037 229.678 46.3699 229.613 46.5451C229.771 46.5949 229.935 46.6247 230.101 46.6338C233.961 46.3634 237.588 45.2007 241.129 43.7338C243.454 42.7653 245.39 41.0557 246.63 38.874V38.8757ZM250.579 30.4922C249.176 31.9831 248.067 33.2491 246.862 34.4159C245.749 35.4928 244.575 36.5667 242.938 36.7676C241.791 36.9083 240.972 35.915 240.866 34.7757C240.573 31.5947 242.26 29.312 244.24 27.184C246.316 24.9974 248.919 23.3738 251.803 22.4667C252.655 22.1834 253.252 22.6605 253.887 23.0903C254.255 23.3385 254.357 23.7911 255.072 23.787C256.135 23.7777 256.055 24.6852 255.659 25.4169C253.835 28.7625 252.543 32.3323 251.139 35.8554C250.868 36.5357 250.877 36.8447 251.788 36.7816C253 36.6793 254.22 36.8403 255.364 37.2534C255.571 37.3317 255.916 37.3574 255.878 37.6581C255.867 37.7434 255.442 37.8526 255.223 37.8252C253.907 37.7324 252.585 37.766 251.275 37.9256C250.951 37.9298 250.636 38.0374 250.378 38.2325C250.12 38.4276 249.932 38.7 249.842 39.0095C248.775 41.874 246.803 44.3172 244.221 45.9722C241.9 47.4754 239.247 48.3982 236.49 48.662C234.799 48.7899 233.101 49.1829 231.426 48.8996C230.148 48.6836 228.799 48.7093 227.597 48.1072C227.382 47.9992 227.331 47.8578 227.322 47.5945C227.255 45.5926 228.723 44.6898 230.076 43.6923C233.52 41.155 237.486 39.7441 241.497 38.4173C243.415 37.8138 245.387 37.3949 247.386 37.1664C247.456 37.1571 247.524 37.133 247.585 37.0958C247.646 37.0586 247.698 37.009 247.738 36.9504C248.647 34.9117 249.54 32.8666 250.581 30.491L250.579 30.4922ZM308.721 33.7829C308.76 33.8107 308.809 33.8226 308.856 33.8162C309.006 33.8064 309.148 33.7484 309.262 33.6509C309.389 33.5528 309.522 33.4614 309.659 33.377C309.951 33.1863 310.239 32.9891 310.523 32.7855C311.673 31.9508 312.774 31.0518 313.82 30.0928C314.869 29.1467 315.886 28.1657 316.913 27.1968C317.584 26.5644 318.387 26.0966 319.08 25.4916C319.601 25.0373 320.649 23.9937 320.02 23.2527C319.843 23.1133 319.626 23.0324 319.401 23.0209C319.175 23.0095 318.951 23.0683 318.761 23.189C318.223 23.5046 317.704 23.8499 317.205 24.2233C314.972 25.7263 312.973 27.5478 311.273 29.6291C310.982 29.997 310.699 30.3717 310.426 30.7532C310.016 31.3271 309.629 31.9173 309.268 32.5238C309.095 32.8117 308.943 33.1125 308.775 33.3998C308.712 33.5084 308.629 33.7041 308.721 33.7823L308.721 33.7829ZM317.742 28.4647C316.29 30.0385 315.116 31.4377 313.807 32.6973C312.456 33.9943 311.164 35.3783 309.466 36.2695C308.056 37.0088 307.141 36.6268 306.587 35.2072C305.652 32.7971 306.493 30.8648 308.029 29.027C310.016 26.5267 312.43 24.3931 315.16 22.7236C316.618 21.8201 318.213 21.1544 319.883 20.7515C320.731 20.5705 321.568 20.8584 321.638 21.7379C321.669 22.1396 321.469 22.6997 321.445 23.2153C321.431 23.3639 321.458 23.5135 321.524 23.6479C321.589 23.7822 321.69 23.8962 321.816 23.9774C322.493 24.5614 323.124 25.0449 322.429 26.1872C321.212 28.1867 320.575 30.4636 319.849 32.6827C319.59 33.4751 319.397 34.2886 319.1 35.3602C319.115 35.3018 319.349 35.1949 319.402 35.1599L319.759 34.9222C319.987 34.7704 320.214 34.6176 320.441 34.4638C320.894 34.1586 321.345 33.8516 321.796 33.5429C322.692 32.9315 323.586 32.3165 324.485 31.7086C326.26 30.5074 328.054 29.3301 329.91 28.2556C330.813 27.73 331.731 27.2348 332.667 26.7717C333.137 26.5381 333.611 26.3152 334.087 26.1031C334.154 26.0733 335.027 25.6633 334.999 25.901C334.98 26.0569 334.715 26.2292 334.593 26.2975C334.441 26.3828 334.299 26.4791 334.156 26.5755C333.677 26.8955 333.195 27.2097 332.719 27.5338C329.665 29.611 326.901 32.0491 324.06 34.3926C322.901 35.3499 321.738 36.3037 320.573 37.254C319.997 37.7212 319.419 38.1884 318.844 38.6608C318.426 39.0144 317.893 39.2039 317.344 39.1934C317.096 39.1774 316.85 39.1397 316.609 39.0807C316.436 39.0432 316.272 38.9697 316.13 38.8652C315.987 38.7606 315.869 38.6273 315.782 38.474C314.329 36.0213 315.57 33.5102 316.529 31.1416C316.854 30.341 317.241 29.5649 317.742 28.4647H317.742ZM124.08 33.0494C124.299 32.9029 124.428 32.8263 124.546 32.7358C128.466 29.7533 132.029 26.3336 135.165 22.5437C135.293 22.4098 135.371 22.2354 135.383 22.0507C135.396 21.866 135.343 21.6828 135.233 21.5329C135.075 21.4077 134.88 21.3381 134.678 21.3351C134.476 21.332 134.279 21.3956 134.117 21.516C130.717 23.5231 127.852 26.313 125.763 29.6507C125.129 30.7019 124.349 31.6946 124.077 33.0494H124.08ZM105.599 20.2768C105.532 20.4835 105.093 20.3521 105.246 20.1991L112.702 12.8019L113.286 12.1969C114.06 11.3939 114.847 10.6038 115.617 9.79793C116.909 8.47136 118.07 7.02422 119.083 5.47653C119.3 5.13841 119.539 4.81664 119.762 4.48378C120.064 4.03528 120.308 3.35787 119.734 3.01099C118.585 2.31548 117.511 3.09392 116.594 3.80111C113.055 6.53235 110.14 9.75005 108.334 13.8939C107.409 16.0155 106.306 18.0612 105.599 20.2756L105.599 20.2768ZM50.3035 4.7962C49.0589 5.51683 47.8853 6.10547 46.8122 6.84011C44.9255 8.1303 43.0737 9.47032 41.2568 10.8602C39.4324 12.2617 37.591 13.6527 35.9075 15.2096C32.6469 18.1526 29.5561 21.2764 26.6499 24.566C26.5465 24.6858 26.2675 24.7839 26.4249 25.0215C26.5824 25.2592 26.8062 25.2481 27.0711 25.1424C29.7656 24.0853 32.5296 23.2122 35.3437 22.5291C36.7909 22.2645 38.2141 21.8833 39.5992 21.3892C39.8606 21.2777 40.1331 21.1714 40.3857 21.0388C40.5801 20.9384 40.6453 20.7019 40.7446 20.5098C41.0019 20.0122 41.2615 19.5158 41.5234 19.0206C42.0474 18.0314 42.5839 17.0487 43.1329 16.0727C44.233 14.1228 45.3948 12.2062 46.6483 10.3498C46.9616 9.88261 47.2813 9.42146 47.6075 8.96635C48.6054 7.64273 49.5057 6.24905 50.3012 4.7962H50.3035ZM50.3599 33.0541C52.1779 31.3547 53.9635 29.6198 55.8225 27.9648C58.0704 25.9623 60.3847 24.0335 62.6584 22.0596C63.2816 21.5183 64.0094 21.1837 64.6238 21.836C65.2893 22.5402 65.916 23.2819 65.1101 24.4714C63.8596 26.3121 62.844 28.3111 61.7356 30.2469C61.476 30.7007 61.2434 31.169 60.8311 31.9469C61.9847 30.9652 62.8511 30.195 63.7539 29.4662C66.1621 27.5297 68.4176 25.4058 71.1137 23.8367C72.0118 23.3111 72.5997 23.9535 73.176 24.3114C73.9542 24.7985 74.1457 25.5781 73.7909 26.5229C72.6283 29.478 71.2761 32.3559 69.7427 35.1389C69.1336 36.2852 68.6696 37.5081 68.1363 38.6947C68.1119 38.7483 68.1079 38.8089 68.125 38.8653C68.142 38.9217 68.179 38.97 68.229 39.0014C68.2791 39.0329 68.3389 39.0452 68.3974 39.0363C68.4559 39.0274 68.5092 38.9977 68.5474 38.9528C69.4984 37.8573 70.3941 36.7074 71.415 35.6826C75.9431 31.1276 80.2016 26.273 85.6571 22.7324C87.7382 21.381 89.7864 19.9234 92.3626 19.6046C92.457 19.5845 92.5528 19.572 92.6492 19.5672C93.1297 19.5871 93.7981 19.6899 93.8551 20.0747C93.9121 20.4595 93.2519 20.2411 92.9218 20.3457C91.9084 20.7288 90.9662 21.2766 90.1335 21.9668C88.7567 22.9876 87.2671 23.8559 85.9502 24.9573C84.8838 25.8526 83.8889 26.8288 82.9746 27.8772C82.947 27.9081 82.9193 27.9397 82.8923 27.9718C81.9273 29.0813 80.8142 30.1412 80.4964 31.6823C80.46 31.861 80.4324 32.0415 80.4013 32.2219C80.5961 32.1792 80.7849 32.1127 80.9634 32.024C83.1987 30.5496 85.3134 28.9019 87.2877 27.0964C89.0531 25.454 90.7201 23.7102 92.2804 21.8739C92.7902 21.2841 93.3735 21.5574 93.7887 21.8827C94.2457 22.2401 94.8883 22.7137 94.4401 23.4448C93.2949 25.3595 92.325 27.3726 91.542 29.4597C90.8372 31.2751 90.1347 33.0913 89.4345 34.9082C89.4028 34.9911 91.0204 33.3677 92.3555 32.3025C94.0413 30.9594 95.6449 29.4276 97.2895 28.0308C98.5036 26.9971 98.7497 25.4257 99.3253 24.0597C101.204 19.6217 103.45 15.3469 106.042 11.2795C107.991 8.32251 110.459 5.73802 113.328 3.64928C115.543 1.96685 118.092 0.871895 121.013 1.01205C122.407 1.07921 123.021 2.23548 122.338 3.51497C120.789 6.41731 118.484 8.70298 116.198 11.0062C113.442 13.7847 110.689 16.5679 107.913 19.3278C107.135 20.101 106.31 20.8239 105.505 21.5714C104.127 22.8562 103.819 24.6618 103.099 26.2636C102.552 27.4806 102.126 28.7514 101.591 30.1418C102.883 28.7403 104.043 27.4153 105.276 26.165C107.375 23.9123 109.692 21.8698 112.192 20.0665C113.252 19.3576 114.497 18.972 115.775 18.957C117.805 18.9465 118.622 21.2234 117.996 22.9105C117.47 24.2593 116.87 25.5782 116.198 26.8611C115.544 28.1592 114.877 29.4527 114.323 30.797C114.205 31.0779 114.088 31.3647 113.98 31.6467C113.873 31.9288 113.759 32.1881 113.646 32.4643C113.576 32.6348 113.392 33.0045 113.587 33.1545C113.649 33.1848 113.716 33.2013 113.784 33.2027C113.852 33.2041 113.92 33.1905 113.982 33.1627C114.334 33.0424 114.666 32.8725 114.97 32.6582C115.025 32.6225 115.079 32.5852 115.135 32.5501C115.334 32.4252 115.539 32.3119 115.74 32.1892C115.94 32.0666 116.124 31.9171 116.32 31.7875C116.474 31.6858 116.631 31.5877 116.776 31.4756C116.82 31.4417 116.861 31.4044 116.906 31.3705C117.03 31.2956 117.149 31.2131 117.263 31.1235C117.397 31.0038 117.537 30.8911 117.683 30.7859C117.971 30.5582 118.261 30.332 118.552 30.1074C119.133 29.6581 119.719 29.2153 120.309 28.7788C121.489 27.9072 122.687 27.0616 123.905 26.2421C125.122 25.4225 126.359 24.6342 127.615 23.877C128.77 23.1797 129.914 22.4585 131.111 21.833C131.719 21.5116 132.345 21.2239 132.985 20.9711C133.472 20.7284 133.99 20.555 134.526 20.456C134.801 20.4491 135.073 20.5097 135.319 20.6325C135.565 20.7552 135.777 20.9363 135.935 21.1597C136.112 21.3431 136.278 21.3507 136.405 21.12C136.69 20.5985 137.136 20.6441 137.634 20.6633C137.828 20.6573 138.021 20.7018 138.192 20.7925C138.364 20.8831 138.509 21.0168 138.613 21.1802C138.716 21.3436 138.775 21.5312 138.784 21.7242C138.792 21.9173 138.75 22.1092 138.661 22.281C137.907 24.3044 136.957 26.2578 136.05 28.2229C134.993 30.5126 134.234 32.9122 133.28 35.4969C133.293 35.4612 133.384 35.411 133.414 35.3859L133.572 35.2557C133.673 35.1724 133.775 35.0892 133.877 35.0063C134.079 34.8416 134.282 34.6781 134.486 34.5158C134.89 34.1942 135.298 33.8777 135.711 33.5662C136.533 32.9496 137.373 32.3592 138.241 31.8102C139.123 31.2515 140.034 30.7398 140.971 30.2773C141.167 30.1804 141.365 30.086 141.565 29.9941C141.689 29.9357 141.964 29.7803 142.094 29.8907C142.147 30.0595 141.845 30.2563 141.742 30.3497L141.178 30.8513C140.833 31.1577 140.487 31.4635 140.142 31.7688C138.661 33.0728 137.164 34.3599 135.699 35.6814C134.603 36.6707 133.53 37.6873 132.475 38.7181C131.562 39.6115 130.537 39.4188 129.747 38.3326C128.436 36.5328 129.358 34.8685 129.931 33.1785C130.369 31.8891 130.874 30.6224 131.408 29.1864C129.798 31.0298 128.026 32.7271 126.114 34.2583C125.441 34.8259 124.681 35.5506 123.805 35.1424C123.1 34.8217 122.512 34.2914 122.123 33.6246C121.734 32.9578 121.562 32.1874 121.632 31.4196C121.931 29.6939 122.873 28.328 124.354 26.8727C122.623 28.0353 120.991 29.3381 119.475 30.7678C117.844 32.2827 116.289 33.8933 114.355 35.0443C113.768 35.3947 113.045 35.894 112.399 35.3655C111.532 34.6565 110.558 33.9639 110.488 32.6465C110.363 30.268 111.557 28.3508 112.619 26.3781C113.102 25.4805 113.641 24.6139 114.165 23.7397C114.534 23.1242 114.896 22.5046 115.227 21.8681C115.393 21.5498 115.551 21.2257 115.697 20.8993C115.801 20.6657 116.05 20.3007 115.909 20.0408C115.747 19.7442 115.028 19.9976 114.793 20.0578C112.576 20.6277 111.093 22.3837 109.473 23.874C106.686 26.4743 104.142 29.3201 101.872 32.3767C100.359 34.2153 99.0573 36.2155 97.9897 38.3402C97.767 38.8337 97.3189 39.535 96.8695 39.3914C96.0902 39.0655 95.4692 38.4505 95.1385 37.6768C94.3479 36.141 95.256 34.8043 95.6866 33.4214C96.0449 32.2716 96.459 31.1393 96.9071 29.8265C95.8081 30.7579 94.9688 31.8307 93.9638 32.6436C91.7682 34.42 90.7966 36.1001 88.3009 37.483C88.0565 37.5983 87.7895 37.6588 87.5189 37.66C87.2484 37.6612 86.9808 37.6031 86.7354 37.4899C86.49 37.3767 86.2726 37.2111 86.0989 37.0049C85.9251 36.7987 85.7991 36.557 85.7299 36.2969C85.6646 36.0574 85.5784 35.8241 85.4721 35.5996C85.1847 35.2241 85.0495 34.755 85.0932 34.2851C85.4503 32.9344 86.2057 31.7664 86.7661 30.5103C86.9264 30.1512 87.0733 29.7868 87.2747 29.3091C87.2383 29.3955 87.0509 29.5035 86.9811 29.566L86.6598 29.8428L86.0225 30.3877C85.6144 30.7381 85.2072 31.0884 84.8007 31.4388C84.0371 32.1016 83.3276 32.8264 82.5434 33.46C82.2631 33.6796 81.9614 33.8709 81.643 34.0311C81.3268 34.2241 80.9815 34.3654 80.6204 34.4498C80.1966 34.4828 79.7734 34.3805 79.4121 34.1578C79.2452 34.0634 79.0912 33.948 78.954 33.8144C78.7286 33.5111 78.5702 33.1638 78.4892 32.7954C78.4082 32.427 78.4065 32.0457 78.4841 31.6765C78.518 31.4356 78.5647 31.1966 78.6239 30.9606C78.6969 30.7702 78.7473 30.5721 78.7742 30.3702C78.7714 30.3652 78.7671 30.3613 78.762 30.3589C78.7568 30.3565 78.7511 30.3557 78.7455 30.3567C78.5007 30.5883 78.2737 30.8378 78.0665 31.103C77.8546 31.3366 77.643 31.5724 77.4315 31.8102C77.0485 32.2358 76.6656 32.6617 76.2826 33.088C74.5322 35.0332 72.7624 36.962 71.0473 38.9388C69.5336 40.6831 67.5366 44.2092 64.7201 43.5154C63.6329 43.2474 62.7124 41.5883 62.6373 40.5494C62.5233 38.9779 63.4478 37.6295 64.074 36.2613C65.7551 32.5823 68.4435 29.5123 70.3002 25.9436C70.3354 25.8759 70.3671 25.8058 70.4699 25.5933C68.6391 27.059 67.0584 28.5639 65.4526 30.0472C63.6804 31.6823 62.1239 33.5125 60.4434 35.2276C60.1023 35.5858 59.782 35.9631 59.4842 36.3576C58.5485 37.6214 57.9471 36.9597 57.375 36.0335C56.5186 34.646 56.7371 33.7187 57.7015 32.1419C59.2257 29.6309 60.5732 27.018 61.7345 24.3219C60.8064 25.3118 59.906 26.3285 58.9438 27.285C57.1907 28.9308 55.53 30.6714 53.9694 32.4987C52.4715 34.3587 50.9825 36.2467 49.0471 37.6961C47.7855 38.641 47.1675 38.7327 46.1291 37.379C44.9455 35.8332 45.8272 34.5713 46.2888 33.1814C47.6351 29.1292 49.9494 25.5897 52.2266 22.0339C52.3817 21.7922 52.3394 21.6608 52.0721 21.6789C49.8718 21.8301 47.6404 21.6859 45.4788 22.1718C44.3663 22.4223 43.3954 26.5054 43.1017 27.3107C41.8588 30.7141 40.912 34.2133 39.8242 37.6663C39.4414 39.1295 38.9186 40.5529 38.2629 41.9171C37.5393 43.2532 36.304 43.1633 35.218 42.8736C33.208 42.3381 32.7157 40.8437 33.363 38.0354C34.578 32.9484 36.5255 28.0625 39.1452 23.5289C39.2444 23.3537 39.3255 23.1657 39.4524 22.907C37.4036 23.5026 35.3119 23.9581 33.2955 24.6589C31.0517 25.4403 28.9289 26.593 26.7122 27.462C26.2852 27.629 26.1183 27.243 26.0343 26.8914C25.9368 26.4862 25.8581 26.0739 25.7642 25.63C24.0848 27.6156 22.4866 29.5707 20.8179 31.4639C18.3802 34.2291 15.9896 37.0409 13.0022 39.2711C10.3538 41.2414 -0.597865 42.2342 2.56985 32.1799C2.6315 31.9808 2.754 31.8058 2.92033 31.6792C3.08666 31.5525 3.28854 31.4806 3.49791 31.4733C3.72296 31.5057 3.92681 31.623 4.06713 31.8009C4.20746 31.9788 4.27349 32.2036 4.25151 32.4287C4.17926 35.0017 5.53786 36.6333 8.17753 35.8583C11.135 34.9859 13.6207 32.4158 15.6989 30.2937C16.8672 29.1006 17.9797 27.8556 19.1121 26.6292C25.7301 19.4592 32.5525 12.236 40.8368 6.93237C42.1167 6.11481 43.4289 5.33462 44.7793 4.63444C46.454 3.69856 48.3518 3.22949 50.2724 3.2767C50.8293 3.26887 51.3812 3.38207 51.8895 3.6084C52.4968 3.94768 52.4939 4.60115 52.3969 5.20849C52.2714 6.14665 52.0767 7.07436 51.8143 7.98412C50.4668 12.2378 47.9123 16.2047 45.92 20.1892C45.6756 20.6785 45.6016 20.9483 46.3523 20.8934C47.5345 20.8126 48.7206 20.8014 49.9041 20.8601C50.504 20.8882 51.103 20.9293 51.7009 20.9834C52.0213 21.0511 52.3534 21.0397 52.6683 20.9501C53.0372 20.7871 53.0207 20.3392 53.1752 20.0198C53.5335 19.2671 54.3024 19.611 54.8622 19.941C58.0046 21.7799 57.0619 23.3619 55.4219 25.7743C54.1197 27.6891 52.841 29.6186 51.5582 31.5457C51.194 32.0935 50.8533 32.6552 50.5009 33.2112L50.3646 33.0547L50.3599 33.0541ZM191.276 27.4771C193.317 26.4167 195.203 25.4963 196.789 24.1158C197.309 23.6632 198.047 23.1131 197.788 22.358C197.645 21.9446 196.796 22.0701 196.359 22.2342C193.911 23.1528 192.752 25.3293 191.277 27.4771H191.276ZM149.537 34.566C151.333 33.4306 153.036 32.1557 154.63 30.7532C156.348 29.3453 158.15 28.0395 159.874 26.6403C160.31 26.2434 160.677 25.7787 160.963 25.2645C161.043 25.0974 161.176 24.9612 161.342 24.8768C161.508 24.7924 161.697 24.7645 161.88 24.7973C162.184 24.8117 162.479 24.9041 162.737 25.0655C162.994 25.2269 163.205 25.4517 163.349 25.7182C163.983 27.1484 163.077 28.2363 162.562 29.413C161.916 30.7839 161.377 32.2021 160.95 33.655C162.019 32.497 163.13 31.3734 164.149 30.1734C166.961 26.8622 169.508 23.9914 172.879 21.2719C173.096 21.1547 173.345 21.1118 173.589 21.1495C173.832 21.1873 174.056 21.3038 174.227 21.4809C174.407 21.648 174.53 21.8667 174.578 22.1066C174.627 22.3464 174.599 22.5954 174.499 22.8188C173.296 25.0181 172.222 27.2844 171.281 29.6063C171.21 29.792 171.151 29.9824 171.015 30.3813C172.418 29.114 173.658 27.9986 174.894 26.8774C175.488 26.3361 176.062 25.7743 176.656 25.23C176.788 25.1271 176.894 24.9955 176.966 24.8453C177.038 24.6951 177.075 24.5304 177.073 24.364C177.08 23.658 177.836 23.8781 178.051 23.9505C178.661 24.0636 179.206 24.4035 179.573 24.9012C179.739 25.1932 179.366 25.2715 179.305 25.4899C178.5 28.1071 177.931 30.7909 177.607 33.509C178.841 31.6894 179.957 29.9865 181.137 28.3333C181.946 27.1389 182.687 25.9002 183.356 24.6233C183.502 24.3887 183.592 24.1236 183.618 23.8489C183.644 23.5742 183.606 23.2972 183.506 23.0395C183.142 22.0088 183.697 21.2666 184.45 20.7188C184.693 20.5436 185.266 20.6604 185.609 20.8181C186.051 21.0178 185.879 21.5189 185.858 21.8973C185.849 22.1888 185.77 22.474 185.627 22.7289C184.926 23.8606 185.506 24.1351 186.536 24.1193C187.492 24.1041 188.581 24.0136 189.535 23.9669C190.076 23.9268 190.584 23.6939 190.967 23.3111C191.691 22.6872 192.497 22.1628 193.362 21.7519C194.381 21.1934 195.538 20.9334 196.699 21.0021C197.702 21.1066 198.646 21.4844 199.012 22.4386C199.392 23.4314 198.702 24.2548 198.042 24.9129C196.791 26.1131 195.372 27.1281 193.83 27.9268C193.392 28.1645 192.954 28.4051 192.494 28.5995C192.044 28.7905 191.566 28.9114 191.119 29.1099C190.655 29.2538 190.248 29.5383 189.955 29.9234C189.492 30.7808 189.151 31.6978 188.942 32.6482C188.813 33.2819 188.537 34.5818 189.065 35.1109C189.134 35.1731 189.215 35.22 189.304 35.2481C189.393 35.2762 189.486 35.285 189.579 35.2738C190.435 35.1629 191.277 34.9595 192.088 34.667C193.629 34.2391 195.135 33.6976 196.595 33.0471C199.434 31.7624 202.178 30.2808 204.994 28.9441C205.196 28.8483 206.642 28.1972 206.425 28.8904C206.259 29.4206 205.505 29.8422 205.049 30.0828C204.407 30.4227 203.78 30.7959 203.15 31.1486C202.618 31.447 202.093 31.7694 201.559 32.0625C201.279 32.2161 201.001 32.3662 200.716 32.5093C200.639 32.5478 200.564 32.5887 200.488 32.626C197.849 34.0789 195.136 35.396 192.361 36.572C190.613 37.2821 188.665 37.6301 187.187 36.263C185.315 34.5315 185.018 32.2336 185.844 29.8119C186.519 28.0841 187.572 26.5272 188.927 25.254C189.058 25.1185 189.037 25.1284 189.25 24.8773C188.225 24.9258 187.605 24.9941 186.489 25.0595C184.766 25.1582 184.271 25.6184 183.634 26.8284C182.884 28.2538 181.899 29.5561 181.063 30.9395C179.964 32.758 179.097 34.7062 177.828 36.4336C177.256 37.212 176.526 37.7271 175.675 37.4981C174.565 37.1991 173.566 35.3958 173.784 34.3675C174.1 32.4222 174.609 30.5127 175.302 28.6667C174.671 29.2548 174.161 29.6963 173.692 30.1763C173.212 30.6668 172.774 31.1982 172.312 31.7063C171.634 32.4507 170.954 33.1929 170.27 33.933C170.114 34.0683 169.93 34.1681 169.73 34.2252C169.531 34.2824 169.322 34.2956 169.117 34.2639C168.912 34.2322 168.716 34.1564 168.544 34.0417C168.372 33.927 168.227 33.7763 168.119 33.6001C167.676 32.8964 166.866 32.3738 167.324 31.36C167.55 30.8574 167.78 30.3558 168.012 29.8551C168.245 29.3544 168.485 28.8551 168.733 28.3572C168.979 27.862 169.235 27.3713 169.501 26.885C169.766 26.3987 170.045 25.9201 170.337 25.449C170.626 24.9818 170.935 24.5322 171.245 24.0813C171.27 24.042 171.293 24.0011 171.313 23.9587C171.336 23.9137 171.36 23.8694 171.383 23.8244C171.422 23.7476 171.443 23.6633 171.446 23.5774C171.446 23.5342 171.463 23.4454 171.42 23.4168C171.404 23.4088 171.387 23.4047 171.368 23.4047C171.35 23.4047 171.333 23.4088 171.316 23.4168C171.199 23.4617 171.155 23.5575 171.077 23.6422C170.982 23.7479 170.885 23.8518 170.79 23.957C170.597 24.1695 170.405 24.3836 170.215 24.5993C169.831 25.0344 169.451 25.4753 169.076 25.9133C168.711 26.3384 168.348 26.7647 167.983 27.1887C166.506 28.9298 165.123 30.7463 163.837 32.6307C162.834 34.0398 161.735 35.3631 160.617 36.6707C160.065 37.3183 159.38 37.8841 158.356 37.605C158.004 37.5086 157.914 37.2301 157.695 37.0473C155.378 35.1202 156.42 33.081 157.47 31.0376C157.508 30.9646 157.544 30.8905 157.578 30.8157C157.656 30.644 157.732 30.4712 157.941 30.0052C156.296 31.506 154.902 32.8357 153.441 34.086C152.485 34.9035 151.535 35.8963 150.398 36.2987C148.119 37.1034 147.363 35.0641 147.7 33.3467C148.249 30.5494 150.05 28.4354 151.996 26.4464C154.377 24.0142 157.537 22.0433 160.954 21.565C161.362 21.5066 161.889 21.3898 162.011 21.9119C162.066 22.1163 162.04 22.3339 161.938 22.5198C161.837 22.7056 161.667 22.8455 161.464 22.9105C159.468 23.8108 157.623 25.0107 155.993 26.468C153.462 28.6025 150.64 30.9407 149.597 34.1981C149.571 34.3184 149.551 34.4401 149.538 34.5625" fill="white"/>
</svg>
