<svg width="335" height="50" viewBox="0 0 335 50" fill="none" xmlns="http://www.w3.org/2000/svg">
<path d="M86.5096 29.4728C84.0573 31.9212 82.0299 34.4949 79.5871 36.674C78.7051 37.5253 77.5214 37.9962 76.2927 37.9847C75.1056 37.9529 73.7193 35.6098 74.1064 34.4326C74.815 32.4909 75.7956 30.6584 77.019 28.9895C74.8739 30.5183 73.3281 32.4704 71.8124 34.4579C70.594 36.0578 69.3247 37.6201 68.0412 39.1695C66.9228 40.5325 65.6341 41.7477 64.2062 42.7857C63.3429 43.409 61.5796 43.396 60.8853 42.6175C60.5098 42.2252 60.1047 41.8621 59.6733 41.5315C58.3574 40.4519 58.9524 39.3488 59.502 38.2757C60.3718 36.5753 61.2611 34.8753 62.2792 33.2589C63.8192 30.8117 65.4749 28.4373 67.0822 26.0318C67.2707 25.7912 67.4031 25.5118 67.4698 25.2139C66.4605 26.0489 65.4253 26.8562 64.4467 27.7259C62.4536 29.4449 60.6309 31.3503 59.0038 33.4159C57.5968 35.3783 56.0568 37.2429 54.3947 38.9966C54.1436 39.246 53.9255 39.4359 53.5314 39.0143C51.8295 37.1956 52.2981 37.1791 53.3541 35.0747C54.0384 33.7135 54.845 32.4134 55.7597 30.7976C53.467 32.9432 51.264 34.6878 49.4369 36.8504C48.8276 37.6335 48.1675 38.3762 47.4609 39.0737C46.9982 39.4935 46.3027 40.352 45.5753 40.1379C45.2545 40.0433 44.8302 39.5188 44.5985 39.2777C44.3345 39.0109 44.1071 38.7106 43.922 38.3845C43.1479 36.9616 43.9521 35.4775 44.813 34.3009C46.2011 32.4028 47.4432 30.3995 48.8632 28.2739C47.5878 29.2644 46.3926 30.3532 45.2887 31.5302C44.0803 32.8268 43.0108 33.9769 41.8674 35.3305C40.9491 36.4183 40.1242 37.5849 39.2815 38.7338C38.7238 39.5015 38.1116 40.2286 37.4497 40.9094C36.9777 41.4133 36.4614 41.8742 35.9068 42.2865C35.5889 42.5123 33.7902 43.3267 32.775 42.5352C32.4356 42.2344 32.1437 41.8843 31.9093 41.4968C31.596 41.0556 31.3715 40.5582 31.2481 40.0321C30.8835 38.3963 31.657 36.7528 32.5256 35.4081C33.0291 34.6278 33.4764 33.8117 34.0762 32.7985C32.0736 34.3609 30.2973 35.7862 28.4761 37.1497C27.4272 37.9407 26.3342 38.6722 25.2024 39.3406C24.9139 39.4829 24.588 39.5318 24.2701 39.4807C23.9523 39.4296 23.6585 39.2809 23.4297 39.0554C23.0699 38.7268 22.7981 38.3141 22.6389 37.8547C22.4797 37.3953 22.4381 36.9036 22.5179 36.4241C22.6515 34.6948 23.5455 33.6188 24.4029 32.5921C27.1802 29.2635 31.7651 26.3006 36.0161 24.4866C37.1138 24.0425 38.3021 23.8651 39.4824 23.9691C39.7189 24.035 39.9308 24.1685 40.0917 24.3531C40.2527 24.5377 40.3556 24.7653 40.3877 25.0075C40.4006 25.1043 40.3934 25.2028 40.3664 25.2967C40.3395 25.3905 40.2934 25.4779 40.231 25.5533C40.1687 25.6287 40.0914 25.6905 40.0039 25.7349C39.9165 25.7793 39.8209 25.8053 39.7229 25.8113C35.3289 26.551 31.8083 28.9277 28.5547 31.7501C27.83 32.3966 27.204 33.1448 26.6963 33.971C26.4688 34.3303 26.2572 34.6989 26.0551 35.0723C25.9511 35.2656 25.8493 35.4602 25.7496 35.6562C25.6994 35.7538 25.4861 36.0537 25.6563 36.1325C25.7656 36.1831 25.8625 36.1148 25.9476 36.0696C26.0599 36.0108 26.1609 35.952 26.2738 35.8896C26.5196 35.7524 26.7642 35.6133 27.0077 35.4722C27.4887 35.1938 27.965 34.9077 28.4365 34.6137C29.3638 34.0363 30.2723 33.4306 31.1618 32.7968C31.4935 32.5616 31.8222 32.3221 32.148 32.0782C34.2735 30.5885 36.3198 28.9899 38.2787 27.289C39.6242 26.0495 40.5957 26.1618 41.4856 27.092C42.2296 27.8687 41.8674 28.7196 41.3633 29.444C39.9912 31.4114 39.4393 33.7623 38.2793 35.8261C38.0595 36.2172 37.8686 36.6241 37.4828 37.3785C37.8215 36.9277 38.2137 36.5194 38.651 36.1625C39.045 35.7454 39.4373 35.3269 39.8281 34.9071C40.5904 34.088 41.3491 33.266 42.1203 32.4557C43.1709 31.3503 44.2789 30.296 45.4176 29.2805C46.7697 28.037 48.2227 26.9067 49.7619 25.9013C50.913 25.1757 52.0192 24.2661 53.402 24.0256C54.3752 23.8562 55.1972 24.316 56.002 24.8023C56.1273 24.8782 56.132 25.0316 56.0097 25.2204C54.4065 27.6994 53.6153 29.0841 51.8999 31.776C53.4439 30.6388 54.8042 29.6245 56.1781 28.6296C57.0254 28.0157 57.8645 27.3243 59.0369 27.7705C59.3773 27.8999 59.6054 28.0828 59.3814 28.5026C58.5766 30.0102 57.7859 31.5243 56.8718 33.2542C58.7627 31.4638 60.4468 29.805 62.2042 28.2298C63.8686 26.6762 65.6588 25.2618 67.5567 24.0009C68.5612 23.3617 69.5498 23.7486 70.4185 24.2914C71.3291 24.8605 70.9089 25.7614 70.7139 26.5258C69.9422 29.5798 67.9083 32.0012 66.4948 34.7348C66.0044 35.6844 65.469 36.6111 64.9986 37.5707C64.7623 38.0529 64.543 38.5433 64.3545 39.046C64.3073 39.1725 64.2618 39.2989 64.2186 39.4271C64.1979 39.4859 64.1778 39.5499 64.1595 39.6117C64.1334 39.6632 64.1135 39.7177 64.1004 39.774C64.1004 39.9874 64.4402 39.871 64.5229 39.7934C64.7103 39.617 64.8863 39.4129 65.0725 39.2307C65.2742 39.0347 65.4759 38.8387 65.6776 38.6427C66.0812 38.2499 66.4848 37.8577 66.8842 37.4602C67.4692 36.8763 68.0442 36.2842 68.5902 35.6621C71.6753 32.1611 74.8539 28.7672 78.9837 26.4646C79.6781 26.0777 80.0858 25.0693 81.2576 25.3903C81.5826 25.4976 81.8871 25.6589 82.1581 25.8672C82.4122 26.0436 82.362 26.3876 82.2562 26.6369C82.0913 27.025 81.8585 27.3948 81.6653 27.7694C80.9503 29.1512 80.2619 30.5471 79.5747 31.9442C78.8755 33.3144 78.2672 34.7286 77.7535 36.1778C78.3538 35.6486 78.9837 35.1464 79.5498 34.5831C82.3307 31.8142 85.0288 28.9601 88.0808 26.474C88.2627 26.3075 88.4124 26.1095 88.5228 25.8895C89.1273 24.8194 89.9363 25.0552 90.8179 25.4832C91.4402 25.7849 91.2026 26.1924 91.0236 26.6004C90.0533 28.819 89.0216 31.0104 88.1198 33.2578C87.2683 35.3746 86.5504 37.5455 85.7769 39.6934C85.7408 39.8383 85.6587 39.9677 85.5427 40.0624C85.4268 40.1571 85.2832 40.2121 85.1334 40.2191C85.0533 40.2375 84.9702 40.2386 84.8896 40.2224C84.809 40.2063 84.7328 40.1732 84.6662 40.1254C84.5995 40.0775 84.5438 40.0161 84.5029 39.9452C84.462 39.8742 84.4368 39.7954 84.429 39.714C84.3374 39.1783 83.8682 38.9026 83.5929 38.4939C82.8607 37.4096 83.5214 36.4518 83.9184 35.4951C84.731 33.54 85.5901 31.6049 86.512 29.4722L86.5096 29.4728ZM103.137 30.8329C103.039 30.8107 102.95 30.7596 102.881 30.6862C102.812 30.6128 102.767 30.5204 102.752 30.4213C102.715 30.1812 102.751 29.9356 102.854 29.7156C102.96 29.5504 103.088 29.4009 103.236 29.2717C103.389 29.1203 103.554 28.9811 103.729 28.8554C104.126 28.5479 104.525 28.2409 104.931 27.9452C105.729 27.3471 106.581 26.8244 107.476 26.384C107.704 26.2758 108.899 25.4674 109.081 25.8613C109.189 26.0965 108.981 26.4281 108.857 26.6286C108.674 26.9188 108.47 27.1953 108.247 27.456C107.8 27.9772 107.296 28.4473 106.744 28.8578C105.996 29.4018 105.214 29.8975 104.402 30.3419C104.238 30.4348 104.115 30.5183 103.96 30.6218C103.809 30.7309 103.637 30.8071 103.455 30.8452C103.349 30.8642 103.241 30.86 103.137 30.8329ZM128.96 25.4174C129.032 25.829 128.423 26.1153 128.171 26.3117C127.618 26.7421 127.032 27.1937 126.495 27.6494C125.362 28.6067 124.259 29.5992 123.186 30.627C121.65 32.1076 120.051 33.5253 118.473 34.963C117.98 35.4118 117.484 35.8569 116.985 36.2983C116.731 36.5229 116.477 36.7471 116.222 36.971C116.11 37.0692 115.855 37.2856 115.69 37.2362C115.298 37.1215 115.643 36.537 115.727 36.3118C115.873 35.9218 116.041 35.5396 116.228 35.167C116.602 34.4328 117.022 33.7225 117.485 33.0402C117.894 32.4263 118.321 31.8254 118.739 31.2174C120.198 29.1952 121.928 27.3809 123.88 25.8249C124.644 25.2384 125.554 24.868 126.512 24.7529C127.59 24.6259 128.792 24.9676 128.935 25.3368C128.945 25.3628 128.953 25.3898 128.957 25.4174H128.96ZM126.813 37.001C127.949 33.8089 129.487 30.7731 131.39 27.9664C132.413 26.4534 132.311 26.0501 131.157 25.0622C130.673 24.6477 130.128 24.9846 129.685 24.7094C127.486 23.3376 125.217 23.4623 122.948 24.4625C119.114 26.1524 116.438 29.4605 112.916 31.6255C112.399 31.9442 111.892 32.2787 111.39 32.6215C110.192 33.44 109.026 34.3062 107.832 35.1276C107.273 35.5116 106.679 35.852 106.127 36.2448C105.797 36.5116 105.401 36.6843 104.981 36.7446C104.63 36.8058 104.269 36.7456 103.957 36.5741C103.719 36.3987 103.559 36.1391 103.509 35.8491C103.268 34.9175 103.323 33.9345 103.667 33.0355C103.889 32.5128 104.339 32.3846 104.837 32.2029C105.355 32.0337 105.859 31.8233 106.344 31.5737C108.841 30.1796 110.829 28.3897 111.898 25.6802C112.434 24.3219 112.15 23.781 110.638 23.6222C108.902 23.4417 107.493 24.3149 106.007 25.014C103.353 26.2641 101.167 28.1569 98.8898 29.9309C97.9733 30.6447 95.4537 32.1788 94.4426 32.9544C96.7052 28.8095 100.032 24.1855 102.735 20.4511C105.631 16.4486 108.94 13.2711 111.367 8.66762C111.677 8.07962 112.253 6.15745 112.129 5.97811C111.379 4.8709 110.415 4.72332 109.549 5.43597C107.1 7.4534 105.22 9.9865 103.308 12.4561C99.7519 16.9052 96.4936 21.5822 93.5545 26.457C91.1701 30.5559 88.8514 34.7236 87.6749 39.383C87.513 40.0221 87.3203 40.8 88.0247 41.1528C88.3361 41.2929 88.6816 41.3402 89.0194 41.2888C89.3573 41.2375 89.6729 41.0898 89.928 40.8635C92.1877 38.8214 94.3829 36.7081 96.626 34.6472C97.6075 33.7452 98.6351 32.8667 99.6769 32.0388C99.4092 34.3123 99.9275 36.6086 101.146 38.5498C101.427 38.9508 101.793 39.2842 102.22 39.5253C102.647 39.7664 103.123 39.909 103.612 39.9427C104.044 39.9967 104.481 39.9824 104.908 39.9004C107.083 39.5 108.909 38.0582 110.581 36.7064C111.608 35.7469 112.569 34.7188 113.455 33.6294C113.375 33.7164 113.373 34.0627 113.35 34.1844C113.318 34.3522 113.286 34.5198 113.254 34.6872C113.2 34.9677 113.146 35.2481 113.096 35.5292C112.934 36.2777 112.947 37.0534 113.135 37.7959C113.291 38.3589 113.645 38.8473 114.132 39.1719C114.65 39.425 115.238 39.4969 115.802 39.3759C116.062 39.3624 116.321 39.3218 116.573 39.2548C116.851 39.1307 117.122 38.991 117.384 38.8361C117.789 38.6184 118.147 38.3242 118.438 37.97C118.815 37.5408 119.283 37.1709 119.679 36.7575C120.664 35.7332 121.582 34.6472 122.557 33.6135C122.644 33.5206 122.734 33.4277 122.821 33.336C123.672 32.454 124.549 31.5943 125.682 30.4548C125.438 30.9299 125.375 31.0504 125.314 31.1715C124.415 32.9591 123.384 34.6948 122.659 36.55C122.198 37.7301 122.971 39.6605 123.89 40.4613C124.865 41.311 126.477 40.9317 127.46 40.2979C128.041 39.8184 128.584 39.2951 129.084 38.7326C129.709 38.1681 130.398 37.6819 131.053 37.1515C136.022 33.1225 142.747 29.4569 143.076 29.2688C143.18 29.21 143.832 28.8895 143.699 28.7272C143.68 28.7067 143.657 28.6911 143.63 28.6819C143.42 28.5943 143.124 28.7407 142.924 28.7995C142.558 28.9124 142.197 29.0524 141.836 29.18C141.113 29.4363 140.393 29.7039 139.688 30.0085C137.659 30.8869 135.616 31.7631 133.683 32.8256C131.347 34.1092 129.12 35.5892 126.815 37.0004L126.813 37.001ZM27.4834 12.7654C27.0053 13.5033 26.597 14.1495 26.1733 14.784C24.231 17.6858 22.2987 20.594 20.3339 23.4805C18.557 26.09 16.7412 28.6737 14.946 31.2709C13.2119 33.7337 11.6475 36.3105 10.2636 38.9837C9.88185 39.7375 9.22476 40.4196 9.29094 41.3204C9.34452 41.7072 9.47603 42.0793 9.67758 42.4143C9.87914 42.7494 10.1466 43.0405 10.4639 43.2702C10.7609 43.5028 11.107 43.6656 11.4761 43.7465C11.9159 43.8283 12.3667 43.8329 12.808 43.76C13.0683 43.7416 13.3197 43.6587 13.5396 43.5189C13.709 43.3341 13.8368 43.1154 13.9142 42.8774C14.2191 42.2867 14.5317 41.6987 14.852 41.1134C15.4748 39.9721 16.1195 38.8426 16.7683 37.7154C18.5475 34.7513 20.4804 31.8813 22.5593 29.1171C24.0407 27.0702 25.5103 25.0187 26.9143 22.9201C28.2273 20.958 29.7731 19.1146 30.5827 16.8767C30.8285 16.1975 31.5683 15.6419 31.2794 14.7681C31.0743 14.1495 30.9248 13.5116 30.7547 12.8812C30.6365 12.4526 30.6093 12.1168 31.2386 12.0792C31.8679 12.0416 32.4736 11.861 33.0964 11.7893C38.2651 11.196 43.4309 10.3405 48.6185 11.667C49.3867 11.8622 49.564 11.7111 49.395 11.246C48.6238 9.1292 46.9457 8.09196 44.8733 7.62215C40.1265 6.54494 35.4187 7.31345 30.7269 8.06551C27.5986 8.56766 18.391 10.2411 15.245 10.6433C13.6767 10.8444 12.1096 11.0549 10.5389 11.2313C9.8783 11.3071 6.38129 11.6952 5.3011 11.8258C4.86264 11.8787 4.42438 11.9336 3.98632 11.9904C3.56482 12.0778 3.13045 12.0846 2.7064 12.0104C2.5325 11.9671 2.37079 11.8849 2.23351 11.7702C2.09622 11.6555 1.98696 11.5112 1.91399 11.3483C1.84184 11.1889 1.79041 11.0209 1.76094 10.8485C1.73443 10.5844 1.68077 10.3238 1.6008 10.0706C1.49734 9.83097 1.36605 9.60423 1.20962 9.39497C1.07844 9.21152 0.69848 9.04217 0.489297 9.29972C-0.173116 10.117 -0.0188875 11.45 0.12825 12.4114C0.184064 12.8699 0.31879 13.3155 0.526525 13.7285C0.757944 14.1233 1.0924 14.4484 1.49444 14.6693C2.91558 15.5196 4.63868 15.5472 6.24656 15.5172C7.60211 15.4914 8.95589 15.3926 10.3038 15.2467C11.8762 15.0762 13.4356 14.8269 14.998 14.5894C16.8085 14.3148 18.622 14.0602 20.4344 13.7985C22.7844 13.461 25.1392 13.1441 27.4828 12.763L27.4834 12.7654ZM158.314 28.0722C159.228 27.2893 160.194 26.5685 161.205 25.9148C161.855 25.5297 162.58 25.3456 163.108 25.7937C163.608 26.2176 163.212 26.9297 163.03 27.4848C162.641 28.6696 162.203 29.8368 161.676 31.335C162.437 30.5294 162.982 29.972 163.504 29.3946C165.408 27.2298 167.536 25.2707 169.853 23.5499C170.799 22.866 171.731 22.5185 172.808 23.2094C173.039 23.3658 173.22 23.585 173.329 23.841C173.439 24.0969 173.472 24.3788 173.425 24.653C173.217 26.0744 172.74 27.4436 172.019 28.6878C170.682 31.3338 169.269 33.941 167.918 36.5794C167.68 37.1315 167.481 37.6991 167.32 38.2781C168.24 37.1674 169.108 36.0537 170.045 35.0018C172.545 32.1168 175.438 29.5943 178.641 27.5077C178.915 27.2867 179.26 27.1698 179.613 27.1777C179.966 27.1857 180.305 27.318 180.569 27.5512C180.991 27.9722 180.52 28.5449 180.315 29.0212C179.419 30.9797 178.408 32.8842 177.288 34.7248C178.783 33.6899 179.717 32.4598 180.863 31.4608C181.604 30.814 182.369 30.1966 183.104 29.5445C183.304 29.3279 183.487 29.0976 183.654 28.8554C183.821 28.6235 184.063 28.456 184.339 28.3809C184.657 28.277 185.001 28.283 185.314 28.3979C185.41 28.4539 185.489 28.5337 185.545 28.6295C185.6 28.7253 185.629 28.8338 185.629 28.9442C185.629 29.1964 185.417 29.4305 185.318 29.6498C184.588 31.2891 183.917 32.9555 183.18 34.5919C182.637 35.9806 182.31 37.4438 182.212 38.9308C182.187 39.1401 182.223 39.3882 181.979 39.4664C181.852 39.4963 181.72 39.4946 181.594 39.4616C181.468 39.4286 181.352 39.3652 181.257 39.2771C179.972 38.3363 179.991 37.0498 180.322 35.698C180.499 34.9771 180.728 34.2691 180.972 33.4212C180.189 34.3714 179.517 35.2587 178.767 36.0749C178.131 36.7658 177.502 37.6472 176.344 37.1921C175.442 36.8393 174.933 35.4069 175.265 34.3591C175.861 32.4775 177.156 30.9963 178.167 29.354C178.353 29.093 178.479 28.7942 178.535 28.4791C177.557 29.3382 176.506 30.1284 175.615 31.0692C172.797 34.0097 170.326 37.2616 168.251 40.7612C167.596 41.9464 166.63 42.9324 165.456 43.6136C165.216 43.7353 164.951 43.8001 164.682 43.803C164.413 43.8059 164.147 43.7467 163.904 43.6301C161.995 42.828 161.498 41.3239 162.324 39.3771C164.321 34.8024 166.748 30.4262 169.574 26.307C169.965 25.7237 170.244 25.0652 170.673 24.2543C169.395 25.1718 168.206 26.2058 167.121 27.3431C165.001 29.6702 163.024 32.1225 161.201 34.6866C160.924 35.0727 160.674 35.4763 160.45 35.8949C160.337 36.1037 160.229 36.3159 160.126 36.53C160.094 36.6237 160.052 36.7138 160 36.7987C159.941 36.8716 159.823 36.8987 159.745 36.941C159.648 36.995 159.538 37.0211 159.428 37.0163C159.291 37.0238 159.155 37.013 159.022 36.9839C158.951 36.9646 158.884 36.936 158.821 36.8987C158.734 36.813 158.663 36.7136 158.609 36.6047C158.541 36.4967 158.48 36.3847 158.427 36.2695C158.329 36.0602 158.259 35.8393 158.219 35.6121C158.153 35.1862 158.177 34.7513 158.288 34.335C158.499 33.4812 158.943 32.7086 159.227 31.8789C159.699 30.4912 160.361 29.1665 160.99 27.6929C159.875 28.4827 158.864 29.4079 157.98 30.4471C156.064 32.7932 154.431 35.3399 152.734 37.8424C152.406 38.3615 152.009 38.8335 151.553 39.2454C150.58 40.0592 150.201 39.233 149.804 38.5262C148.836 36.804 150.144 35.6003 150.888 34.3767C152.994 30.9111 154.458 29.06 155.699 25.1739C156.357 23.1118 155.647 22.6967 153.521 22.2586C151.918 21.9288 150.331 22.3892 148.739 22.4691C148.586 22.4641 148.433 22.4478 148.283 22.4203C150.654 20.5905 155.032 20.5293 157.364 22.2439C159.491 23.9374 158.569 27.4013 158.313 28.0775L158.314 28.0722ZM280.971 22.5897C281.477 22.0811 281.869 21.6213 282.33 21.2373C284.45 19.48 286.256 17.3777 287.67 15.0198C287.783 14.8316 287.952 14.6111 287.68 14.4177C287.576 14.3349 287.444 14.2953 287.311 14.3071C287.178 14.319 287.055 14.3813 286.967 14.4812C286.21 15.1627 285.526 15.9203 284.925 16.742C283.414 18.5537 282.09 20.5115 280.972 22.5862L280.971 22.5897ZM260.763 36.256C261.378 35.775 261.815 35.4222 262.264 35.0841C262.838 34.6507 263.393 34.1921 263.93 33.7146C264.876 32.8726 265.77 31.9712 266.628 31.0398C267.057 30.573 267.479 30.0996 267.894 29.6198C268.101 29.3807 268.308 29.14 268.514 28.8977C268.605 28.8209 268.676 28.722 268.718 28.6104C268.761 28.4989 268.774 28.3784 268.756 28.2604C268.705 28.0322 268.461 27.9852 268.258 27.991C267.961 28.0373 267.68 28.1557 267.439 28.3356C266.137 29.2163 264.937 30.2389 263.863 31.3844C262.47 32.7519 261.41 34.4183 260.763 36.256ZM276.396 38.2581C277.229 38.2437 278.041 37.9995 278.742 37.5525C282.513 35.4945 284.227 31.9171 285.678 28.1598C285.774 27.9808 285.817 27.7778 285.799 27.5754C285.782 27.373 285.706 27.1799 285.581 27.0197C285.278 26.6986 284.911 26.7721 284.501 26.8738C282.702 27.3219 281.439 28.5914 280.188 29.7856C278.22 31.6703 276.531 33.8235 275.171 36.1807C274.25 37.7748 274.258 37.8447 275.561 38.1946C275.836 38.2413 276.114 38.261 276.393 38.2534L276.396 38.2581ZM245.429 39.2383C246.191 39.2336 246.948 39.1146 247.674 38.8855C250.074 37.9012 251.865 36.1401 253.565 34.2844C255.282 32.4087 256.891 30.4465 257.528 27.8993C257.631 27.4877 257.758 27.0214 257.415 26.6933C257.231 26.562 257.014 26.4818 256.788 26.4612C256.563 26.4405 256.335 26.48 256.13 26.5757C253.938 27.1543 252.292 28.6002 250.634 30.0244C248.221 32.0988 246.54 34.7477 244.861 37.3902C244.196 38.4363 244.473 39.213 245.427 39.2389L245.429 39.2383ZM248.518 29.9414C250.231 28.3909 252.115 27.0396 254.136 25.9136C255.8 25.0463 258.196 25.1545 258.902 26.2847C259.652 27.4854 259.208 28.7225 258.746 29.9032C258.309 31.0085 257.755 32.0641 257.092 33.052L260.711 30.4589C262.577 29.2043 264.566 28.1405 266.647 27.2837C267.362 26.9614 268.164 26.8842 268.928 27.0644C269.623 27.2337 270.356 27.5742 270.397 28.3668C270.434 28.8735 270.335 29.3809 270.109 29.8368C269.86 30.3807 269.586 30.9128 269.318 31.4479C268.744 32.5281 268.269 33.6582 267.9 34.8242C267.848 35.0065 267.8 35.1905 267.757 35.3751C269.597 33.6341 271.305 31.9136 273.128 30.3242C274.929 28.7537 275.484 26.5058 276.555 24.5418C278.209 21.362 280.297 18.4253 282.76 15.8153C283.815 14.7375 284.699 13.5921 286.12 12.9782C286.645 12.7614 287.198 12.6164 287.762 12.5472C288.668 12.4232 289.724 12.6601 289.993 13.6415C290.328 14.8616 289.265 16.2358 288.613 17.1607C287.82 18.2552 286.932 19.2783 285.96 20.2183C283.731 22.4262 281.426 24.5589 279.211 26.7809C278.291 27.7035 278.172 29.0771 277.556 30.1913C278.733 29.0656 279.985 28.0213 281.304 27.0655C283.033 25.8366 285.149 25.6314 286.358 26.6157C287.211 27.3101 287.12 28.268 286.89 29.1318C286.025 32.3469 284.803 35.4234 282.2 37.6648C280.608 39.0372 278.903 40.3449 276.596 40.2979C275.904 40.2789 275.238 40.0292 274.705 39.5887C273.969 38.9625 273.569 39.2765 273.228 39.8481C272.755 40.6342 272.578 40.1591 272.159 39.7763C270.559 38.3063 271.344 36.7023 271.778 35.1017C271.955 34.4549 272.126 33.8005 272.337 33.0155C271.217 34.0469 270.176 34.9741 269.172 35.939L269.113 35.9978C268.621 36.4729 268.142 36.9616 267.669 37.4555C267.433 37.7025 267.198 37.9506 266.964 38.1999C266.778 38.4089 266.558 38.5858 266.314 38.7232C266.058 38.8511 265.768 38.8924 265.486 38.8408C265.303 38.8003 265.132 38.713 264.993 38.5874C264.853 38.4619 264.748 38.3025 264.689 38.1246C264.445 37.5726 264.384 36.9575 264.516 36.3689C264.58 36.0733 264.671 35.784 264.787 35.5045C264.846 35.3599 264.908 35.2164 264.975 35.0747C265.01 35 265.046 34.9259 265.082 34.8518C265.103 34.7844 265.135 34.7208 265.176 34.6631C264.012 35.6139 262.955 36.5935 261.781 37.4061C260.445 38.3304 259.506 37.8542 259.314 36.2336C259.126 34.646 260.192 33.5435 260.948 32.3358C261.293 31.7842 261.741 31.2968 262.327 30.5418C260.919 31.5614 259.749 32.4199 258.567 33.2625C255.731 35.2881 253.273 37.7901 250.37 39.7387C249.307 40.4525 248.076 41.1252 246.906 41.0323C246.006 40.9588 244.757 40.79 244.092 39.7904C243.912 39.5194 243.817 39.4964 243.643 39.8163C243.314 40.4137 243.24 41.1322 242.733 41.6467C242.636 41.7705 242.503 41.862 242.353 41.909C242.202 41.9561 242.041 41.9565 241.89 41.9102C241.543 41.7896 241.61 41.4292 241.588 41.1575C241.473 39.0612 241.852 36.9671 242.694 35.0423C242.071 35.5962 238.276 39.9927 237.358 40.937C236.908 41.4004 236.313 42.0619 235.511 41.7114C234.097 41.094 233.49 40.1097 233.785 39.0066C234.581 35.8527 235.753 32.8047 237.275 29.9273C237.516 29.4881 237.698 29.0171 237.979 28.3985C236.647 29.542 235.389 30.7679 234.211 32.0688C232.785 33.7112 231.516 35.483 230.422 37.3608C230.357 37.448 230.27 37.5175 230.171 37.5632C230.072 37.6088 229.962 37.6292 229.853 37.6225C229.477 37.4688 229.164 37.1948 228.962 36.844C227.953 35.0423 229.435 33.7346 229.899 32.2364C230.239 31.4732 230.502 30.6778 230.682 29.8621C230.652 30.1055 229.955 30.6365 229.779 30.8264C229.442 31.1874 229.107 31.5498 228.774 31.9136C228.174 32.5704 227.582 33.2348 227.006 33.9128C226.825 34.1262 226.652 34.3491 226.455 34.5496C226.267 34.7318 226.094 34.9284 225.937 35.1376C225.602 35.6027 225.293 36.0931 225.004 36.5882C224.471 37.5328 224.025 38.5238 223.673 39.5488C223.648 39.6243 223.605 39.6929 223.549 39.7491C223.492 39.8053 223.423 39.8475 223.347 39.8724C223.271 39.8974 223.191 39.9042 223.112 39.8926C223.033 39.8809 222.958 39.8509 222.892 39.8051C220.888 38.5939 220.64 37.5749 221.631 35.3746C223.227 31.8319 225.366 28.6096 227.5 25.3839C227.636 25.1786 227.789 24.7541 228.114 24.887C228.815 25.1739 229.594 25.4162 229.734 26.357C229.88 27.3519 229.162 27.9758 228.746 28.7213C228.142 29.8068 227.478 30.8593 226.749 32.0788C227.812 31.1098 228.699 30.2107 229.681 29.4375C230.369 28.8972 230.997 28.1786 232.064 28.2909C233.049 28.3944 233.423 28.9024 233.01 29.8391C232.605 30.7369 232.151 31.6119 231.651 32.4604C233.358 30.8728 235.059 29.2817 236.777 27.7076C237.281 27.2331 237.819 26.7964 238.388 26.4011C239.156 25.8848 239.869 26.2247 240.467 26.738C240.998 27.1978 240.988 27.7705 240.717 28.4397C239.678 31.0069 238.665 33.5847 237.7 36.1801C237.523 36.6564 237.334 37.1156 237.147 37.5866C237.026 37.8199 236.937 38.0678 236.88 38.324C236.845 38.497 236.842 38.6749 236.871 38.849C237.01 39.1736 237.695 38.4915 237.831 38.361C238.228 37.977 238.613 37.5807 238.995 37.185C239.747 36.4012 240.484 35.5974 241.3 34.8753C241.549 34.6527 241.783 34.413 241.999 34.158C243.342 32.7398 244.445 31.1138 245.264 29.3434C247.187 24.9168 249.501 20.6694 252.181 16.6515C253.093 15.2835 254.106 13.9844 255.21 12.7648C255.832 12.0951 257.356 11.9104 257.933 12.5484C258.663 13.3557 258.326 14.0549 257.737 14.8581C257.024 15.83 256.624 17.0284 255.918 18.0068C254.476 20.006 252.993 21.9764 251.73 24.0897C250.589 26.0001 249.584 27.9928 248.519 29.9491L248.518 29.9414ZM306.707 30.6906C307.302 30.3219 307.903 29.985 308.469 29.5939C309.797 28.6808 313.011 26.5205 312.317 25.5644C311.9 25.1281 311.451 25.4891 311.121 25.7037C309.181 26.8887 307.643 28.6259 306.707 30.6906ZM294.877 31.6772C292.56 34.2185 290.547 37.0193 288.879 40.0233C288.343 41.0005 287.402 41.8743 286.214 41.8226C285.518 41.792 285.081 40.9006 284.796 40.2073C284.016 38.2993 285.157 36.7652 285.898 35.1858C287.306 32.187 288.794 29.227 290.218 26.2353C290.422 25.8049 290.294 25.1634 290.572 24.8358C291.104 24.2126 291.729 24.6594 292.21 25.0428C293.812 26.3217 293.905 27.874 292.623 30.2025C292.029 31.285 291.501 32.4046 290.964 33.5171C290.622 34.2227 290.314 34.943 289.971 35.7085C291.803 33.7329 293.592 31.8113 295.368 29.8762C295.82 29.3834 296.421 28.8019 296.982 29.1418C297.543 29.4816 297.703 30.3295 297.555 31.0581C297.2 32.7891 296.629 34.4749 296.45 36.243C296.304 36.7795 296.276 37.3412 296.368 37.8894C296.717 37.5084 297.077 37.1391 297.414 36.7446C298.61 35.3111 299.668 33.7691 300.574 32.1388C300.887 31.5831 300.424 31.2597 300.23 30.904C299.539 29.6333 300.73 27.1526 302.165 26.9762C303.45 26.8186 303.514 26.9338 302.914 28.7701C302.641 29.6051 302.294 30.4165 301.96 31.2315C301.842 31.5155 301.927 31.542 302.202 31.5984C303.786 31.9212 303.91 30.5253 304.414 29.6851C305.731 27.4276 307.641 25.5693 309.938 24.309C311.194 23.631 313.123 23.1377 314.04 24.5912C314.153 24.7872 314.216 25.0073 314.225 25.2327C314.248 25.5435 314.219 25.8558 314.139 26.1571C314.103 26.297 314.059 26.4405 314.016 26.5757C313.963 26.6978 313.891 26.8109 313.803 26.9109C313.726 27.0179 313.653 27.1261 313.567 27.2255C313.463 27.3431 313.366 27.4701 313.258 27.5853C313.198 27.6488 313.13 27.6994 313.068 27.7617C312.601 28.2034 312.105 28.6128 311.582 28.9871C310.611 29.6832 309.582 30.2947 308.505 30.8146C307.897 31.1133 307.277 31.3897 306.652 31.6502C306.027 31.9107 305.884 32.4792 305.624 32.9955C305.042 34.1342 304.744 35.3954 304.754 36.6729C304.768 37.6501 305.582 37.7313 306.274 37.7742C308.173 37.8918 309.87 37.1274 311.581 36.4553C316.157 34.6654 320.42 32.1394 325.097 30.6159C327.707 29.7656 330.382 28.779 333.241 29.4863C333.654 29.5899 334.05 29.755 334.413 29.9761C334.7 30.1525 335.171 30.4236 334.937 30.7958C334.78 31.0436 334.561 31.2466 334.301 31.3847C334.041 31.5228 333.75 31.5914 333.456 31.5837C333.317 31.5837 333.323 31.4585 333.421 31.3444C333.529 31.2048 333.628 31.0585 333.717 30.9064C333.525 30.8458 333.326 30.8064 333.126 30.7888C331.354 30.8788 329.602 31.1984 327.914 31.7395C324.727 32.6897 321.634 33.9279 318.674 35.4386C316.144 36.6635 313.581 37.8065 310.971 38.8379C309.334 39.4847 307.662 40.0139 305.81 39.6523C303.022 39.1048 302.442 36.8234 302.533 34.6366C302.6 34.0335 302.699 33.4343 302.828 32.8415C302.852 32.6839 303.089 32.374 302.794 32.3816C302.49 32.3893 301.984 32.0712 301.742 32.2829C301.616 32.4728 301.517 32.6792 301.447 32.8961C301.339 33.1055 301.227 33.3119 301.112 33.5171C300.662 34.3215 300.166 35.1047 299.732 35.9149C299.325 36.7755 298.855 37.6053 298.326 38.3975C297.917 38.9455 297.546 39.53 297.118 40.0621C296.76 40.5722 296.254 40.9609 295.667 41.1758C295.391 41.2138 295.109 41.1753 294.853 41.0644C294.597 40.9535 294.377 40.7746 294.217 40.5472C292.185 38.2575 293.193 35.9655 294.074 33.6529C294.321 33.0061 294.596 32.3664 294.874 31.6843L294.877 31.6772ZM201.288 38.9255C203.03 38.4099 204.797 37.9844 206.583 37.6507C210.317 37.1344 214.082 36.3424 217.81 37.753C218.022 37.8436 218.228 37.9487 218.425 38.0676C218.784 38.2634 219.248 38.4157 219.081 38.9584C218.931 39.4435 218.482 39.1936 218.194 39.1819C215.308 39.0338 212.413 39.1417 209.546 39.5041C205.682 40.0528 201.929 41.2037 198.425 42.9145C197.444 43.4504 196.379 43.8159 195.275 43.9952C194.827 44.0405 194.774 43.7565 194.644 43.4584C193.955 41.8867 195.128 41.1281 196.039 40.2614C197.952 38.4938 199.954 36.8241 202.037 35.2587C205.546 32.5451 209.135 29.9326 212.597 27.1614C215.834 24.5701 219.343 22.3692 222.678 19.9225C222.995 19.6903 223.269 19.3986 223.628 19.0746C221.947 19.0746 220.345 18.9952 218.755 19.0917C215.957 19.2616 213.161 19.5033 210.371 19.7808C207.8 20.0384 205.236 20.3741 202.672 20.6999C200.846 20.9351 199.516 19.5274 200.19 17.627C200.281 17.2327 200.416 16.8498 200.592 16.4851C200.7 16.3006 200.863 16.1546 201.059 16.0682C201.117 16.0419 201.181 16.0303 201.244 16.0343C201.308 16.0383 201.37 16.0578 201.424 16.0911C201.502 16.1499 201.542 16.2522 201.615 16.321C201.807 16.502 202.05 16.6208 202.311 16.6621C202.82 16.6893 203.33 16.6239 203.816 16.4692C203.944 16.4426 204.073 16.4229 204.203 16.4104C210.256 15.8542 216.266 14.7769 222.379 15.0368C223.941 15.0474 225.497 15.2162 227.024 15.5407C227.354 15.6231 227.469 15.863 227.605 16.0935C228.037 16.7686 228.429 17.4681 228.778 18.1885C229.217 19.1834 228.141 19.0017 227.777 19.194C226.432 19.9804 225.129 20.8351 223.873 21.7547C221.44 23.3752 219.021 25.0193 216.636 26.708C212.854 29.3852 209.328 32.3928 205.689 35.2546C204.262 36.3765 202.874 37.5478 201.47 38.6997C201.402 38.7694 201.341 38.8449 201.286 38.9255H201.288ZM222.786 28.3533C222.659 29.5451 221.925 30.4877 221.404 31.512C220.624 32.9827 219.671 34.3554 218.564 35.6009C218.43 35.7579 218.312 36.0484 218.064 35.9267C217.819 35.8068 217.615 35.6163 217.48 35.3799C217.366 35.1353 217.312 34.8672 217.323 34.5978C217.334 34.3285 217.41 34.0656 217.543 33.8311C218.384 31.9589 219.753 30.4101 220.727 28.6214C220.871 28.3556 220.989 28.0728 221.158 27.8241C221.31 27.5983 221.073 27.0079 221.572 27.1596C222.123 27.326 222.901 27.4272 222.785 28.3533H222.786ZM223.215 26.9297C222.873 26.9132 222.547 26.7874 222.518 26.5422C222.519 26.2896 222.572 26.0398 222.673 25.8082C222.775 25.5767 222.923 25.3682 223.108 25.1957C223.418 24.8206 223.848 24.5407 224.14 24.1549C224.636 23.5005 225.156 23.7075 225.671 24.0503C226.062 24.3113 226.133 24.593 225.7 24.9705C224.95 25.6226 224.43 26.5434 223.4 26.858C223.321 26.8827 223.245 26.9168 223.217 26.9297" fill="white"/>
</svg>
