<svg width="79" height="79" viewBox="0 0 79 79" fill="none" xmlns="http://www.w3.org/2000/svg">
<path fill-rule="evenodd" clip-rule="evenodd" d="M37.227 23.1347C37.4024 23.6476 37.5898 24.1118 37.7788 24.5221C33.7169 25.8439 31.3456 30.1212 32.4471 34.2739C33.5848 38.563 37.9974 41.0992 42.3036 39.934C46.6071 38.7696 49.1704 34.3502 48.0333 30.0637C46.9836 26.1061 43.1457 23.6409 39.1758 24.1988C39.1503 24.147 39.1225 24.0892 39.0926 24.0256C38.9107 23.6386 38.7279 23.1914 38.5569 22.6912C37.1947 18.7078 37.4098 14.4204 40.2872 10.3853C40.9757 9.41978 41.8105 8.48669 42.8003 7.58988L41.8513 6.56848C40.7882 7.53166 39.8867 8.53939 39.1395 9.58717C35.9714 14.03 35.7337 18.7679 37.227 23.1347ZM51.2704 27.9771C52.4081 32.2663 56.8207 34.8024 61.1269 33.6372C65.4304 32.4728 67.9937 28.0534 66.8567 23.7669C65.719 19.4778 61.3064 16.9416 57.0002 18.1068C52.6967 19.2713 50.1334 23.6906 51.2704 27.9771ZM65.4999 24.1268C66.442 27.6785 64.3199 31.3372 60.7647 32.2992C57.2121 33.2604 53.5685 31.1663 52.6271 27.6171C51.685 24.0654 53.807 20.4068 57.3623 19.4448C60.9148 18.4835 64.5584 20.5777 65.4999 24.1268ZM41.9414 38.5959C45.4966 37.634 47.6187 33.9753 46.6766 30.4236C45.7351 26.8744 42.0915 24.7803 38.539 25.7415C34.9837 26.7035 32.8617 30.3622 33.8038 33.9139C34.7452 37.463 38.3888 39.5572 41.9414 38.5959ZM13.606 40.5035C14.7437 44.7926 19.1563 47.3288 23.4625 46.1636C27.766 44.9991 30.3293 40.5798 29.1923 36.2932C28.0546 32.0041 23.642 29.468 19.3358 30.6331C15.0323 31.7976 12.469 36.2169 13.606 40.5035ZM27.8355 36.6532C28.7776 40.2049 26.6555 43.8635 23.1003 44.8255C19.5477 45.7868 15.9041 43.6926 14.9627 40.1435C14.0206 36.5917 16.1427 32.9331 19.6979 31.9711C23.2505 31.0098 26.8941 33.104 27.8355 36.6532ZM56.966 52.4809C52.6598 53.646 48.2472 51.1099 47.1095 46.8208C45.9725 42.5342 48.5358 38.1149 52.8393 36.9504C57.1455 35.7853 61.5581 38.3214 62.6958 42.6105C63.8328 46.8971 61.2695 51.3164 56.966 52.4809ZM56.6038 51.1428C60.159 50.1808 62.2811 46.5222 61.339 42.9705C60.3976 39.4213 56.7539 37.3271 53.2014 38.2884C49.6462 39.2504 47.5241 42.909 48.4662 46.4607C49.4076 50.0099 53.0512 52.1041 56.6038 51.1428ZM28.2683 53.0508C29.406 57.3399 33.8186 59.8761 38.1248 58.7109C42.4283 57.5465 44.9916 53.1271 43.8546 48.8406C42.7169 44.5515 38.3043 42.0153 33.9981 43.1805C29.6946 44.3449 27.1313 48.7643 28.2683 53.0508ZM42.4978 49.2005C43.4399 52.7522 41.3178 56.4109 37.7626 57.3728C34.21 58.3341 30.5664 56.2399 29.625 52.6908C28.6829 49.1391 30.805 45.4804 34.3602 44.5184C37.9128 43.5572 41.5564 45.6514 42.4978 49.2005ZM43.9716 65.6015C45.1093 69.8906 49.5219 72.4268 53.828 71.2616C58.1316 70.0972 60.6948 65.6778 59.5578 61.3913C58.4201 57.1022 54.0075 54.566 49.7014 55.7312C45.3978 56.8956 42.8346 61.315 43.9716 65.6015ZM58.201 61.7512C59.1431 65.3029 57.0211 68.9615 53.4658 69.9235C49.9133 70.8848 46.2697 68.7906 45.3283 65.2415C44.3862 61.6898 46.5082 58.0311 50.0634 57.0691C53.616 56.1079 57.2596 58.2021 58.201 61.7512ZM33.1416 19.8493L33.568 19.0972C33.5515 18.9969 33.5172 18.8207 33.4616 18.5794C33.3706 18.1838 33.2517 17.7447 33.1015 17.2728C32.6727 15.9254 32.0776 14.5778 31.2868 13.3154C27.8998 7.90888 22.1839 5.78171 13.7994 8.85519L13.3556 9.64182C13.376 9.74207 13.4173 9.91896 13.4821 10.1617C13.5883 10.56 13.7234 11.0023 13.8901 11.4777C14.3659 12.835 15.001 14.1926 15.8194 15.464C19.3738 20.986 25.0668 23.1212 33.1416 19.8493ZM30.0931 14.0447C30.8174 15.2008 31.3665 16.4445 31.7624 17.6884C31.8872 18.0806 31.9882 18.4469 32.0677 18.7792C24.9518 21.4772 20.1313 19.5788 17.004 14.7205C16.249 13.5475 15.6588 12.286 15.2165 11.0243C15.081 10.6376 14.9683 10.2757 14.8769 9.9461C22.2844 7.41481 27.1269 9.30987 30.0931 14.0447Z" fill="white"/>
</svg>
