<?xml version="1.0" encoding="utf-8"?>
<!-- Generator: Adobe Illustrator 23.0.6, SVG Export Plug-In . SVG Version: 6.00 Build 0)  -->
<svg version="1.1" id="Decaffeinato" xmlns="http://www.w3.org/2000/svg" xmlns:xlink="http://www.w3.org/1999/xlink" x="0px"
	 y="0px" viewBox="0 0 842 259.7" style="enable-background:new 0 0 842 259.7;" xml:space="preserve">
<style type="text/css">
	.st0{opacity:0.7;fill:#FFFFFF;}
</style>
<title>Decaffeinato_VL_White</title>
<path class="st0" d="M356,134.8l12.3-10.5c7.5-6.4,15-12.8,22.5-19.2c9.2-7.8,18.5-15.4,27.6-23.3c2-1.8,3.7-4,5-6.3
	c8.7-14.2,18.1-27.8,27.7-41.3c5.2-7.1,10.8-13.9,16.7-20.4c3.2-3.7,7.6-6.2,12-8.3c4.9-2.2,10.8-2.8,13.6,2.7
	c0.5,1.1,0.8,2.3,0.8,3.5c0,1.3-0.2,2.6-0.5,3.8c-0.1,0.6-0.2,1.2-0.3,1.8c-0.7,3.3-3.2,6.7-5.1,9.3c-2.4,3.2-4.9,6.3-7.7,9.1
	c-7.8,8-16.1,15.6-24.8,22.7c-4.3,3.6-8.6,7.2-12.9,10.8c-0.8,0.8-1.5,1.6-2.1,2.6c-2.8,4.3-5.8,8.6-8.4,13
	c-3.5,5.8-6.8,11.8-10.2,17.7c-1.5,2.6-2.9,5.2-4.3,7.9c-0.7,1.4-1.4,2.7-2.3,4.6c0.8-0.2,1.7-0.4,2.5-0.7
	c10.1-4.2,20.6-7.8,31.2-10.6c1.1-0.3,2.1-0.9,2.8-1.7c6.3-6.1,14.1-9.9,22-13.2c4.7-2,9.9-2.3,15-2.2c3.3,0,6.4,0.2,9.4,1.6
	c4,1.9,4.6,4.1,3.3,8.3c-2.4,7.4-8.1,11.2-14.7,14.2c-9.8,4.5-20.3,6.6-30.7,8.8c-3.1,0.5-5.7,2.5-7,5.4c-1,2.5-1.8,5.1-2.5,7.7
	c-0.5,1.6,0.3,2.6,1.5,3.7c2.7,2.4,5.9,2.7,9.3,2.3c5.6-0.6,10.6-2.8,15.5-5.4c8.9-4.8,17.3-10.3,25.2-16.6c2.7-2.2,5.4-4.6,7.9-7
	c0.9-0.9,1.3-2.2,2.2-3.6c2.3-1,4.8-1.2,7.2-0.4c2.5,0.5,4,3,3.5,5.4c-0.1,0.6-0.4,1.1-0.7,1.6c-4.4,7.5-7.5,15.7-11.5,23.5
	c-1.7,3.2-3.2,6.4-4.7,9.6c-1.2,2.6-2.2,6.4-4.3,8.4c-0.3,0.4-0.8,0.7-1.3,0.9c-2.5,0.3-5.9-8.5-6.4-10.3
	c-1.3-4.9-0.4-10.1,2.3-14.3c-5.9,4-11.5,8.2-17.6,11.7c-6.6,3.9-13.6,7-21.5,7.2c-5,0.3-9.7-2.1-12.5-6.2
	c-2.3-2.9-3.6-6.4-3.7-10.1c0-1.3-0.1-2.6-0.2-3.9c-0.5-3.8,0.3-7.7,2.2-11c1.7-2.9,3.4-5.7,5.4-8.9c-1.5,0.5-2.7,0.8-3.8,1.2
	c-9.3,3.3-18.4,7.2-27.1,11.7c-1.7,0.8-3,2.3-3.6,4.1c-1.7,4.1-3.7,8.1-5.8,11.9c-2.7,4.5-4.1,9.8-3.8,15.1
	c0.5,9.5,0.9,19.1,0.9,28.6c0,10-1.3,19.8-5.1,29.2c-0.7,1.8-1.3,3.6-1.8,5.5c-1.7,5.8-4.6,11-7.5,16.2c-1.1,1.9-2.4,3.6-3.9,5.2
	c-4.2,4.7-8.3,9.5-12.8,14c-2.7,2.6-5.7,4.8-8.9,6.7c-1.7,1-4,1.2-6,1.4c-1.5,0.2-2.6-1-3.3-1.8c-1.7-2.4-3.1-3.3-3.9-5.2
	c-2.4-5.7-2.6-8-2.1-12.6c0.9-6.8,2.5-13.5,4.8-19.9c5.6-15.8,12.2-31.3,19.7-46.3c6.1-12.4,12.2-24.8,18.3-37.1
	c1.4-2.9-1.4-6.8-1.5-7.9c0.5-3.7,3.2-3.9,5.5-5c2.6-1.3,4.7-3.4,6-6c3.2-6,6.5-12,9.7-18.1c0.2-0.4,0.2-1,0-1.4
	c-2.4,2-4.9,4-7.3,6.1c-8.7,7.5-17.3,15.1-26,22.7c-5.5,4.8-10.9,9.6-16.2,14.5c-0.9,0.8-1.6,1.9-1.9,3.1c-0.8,3.7-1.5,7.4-2.1,11.2
	c-0.9,5-1.8,10-2.7,15c-2,10.8-3.8,21.6-6,32.4c-2.1,10.1-4.5,20-9.2,29.3c-2.6,5.5-5.9,10.6-9.8,15.3c-2,2.4-4.2,4.6-6.6,6.6
	c-1.5,1.3-3.6,1.9-5.4,2.9c-1.3,0.8-2.9,0.7-4.1-0.3c-1.3-1.1-2.8-2.1-3.5-3.5c-1.9-3.2-3.4-6.6-4.6-10.1c-1.1-4,0-8.2,1.1-12.2
	c4.1-14.4,9.6-28.3,14.8-42.3c2-5.5,4.2-11,6.6-16.4c2.8-6.4,5.9-12.8,9-19.1c4.3-8.6,8.8-17.1,13.3-25.7c2.4-4.7,5-9.3,7.5-14
	c0.4-0.6,0.5-1.4,0.4-2.2l-5.5,5.6c-7.7,7.8-15.4,15.7-23.3,23.4c-3.1,3.1-7.2,5.3-9.9,8.8c-0.6,0.8-1.5,1.5-2.5,1.8l0,0
	c-1.8,0.5-3.7,0.1-5.1-1.2c-2.6-2.4-4.1-5.5-5.7-8.6c-1.2-1.8-0.9-4.6-0.2-6.9c1-3.2,1.9-6.3,3.1-10.3c-2.5,2.5-4.2,4.8-6.3,6.9
	c-3.1,3.2-6.7,6-10.6,8.3c-2.9,1.6-5.1,1.2-6.5-2c-0.4-0.9-3-6.4-1.8-7c-0.4,0.2-0.8,0.3-1.2,0.6c-5.9,4.6-11.7,9.3-17.6,13.8
	c-6.4,4.8-12.3,10.2-19.5,13.8c-1.2,0.6-2.4,1.2-3.7,1.6c-4.1,1.4-8.5-0.4-10.5-4.2c-1.4-2.8-2.6-5.7-3.6-8.7
	c-1.7-4.7-1.2-9.4,0.6-14.6c-2.7,1.9-5.1,3.3-7.2,5c-5.6,4.6-11.8,8.5-18.4,11.6c-2.2,1.1-4.7,1.6-7.2,1.4c-1.7-0.2-3.4-1.8-4.7-3.2
	c-2.5-2.6-4-5.9-4.5-9.4c-0.2-1.4-0.5-2.8-0.9-4.6c-1.7,0.8-3.2,1.5-4.8,2.3c-9.2,5-18.7,9.3-28.5,13.1c-4.1,1.5-10.5,3.8-18.6,6.2
	c-5.9,1.8-7.5,2.9-14.2,5.2c-1.8,0.6-3.4,1.5-5.2,2.1c-6.7,2.1-13.4,4.3-20.1,6.2c-5.9,1.7-12,3.7-18.1,4.6
	c-3.2,0.5-6.6,0.4-9.8,0.5c-3.9,0.2-7.9,0.4-11.8,0.5c-0.9-0.1-1.7-0.5-2.3-1.1c2.9-1.4,5.8-2.9,8.8-4.1c10.4-4.4,20.9-8.6,31.3-13
	c18.7-7.9,36.5-17.5,52.2-30.6c9.8-8.2,15.3-15.6,23.1-25.8c8.5-11.1,17.5-27.8,14.6-42.3c-1.1-5.5-3.8-11.7-8-15.6
	c-4.4-4.1-7.2-7.7-12.9-9.5c-25.8-7.9-59.5,1.2-83.7,11.2c-6.8,2.8-10.1,3.7-16.9,6.4c-4.5,1.8-8.8,4-13.2,6
	c-1.5,0.7-2.9,1.4-4.3,2.2c-9.6,5.3-18.3,12.1-25.9,20c-2,1.9-3.4,4.3-3.9,7c-0.1,0.3-0.2,0.6-0.3,0.9C10,88,8.5,89.5,7.1,89.4
	c-2.2-0.4-4.1-1.9-4.9-4c-0.4-1.6-1-3.2-1.7-4.7c-0.8-1.4-0.8-3.2,0.1-4.6c3.4-6.5,8.8-11.2,14.2-15.9C25,51.5,36.7,45.3,49,40.1
	c12.2-5.4,24.7-9.8,37.5-13.4c10.9-2.9,22.1-4.8,33.4-5.7c9.7-0.7,19.3-0.6,28.8,1.4c8.9,2,17.7,4.5,25.7,9.1s13.3,11.3,17.1,19.5
	c2.3,5.1,3.7,10.6,4.1,16.2c0.1,3.5-0.2,7-1,10.4c-1,5-2.1,10-4.3,14.5s-4.7,9.2-7.3,13.6c-4.9,8.2-11.6,14.8-18.2,21.5
	c-6.3,6.4-13.5,11.6-20.5,17.1c-0.5,0.3-0.8,0.8-0.9,1.4c3.6-1.3,7.3-2.4,10.7-3.9c9.4-4.3,18.8-8.9,28.1-13.4
	c1-0.4,1.9-1.2,2.5-2.1c2.9-6.8,8-12.1,12.3-17.9c6.6-8.8,15.3-16.6,26.8-13.9c2.5,0.6,3.8,2.5,3,4.9c-0.7,2.6-2,5-3.8,7
	c-3.7,3.6-7.6,7-11.8,10.1c-3.3,2.5-6.9,4.6-10.3,6.9c-0.8,0.5-1.5,1.1-2,1.9c-2.5,4.3-5,8.6-6,13.5c-0.1,1.1-0.1,2.3,0,3.4
	c1.6-0.3,3.2-0.7,4.8-1.2c2.7-1,5.3-2.3,7.9-3.7c6.8-4,13.2-8.6,19.6-13.2c8.8-6.3,15.2-14.6,21.8-22.9c5.5-6.9,11.4-13.4,18.7-18.6
	c3.3-2.3,6.8-4.2,10.6-5.7c8.3-3.3,14.3,5,14.8,10.6c0.3,2.4-0.3,4.8-1.6,6.8c-0.5,0.9-1.6,1.4-2.6,1c-2.7-0.8-4.1-2-6.2-4.7
	c-0.3-0.4-1.1-1.6-1.4-2c0,0-10.1,8.7-11,9.6c-9.7,9.4-18.2,20.7-25.3,32.2c-2.9,4.6-4.8,9.8-6.6,15.4c1.9-0.2,3.7-0.8,5.2-1.9
	c5-3.1,10.2-6,15.1-9.3c10.3-6.8,20.6-13.7,30.7-20.7c4-2.6,7.6-5.7,10.9-9.2c4.3-4.6,9.1-8.5,14.5-11.7c3.8-2.3,5.4-2,8.2,1.6
	c3-2.8,2.4-3.4,5.5-6c0.4-0.4,1-0.4,1.5-0.1c0.9,0.6,1.7,1.2,2.5,1.6c2.6,1.4,3.7,4.5,2.8,7.3c-1,2.8-1.1,1.6-2.2,4.4
	c-9.1,23.3-10.1,34.2-10.2,35.4c1.7-1.5,3-2.5,4.1-3.7c9.7-9.9,19.3-19.7,28.9-29.6c4.3-4.5,8.6-9.1,13.1-13.3
	c2.6-2.7,4.8-5.7,6.4-9.1c4.5-8.4,9-16.8,13.6-25.2c3.9-7,7.9-13.9,12.2-20.6c7-11,14.7-21.6,24.8-30.2c4.2-3.5,8.8-6.2,14.7-5.9
	c1.2,0,2.3,0.2,3.4,0.7c3.4,2.4,3.9,3.7,2.8,7.2c-3.3,10.5-9.8,19-16.7,27.4c-13,15.8-27.6,30.1-41.9,44.6
	c-4.5,4.6-7,10.2-10.1,15.5c-3.3,6-6.5,12-9.8,18c-3.7,7-7.3,13.9-11,20.9L356,134.8z M362.2,251.2c1.9-0.4,3.6-1.4,5-2.8
	c6.9-6.8,13.5-13.9,17.2-23c1.7-4.1,3.3-8.3,4.6-12.5c1.5-4.8,2.8-9.8,3.8-14.7c1.8-8.3,1.1-16.7,1.1-25.1c0-2.9-0.3-5.7-0.5-9.3
	c-0.5,0.6-1,1.3-1.4,2c-1.4,3.3-2.9,6.6-4.2,10c-2,5.1-3.7,10.3-5.7,15.4c-2.2,5.6-4.8,11-6.8,16.6c-4,11.5-7.8,23.1-11.6,34.7
	C362.6,245.3,362.1,248.3,362.2,251.2L362.2,251.2z M344.7,156.7l-0.5-0.2c-1.2,2.3-2.3,4.6-3.4,6.9c-2.6,5.4-5.4,10.7-7.6,16.2
	c-3.5,8.5-7.1,17-9.6,25.8c-3.3,11.5-7.4,22.9-9.6,34.7c-0.4,1.9-1.6,3.8-0.5,6.1c0.4-0.1,0.8-0.3,1.2-0.5c0.9-0.6,1.7-1.2,2.5-1.8
	c6.1-5.4,10.3-12.2,13.7-19.5c3.7-7.8,5.7-16.2,7.2-24.7c1.7-9.6,3.2-19.2,4.7-28.9C343.3,166.1,344,161.4,344.7,156.7z M393.9,61.7
	l0.3,0.2c0.2-0.1,0.5-0.2,0.7-0.4c7.2-7.7,14.5-15.4,21.6-23.2c6-6.7,11.8-13.6,16.4-21.5c1.7-2.7,3.1-5.7,4-8.7
	c-0.8-0.8-2.7-0.3-3.6-0.1c-2.7,0.7-4.7,2.8-6.6,4.7c-2.4,2.5-4.6,5.2-6.5,8.1c-3.8,5.6-8,11-11.8,16.7c-3.6,5.4-6.8,11.1-10.1,16.7
	C396.7,56.7,395.4,59.2,393.9,61.7L393.9,61.7z M457.1,113c0.3,0.1,0.5,0.3,0.7,0.3c0.5,0,1,0,1.5-0.1c7.3-1.2,14.4-3.2,21.3-5.9
	c3.1-1.3,6.1-2.9,9-4.8c1.8-1.1,3.5-2.9,2.9-5.1c-0.5-2-2.8-2.6-4.8-3c-6.2-1.4-11.6,0.6-16.8,3.7c-4.2,2.6-7.2,6.5-10.8,9.8
	C458.8,109.2,457,110.6,457.1,113L457.1,113z M484.5,12h-0.3c-0.4,0-0.8,0.1-1.2,0.3c-6.8,3-10.7,8.7-14.6,14.8
	c-2.9,4.5-6.3,8.6-9.1,13.2c-1.9,3.2-3.7,6.4-5.5,9.6c-0.3,0.4-0.4,0.9-0.7,1.4c2.3-1.6,4.5-3.4,6.6-5.3
	c7.4-6.6,14.6-13.5,20.3-21.8C481,22.7,488,13,484.5,12L484.5,12z M289.5,130.6c6.9-3.3,25.5-23.4,29.3-31.3
	c0.2-0.5-0.1-1.1-0.6-1.3c-0.1,0-0.2-0.1-0.4-0.1c-1.8,0-3.5,0.6-4.9,1.7c-1.3,1.1-2.7,2.2-4,3.3c-6.8,5.7-12.4,12.5-16.7,20.2
	C291,125.3,289.6,127.7,289.5,130.6L289.5,130.6z M203.5,116.3c2.9-1.9,13-9.6,16.2-15.1c-3.4-0.7-8,1.1-9.8,3.8s-3.3,5-4.9,7.5
	c-0.4,0.6-1.3,2.3-1.9,3.4c-0.1,0.1-0.1,0.3,0.1,0.4S203.4,116.4,203.5,116.3L203.5,116.3L203.5,116.3z"/>
<path class="st0" d="M697.3,99.8c-0.7,0.1-1.7,1.7-2.1,2l-2.2,2.4c-1.6,1.7-3.2,3.5-4.8,5.3c-3.1,3.4-6.1,6.9-9,10.4
	c-5.7,6.8-11,13.9-16.8,20.5c-5.2,5.7-10.9,10.8-17.1,15.4c-1.1,0.8-2.4,2.3-3.9,2.4c-1.7,0.2-4-1.4-5.2-2.5
	c-2.7-2.8-2.2-7.4-2.3-11c-0.1-2.8-0.1-5.6-0.2-8.4c0-2-0.1-4.1-0.2-6.1c0-0.8-0.1-1.6-0.1-2.4c0-0.8,0.3-2.1-0.1-2.6
	c-0.9,0.6-1.7,1.4-2.5,2.2l-2.5,2.3c-1.6,1.4-3.3,2.8-4.9,4.3c-3.5,3-6.9,6.3-10.7,8.8c-2.7,1.8-6.8,3.9-9.5,1
	c-1.3-1.4-2.2-3.1-2.6-5c-0.2-1-0.3-2-0.2-3c0.2-0.9,0.2-1.8,0-2.6c-1.5,0.1-3.1,2.1-4.1,3.1l-4.6,4.3c-3,2.8-6,5.6-9,8.3
	c-2.5,2.3-5,4.7-7.7,6.8c-2.3,1.8-5.4,3.4-8.4,3.1s-5.4-3.6-6.4-6.3c-1.3-3.3-0.6-7,0-10.4c0.8-3.8,2.1-7.4,3.9-10.9
	c1.6-3.6,3.4-7.2,5.2-10.7c2.1-4.2,4.2-8.4,6.3-12.6c1-2,2-4,3-6c0.5-0.9,0.9-1.8,1.3-2.7c0.5-0.8,0.8-1.7,1-2.6
	c-0.9,0.3-1.8,0.8-2.5,1.5c-1.1,0.8-2.1,1.7-3.2,2.6c-2.1,1.8-4.2,3.7-6.3,5.6c-4.2,4-8,8.4-11.9,12.6s-7.9,8.7-11.7,13.3
	c-3.7,4.6-7.6,9.5-11.5,14.1c-2.2,2.5-4.4,5-6.5,7.5c-1,1.2-2,2.4-3,3.6c-1.8,2.2-4.2-2.1-5.2-3.9c-1.1-1.8-2-3.7-2.6-5.8
	c-0.5-2.3-1.5-3.4-1.3-5.8c0.4-2.5,1.2-4.9,2.5-7c2.5-4.8,5-9.7,7.6-14.5s5.6-9.4,8.5-14s5.9-9.3,8.8-14c1.4-2.3,2.7-4.6,4-6.9
	l1.9-3.4c0.5-0.9,1-2.1,2-2.6s2.2,0,3.1,0.3c1,0.3,1.9,0.8,2.7,1.5c1.4,1.2,2.4,2.3,2.2,4.2c-0.4,3.1-1,6.2-1.9,9.2
	c-1.3,4.3-3.1,8.5-5.3,12.4c-1.4,2.5-2.9,4.9-4.4,7.4c-0.7,1.1-1.3,2.3-1.9,3.5c-0.5,1.1-1.5,2.7-1.4,3.9c0.8-0.3,1.7-1.4,2.3-2
	l2.2-2.1l4.7-4.7c3.1-3.1,6.3-6.2,9.5-9.3c3-3,6.3-5.8,9.7-8.4c1.5-1.1,3.1-2.2,4.7-3.3c1.6-1.3,3.5-2.1,5.5-2.4
	c1.8-0.1,3.6,0,5.3,0.5c1.3,0.2,2.5,1,3.1,2.2c0.6,1.4,0.2,2.9-0.3,4.3c-0.8,2.1-1.6,4.1-2.5,6.1c-1.8,4-3.8,7.8-5.8,11.6
	s-3.9,7.9-5.8,11.9c-2,4.3-4.2,8.4-6.2,12.7c-1,2-1.9,4.1-2.5,6.3c-0.3,1.1-0.5,2.2-0.8,3.3c-0.2,0.9-0.5,2.1,0,2.9
	c1-0.3,2.2-1.6,3-2.3c1.1-0.9,2.1-1.8,3.1-2.6l6.7-5.9c4.3-3.8,8.6-7.8,13-11.6c4.2-3.6,8.6-6.9,13-10.1s8.9-6.6,13.1-10.3
	c3.9-3.4,8.2-6.4,12.8-8.9c4.6-2.4,9.5-4.4,14.8-4.7c2.2-0.2,4.6,0.3,6.1-1.7c0.6-0.8,1.3-1.6,2-2.4c0.5-0.5,1.3-0.5,1.8-0.1
	c0,0,0,0,0.1,0.1c1.4,1,2.3,3,3,4.5c0.9,1.9,2.1,3.9,1.9,6.1c-0.3,1.4-0.9,2.7-1.8,3.8c-0.8,1.2-1.4,2.5-1.8,3.8
	c-0.9,2.9-1.6,5.8-2.1,8.7c-0.7,3.1-1.3,6.2-2,9.3c-0.3,1.6-0.7,3.1-1,4.7c-0.2,0.8-0.3,1.6-0.5,2.4c-0.3,0.8-0.5,1.7-0.5,2.5
	c0.6-0.4,1.2-0.9,1.7-1.4c0.6-0.5,1.1-1,1.6-1.6c1.1-1.1,2.1-2.4,3.2-3.6c2-2.3,4-4.6,6-6.8c4.2-4.8,8.4-9.4,12.7-14.1
	s8.6-9.4,12.9-14.2c2-2.2,4-4.3,5.9-6.5c0.9-1,1.8-2.1,2.7-3.1l1.4-1.7c0.5-0.5,1-1.1,1.4-1.7c-1-0.1-2-0.1-3,0.1
	c-0.7,0-1.5,0.1-2.3,0.2c-2.3,0.2-4.5,0.5-6.8,0.7c-4.5,0.5-8.9,0.9-13.3,1.7c-4.3,0.7-8.7,1.2-13.1,1.3c-4.3,0.2-8.7,0.4-13,0.2
	c-4.4-0.2-8.8-1.1-13-2.5c-3.2-1.2-6.2-2.5-8.5-5.1c-3.5-4.2-5.3-9.6-5-15.1c0-0.6,0.1-3.2,1.2-2.4c1.5,1,1.3,3.4,1.7,5
	c0.7,2.8,2.7,5,5.4,6.1c3.6,1.6,7.8,2,11.7,2.4c4.4,0.4,8.9,0.6,13.3,0.4c9.2-0.3,18.4-0.8,27.7-1.4c4.7-0.3,9.3-0.6,14-1l6.2-0.5
	c1.7-0.1,4.4,0.2,5.8-1.1c0.7-0.8,1.3-1.7,1.9-2.6l2-2.9c1.5-2.1,3-4.2,4.5-6.3c1.4-1.9,2.9-3.7,4.3-5.5c0.4-0.5,0.6-0.9,1.3-0.8
	s1.3,0.3,2,0.4l3.5,0.6c3,0.5,6.7,1.4,6.4,5.2c-0.1,1.8-1.1,3.5-1.9,5.1c-0.5,1-0.9,1.9-1.4,2.9l-0.7,1.5c-0.4,0.6-0.7,1.3-0.9,2
	c0.8,0.5,2.4,0.3,3.3,0.3c1.4,0.1,2.7,0.2,4.1,0.2c2.6,0.1,5.2,0.2,7.8,0.4c5.4,0.4,10.7,1.2,15.9,2.5c2.5,0.6,5,1.3,7.4,2
	c2.5,0.6,5,1.5,7.3,2.7c2,1.1,3.9,2.5,5.7,4c1.5,1.1,2.5,2.7,2.9,4.4c-0.5-1.5-3.3-2.3-4.5-2.8c-2.1-0.8-4.2-1.5-6.3-2.1
	c-7.1-2-14.4-3.1-21.7-3.4c-4.2-0.2-8.5-0.1-12.7,0c-4,0.2-8.2,0-12.2,1c-1.4,0.3-2.6,1.3-3.3,2.6c-1.1,2-2,4-3.1,6
	c-1.9,3.6-3.8,7.3-5.6,10.9c-3.9,7.7-7.8,15.4-11.6,23.1s-7.7,15.2-11.3,22.9c-1.6,3.5-2.8,7.2-4.5,10.7c-1.6,3.3-3.6,6.4-6,9.2
	c-2.6,3.1-4.6-4-5.3-5.5c-0.8-1.6-1.9-3-2.4-4.8c-0.5-1.7-0.5-3.5-0.2-5.3c0.5-2.1,1.2-4.2,2.1-6.1c0.8-2.2,1.7-4.4,2.7-6.6
	c1.8-4.2,4-8.3,6.1-12.4c2.1-4.1,4.4-8.3,6.6-12.4l3.5-6.5c0.6-1.1,1.2-2.2,1.7-3.2c0.6-0.9,1-2,1.2-3.1
	C697.5,99.8,697.4,99.8,697.3,99.8z M612.5,128.4c-0.7,1.4-1.2,3.6-0.9,3.9c2.1-1.6,5.1-3.9,7.2-5.7c5.2-4.3,10.9-8.1,16.1-12.4
	c2.2-1.8,4.5-3.5,6.8-5.1c0.8-0.6,2.3-3.7,2.5-5.7C631.6,109.9,619.9,116.5,612.5,128.4z"/>
<path class="st0" d="M129.3,35.2c0.3,0.6,0.6,1.2,0.8,1.8c1,3,0.5,3.7-2.6,4.6c-2.7,0.9-5,2.6-6.6,5c-6.3,8.7-11.6,17.9-17.2,27
	c-3.6,5.8-7.1,11.6-10.6,17.5c-5,8.4-9.8,16.8-14.8,25.2c-4.8,8.2-9.5,16.6-14.5,24.7c-4.4,7.2-9.3,14.8-14.3,21.7
	c-11.4,15.4-11.1,17-21,20.4c-2.7,0.9-24.9,5.4-26.6,2.3c1.5-3,4.9-6.1,7.1-8.6c3.3-3.6,6.4-7.2,9.5-11c6.2-7.4,12-15.1,17.7-22.9
	c7.6-10.3,14.4-21.1,21.1-31.9c8.5-13.8,17.3-27.3,27.3-40.1c5-6.4,9.7-13,14.8-19.3c4.4-5.4,8.9-10.8,15.1-14.4
	C119.2,34.5,124,32.9,129.3,35.2z"/>
<path class="st0" d="M745.3,106.1l-0.9,0.6c-0.6,0.4-1.3,0.5-2,0.2L738,105c-0.4-0.2-0.6-0.6-0.4-1c0-0.1,0.1-0.2,0.2-0.3
	c0.4-0.5,0.9-0.9,1.5-1.1c2.6-1.3,5.3-2.1,8.1-2.5c7-0.7,14-1.9,21-2.8c14.3-1.9,28.7-2.6,43.2-2.2c7.9,0.2,15.7,1.2,23.5,2.9
	c1.1,0.2,2.2,0.7,3.2,1.3c-1.2,0.1-2.3,0.1-3.5,0c-13-1.7-26.1-1.5-39.1-0.8c-7.6,0.4-15.2,1.7-22.8,2.6c-4.4,0.5-8.8,1.2-13.2,1.9
	c-1.6,0.4-3.2,0.9-4.8,1.6c1.4,1,2,1.3,3.3,2.2c1.8,1.6,3.5,3.2,5.1,4.9c2.2,2.6,3.6,5.7,3.9,9.1c0.3,2.9-0.2,5.8-1.3,8.6
	c-2.1,5.3-5.6,10.1-10,13.8c-10.5,9-22.4,14.6-36.2,15.8c-2.7,0.3-5.4-0.2-7.9-1.2c-3-1.1-5.3-3.6-6-6.7c-0.7-3.1-1.3-6.3-1.7-9.5
	c-0.4-4.9,0.6-9.8,2.9-14.2c2.1-4.2,4.5-8.2,7.3-11.9c4.7-6.3,10-12.2,16.8-16.5c5.5-3.5,11.2-6.7,17.8-8c2.5-0.5,4.9-0.7,7,0.9
	c0.2,0.2,0.3,0.4,0.2,0.7c-0.9,2.6-2.8,4.4-5,4.2c-4.1-0.4-7.5,1.6-10.8,3.3c-13.3,7-22.3,18-28.5,31.4c-1.2,2.9-1.9,5.9-2.1,9
	c-0.5,3.3,1.7,6.3,5,6.9c0.4,0.1,0.8,0.1,1.2,0.1c1.5,0.1,3.1,0.1,4.6-0.1c7.6-1,14.9-4,21-8.8c3.9-3.1,7.7-6.3,10.1-10.8
	c1.9-3.7,5.2-9.2,3.1-12.9C752.3,111,749.2,108,745.3,106.1z"/>
<path class="st0" d="M534.2,79.8c3,3.5-3.8,10.7-6.5,12.4s-11,3.1-11.2-2.1c-0.1-2.3-0.1-4.6-0.2-6.8c-0.2-4,3.5-7.3,7-8.6
	c3.3-1.1,6.3,0.5,8.5,2.8C532.6,78.3,533.5,79,534.2,79.8z"/>
</svg>
