<?xml version="1.0" encoding="utf-8"?>
<svg viewBox="0 0 30 30" width="30" height="30" style="enable-background:new 0 0 25 25;" xmlns="http://www.w3.org/2000/svg">
  <defs>
    <style type="text/css">
	.st0{fill:#D5D5D5;}
</style>
  </defs>
  <path class="st0" d="M 21.958 15.866 L 19.635 15.866 L 19.635 13.985 C 19.635 13.432 19.303 13.1 18.639 13.1 L 6.91 13.1 C 6.357 13.1 6.025 13.432 6.025 13.985 L 6.025 26.267 C 6.025 28.369 7.685 30.029 9.787 30.029 L 15.873 30.029 C 17.975 30.029 19.635 28.369 19.635 26.267 L 19.635 24.386 L 21.958 24.386 C 22.954 24.386 23.84 23.501 23.84 22.505 L 23.84 17.747 C 23.84 16.751 22.954 15.866 21.958 15.866 Z M 18.196 14.427 L 18.196 15.866 L 18.196 19.628 L 7.353 19.628 L 7.353 14.427 L 18.196 14.427 Z M 22.401 22.505 C 22.401 22.837 22.18 22.947 21.958 22.947 L 19.635 22.947 L 19.635 17.304 L 21.958 17.304 C 22.29 17.304 22.401 17.526 22.401 17.747 L 22.401 22.505 Z" style="" transform="matrix(0.9999999999999999, 0, 0, 0.9999999999999999, -4.440892098500626e-16, 0)"/>
</svg>