<?xml version="1.0" encoding="utf-8"?>
<!-- Generator: Adobe Illustrator 23.0.3, SVG Export Plug-In . SVG Version: 6.00 Build 0)  -->
<svg version="1.1" id="Layer_1" xmlns="http://www.w3.org/2000/svg" xmlns:xlink="http://www.w3.org/1999/xlink" x="0px" y="0px"
	 width="30px" height="30px" viewBox="0 0 30 30" style="enable-background:new 0 0 30 30;" xml:space="preserve">
<style type="text/css">
	.st0{fill:none;stroke:#D5D5D5;stroke-width:1.0589;stroke-linejoin:bevel;stroke-miterlimit:10;}
	.st1{fill:#D5D5D5;}
</style>
<g>
	<g>
		<g>
			<path class="st0" d="M20.7,11.8v14.8c0,1.5-1.2,2.8-2.8,2.8h-4.3H8.1c-1.4-0.1-2.2-1.3-2.2-2.7V11.8"/>
			<path class="st0" d="M20.7,15.4h1.7c1.3,0,2.5,0.7,3,1.9c0.6,1.3,0.2,2.7-0.7,3.5c-0.6,0.6-1.4,0.9-2.2,0.9h-1.8"/>
			<path class="st0" d="M20.7,11.8c0-0.5,0-0.7,0-1.1c0-1.5-1.1-2.6-2.6-2.6c-0.5,0-1,0.2-1.4,0.4c-0.6-1.2-1.9-2.1-3.3-2.1
				s-2.7,0.8-3.3,2.1c-0.5-0.1-1-0.3-1.5-0.3c-1.5,0-2.7,1.2-2.7,2.7c0,0.3,0,0.4,0,0.9H20.7z"/>
			<line class="st0" x1="20.7" y1="14.7" x2="5.9" y2="14.7"/>
		</g>
		<polygon class="st1" points="20.3,28.1 17.9,29.5 14.2,29.5 8.6,29.5 6.3,28.2 6.1,14.7 20.5,14.7 		"/>
	</g>
</g>
</svg>
