<?xml version="1.0" encoding="utf-8"?>
<!-- Generator: Adobe Illustrator 23.0.6, SVG Export Plug-In . SVG Version: 6.00 Build 0)  -->
<svg version="1.1" id="Alto_Intenso" xmlns="http://www.w3.org/2000/svg" xmlns:xlink="http://www.w3.org/1999/xlink" x="0px"
	 y="0px" viewBox="0 0 954.2 230.2" style="enable-background:new 0 0 954.2 230.2;" xml:space="preserve">
<style type="text/css">
	.st0{opacity:0.7;fill:#FFFFFF;}
</style>
<title>Alto_Intenso_White</title>
<path class="st0" d="M469.3,121.7c0.9-0.5,1.7-1.1,2.5-1.7c8.5-7.4,16.8-15,25.6-22c5.1-4,10.7-7.3,16.6-9.9c1.9-0.8,7.4,1.7,8,2.8
	c0.1,0.8,0,1.6-0.2,2.3c-1.8,3.4-3.8,6.8-5.6,10.2c-4.7,9.4-9.2,19-13.8,28.4c-0.3,0.6-0.7,1.3-0.9,2c-0.2,0.7-0.3,1.3-0.4,2
	c0.5-0.4,1-0.8,1.4-1.2c3.2-3.3,6.1-6.9,9.5-9.9c7.9-7,16-13.9,24.1-20.7c1.9-1.6,4.2-2.7,7-1.6c5.2,2.1,6.2,4.1,4.6,9.6
	c-2,6.8-3.5,13.7-5.9,20.3c-5,13.8-10.6,27.4-15.8,41c-0.5,1.5-0.9,3-1.2,4.5c1.3-0.8,2.5-1.7,3.6-2.8
	c13.1-14.5,26.3-28.8,39.2-43.5c9.2-10.5,18.1-21.4,27-32.2c2.1-2.7,4-5.4,5.8-8.3c0.8-1.2,1.1-2.2-1.2-2.1
	c-10.1,0.6-20.3,1.1-30.4,1.3c-3.6-0.1-7.2-0.5-10.6-1.3c-3-0.6-6-1.6-9-2.4c-3.3-0.9-5.2-3.3-6.2-6.5c-1.3-4.2-3.1-9.9-0.8-14.1
	c0.2-0.4,0.4-0.8,0.9-0.9c0.5,0.1,0.8,0.7,0.9,1.1c0.5,2.9-0.2,6.8,2.8,8.7c0.9,0.5,2,0.9,3,1.2c5.9,1.9,12.1,1.3,18.2,1
	c6.7-0.4,13.5-1,20.2-1.4c7-0.5,14-1.1,20.9-1.8c1.3-0.2,2.4-0.9,3.2-1.9c5.3-8,10.6-16,15.8-24.1c1.2-1.9,2-4.2,4.9-3.8
	c2.7,0.3,6,0.9,8.7,1.3c1.2,0.2,2.4,0.6,3.5,1.2c1.8,1.1,1.8,2.9-0.1,3.9c-4.6,2.3-7.5,6.3-10.6,10.1c-2,2.7-3.8,5.6-5.4,8.5
	c-0.3,0.5-0.5,1.1-0.7,1.7c0.7,0.2,1.3,0.3,2,0.3c8.4-0.6,16.1-1.6,24.5-1.9c17.1-0.6,33.8,1.3,49.9,7.5c0.8,0.3,2.2,0.6,2.2,1.5
	c0,1-1.6,1.6-2.3,1.9c-3,1.2-6.2,1.8-9.5,2c-0.8,0.1-1.7,0.3-2.5,0.3c-8.4,0-16.9-0.3-25.3,0.1c-7.3,0.3-14.6,1.5-22,2.2
	c-4.8,0.5-9.7,0.8-14.5,1.4c-3.7,0.3-7.3,0.9-10.9,1.9c-1.5,0.5-2.6,2.8-3.4,4.5c-1.9,4.1-3.4,8.4-5.3,12.5
	c-3.8,8.4-7.7,16.7-11.5,25c-5.6,12.4-11.2,24.8-16.7,37.3c-2,4.4-4,8.9-5.6,13.4c-1.7,4.7-3.2,9.6-4.6,14.4
	c-1.5,5.4-2.8,10.9-4.3,16.3c-0.8,2.9-1.1,3.1-2.9,0.8c-3.5-4.2-6.7-8.6-9.6-13.2c-1-1.6-1-4.3-0.5-6.3c3-13,8.8-24.9,13.9-37.1
	c2.5-5.9,4.8-11.9,7.4-17.8c2.2-4.9,4.6-9.7,6.8-14.6c0.2-0.5,0.3-0.9,0.4-1.4c-0.5,0.2-1,0.4-1.4,0.7c-6.2,7-12.4,14.1-18.5,21.2
	c-7.8,9.1-15.3,18.5-23.4,27.4c-5.5,6.1-11.7,11.5-17.4,17.3c-1.2,1.2-4,5.2-6.3,2.9c-1.7-1.8-3.2-3.6-4.6-5.6
	c-5.5-6.9-3.3-14-0.7-20.7c6.2-15.9,13.1-31.6,19.7-47.4c0.5-1.1,0.8-2.3,1.3-3.5c-0.9,0.8-1.9,1.6-2.8,2.4
	c-10.4,9-19.2,19.6-27.4,30.8c-3.9,5.3-7.9,10.4-11.8,15.7c-1.2,1.6-2,3.5-3.2,5.1c-1.5,2.1-2.6,2-3.6-0.4c-1.2-2.6-2.2-5.3-3.1-8
	c-0.1-0.8,0-1.6,0.4-2.3c7.4-15.9,14.8-31.9,22.3-47.8c2-4.2,4-8.4,6-12.6c0.2-0.6,0.3-1.2,0.3-1.7c-0.6,0.1-1.1,0.3-1.6,0.6
	c-7.5,6.5-15.1,12.9-22.3,19.6c-7.8,7.4-15.4,15.1-22.8,22.9c-2.8,2.9-5.2,6.3-7.2,9.8c-7.3,13.4-16.2,26-26.4,37.4
	c-15.1,17.1-31.1,22.6-39.1,23.7c-3.7,0.6-8.5,0.6-12.1-0.6c-2.9-1,0-2.8,1.3-3.7c4.2-3,8.2-6.4,11.9-10c8.1-7.9,15.1-16.8,22-25.6
	c16.5-21.1,29.7-44.3,42.1-68c10.6-20.3,22.1-40.1,35.7-58.6c5.9-8.1,11.8-16.4,20.6-21.9c1.3-0.8,3.3-0.8,4.9-0.5
	c0.7,0.1,2.4,0.9,0.5,3c-4.5,5.3-8.2,11.3-10.8,17.8c-4.4,10.8-9.8,21.1-14.5,31.8c-3.6,8.2-7.4,16.3-11.2,24.4
	c-2.1,4.4-3.9,9.1-6,13.6C472.4,114.4,471,118.1,469.3,121.7l-0.2,0.1l0.2,0.2L469.3,121.7z"/>
<path class="st0" d="M370.9,101.9c-24.5-3.6-48.7,3-73.2,1.5c-1.8-0.1-3.1-0.9-2-2.9c2.5-4.7,5.4-9.7,7.9-14.4
	c1.8-3.2,3.8-6.4,5.3-9.7c1.2-2.6,0-4.6-2.8-4.7c-2.7,0.1-5.4,0.4-8.1,1c-1.3,0.2-2.6,0.6-3.8,1.2c-1.1,0.7-1.6,4.2-4.2,9.2
	c-3.4,6.7-4.9,8.8-9.1,15.9c-3,5-7.4,6.6-16.2,7.8c-3.1,0.3-6.2,0.4-9.2,0.2c-2.5-0.1-5.1-0.6-6.5-2.9c-0.6-1-3.2-1.1-4.7-0.9
	c-2.8,0.5-0.7,6.9-0.4,8.7c0.7,3.5,2.3,6.7,5.6,8.4c2.2,1.1,2.4,2.4,0.5,4.4c-9.3,9.6-18.3,19.4-27.6,29
	c-5.1,5.2-10.5,10.2-15.9,15.2c-0.6,0.4-1.2,0.6-1.8,0.8c0.1-0.6,0.3-1.2,0.5-1.8c1.9-4.1,3.8-8.2,5.6-12.4c0.9-2.1,1.4-4.5,2.4-6.5
	c4.2-8.3,8.6-16.4,12.9-24.6c4.1-7.9,7.8-16,12-23.8c5-9.3,10.5-18.3,15.6-27.5c4.9-8.9,9.1-18.2,14.2-27c1.6-2.8,3.4-5.6,5.2-8.4
	c1.8-2.8,3.3-5.6,4.7-8.6c2.6-5.6,4.3-9.9,8.1-16.8c3.2-5.7,2.9-10.8-4.1-12c-1-0.3-1.9-0.4-2.9-0.5h-0.3c-0.3,0.1-0.6,0.3-0.9,0.5
	c-0.6,0.3-1.1,0.7-1.6,1.1c-1.8,1.6-3.1,4.2-4.5,6.1c-1.6,2.2-3.3,4.5-4.9,6.7c-3.2,4.5-6.4,9-9.2,13.7
	c-8.9,14.9-17.2,30.2-25.5,45.4c-8.9,16.3-17.7,32.6-26,49.1c-5.3,10.6-9.4,21.8-14.8,32.3c-5,9.5-4.3,18.8-1.4,28.5
	c0.4,1,1,1.9,1.8,2.6c1.7,1.8,3.3,2,7.3,1.2c2.8-0.6,3.2-1.6,5.8-3c2-1.2,3.8-2.5,5.5-4.1c8.2-8,16.3-16.2,24.3-24.4
	c1.3-1.3,2.2-3.1,3.4-4.5c3.4-3.9,7-7.6,10.5-11.5c3.7-4.2,7.3-8.5,11.1-12.5c0.8-0.8,2.9-0.4,4.3-0.6c-0.1,1.1-0.3,2.1-0.5,3.1
	c-0.1,0.4-0.3,0.8-0.5,1.2c-7.5,17.3-15.1,34.5-20.3,52.6c-2.5,8.9-4.6,17.9-0.5,27c0.6,1.4,3.9,7.4,6.1,7.4c4.3,0,7.2-3.9,10-6.9
	c3.6-3.9,6.8-8,9.7-12.4c3.4-5.3,6.3-11,9.3-16.6c0.3-0.5,0.7-1.6,0-2c-0.4-0.3-1.3,0.5-1.8,1c-3.2,3.4-6.4,6.8-9.5,10.2
	s-5.8,7-8.9,10.4c-0.7,0.8-3,2.5-3,1.4c0-1,0-1.9,0.2-2.9c0.1-0.7,0.2-1.4,0.5-2.1c4-11.5,7.9-23,12.1-34.4
	c4.4-11.8,9.1-23.4,13.9-35c1-2.4,3.3-5.8,6.4-6.4c7.1-1.5,14.2-3,21.3-4.5c6.4-1.4,11.6-2.3,18-3.4c3.2-0.5,6.7,0,10,0.5
	c1.1,0.2,2.1,1.7,3,2.6l4.5,5.5c3.1,3.8,5.1,6.8,4.6,11.3c-0.8,8.9-3.9,17.5-9,24.8c-7.2,10.1-14.9,19.9-24.2,28.1
	c-2.5,2.2-5.2,4-8.2,5.3c-4.8,2.2-6.3,1.1-6.3-5.1c0.7-6.7,2.4-13.9,6.6-20.3c5.1-7.8,10.4-15,15.8-22.6c3.1-4.3,3.9-4.5,7.5-8.5
	c0.9-1,2-1.9,3.2-2.6c3.4-1.8,4.6-3.6,4.5-5.7c-0.2-2.3-1.4-4.1-2.6-6c-0.4-0.7-3.1-2.6-4.9-0.9c-5.2,5.1-10,8.6-15,14
	c-10.1,11-15.9,21.9-22.2,35.4c-3.4,7.1-5.3,14.8-1.8,22.7c0.7,1.9,1.3,3.8,1.7,5.8c0.9,3.4,5.4,8.1,8.5,8.2
	c6.6,0.1,13.1,0.2,19.1-3.9c8.8-6,16.8-12.8,23.1-21.3c4.7-6.2,8.9-12.7,12.6-19.6c4.7-8.7,6.9-17.8,6.1-27.6
	c-0.5-6.8-2.9-12.7-9.1-16.4c-2-1.2-3.9-2.6-5.8-3.9c-1.3-0.9-2.4-1.9-3.6-2.9c1.6-2.1,3.2-1.5,4.9-1.7c7.2-1.1,14.5-1.9,21.7-2.9
	c1.7-0.3,4.7-0.4,5-1.9S374,102.4,370.9,101.9z"/>
<path class="st0" d="M341.7,120.1l-0.1,0.1h0.2l-0.3,0.1C341.6,120.2,341.7,120.1,341.7,120.1z"/>
<path class="st0" d="M681.8,153.1c3.1-3.7,6.1-7.5,9.4-11c8.5-8.7,17.1-17.4,25.8-25.9c2.9-2.8,10.9-1.8,13.4,1.4
	c0.7,0.9,1,2,0.8,3.2c-2.2,6.1-4.6,12.2-6.8,18.3c-3.5,9.7-7,19.4-10.4,29.2c-0.3,1.2-0.5,2.4-0.5,3.6c1.1-0.6,2.1-1.4,3-2.2
	c8.2-9.2,16.6-18.1,24.4-27.7c9.1-11.3,18.7-22.2,28.8-32.6c5.7-5.9,10.8-12.7,17.7-17.2c5.5-3.6,19.5-6.2,20.7,3.9
	c0.4,3.1-3.3,5.8-5.3,7.7c-0.9,0.7-1.9,1.2-3,1.4c-0.3,0-0.5-0.2-0.5-0.5c0,0,0,0,0,0c0-0.4,0-0.8,0.1-1.3c0.4-2.5,0.9-4.5,1.1-7
	c0.2-2.1-0.8-2.8-3-2.2c-4.5,1.1-7.8,4.3-10.2,7.6c-4,5.6-7.8,11.8-7,19.3c0.6,5.9,1.5,11.7,2.4,17.6c0.3,1.9,1.4,1,2.3,0.6
	c8.7-3.8,17.4-7.1,26.2-10.8c2.4-1,5-2.2,7.3-3.3c3.1-1.3,6-3.3,8.2-5.9c4.5-4.8,9.2-9.4,14.2-13.7c1.6-1.4,4.1-1.9,6.3-2.4
	s3.5,1.1,3.5,3c0,2.6-0.5,5-3.4,6.8c-6.2,3.8-11.6,8.6-15.3,15.1c-3.3,6-7.4,11.6-10.3,17.8s-6.7,12.5-6.7,19.9
	c0,2.1,0.3,4.2,0.8,6.2c0.1,0.4,1.5,0.9,2.1,0.7c3.5-1.3,7.3-2.4,10.4-4.4c12.2-7.9,21-18.8,28.4-31.2c4.4-7.4,7.7-15,7.9-23.8
	c0.1-4.1-1.1-7.8-2.4-11.7c-2.1-6.2-6.6-9.6-12-12.4c-0.4-0.2-0.7-0.5-0.9-0.9c-0.4-0.5-0.3-1.3,0.2-1.7c0.8-0.7,1.7-1.5,2.4-1.4
	c4.2,0.8,8.4,2,12.5,3c21.3,5.4,42.7,10.4,64.7,11.1c7.8,0.3,15.6-0.8,23.4-1.3c0.6,0,1.2,0,1.9-0.1c-0.5,0.4-0.9,1.1-1.5,1.3
	c-3,1-6.1,1.8-9.2,2.3c-13.9,1.9-28.1,1.9-42-0.3c-6.7-1-13.4-1.8-20.1-2.7c-1.7-0.2-2.1-0.3-1.2,1.8c3.8,8.7,3.1,17.9,0.6,26.7
	c-2.1,6.9-4.9,13.6-8.2,20c-3.7,7.2-8.7,13.7-14.8,19.1c-7,6.5-14.7,12.2-23,17c-2.4,1.4-5.3,1.8-8.1,2.5c-2.1,0.6-4.3,1-6.4,1.2
	c-5.8,0.4-11.2-3.9-13.7-9.4c-6.9-15-2.4-28.2,5.6-41.1c0.6-1,1.3-1.9,2-2.9c0.8-1.2,1.4-2.4,2.1-3.6c-1.4,0.5-2.7,1-4,1.7
	c-9.2,3.5-18.4,6.1-26.7,11.7c-1.9,1-2.9,3.1-2.6,5.3c0.1,1.5,0.2,3,0.1,4.4c0.1,6.5-3.9,12.4-10,14.7c-4.5,1.7-9.2,2.9-14,3.6
	c-3.1,0.4-6.4-0.5-9.6-1c-1.3-0.2-2.6-0.7-3.9-1c-2.6-0.5-3.7-2.8-1.9-4.4c3.9-3.7,8.1-7,12.5-10c5.2-3.4,10.9-6.1,16.3-9.2
	c1-0.6,1.6-1.7,1.6-2.8c-1.1-8.9-1.9-17.7,0.2-26.6c0-0.4,0-0.8-0.1-1.2c-0.4,0.2-1,0.3-1.3,0.6c-5.3,6.4-10.9,12.6-15.9,19.2
	c-7.2,9.5-13.7,19.5-21,28.9c-5.9,7.6-12.3,14.9-21.2,19.2c-2.5,1.2-6.8,0.6-8.4-1.5c-2.8-3.9-5.1-7.9-5.1-13
	c0-8.7,2.8-16.7,5.9-24.6c1.6-4.1,3.3-8.3,5-12.4c0.1-0.5,0.2-1.1,0.1-1.7c-0.5,0.2-0.9,0.5-1.3,0.9c-4,4.5-8.2,8.8-12,13.5
	c-5.4,6.6-11.5,12.5-16.8,19.1c-3.8,4.8-8.5,9.8-11.2,15.3c-1.8,3.7-2.3,5.9-4.7,10.8c-1.4,3-2.3,6.8-4.6,9.1
	c-1.5,1.6-2.5,2.8-4.8,2.3c-2.2-0.7-4.2-1.9-5.8-3.4c-3.1-2.8-5.3-6.9-4.9-11.2c0.5-4.3,1.6-8.5,3.1-12.6c2.2-5.8,4.9-11.4,7.4-17.2
	c0.2-0.8,0.4-1.5,0.5-2.3c-0.6,0.4-1.3,0.8-1.8,1.2c-5.5,4.2-10.8,8.6-16.4,12.5c-4.7,3.2-9.6,6.1-14.7,8.6
	c-3.5,1.7-7.3,2.6-11.1,3.7c-3.3,0.9-7.3-0.8-9.9-2.5c-5.1-3.3-7-8.6-8.1-14.8c-0.9-5.3,0.2-9.4,2.2-14.2c1.5-3.6,3.3-7.1,5.3-10.4
	c4-6.7,9.3-12.6,15.5-17.4c7.1-5.2,14.5-9.8,22.3-13.9c4.4-2.7,9.9-2.5,14.2,0.3c2,1.3,2.8,3,2.9,5.5c0.6,9.9-6.7,14.8-12.7,20.3
	c-4.6,4.2-9.9,7.5-15.2,10.9c-4.4,2.7-9.1,5-13.7,7.3c-5.6,2.8-8.2,7.1-7.7,13.4c0,0.6,0.2,1.3,0.2,1.9c0.1,4.1,0.3,4.1,4.5,3.3
	c7.3-1.5,13.5-5.4,19.6-9.4c14-9.1,26-20.7,38.7-31.5c2.6-2.2,4.2-5.8,5.8-9c1.5-2.9,2.7-3.9,5.8-3.2s6.3,1.5,9.4,2.2
	c3.5,0.8,4.5,3.5,2.7,6.6c-4.5,7.9-8.8,15.9-13,23.9c-0.5,1-0.4,2.4-0.5,3.6l-1.6-0.1l0.2,0.4c-0.1-0.2-0.1-0.3-0.2-0.5L681.8,153.1
	z M650.2,115.7c0.4-1.3-2.4-2.1-3.3-2c-2.2,0.2-4.3,0.8-6.3,1.7c-5.3,2.2-9.5,5.9-13.9,9.6c-4,3.3-7.1,7.5-9.3,12.2
	c-1,2.3-2,4.6-3,7c-0.2,0.7-0.3,1.3-0.4,2c-0.2,0.7,1.5,0.1,2-0.2c11.4-5.2,21.6-12.8,29.8-22.2
	C647.8,121.4,649.3,118.6,650.2,115.7L650.2,115.7z M775.1,151.9c0.2-1.8-0.6-2.4-2.5-1.3c-4.5,2.7-8.9,5.5-13.4,8.3
	c-1.3,0.8-2.6,1.8-3.7,2.9c-0.4,0.6-0.5,1.3-0.3,2c0.1,0.3,1.2,0.5,1.8,0.4c5-0.4,9.7-2.1,13.9-4.9
	C773.4,157.7,775,154.9,775.1,151.9L775.1,151.9z"/>
<path class="st0" d="M135.8,212.9c-0.6-7.9,1.6-16,4.5-23.2c4.5-11.6,9.1-23.2,14.1-34.6c2.9-6.8,6-11.4,9.3-18
	c0.3-0.7,0.6-1.5,0.7-2.3c0.1-0.5-0.2-1-0.7-1.1c0,0,0,0,0,0c-0.7-0.2-1.5-0.3-2.3-0.3c-7.1,0.3-14.1,0.6-21.2,1.1
	c-6.9,0.5-12.4,0.9-19.3,1.6c-2.8,0.3-3.1-0.3-7,3.5c-1.9,1.8-4.9,4.8-6.8,6.5C99.5,153,91.9,160,84,166.7c-5.6,5-11.5,9.7-17.6,14
	c-9.6,6.6-19.7,12.4-31,15.7c-7.4,2.2-15.1,3-22.8,2.3c-1.1-0.1-2.3,0.1-3.4,0.1c-1.5,0-3.1,0.3-4.4-0.3c-1.8-0.7-4.9-1.1-4.9-3.1
	c0-1,2.6-2.2,4-3.1c14.8-8.6,29.8-17.1,43.3-27.7c10.3-8,20.6-16,30.9-24c1.4-1.3,2.6-2.6,3.8-4.1c-1.8,0.1-3.7,0.2-5.5,0.4
	c-4.8,0.5-9.6,1.1-14.4,1.8c-7.6,1.1-20.6,2.1-28,3.9c-6,1.5-9.3,3.1-14.5,8.1c-1,1-6,3.1-7.2,1.9s-1.8-6.1-2-7.7
	c0-1.3,0.1-2.7,0.3-4c0.1-1.2,2.6-3,3.5-3.5c7.4-3.7,15.7-5.2,23.9-6.5c11.6-1.9,22.9-3.3,33.8-4.4c7.3-0.8,14.6-1.2,21.9-2
	c1.6-0.2,3.1-0.9,4.3-2c22.3-20.3,41.3-37.3,63.4-57.7c9.3-8.5,18.3-17.4,27.6-25.9c7.8-7.2,16-13.8,25.4-18.9
	c1.2-0.7,2.7-0.9,4.1-0.5c3.8,1.9,7.6,4,11.1,6.4c4,2.6,3.5,6.8,2.4,10.5c-1.2,4.2-2.8,8.3-4.6,12.3c-6.4,14.7-13,29.2-19.5,43.9
	c-3.8,8.5-7.4,17-11.1,25.5c-7.3,16.3-14.7,32.5-21.8,48.9c-2.6,6-4.5,12.2-6.7,18.3c-3.6,10.2-6.9,20.6-10.7,30.7
	c-1.7,4.3-3.8,8.3-6.4,12.1c-1.9,2.9-4.8,2-7.3,0.4c-1.1-0.7-2.2-1.4-3.2-2.3c-1-0.7-1.9-1.7-2.5-2.8
	C136.8,220.2,136,216.5,135.8,212.9z M148.6,123.4c0,0.1,13.2-0.4,19.4-0.3c1.7,0,2.8-0.4,3.6-1.9c3.9-7.6,6-11.5,9.7-19.2
	c5.4-11,10.7-22,15.9-33.2c5.3-11.2,10.4-22.6,15.5-33.9c0.5-1.4,0.8-2.8,1-4.2c-1.8-0.6-3.3,0.9-4.5,1.9
	c-7.8,7.1-14.5,15.5-21.7,23.2c-7.4,7.9-15.1,15.1-22,23.4s-14.9,15.5-21.8,23.6c-5.9,6.9-9.1,11.7-15.2,18.4
	c-0.5,0.6-1,1.2-1.5,1.8c-0.7,0.7,1.8,0.6,2.6,0.7C136,123.9,142,123.7,148.6,123.4z"/>
</svg>
