<?xml version="1.0" encoding="utf-8"?>
<!-- Generator: Adobe Illustrator 23.0.6, SVG Export Plug-In . SVG Version: 6.00 Build 0)  -->
<svg version="1.1" id="Voltesso" xmlns="http://www.w3.org/2000/svg" xmlns:xlink="http://www.w3.org/1999/xlink" x="0px" y="0px"
	 viewBox="0 0 779.1 242.3" style="enable-background:new 0 0 779.1 242.3;" xml:space="preserve">
<style type="text/css">
	.st0{opacity:0.7;fill:#FFFFFF;}
</style>
<title>Voltesso_White</title>
<path class="st0" d="M394.8,125.2c-0.8,0.4-1.5,0.9-2.2,1.5c-4,4.7-7.8,9.5-11.8,14.3c-2.4,2.9-4.9,5.8-7.3,8.7s-4.8,5.9-7.1,8.9
	c-3,3.8-5.9,7.7-8.8,11.5c-2.5,3.4-5,6.9-7.5,10.3c-3.3,4.3-6.7,8.5-10.1,12.7c-1.8,2.2-3.6,4.4-5.4,6.7c-0.9,1.2-2,1-3,0.6
	c-1-0.3-1.6-1.3-1.3-2.3c0-0.1,0-0.1,0.1-0.2c0.1-0.3,0.3-0.9,0.5-0.9c2.5-0.7,3.7-3,5.1-4.8c5-6.4,9.7-13,14.6-19.4
	c3.8-5,7.7-10,11.5-14.9c4.6-5.9,9.2-11.9,14-17.7c5.5-6.8,11.3-13.4,16.9-20.1c0.5-0.7,1-1.5,1.5-2.3c-0.9,0-1.8-0.1-2.7-0.1
	c-4.9,0.2-10.5,1.6-15.3-0.1c-1.4-0.5-2.7-1.2-3.8-2.1c-4.3-3.1-7.7-8.7-4.8-13.9c0.9-1.6,1.9-3.2,2.8-4.8c0.5-0.8,1-0.7,1.5,0
	c0.4,0.5,0.8,1.1,1.1,1.7c0.6,2,2.2,2.6,4,2.5c3.9-0.2,7.8-0.3,11.7-0.8c7.5-0.9,15.1-2.2,22.6-3.2c1.3-0.1,2.6-0.7,3.4-1.8
	c1.1-1.4,2.3-2.8,3.4-4.2c4.2-5.1,8.3-10.1,12.5-15.2c1-1.2,2-2.5,2.9-3.9c1.3-1.9,2.9-2.7,5-2c1.3,0.5,2.6,1.2,3.8,2
	c1.1,0.7,1,1.7,0.4,2.7c-0.1,0.1-0.3,0.3-0.4,0.4c-3.5,4-4.1,4.5-7.5,9c-1.6,2.1-4.2,6.1-5.5,8.4c-0.6,1.1,0,1.3,0.9,1.2
	c3.6-0.5,7.2-1.1,10.8-1.4c5.4-0.5,10.8-0.5,16.2-1.2c6.1-0.7,12.2-0.1,18.2,0.4s17.1,1.3,20.8,6.9c1.2,1.8,2.1,6.2,1.2,8.3
	s-6.2-0.9-7.6-1.1c-6.5-1.4-13.3-0.7-19.9-0.1c-7.1,0.6-14.1,1.7-21.2,2.7c-6.8,0.9-13.5,1.8-20.2,3.1c-3.9,0.9-7.6,2.1-11.3,3.6
	c-0.6,0.2-1.1,1-1.5,1.7c-2,3.1-3.9,6.3-5.9,9.4c-1.8,2.7-3.7,5.2-5.5,7.9c-1.3,1.9-2.3,3.9-3.5,5.9c-3.1,5.4-6,10.9-8.8,16.4
	c-2,3.8-4,7.6-6,11.3c-1.7,3.1-3.6,6.2-5.3,9.4c-2.1,3.9-4,7.9-6,11.8c-0.1,0.3-0.2,0.5-0.3,0.8c-0.6,2.2,0.2,3.2,2.4,2.7
	c3.6-0.9,7.1-2,10.6-3.4c4.1-1.6,8-3.6,12-5.3c6.4-2.8,12.7-5.6,19.1-8.3c1.8-0.8,3.3-2.2,4.3-3.9c7.4-11.3,14.9-21.5,24.5-31.1
	c6.8-6.8,13.8-13.1,23.5-14.8c5.3-0.9,9.7,2.5,12.7,6.5c3.2,4.2,0.8,9.5-2.5,12.8c-1.3,1.3-2.6,2.6-4.1,3.8c-3.3,3-6.8,5.7-10.5,8.3
	c-5.3,3.5-10.4,7.3-16.1,10c-1.4,0.6-2.7,1.5-4,2.2c-1,0.5-1.8,1.4-2.1,2.5c-0.6,2-1.8,3.8-2.5,5.7c-1.7,4.6-3.3,9.2-4.9,13.8
	c-2.7,8.1-3.7,16-4.9,24.4c-0.1,0.4,0,1.3,0.2,1.3c0.5,0.1,1.1,0.1,1.6-0.1c5.1-2.9,10.4-5.6,15.4-8.8c9.2-5.9,17.1-13.4,24.8-21.1
	c7.3-7.3,14.3-14.8,21.3-22.3c9-9.6,17.9-19.3,26.8-28.9c5.5-5.9,11.1-11.7,16.7-17.6c0.4-0.5,0.8-1.1,1.1-1.6c3.4-6.1,8.7-11,15-14
	c6.2-2.9,12.8-3.6,19.5-3.1c4.4,0.3,5.9,2.4,5.5,6.8c-0.2,2.1-2.9,4.4-5.6,4.5c-1.9,0.1-3.8-0.3-5.7-0.4c-1.1-0.2-2.2-0.2-3.3-0.2
	c-5.3,0.9-10.7,3-14.3,7.1c-8.9,10.4-8.5,28.4-9.2,41.2c-0.1,1.4,0.2,1.7,1.5,1.2s2.8-1.2,4.2-1.8c9.4-4.2,18.8-8.4,28.1-12.7
	c3.8-1.7,7.5-3.7,11.3-5.5c1.6-0.7,2.7-2.2,2.8-3.9c1-6.8,3.3-13.4,6.9-19.2c4.9-7.9,12-11.4,20.8-13.4c5.1-1.2,9.9-2.3,14.7,0.7
	c3.4,2.2,2.9,6.6,3,10.1c0,5-1.7,6.8-5.8,9.3c-5.9,3.5-11.8,7.1-17.8,10.6c-1.8,1-3.7,2-5.6,2.8c-2.2,0.8-3.7,2.9-3.7,5.2
	c-0.3,5.7,0.3,11.4,0.8,17c0.2,1.6,0.6,1.8,2.3,0.8c5.3-2.9,10.7-5.9,16-8.9c6.6-3.7,13.4-7,20.2-10.3c4.4-2.1,8.6-4.4,13.1-6.2
	c3.9-1.6,8.1-2.3,11.7-4.7c1.5-1.1,3.2-2.2,4.8-3.1c1.6-1,3.5-1.6,5.4-1.7c1.6,0,3.7,0.8,4.2,2.5c0.3,0.9,0.2,1.8-0.2,2.6
	c-0.5,1-1.3,1-2.3,1.3c-2.3,1-4.4,2.2-6.4,3.8c-2,1.4-4.3,2.6-6.1,4.3c-4.6,4.4-8,9.4-11.8,14.5c-1.7,2.4-3.6,4.6-5.1,7.1
	c-4.3,7.1-6.4,15.1-7.8,23.3c-0.8,4.8,0.9,7.9,6.2,7.9c7.4,0,14.5-4.2,20.2-8.5c4.1-3.1,8-6.6,11.4-10.4
	c9.3-10.4,14.5-23.8,12.2-37.8c-0.3-1.9-0.8-3.8-1.2-5.7c-1.6-7-8.1-14.3-16-12.3c-1.2,0.3-2.3,0.8-3.3,1.3
	c-0.9,0.5-1.7,1.3-2.7,1.8c-2.4,1.3-4.7-0.5-6.6-1.8c-0.9-0.6-1.8-1.3-2.6-2.1c-0.8-0.9-0.7-1.5-0.1-2.5c1.3-2.4,4-2.7,6.4-3.4
	c2.9-0.8,5.8-1.4,8.8-1.9c6.1-1,12.2-1.9,18.4-2.6c12.1-1.3,24.3-1.7,36.4-1.1c12.2,0.6,24.6,1.7,36.3,4.8c2.9,0.8,5.7,1.6,8.5,2.5
	c1.2,0.4,2.3,1,3.3,1.8c0.5,0.3,3.1,1.6,1.8,2.4c-0.5,0.3-1.5,0.1-2,0.1s-1.4-0.1-2.1-0.1c-1.6-0.2-3.2-0.5-4.8-0.8
	c-3-0.6-5.9-1.1-8.9-1.5c-12-1.3-24-2.3-36-1.9c-6.2,0.2-12.4,0.9-18.5,2c-1,0.2-6.6,1.3-4.7,3c0.7,0.6,1.5,1.1,2.3,1.6
	c1,0.7,2.1,1.3,3.1,2.1c3.6,2.5,5.3,6.6,6.1,10.8c0.7,5,0.9,10,0.5,15c-0.2,5.7-1.4,11.4-3.3,16.8c-2.1,5.2-5,10.1-8.4,14.5
	c-6.6,9.1-15,16.7-24.7,22.5c-9,5.3-20.3,9.5-30.8,6.8c-4.6-1.2-8.6-3.4-11.4-7.3c-2.5-3.6-4.2-7.6-5-11.8
	c-2.2-10.1,1.1-19.8,6.7-28.2c1.5-2.2,3.1-4.3,4.7-6.4l2.5-3.2c0.8-0.8,1.4-1.8,1.7-2.9c-0.3-0.2-0.7-0.2-1,0
	c-7.4,3.4-14.8,6.7-21.9,10.9c-2.4,1.4-5,2.3-7.4,3.7c-3.6,2.1-7.1,4.3-10.6,6.6c-0.5,0.5-0.8,1.2-0.8,1.9c0,2.7,0.3,5.3,0.3,8
	c0.1,7.1,0.4,14.2,0.2,21.3c-0.2,5,0,12.6-3.2,16.8c-6.6,8.8-18.8,8.4-28.6,8.4c-6.1,0-12.2,0.7-18.3,0.8c-3.2,0-14.9,0.9-11.4-4.9
	c2.6-4.2,5-8.6,7.8-12.6c3.4-4.5,7.1-8.8,11-12.8c7.3-8,15.3-15.2,23.9-21.6c1.3-0.8,2.1-2.2,2.1-3.8c0.1-6.9,0.3-13.9,0.5-20.9
	c0-0.4,0-0.8,0-1.1c-0.1-1.6-0.5-1.9-1.9-1.3c-3.2,1.4-6.4,2.9-9.6,4.4l-13.1,6.2c-5.3,2.5-10.7,5-16,7.6c-2,1.1-3.9,2.3-5.7,3.8
	c-0.6,0.6-0.9,1.4-1,2.2c-0.7,5.6-1.6,11.1-2.8,16.6c-0.5,2.4-1.3,4.8-2,7.2s-1.3,4.6-1.9,6.9s-1.4,4.9-4.3,4.9
	c-9,0-17.8-0.9-26.7-1.3c-6.4-0.3-12.8,0-19-2c-0.3-0.1-1.7-0.8-1.6-1.1c0.8-2.1,2-4,3.6-5.6c4-3.5,7.5-6.4,11.6-9.7
	c2-1.6,4.1-3,6.2-4.4c7.4-4.9,15.1-9.4,23.1-13.4c2.4-1.2,3.3-2.7,3.5-5.5c0.5-7,1.6-14,2.5-21c0.3-2.6,0.8-5.3,1.3-7.9
	c0-0.4-0.1-0.7-0.2-1.1c-0.4,0.1-0.9,0.1-1.2,0.4c-2.8,2.5-5.6,5.1-8.3,7.7c-2.3,2.2-4.5,4.4-6.6,6.6c-3.2,3.4-6.4,6.7-9.5,10.1
	c-8.9,9.8-17.7,19.7-27.1,29.1c-3.5,3.5-6.8,7.5-10.6,10.9c-5.2,4.6-10.2,9.4-15.9,13.5c-6,4.4-13,9.3-19.7,12.6
	c-6.1,3-13.5-0.5-17.3-5.6c-1.3-2-2.3-4.2-3-6.5c-0.9-2.5-1.5-5.1-1.8-7.7c-0.5-6.2,2.2-13.2,3.5-19.2c0.1-0.5,0.1-1.1,0.1-1.6
	c-0.5,0-1.1,0-1.6,0.1c-2.8,1.3-5.7,2.6-8.5,4c-4.4,2.2-8.7,4.9-13.3,6.6c-3.1,1.1-6.1,2.7-9.3,3.6c-4.6,1.3-9.2,2.3-14,2
	c-2.1-0.2-3.8-1.7-4.3-3.7c-1-3.1-1.8-6.4-2.5-9.6s0.8-5.8,1.9-8.5c2.1-5,4.5-9.8,7.1-14.6c2.7-5.2,5.7-10.3,8.6-15.3
	c2.5-4.3,5.4-8.3,7.6-12.7c1.8-3.3,3.7-6.6,5.8-9.8c0.1-0.5,0.2-1,0.3-1.5l0.5-0.7l0.9-0.4v-0.1v0.1l-0.8,0.4l-0.5,0.7L394.8,125.2z
	 M587.6,186.2c0-1.4,0-2.9,0-4.3c0-0.4-0.1-0.9-0.2-1.3c0-0.3-0.3-0.4-0.6-0.4c0,0,0,0,0,0c-0.5,0.1-1.1,0.2-1.6,0.4
	c-0.3,0.1-0.4,0.3-0.7,0.5c-3.4,3-6.8,6-10.2,9c-1.3,1.2-3.4,3.2-4.6,4.5c-2.9,3.1-5.7,6.3-8.6,9.4c-1.8,1.8-3.2,4-4,6.4
	c-0.3,1,0.3,1.7,1.3,1.5c8.9-1.3,17.2-4.2,24.2-10c2.3-1.7,3.9-4.3,4.3-7.1C587.3,191.9,587.7,186.2,587.6,186.2z M515.8,192.9
	c2.8,0.1,5.6,0.1,8.4,0c5.4-0.3,4.9-11.8,5.3-15.5c0.3-2.1-0.4-2.6-2.4-1.7c-6.1,2.8-11.8,6.6-16.6,11.3c-1,1-1.8,2.2-2.6,3.4
	c-0.7,1.2-0.4,1.8,1,1.9C511.2,192.6,513.5,192.8,515.8,192.9L515.8,192.9z M475.2,139.7c0.3-0.4,0.3-1,0.3-1.5
	c-0.3-1.4-1.4-2.4-2.8-2.4c-1.8,0.1-3.5,0.9-4.8,2.3c-0.7,0.6-1.4,1.3-2.1,1.9c-3.5,3.3-7.3,6.4-10.5,9.9c-2.1,2.4-3.5,5.4-5.2,8.1
	c-0.1,0.2-0.2,0.5-0.2,0.8c0.3,0,0.7,0.1,1,0.1c0.2,0,0.3-0.2,0.5-0.3c8-4.6,15.5-10.1,22.2-16.6
	C474.2,141.4,474.8,140.6,475.2,139.7L475.2,139.7z M603.1,127.3c0.2,0.7,0.5,1.3,0.9,1.9c0.2,0.2,1.4-0.3,2-0.6
	c3.7-2.2,7.3-4.6,10.9-6.7c1.7-1,5.1-5,3.7-7.2c-0.1-0.3-0.4-0.5-0.7-0.5c-1.7-0.4-3.4-1.1-5.1-0.9
	C608.7,114,603.4,120.8,603.1,127.3z"/>
<path class="st0" d="M142.5,206.2c0,0,0,0.1,0,0.1c1.6-2.3,3.3-4.4,5.2-6.4c2.2-2.7,4.4-5.5,6.5-8.3c4-5.2,7.9-10.4,11.9-15.6
	c7.8-10.1,15.9-19.9,24.1-29.6c8.5-10,16.6-20.2,24.7-30.4s16.4-20,24.8-29.8c4.2-4.9,8.4-9.9,12.7-14.8c2-2.3,4.1-4.5,6.1-6.7
	c1-0.9,1.8-2.1,2.4-3.3c0.4-1.4,0.6-2.9,0.4-4.3c0-11.8,7.5-22.7,15.9-30.3c4.2-3.8,8.7-7.8,14.1-9.8c2.7-1,5.6-1.5,8.5-1.6
	c1.1,0,6.5,0,5.2,2.3c-6.1,10.7-14.8,19.8-22.8,29c-4.1,4.7-7.9,9.7-12.2,14.3s-8.4,9.5-12.6,14.3c-4.2,4.8-8.1,9.8-12.2,14.6
	s-8.2,9.4-12.2,14.2c-8.4,10-16.3,20.3-24.3,30.6c-7.7,10-15.7,19.9-23.7,29.6c-1.7,2.1-3.5,4.2-5.1,6.5c-1.9,2.6-3.5,5.4-5.4,8
	c-3.5,4.8-7.4,9.2-10.6,14.2s-6.8,9.5-9.8,14.5c-3.2,5.3-7.2,9.9-11,14.8c-1,1.2-1.9,2.5-2.8,3.7c-0.6,1.1-1.4,2.1-2.4,2.9
	c-2.3,1.5-5.8,0.9-8.3,0.5c-2.7-0.4-5.4-1-8-1.7c-2.3-0.5-4.4-1.9-5.5-4c-1.4-2.3-3.3-4.5-3.5-7.3s0.8-5.9,1.3-8.7
	c1.2-6.5,2.7-12.9,4.1-19.4c2.7-12.8,5.5-25.7,8.9-38.4c3.3-12.5,7.4-24.7,11.3-37c8-24.5,17.5-48.6,28.3-72
	c1.3-2.9,2.8-5.8,4.1-8.7c0.4-0.8,2.5-4.2,1.9-5c-1.5,0.7-2.8,2.2-4,3.2c-1.4,1.3-2.9,2.4-4.4,3.7c-3,2.6-6,5.2-8.9,7.9
	c-5.8,5.3-11.4,10.9-16.8,16.7s-11.3,10.8-16.8,16.4c-5.6,5.8-11.2,11.6-17,17.2s-11.2,11.4-16.9,17c-5.5,5.4-10.8,10.9-15.9,16.8
	c-10.5,12.1-21.3,24.2-32.5,35.7c-3,3.1-6.1,6.3-8.9,9.6c-2.6,3.3-5.6,6.3-8.8,9c-4.7,3.7-20.8,4.2-21.7-4.2
	c-0.1-1.3,0.8-2.8,2.2-2.7s2.3,1.7,3.9,1.7s3.1-1.3,4.2-2.2c6.2-5.2,12.2-10.7,17.8-16.5c12.2-12.3,23.9-25.1,35.7-37.8
	c11.5-12.5,23.8-24.3,35.9-36.3s24.8-23.9,37.7-35.3C149.9,36.2,162.5,25,176,15.1c3.4-2.5,6.7-4.9,9.8-7.7c1.5-1.3,2.8-2.7,4.2-4.1
	s2.5-2.6,4.3-3.1c3.2-1,6.9,1.2,9,3.4c2,2,6.3,7.1,4.5,9.8c-0.8,1.1-1.8,0.9-2.9,1.6c-2.2,1.4-6.5,7-8,10.4
	c-3.8,8.7-7.4,16.4-10.4,24.4s-5.8,15.8-8,24S174,90.4,172,98.6c-4,16.3-7.4,29.6-12.2,48.3c-2.1,8.2-3.9,14-7,23.5
	c-1.3,3.9-2.4,8.9-3.6,12.8s-2.1,8.1-3.3,12.1c-0.5,2-1.2,3.9-1.9,5.8c-0.3,0.8-0.6,1.7-0.8,2.5
	C142.8,204.5,142.6,205.3,142.5,206.2z"/>
<path class="st0" d="M288,138.1c0.1,4.9-2.3,9.5-3.8,14c-1.2,3.8-2.7,7.4-4.5,10.9c-7.9,14.7-18.3,27.9-30.9,38.9
	c-0.9,0.8-1.9,1.6-2.9,2.4c-4.5,3.6-9.5,6.3-15,8c-5.2,1.7-10.9,1.2-15.7-1.3c-2.3-1.2-4.8-2-6.5-4.1c-1.2-1.6-2.6-3.2-3.1-5
	c-1.2-3.8-1.5-7.9-1-11.9c2.7-17,12.6-28.9,24.6-40.6c6.7-6.8,14.2-12.8,22.3-17.9c3.1-2,6.3-3.7,9.7-5.2c3.6-1.5,7.3-0.9,11.1-1
	c0.9,0.1,1.8,0.3,2.7,0.7c1.7,0.7,3.3,0.3,5,0c5.9-1.2,11.6-3.3,16.8-6.1c9-4.6,18.1-8.9,26.4-14.6c5-3.4,10.4-6.3,15.6-9.4
	c2.3-1.2,4.2-3.1,5.5-5.3c2.5-4.3,4.9-8.6,7.4-12.9c3.5-6.1,7.5-11.9,11.9-17.5c4.1-5.1,7.9-10.4,12.1-15.5
	c5.3-6.4,10.5-12.8,16.4-18.6c3.5-3.5,7.3-6.7,11.4-9.4c4.5-3,9.3-5.2,14.8-5.6c1.9-0.3,3.9,0.3,5.3,1.5c5,5.6-3.4,15.8-6.4,20
	c-1.7,2.4-3.4,4.9-5,7.4c-1.3,1.9-2.7,3.7-4.3,5.4c-6.3,7.3-13.1,14.2-19.8,21.2c-3.7,4-7.7,7.8-11.9,11.3c-2.1,1.8-3.8,3.9-5,6.4
	c-1.2,2.2-2.5,4.3-3.6,6.4c-2.8,5.2-5.5,10.4-8.2,15.7c-3.1,6-6.2,11.9-9.2,17.9c-5.8,11.4-11.5,22.9-17.1,34.4
	c-2.7,5.5-5.2,11.2-7.7,16.7c-2,4.3-3.6,8.6-5.4,13s-3.6,8.6-5.3,12.9c-0.8,2-1.3,4.2-2,6.2c-1.9,5.1-3.9,10.2-5.7,15.4
	c-1.3,3.8-2.3,7.8-3.8,11.6c-1.1,2.5-2.5,4.9-4,7.2c-0.3,0.3-0.8,0.4-1.3,0.3c-1.2-0.2-2.4-0.6-3.5-1c-0.7-0.3-1.3-0.7-1.7-1.3
	c-1.1-1.8-2-3.6-3-5.5c-0.3-0.8-0.7-1.6-1.2-2.3c-2.6-3.4-3-7.4-2.6-11.4c0.3-3.1,0.9-6.2,1.8-9.2c4.4-15.5,9.9-30.6,16.5-45.3
	c3.8-8.3,7.4-16.7,11.4-24.9c4.2-8.5,8.8-16.9,13.3-25.3c0.6-1.2,1.1-2.5,1.5-3.8c-1,0.6-2.1,1.4-3.1,1.9c-5.8,2.9-7.5,4-13,6.7
	c-7.5,3.6-14.9,7-22.4,10.5c-0.3,0.1-0.5,0.2-0.8,0.4C287.7,133.4,287.9,135.4,288,138.1z M271,138.5c0-2-1-3.8-2.7-4.8
	c-2.2-1.1-3.2-0.8-6.4,0.9c-3.7,1.9-6.5,4.5-9.9,6.9s-6.8,6.3-10,9.2c-5.6,5.1-7.3,8.7-11.9,14.8c-0.3,0.4-0.6,0.9-0.8,1.3
	c-4.8,7.6-9.1,14.8-11.2,22c-0.4,1.4-0.8,2.9-1.2,4.3c-0.4,1.1-0.6,2.2-0.5,3.4c0.6,5.9,12.9-1.9,14.6-3.1
	c17.4-12.4,32.2-32.1,39.4-52.2c0.3-0.7,0.5-1.4,0.5-2.1C271,138.8,271,138.7,271,138.5L271,138.5z M388.4,55.9
	c0.7-0.6,1.1-0.9,1.4-1.2c9.1-8.4,17.3-17.7,24.6-27.7c0.9-1.3,1.6-2.6,2.2-4c0.3-0.6,0.8-1.4,0.2-2.2c-0.9-0.5-2-0.3-2.7,0.4
	c-0.3,0.2-0.6,0.5-0.8,0.7c-1.7,1.3-3.4,2.7-4.9,4.2c-0.5,0.6-0.6,0.5-1.5,1.6c-2.1,2.1-3.9,4.4-5.5,6.8
	c-3.9,5.7-7.6,11.5-11.4,17.3c-0.4,0.7-0.7,1.5-1,2.3C388.7,54.7,388.5,55.3,388.4,55.9z"/>
</svg>
