<?xml version="1.0" encoding="UTF-8"?>
<svg width="728px" height="100px" viewBox="0 0 728 100" version="1.1" xmlns="http://www.w3.org/2000/svg" xmlns:xlink="http://www.w3.org/1999/xlink">
    <title>Script/white/COLOMBIA-VL</title>
    <g id="Script/white/COLOMBIA-VL" stroke="none" stroke-width="1" fill="none" fill-rule="evenodd">
        <g id="logo" transform="translate(180.000000, 4.000000)" fill="#FFFFFF">
            <path d="M258.46124,33.3151673 C258.824658,32.3330096 258.911187,31.4061499 259.19879,30.4124375 C259.70807,28.6519819 262.503344,28.6627113 263.989157,28.6123654 C264.320437,28.601636 264.497613,28.6503312 264.753902,28.8591428 C266.149066,29.9981156 266.365799,31.7189548 266.308937,33.413383 C266.262789,34.8172907 266.627856,36.7981128 264.902236,37.3032224 C263.808684,37.6234554 262.638493,37.297445 261.524339,37.4880992 C260.689547,37.6308834 259.906673,37.6870067 259.080947,37.4625136 C258.879872,37.4080409 258.537879,36.9821642 258.307137,36.6124107 C257.733579,35.6888524 258.109358,34.2651365 258.46124,33.3151673 M224.121897,65.3656944 C220.267683,69.7986092 215.858864,74.1019452 210.400993,76.4772811 C210.166955,76.5787982 209.90737,76.61924 209.792823,76.650603 C209.459896,76.6332708 209.262117,76.3815413 209.27695,76.1719043 C209.322274,75.5842604 209.514285,75.0634693 209.960935,74.6590514 C212.952339,71.95688 216.476922,69.8291469 219.708133,67.4290507 C220.306414,66.9850164 220.925297,66.5954548 221.56231,66.2124958 C222.267721,65.7874444 222.900613,65.239417 223.575533,64.7607183 C223.747765,64.6385676 223.954609,64.5585094 224.155684,64.4891806 C224.213369,64.4693724 224.325444,64.5320984 224.379009,64.5898724 C224.430926,64.644345 224.485315,64.762369 224.458945,64.8143656 C224.365824,65.0074957 224.26199,65.2055779 224.121897,65.3656944 M368.994863,59.6964164 C368.970965,59.5907726 368.867955,59.478526 368.785547,59.3951664 C368.315822,58.9189437 367.640902,58.5756012 367.054158,58.2826046 C365.458743,57.4844984 363.70428,56.9521525 361.968771,56.5576387 C354.644363,54.8953988 346.898027,55.478916 339.568675,56.7639744 C332.195646,58.0572861 325.125878,60.8147556 318.231639,63.6679648 C314.700464,65.1296464 311.240983,66.7861089 307.812817,68.4747597 C306.166309,69.2860715 304.528865,70.1180168 302.905431,70.9747223 C302.10113,71.3989484 301.295182,71.8206984 300.503243,72.2672087 C300.109333,72.4892259 299.724489,72.7277499 299.318218,72.9274828 C299.020726,73.0735684 298.583964,73.3566609 298.238675,73.2518424 C297.219291,72.942339 297.731043,70.9078696 297.879377,70.2401675 C298.298009,68.3559104 299.005068,66.5294274 299.733554,64.7466875 C301.197941,61.1564474 302.867523,57.6082998 304.842015,54.2722652 C305.267239,53.5533918 305.71389,52.8485493 306.198448,52.1684671 C306.707728,51.4553711 307.252444,50.8000491 307.633992,50.0044189 C307.985874,49.2731654 308.281718,48.5072475 308.548719,47.7413296 C308.842091,46.9052576 309.145352,45.9272267 308.997018,45.029254 C308.870934,44.2641615 308.418515,43.5675724 308.0963,42.87511 C307.799632,42.2362948 307.52439,41.5801475 307.121416,40.9991064 C306.795905,40.5294865 306.309698,39.8708631 305.746853,39.6967158 C305.25323,39.5440275 304.742301,39.8180412 304.348392,40.0945309 C303.279562,40.8455927 302.366484,41.9655825 301.501201,42.9287572 C300.294751,44.2699389 299.156699,45.6812746 298.040897,47.0992131 C296.892956,48.5584188 295.936201,50.1595833 294.72563,51.570919 C293.577689,52.91045 292.259987,54.0725323 290.934045,55.2296626 C288.087679,57.7164197 285.153136,60.1008343 282.184806,62.4406804 C280.798706,63.5326086 279.369755,64.5799683 278.010025,65.7032595 C276.862908,66.6507527 275.797375,67.8846398 274.365951,68.407907 C273.827004,68.6051639 273.022703,68.6018625 272.700489,68.0117426 C272.394756,67.448859 272.866953,66.4749548 273.036713,65.9302287 C273.504789,64.4165504 274.164052,62.9664236 274.945278,61.5897522 C276.533277,58.7934917 278.600889,56.3108613 280.684159,53.8761008 C284.989144,48.8423366 289.261166,42.9493908 295.810117,40.7746132 C297.506894,40.2100789 299.275366,39.8725138 301.036421,39.5819932 C301.923954,39.4350822 302.813958,39.3022021 303.702315,39.1643699 C304.630227,39.0207603 305.558139,38.8358836 306.498412,38.7946164 C307.351333,38.7566507 308.24381,38.817726 309.089315,38.9423527 C309.599419,39.0174589 310.053486,39.2072877 310.552054,39.326137 C310.847898,39.3971165 311.383549,39.5299966 311.497271,39.1354829 C311.558253,38.9299726 311.48079,38.5197774 311.438762,38.3200445 C311.351409,37.8991198 311.125612,37.620154 310.748184,37.4195957 C309.306871,36.6520272 307.393361,36.7254827 305.812779,36.752719 C303.892677,36.7849073 301.982463,37.025082 300.093676,37.3667738 C296.485037,38.0204451 292.952213,39.1940822 289.63365,40.7614077 C286.250808,42.3600962 283.11107,44.4366581 279.962267,46.4463672 C278.446787,47.4128433 276.898344,48.3339256 275.421595,49.3606517 C273.926717,50.399758 272.425247,51.4248334 270.913063,52.4383541 C267.788158,54.5330734 264.726707,56.7086764 261.841609,59.1269301 C259.112262,61.4147796 256.506526,63.8445881 253.860411,66.227352 C252.501505,67.451335 251.122822,68.6522084 249.731778,69.8407017 C249.421925,70.1056366 248.264095,71.0663353 248.207233,70.077575 C248.18828,69.7614688 248.486596,69.422253 248.624217,69.1581434 C248.828588,68.769407 249.030488,68.37902 249.272767,68.0109172 C250.255068,66.5178726 251.229129,65.0462868 252.065568,63.4624545 C253.663456,60.4408754 254.938305,57.2591799 256.56586,54.2532823 C256.846046,53.7357925 257.177326,53.2414124 257.628097,52.8568027 C257.953608,52.5794876 258.304665,52.4144191 258.351637,51.951402 C258.424156,51.2531622 258.204951,50.4245183 258.013765,49.7559908 C257.796209,48.997501 257.475642,48.2439632 257.021575,47.5960693 C256.575749,46.9572542 256.004662,46.4802062 255.265464,46.2136206 C254.441386,45.9173226 253.721965,45.8702781 253.085777,46.5454083 C252.536941,47.1256241 251.884271,47.3913844 251.155786,47.6975865 C250.299568,48.0582612 249.451592,48.4420455 248.599495,48.8142749 C246.82031,49.5917476 245.035356,50.3568402 243.254523,51.1326622 C242.905938,51.2845252 241.526431,52.0941862 241.336893,51.4264841 C241.254485,51.1400902 241.516542,50.6894532 241.600598,50.4146141 C241.771182,49.86246 241.933525,49.3061791 242.087628,48.7490729 C242.580427,46.9696344 242.992466,45.1703876 243.374838,43.3645381 C243.542126,42.5755106 243.779461,41.7625482 243.823961,40.9545379 C243.872582,40.0697707 243.511635,39.3896884 242.952086,38.7360171 C241.927757,37.5409211 240.51199,36.6627566 239.013816,36.2005648 C238.211164,35.9521367 237.363187,35.8110031 236.521803,35.8382394 C235.613669,35.8671264 234.813489,36.2030408 233.968808,36.5051162 C232.269559,37.114219 230.674967,37.9098492 229.078728,38.7467466 C227.465182,39.5918973 225.854109,40.4519043 224.301546,41.4084763 C222.792658,42.337812 221.403262,43.414884 220.036117,44.5406512 C218.632711,45.6969561 217.235074,46.8598638 215.850623,48.0384529 C215.153453,48.6326996 214.458755,49.2277716 213.765705,49.8261449 C213.427009,50.1183162 212.833672,50.879282 212.328512,50.8033505 C212.188419,50.46496 212.610347,49.8154155 212.74632,49.5281962 C213.178137,48.6161927 213.662695,47.7289495 214.146429,46.8450076 C215.358648,44.6289629 216.626081,42.4442812 217.856429,40.2373152 C219.601003,37.1051402 221.376068,33.9993762 223.204698,30.9150711 C224.234795,29.1768997 225.244291,27.4321256 226.368334,25.7517282 C227.429747,24.1637691 228.545549,22.6137758 229.644045,21.0522277 C230.771385,19.4477618 231.820436,17.7946007 232.925525,16.1752786 C233.956447,14.6649017 235.059888,13.2040454 236.057023,11.6697336 C237.092065,10.0784732 238.183145,8.43108948 238.09332,6.46182216 C238.017505,4.7905035 237.491743,3.24876363 236.387478,1.97526008 C235.849355,1.35460248 235.218111,0.835462021 234.436885,0.562273638 C234.027318,0.419489377 233.60539,0.315496216 233.194999,0.175187983 C232.76895,0.029927695 232.34867,-0.0872709466 231.913557,0.0877016733 C231.323517,0.325400327 230.966691,0.932852441 230.648597,1.44786619 C230.192882,2.18654777 229.694314,2.8971677 229.204812,3.61273969 C226.909754,6.9727092 224.561955,10.2963636 222.283378,13.6670626 C221.123076,15.3821244 219.957829,17.1004876 218.881583,18.8691967 C217.856429,20.5553715 216.917804,22.2918922 215.92479,23.9962246 C214.87821,25.7905193 213.725325,27.5179612 212.651551,29.2949237 C211.615684,31.0091602 210.705902,32.7952015 209.683221,34.5176913 C208.635817,36.2797977 207.494469,37.9866061 206.494038,39.7767741 C205.532338,41.4984386 204.701667,43.2877812 203.860283,45.0713465 C203.493569,45.8479938 203.210086,46.6609562 202.634879,47.3088501 C201.973968,48.0524838 201.246307,48.7317407 200.518646,49.4093469 C199.051787,50.7736381 197.54702,52.0966623 196.045549,53.4229877 C194.493809,54.7938817 193.02283,56.2514366 191.470266,57.6198546 C189.99599,58.9189437 188.494519,60.1907966 186.996345,61.4626495 C186.302471,62.0527694 185.60118,62.6379373 184.892473,63.210725 C184.551305,63.4855641 183.611031,64.01791 183.315187,63.3700161 C183.171798,63.0539099 183.346502,62.5446735 183.409956,62.2310434 C183.749477,60.5605501 184.23321,58.9156424 184.701287,57.2789881 C185.337475,55.0522139 186.006627,52.8345185 186.69226,50.6234258 C187.297958,48.66984 187.914368,46.7195556 188.560446,44.7791752 C188.767289,44.1576923 188.974957,43.5362094 189.199106,42.9205038 C189.621034,41.7658496 189.40595,40.7333461 188.47639,39.8997501 C187.976174,39.4515891 187.372949,39.1231028 186.754066,38.8713733 C185.883015,38.5181267 185.183373,38.0006369 184.215905,37.9106746 C183.6168,37.8545513 183.166853,38.0245718 182.781185,38.4908904 C182.217515,39.171798 181.717299,39.8527056 181.06875,40.4634591 C179.762586,41.6940448 178.397912,42.8330175 177.147785,44.1246786 C175.772399,45.5450931 174.455521,47.0191549 173.125459,48.4816619 C171.811054,49.9268367 170.484288,51.3621074 169.212735,52.8460733 C168.288119,53.9256213 167.487939,55.2016009 166.368017,56.0954469 C166.160349,56.2605154 165.66343,56.6921695 165.369234,56.493262 C165.204418,56.3834914 165.217604,56.13919 165.219252,55.9683441 C165.221724,55.5449434 165.300835,55.1075119 165.389012,54.6940152 C165.76644,52.912926 166.635018,51.2903026 167.166549,49.5579086 C167.448384,48.640953 167.628033,47.6901584 167.725274,46.7360624 C167.811802,45.8851342 167.888441,44.9830348 167.666764,44.1461375 C167.202808,42.400538 165.599152,41.6304934 163.89743,41.5694181 C162.342394,41.5141201 161.307352,42.5870654 160.193198,43.5213532 C158.672774,44.7956821 157.154821,46.0790897 155.743999,47.47722 C154.33565,48.8728743 152.950374,50.2941141 151.605478,51.7508437 C150.945391,52.4664157 150.293545,53.1910665 149.667246,53.9363508 C149.025289,54.7022687 148.408054,55.507803 147.696051,56.2101695 C147.414216,56.4891353 147.090353,56.7491182 146.691499,56.8283511 C146.412961,56.8844744 145.904504,56.8886011 145.678707,56.6789641 C145.173547,56.2093442 146.075913,55.0522139 146.294293,54.6288132 C147.256817,52.763539 148.236646,50.9048676 149.113465,48.9966756 C149.920238,47.2428227 150.591862,45.4295452 151.22393,43.6063635 C151.834572,41.8459078 152.642993,40.0384076 152.924828,38.1879897 C153.185236,36.4811813 152.688317,34.752914 151.346718,33.6139413 C150.653668,33.0262974 149.768608,32.7044138 148.979965,32.2694583 C148.196266,31.8361534 147.353234,31.1346123 146.424498,31.0916944 C145.533669,31.0504273 144.637072,31.4342116 143.808049,31.712352 C142.93123,32.006174 142.063475,32.3255815 141.22374,32.7151432 C139.388517,33.5668967 137.491489,34.2750406 135.652146,35.1160647 C132.06823,36.7543697 128.776861,38.9811438 125.601687,41.294579 C124.121643,42.3733017 122.568255,43.4206614 121.308239,44.7626684 C120.780005,45.3247267 120.344068,45.9693192 120.282262,46.759172 C120.245178,47.2230145 120.278141,47.7000625 120.344068,48.1597783 C120.377031,48.3900489 120.419883,48.6194941 120.502291,48.8382099 C120.593763,49.0800352 120.777533,49.2979257 120.839339,49.5488298 C121.012395,50.2561484 120.349836,51.0493026 120.028446,51.6361211 C119.521637,52.5605048 119.014829,53.4857138 118.489891,54.4010186 C117.502646,56.1226832 116.376955,57.7552107 115.179569,59.3365671 C112.83177,62.4365537 110.223562,65.3409341 107.364834,67.9754275 C106.078448,69.1614447 104.593459,70.4638353 102.807681,70.7394997 C101.916029,70.8773319 100.993061,70.7774655 100.128603,70.5315134 C99.7676564,70.4291709 99.4001175,70.3177497 99.1850331,69.9867873 C98.9386336,69.605479 98.9790135,69.0896399 99.0095044,68.6588111 C99.1430051,66.7943623 99.9885094,64.943119 100.690624,63.2354853 C101.455369,61.3784645 102.329716,59.5618856 103.373823,57.8451731 C105.354907,54.5875461 107.911198,51.6765629 110.769102,49.1625695 C111.407762,48.6005112 112.060433,48.0640386 112.767492,47.5886413 C113.588274,47.0364871 114.451084,46.5388055 115.196875,45.8834836 C115.871795,45.2908876 116.463483,44.6141067 117.095551,43.9769423 C117.664165,43.4025039 118.782439,42.6894079 118.459401,41.7518188 C118.235251,41.0989728 117.596591,40.6466851 117.080718,40.2381405 C116.773336,39.9946645 116.616761,39.7941062 116.208019,39.8865446 C115.743238,39.9913631 115.255384,40.2389659 114.830984,40.4510789 C113.116901,41.3061338 111.776125,42.6357606 110.412276,43.9505313 C108.98662,45.325552 107.506576,46.6419734 106.089985,48.0260728 C105.46451,48.636001 104.827497,49.2451038 104.231689,49.8847442 C103.581491,50.582984 103.100229,51.4198814 102.502772,52.1626897 C100.129427,55.1157653 97.9868232,58.228132 96.511723,61.7374885 C94.7926957,65.8245848 93.2022246,71.6886436 96.9938088,75.1418768 C99.7758972,77.6765038 104.308328,77.9695004 107.713419,76.6869181 C110.293609,75.7146646 112.532629,73.9542089 114.587881,72.1566128 C115.588312,71.2817497 116.568965,70.407712 117.453201,69.4131742 C118.409132,68.3377529 119.324683,67.2309685 120.186669,66.077965 C121.857075,63.842112 123.438482,61.5030913 124.760303,59.0419198 C126.054106,56.6335702 127.151779,54.1525905 127.23089,51.3744875 C127.266325,50.132347 127.143538,48.7994188 126.599646,47.6653981 C126.366432,47.1776207 126.044217,46.7789802 125.665965,46.3993227 C125.255574,45.9874767 125.01824,45.6375315 125.377538,45.1002335 C126.110968,44.0041786 127.31989,43.1648052 128.416739,42.4690414 C129.543254,41.7551201 130.697787,41.0907194 131.815238,40.3611166 C134.149027,38.8367089 136.542151,37.4237225 139.043228,36.1898353 C140.282642,35.5799072 141.537713,34.9683284 142.862831,34.5672119 C143.433918,34.39389 144.015717,34.2750406 144.604933,34.1801262 C144.957638,34.124003 145.4834,34.0175338 145.703429,34.3897633 C145.946532,34.8024345 145.679531,35.6112702 145.575697,36.042099 C145.411706,36.7213559 145.175195,37.384106 144.91561,38.0319999 C144.380784,39.3698802 143.750364,40.6747467 143.107583,41.9631065 C141.830261,44.5224937 140.514208,47.0670248 139.158599,49.5843195 C137.762611,52.1750698 136.285862,54.7179502 134.922013,57.3260326 C133.549922,59.9514473 132.220684,62.5983208 130.884853,65.2427183 C129.608356,67.7707426 128.302192,70.287212 127.143538,72.8730102 C126.555146,74.1861302 126.138986,75.4918221 125.890115,76.9089352 C125.785457,77.5064832 125.57202,78.0982538 125.512687,78.7007539 C125.44676,79.368456 125.659373,80.0724732 125.786281,80.7220178 C125.994773,81.7924871 125.999717,83.1089084 126.676285,84.0192613 C127.037232,84.5037373 127.480586,84.6060798 128.034366,84.7455627 C128.708462,84.9164086 129.171594,85.0385593 129.775644,84.5953504 C130.261026,84.2388024 130.631037,83.7501996 131.071919,83.3441311 C131.604274,82.8522269 132.188545,82.4197474 132.723372,81.9286686 C133.698257,81.0331719 134.5759,80.0353328 135.411515,79.0110827 C137.151969,76.8775722 138.777875,74.6565754 140.307365,72.3679005 C141.066341,71.2322292 141.904428,70.1535065 142.693071,69.0384687 C143.485835,67.9176535 144.164051,66.7258589 144.899129,65.5687286 C146.429442,63.1587284 148.389925,60.9913789 150.23174,58.8174266 C151.174485,57.7048649 152.126296,56.5989058 153.079754,55.4945975 C153.996129,54.430731 154.837513,53.3115665 155.81075,52.2972205 C156.77657,51.2886519 157.707778,50.2478949 158.677718,49.2426277 C159.570195,48.3165934 160.53107,47.47722 161.463103,46.5949288 C161.823225,46.2548877 162.885462,45.1967986 163.400511,45.8735794 C163.717781,46.2912028 163.524947,47.0637234 163.429354,47.5217885 C163.302446,48.1275899 163.108787,48.7135832 162.925018,49.3037031 C162.56984,50.4451518 162.237736,51.5907273 161.844651,52.7197959 C160.894489,55.4442516 159.799289,58.1158854 158.812867,60.8263104 C158.34067,62.1212728 157.85364,63.4104579 157.379795,64.704595 C156.910894,65.9847013 156.432929,67.2689343 155.769546,68.463205 C155.491007,68.9650132 155.145719,69.4065715 154.835041,69.8860955 C154.477391,70.4374243 154.472447,70.9829757 154.624077,71.6094107 C154.762522,72.1846745 154.952884,72.7393047 155.060014,73.3228219 C155.168793,73.9137671 155.279219,74.5137912 155.547045,75.0585172 C155.762953,75.4984248 156.088464,75.9630927 156.6373,75.9053187 C157.11609,75.8541475 157.538018,75.4563323 157.854464,75.1245446 C158.756006,74.1762261 159.435046,73.0157944 160.130568,71.9164382 C160.90273,70.6965819 161.721039,69.5072633 162.517923,68.3047392 C163.293381,67.1327528 164.010329,65.926102 164.770129,64.7450368 C165.566189,63.5053723 166.4051,62.2871667 167.238244,61.0714371 C167.981562,59.986937 168.875687,59.0130328 169.590163,57.9112005 C170.346667,56.7449915 171.295181,55.7157893 172.19013,54.6552241 C173.0892,53.5888816 173.958602,52.5010801 174.882394,51.4545457 C175.751797,50.4682614 176.480282,49.3713812 177.325786,48.3644633 C177.732057,47.8808125 178.097123,47.3674495 178.487737,46.8714186 C178.927794,46.3118363 179.418945,45.7992986 179.875484,45.2529219 C180.168032,44.9021513 180.407839,44.4952574 180.8001,44.2435279 C181.128083,44.0314149 181.791466,43.747497 182.057644,44.1964834 C182.294978,44.5975999 181.911782,45.3635178 181.778281,45.7514288 C181.534354,46.4620487 181.297844,47.1751446 181.058037,47.8865899 C180.124356,50.6572648 179.209629,53.4345425 178.257819,56.1986147 C177.818585,57.4729436 177.390064,58.7522245 177.084331,60.0661699 C176.763765,61.4453173 176.648394,62.827766 176.622847,64.2407525 C176.598949,65.5109547 176.467097,66.918989 176.868423,68.1446227 C177.236786,69.2695646 178.043558,70.0750989 179.076128,70.6132223 C179.617548,70.8954894 180.16556,71.0976984 180.775378,70.9334552 C181.353057,70.7782908 181.902717,70.441551 182.388923,70.1015099 C183.311067,69.4577427 184.070867,68.6183693 184.818306,67.7864241 C185.216336,67.3432151 185.612718,66.8967048 186.032997,66.4749548 C186.477176,66.0284444 186.973271,65.6430095 187.426514,65.2064033 C188.39975,64.2688141 189.326838,63.2850058 190.309964,62.3556701 C192.387465,60.3921802 194.525949,58.4872896 196.387541,56.3083853 C196.796284,55.8296866 197.138277,55.300642 197.563501,54.8343235 C198.015096,54.3382926 198.509543,53.8810528 198.987508,53.4106076 C199.407788,52.997111 199.823948,52.5770116 200.199728,52.1230732 C200.588693,51.6534533 200.885361,50.9940046 201.357558,50.609395 C201.265261,50.997306 200.972713,51.3720115 200.791416,51.7269088 C200.623304,52.0537444 200.459312,52.3838815 200.299441,52.7148438 C199.886578,53.5698987 199.500085,54.4373337 199.130074,55.3113715 C198.399117,57.0379881 197.7209,58.7868889 197.0501,60.5374405 C196.382597,62.2789132 195.732399,64.0269888 195.101155,65.781667 C194.502874,67.4480336 193.976288,69.1276057 193.88564,70.9086949 C193.790047,72.7599382 194.113085,74.5822946 194.79295,76.3023085 C195.037701,76.9213154 195.301406,77.8943942 195.895567,78.264973 C196.537524,78.6660895 197.273426,78.5134011 197.843688,78.0726682 C198.438672,77.6146031 198.776544,77.0773051 199.163861,76.4467434 C199.603095,75.7319968 200.100838,75.0543905 200.491451,74.3107569 C201.336956,72.7071163 202.143728,71.1199826 203.135919,69.5972256 C204.126461,68.0761193 205.218365,66.6218657 206.175119,65.0784752 C207.113745,63.5623209 207.970786,61.9958208 208.960504,60.5118549 C210.916866,57.5752861 213.27373,54.8434022 215.797882,52.3847068 C216.405228,51.7937615 217.026583,51.2143711 217.66854,50.6622169 C218.388784,50.0423847 219.185668,49.5215935 219.919097,48.9182681 C221.263993,47.8131344 222.497638,46.578422 223.867257,45.503826 C225.259125,44.4110725 226.780373,43.4998943 228.286789,42.578812 C229.012802,42.1347777 229.724805,41.6610311 230.47142,41.2516612 C231.301267,40.7968974 232.17067,40.4172399 233.000516,39.9633015 C234.267949,39.2691884 235.578233,38.1962431 237.120908,38.6534829 C238.8935,39.1800514 237.954875,40.9438084 237.522234,42.1149695 C236.251505,45.5541719 234.830794,48.8976345 233.110119,52.1387547 C232.271207,53.7192857 231.373786,55.2651523 230.461531,56.8052415 C230.057733,57.4861491 229.635805,58.0217964 228.943579,58.4220875 C228.135982,58.8892314 227.302015,59.3159335 226.48865,59.7706972 C223.307707,61.5468344 220.149015,63.3394784 217.110639,65.3557903 C214.805692,66.8859753 212.496624,68.4112084 210.222168,69.9867873 C208.788272,70.978849 207.351079,72.140106 205.864442,73.1247397 C204.478342,74.0425206 202.635703,74.6326405 201.514133,75.8904625 C201.04688,76.4162057 201.224881,77.2696099 201.57017,77.8151613 C202.273933,78.9301991 203.699588,79.2248464 204.889557,79.4873053 C206.447889,79.8306478 207.980675,80.3118225 209.559609,80.5552986 C212.800709,81.0538055 215.954457,80.0452369 218.860157,78.6660895 C225.034976,75.7344728 229.835232,70.5802086 233.803993,65.1197423 C234.856341,63.6712661 235.824633,62.1509852 236.729471,60.6059439 C237.083824,60.0009678 237.407687,59.3910397 237.702707,58.7547006 C237.989486,58.131567 238.291923,57.447358 238.831695,56.9975463 C239.401957,56.522149 240.120553,56.1457928 240.746853,55.7405496 C241.498412,55.2552482 242.311777,54.9490461 243.089707,54.5182173 C244.651336,53.652433 246.165991,52.7074157 247.749046,51.8787718 C248.490716,51.4900355 249.249692,51.1351382 249.983946,50.7315457 C250.27155,50.5739053 251.739233,49.5818435 251.968327,50.1364737 C252.081226,50.4071861 251.784557,50.9238505 251.696381,51.1648505 C251.561232,51.5337786 251.416194,51.89858 251.265388,52.2600801 C250.897849,53.1324671 250.489106,53.9858713 250.058937,54.8277207 C248.367105,58.1406457 246.506336,61.3693858 244.733743,64.6393929 C243.864341,66.2405575 243.022133,67.8499754 242.101637,69.4230783 C241.677237,70.1493798 241.539616,70.8344141 241.610487,71.6696607 C241.812386,74.0664555 241.77695,80.563552 246.098417,78.3821717 C247.116978,77.8679833 247.992149,77.1243496 248.875561,76.4137297 C249.49362,75.9168735 250.145466,75.4604591 250.728913,74.9215104 C251.425259,74.2777432 252.032605,73.5324589 252.703405,72.86063 C253.947763,71.6102361 255.259696,70.4316469 256.539489,69.217568 C257.859663,67.9671741 259.155114,66.6887185 260.471991,65.4350231 C262.987902,63.0398791 265.4486,60.5795329 268.126854,58.3643135 C269.456917,57.2649573 270.85785,56.2894024 272.262903,55.2940393 C272.932879,54.8194673 273.590493,54.3242618 274.179709,53.7506487 C274.365951,53.5698987 274.714536,53.1671315 275.021917,53.3379774 C275.346604,53.5187275 275.061473,53.9528576 274.931269,54.1690974 C274.04044,55.6514126 272.983148,57.0091011 272.170606,58.5450636 C271.406686,59.986937 270.775442,61.5014406 270.322199,63.0704168 C269.866483,64.644345 269.485759,66.3272184 269.383574,67.9655234 C269.334129,68.7438214 269.370388,69.5361503 269.583001,70.289688 C269.838465,71.1983901 270.422736,71.605284 271.288019,71.9180889 C274.424461,73.0529349 277.656496,70.64376 279.885628,68.6678899 C282.576243,66.2826499 284.989144,63.5887319 287.717668,61.242283 C287.996206,61.0029337 288.282985,60.7726631 288.582126,60.558074 C288.862313,60.3575158 289.236444,60.0323308 289.576788,59.953098 C289.885818,59.8821185 289.916309,60.0315055 289.882521,60.3187247 C289.833901,60.7272693 289.726771,61.1382898 289.671557,61.5493104 C289.42763,63.3444305 288.492301,64.9794341 288.013512,66.7151294 C287.57675,68.2981364 287.42512,69.9265373 287.637732,71.5582395 C287.84952,73.1874657 288.259087,74.9512227 288.907637,76.4632503 C289.546298,77.9521682 290.733794,79.0581272 292.101764,79.8842951 C293.680698,80.8367404 295.524162,80.8491205 297.269559,80.3596924 C298.876512,79.9107061 300.285686,78.9409286 301.709693,78.1023806 C306.124281,75.5042022 310.473766,72.8218389 315.093549,70.5958901 C318.40552,68.9996776 321.781769,67.600722 325.201694,66.2578897 C328.685897,64.8894717 332.098405,63.3303997 335.645238,62.1278756 C339.116256,60.9517624 342.674626,60.1709884 346.269255,59.4793513 C349.957006,58.7695567 353.706562,58.3296492 357.466007,58.3279985 C359.257554,58.3271731 361.050748,58.4270396 362.829933,58.6465807 C363.720762,58.7571766 364.608294,58.8966595 365.48841,59.0683307 C366.382535,59.242478 367.330225,59.3992931 368.185618,59.7253034 C368.35785,59.7913308 368.680889,60.0083959 368.870427,59.9134815 C368.985798,59.8548822 369.012993,59.7781253 368.994863,59.6964164 M110.151043,27.9851051 C110.700703,27.351242 111.300632,26.7503926 111.804968,26.1058001 C112.776557,24.8628342 113.664089,23.5505396 114.755169,22.4057895 C116.311852,20.7732619 117.595766,18.9046864 119.084052,17.2135595 C121.529916,14.4354565 124.109281,11.8892747 127.009213,9.58409302 C127.977505,8.81404842 128.963927,7.90452093 130.150599,7.48854829 C130.632685,7.31935307 131.460884,7.1220962 131.778978,7.68828119 C132.114378,8.28252782 131.413912,9.06990461 131.092521,9.51889095 C129.458374,11.8034391 127.792911,14.0714804 125.883522,16.1356622 C121.543926,20.8252585 116.697521,25.0386322 111.558569,28.8277798 C111.311345,29.0101805 108.85312,30.8878348 108.814388,30.0897286 C108.805323,29.9131053 108.966843,29.6778827 109.045954,29.529321 C109.34015,28.9730401 109.730763,28.4695812 110.151043,27.9851051 M5.06540166,52.4688917 C4.06909099,54.5751659 3.43537477,56.8176216 2.76539911,59.0344917 C2.20997033,60.8725295 1.47818879,62.7708174 1.13207591,64.6641532 C0.79914827,66.4873349 0.168728367,68.8634961 0.0335795248,70.7172154 C-0.213643967,74.0986439 0.929352643,77.9934353 2.63437066,80.8565486 C2.86264035,81.2403329 3.05547467,81.640624 3.27055911,82.0326618 C3.4683379,82.3949871 3.75676531,82.6904598 4.03530378,82.9908845 C4.29571252,83.2715009 4.51079696,83.5785283 4.75142782,83.8748263 C5.08600361,84.2858469 5.58539507,84.5425284 5.95375807,84.924662 C6.23806509,85.218484 6.51742763,85.5048779 6.84211448,85.755782 C7.7757952,86.4787821 8.99378294,87.011128 10.0659088,87.4947787 C10.6378192,87.753111 11.2789521,87.8818644 11.8945386,87.9850322 C12.5109491,88.0890254 13.1397209,88.1401966 13.7651963,88.0981041 C16.6939706,87.9041486 19.0186955,86.5613163 21.4118189,85.0162751 C23.1160129,83.9169188 24.474918,82.5303433 26.0530279,81.2923295 C26.5804381,80.8780075 27.1399872,80.5123808 27.6550362,80.0799013 C28.6340412,79.2586855 30.0976043,78.0693669 31.0906186,77.2679592 C33.8644662,75.0321063 35.6922719,73.7115582 37.5802353,71.8000649 C39.229216,70.1312222 41.4913109,68.4599036 43.2457736,66.9000062 C43.7039612,66.4922869 49.8680669,61.297581 49.8680669,61.297581 C49.0200903,62.7889749 48.3896704,64.3695059 48.0419094,66.0639342 C47.5367494,68.530883 47.8886308,70.5777326 48.4597171,72.9885581 C48.6780978,73.9121164 48.8832933,74.8472295 49.4263609,75.6453358 C50.1235312,76.6712366 51.9150774,77.4998805 53.1091669,77.6146031 C55.7379766,77.8679833 58.8365111,76.1537468 60.8991791,74.6359419 C63.171163,72.9646232 65.1052747,70.8195579 66.8910524,68.6505577 C68.1296421,67.1451329 69.4555841,65.7321465 70.5211174,64.0938415 C71.149065,63.1298414 71.7860776,62.1707934 72.3728213,61.1803823 C73.1573439,59.8565329 73.8701716,58.4922416 74.6571664,57.1692175 C75.3015956,56.0838921 75.547995,54.8318474 76.0721088,53.6937001 C76.7733995,52.1692924 78.2369625,51.3662341 79.6766273,50.6622169 C81.3272562,49.8542066 82.850977,48.9207441 84.3277253,47.8213879 C86.2659575,46.3786891 88.491793,45.3948808 90.4341455,43.949706 C90.712684,43.742545 91.0134726,43.5609696 91.322502,43.4008532 C91.4040857,43.3579354 91.5631328,43.41736 91.6620222,43.4734833 C91.7155873,43.5048463 91.754319,43.6385518 91.7345411,43.7070553 C91.6513092,43.9992265 91.5787903,44.3029526 91.4378729,44.5687129 C90.986278,45.419641 90.5149052,46.2606651 90.0344676,47.0967371 C88.8782857,49.1097476 87.6635943,51.091395 86.5618016,53.1341178 C81.9832225,61.6244166 77.5752277,70.169188 73.3015576,78.8171272 C72.8268885,79.7761752 72.5887298,80.9522884 72.0102269,81.8197234 C71.4770482,82.6203057 70.959527,83.276453 70.2203288,83.8657476 C70.1140227,83.9499325 70.001124,84.0464976 69.9772257,84.1802031 C69.9525033,84.3205113 69.8025211,84.505388 69.7712061,84.6448709 C69.5239826,85.7401005 69.3064259,85.8506964 69.7588449,86.7858095 C70.2549401,87.8125356 70.5788028,89.0249638 71.2026301,90.0269297 C71.917106,91.1758065 73.0699916,92.0027997 74.1907381,92.7241491 C74.4964711,92.921406 74.8293987,93.0031149 75.1878728,92.9999095 C75.7721443,92.9948615 76.3555918,92.8735361 76.789057,92.5029573 C77.484579,91.9103614 78.1594992,91.2624675 78.4487507,90.3496386 C78.778382,89.3088817 79.1895971,88.2994877 79.4648392,87.2339705 C80.3531956,83.8005455 81.9288333,80.6493877 83.251479,77.3785551 C83.4995266,76.7636749 83.6470366,76.1149557 83.8711859,75.4918221 C84.3656329,74.1159761 85.082581,72.8045067 85.7105287,71.4864347 C86.3491894,70.142777 86.9845538,68.7966433 87.5770661,67.4323521 C89.8548185,62.1906016 92.5355452,57.0825566 95.4420694,52.1626897 C95.469264,52.1172958 95.4972826,52.0710766 95.5236532,52.0240321 C96.2925182,50.7109121 96.9789754,49.3499223 97.7775073,48.0533091 C98.7334381,46.5008398 99.7478785,44.9846855 100.665078,43.4082813 C100.89582,43.0112915 101.189191,42.6530928 101.44548,42.2726099 C102.194567,41.1608735 102.825811,39.9781576 103.513092,38.8292808 C104.151753,37.7621129 104.973359,36.7642738 105.476047,35.622825 C105.586473,35.3719209 105.756233,35.1853935 105.981207,35.0368318 C107.643373,33.9407769 109.317076,32.8876398 111.011381,31.8468829 C112.75101,30.7788896 114.598594,29.8842183 116.285482,28.7303894 C118.247612,27.3875571 120.302864,25.9952042 122.106771,24.4427349 C122.740487,23.8963581 123.348657,23.3210944 123.983197,22.7755429 C125.736836,21.2668168 127.670948,20.0428338 129.303447,18.3855459 C131.042252,16.6201382 132.582455,14.6739805 134.177046,12.78147 C134.865151,11.9652063 135.452719,11.0713603 136.061713,10.1973225 C136.820689,9.10787037 137.404137,8.04317848 137.73212,6.74821602 C137.820296,6.39579476 137.876334,6.059055 137.884117,5.69590428 C137.902704,4.62048294 137.184108,4.36545209 136.311409,3.90903766 C136.122695,3.80999656 135.910907,3.72333559 135.701591,3.700226 C133.84247,3.49884242 131.849025,3.28260267 129.942108,3.54010955 C129.595995,3.58715407 129.245761,3.61356503 128.896352,3.63337325 C126.2832,3.78028423 123.646973,4.85322954 121.588426,6.45852079 C120.982728,6.93061673 120.456142,7.49515103 119.899065,8.02171957 C118.814578,9.04679502 117.705369,10.0041924 116.699169,11.1109767 C115.086448,12.8862885 113.412745,14.6054771 111.7992,16.3783129 C108.486405,20.0164228 105.392815,24.0077794 102.538208,28.0148174 C101.85175,28.9779922 101.205673,29.9725299 100.474716,30.900215 C99.8212215,31.7296842 99.247663,32.6028966 98.6864657,33.4926159 C97.753609,34.9757565 96.7836689,36.4349621 95.8186732,37.8974691 C95.6266629,38.1896403 95.3926247,38.45375 95.1734199,38.7269383 C94.785279,39.2089384 94.3386285,39.6207843 93.7873202,39.9170823 C92.66987,40.5179317 91.5639569,41.1402399 90.4432104,41.7344866 C86.3063373,43.9265964 82.1941866,46.4133535 77.8603588,48.195268 C77.2299389,48.4552509 76.5904541,48.6946003 75.9443767,48.913316 C75.6015601,49.0296893 75.2612158,49.146888 74.8986213,49.1873298 C74.0349873,49.2855455 73.1029547,49.2558332 72.2384966,49.1840284 C71.4622148,49.1196517 70.7856465,49.3094805 70.1057819,49.6610764 C69.6797334,49.8806175 69.4836028,50.2124052 69.3509262,50.6663436 C69.2404997,51.0418745 69.0674432,51.3505526 68.854831,51.6749122 C68.1337625,52.7792205 67.6178895,54.0155837 66.9380249,55.1471283 C66.5548285,55.7834674 66.0933446,56.3735873 65.7274539,57.0190052 C64.708069,58.8166013 63.3944882,60.4070364 62.1995746,62.080831 C61.4883951,63.0770195 60.7483727,64.0558758 59.8311736,64.8820436 C58.2052671,66.347852 56.6024348,67.839246 55.0712973,69.4049208 C54.321386,70.171664 53.3901776,70.651188 52.4260059,71.0770648 C52.1870232,71.1818833 51.9208459,71.2867018 51.6777428,71.1084278 C50.900637,70.5372908 51.8425585,69.0599276 52.1548842,68.4731091 C52.8207394,67.2227151 53.4379741,65.9467355 54.1038294,64.6955162 C55.4240028,62.2161872 56.6642407,59.6914644 58.4491943,57.5018306 C59.645756,56.0335462 60.5786126,54.1567172 61.9539993,52.8576281 C63.0632087,51.8110937 64.1411031,50.7142135 65.3928781,49.8343983 C66.4279204,49.1072715 69.4885473,48.24809 68.6636449,46.3836411 C68.2211148,45.3841513 67.2824896,44.8014595 66.254864,44.54973 C65.4101837,44.3433944 64.3372338,45.3825006 63.6606655,45.7563808 C63.2115428,46.0048089 62.7632442,46.2491103 62.3338994,46.5322028 C61.4430708,47.1165453 60.7178818,47.9138262 59.8435348,48.5212783 C59.4751718,48.7763092 59.0590122,48.9463297 58.6922974,49.2005353 C56.5908977,50.6547888 54.4878499,52.1280253 52.4095244,53.6185939 C51.6645576,54.1534159 50.9138223,54.6816351 50.1663832,55.213981 C49.5969451,55.6192242 49.0332756,56.0335462 48.458893,56.430536 C47.9545571,56.7796559 47.427971,57.0949367 46.9302277,57.45231 C45.365303,58.5747759 43.8127395,59.7153993 42.2494629,60.8411665 C40.9713175,61.7614235 39.693172,62.6833311 38.3977209,63.5804784 C37.1022699,64.4768004 35.7788001,65.3318553 34.4800527,66.2240506 C31.3411384,68.37902 28.2805116,70.648712 25.0740229,72.7079417 C22.7138626,74.2232706 20.3124985,75.6535892 17.7660965,76.8363051 C16.7368227,77.3150038 15.7536973,77.8968703 14.7227753,78.3722676 C13.8533727,78.773384 12.983146,79.2033875 11.9052516,79.3445211 C11.2270351,79.4518156 10.7787365,79.3296649 10.4029568,79.1076478 C9.91922288,78.8220793 10.1252425,77.9208052 10.246382,77.3983634 C10.3634011,76.8883017 10.5026703,76.383192 10.6444118,75.8789077 C10.7037454,75.6692707 10.7993385,75.4695378 10.8710333,75.2632022 C12.4186524,70.8137805 13.8616135,66.3255678 15.5872335,61.9396975 C17.5040396,57.0693511 19.9268298,52.1338027 22.6504086,47.6695248 C24.6240762,44.4333567 26.9191342,41.207918 29.3798321,38.3216951 C30.6868202,36.789034 31.9493082,35.2159311 33.336232,33.7534242 C35.1203615,31.8708178 37.0635382,30.1227423 38.8855753,28.273975 C39.9577012,27.1853482 41.1847538,26.2815981 42.3170374,25.2606493 C43.4855804,24.2066869 44.6434104,23.1477724 45.8663426,22.1557107 C47.5993793,20.751803 49.2788509,19.2744399 51.1239622,18.0166178 C52.6287292,16.9923677 54.3040804,16.3122855 56.0140429,15.7180388 C58.0519885,15.0098949 60.2728796,14.1457613 62.4500944,14.7334052 C63.4464051,15.0024668 64.2919095,15.5125285 65.05583,16.1827067 C65.2033401,16.3114601 65.1654325,16.6490252 65.002265,16.7695252 C64.8605235,16.872693 64.7179579,16.9758609 64.5655035,17.0608711 C63.5197481,17.6427376 62.6470492,18.4309398 61.8361561,19.3016762 C60.9115402,20.2937379 60.0940546,21.380714 59.3375507,22.5056559 C58.4623795,23.8088718 57.6209956,24.6754815 57.9885345,26.3228652 C58.0651738,26.664557 58.1080259,27.0153276 58.214332,27.3495913 C58.6214266,28.6288723 61.0862449,28.4695812 62.1418892,28.3721907 C62.9915139,28.2946085 63.75049,27.7779441 64.4797993,27.377653 C66.2804104,26.3905433 68.127994,24.6556733 69.1638604,22.8828375 C69.6311128,22.0830805 69.9096513,21.1875839 70.0233741,20.2689776 C70.3892648,17.3109499 69.0501376,14.8827922 66.5292821,13.4153331 C64.3899748,12.1698912 61.919388,11.7134768 59.5007182,11.374261 C58.1434612,11.1836069 56.7680745,11.1538945 55.4009286,11.2405555 C54.0758107,11.3255658 52.7482206,11.5054905 51.447825,11.7778535 C50.8355348,11.9057816 47.722167,12.9787269 47.1428399,13.2180762 C46.1720757,13.6200181 41.113883,16.1777546 38.3359151,17.583313 C37.6354485,17.9382103 36.9514635,18.3269466 36.2748952,18.7264124 C35.7491333,19.0383919 35.2563344,19.4064947 34.7330447,19.7226009 C30.9101455,22.0319093 26.8655691,24.0696801 23.4835518,26.9930434 C14.8702853,34.4384585 9.38769237,43.3381271 5.06540166,52.4688917" id="Fill-1"></path>
        </g>
    </g>
</svg>