<?xml version="1.0" encoding="UTF-8"?>
<svg width="48px" height="48px" viewBox="0 0 48 48" version="1.1" xmlns="http://www.w3.org/2000/svg" xmlns:xlink="http://www.w3.org/1999/xlink">
    <title>Vertuo - 80ml</title>
    <g id="Vertuo---80ml" stroke="none" stroke-width="1" fill="none" fill-rule="evenodd">
        <path d="M33.4386941,15 L34.8679404,16.4257895 L34.8679404,19.2773684 L36.4115264,19.2773684 C39.4986983,19.2773684 42.0141718,21.7867579 41.9999399,24.8664632 C41.9999399,27.8728421 39.6027672,30.3357398 36.6167478,30.4513164 L36.3972339,30.4555579 L34.8536479,30.4555579 L34.8536479,36.9286421 C34.8536479,39.7071036 32.6554841,41.9711936 29.8985594,42.085474 L29.6797764,42.09 L17.1738715,42.09 C14.3886736,42.09 12.1190945,39.8971527 12.0045369,37.1468959 L12,36.9286421 L12,16.4257895 L13.4292463,15 L33.4386941,15 Z M36.4115264,22.1289474 L34.8679404,22.1289474 L34.8679404,27.5897211 L36.4115264,27.5897211 C37.9265274,27.5897211 39.1556792,26.3778 39.1556792,24.8664632 C39.1556792,23.3551263 37.9265274,22.1289474 36.4115264,22.1289474 Z M14.8584925,22.1637939 L32.0094478,22.1637939 L32.0094478,17.8515789 L14.8584925,17.8515789 L14.8584925,22.1637939 Z" id="Combined-Shape" fill="#000000"></path>
    </g>
</svg>