<?xml version="1.0" encoding="UTF-8"?>
<svg width="48px" height="48px" viewBox="0 0 48 48" version="1.1" xmlns="http://www.w3.org/2000/svg" xmlns:xlink="http://www.w3.org/1999/xlink">
    <title>Vertuo - 150ml</title>
    <g id="Vertuo---150ml" stroke="none" stroke-width="1" fill="none" fill-rule="evenodd">
        <path d="M35.3333333,12 L36.6666667,13.3298587 L36.6666667,17.3194346 L39.4266667,17.3194346 C43.0533333,17.3194346 46,20.2584222 46,23.8756378 L46,23.8756378 L46,24.061818 C46,27.6790335 43.0533333,30.6180211 39.4266667,30.6180211 L39.4266667,30.6180211 L36.6666667,30.6180211 L36.6666667,36.9082526 C36.6666667,40.0334204 34.1066667,42.586749 30.9733333,42.586749 L30.9733333,42.586749 L15.6933333,42.586749 C12.56,42.586749 10,40.0334204 10,36.9082526 L10,36.9082526 L10,13.3298587 L11.3333333,12 L35.3333333,12 Z M39.4266667,19.9791519 L36.6666667,19.9791519 L36.6666667,27.9583038 L39.4266667,27.9583038 C41.5866667,27.9583038 43.3333333,26.216189 43.3333333,24.061818 L43.3333333,24.061818 L43.3333333,23.8756378 C43.3333333,21.7212667 41.5866667,19.9791519 39.4266667,19.9791519 L39.4266667,19.9791519 Z M34,14.6597173 L12.6666667,14.6597173 L12.666,19.621 L33.999,19.621 L34,14.6597173 Z" id="Combined-Shape" fill="#000000"></path>
    </g>
</svg>