<?xml version="1.0" encoding="UTF-8"?>
<svg width="48px" height="48px" viewBox="0 0 48 48" version="1.1" xmlns="http://www.w3.org/2000/svg" xmlns:xlink="http://www.w3.org/1999/xlink">
    <title>Vertuo - 40ml</title>
    <g id="Vertuo---40ml" stroke="none" stroke-width="1" fill="none" fill-rule="evenodd">
        <path d="M33.4387804,15 L34.8680324,16.4255274 L34.8680324,19.2765821 L36.4116246,19.2765821 C39.498809,19.2765821 42,21.7855103 42,24.8646495 C42,27.9437886 39.4845164,30.4527168 36.3973321,30.4527168 L36.3973321,30.4527168 L34.8537399,30.4527168 L34.8537399,36.9246111 C34.8537399,39.7756658 32.5383516,42.0850202 29.6798475,42.0850202 L29.6798475,42.0850202 L17.1738923,42.0850202 C14.3153883,42.0850202 12,39.7756658 12,36.9246111 L12,36.9246111 L12,16.4255274 L13.429252,15 L33.4387804,15 Z M36.4116246,22.1276369 L34.8680324,22.1276369 L34.8680324,27.5874068 L36.4116246,27.5874068 C37.9266317,27.5874068 39.1557885,26.3757085 39.1557885,24.8646495 C39.1557885,23.3535904 37.9266317,22.1276369 36.4116246,22.1276369 L36.4116246,22.1276369 Z M32.0095283,17.8510548 L14.858504,17.8510548 L14.858504,24.9786916 L32.0095283,24.9786916 L32.0095283,17.8510548 Z" id="Combined-Shape" fill="#000000"></path>
    </g>
</svg>