<?xml version="1.0" encoding="UTF-8"?>
<svg width="48px" height="48px" viewBox="0 0 48 48" version="1.1" xmlns="http://www.w3.org/2000/svg" xmlns:xlink="http://www.w3.org/1999/xlink">
    <title>Vertuo - 230ml</title>
    <g id="Vertuo---230ml" stroke="none" stroke-width="1" fill="none" fill-rule="evenodd">
        <g id="_brand-icons/Products/Ristretto-Copy-4" transform="translate(10.000000, 12.000000)" fill="#000000">
            <path d="M28.322357,5.31717494 L25.6659329,5.31717494 L25.6659329,1.32929373 L24.3826363,0 L1.28329665,0 L-7.44132029e-13,1.32929373 L-7.44132029e-13,24.8976717 C-7.44132029e-13,28.0215119 2.46392956,30.5737559 5.47967668,30.5737559 L20.1862562,30.5737559 C23.2020034,30.5737559 25.6659329,28.0215119 25.6659329,24.8976717 L25.6659329,18.6101123 L28.322357,18.6101123 C31.8129239,18.6101123 34.6490095,15.6723731 34.6490095,12.0566942 L34.6490095,11.8705931 C34.6490095,8.25491409 31.8129239,5.31717494 28.322357,5.31717494 Z M23.0993396,2.65858747 L23.0993396,5.31717494 L2.56659329,5.31717494 L2.56659329,2.65858747 L23.0993396,2.65858747 Z M32.0824162,12.0566942 C32.0824162,14.21015 30.4012976,15.9515248 28.322357,15.9515248 L25.6659329,15.9515248 L25.6659329,7.97576241 L28.322357,7.97576241 C30.4012976,7.97576241 32.0824162,9.7171372 32.0824162,11.8705931 L32.0824162,12.0566942 Z" id="Shape"></path>
        </g>
    </g>
</svg>