<?xml version="1.0" encoding="UTF-8"?>
<svg width="48px" height="48px" viewBox="0 0 48 48" version="1.1" xmlns="http://www.w3.org/2000/svg" xmlns:xlink="http://www.w3.org/1999/xlink">
    <title>Vertuo - 414ml</title>
    <g id="Vertuo---414ml" stroke="none" stroke-width="1" fill="none" fill-rule="evenodd">
        <g id="_brand-icons/Products/Ristretto-Copy-5" transform="translate(10.000000, 2.000000)" fill="#000000">
            <path d="M25.1579372,3.8693988 L25.1579372,1.2897996 L23.8464865,0 L3.09228896,0 L1.78083836,1.2897996 L1.78083836,3.8693988 L0.469387755,3.8693988 L0.469387755,6.448998 L2.78120216,39.8855393 C2.95169073,42.1942806 4.91886664,44 7.26636322,44 L20.436715,44 C22.7842116,44 24.7513875,42.1942806 24.921876,39.8726413 L26.4693878,6.448998 L26.4693878,3.8693988 L25.1579372,3.8693988 Z M5.48617811,3.29790581 L21.3726809,3.29790581 L21.3726809,4.94685871 L5.48617811,4.94685871 L5.48617811,3.29790581 Z M20.4105987,41.4204008 L7.53175004,41.4204008 C6.54816209,41.4204008 5.73506272,40.5035052 5.66949019,39.3494813 L4.57012986,19.9840131 L22.8891903,19.9840131 L22.285973,39.3178642 C22.207286,40.5035052 21.3810721,41.4204008 20.4105987,41.4204008 Z M23.2493861,13.0448096 L3.8710721,13.0448096 L3.54006744,8.0979509 L23.58794,8.0979509 L23.2493861,13.0448096 Z" id="Shape-Copy"></path>
        </g>
    </g>
</svg>