<svg enable-background="new 0 0 100 100" viewBox="0 0 100 100" xmlns="http://www.w3.org/2000/svg"><g fill="#fff"><path d="m33.8 48.2c-1.1 0-2.2-.3-3.1-.9-1.3-.8-2.3-2.1-2.6-3.7-1.6-7.1 4.8-11.2 6-11.9.1 0 .1-.1.2-.1l.9 1.8s0 0-.1 0c-.3.2-.3.3-.3.4 0 .2 0 .8 1.2 2.2.3.4.7.7 1.1 1.1 1.1 1 2.2 2 2.6 3.8.4 1.5.1 3.1-.7 4.5-.8 1.3-2.1 2.3-3.7 2.6-.6.1-1.1.2-1.5.2zm-.9-13.2c-1.8 1.6-3.8 4.4-2.9 8.1.2 1 .9 1.9 1.7 2.4.9.6 1.9.7 3 .5 1-.2 1.9-.9 2.4-1.7.6-.9.7-1.9.5-3-.3-1.2-1.1-1.9-2-2.8-.4-.4-.8-.8-1.3-1.3s-1.1-1.3-1.4-2.2z"/><path d="m50 97c-25.9 0-47-21.1-47-47s21.1-47 47-47 47 21.1 47 47-21.1 47-47 47zm0-92c-24.8 0-45 20.2-45 45s20.2 45 45 45 45-20.2 45-45-20.2-45-45-45z"/><path d="m71.4 63.3c-.1 0-.1 0-.2 0-.6 0-1.2-.1-1.7-.3-.8-.3-1.6-.7-2.3-1.3-.4-.3-.7-.6-1-1l-17-19.4c-.7-.8-1.3-1.7-1.8-2.6-.5-1-.9-2-1.1-3-.7-2.4-1.4-4.8-2-7.1l-.5-1.8c0-.1-.1-.2-.1-.4 0 0-.1-.1-.1-.1-.1-.1-.2-.1-.3-.1h-.1l-.5.1c-.4.1-.8.1-1.2.1s-.7-.1-.9-.3c-.4-.2-.8-.5-1.1-.9-.2-.2-.4-.5-.5-.8-.1-.4-.2-.7-.2-1.1s.1-.9.3-1.3c.2-.3.4-.6.7-.9l11.2-9.7c.4-.3.9-.6 1.4-.7.4-.1.8-.1 1.2 0 .5.1 1 .3 1.4.7.2.2.5.5.6.8.2.3.3.6.3.9.1.4.1.9 0 1.3-.1.2-.1.5-.2.7l-.2.5v.1.2c0 .1 0 .1.1.1 0 .1.1.1.1.1.1.1.2.1.3.2l.3.1c5.2 2.3 7.4 3.2 8.2 3.5 2 .8 3.8 2.1 5.2 3.8l16.9 19.4c.3.3.6.7.8 1.1.5.8.8 1.6.9 2.4.1.6.1 1.2.1 1.8-.1.5-.2 1.1-.4 1.6-.2.6-.5 1.1-.9 1.6s-.8.9-1.3 1.3l-9.8 8.5c-.4.4-.9.8-1.5 1.1s-1.1.5-1.7.7c-.5.1-.9.1-1.4.1zm-28.2-39.2h.4c.3.1.5.1.7.2s.4.2.6.4.4.4.5.6l.1.1c.1.2.2.5.3.8l.5 1.8c.6 2.3 1.3 4.8 2 7.1.2.9.6 1.8 1 2.6s1 1.6 1.6 2.3l16.9 19.5c.2.3.5.5.8.8.5.4 1.1.7 1.7.9.4.1.8.2 1.2.2.3 0 .7 0 1.1-.1s.8-.3 1.2-.5.8-.5 1.1-.8l9.9-8.6c.4-.3.7-.6 1-1 .2-.3.4-.7.6-1.1.1-.3.2-.7.2-1 0-.4 0-.8 0-1.2-.1-.6-.3-1.2-.7-1.7-.2-.3-.4-.6-.6-.9l-17.2-19.6c-1.2-1.4-2.7-2.5-4.4-3.2-.9-.4-3-1.3-8.3-3.5l-.3-.2c-.2-.1-.5-.2-.8-.4-.2-.2-.4-.4-.6-.7-.1-.1-.2-.3-.2-.5-.1-.2-.1-.5-.1-.8 0-.2 0-.5.1-.8l.2-.6c.1-.1.1-.2.1-.3s0-.3 0-.5c0-.1-.1-.2-.1-.3s-.1-.1-.2-.2-.3-.2-.5-.2c-.1 0-.3 0-.4 0-.2 0-.3.1-.5.2l-11.1 9.8c-.1.1-.2.2-.2.3-.1.1-.1.3-.1.4s0 .3.1.4c0 .1.1.2.1.2.1.1.2.2.4.3.1.1.2.1.4.1h.5l.6-.2c.1 0 .2-.1.4-.1z"/><path d="m42 64h-2v-1.5c0-.9-.7-1.7-1.6-1.7-.4 0-.7.1-1 .3l-1.4-.5c-.6-1.3-2.1-2-3.4-1.4-.6.3-1.1.8-1.4 1.4l-1.5.4c-.3-.2-.6-.3-.9-.3-1 0-1.8.9-1.7 1.9v1.4h-2v-1.3c0-2.1 1.6-3.8 3.7-3.9.4 0 .7.1 1.1.2.5-.7 1.2-1.2 2-1.6 2-.9 4.3-.2 5.6 1.6.4-.1.8-.2 1.2-.2 2 .1 3.6 1.8 3.5 3.8z"/><path d="m27 68h13.5v2h-13.5z"/><path d="m27 64h13.5v2h-13.5z"/><path d="m43 73h-2v-2h2c1.1 0 2-.9 2-2s-.9-2-2-2h-1.9v-2h1.9c2.2 0 4 1.8 4 4s-1.8 4-4 4z"/><path d="m40 64-1.9 16h-9.2l-1.9-16h-2l2 17.1 1 .9h11l1-.9 2-17.1z"/></g></svg>