<?xml version="1.0" encoding="UTF-8"?>
<svg width="728px" height="100px" viewBox="0 0 728 100" version="1.1" xmlns="http://www.w3.org/2000/svg" xmlns:xlink="http://www.w3.org/1999/xlink">
    <title>Script/white/INDIA</title>
    <g id="Script/white/INDIA" stroke="none" stroke-width="1" fill="none" fill-rule="evenodd">
        <g id="logo/Barista-Creations" transform="translate(249.000000, 5.000000)" fill="#FFFFFF">
            <path d="M117.078434,5.02925604 C119.361226,2.78498075 126.621265,-2.2375282 129.534283,1.12829539 C131.10511,2.94528612 129.589369,5.33454349 128.846602,7.0943665 C127.107558,11.2145683 124.684386,14.9917638 122.175328,18.6817343 C118.700792,23.7908789 115.123193,28.8817533 111.742243,34.0474763 C110.137655,36.4974375 108.032557,38.7959337 106.198149,41.0891258 C106.019269,41.3130818 105.851051,41.5276081 105.751542,41.7987128 C105.694539,41.9538846 104.990467,43.8028504 104.288787,45.7396736 L104.01578,46.4984813 C103.655777,47.5067006 103.319485,48.4818155 103.099143,49.1957452 C102.491425,51.1636115 102.038894,53.1768585 101.34529,55.1182038 C100.665902,57.0194727 100.19264,58.9843923 99.5126592,60.8862506 C99.3252472,61.4098389 97.4563259,67.2065595 95.7729922,72.9725139 L95.5447723,73.7580916 C93.9199543,79.3795588 92.5534383,84.7413901 93.1878905,84.8931597 C93.4277791,84.9473806 93.7340074,84.5772638 93.8672789,84.4417115 C94.0621514,84.2425085 94.2617625,84.0468416 94.4601889,83.849996 C94.8564495,83.4580729 95.254487,83.0667392 95.6394935,82.663029 C96.4545227,81.8108173 97.180112,80.8784529 97.9732254,80.0056137 C98.8101704,79.0862152 99.6471153,78.165638 100.459775,77.2250227 C101.271251,76.2849966 102.044225,75.3178601 102.802984,74.3354003 C104.162353,72.5755773 105.688164,70.8717433 107.154743,69.1985559 C109.836165,66.1386092 112.170489,62.5889059 115.145109,59.8047787 C117.503718,57.5964542 118.613129,55.1305803 121.228804,51.8396052 C121.883315,51.0174508 122.880186,50.4157162 124.115168,50.6650147 C124.828911,50.8094074 125.524885,51.2119389 126.168734,51.4812755 C126.607641,51.6651552 127.077349,52.0128764 127.08268,52.5432986 C127.089788,53.2104519 125.641571,54.6679343 125.320535,55.3545363 C124.783895,56.5043738 124.404812,57.7184513 123.95702,58.9036503 C123.621768,59.7906341 123.317316,60.6805647 123.048404,61.5628336 C122.856493,62.1916786 122.527757,62.7721962 122.349469,63.4004519 C121.847184,65.1585068 121.08724,66.8322835 120.454053,68.546726 C119.905566,70.034855 119.467251,71.5630603 119.015905,73.0830146 C118.620829,74.4149637 118.207391,75.7410192 117.819423,77.0747364 C117.437378,78.3884154 117.275676,79.6189949 116.455908,80.7546878 C116.319675,80.9432823 116.204765,81.2079041 115.985015,81.3175247 C113.423833,82.5875912 112.54128,78.9748266 111.959624,76.9992985 C111.789629,76.4211383 111.585871,75.8865906 111.688342,75.2736583 C111.868407,74.1980799 112.482641,73.0081661 112.79183,71.9437855 C113.145106,70.7267613 113.603245,69.5464215 114.080337,68.3735561 L114.656447,66.9678359 C115.135632,65.7956028 116.687504,61.0884004 116.600433,60.9616884 C116.4642,60.7648428 111.197903,66.9707827 110.780319,67.5182963 C109.318479,69.4378353 107.819323,71.356785 106.337344,73.2668943 C103.912988,76.3922598 101.595248,79.6201736 99.3237098,82.8569278 C98.3511241,84.2430978 97.3583996,85.6151233 96.4130605,87.0195634 C96.0576699,87.5458601 95.6697018,88.0415102 95.2882491,88.5489474 C94.3476486,89.8013332 93.5367656,91.1515524 92.6062344,92.4127785 C92.0737408,93.1335634 91.535324,93.9492348 90.8612664,94.5486119 C89.8703189,95.4302915 87.9097472,94.8886715 87.0343016,94.0500151 C86.2056491,93.2579179 85.6316932,92.3514853 85.0529987,91.3772765 C84.7550629,90.8769115 84.4559425,90.3977635 84.2735086,89.8408202 C84.1011442,89.3151128 84.0265121,88.762295 83.9453646,88.2171389 C83.7611538,86.9788977 83.6604598,85.7212077 83.7789233,84.4723581 C84.0176274,81.9310463 84.7929713,79.4486704 85.4451131,76.9904582 C86.0812623,74.5923604 86.7375504,72.1989776 87.3813997,69.8026479 C87.7154669,68.5602812 88.0465726,67.3167358 88.384786,66.0755479 C88.5530042,65.4555432 88.7490614,64.844379 88.9243874,64.2261424 C88.9895424,63.9927567 89.0469972,63.7599602 89.0920134,63.5218596 C89.1340679,63.3043865 89.2507545,62.9737567 89.1630915,62.7621771 C88.837909,62.6048186 88.474226,63.2065531 88.2965306,63.4016306 C85.0612912,66.9442616 81.6104481,70.5363986 77.9682864,73.6676577 C75.9330826,75.4162829 74.2378693,77.5945501 71.7874509,78.8322019 C70.9202977,79.2700949 70.01109,79.6360863 69.0698971,79.8853847 C67.8538688,80.2065848 67.1525646,80.0786941 66.1231164,79.4486704 C65.4324739,79.0255114 64.7667088,78.65952 64.3106241,77.966435 C64.0470427,77.5662609 63.7686534,77.1743379 63.5186953,76.7641447 C63.0590568,76.0103558 62.6781965,75.2070608 62.429423,74.3583853 C61.2394567,70.3083171 63.0845264,65.2746103 64.7696704,61.6070354 C64.9556581,61.2009678 65.1564539,60.8007937 65.3519187,60.3988515 C65.3933809,60.3122159 65.5373142,60.0758833 65.3963425,60.0098752 C65.3163796,59.9721563 65.1825158,60.0776514 65.1114377,60.1259788 C64.8200174,60.3245924 64.619814,60.6675988 64.366302,60.9151291 C64.1033129,61.1714999 63.8213697,61.4096005 63.5459419,61.6530054 C61.8696828,63.1370088 60.4025117,64.8331812 58.950741,66.5305322 C58.3556838,67.2262694 57.7616539,67.9231484 57.168037,68.620573 L53.6063773,72.806898 C50.6342669,76.2930082 47.6417666,79.7629456 44.5520893,83.1421771 C42.789944,85.0687884 41.1119079,87.137435 38.8036457,88.4463991 C37.0184001,89.4583268 33.6777281,92.4198508 31.8628665,89.8384627 C31.3327422,89.0840845 30.6865235,88.363889 30.2778243,87.5334836 C30.122637,87.2175877 29.9816654,86.8952088 29.872679,86.5604535 C29.6505598,85.8803344 29.5528274,85.1748728 29.5611198,84.4605709 C29.5889588,82.1485195 30.5473289,79.8541487 31.4138897,77.7489619 C33.1624116,73.4991013 35.2130156,69.3688804 37.1937261,65.2233362 C37.8150674,63.9232124 38.6383891,62.1427619 39.3325854,60.8779996 C39.7377308,60.1407127 40.198554,59.4576468 40.6706312,58.7622043 C41.147447,58.0614577 41.4945451,57.2728967 41.8831056,56.5220546 C42.3508088,55.6178434 43.037652,54.2221808 43.731761,52.8065265 L44.0092899,52.2403161 C45.0246338,50.168497 45.9948386,48.188895 46.2514488,47.7889476 C46.3349656,47.6592888 46.8828595,46.9756335 46.3876819,47.073467 C46.0459146,47.1400644 45.6538003,47.4989834 45.3665262,47.6887567 C42.6371261,49.4898348 39.8976565,51.589128 37.6427029,53.9571685 C36.0546991,55.6244623 34.6349135,57.4007873 32.9770162,59.0079666 C31.70531,60.2403142 30.5591752,61.5864079 29.4195559,62.9395739 C28.8278305,63.6432674 28.7780758,63.7953217 28.1851657,64.4984258 C27.6070636,65.1850279 27.0958934,65.9146531 26.5705076,66.6413315 C25.5102589,68.1052968 24.390186,69.5244709 23.3086139,70.9725235 C22.3881521,72.2042818 21.6169544,73.5014588 20.7960021,74.797457 C20.4009261,75.4204084 19.9791959,76.0327514 19.4798721,76.5790863 C19.2293217,76.8531378 18.9420476,77.0806299 18.6784662,77.3387687 C18.557041,77.4572297 18.4658241,77.5963182 18.3550607,77.7224408 C18.2075736,77.8915866 18.0944409,77.9198757 17.8794295,77.9410926 C15.8027636,78.1461892 14.9510107,73.8980967 15.294555,72.4836375 C15.5018662,71.6308364 16.0639757,70.9000325 16.4329896,70.1150076 C16.927575,69.063593 17.3682593,67.9897827 17.8717294,66.9413148 C18.3639454,65.9158318 18.8958468,64.9092084 19.4194556,63.8990487 C20.5584826,61.7025114 21.5962233,59.4558787 22.7239963,57.2534478 C23.2961752,56.1360251 23.8494,55.01153 24.4091402,53.8893923 C24.6893065,53.3271448 25.0156736,52.790829 25.3236788,52.2439048 C25.5973296,51.7576844 25.8235949,51.253194 26.0640759,50.7510609 C26.328842,50.1964751 26.6664631,49.6796081 26.9525525,49.13622 C27.1805949,48.7048099 27.4003447,48.2692744 27.6479336,47.8478834 C28.16325,46.9703293 28.733652,46.1204751 29.1595284,45.1940043 C29.363878,44.7478603 29.5397964,44.2810887 29.6185746,43.7948684 C29.6849142,43.3834965 29.6327903,42.980965 30.0148352,42.7075028 C30.3720484,42.4513588 30.6980685,42.5721946 31.0274047,42.7405922 L31.2256804,42.8447028 L31.2256804,42.8447028 L31.3256343,42.8960974 C31.8036348,43.1353768 32.2549809,43.4094282 32.7081039,43.6923201 C33.2174972,44.009984 33.7304443,44.3235225 34.2700458,44.5899123 C34.6757834,44.790294 35.2657319,45.0301628 35.4890357,45.4533218 C35.6270457,45.7149968 35.4665276,46.1151708 35.3895263,46.3768458 C34.9820117,47.7577116 34.3452701,49.0908394 33.6978669,50.3738718 C33.3578765,51.0486867 32.9989319,51.71584 32.6032637,52.3600083 C32.2058185,53.0083021 31.7266335,53.5841049 31.2859491,54.2029308 C30.6024144,55.1641737 30.0142429,56.1884779 29.4704952,57.2334097 C29.1796672,57.7938891 28.9012779,58.3608515 28.6270348,58.929582 C28.3984001,59.4046046 28.088618,59.9037908 27.9239536,60.4047451 C27.8433984,60.6475606 27.9363923,60.9039313 28.2449898,60.7677896 C28.4688859,60.6687775 28.6696816,60.3640794 28.8319767,60.195523 C29.2252757,59.7870979 29.6138361,59.3751367 30.0059504,58.9649435 C30.8292721,58.1038914 31.6585169,57.2481436 32.5007927,56.4047723 C34.223845,54.6797214 36.0025752,53.0059447 37.8861455,51.4529863 C39.7667543,49.9029748 41.7687883,48.5209302 43.7968842,47.1701217 L43.7968842,47.1701217 L45.3666002,46.1164969 C45.8916158,45.7677443 46.4208517,45.425622 46.9616378,45.1026538 C47.5036085,44.7785069 48.0568333,44.4685046 48.5851807,44.1219621 C49.029419,43.8308192 49.4239026,43.4848661 49.9599502,43.3752455 C50.5137672,43.2632674 51.0107218,43.4412536 51.5272229,43.6174716 C51.9590225,43.7642218 52.3173747,43.9846416 52.6603267,44.2958227 C54.3709403,45.8481917 53.408424,45.5535127 49.6904456,53.5734964 C48.5549725,56.0228683 47.3259132,58.4345213 46.1774091,60.8774102 C45.8001027,61.6807052 45.4666279,62.5022703 45.1426301,63.3279608 C43.9485175,66.373763 42.4084914,69.2675108 41.2214867,72.3085982 C40.4307425,74.3324536 39.4474951,76.3828301 38.8569543,78.4721042 C38.4364087,79.9584651 37.2085341,81.6882308 37.5508937,83.2859804 C37.9098382,84.9609359 40.3744723,82.9423847 41.0224679,82.4773812 C42.1567564,81.6634778 43.1482963,80.6686415 44.1427977,79.6956114 C45.804249,78.0689833 47.3768525,76.3622025 49.0063186,74.7055172 C49.4416721,74.2634987 49.9054569,73.8615565 50.3129715,73.3918382 C51.8559592,71.6143344 53.3906545,69.7160123 55.076983,68.0728821 C55.3713649,67.7864542 55.7006936,67.5389238 55.9879677,67.2448341 C57.5700484,65.6264571 59.0449195,63.906121 60.6370696,62.2965843 C61.4722376,61.4520343 62.3873685,60.7023709 63.238529,59.876091 C64.1376674,59.002073 65.0723447,58.1710783 66.0099837,57.337726 C66.9411072,56.5126248 67.8532765,55.6704322 68.8134235,54.8795138 C69.720262,54.1310291 70.6122925,53.4226208 71.3592051,52.5097052 C74.2663006,48.9546977 77.691674,46.5884253 81.8070976,44.6075931 C84.4050031,43.3581541 88.1916904,41.0184028 91.1834873,41.5983311 C92.3426531,41.8234658 93.5284732,41.7539216 94.6965237,41.8877059 C95.2337559,41.9484097 96.9805009,42.6809817 97.3222682,42.1287533 C98.2421377,40.6388562 98.6437291,38.4493912 99.2484855,36.804493 C100.112085,34.4535439 100.93126,32.083146 101.993878,29.812939 C103.235376,27.1620067 104.344195,24.4409407 105.734365,21.8619101 C107.346653,18.8720969 109.281163,16.0408211 111.055155,13.1435371 C112.815523,10.2686487 114.658816,7.40790496 117.078434,5.02925604 Z M158.385207,44.4077868 C159.920382,43.7071469 161.238784,44.380793 162.723616,44.910472 C164.001744,45.3675675 164.829743,46.2649625 164.759262,47.7004346 C164.65976,49.7159741 163.557538,51.6151402 162.854508,53.4657175 C162.089882,55.4794574 161.428312,57.533988 160.565961,59.5093368 C160.005077,60.7936434 159.319223,62.0173638 158.766631,63.3058694 C156.077706,69.5834353 154.534832,76.0745523 153.611476,82.8560031 C153.575348,83.1229421 153.480584,83.9351565 153.696171,84.0983193 C154.288446,84.5482165 155.798745,83.7222052 156.270195,83.4990562 C159.448931,82.0023981 162.453539,80.0426458 165.444524,78.2016664 C166.788394,77.3750552 168.171947,76.6192279 169.509302,75.7788199 C170.664829,75.0529857 171.898536,74.4531228 173.103814,73.8100697 C176.553812,71.9690903 180.079621,70.272078 183.674133,68.7406278 C190.573536,65.8012993 197.732355,63.4702319 205.05938,61.9063891 C212.248405,60.3719397 220.088339,59.0186489 227.399372,60.3791381 C228.125501,60.5141072 229.741817,61.1595598 229.859087,61.2363422 C230.563894,61.6988366 228.405054,62.3742823 228.220265,62.4072747 C227.185561,62.5968314 226.118875,62.4570633 225.075881,62.524248 C223.888371,62.5998307 222.575891,62.5248479 221.406741,62.7707917 C220.378553,62.9897416 213.470266,63.6267961 210.899796,64.1528759 C208.556167,64.6327663 205.924692,65.4791729 203.600608,66.0556412 C202.622763,66.2985857 201.669794,66.6201123 200.700241,66.8906505 C196.650862,68.0213921 192.787457,69.7609947 188.886147,71.3146398 C187.822422,71.738143 186.768174,72.1964383 185.784406,72.7891029 C180.435577,76.0109669 175.33965,79.6419374 170.337301,83.3856821 C166.845845,85.9986851 163.448559,88.6932695 159.716047,90.9535532 C158.479971,91.7021821 157.184075,92.5149964 155.9172,93.1964408 C154.666317,93.8700869 153.420172,94.3721722 152.052018,94.7980749 C151.518379,94.9648368 150.971118,95.0278224 150.41438,94.9888313 C149.656269,94.9354435 148.860844,94.9246459 148.118133,94.749486 C147.229721,94.5407336 146.41179,94.0134541 145.713499,93.4351862 C144.511775,92.4394137 143.563543,91.1659046 142.662694,89.8959948 C142.45836,89.6092603 142.22678,89.3429211 142.019484,89.0573863 C138.671358,84.4330428 141.559287,77.3996496 143.359209,72.6883259 C144.027887,70.9385257 144.650959,69.1707296 145.295353,67.4107316 C145.574907,66.647706 145.858606,65.8864799 146.133421,65.1222545 C146.179027,64.9950835 146.215748,64.8505165 146.076563,64.7419413 C146.01319,64.7587375 145.935602,64.7599372 145.884666,64.7977286 C145.519233,65.0670671 145.156761,65.3418043 144.797843,65.6213404 C144.745723,65.6621311 139.869529,71.0183075 137.69529,73.7908741 C135.323232,76.815983 132.832718,80.0294488 129.420034,81.9016211 C127.374319,83.0233649 123.316648,83.867372 122.433567,80.8134697 C122.043851,79.4697767 121.456907,77.853146 121.957971,76.4596644 C122.303267,75.4974842 122.534254,74.5808936 122.975498,73.6607038 C123.64003,72.2750204 124.253626,70.7945586 125.119531,69.5228491 C126.744139,67.1359944 128.686799,64.7689352 130.599252,62.611828 C132.059801,60.9634046 133.606821,59.3959627 135.153249,57.8303203 C135.723017,57.253852 136.297523,56.6773837 136.958501,56.2064913 C140.037735,54.0133923 142.768711,51.458576 146.291559,49.9733153 C147.701764,49.379451 149.058072,48.6548165 150.439848,47.9985665 C151.576422,47.4586898 152.689898,46.9835983 153.954403,47.3417165 C154.272454,47.431696 154.491004,47.6578443 154.730875,47.8659967 C155.01872,48.1161396 155.307157,48.0933448 155.561835,47.8048107 C156.145818,47.1449615 156.719139,46.4755144 157.280615,45.7952698 C157.602812,45.404759 157.854529,44.6495316 158.385207,44.4077868 Z M36.6575456,4.12006998 C36.912173,3.78878228 37.2533966,3.06902733 38.3000068,3.55829564 C38.3619432,3.58718016 38.4158508,3.63139115 38.4697584,3.6738337 C39.4985906,4.4802422 42.0895961,5.50004242 43.1797912,6.26223992 C44.3743605,7.09753294 44.0400187,7.58856969 43.3283238,9.56627474 C43.2113328,9.89107816 43.0203623,10.1722601 42.8827259,10.4805581 C42.3459439,11.6872234 38.9228116,19.1364808 37.8440862,20.9520789 C31.518546,31.6028017 25.7108629,42.5635909 19.7018865,53.408842 C18.742446,55.139555 18.0525435,57.0559541 17.2307394,58.8585836 C15.402469,62.8652785 13.4595016,66.8177412 11.7809109,70.8928157 C10.9063462,73.0173012 10.2411035,75.224314 9.65385482,77.4490111 C9.1554963,79.3365257 8.47935742,81.1533028 8.40136345,83.1280604 C8.37440966,83.8159835 8.56767412,85.2767146 8.05383151,85.7925096 C7.59504347,86.2534828 7.19360393,86.7262457 6.58628325,86.4208951 C6.42857486,86.3413153 5.01436072,85.3922527 4.83256595,85.2431143 C3.19239869,83.9002791 1.61531479,82.144808 0.472932561,80.3398205 C-0.0552471754,79.505117 0.0479801346,78.4894431 0.00382178531,77.5362541 C-0.0334547433,76.7245403 0.21084989,75.9481953 0.349633274,75.1588817 C1.26770805,69.950955 3.33145202,65.1602329 5.40926091,60.3630768 L6.03189393,58.9233133 L6.03189393,58.9233133 L6.34140513,58.2024925 C11.2091463,46.8172778 16.6400498,35.6578339 23.2603612,25.2311135 C24.5220284,23.2439768 25.7664909,21.244461 26.9220633,19.1901235 C29.2773664,15.0054057 31.4027021,10.8395513 34.3991615,7.07631166 C35.1704989,6.10661723 35.9016923,5.10332245 36.6575456,4.12006998 Z M94.4447887,44.1803085 C93.2719996,43.9274739 88.6536982,45.4904514 87.5371793,46.0703796 C85.9545063,46.8931234 84.6223838,48.1549389 83.2061521,49.2216769 C81.6868571,50.3650314 80.2155398,51.589128 78.9900345,53.0471997 C78.0097486,54.2129499 76.968454,55.3274259 76.010084,56.5102674 C73.1622203,60.0257879 70.5074522,63.6232292 68.7168757,67.7958839 C67.8372839,69.8433136 67.1359797,71.5542199 66.9150452,73.786708 C66.8036895,74.9053095 66.7847353,74.9035415 67.0364703,76.0545576 C67.1199871,76.0958127 67.2088348,76.1683037 67.3059749,76.1824483 C68.1079731,76.2997306 68.8412625,76.1152615 69.453719,75.5901435 C71.7086726,73.6611748 74.0868283,71.8760094 76.3554052,69.9600065 C78.8911174,67.8182795 81.1691714,65.4101627 83.6675676,63.2313061 C86.0332846,61.1685531 88.2627685,58.929582 90.2144555,56.4713698 C90.7274026,55.8242547 91.2107339,55.1553333 91.7142039,54.5011459 C92.0749254,54.0308383 92.4012925,53.538135 92.7015976,53.0283403 C94.0378664,50.7563652 94.8440108,48.1466879 95.8278506,45.7344456 C95.9332831,45.4763068 96.0310156,45.2146318 96.1228248,44.9517781 C96.2075263,44.7124988 96.1151247,44.5280297 95.877013,44.4755769 C95.4013818,44.3712605 94.9216045,44.2834462 94.4447887,44.1803085 Z M152.582104,50.4885976 C152.580919,50.4616038 151.623212,49.8065534 150.815349,50.1778686 C150.774998,50.1961354 149.704058,50.690757 148.557243,51.2365704 L148.125495,51.4428197 C147.190417,51.8912938 146.284031,52.3384782 145.918426,52.5563252 C144.451955,53.4309254 143.098016,54.4818853 141.716832,55.4842563 C138.603247,57.7439401 135.917283,60.5692946 133.673156,63.7053782 C132.614762,65.1846402 131.705621,66.7598803 130.656111,68.2457409 C129.876678,69.3506885 128.485425,70.9607206 128.693906,72.4369834 C128.747363,72.8122822 129.985056,71.9515716 131.216347,70.9888259 L131.584352,70.6980751 C132.619741,69.872034 133.564481,69.0542023 133.68737,68.9409821 C135.558365,67.2109773 137.616518,65.6951236 139.499358,63.9753165 C142.116617,61.5842627 144.595285,59.0258472 147.057369,56.4734303 C148.644072,54.829206 150.23729,53.1927798 151.818662,51.5437565 C152.061495,51.2900145 152.304919,51.0356726 152.53176,50.7675339 C152.585657,50.7039484 152.587434,50.5815764 152.582104,50.4885976 Z M129.767426,32.4021176 C130.122563,32.2504595 130.495597,32.1923647 130.883172,32.2602439 C131.195245,32.3146696 131.4911,32.4216864 131.779684,32.5849635 C132.694651,33.1035365 133.092293,34.8005176 133.422822,36.0614815 C134.395954,39.7752711 131.20699,44.1464497 129.102453,41.7021854 C127.832907,40.2290224 126.748481,38.8157888 126.844116,37.2160402 C126.914584,36.0425242 127.525868,34.6928892 127.964895,34.0605726 C128.478306,33.3206277 129.08903,32.6913688 129.767426,32.4021176 Z M125.825782,4.17527629 C125.870206,3.84936131 125.681849,3.72088126 125.383321,3.82519763 C123.282962,4.55600156 120.983585,7.54227859 119.895497,9.37636071 C118.798524,11.2275342 117.42257,12.9932508 116.564302,14.9068963 C115.62074,17.0114937 114.847173,18.6587493 113.824833,20.7268066 C112.217875,23.9782947 110.536284,27.8103005 109.272871,31.2250408 C109.15263,31.548009 108.833371,32.3271403 108.776508,32.3966845 C108.749854,32.4296885 108.773547,32.504537 108.774139,32.5599367 C108.831002,32.5528644 108.918665,32.5664196 108.939396,32.5351836 C108.965162,32.4965807 109.118424,32.313585 109.291529,32.1060573 L109.467261,31.8947916 C109.583508,31.7544152 109.692627,31.6208929 109.762718,31.5297389 C110.35622,30.7576799 110.894637,29.9490807 111.410545,29.1228008 C112.056172,28.0896562 112.74563,27.0830327 113.408433,26.0599072 C113.881103,25.3296926 114.332449,24.5853335 114.809265,23.8574763 C115.706626,22.488987 116.619388,21.1299275 117.519118,19.7632062 C117.883394,19.2103884 118.185476,18.6116007 118.594767,18.0953231 C119.418681,17.0521594 119.96006,15.8280628 120.787527,14.7890247 C121.089609,14.4100675 121.334829,13.9833723 121.578864,13.56316 C122.031987,12.7816713 122.468525,11.9913422 122.905063,11.2004237 C123.306062,10.473156 123.730162,9.75649662 124.082591,9.00683324 C124.45042,8.22534452 124.993576,7.5251872 125.188448,6.6635458 C125.203256,6.59694834 125.238795,6.53211896 125.275519,6.47436188 C125.588973,5.98177645 125.680398,5.43576573 125.744017,4.88403705 L125.796269,4.41083915 L125.796269,4.41083915 Z" id="Combined-Shape"></path>
        </g>
    </g>
</svg>