<?xml version="1.0" encoding="UTF-8"?>
<svg width="79px" height="79px" viewBox="0 0 79 79" version="1.1" xmlns="http://www.w3.org/2000/svg" xmlns:xlink="http://www.w3.org/1999/xlink">
    <title>Spicy</title>
    <g id="Spicy" stroke="none" stroke-width="1" fill="none" fill-rule="evenodd">
        <g id="_brand-icons/80x80/Spicy" transform="translate(8.000000, 8.000000)">
            <rect id="bounding-box" x="0" y="0" width="62.5404062" height="62.3774252"></rect>
            <path d="M18.8475496,1.61295792 L19.7452823,2.49070826 L19.3008602,2.93397218 C15.437166,6.7875975 15.7836496,10.3400357 18.7031659,13.5592351 C19.1967024,14.1034322 19.7268967,14.5881688 20.2565287,15.0058743 C20.4411682,15.1514942 20.6119946,15.2779684 20.764336,15.3844495 L20.8257912,15.4270305 L20.8257912,15.4270305 L20.9158093,15.4876475 C20.9270117,15.4949978 20.9362653,15.5009634 20.943497,15.5055316 L21.4756051,15.8416551 L21.333158,16.0621884 C22.0204044,15.9389345 22.6993641,15.9950699 23.4906051,16.2496471 C25.268108,16.8298593 26.3817523,18.3042764 26.9730028,20.3932482 C27.3682081,21.7895645 27.4888239,23.1847026 27.4888239,24.8885927 C27.4888239,24.95143 27.4879674,25.025234 27.486193,25.1288738 C27.4852793,25.1822371 27.4836285,25.2698824 27.4805941,25.4327768 C27.4400991,27.6846435 27.5502063,29.6843951 28.00858,32.181784 C28.6828451,35.8554293 29.9859414,39.4281286 32.0779166,42.7755143 C36.4219942,49.7265068 43.7340762,55.0432415 54.6718683,58.0969098 L54.7177934,59.2826892 C54.6009977,59.3250497 54.3860597,59.3952629 54.0788292,59.4838891 C53.5742734,59.6294372 52.9892395,59.7744588 52.3295753,59.9094864 C48.7167969,60.6489912 44.5468188,60.7965851 40.0492442,59.9823152 C33.8822637,58.8658052 27.8562996,56.0486156 22.2123775,51.1692879 C21.2379712,50.3268865 20.2790143,49.4257465 19.3363603,48.464578 C11.6731228,40.6508293 7.49413118,32.3627526 6.9338126,25.4608516 C6.48489894,19.9312158 8.66771809,16.1751305 11.9077684,16.8365759 L11.7785703,16.8956575 C14.5720873,15.6697133 16.2939898,14.3026718 16.3430465,12.4927967 C14.4294481,9.27867612 14.7528556,5.69698115 18.4031275,2.05622184 L18.8475496,1.61295792 Z M20.1782473,17.8050065 C20.0875798,17.851533 19.9928749,17.9013495 19.8725767,17.9655472 C19.824676,17.9911096 19.6122732,18.1049714 19.5545554,18.1357539 C17.1570386,19.4144194 15.4001487,19.6102885 12.3392756,18.2842583 C9.76387854,17.1426203 7.7653838,20.0927682 8.19308847,25.3611556 C8.72851779,31.9564753 12.7743507,39.9804619 20.2438396,47.5966568 C21.1624777,48.5333376 22.0963118,49.4108696 23.0445218,50.2306235 C28.5143041,54.9594025 34.3308206,57.6786736 40.2770569,58.7552186 C44.6029867,59.5384128 48.6111691,59.3965456 52.0731673,58.6879042 L52.2008829,58.661428 L52.2008829,58.661428 C42.1273623,55.4430525 35.2250667,50.1867106 31.0028545,43.4307161 C28.8229648,39.9426576 27.4665543,36.2237866 26.7655171,32.4042775 C26.2899135,29.8130134 26.1756336,27.7374778 26.2174771,25.4106258 C26.2205403,25.2461558 26.2221655,25.1598727 26.2230573,25.1077836 C26.224721,25.0106132 26.2255077,24.942821 26.2255077,24.8885927 C26.2255077,20.9513149 25.4474528,18.202337 23.096688,17.4349946 C22.0420824,17.0956858 21.3095007,17.2244983 20.1782473,17.8050065 Z M17.3438444,13.9084207 L17.3407724,13.9193406 C16.8025021,15.3478252 15.4727634,16.4511871 13.5656958,17.4325076 C15.7765638,18.2617932 17.0691403,18.0434356 18.954232,17.0380613 C19.0104065,17.0081018 19.22262,16.8943416 19.2719696,16.8680059 C19.397766,16.8008741 19.4980612,16.748117 19.59573,16.6979977 C19.7706552,16.608234 19.9402665,16.5267513 20.1059311,16.4537655 C19.9436581,16.3423433 19.7259309,16.1839888 19.4681606,15.9806927 C18.8866217,15.5220496 18.3056451,14.9908848 17.7620888,14.3915334 C17.6170987,14.2316603 17.4776316,14.070608 17.3438444,13.9084207 Z" id="Combined-Shape" fill="#FFFFFF"></path>
        </g>
    </g>
</svg>