<?xml version="1.0" encoding="utf-8"?>
<!-- Generator: Adobe Illustrator 23.0.6, SVG Export Plug-In . SVG Version: 6.00 Build 0)  -->
<svg version="1.1" id="Elvazio" xmlns="http://www.w3.org/2000/svg" xmlns:xlink="http://www.w3.org/1999/xlink" x="0px" y="0px"
	 viewBox="0 0 835 258.1" style="enable-background:new 0 0 835 258.1;" xml:space="preserve">
<style type="text/css">
	.st0{opacity:0.7;fill:#FFFFFF;}
</style>
<title>Elvazio_White</title>
<path class="st0" d="M428.1,123.7c-3.8,0.5-7.6,1.1-11.4,1.5c-9,0.9-18,1.7-27.1,2.5c-3.1,0.3-6.3,0.3-9.4,0.4
	c-3.5,0.2-4.8,3.1-6.5,5.5c-4.1,5.5-8.3,10.9-12.4,16.3c-5.1,6.6-10.3,13.2-15.3,19.9c-5.9,8-11.3,16.3-17.4,24.2
	c-5.7,7.3-11.8,14.3-18,21.2c-4.2,4.7-8.9,9.1-13.5,13.3c-0.7,0.6-3.3,0.4-3.6-0.1c-2.2-4-4.1-8.3-6-12.5c-0.8-1.8-2.1-3.8-2-5.6
	c0.1-3.9,0.8-7.8,1.9-11.6c4.5-14,9.2-27.9,14-41.8c2.5-7.2,5.1-14.4,7.9-22.6c-3.5,2.9-6.2,5.1-8.8,7.4
	c-5.2,4.5-10.4,8.9-15.4,13.6c-4.8,4.4-9.1,9.3-13.8,13.9c-1.3,1.3-2.6,2.6-3.9,4c-6.3,6.8-12.6,13.6-18.7,20.6
	c-5.2,5.9-10.2,11.9-15.1,18c-6.4,8-12.5,16.2-19.1,24c-3.2,3.8-6.9,7.2-11,10.1c-2.8,2-6.6,2.8-10.1,3.5c-1.1,0.2-3.8-1.9-3.8-2.9
	c0-6.5-3.9-12.9-1.3-19.5c1.8-4.5,3.5-9.1,5.5-13.6c9-19.4,17.6-39.1,27.2-58.2c10.3-20.5,21.2-40.8,32.4-60.8
	c9.3-16.7,19.3-32.9,29.3-49.2c7.4-12.5,15.5-24.6,23.4-36.9c1.8-2.7,3.8-5.2,5.9-7.8c1.1-1.4,4.7-0.4,5.5,2
	c0.8,2.4,1.2,4.8,1.1,7.3c0,5.3-0.4,10.6-1.2,15.9c-0.8,4.3-2.1,8.4-4,12.3c-3,6.2-6.7,12.1-10.1,18.1c-5.3,9.3-10.7,18.6-16,27.9
	c-5,8.7-9.9,17.4-14.9,26.1c-5.7,10-11.7,19.8-17.2,29.9c-4.8,8.7-9.1,17.7-13.7,26.7c-4.2,8.2-8.4,16.4-12.5,24.6
	c-4.7,9.4-9.3,18.9-13.8,28.4c-0.1,0.5-0.1,1-0.1,1.5V221l-0.1,0.1c24-28.6,49.3-56,77.9-80.1c6.8-5.7,14-10.9,21.1-16.3
	c0.6-0.4,1.6-0.8,1.7-1.3c0.7-3.9,4.8-5.6,6.9-5.8c0.3,0,0.5,0.1,0.8,0.1c2.5,1.3,4.7,2,6.7,3.9c0.8,0.7,0.3,3.4-0.3,5
	c-2.7,7.1-5.9,14-8.6,21.1c-3.7,9.8-7,19.6-10.5,29.4c-1.7,4.8-3.3,9.7-5,14.5c-0.9,2.5-2,5-2.9,7.5c-0.4,1.1-0.7,2.3-1,3.4l0.9,0.5
	c2.1-2.4,4.3-4.7,6.3-7.2c9.8-12.8,19.2-25.9,29.3-38.4c8.1-10,17.1-19.2,25.4-29c1.8-2.1,2.4-5.2,3.4-7.8c0.8-2.1,1.3-4.4,2.3-6.5
	c1.5-3.2,9.8-7.3,13.5-6.4c0.8,0.2,1.4,0.7,1.7,1.4c2.6,2.8,4.1,4.7,2.8,8.1c1.1,0.4,2.2,1.2,3.3,1.2c9,0.3,18.1,0.5,27.1,0.7
	c6,0.1,12,1,17.9,0.3c6.4-0.8,11.8,1.4,17.5,3.3c0.4,0.2,0.8,0.2,1.2,0.1c4.9-3.1,9.3-0.2,13.6,1.5c1.7,0.7,2.2,5.7,1.2,7.4
	c-4,7-8.3,13.8-11.9,20.9c-3.1,6.2-5.1,13-8.1,19.2c-5.6,11.4-10.2,23.3-13.8,35.5c-1.9,6.5-3.3,13.2-5.8,19.4c-2,5-3.1,7-6.8,10.6
	c-0.5,0.7-1.5,1-2.3,0.6c-1.1-0.3-2.2-0.9-2.9-1.8c-1-1.5-1.8-2.1-2.6-3.1c-1.7-2.4-3.9-4.7-4.9-7.4c-2-5-3.4-10.3-4.3-15.6
	c-0.3-2.3,1.5-5.1,2.5-7.5c3.3-7.6,6.6-15.1,9.9-22.6c0.2-0.4,0.3-0.9,0.8-2.4c-3.8,3.3-7.1,5.8-9.9,8.7
	c-6.7,6.9-13.7,13.3-22.4,17.3c-3.3,1.3-6.8,2.1-10.4,2.1c-4.4,0.2-6.2-2.7-7.7-8.8c-2.8-11.4,1.4-20.4,8.8-28.5
	c6.8-7.5,13.2-15.7,20.8-22.3C407.5,138,418.1,131.1,428.1,123.7l0-0.2L428.1,123.7z M378.3,192.3c1.9-0.7,3-1,4.1-1.5
	c11.9-5.3,20.9-14.4,30.4-23c6.2-5.6,11.7-11.8,17.5-17.8c5.4-5.5,10.7-11,16.1-16.5c2.1-2.1,0.8-4.2-0.3-5.8c-0.7-1-2.7-2-3.8-1.6
	c-3,0.9-5.8,2.2-8.4,3.8c-2.7,1.9-5.4,3.9-7.9,6.1c-6.5,5-13.5,9.4-19.2,15.2c-7.8,8-15.1,16.5-21.9,25.3c-3,3.8-4.8,8.5-7,12.9
	C377.5,190,378.1,191.1,378.3,192.3L378.3,192.3z"/>
<path class="st0" d="M570.8,115.8c-6.3-0.4-11.8-0.7-17.4-1s-10.8-0.5-16.2-0.4c-6,0.1-12,0.8-18.1,1c-10.6,0.3-21.2,0.4-31.8,0.6
	c-3.3,0.1-6.6,0.5-9.9,0.4c-7.4-0.3-15.2-9.8-10.3-17.5c1.4-2.3,2.2-4.9,3.5-7.3c1.8-3.1,6.1-4.4,9.5-3.3c1.5,0.5,3.1,0.8,4.7,0.9
	c12.4-0.1,24.8-0.7,37.2-0.2c16.1,0.6,32.3,1.4,48.3,3.2c7.7,0.8,15.3,3.5,22.6,6.3c3.1,1.2,5.3,4.9,7.8,7.7
	c1.7,1.7,3.2,3.7,4.3,5.8c0.9,1.9,1.8,4.5,1.3,6.3c-0.4,1.1-3.4,1.5-5.3,2c-2.8,0.8-5.8,1-8.4,2.3c-6.1,2.8-12.2,5.9-18.1,9.2
	c-5.3,2.9-10.5,6.1-15.7,9.2c-6.3,3.6-12.8,6.9-18.7,11c-6.5,4.4-12.4,9.7-18.6,14.5c-9,7-18,13.9-27,20.8
	c-6.1,4.7-12.1,9.5-18.2,14.2c-1.1,0.8-2,1.7-2.8,2.8c4-0.8,8-1.6,12-2.4c20.6-3.8,41.2-7.1,62.2-6.3c9.9,0.2,19.6,2.5,28.6,6.6
	c2.2,1.1,3.1,0.4,4.1-1.6c5.8-12.7,11.6-25.5,17.6-38.1c2-4.3,4.6-8.3,7-12.4c1-1.7,2.2-1.8,3.6-0.2c3.7,4,4.5,9.8,2,14.6
	c-2.8,6.1-5.2,12.4-7.8,18.6c-2.8,6.4-5.7,12.7-8.5,19.1c-2,4.5-3.9,9-5.8,13.4l0.9,0.9c4.6-4.9,9-10.1,13.8-14.8
	c10.4-10.1,21.2-19.7,31.5-30c3-2.9,4.7-7.1,6.9-10.9c10-17.3,27.6-33.4,45.3-42.6c5.8-3,12.8-3.8,19.4-5.4c1-0.2,1.9,0.2,2.6,0.9
	c0.4,1-0.5,2.1-1.1,2.6c-2.2,1.5-4.5,2.7-6.5,3.8c6.6-1.4,13.7-3.1,20.9-4.3c25.6-4.3,51.3-6.8,77.1-1.4c10.6,2.2,21.3,4.3,30.9,9.9
	c1.4,0.8,2.7,1.8,3.8,3c0.7,0.8,0.8,2.2,1.1,3.3c-1,0.2-2.1,0.2-3.2,0.1c-11.3-2.7-22.4-5.8-33.7-8.3c-17-3.7-34.3-3.9-51.6-1.6
	c-7.7,1-15.3,2.4-22.9,3.8c-1,0.2-1.9,1.4-2.9,2.1l3.2,1.8c5.7,3.2,8.3,6.8,7.7,13.4c-1.7,19.7-11.3,38.9-24.4,53.5
	c-14.1,15.7-46.1,39-67.7,25c-4.6-3-6.7-8-7.9-13.1c-1.2-4.7-2.6-9.6-2.7-14.5c-0.1-3.3,0.6-6.7,1.1-10.7c-4.8,5.2-9.3,10-13.8,14.8
	c-8.2,8.8-16.3,17.7-24.6,26.5c-2.7,2.9-5.7,5.4-8.6,8c-0.5,0.5-1.2,0.8-1.9,1c-4,1-5.3,0.3-6.6-3.8c-1.7-5.3-2.3-10.6-0.3-15.9
	c0.1-0.3-0.7-1.2-1.1-1.2c-4.9-0.2-9.9-0.6-14.8-0.5c-8.7,0.2-17.3,0.3-26,1.2c-10.4,1.1-20.7,2.9-30.9,4.5
	c-5.4,0.7-10.8,1.8-16.1,3.3c-8.3,2.6-16.4,5.6-24.4,8.8c-3.1,1.3-5.8,3.7-8.5,5.8c-3,2.3-7.1,2.4-10.9-0.6c-1.6-1.7-2.5-2.4-3-3.6
	c-2.3-5.5-1.1-11.5,5-18c9.6-9.3,19.6-18,30.2-26.1c20.2-15.2,40.4-30.4,60.8-45.2c11.2-8.2,22.8-15.7,34.2-23.6
	C569.2,117.1,569.7,116.7,570.8,115.8z M649.5,200.3c10.1-0.3,27-12.1,30.9-15.4c14-11.9,23.8-27.1,31.9-43.4s-19.7-10.9-26.7-8.2
	c-4.8,1.8-8.4,5.5-12,9c-14.9,14.5-23.7,31.3-30.3,50.8C641.8,197.7,645.1,200.4,649.5,200.3z"/>
<path class="st0" d="M33.2,234.3l19.1-6.6c22.4-7.8,44.8-16,67.4-23.2c12.5-4,25.6-6.4,38.4-9.4c7.7-1.9,15.5-3.8,23.3-5.3
	c2.7-0.5,5.4-1,8.2-1.3l4.1-0.5c1.5-0.2,3-0.9,3.1,1.1c0,0.2,0,0.5,0,0.7c-0.3,1.9-0.4,2.9-1.9,4.3c-2,1.5-4.2,2.7-6.6,3.4
	c-2,0.7-4,1.4-6.1,2.2c-9.6,3.6-19.3,7.3-28.9,10.9c-5.6,2-11.3,3.6-16.9,5.7c-15.7,5.9-31,12.7-46.9,18.2
	c-11.9,4.1-24.3,8.1-36.1,12.3s-23,8.2-35.2,11.2c-2.1,0.5-3.2-0.1-4.7-1.8c-5.4-6.2-7.5-13.8-10.3-21.2c-0.3-0.8-0.3-1.7-0.1-2.6
	c5-13.7,9.3-27.7,15.5-40.9c5.6-12,13.2-23.1,20.1-34.6c5.5-9.2,11.4-18.1,17.1-27.2c8.9-14.3,17.5-28.8,26.8-42.8
	c5.6-8.6,12.3-16.4,18.5-24.6c0.4-0.6,0.7-1.2,1.4-2.5c-4.6,0.7-8.7,1.2-12.7,2.1c-9.6,2-19.2,3.9-28.6,6.4
	c-8,2.2-15.8,5.3-23.7,7.9C30.2,78.6,23,81.3,15.5,83c-6.4,1.5-10.3-1.8-11.8-8.3C2.7,70.5,0,64.4,0,61.9c-0.1,0.1,0.1,0,0.1-0.1
	C0,61.1,12.8,61.3,19,59.9c11.2-2.5,22.4-5.1,33.7-6.9c14.9-2.3,30-3.9,45-5.6c4.6-0.5,9.2-0.5,13.8-1c1.6-0.2,3-0.9,4.2-1.9
	c4.5-3.7,8.9-7.6,13.2-11.6c1.6-1.5,3.1-3,4.5-4.7c2.7-3.3,7.6-3.9,10.9-1.2c0.4,0.3,0.8,0.7,1.1,1.1c2.9,3.4,5.6,7,8.4,10.5
	c0.3,0.3,0.5,0.7,0.6,1.2c-0.2,4.2,2.6,3.3,5.1,3.3c19,0,37.9-0.1,56.9,0.1c6.1,0,12.4,1.4,18.4,0.6c4.8-0.6,9,0.5,13.4,1.3
	s6.9,4.6,5.8,8.3c-0.5,1.2-1.5,2.1-2.6,2.6c-1.4,0.6-2.9,1-4.4,1.1c-0.7,0.1-2.1-0.4-2.2-0.8c-1.1-5.2-5.4-4.4-8.9-4.7
	c-7.5-0.5-14.9-0.9-22.4-0.8c-8.7,0-17.3,0.4-26,0.9c-9,0.5-18,1.1-27,2c-4.9,0.5-9.7,1.2-14.5,2.2c-1.1,0.2-2.1,1.5-3,2.5
	c-3.5,3.9-6.9,7.9-10.2,11.9c-2.9,3.5-5.4,7.3-8.2,10.9c-2,2.6-4.3,4.9-6.2,7.6s-3.7,5.7-5.6,8.5c-5.2,7.6-10.5,15.1-15.7,22.7
	c-2.5,3.6-4.6,7.5-6.9,11.3c-1.4,2.5-0.2,3,2.1,2.7c13.2-1.5,26.4-3.1,39.7-4.3c22.5-2,45.1-3.7,67.7-5.5c3.2-0.3,6.5-0.4,9.8-0.3
	c1,0,2.3,0,3,1.4c-0.1,1.2-0.7,2.2-1.7,2.9c-2.9,1.4-6,2.5-9.1,3.2c-9.7,1.9-19.4,3.5-29.1,5.3c-7.3,1.3-14.5,2.8-21.8,4.1
	s-14.6,2.4-21.9,3.7c-5.2,0.9-10.6,1.4-15.7,3c-7.3,2.4-14.5,5.2-21.5,8.4c-4.6,2.1-9.6,0.1-10.4-4.9c-0.2-0.7-0.6-1.4-1-2
	c-0.6,0.4-1.2,1-1.6,1.6c-3.8,5.8-7.6,11.7-11.3,17.6c-1.6,2.5-2.8,5.2-4.3,7.7c-2.8,4.5-6,8.9-8.6,13.5c-3.4,6-6.5,12.2-9.6,18.5
	c-3.3,6.9-6.5,13.8-9.6,20.8C34.6,230,34.1,231.8,33.2,234.3z"/>
<path class="st0" d="M630.6,134.9c-5.1,0-9.2,0.1-13.3,0c-2.9-0.1-4.5-2.2-4.1-5c1.3-7.7,6.1-12.7,12.5-16.4c1-0.6,3.3,0.7,4.8,1.6
	c1.4,1,2.7,2.3,3.8,3.7c0.5,0.7,0.9,1.5,1.2,2.3c0.8,2.3,1.8,4.6,2.9,6.7c1.2,2-0.8,5.9-3.9,6.5
	C633.3,134.7,631.9,134.8,630.6,134.9z"/>
</svg>
