<?xml version="1.0" encoding="UTF-8"?>
<svg width="728px" height="100px" viewBox="0 0 728 100" version="1.1" xmlns="http://www.w3.org/2000/svg" xmlns:xlink="http://www.w3.org/1999/xlink">
    <title>Script/white/INDONESIA</title>
    <g id="Script/white/INDONESIA" stroke="none" stroke-width="1" fill="none" fill-rule="evenodd">
        <g id="logo/Barista-Creations" transform="translate(151.000218, 4.287626)" fill="#FFFFFF">
            <path d="M141.501503,3.79822629 C142.253865,4.22258376 143.616634,5.03142618 143.562691,6.05387134 C143.540925,6.44310302 143.254175,6.80670237 143.067741,7.13992267 C142.831149,7.56143209 142.594557,7.98294152 142.357019,8.40445095 C133.300285,24.4284547 123.882038,40.1211368 115.916465,56.7679112 C113.184303,62.4753767 110.341416,68.1752474 108.00105,74.0460004 C107.684017,74.8519948 107.372662,75.6589385 107.060361,76.4668316 C106.897586,76.885493 106.701688,77.306053 106.616515,77.7493974 C106.548376,78.1016046 106.421563,78.6028591 106.507683,78.9484209 C106.941119,78.8734226 107.491904,78.4139393 107.822187,78.1243889 C108.36067,77.6535135 108.849941,77.1133359 109.354355,76.6063854 C110.27801,75.6788747 111.196932,74.7456681 112.117747,73.8143601 C113.988715,71.9232637 115.882396,70.0549516 117.784594,68.1951837 C121.543565,64.5193177 125.324302,60.866236 129.057721,57.1647376 C132.774105,53.4784288 136.385442,49.6800972 140.249459,46.1456837 C142.150711,44.4064826 144.172152,42.8087341 146.162362,41.173961 C147.969923,39.6882352 149.613763,37.9851093 151.532996,36.6379879 C152.445294,35.9971797 153.432355,35.3829531 154.550961,35.2054255 C155.072409,35.1228324 155.604268,35.1380219 156.119091,35.2519434 C156.489121,35.3335871 157.047478,35.4589007 157.282177,35.8016145 C157.593532,36.256351 157.319085,36.9113994 157.108992,37.3461997 C156.794798,37.9965014 156.357576,38.5926904 155.900481,39.1490069 C155.432029,39.7186143 154.908688,40.2037298 154.369258,40.7049843 C153.440872,41.5650914 152.53236,42.4451347 151.640882,43.3432156 C149.816286,45.1783006 148.051311,47.0731943 146.376241,49.0468837 C144.768363,50.9427268 143.059224,52.8366712 141.75513,54.9613066 C140.541887,56.9387934 139.65798,59.0976052 138.926438,61.2943908 C138.753253,61.8174802 138.588585,62.3424683 138.427703,62.8693551 C138.285747,63.3411798 138.054834,63.8585732 138.095528,64.3598276 C138.163666,65.1772142 138.927384,65.4173986 139.635267,65.2560098 C142.611592,64.5791265 144.914104,61.6276111 146.720719,59.3653206 C151.848136,52.9439473 156.853472,45.3045635 159.420967,37.4344888 C159.670808,36.668367 159.707716,35.3649155 160.625692,35.0383406 C161.407391,34.673792 161.963855,38.3202283 161.753762,39.8420292 C161.585308,41.0657356 161.325058,42.0245746 160.875533,43.3365702 C160.658815,43.9669356 160.443043,44.437811 160.195095,45.0577337 C160.00109,45.5438015 159.692574,46.2149859 159.449358,46.9583235 C159.861027,46.9716143 160.352192,46.3953616 160.643673,46.1532785 C161.079002,45.7925272 161.513385,45.4298772 161.947767,45.0672272 C162.88751,44.2821184 163.826306,43.4941616 164.770781,42.7128502 C166.466671,41.3087681 168.184327,39.9312677 169.940785,38.6031332 C173.307959,36.0531911 176.828445,33.6817258 180.625271,31.8162618 C182.204758,31.0406465 183.882667,30.1833875 185.697799,30.4947728 C187.068139,30.7302105 188.194316,31.6150006 188.949517,32.7599113 C190.856447,35.6535166 190.530896,39.4024822 189.152039,42.4318439 C188.275703,44.3542686 187.079495,46.1153046 186.011046,47.9304534 C185.346697,49.0592252 184.652063,50.1680608 183.956483,51.2759471 C183.609166,51.8303649 183.262796,52.3847827 182.918318,52.9392005 C182.652389,53.3692541 182.220846,53.8999382 182.290877,54.4448626 C182.739455,54.3347385 183.147339,53.7632325 183.458694,53.4518471 C183.92336,52.9866678 184.394651,52.5271846 184.869728,52.072448 C185.785811,51.1971514 186.719876,50.3398924 187.670028,49.5025696 C189.564655,47.8336201 191.524582,46.2396689 193.53372,44.7112226 C197.55578,41.6533805 201.775632,38.8642033 206.09012,36.2421108 C207.893896,35.146566 210.130161,33.3598977 212.380623,34.0120981 C213.403646,34.3082939 214.402063,35.0772638 214.96042,35.9895849 C215.4866,36.849692 215.504581,37.8275179 215.209314,38.7721167 C214.402063,41.3467419 213.203962,43.761877 211.913117,46.1219501 C210.628897,48.470631 209.444992,50.8506403 208.299887,53.2714715 C206.946582,56.129951 205.607473,58.9931772 204.271202,61.8592514 C203.592657,63.3136488 202.916004,64.7689956 202.238405,66.2252917 C201.909069,66.9306554 201.58068,67.6360192 201.252291,68.3413829 C201.036519,68.8027649 200.441254,69.7141366 200.593619,70.264757 C200.988254,70.3207684 201.529576,70.0454582 201.880678,69.8840694 C202.289509,69.696099 202.695501,69.5014832 203.100546,69.3040193 C204.026093,68.8511815 204.942176,68.377458 205.846903,67.8837983 C207.612825,66.9192633 209.338998,65.8806792 211.02921,64.7889318 C212.684407,63.71807 214.305534,62.5959436 215.901109,61.4386913 C216.637382,60.9051591 217.359461,60.3516907 218.103305,59.8295506 C218.933269,59.2466524 219.784054,58.7140696 220.566699,58.0656666 C223.355643,55.7530608 225.291911,52.7246484 227.462877,49.869017 C229.667913,46.967817 232.117111,44.2431952 234.873879,41.8584392 C236.295322,40.6290367 237.797207,39.5040622 239.365338,38.4721235 C240.972269,37.4145526 242.529043,36.4509668 244.470042,36.1879981 C248.507245,35.6411751 252.5047,36.7822884 255.008788,39.569567 C258.873752,43.8691531 243.688343,52.4303513 241.194666,53.9901261 C237.956197,56.0160295 234.574827,57.7713694 231.193457,59.5428483 C230.303872,60.0089769 229.261921,60.4171955 228.566341,61.1662292 C227.998521,61.7766584 227.672971,62.6016397 227.288746,63.3354838 C226.786225,64.2933734 226.287489,65.2550605 225.815252,66.2300384 C224.951219,68.0129093 224.176144,69.847045 223.647125,71.7609256 C223.39823,72.6609052 223.274256,73.5599355 223.244918,74.4950408 C223.229777,74.9830045 223.232616,75.4709681 223.232616,75.959881 C223.232616,76.4098708 223.157853,76.9177707 223.313057,77.3487736 C223.896965,78.9759519 226.52692,78.0304037 227.61051,77.6307292 C231.083678,76.3529101 234.255901,74.3649805 237.065665,71.9631362 C240.303188,69.1948446 243.416736,66.2680122 246.56246,63.3943432 C249.736576,60.4950419 252.906906,57.5919431 256.099003,54.7135274 C262.341241,49.0839082 268.642154,43.5349834 274.346856,37.3490477 C276.770502,34.7212592 279.414652,32.4494753 282.525361,30.5783152 C285.529131,28.7698119 288.777063,29.4277084 290.544877,29.8805462 C291.882094,30.22326 294.195015,31.4393716 292.596601,32.7456711 C291.45055,33.6798272 289.794408,33.5592603 288.413658,33.6969154 C285.533863,33.981719 282.575519,35.9649019 281.229784,38.5414258 C279.488469,41.87173 278.393522,45.6387332 277.66198,49.3108018 C277.467028,50.2895771 277.301414,51.2749978 277.162298,52.2623172 C277.097945,52.7123069 277.041163,53.1641954 276.988167,53.6160839 C276.937063,54.0527829 276.727916,54.7581466 276.885959,55.17396 C277.286272,55.2641478 277.770812,54.9328262 278.120968,54.7638427 C278.606455,54.5303037 279.092887,54.3005621 279.577427,54.0698711 C280.504867,53.6274761 281.430414,53.1860304 282.357854,52.7445847 C284.209895,51.8626427 286.062882,50.978802 287.913976,50.0921132 C289.76507,49.2063738 291.615218,48.316837 293.462527,47.4225535 L294.534905,46.9100892 C295.0712,46.6526722 295.604156,46.3881466 296.118034,46.0925204 C296.917714,45.6320878 297.678593,45.110897 298.483952,44.6628059 C299.227796,44.2488913 299.734103,43.9849732 300.560281,44.3105987 C301.263432,44.5868583 301.817057,45.1669084 302.311061,45.7222756 C303.201592,46.7257338 303.771305,47.9247573 303.662473,49.2918149 C303.521464,51.0509522 302.521154,52.7417367 301.802861,54.3157516 C300.966273,56.1479885 300.101293,57.9669346 299.223064,59.7801846 C298.246413,61.797544 297.291529,63.8338902 296.239169,65.8123263 C295.712042,66.8024938 295.148007,67.7717756 294.581133,68.7391587 C294.297223,69.2233249 294.014259,69.7074912 293.733188,70.1926068 C293.499435,70.599876 293.085873,71.1153706 293.095337,71.6033343 C293.554325,71.6498522 294.051168,71.1144213 294.37104,70.8467058 C294.908576,70.3957667 295.445166,69.9448276 295.978918,69.490091 C296.941373,68.6727045 297.899097,67.8515206 298.861552,67.0350834 C300.862172,65.3386029 302.891184,63.6857923 304.988334,62.1117773 C309.194936,58.951406 313.428983,55.8271097 317.723597,52.7873052 C326.074342,46.8785785 334.670195,40.6708079 344.086549,36.6095076 C348.745515,34.599743 353.582398,32.9754127 358.586788,32.0991668 C359.877632,31.8732226 361.100339,31.9254366 362.40254,31.9899921 C364.225243,32.0792305 365.707254,33.0618032 366.444475,34.7630304 C366.589269,35.0972001 366.46908,35.712376 366.180438,35.9686993 C365.772554,36.3322986 365.185806,36.2933755 364.728711,36.0683806 C363.606319,35.5158615 363.266573,35.3326378 362.00128,35.2215643 C356.810456,34.7687265 351.931933,37.7952402 347.753722,40.5189126 C344.678028,42.522981 342.548702,44.3200922 339.855341,46.8035802 C338.419702,48.1250692 336.944316,49.4133311 335.657256,50.8857661 C334.825399,51.8379597 334.104267,52.8831891 333.326354,53.880002 C329.056345,59.3472831 325.554786,64.723427 322.921992,71.1837235 C322.689186,71.7571282 322.43556,72.3286343 322.226412,72.9124818 C322.088243,73.2969667 321.853544,74.0564432 322.0343,74.4437762 C322.637136,74.5567483 323.507794,73.9529645 324.0141,73.6852491 C324.674664,73.3349406 325.316301,72.951405 325.940904,72.539389 C327.181591,71.7191544 328.348462,70.7878464 329.45098,69.7891349 C337.066397,62.888342 343.904846,54.9708 351.029099,47.566854 C353.377036,45.1279853 355.377656,42.3957687 357.386794,39.6730457 C358.046412,38.7778128 358.805398,37.5398662 360.101921,37.8740358 C361.27731,38.1778264 362.752696,38.4407951 363.717044,39.2325493 C364.625557,39.9777856 365.027763,41.1283924 364.893379,42.2846953 C364.719247,43.783712 363.738811,45.1801993 363.061212,46.4921948 C361.479832,49.5566823 359.884257,52.6145244 358.352088,55.7036948 C356.668501,59.0976052 355.166616,62.5342361 353.817097,66.0733964 C353.132873,67.8686088 352.445811,69.6609732 351.71143,71.4353001 C351.354649,72.2992046 350.992191,73.160261 350.636356,74.0241654 C350.38273,74.6421894 349.690936,75.7557717 349.962543,76.4554394 C350.501026,76.4355032 351.149288,75.7747586 351.557172,75.4757148 C352.135402,75.0513573 352.713633,74.6269999 353.290917,74.2016931 C354.483339,73.3216497 355.674816,72.440657 356.866292,71.5596644 C359.213283,69.8290074 361.565005,68.1040465 363.947011,66.4208568 C368.327745,63.3231423 372.831507,60.399158 377.462082,57.6925738 C382.07089,54.9992804 386.803673,52.5205391 391.652858,50.2933745 C396.532328,48.0519696 401.547128,45.9672067 406.677384,44.3713569 C409.641406,43.448593 412.683031,42.7707602 415.767241,42.4090596 C417.313605,42.2277346 418.87038,42.1280533 420.4281,42.1119144 C421.232512,42.1043197 422.037871,42.1090664 422.838497,42.1964062 C423.481081,42.2657084 424.502211,42.2989355 425,42.7906965 C424.671611,43.0479691 424.070667,43.1258155 423.670354,43.2074592 C423.212312,43.3014444 422.752378,43.3887842 422.292443,43.4751746 C414.198165,44.9912795 406.516502,47.5326776 398.951242,50.9465242 C392.379668,53.9113304 385.912195,57.1305612 379.809072,60.9849042 C372.635609,65.5161305 366.160564,71.0166387 359.661861,76.4497433 C356.653359,78.9655091 353.689337,81.6654479 350.364749,83.7635015 C349.656866,84.2106433 348.925325,84.6198112 348.164445,84.9701197 C347.379907,85.3327698 346.575495,85.7172547 345.692534,85.6460538 C345.033863,85.5928904 344.364781,85.3840344 343.81021,85.0223338 C342.912107,84.4375369 341.865425,83.7112875 341.167952,82.9223814 C340.003921,81.6056391 339.074588,80.3572497 339.059446,78.418686 C339.044304,76.3975293 339.942407,74.4200425 340.555653,72.5279968 C341.245555,70.4033615 341.987506,68.297713 342.902644,66.2585188 C343.341758,65.2787941 343.818727,64.314259 344.338283,63.3744069 C344.598534,62.9016328 344.884337,62.4430989 345.154051,61.9760209 C345.396321,61.5554608 345.702944,60.9298421 345.736067,60.4409292 C345.251527,60.712442 344.792539,61.2507209 344.431027,61.6655849 C344.008947,62.1488018 343.594438,62.6367654 343.179929,63.1275771 C342.323467,64.1414782 341.475522,65.162974 340.603918,66.1635842 C338.865441,68.1581592 336.98217,70.0017883 335.013726,71.7656723 C331.38914,75.0095861 323.278773,84.0131794 318.232743,77.9705949 C316.798996,76.2532288 316.437484,73.6453766 316.661773,71.4846661 C316.903097,69.1549721 317.743471,66.8537584 318.626432,64.6996933 C319.511285,62.5427802 320.609071,60.4760549 321.867739,58.5166057 C323.277826,56.3179214 324.88949,54.2540441 326.625127,52.305987 C327.488214,51.3367052 328.375907,50.3816636 329.311864,49.481684 C329.823849,48.987075 330.352868,48.5105035 330.878102,48.0320333 C331.229204,47.7130532 332.233299,47.0589541 332.24087,46.5273206 C331.739296,46.3782734 330.981256,47.1054721 330.598923,47.3513526 C329.918485,47.7871022 329.237101,48.2209531 328.555716,48.6557534 C327.315029,49.4475076 326.074342,50.2421098 324.84785,51.0575976 C322.355118,52.7161043 319.92674,54.4780897 317.522021,56.26191 C312.774097,59.7830327 308.337527,63.6231355 303.933134,67.5629196 C301.77447,69.4929391 299.6177,71.4466922 297.386166,73.29222 C295.544535,74.8149703 293.303537,76.7193575 290.774844,76.7051173 C289.651506,76.6984719 288.481796,76.3605049 287.64994,75.5753961 C286.637327,74.6194051 286.570135,73.3387379 286.503889,72.0238943 C286.444268,70.8448072 286.548368,69.5736334 287.183381,68.5464416 C287.966026,67.2781159 288.746779,66.0088409 289.5228,64.7376672 C291.274526,61.8734916 293.018681,58.9950759 294.611417,56.0378644 C295.366618,54.6366304 295.990274,53.1708409 296.581754,51.6927098 C296.88743,50.9303853 297.185536,50.1642635 297.490266,49.4009896 C297.674808,48.9396077 298.339157,47.9057704 298.012661,47.4026172 C297.587742,47.3617954 297.147681,47.6674846 296.785222,47.8583031 C296.351786,48.0870954 295.916457,48.3120903 295.482075,48.5389839 L292.615528,50.0351525 C290.878945,50.9417775 289.142361,51.8493518 287.405777,52.7588249 C285.583074,53.7138665 283.761317,54.6708068 281.941453,55.6286965 C281.159753,56.0397631 280.398874,56.4764621 279.640834,56.9274012 C278.895097,57.3697963 278.068918,57.7258009 277.352518,58.2118658 C276.879334,58.5327446 276.549999,58.9770383 276.493217,59.5570884 C276.391009,60.5918751 276.337066,61.6295098 276.302997,62.6671445 L276.271806,63.8960064 L276.271806,63.8960064 L276.231664,66.354996 C276.209306,67.5845172 276.173818,68.8136823 276.081547,70.0407115 C276.016247,70.9217041 275.963251,71.8131396 275.840223,72.6893856 C275.618773,74.2671979 274.999849,76.1582943 273.877458,77.3345334 C273.186609,78.0588841 272.236457,78.3550799 271.285358,78.5648852 C264.796118,79.995549 257.299943,78.0484413 251.479784,75.0836351 C250.846665,74.7608576 250.16812,74.097265 249.837837,73.4640516 C249.483896,72.7852695 249.867175,72.2422438 250.391462,71.7979501 C251.771266,70.6236096 253.291131,69.5812282 254.762732,68.5255559 C258.018236,66.1901659 261.377839,64.000975 264.823562,61.957034 C265.685703,61.4453368 266.554468,60.9450316 267.428911,60.4551693 C268.18222,60.0308119 269.258239,59.6662632 269.725745,58.8887492 C270.152556,58.179588 270.0759,57.1989141 270.144985,56.4043118 C270.238676,55.303071 270.334259,54.2027795 270.428895,53.1015386 L270.717537,49.8006641 C270.768641,49.2272594 270.817852,48.654804 270.86801,48.0823487 C270.912489,47.5858409 271.098923,46.9421846 270.991984,46.4599171 C270.715645,46.5662438 270.45634,46.9336405 270.246246,47.1330031 C270.018172,47.3504032 269.79199,47.5678034 269.561077,47.7814061 C269.064234,48.242788 268.519126,48.654804 268.045943,49.1418183 C267.045633,50.1699595 266.164565,51.3338572 265.206841,52.4037696 C263.266788,54.5730242 261.253865,56.6758247 259.203087,58.7406513 C255.160207,62.8104957 251.023635,66.8072405 246.681703,70.5571554 C242.499706,74.1675166 238.106669,77.8367372 233.027516,80.1009264 C231.822791,80.6363573 230.561283,81.1670414 229.259082,81.4034285 C228.00136,81.6322208 226.701998,81.597095 225.449954,81.3578599 C223.150282,80.9173635 220.917801,79.8208694 219.192574,78.2278676 C217.557251,76.7184081 216.482178,74.715289 216.199214,72.4985671 C216.056313,71.3811874 216.110256,70.2438714 216.305208,69.1369345 C216.417825,68.4951769 216.582493,67.8667101 216.776498,67.2467875 C216.882492,66.9078711 216.988485,66.5727521 217.06798,66.2271903 C217.156938,65.838908 217.346212,65.319616 217.315928,64.9275363 C217.105895,64.9941742 215.915438,65.781564 214.678928,66.6108365 L214.214903,66.922451 C213.752369,67.233377 213.299783,67.5382594 212.906419,67.8012987 L212.53462,68.0490643 C212.24428,68.2417026 212.006472,68.3969962 211.849711,68.4942275 C209.903033,69.7008458 207.95541,70.9036666 205.989805,72.0770577 C205.006529,72.6637532 204.018522,73.2409553 203.024836,73.8096133 C202.160803,74.3042224 201.327054,74.6535815 200.310655,74.6061143 C198.398047,74.5187745 196.911304,73.2494995 195.62803,71.9432 C194.844438,71.1448003 194.194284,70.215391 194.204694,69.0514934 C194.216997,67.6844358 194.871883,66.3344664 195.410366,65.11076 C197.227391,60.9820561 199.135267,56.8922755 201.194562,52.8793918 C202.353862,50.621848 203.561427,48.3889873 204.830505,46.1903029 C205.43618,45.1431748 206.086334,44.1178816 206.642798,43.0413237 C206.939011,42.4698177 207.213458,41.8869195 207.489797,41.3068694 C207.687588,40.8920054 207.978122,40.3233474 207.809669,39.8458266 C206.990115,39.4831766 206.190435,40.3356889 205.606526,40.7695398 C204.734922,41.4179428 203.863318,42.0653965 202.991714,42.7128502 C201.323268,43.9517461 199.657662,45.1934901 198.008144,46.4561197 C196.337806,47.7339388 194.647594,49.0079606 193.058643,50.385461 C191.5719,51.6737229 190.229005,53.1167282 188.905037,54.5673282 C183.292133,60.7190874 177.580807,66.7930003 172.37768,73.3036122 C169.807347,76.5180962 167.299474,79.7847943 164.725355,83.0011771 C163.817789,84.1337463 162.050921,83.4749005 161.028845,82.7961184 C159.967967,82.091704 159.093524,81.0208422 158.312771,80.0249787 C157.793215,79.3623355 157.534857,78.5705813 157.747789,77.7380053 C157.992899,76.7810649 158.706459,75.9162111 159.211819,75.0855338 C160.351246,73.215323 161.48594,71.3422642 162.620634,69.4701548 C164.864471,65.7658084 167.108308,62.061462 169.386213,58.3789506 C171.87232,54.3594215 174.421833,50.3816636 176.995952,46.4181459 C178.306671,44.4007866 179.618336,42.3853259 180.923376,40.3641692 C181.539461,39.410077 182.203811,38.4711742 182.744187,37.4715133 C183.006331,36.9854484 183.234405,36.4841939 183.457748,35.9800914 C183.659324,35.5263043 183.958376,34.8589143 183.755853,34.3538625 C183.146393,34.1298169 182.397816,34.6832854 181.916116,34.9699878 C181.221482,35.3858011 180.524009,35.7978171 179.829376,36.2126811 C178.47891,37.0177261 177.134122,37.8303659 175.81394,38.6819289 C173.304174,40.3015124 170.869171,42.055903 168.559089,43.9517461 C166.199795,45.8884111 164.030721,48.033932 161.86638,50.1832504 C160.71749,51.3253131 159.55819,52.4474395 158.459458,53.6379189 C156.192908,56.0938758 153.939608,58.5688197 151.759178,61.102623 C150.263917,62.838976 148.858562,64.643682 147.222293,66.253772 C146.217251,67.2429901 145.142178,68.1714501 143.971522,68.9603562 C142.909698,69.6771121 141.649137,70.2951361 140.333686,70.0720399 C138.864924,69.8242607 137.386699,68.7448548 136.251058,67.8315843 C135.212893,66.9961603 134.293971,65.989854 133.700598,64.7851344 C133.176311,63.7218674 132.943505,62.5370842 133.001233,61.3532502 C133.034356,60.6792149 133.154544,60.011825 133.336247,59.3624726 C133.429937,59.0302017 133.53877,58.7007787 133.66369,58.3780013 C133.779147,58.0818054 134.018578,57.6764349 133.956117,57.347012 C133.534984,57.4058714 133.183882,58.020098 132.935934,58.3153444 C132.56685,58.7539421 132.194928,59.1934891 131.823952,59.6330361 C131.020486,60.5852297 130.215128,61.5364739 129.415448,62.4915156 C128.033751,64.1405288 126.677607,65.8104276 125.322409,67.4822252 C123.154282,70.157481 120.955871,72.8090031 118.692161,75.4045139 C116.136969,78.3313462 113.502283,81.187927 110.82501,84.0027366 C109.690316,85.196064 108.574549,86.4036315 107.448372,87.6045537 C106.583392,88.5263682 105.430717,89.8174782 104.095393,89.9722215 C103.337352,90.0605106 102.669217,89.5193837 102.06922,89.1292026 C101.161654,88.5387097 100.328851,87.8551809 99.5064579,87.1526652 C98.048106,85.9052251 96.3976415,84.5989256 95.5231982,82.8502311 C95.0168918,81.8401274 94.5919729,80.74838 94.7926027,79.6091654 C94.9250941,78.855385 95.1465441,78.1167941 95.3793504,77.3895954 C96.9758719,72.4007845 99.2537778,67.599944 101.458813,62.860811 C102.781835,60.0184704 104.139872,57.1922686 105.527246,54.3822058 C106.0733,53.2781169 106.623139,52.1768761 107.179603,51.0784832 C107.410517,50.6237467 107.642377,50.1699595 107.875183,49.7171217 C108.020924,49.4361154 108.518713,48.783915 108.342689,48.4696816 C108.038905,48.4801244 107.716194,48.9434051 107.542062,49.1361222 C107.26383,49.4437102 106.989383,49.7550955 106.720615,50.0712276 C106.16699,50.7215293 105.633239,51.3870205 105.098542,52.0534611 C103.994131,53.4319109 102.870793,54.7875763 101.649033,56.0644461 C100.446201,57.322329 99.1951031,58.5327446 97.9875385,59.783982 C96.857576,60.9573731 95.7739855,62.1677887 94.5910265,63.2889658 C92.2430894,65.5132825 89.6632924,67.4879213 86.9055783,69.173959 C85.6156798,69.9638145 84.2320909,70.8979705 82.688566,71.0356256 C81.3068698,71.1590405 80.0822706,70.4992454 79.2220228,69.4388264 C78.2690311,68.2644859 78.0144583,66.7759121 78.147896,65.2987304 C78.2207663,64.4936854 78.3948979,63.7000325 78.5993132,62.9196704 C78.6948963,62.5570204 78.7989967,62.1962691 78.9049898,61.8374165 C79.0090902,61.4804625 79.2210765,60.9801574 79.1491526,60.6051659 C78.853886,60.687759 78.5576731,61.0485103 78.3447404,61.2611637 C78.005941,61.6019788 77.6680879,61.9427938 77.3302348,62.2826595 C76.5882829,63.0278958 75.8482237,63.7750308 75.1081645,64.5221657 C73.7624303,65.8797299 72.4204816,67.2410914 71.0823184,68.608149 C68.3425853,71.4106171 65.625565,74.2349201 62.955863,77.1057411 C60.7148655,79.5151802 58.5997347,82.0613249 56.1902838,84.3055779 C54.1726289,86.1843327 52.0272144,87.9643556 49.7322739,89.4937513 C48.9155589,90.039625 48.0572039,90.6006883 47.129764,90.9396046 C45.9647859,91.3649114 44.8187352,90.8104936 43.8487088,90.1592426 C41.246199,88.4114974 39.6572484,85.6887743 39.9686032,82.5018213 C40.1446275,80.7085075 40.8070846,79.1079109 41.5897303,77.5054156 C42.429158,75.7908975 43.3386169,74.1115052 44.3076969,72.4672387 C46.281819,69.1179476 48.4187162,65.8559962 50.5347933,62.5959436 C52.956547,58.8678636 55.4256191,55.1692133 58.0063625,51.5493586 C59.2943683,49.7418047 60.6022478,47.9484909 61.9053954,46.1513798 C62.5290514,45.292222 63.1517611,44.432115 63.7706852,43.5691599 C64.0924501,43.1210688 64.4596406,42.6777244 64.7340871,42.1992542 C64.9224141,41.8698313 65.1996997,41.3590834 65.2129489,40.9869399 C64.8258847,41.0363059 64.3072754,41.3448432 63.9855106,41.5660407 C63.6060173,41.8271108 63.2691106,42.1631791 62.9199011,42.4631723 C62.0776343,43.1875229 61.2353674,43.9099749 60.3921542,44.6333762 C58.7435825,46.0497998 57.0959572,47.4671727 55.4568492,48.8940391 C52.3120709,51.6338504 49.1937909,54.3755604 46.3537429,57.4371998 L43.5016725,60.5280228 L43.5016725,60.5280228 L37.8156178,66.7265461 L37.8156178,66.7265461 C36.3837642,68.2844222 34.9556961,69.8508424 33.4585431,71.3460616 C31.9926203,72.8109018 30.4576127,74.2026424 28.950996,75.6238127 C28.4068349,76.138358 27.9648814,76.4364525 27.1945385,76.3975293 C26.4601575,76.3595555 25.7172592,76.0595623 25.1664735,75.5697 C23.9532307,74.4921928 23.4781544,72.9276713 23.9153761,71.3678966 C24.920418,67.7803197 27.3913829,64.778489 29.4194478,61.7348872 C31.8052396,58.1530064 34.154123,54.5435945 36.5020601,50.9360814 C37.6802873,49.1275781 38.854729,47.3152774 40.0244389,45.5010781 C40.5525118,44.6808435 41.1373668,43.9194684 41.3985641,42.9682241 C41.5925694,42.2657084 41.6588151,41.195796 42.4991892,40.9831425 C43.0225303,40.8511835 43.751233,40.9660543 44.2783596,41.0363059 C44.7023321,41.0932666 45.127251,41.1815558 45.5057978,41.3913611 C46.1493276,41.7492644 46.5884419,42.3767818 46.748378,43.0935377 C46.9537397,44.0210483 46.6499558,44.9257747 46.356582,45.7991726 C46.0102116,46.8301619 45.5739363,47.8288734 45.0865572,48.8000539 C44.1099062,50.7424149 42.931679,52.5727532 41.8168584,54.4363185 C41.217808,55.4369287 40.6168648,56.4375389 40.0140289,57.4371998 C39.7130841,57.9375049 39.4121393,58.43781 39.1111945,58.9400138 C38.8670318,59.3463337 38.3039433,59.9814459 38.334227,60.4855484 C38.594478,60.4466252 38.8301235,60.1656189 39.0070941,59.9909394 C39.2995216,59.7032877 39.5872172,59.4108892 39.8749129,59.1194401 C40.4181277,58.5707184 40.9566106,58.0181993 41.4960399,57.4656802 C42.5730058,56.3615913 43.6518645,55.2584517 44.7628996,54.1885393 C47.1042121,51.9347929 49.6395299,49.8870546 52.1511885,47.8288734 C54.6817744,45.7555027 57.2360196,43.7115617 59.7864792,41.662874 C61.0404158,40.6565677 62.2602831,39.5705164 63.5643772,38.6306643 C64.6508067,37.8484035 65.9407053,37.4677159 67.2599412,37.3405036 C68.3615126,37.2341769 69.6542502,37.1553812 70.5656019,37.9082123 C71.3208029,38.5328817 71.5157546,39.5344412 71.3662285,40.4676479 C71.1438322,41.8555911 70.5163908,43.2596732 69.9958888,44.5564792 C67.9337546,49.6981348 64.8258847,54.5625814 62.1382018,59.4023451 C60.2558774,62.7905594 58.3498938,66.1664322 56.4193046,69.5280649 C55.4748302,71.1742301 54.4697882,72.7947629 53.5716857,74.4646618 C52.9981871,75.5336249 51.1196482,77.9440133 51.1196482,79.1155057 C50.6994612,79.8977664 50.2773814,80.6790778 49.8676044,81.4670346 C49.6594036,81.8705065 49.4530955,82.2749277 49.2467875,82.6783996 C49.0792805,83.0068731 48.7329101,83.4711031 48.7811748,83.8555881 C49.1105106,83.9552693 49.5013603,83.5214184 49.7247029,83.3324987 C50.0862152,83.0268094 50.4515129,82.7249175 50.8158643,82.4230256 C51.5445671,81.8182925 52.2742162,81.2173567 53.0038653,80.6145223 C54.389347,79.4705609 55.7719895,78.3218528 57.1328655,77.1475123 C59.9520935,74.7171877 62.6482937,72.1444612 65.3388157,69.5726841 C70.7520362,64.4006495 76.1908086,59.2808289 81.8671192,54.3983447 C84.7052745,51.9566279 87.5765527,49.555733 90.4724364,47.1852171 C93.1090155,45.0273546 95.7806101,42.9302503 98.6216045,41.0467487 C101.405817,39.2012209 104.321574,37.5066391 107.41241,36.2297693 C108.786535,35.6620607 110.27801,35.3573208 111.732576,35.8120573 C112.10923,35.9297761 112.471689,36.0940129 112.812381,36.2943248 C113.113326,36.4718524 113.806067,37.1155087 114.119314,37.2550625 C114.574933,37.4583839 118.924749,31.0857386 123.553982,24.0842738 L124.025574,23.3703243 C124.340423,22.8932218 124.655993,22.4141555 124.971157,21.9349789 L125.679119,20.8574268 C125.757599,20.7378519 125.836002,20.6183569 125.914309,20.4989708 L126.382861,19.7841932 C128.640613,16.3379916 130.788248,13.0321023 132.396504,10.5727562 C133.298392,9.19240777 134.244759,7.84053969 135.260211,6.54183496 C135.735288,5.9342538 136.232131,5.34565956 136.766828,4.78934306 C137.264617,4.27194973 137.859882,3.5191187 138.515715,3.20298663 C139.438423,2.75679421 140.695198,3.34348977 141.501503,3.79822629 Z M55.0844619,0.712422944 C55.6280941,1.33899913 55.9027715,2.1712599 56.2155984,2.92829343 C56.4616635,3.52630231 56.992897,4.46711883 56.8517434,5.15749533 C56.7258497,5.74502953 56.3586595,6.36589225 56.1354842,6.92200242 C55.841732,7.65237314 55.544165,8.38274386 55.2179856,9.09978317 C54.5894705,10.4824406 53.7883284,11.7765395 52.9900474,13.0649249 C50.6190481,16.891039 48.5398934,20.8990316 46.2566382,24.7775192 C39.7940914,35.756886 32.8813789,46.4086812 26.7345203,57.579449 C25.2133039,60.3438117 23.6339093,63.0834161 22.28532,65.9372897 C20.9615279,68.7359331 19.4632013,71.4555404 18.0230529,74.1941925 C16.5542923,76.9871225 15.0721793,79.7724346 13.6100948,82.5682213 C13.2514883,83.2528844 12.9005117,83.9394519 12.5667025,84.6355419 C12.3750006,85.0345319 12.130843,85.7801385 11.593887,85.8296551 C11.1475364,85.8706016 10.7603176,85.3982889 10.468473,85.1335652 C9.94296188,84.6593479 9.3831161,84.2251249 8.82327033,83.7937587 C7.04359022,82.4206236 4.41603465,80.4599544 4.75270511,77.8793746 C4.92533217,76.5500428 5.61965539,75.330219 6.24244805,74.1665775 C7.68164273,71.473633 9.23147134,68.8378232 10.6878334,66.1524967 C13.6835328,60.6247235 16.8337383,55.1959836 20.0421219,49.7881931 C23.9190778,43.2538987 27.7540691,36.6957981 31.6253025,30.1576946 C34.9614874,24.5232702 38.5990543,19.0745332 41.9037658,13.4201117 C42.4168783,12.5421432 42.925222,11.661318 43.4211672,10.7728749 C43.7139656,10.249141 44.4960329,9.24166744 44.3138685,8.60652107 C43.9533545,8.56176563 43.5918868,8.96361236 43.3601278,9.18072386 C42.9652791,9.55114656 42.572338,9.9225215 42.1774893,10.2929442 C41.3906533,11.0299806 40.6028635,11.7679693 39.8160274,12.505958 C38.3138859,13.914326 36.812698,15.3245985 35.3200939,16.7434413 C32.3348855,19.5830312 29.394503,22.4673766 26.5199286,25.418379 C20.7345377,31.3556169 15.1341724,37.4794944 9.65302472,43.6957396 C8.12131719,45.4326316 6.61154569,47.1923775 5.04168853,48.8949888 C4.30921569,49.6882076 3.5261946,50.4585725 2.71360754,51.1718029 C2.21861612,51.6069781 0.653527671,51.9478813 0.139461445,51.3765352 C-0.315472859,50.8727984 0.459918313,50.0567258 0.791820069,49.701539 L2.4055493,47.9875008 L2.4055493,47.9875008 C3.51093474,46.8086234 4.61536645,45.6306983 5.72170564,44.4537254 C7.89814187,42.1331081 10.0755318,39.8124909 12.2548293,37.4947303 C16.5790895,32.89349 20.9128872,28.3017722 25.275297,23.7357649 C29.4784322,19.3364002 33.7998312,15.072254 38.3167471,10.9918909 C40.5761587,8.95218544 42.8689513,6.94961748 45.1827262,4.97180785 C46.3596422,3.96623878 47.5403732,2.96733541 48.7258728,1.97319326 C49.6862897,1.16854755 50.7220521,0.47055311 51.9590537,0.178214374 C53.0167522,-0.0722256509 54.3071633,-0.183638133 55.0844619,0.712422944 Z M269.737101,62.0567153 C269.410604,62.1725355 268.700829,62.8475202 268.417865,63.0307438 C266.699262,64.1509716 264.989177,65.2844902 263.295179,66.4407931 C262.007173,67.3198871 260.7239,68.2046771 259.443465,69.0942139 C258.261452,69.9163472 255.482918,71.2539751 255.659889,71.7875073 C255.718563,71.9650349 258.290789,72.1235756 258.555772,72.1587014 C260.548822,72.4197714 262.572155,72.2299023 264.553848,71.9602882 C266.150369,71.7428881 267.83301,71.1742301 268.404616,69.5014832 C268.891049,68.0746168 269.789151,62.3681006 269.737101,62.0567153 Z M111.920903,39.3664071 C111.7004,39.3768499 111.47895,39.3796979 111.259392,39.3996342 C107.640484,39.723361 104.800436,41.8869195 101.87143,43.6650438 C99.2736515,45.2428561 96.9654619,47.3238215 94.6260421,49.2994097 C91.0781114,52.2945949 87.8103054,55.5926214 85.2560602,59.4934823 C84.7327192,60.2928312 82.0724809,63.6193381 82.392353,65.2218334 C82.4756334,65.6366974 82.7567044,65.9357413 83.3264175,66.0458653 C85.0563768,66.382883 88.0573072,63.5044673 89.2856919,62.4848701 C97.4282354,55.7245804 104.411479,47.7871022 111.567908,40.030949 C111.732576,39.8534213 111.805446,39.5895033 111.920903,39.3664071 Z M244.860892,39.2458402 C242.840398,40.451509 241.143562,42.1280533 239.569753,43.8606089 C237.147053,46.52827 234.920251,49.3649145 232.734143,52.2281407 C232.471052,52.5746518 231.21617,54.9499144 231.058126,54.9907363 C231.315538,54.9233328 231.587145,54.8122593 231.807649,54.654668 C233.295338,53.5923503 234.749905,52.4797173 236.261253,51.4506267 C238.635689,49.8338912 240.858705,47.9712752 242.994656,46.0535972 C244.629032,44.585909 246.318298,43.1523972 247.716082,41.4492712 C248.180748,40.8844106 248.833742,40.0746188 249.003141,39.3929887 C249.160238,38.7654713 248.904719,38.2471286 247.714189,38.1294098 C246.759305,38.0344752 245.659626,38.7683194 244.860892,39.2458402 Z M306.883134,32.448024 C307.719537,32.8887315 308.676509,34.1344144 308.926924,35.1309607 C309.060985,35.6679255 309.027259,36.2369761 308.886453,36.7682787 C308.482585,38.2876343 306.832546,40.1939065 305.330056,40.3883086 C304.55942,40.487397 303.827567,40.1372846 303.322522,39.0520306 C302.541767,37.3741335 301.970956,35.5329765 303.128598,33.9305754 C303.943922,32.8009675 305.584687,31.7647859 306.883134,32.448024 Z" id="Combined-Shape"></path>
        </g>
    </g>
</svg>