<?xml version="1.0" encoding="UTF-8"?>
<svg width="79px" height="79px" viewBox="0 0 79 79" version="1.1" xmlns="http://www.w3.org/2000/svg" xmlns:xlink="http://www.w3.org/1999/xlink">
    <title>Woody</title>
    <g id="Woody" stroke="none" stroke-width="1" fill="none" fill-rule="evenodd">
        <g id="_brand-icons/80x80/Woody" transform="translate(0.000000, 6.000000)">
            <rect id="bounding-box" x="0" y="0" width="66.5112256" height="66.3378966"></rect>
            <path d="M58.5298786,2.65351587 L59.2016419,3.31689483 L59.2016419,64.3477597 L58.5298786,65.0111387 L22.6138167,65.0111387 L21.9420533,64.3477597 L21.9420533,44.7874264 L8.10483839,31.117088 L8.09231515,30.1918359 L14.0118142,24.0224116 L14.9748639,24.0100076 L21.9420533,30.9020812 L21.9420533,3.31689483 L22.6138167,2.65351587 L58.5298786,2.65351587 Z M23.2855801,63.6843808 L26.5973151,63.6835159 L26.5978391,55.0604542 L27.9413659,55.0604542 L27.9413151,63.6835159 L32.5833151,63.6835159 L32.5838494,45.1097697 L33.9273762,45.1097697 L33.9273151,63.6835159 L41.2303088,63.6843808 L41.2303088,43.8496622 C39.1619496,41.6322105 37.9047475,37.7411178 37.9047475,33.4342999 C37.9047475,29.127482 39.1619496,25.2363893 41.2303088,23.0189376 L41.2293151,3.97951587 L33.9273151,3.97951587 L33.9273762,37.8126011 L32.5838494,37.8126011 L32.5833151,3.97951587 L27.9413151,3.97951587 L27.9413659,24.5450218 L26.5978391,24.5450218 L26.5973151,3.97951587 L23.2855801,3.9802738 L23.2855801,63.6843808 Z M47.8813151,3.97951587 L42.5733151,3.97951587 L42.5738355,23.2846017 L42.3794379,23.751342 C40.4727159,25.6530951 39.2482742,29.3168473 39.2482742,33.4342999 C39.2482742,37.5517526 40.4727159,41.2155048 42.3794379,43.1172578 L42.5738355,43.5839981 L42.5738355,63.6843808 L47.2163151,63.6835159 L47.2163191,43.5176602 L47.4569596,43.0089211 C49.5853054,41.2500303 50.8744365,37.6841569 50.8744365,33.5006378 C50.8744365,29.5875421 49.7497914,26.012078 48.0433915,24.0482861 L47.8814313,23.6162912 L47.8813151,3.97951587 Z M52.5363151,3.97951587 L49.2243151,3.97951587 L49.2249581,23.3765811 C51.0650104,25.6293764 52.2179632,29.4102207 52.2179632,33.5006378 C52.2179632,37.8934628 50.8862652,41.7214738 48.5598458,43.8186144 L48.5593151,63.6835159 L52.5363151,63.6835159 L52.5372171,45.1097697 L53.8807439,45.1097697 L53.8803151,63.6835159 L57.8581152,63.6843808 L57.8581152,3.9802738 L53.8803151,3.97951587 L53.8807439,22.5548849 L52.5372171,22.5548849 L52.5363151,3.97951587 Z M27.9413659,27.8619166 L27.9413659,52.4069383 L26.5978391,52.4069383 L26.5978391,27.8619166 L27.9413659,27.8619166 Z M14.5120127,25.4300812 L9.51723996,30.6357367 L21.9413151,42.9105159 L21.9413151,32.7785159 L14.5120127,25.4300812 Z M45.5601896,27.1985376 C47.3705093,27.1985376 48.5598458,29.9099367 48.5598458,33.1689483 C48.5598458,36.4279599 47.3705093,39.139359 45.5601896,39.139359 C43.7498698,39.139359 42.5605333,36.4279599 42.5605333,33.1689483 C42.5605333,29.9099367 43.7498698,27.1985376 45.5601896,27.1985376 Z M45.5601896,28.5252956 C44.7991898,28.5252956 43.90406,30.5659746 43.90406,33.1689483 C43.90406,35.7719221 44.7991898,37.8126011 45.5601896,37.8126011 C46.3211893,37.8126011 47.2163191,35.7719221 47.2163191,33.1689483 C47.2163191,30.5659746 46.3211893,28.5252956 45.5601896,28.5252956 Z" id="Combined-Shape" fill="#FFFFFF"></path>
        </g>
    </g>
</svg>