<?xml version="1.0" encoding="utf-8"?>
<!-- Generator: Adobe Illustrator 23.0.6, SVG Export Plug-In . SVG Version: 6.00 Build 0)  -->
<svg version="1.1" id="Odacio" xmlns="http://www.w3.org/2000/svg" xmlns:xlink="http://www.w3.org/1999/xlink" x="0px" y="0px"
	 viewBox="0 0 685 213.7" style="enable-background:new 0 0 685 213.7;" xml:space="preserve">
<style type="text/css">
	.st0{opacity:0.7;fill:#FFFFFF;}
</style>
<title>Odacio_White</title>
<path class="st0" d="M685,98.5c-3.6-2.3-7.5-4.2-11.5-5.6c-19.6-5.7-39.6-5.4-59.6-3.6c-6.4,0.6-12.8,1.6-19.6,2.5
	c0.5-0.6,0.9-1.2,1.1-1.9c0.3-1.6,1.1-3.5,0.5-4.8c-0.4-1-2.8-1.7-4.1-1.4c-2.4,0.3-4.8,1.2-6.8,2.5c-6.3,4.3-12.3,8.9-18.2,13.9
	c-12.9,11.3-25.5,22.9-38.1,34.5c-8.3,7.6-16.3,15.5-24.5,23.2c-0.9,0.9-2.4,1.2-4.4,2.3c1.4-3.4,2.2-5.7,3.2-8
	c3.3-7.3,6.5-14.6,9.9-21.8c3.3-7.1,5.7-14.8,12.5-19.6c2.3-1.6,1.5-2.5,0.4-4.1c-2.5-3.6-6.5-3.9-10.2-5.1
	c-0.9-0.3-2.6,0.9-3.3,1.8c-1.9,2.4-3.6,5.1-5.3,7.7c-3.4,5.1-6.1,10.8-10.3,15.1c-6.8,7.1-14.5,13.4-22,19.9
	c-12.2,10.6-24.4,21.2-38.3,29.6c-6.3,3.8-12.8,7.3-20.8,8.6c0.2-3.2-0.1-6.2,0.7-8.9c4.1-13.1,10.1-25.6,17.6-37.2
	c6.1-9.5,14.5-25.6,25.9-29.3c0.6-0.2,9.6-1.8,9.4-0.7s-0.8,2.3-0.5,3.2c0.6,1.6,1.5,4,2.7,4.2c2.1,0.2,4.2-0.3,6-1.4
	c1.8-1.1,3.1-3.1,5.4-5.6c0.1-1.9-2.5-5.9-5.4-7.6c-6.2-3.5-12.9-3-19.3-1.7c-11.4,2.2-20.7,8.4-29.4,15.8
	c-7.3,6.2-15.2,11.7-22.9,17.5c-11.2,8.3-22.5,16.6-33.8,24.8c-1.6,1.2-3.3,2.3-5,3.4l-0.9-0.7c2.3-5.9,4.3-11.9,6.9-17.7
	c5.3-11.8,11.2-23.4,16.4-35.2c1.3-2.8,4.6-6,1.9-9.5c-2.8-3.5-5.9-6.8-9.1-9.8c-1.6-1.6-3.4-1.2-4.6,1c-1.2,2.2-2.4,4-3.5,6.1
	c-2-1.4-3.5-3-5.4-3.6c-5.1-1.6-12.8,1.4-16.1,4.1c-20.6,16.8-33.5,35.2-51,57.3c-8.2,10.3-15.8,22.3-22.8,32.6
	c-2.4,4.1-5,7.9-7.9,11.6c-0.2-0.9-0.1-1.8,0.1-2.7c5.7-12.8,11.3-25.7,17.1-38.5c6.2-13.6,12.2-27.3,19-40.7
	c9.3-18.2,19.3-36.1,28.9-54.2c3.8-7.2,5.8-10,8.6-19.4c0.4-2,0.7-4.6,0.9-5.3c0.3-1.6,0.4-3.3,0.3-5c-0.3-4.5-2.7-7.6-6.3-10.4
	c-2.7-2.2-4.8-2-6.9-0.1c-2.8,2.5-5.3,5.3-7.3,8.5c-11.6,20.3-22.9,40.7-34.4,61.1c-2.9,5.1-5.1,10-12.3,11.7
	c-17.1,4.1-31.3,14.3-43.8,26.3c-6.9,6.6-12.2,14.8-18.4,22.1c-5,5.9-7.8,12.3-4,19.6c3.6,6.9,6,9.6,11.1,6.5
	c9-5.5,17.8-11.5,26.5-17.5c3.4-2.3,6.4-5.1,10.2-8.2c-1.6,3.8-2.9,6.9-4.2,10c-3.8,9.1-8.2,18.1-8.9,28.1
	c-0.5,7.2,1.6,13.3,7.6,17.8c2.2,1.6,4.4,3.3,6.6,4.9c3.8,2.9,7.4,2.7,10.5-0.9c4.5-5.3,7-11.5,10.8-17.1c0,0.1,14-23.9,23-35
	c3.2-3.9,10-13.4,9.9-13.3c-3,7.4,2,11.9,6.2,16.5c0.7,0.8,1.8,1,2.8,0.6c2.1-0.7,4.1-1.8,5.7-3.3c3.4-3.4,6.7-7,9.7-10.8
	c5-6.1,9.8-12.4,14.7-18.6c0,1.4-0.2,2.8-0.5,4.2c-3.1,8.9-6.2,17.8-5.5,27.4c0.5,6.5,5,9.1,9.3,13.1c8.9,8.3,16.4-5.2,22.7-10.6
	c8.6-7.5,17.3-14.8,26-22.2c-0.3,1.1-0.7,2.1-1.1,3.2c-1.7,3.8-3.9,7.4-5,11.3c-3,10.1-5,20.6,3,29.4c3.5,3.9,8.4,6.5,12.7,9.7
	c3,2.2,6.3,2.4,10,1.3c8.7-2.4,16.3-7.1,23.3-12.4c6.1-4.7,11.4-10.3,17.1-15.4c6.7-5.9,19.7-22.2,21-23.2
	c-1.2,5.2-2.3,10.5,2.1,14.8c2.4,2.5,5.2,4.6,8.2,6.1c2.1,0.9,5.1,0.6,7.4-0.2c2.6-1,4.9-2.5,6.9-4.5c6.3-6,12.5-12.3,18.7-18.4
	l9.1-9.1c-1,5.6-2.6,11.1-2.8,16.7c-0.5,17.1,15.8,29,31.3,25.3c7.8-1.8,15.1-5.5,21.1-10.8c14.8-12.9,27-27.5,28.9-48.1
	c0.6-6.6-0.8-12.4-7.3-15.8c-1.2-0.6-2.3-1.3-3.5-2c0.5-1.7,1-2.6,4.4-3.1C636.5,92.6,660.8,91.1,685,98.5z M226.2,165.5l-3.9,1.9
	c7.2-17.2,43.5-52.4,57.1-55.1c-3.5,6.4-5.8,12.9-10,17.8C257.2,144.5,243.3,157,226.2,165.5z M270.7,197.2V197l0.1,0.1L270.7,197.2
	z M354.6,129.8L354.6,129.8l0.2,0.2C354.7,129.9,354.7,129.9,354.6,129.8L354.6,129.8z M321.1,153.6c1.3-7,4.5-13.6,9.2-18.9
	c7.4-8.7,15.2-17.1,23.1-25.2c3.6-3.7,8-6.6,12.2-9.8c1.7-1.3,3.8-2.3,5.7,1.4C355,118.7,340.9,138.8,321.1,153.6L321.1,153.6z
	 M487.6,145.5h-0.2H487.6L487.6,145.5z M599.6,114.4c-6.6,17-16.4,31.4-32.1,41.2c-2.6,1.5-5.3,2.7-8.2,3.7
	c-5.2,1.9-6.3,1.1-6.5-5.2c0.3-7.9,2.8-15.6,7.1-22.3c2.8-4.4,5.8-8.7,8.8-13c3.4-4.8,6.3-10.5,11-14.1c4.3-3.3,9.8-4.2,15-5.3
	c2.6-0.5,4,0.7,4.9,2.9C601.2,106.2,601.2,110.5,599.6,114.4z"/>
<path class="st0" d="M246,20.6c4.2,4.3,7.5,7.5,10.7,10.9c5.7,6,6.7,13.4,6.1,21.2c-1.1,14-6.5,26.5-13.4,38.6
	c-10.3,17.9-22.3,34.7-36,50.1c-9.7,11.2-21,20.8-33.5,28.5c-7.4,4.6-15.1,8.7-23.1,12.2c-9.7,4.3-20.1,6.4-30.6,3.1
	c-5-1.5-9.8-3.7-14.2-6.6c-13-9.1-22.3-20.5-23.4-37.3c-0.9-13,3.1-24.8,8.1-36.2c7.5-17.4,17.9-33.4,30.6-47.4
	c1.7-1.7,3.2-3.7,4.5-5.7c-0.7,0.3-1.3,0.6-1.9,0.9c-9.7,6.6-19.4,13.2-29,19.9c-5.4,3.8-10.6,7.9-16,11.7C75,91.4,64.7,97.9,55,105
	c-11,8.1-21.6,17-32.6,25.1c-4.2,3-8.9,5.4-13.8,7.1c-2,0.7-5.2-0.5-7.4-1.7c-1.1-0.7-1.5-2.1-0.8-3.2c0.4-0.6,0.9-1,1.6-1.1
	c6.6-0.6,11.1-5,15.9-8.6c10.4-7.8,20.5-16.1,30.9-23.9c33.1-24.7,65.7-50.2,101.2-71.4c14.1-8.5,29.2-15.4,43.8-23
	c6.9-3.6,14.5-3.8,22-4.4c1.5-0.1,4,1.9,4.5,3.5c0.9,2.7-1,4.7-3.6,6.2c-5.4,2.8-10.6,6-15.6,9.4c-7.7,5.5-15.6,10.8-22.3,17.4
	c-10.8,10.7-21.9,21.4-30.7,33.7c-10.4,14.7-19.7,30.3-25.7,47.6c-1.6,4.5-2,9.5-3,14.2c-2.1,9.7-2.2,19.5-1.3,29.3
	c0.4,4,2.4,8.1,4.4,11.7c0.7,1.3,3.7,1.9,5.6,1.8c11-0.3,20.6-4.9,29.8-10.3c27.6-16.2,48.3-39.4,66.1-65.6
	c8-11.8,15.5-23.8,19.7-37.4c2-6.8,3.1-13.9,3.4-20.9c0.4-6-2.8-11-7.2-15c-3-2.7-6.6-2.4-10.3-1.6c-6.7,1.6-13.4,3-20.1,4.4
	c-3.4,0.7-4.8-0.6-5-3.5c10-2.5,20-4.8,29.8-7.6c29.5-8.3,59.4-14.3,90-15.7c11.3-0.5,22.6,0.8,33.5,3.8c3.6,1,7,2.4,9.1,5.9
	c-20.2-5.6-40.5-4.5-60.9-2.7S265.5,13.6,246,20.6z"/>
<path class="st0" d="M519.7,83.8c0-10.3,4.1-8.8,10-14.3c2-1.8,3.2-1,5.2,0.2c6.3,3.7,6.2,5.8,7.7,11.9c1.1,4.5-2.5,7.7-3,7.8
	c-4.7,0.6-6.8,0.2-11.4-0.1C522.8,89,521,88.8,519.7,83.8z"/>
</svg>
