<?xml version="1.0" encoding="UTF-8"?>
<svg width="1150px" height="368px" viewBox="0 0 1150 368" version="1.1" xmlns="http://www.w3.org/2000/svg" xmlns:xlink="http://www.w3.org/1999/xlink">
    <!-- Generator: Sketch 60.1 (88133) - https://sketch.com -->
    <title>epdp/exp/m-d/scripting/napoli_L</title>
    <desc>Created with Sketch.</desc>
    <g id="epdp/exp/m-d/scripting/napoli" stroke="none" stroke-width="1" fill="none" fill-rule="evenodd">
        <g id="Group-3" transform="translate(145.000000, 106.000000)" fill="#FEFEFE">
            <path d="M269.205655,47.5055455 C269.16045,47.5347955 269.116132,47.5640455 269.071814,47.5941818 C269.08245,47.5613864 269.094859,47.5294773 269.109041,47.4931364 C269.112586,47.4895909 269.205655,47.5055455 269.205655,47.5055455 M362.307518,49.6399091 C361.438882,49.6399091 360.6057,49.63725 359.772518,49.6399091 C357.67095,49.6478864 357.657655,49.6337045 357.374905,47.4310909 C357.360723,47.3158636 357.24195,47.2148182 357.098359,46.9958864 C356.197814,47.5835455 355.581791,48.4317955 354.974632,49.2702955 C353.645086,51.1059545 352.167518,52.8051136 350.528632,54.3748636 C349.55895,55.3028864 348.586609,56.2495227 347.758745,57.30075 C344.657359,61.2344318 341.594973,65.1947045 339.49695,69.8029091 C337.848314,73.4245909 336.784677,77.2164545 335.880586,81.2848636 C337.268632,81.5720455 338.1027,80.8009091 338.966018,80.2823864 C340.356723,79.443 341.640177,78.429 343.018473,77.5665682 C347.040791,75.0484091 350.193586,71.6155227 353.10795,67.9530682 C354.692768,65.9631818 356.13045,63.85275 357.582314,61.7609318 C359.6502,58.7800909 361.251859,55.5661364 362.265859,52.0676591 C362.506064,51.2415682 362.756018,50.4402955 362.307518,49.6399091 M409.15095,56.5083409 C407.614882,59.7683864 406.0212,63.0009545 404.530336,66.2822727 C403.918745,67.6268864 403.509245,69.0645682 403.010223,70.4605909 C401.48745,74.7204545 399.952268,78.9758864 398.448109,83.2419545 C397.790427,85.1095227 397.225814,87.009 396.561041,88.8739091 C396.101018,90.1635682 395.934382,90.3284318 394.780336,91.4869091 C393.822177,91.3309091 393.222995,90.8434091 392.852495,89.8373864 C391.588541,86.41425 391.5327,86.424 392.57595,82.8962727 C393.762791,78.8792727 395.495632,75.0803182 397.288745,71.3070682 C398.714905,68.3040682 400.071927,65.2682727 401.518473,62.2759091 C402.442064,60.3657955 403.480882,58.5106364 404.453223,56.6235682 C404.678359,56.1857045 404.926541,55.731 405.009859,55.2567955 C405.072791,54.8995909 404.888427,54.4998409 404.776745,53.9245909 C404.247586,54.2357045 403.848723,54.3775227 403.571291,54.6452045 C398.118382,59.8977955 392.685859,65.1734318 387.665495,70.8497045 C384.531314,74.3933864 381.384723,77.9290909 378.357791,81.5631818 C376.601905,83.6718409 375.130541,85.9941136 373.888745,88.4706136 C373.043155,90.1547045 371.852768,91.6615227 370.926518,93.3092727 C370.159814,94.6725 369.188359,95.8637727 368.223109,97.0718864 C368.091927,97.2349773 368.040518,97.4734091 367.892495,97.6134545 C365.751927,99.6379091 364.460495,99.5395227 363.159314,97.2996818 C361.865223,95.0740227 361.080791,92.6728636 360.863632,90.09 C360.706745,88.2242045 360.918586,86.4257727 361.552336,84.6574773 C362.773745,81.2458636 364.331086,77.9893636 366.078995,74.8259318 C369.333723,68.9369318 372.636314,63.0736364 375.923836,57.2023636 C377.583995,54.2365909 379.238836,51.2655 380.925586,48.3139091 C381.872223,46.6572955 382.946495,45.0715909 383.842609,43.3892727 C384.705041,41.7707727 385.461109,40.0893409 386.169314,38.3955 C386.600973,37.3646591 386.957291,36.2735455 386.645291,34.8411818 C385.362723,35.2923409 384.2787,35.6371364 383.229245,36.3116591 C381.157814,37.6438636 378.902018,38.6871136 376.752586,39.9023182 C374.10945,41.3958409 371.245609,42.4869545 368.793041,44.3359091 C367.624814,45.2169545 367.0212,46.2983182 367.037155,47.7608182 C367.063745,50.3933182 366.774791,52.9575682 365.567564,55.37025 C365.1687,56.1670909 365.101336,57.12525 364.763632,57.9602045 C363.135382,61.9851818 360.548086,65.4499773 358.219609,69.0663409 C357.186109,70.6715455 356.269609,72.3715909 355.080109,73.8527045 C352.872177,76.6013182 350.61195,79.3251136 348.172677,81.8680909 C345.392155,84.7656136 341.989405,86.8459091 338.078768,87.81825 C335.788405,88.3890682 333.620359,87.5035909 331.734177,86.1394773 C331.054336,85.6475455 330.504791,84.9694773 329.924223,84.34725 C329.271859,83.6487955 328.991768,82.7837045 328.868564,81.8468182 C328.757768,81.0083182 328.663814,80.1574091 328.44045,79.3446136 C327.603723,76.3070455 327.779223,73.2845455 328.685086,70.3276364 C330.176836,65.4597273 332.671064,61.1395909 335.980745,57.2528864 C338.888018,53.8386136 342.1392,50.8107955 345.637677,48.0311591 C347.907655,46.2274091 350.14395,44.3704773 352.509655,42.6987955 C354.611223,41.2141364 357.046064,40.3951364 359.586382,39.9785455 C360.330927,39.8562273 361.1127,39.9590455 362.001723,39.9590455 C362.315495,40.6025455 362.613314,41.2114773 362.937723,41.8771364 C362.348291,42.42225 361.844836,42.8858182 361.341382,43.3511591 L361.471677,43.6135227 C361.761518,43.5523636 362.083268,43.5488182 362.337655,43.4185227 C363.344564,42.8991136 364.303609,42.2795455 365.330018,41.8044545 C371.493791,38.9494773 377.661995,36.0989318 383.857677,33.3122045 C384.802541,32.8876364 385.892768,32.67225 386.933359,32.59425 C389.313245,32.4178636 390.930859,33.8475682 392.268382,35.5573636 C392.998745,36.4898182 393.510177,37.6066364 394.046427,38.6764773 C395.691518,41.964 395.203132,45.2541818 393.99945,48.5399318 C393.079405,51.0492273 391.873064,53.4441818 391.236655,56.0731364 C390.961882,57.2103409 390.229745,58.2447273 389.661586,59.3030455 C388.792064,60.9224318 387.874677,62.5161136 387.002495,64.1337273 C386.740132,64.6203409 386.5602,65.1521591 386.279223,65.8142727 C387.224086,65.8355455 387.599905,65.2053409 388.057268,64.7754545 C390.120723,62.8360909 392.115041,60.8222727 394.221041,58.9325455 C397.698245,55.809 401.190518,52.6969773 404.9487,49.91025 C406.019427,49.1160682 407.024564,48.2270455 408.418814,47.9327727 C409.410655,47.7235909 410.354632,47.6181136 411.290632,47.8902273 C411.839291,48.555 411.697473,49.2357273 411.557427,49.9501364 C411.101836,52.2662045 410.146336,54.3943636 409.15095,56.5083409 M323.479473,47.5791136 C322.382155,47.8645227 321.579995,48.5470227 320.957768,49.4209773 C319.193018,51.89925 317.405223,54.366 315.754814,56.9196136 C312.868814,61.3806818 311.131541,66.2920227 310.333814,71.5410682 C310.131723,72.8697273 310.459677,73.3155682 312.042723,73.3403864 C312.2262,73.2508636 312.787268,73.0975227 313.184359,72.7536136 C313.982086,72.0631364 314.807291,71.3522727 315.411791,70.5004773 C317.047132,68.20125 318.596495,65.8382045 320.132564,63.4698409 C320.821268,62.4070909 321.466541,61.3026818 322.010768,60.1592727 C323.373109,57.2927727 324.521836,54.3199091 326.545405,51.8044091 C327.422018,50.7150682 327.396314,49.7489318 326.668609,48.6879545 C326.021564,47.74575 324.601609,47.2866136 323.479473,47.5791136 M331.69695,41.1095455 C332.88645,40.7106818 333.782564,39.9670227 334.611314,39.0939545 C335.484382,38.1739091 336.252859,37.1333182 337.218109,36.3267273 C338.44395,35.3012045 338.292382,34.0842273 337.914791,32.8575 C337.532768,31.6183636 336.674768,30.8463409 335.264564,30.8029091 C334.375541,30.7763182 333.49095,30.6238636 332.469859,30.5130682 C330.284973,33.2944773 328.803859,36.5988409 327.75795,40.0813636 C329.489018,41.7964773 329.658314,41.7947045 331.69695,41.1095455 M423.791018,70.2203864 C424.861745,69.6699545 425.556655,69.3588409 426.2037,68.9706136 C428.328314,67.6960227 430.4547,66.4240909 432.547405,65.0972045 C437.642223,61.8655227 442.501268,58.31475 446.822291,54.0894545 C449.063018,51.89925 450.905768,49.40325 452.015495,46.4126591 C452.373586,45.4456364 452.278745,44.5885227 451.782382,43.7775 C451.424291,43.1925 450.9102,42.7032273 450.357109,42.0428864 C449.367927,43.3804091 448.071177,43.8679091 446.713268,44.2756364 C446.252359,44.4147955 445.842859,44.7294545 445.4112,44.9687727 C442.579268,46.5340909 440.3802,48.8111591 438.387655,51.3009545 C437.204359,52.7794091 435.7587,54.0389318 434.776609,55.6875682 C434.565655,56.043 434.193382,56.2991591 433.902655,56.6093864 C433.224586,57.33 432.532336,58.0382045 431.879973,58.7818636 C429.035632,62.0215227 426.533427,65.5164545 424.194314,69.1319318 C424.06845,69.3278182 424.025018,69.5768864 423.791018,70.2203864 M476.719336,63.9963409 C476.779609,64.2525 476.879768,64.4350909 476.830132,64.49625 C475.047655,66.7032955 473.009905,68.6054318 470.590132,70.1335227 C468.442473,71.4896591 466.456132,73.0984091 464.343041,74.5139318 C462.759995,75.5740227 461.078564,76.48875 459.46095,77.5000909 C458.382245,78.1737273 457.354064,78.92625 456.275359,79.599 C454.491995,80.7105 452.677609,81.7741364 450.859677,82.82625 C449.229655,83.7684545 447.683836,84.9145227 446.033427,85.8700227 C443.471836,87.3529091 440.917336,88.8482045 438.370814,90.3541364 C436.796632,91.2857045 435.047836,91.9903636 433.600405,93.0362727 C431.105291,94.83825 428.322109,95.9896364 425.563745,97.17825 C423.637677,98.0087727 421.525473,98.6239091 419.445177,98.8304318 C415.663064,99.2080227 412.675132,97.4539091 410.625859,94.3480909 C409.505495,92.6498182 408.6732,90.7352727 407.898518,88.8428864 C407.10345,86.9008636 407.162836,84.8241136 407.434064,82.7606591 C408.177723,77.1074318 410.201291,71.9239773 413.385995,67.2280227 C415.569109,64.00875 417.917973,60.8967273 420.288995,57.8112955 C423.545495,53.5744773 427.458791,49.9776136 431.645973,46.6847727 C433.813132,44.9802955 436.007768,43.2891136 438.327382,41.8071136 C440.461745,40.4438864 442.686518,39.20475 445.209995,38.5656818 C446.757586,38.1730227 448.259973,38.2563409 449.774768,38.3786591 C450.515768,39.1240909 451.271836,39.858 451.998655,40.6193864 C452.633291,41.2850455 453.312245,41.9267727 453.837859,42.6730909 C456.042245,45.8028409 455.810905,49.0398409 454.054132,52.2546818 C452.717495,54.7037045 450.833086,56.7485455 448.769632,58.5815455 C446.818745,60.3152727 444.730473,61.9036364 442.628018,63.4547727 C437.897495,66.9426136 432.9117,70.0377955 427.772564,72.8865682 C425.362541,74.2240909 422.967586,75.5935227 420.503495,76.8264545 C419.602064,77.2776136 419.011745,77.8812273 418.633268,78.7418864 C418.1502,79.8409773 417.658268,80.9445 417.276245,82.0808182 C416.689473,83.8260682 416.166518,85.5934773 415.66395,87.3653182 C415.13745,89.22225 414.996518,91.1048864 415.422859,93.0025909 C417.464155,93.9598636 419.407064,93.3748636 421.254245,92.7180682 C424.447814,91.58175 427.530586,90.1688864 430.626655,88.7755227 C439.0932,84.9650455 447.073132,80.2593409 455.195768,75.8133409 C460.782518,72.7536136 466.394973,69.7435227 471.986155,66.6917727 C473.284677,65.9835682 474.539768,65.1947045 475.819677,64.4501591 C476.103314,64.2852955 476.407336,64.1523409 476.719336,63.9963409 M171.246518,58.6905682 C171.947632,57.3645682 171.180927,56.0155227 169.686518,56.1201136 C168.578564,56.199 167.407677,56.4276818 166.411405,56.901 C161.736723,59.1204545 157.194109,61.5880909 152.921836,64.5281591 C151.118086,65.7690682 149.289518,66.9745227 147.473359,68.1950455 L147.191495,68.0443636 C147.436132,67.6384091 147.655064,67.2129545 147.932495,66.8309318 C148.220564,66.4329545 148.605245,66.105 148.880018,65.6999318 C151.557723,61.7423182 153.647768,57.5196818 154.647586,52.8068864 C155.322109,49.6283864 155.283995,46.4250682 154.387882,43.3396364 C152.483086,36.777 148.329586,32.0624318 142.093132,29.2287273 C137.492018,27.1377955 132.651586,25.8029318 127.723405,24.7570227 C124.466905,24.0665455 121.171405,23.6792045 117.85995,23.3672045 C114.474041,23.0472273 111.088132,22.8282955 107.693359,23.0729318 C105.012109,23.2652727 102.343268,23.6907273 99.6611318,23.7846818 C94.9509955,23.9513182 90.4810636,25.4980227 85.8347455,26.0200909 C84.1533136,26.2088864 83.9592,26.6343409 83.7305182,28.3521136 C83.6835409,28.7022273 83.53995,29.0443636 83.5275409,29.3927045 C83.4610636,31.1459318 83.3786318,32.9080227 84.4077,34.4582727 C85.0405636,34.3811591 85.6211318,34.1835 85.9313591,34.9165227 C85.9925182,35.061 86.2575409,35.1195 86.4321545,35.2214318 C86.7397227,34.6922727 87.0189273,34.2109773 87.30345,33.7217045 C87.8467909,33.6587727 88.3307455,33.6020455 88.4823136,33.5852045 C89.4112227,32.8450909 90.0316773,32.1315682 90.8152227,31.7770227 C91.9621773,31.2567273 93.2137227,30.9482727 94.44045,30.6265227 C100.7877,28.9601591 107.276768,28.5444545 113.80395,28.5019091 C118.422791,28.47 122.974268,29.0097955 127.525745,29.8092955 C132.296155,30.6460227 136.902586,31.9879773 141.379609,33.7545 C143.333155,34.5256364 145.346086,35.4917727 146.897223,36.8612045 C149.347132,39.0239318 150.687314,41.9356364 150.878768,45.2914091 C151.086177,48.9015682 149.890473,52.1341364 148.193086,55.2089318 C144.505814,61.8903409 139.457973,67.3725 133.278245,71.8193864 C131.156291,73.3448182 128.980268,74.7931364 126.835268,76.2875455 C126.198859,76.7307273 125.646655,77.3724545 124.947314,77.6365909 C122.619723,78.5149773 120.724677,80.1379091 118.497245,81.2042045 C115.262018,82.7509091 112.127836,84.5147727 108.916541,86.1226364 C104.478518,88.3465227 99.7967455,89.9756591 95.2098136,91.8379091 C94.8189273,91.9956818 94.3996773,92.0825455 93.9954955,92.2092955 C93.5638364,92.3440227 93.1357227,92.4858409 92.4913364,92.69325 C92.6358136,92.1188864 92.6624045,91.7687727 92.8059955,91.4745 C94.1151545,88.8065455 95.4482455,86.1501136 96.7662682,83.4848182 C98.8660636,79.2355909 100.231064,74.6876591 102.090655,70.3400455 C102.20145,70.0821136 102.266155,69.8037955 102.349473,69.5352273 C103.308518,66.4276364 104.264905,63.3165 105.835541,60.4482273 C106.784836,58.7145 107.873291,57.0543409 108.781814,55.302 C110.64495,51.7086818 112.706632,48.2713636 115.622768,45.4048636 C116.440882,44.6009318 117.235064,43.8386591 118.362518,43.4814545 C118.820768,43.3360909 119.256859,43.0604318 119.646859,42.7679318 C120.683018,41.9905909 120.590836,41.4109091 119.372086,40.8028636 C119.054768,40.6450909 118.733905,40.4952955 118.413927,40.3428409 C117.530223,39.9235909 116.736041,39.8792727 115.830177,40.47225 C113.642632,41.9019545 111.374427,43.2066818 109.14345,44.5707955 C105.329427,46.9045909 101.712177,49.5220227 98.2668818,52.3637045 C94.9341545,55.1123182 91.5845864,57.8565 88.4300182,60.8027727 C82.3229727,66.5074091 76.3533136,72.3600682 70.3109727,78.1356136 C69.3084955,79.0937727 68.2253591,79.9677273 67.1803364,80.8806818 C67.0837227,80.1760227 67.2397227,79.6539545 67.3930636,79.1318864 C68.2687909,76.1483864 69.2553136,73.19325 69.9901091,70.1760682 C70.7568136,67.0250455 71.9250409,63.9777273 72.3983591,60.75225 C72.4488818,60.4101136 72.6234955,60.0830455 72.7529045,59.7542045 C73.1668364,58.7020909 73.6171091,57.6623864 73.9955864,56.5978636 C74.5823591,54.94125 75.5484955,53.6099318 77.0349273,52.6375909 C77.6190409,52.2555682 78.1597227,51.7716136 78.6170864,51.2451136 C79.0700182,50.7230455 78.8697,49.8801136 78.2262,49.6399091 C77.2547455,49.2773864 76.3036773,48.8466136 75.1771091,49.3598182 C74.1941318,49.8074318 73.3077682,50.2940455 72.5446091,51.0811364 C71.7132,51.9400227 70.7949273,52.728 69.8456318,53.4574773 C66.2505409,56.2220455 62.5411091,58.8447955 59.0346545,61.7157273 C52.2849955,67.2422045 45.8544273,73.11525 40.0035409,79.6131818 C33.7387227,86.5693636 27.7885636,93.7728409 22.34895,101.393795 C22.1548364,101.665023 22.0103591,101.969932 21.7577455,102.407795 C22.3126091,102.660409 22.7416091,103.012295 23.1599727,102.999886 C23.5960636,102.988364 24.1261091,102.722455 24.43545,102.397159 C26.5317,100.198091 28.6377,98.0052273 30.6311318,95.7139773 C33.2769273,92.6719773 35.7631773,89.4908182 38.4284727,86.4665455 C41.4155182,83.0770909 44.4548591,79.7363864 47.5961318,76.4772273 C53.0215636,70.8479318 58.9052455,65.7708409 64.9724045,60.8798864 C65.2454045,60.6600682 65.5361318,60.1823182 65.9881773,60.5776364 C65.4155864,62.1305455 64.9360636,63.6932045 64.2730636,65.1734318 C62.6545636,68.7871364 61.01745,72.3955227 59.2642227,75.9454091 C56.9995636,80.5305682 54.4131545,84.9136364 50.3598136,88.2055909 C49.6002,88.8225 48.7067455,89.2754318 47.9551091,89.9003182 C46.5759273,91.0463864 45.0753136,91.9061591 43.3229727,92.3457955 C42.6440182,92.5159773 41.9916545,92.8244318 41.3543591,93.1275682 C40.4511545,93.5565682 40.3492227,94.3161818 41.1425182,94.9313182 C42.0350864,95.6244545 42.9276545,96.3663409 43.9345636,96.8502955 C45.2587909,97.4867045 46.6893818,97.9041818 48.0862909,98.3828182 C48.3380182,98.4696818 48.6633136,98.4599318 48.9230182,98.3863636 C50.5450636,97.9236818 52.2007909,97.5372273 53.7599045,96.9105682 C54.9201545,96.4443409 55.9252909,95.6040682 57.0465409,95.0190682 C58.3902682,94.3179545 59.4955636,93.3518182 60.5219727,92.2607045 C61.9277455,90.7671818 63.3122455,89.2506136 64.7774045,87.8164773 C72.6261545,80.13525 80.4926318,72.4726364 88.3617682,64.8126818 C93.5523136,59.7612955 99.2152909,55.2789545 105.046677,51.0004773 C105.2727,50.8356136 105.598882,50.8063636 105.878086,50.7124091 C105.491632,51.6909545 104.859655,52.3459773 104.365064,53.0922955 C102.371632,56.1041591 100.314382,59.0814545 98.4778364,62.1881591 C95.4562227,67.30425 92.5409727,72.4841591 89.6691545,77.6862273 C86.9675182,82.5789545 84.3465409,87.5177727 81.7539273,92.4698864 C79.6541318,96.4815682 77.7050182,100.573023 75.5910409,104.577614 C71.3586545,112.592114 67.0464955,120.563182 62.1963136,128.231114 C60.0052227,131.695023 58.1341091,135.379636 55.7497909,138.699955 C52.0784727,143.810727 48.5897455,149.088136 44.1207,153.583773 C43.5693818,154.138636 43.0996091,154.716545 42.8806773,155.613545 C44.6755636,156.233114 46.4146091,155.812091 48.1252909,155.79525 C48.4284273,155.792591 48.7670182,155.500977 49.0214045,155.267864 C49.5097909,154.819364 50.0176773,154.525091 50.7170182,154.543705 C51.0485182,154.552568 51.4004045,154.392136 51.71595,154.249432 C52.8744273,153.724705 54.0311318,153.193773 55.1692227,152.627386 C55.7976545,152.3145 56.4473591,151.998955 56.9853818,151.560205 C58.1908364,150.575455 59.3324727,149.512705 60.5015864,148.483636 C61.2851318,147.794045 61.9720636,146.870455 62.8841318,146.487545 C63.7563136,146.120591 64.2845864,145.584341 64.7410636,144.878795 C66.5838136,142.032682 68.7749045,139.440068 70.6938818,136.640932 C72.9798136,133.306432 75.2178818,129.95775 76.6777227,126.195136 C78.0914727,122.553955 79.9076318,119.112205 81.6138818,115.623477 C84.3208364,110.08725 86.9356091,104.516455 89.33145,98.8410682 C89.7710864,97.8004773 90.3153136,96.8033182 90.8010409,95.7822273 C91.0252909,95.3097955 91.3302,94.97475 91.8788591,94.8648409 C93.95295,94.4473636 95.9366318,93.60975 98.0931545,93.5734091 C98.6533364,93.5636591 99.2206091,93.47325 99.7683818,93.3491591 C102.382268,92.7526364 104.969564,92.1197727 107.523177,91.2334091 C111.899155,89.7132955 116.414291,88.5929318 120.625405,86.5986136 C120.813314,86.5099773 121.045541,86.5170682 121.241427,86.4399545 C124.659245,85.0873636 128.139109,83.8686136 131.476268,82.33875 C135.729041,80.3878636 139.634359,77.8112045 143.377473,74.9987727 C149.3817,70.4862955 155.4072,66.0039545 162.00795,62.3716364 C162.276518,62.2236136 162.600041,62.17575 163.31445,61.9488409 C162.556609,63.0842727 162.052268,63.8412273 161.547041,64.5964091 C160.681064,65.8913864 159.78495,67.16775 158.951768,68.4822273 C157.28895,71.1076364 155.635882,73.73925 154.023586,76.3965682 C152.445859,78.9989318 150.906245,81.6261136 149.385245,84.2639318 C148.66995,85.5021818 148.55295,86.7563864 149.29395,88.0974545 C150.0057,89.3853409 150.548155,90.7680682 151.22445,92.2358864 C151.774882,92.3342727 152.445859,92.4557045 153.126586,92.5780227 C154.214155,90.9462273 155.422268,89.5165227 156.203155,87.8838409 C158.150495,83.8083409 160.548109,79.9677273 162.242836,75.7548409 C163.293177,73.1462727 164.828359,70.7309318 166.156132,68.2340455 C167.849086,65.0502273 169.561541,61.8779318 171.246518,58.6905682 M321.969995,83.8925455 C320.575745,83.1666136 319.173518,82.5638864 317.639223,82.2208636 C315.284155,81.6934773 312.919336,81.354 310.503109,81.1793864 C308.437882,81.0304773 306.407223,81.0978409 304.3677,81.2919545 C301.904495,81.5259545 299.420018,81.6624545 296.991382,82.0967727 C290.449132,83.2676591 284.026541,84.9739091 277.625223,86.7377727 C274.151564,87.6950455 270.732859,88.8499773 267.284905,89.8976591 C266.834632,90.0341591 266.35245,90.0651818 265.599041,90.1937045 C265.957132,89.6042727 266.115791,89.2213636 266.379927,88.9368409 C267.050905,88.2109091 267.784814,87.5425909 268.4682,86.8264091 C271.932109,83.1985227 275.303836,79.4766818 278.873223,75.9551591 C281.783155,73.0824545 284.561905,70.0821136 287.564018,67.2927273 C289.935927,65.0892273 292.197927,62.7447955 294.677086,60.6707045 C297.325541,58.4539091 307.712836,50.8435909 309.321586,49.5681136 C312.758905,46.8452045 316.218382,44.1488864 319.364086,41.0873864 C320.203473,40.2701591 320.929405,39.2987045 321.545427,38.2988864 C322.748223,36.3497727 322.189814,34.2934091 321.451473,32.3957045 C320.921427,31.0333636 320.005814,29.8013182 319.151359,28.5905455 C318.311086,27.4001591 317.173882,26.5767273 315.636927,26.4739091 C313.450268,26.3276591 311.265382,26.0989773 309.076064,26.0387045 C305.047541,25.9287955 301.008382,25.7470909 296.987836,25.9128409 C292.81395,26.0839091 273.502745,25.9323409 270.758564,26.0723864 C268.485927,26.1876136 266.232791,26.1246818 264.035495,25.5317045 C262.563245,25.1346136 262.197177,25.1904545 261.458836,26.4552955 C260.558291,27.9957955 259.814632,29.5708636 260.150564,31.4499545 C260.235655,31.9250455 260.166518,32.43825 260.103586,32.9266364 C259.949359,34.1356364 260.26845,35.1576136 261.351586,36.1521136 C262.658973,36.2380909 264.132995,36.3976364 265.609677,36.4189091 C269.217177,36.4703182 285.808132,36.9702273 286.153814,37.0358182 C287.950473,37.3761818 289.735609,37.8902727 291.548223,38.0187955 C294.718745,38.2430455 297.906109,38.2262045 301.086382,38.3192727 C302.426564,38.3582727 303.775609,38.3414318 305.104268,38.4921136 C306.243245,38.6215227 307.359177,38.9530227 308.639973,39.2269091 C308.360768,39.5841136 308.222495,39.8216591 308.029268,39.9998182 C305.324086,42.4993636 292.684541,52.6092273 287.340655,57.8848636 C278.866132,66.2494773 270.719564,74.9322955 262.7742,83.7985909 C259.6542,87.2793409 256.687541,90.9001364 253.730632,94.5218182 C252.788427,95.6749773 252.051859,96.9345 250.490086,97.4184545 C249.870518,97.6099091 249.262473,98.0061136 248.962882,98.7745909 C247.910768,101.470909 247.771609,104.25675 248.027768,107.083364 C248.082723,107.68875 248.393836,108.271091 248.674814,109.135295 C250.067291,108.48825 250.824245,107.526545 251.757586,106.803273 C252.531382,106.204091 253.283905,105.560591 254.117086,105.053591 C255.077018,104.467705 256.087473,103.943864 257.123632,103.506 C261.160132,101.79975 265.109768,99.8603864 269.382927,98.7701591 C271.089177,98.3349545 272.792768,97.8279545 274.530041,97.6019318 C275.869336,97.4273182 277.180268,97.2340909 278.478791,96.8582727 C282.561382,95.6785227 286.721973,94.8542045 290.931314,94.2789545 C291.342586,94.2222273 291.812359,94.1894318 292.185518,94.3303636 C293.225223,94.7239091 294.277336,94.5909545 295.334768,94.5634773 C297.770495,94.4996591 300.171655,94.1273864 302.648155,94.3649318 C306.361132,94.7230227 310.112223,94.6849091 313.846473,94.8293864 C315.82395,94.9056136 317.801427,94.9924773 319.776245,95.1183409 C320.2602,95.1484773 320.753018,95.2982727 321.208609,95.4764318 C322.129541,95.8380682 323.036291,96.2404773 323.93595,96.6552955 C325.413518,97.3369091 326.191745,97.0231364 326.572882,95.4259091 C326.867155,94.1903182 327.047973,92.9219318 327.194223,91.6579773 C327.248291,91.1846591 327.119768,90.66525 326.974405,90.1990227 C326.119064,87.4583864 324.607814,85.2655227 321.969995,83.8925455 M161.301518,47.94075 C162.851768,48.6870682 164.34795,48.9512045 165.782973,47.5737955 C166.377723,47.0038636 167.216223,46.6945227 167.915564,46.2256364 C169.962177,44.8535455 172.309268,43.9521136 174.113018,42.1891364 C174.544677,41.7663409 175.212995,41.5704545 175.793564,41.3222727 C176.953814,40.8276818 178.129132,40.3685455 179.252155,39.9138409 C179.210495,37.4435455 178.041382,35.4855682 175.964632,34.0984091 C174.477314,33.1056818 173.117632,33.072 171.470768,33.9113864 C170.072086,34.6240227 168.834723,35.5165909 167.568995,36.3914318 C164.804427,38.3024318 162.532677,40.7292955 160.52595,43.3963636 C159.949814,44.1630682 159.622745,45.1167955 159.244268,45.8604545 C159.761018,46.9444773 160.460359,47.5356818 161.301518,47.94075 M29.9211545,57.1828636 C30.1737682,56.6005227 30.4990636,56.0483182 30.7463591,55.4633182 C32.9463136,50.2506136 35.3191091,45.123 38.0686091,40.1726591 C40.2331091,36.2770909 42.2416091,32.2902273 44.5355182,28.4735455 C46.3649727,25.4306591 48.01095,22.3159773 49.4016545,19.0568182 C49.8732,17.9506364 50.6381318,16.8834545 50.7710864,15.7409318 C50.9120182,14.5266136 50.4644045,13.2440455 50.2667455,11.9916136 C50.2002682,11.5759091 50.2029273,11.1141136 50.0141318,10.7595682 C49.6560409,10.0877045 49.3156773,9.28820455 48.73245,8.87604545 C46.8950182,7.57663636 44.9937682,6.35079545 42.8407909,5.37402273 C42.6227455,5.82518182 42.4011545,6.17529545 42.27795,6.55820455 C42.0182455,7.36479545 41.9207455,8.24140909 41.5582227,8.99481818 C40.5167455,11.16375 39.4318364,13.3149545 38.2636091,15.4174091 C36.0299727,19.4388409 33.7865864,23.4567273 31.4386091,27.4116818 C27.0156545,34.8633409 23.5260409,42.7608409 20.1605182,50.7195 C17.7629045,56.3877955 15.46545,62.09775 13.0341545,67.7518636 C10.9644955,72.5639318 8.72376818,77.3006591 6.64347273,82.1082955 C4.81667727,86.3318182 3.03154091,90.5854773 2.16822273,95.1369545 C1.79860909,97.0869545 1.30933636,98.9952955 0.781063636,100.903636 C0.406131818,102.261545 0.230631818,103.6815 0.0489272727,105.083727 C-0.0999818182,106.227136 0.0843818182,107.334205 0.689768182,108.358841 C1.36340455,109.500477 4.39565455,111.515182 5.7057,111.639273 C6.6417,111.728795 6.96699545,111.487705 7.37029091,110.443568 C7.49260909,110.128023 7.58479091,109.691932 7.82854091,109.553659 C8.69806364,109.058182 8.80797273,108.226773 8.98081364,107.391818 C9.09515455,106.8405 9.22190455,106.289182 9.39297273,105.754705 C9.73599545,104.682205 10.1304273,103.625659 10.4707909,102.552273 C10.7889955,101.54625 10.9733591,100.487045 11.3731091,99.5173636 C13.1245636,95.2707955 14.8760182,91.0224545 16.7356091,86.8219773 C18.8229955,82.10475 21.0699273,77.4575455 23.1670636,72.7438636 C25.4654045,67.5781364 27.6689045,62.3698636 29.9211545,57.1828636 M253.451427,68.1604773 C255.074359,65.6671364 257.019041,63.4326136 258.977905,61.2149318 C261.695495,58.1383636 264.491973,55.1256136 266.745109,51.6785455 C267.589814,50.3871136 268.7022,49.22775 269.067382,47.6588864 C268.783745,47.9717727 268.506314,48.2926364 268.20495,48.5869091 C266.027155,50.7159545 263.766927,52.7678864 261.677768,54.9793636 C258.859132,57.9628636 256.079495,60.9924545 253.451427,64.1417045 C250.776382,67.3467955 248.23695,70.6724318 245.763995,74.0370682 C243.499336,77.1171818 241.407518,80.3249318 239.227064,83.4679773 C238.970905,83.8367045 238.634973,84.1504773 238.336268,84.4899545 C238.291064,83.7808636 238.437314,83.1710455 238.658018,82.5895909 C240.264995,78.3589773 241.872859,74.1274773 243.509086,69.9075 C244.632995,67.0090909 245.861495,64.1505682 246.934882,61.2335455 C247.740586,59.0433409 248.425745,56.8035 248.700518,54.4635 C248.876905,52.9646591 248.364586,51.8008636 247.043905,51.0837955 C246.582995,50.8347273 245.915564,50.9490682 245.475927,50.6796136 C244.133973,49.8597273 242.823927,50.12475 241.669882,50.4465 C241.130086,51.2628409 240.809223,51.9878864 240.283609,52.5046364 C236.192155,56.5260682 232.070564,60.5173636 227.93745,64.49625 C226.560927,65.82225 225.249995,67.2741136 223.680245,68.3288864 C221.788745,69.5999318 220.067427,71.0500227 218.321291,72.4885909 C217.624609,73.0611818 216.855245,73.5460227 215.73045,74.3472955 C216.173632,73.1427273 216.435995,72.3653864 216.746223,71.6075455 C216.959836,71.0890227 217.234609,70.5953182 217.492541,70.0954091 C218.708632,67.7421136 220.486677,65.8054091 222.186723,63.81375 C223.241495,62.5790455 224.220927,61.2565909 225.413086,60.1681364 C227.502245,58.2633409 229.697768,56.4702273 231.907473,54.7037045 C233.616382,53.3369318 235.30845,51.8965909 237.19995,50.8276364 C239.281132,49.6514318 241.544905,48.7659545 243.797155,47.9398636 C245.37045,47.3646136 247.031495,46.8593864 248.750155,47.6438182 C249.520405,47.9957045 250.266723,47.5729091 251.005064,47.3353636 C252.675859,46.7937955 253.4922,45.19125 252.338155,43.2261818 C251.892314,42.4656818 251.353405,42.0925227 250.457291,42.1634318 C249.539905,42.237 248.603905,42.1341818 247.697155,42.2627045 C246.020155,42.4993636 244.253632,42.5853409 242.713132,43.2049091 C239.703041,44.4183409 236.7807,45.8374091 234.059564,47.6863636 C230.239336,50.2825227 226.710723,53.2243636 223.214905,56.2167273 C220.898836,58.1986364 218.754723,60.3737727 216.872973,62.7687273 C213.533155,67.0215 210.941427,71.7555682 208.461382,76.5348409 C207.358745,78.6576818 207.031677,80.9702045 208.113927,83.3048864 C208.436564,84.0015682 208.527859,84.8010682 208.767177,85.5411818 C209.046382,86.4045 209.370791,87.25275 209.615427,87.9405682 C210.480518,88.3908409 211.003473,88.101 211.592905,87.7783636 C214.400018,86.2422955 216.935018,84.3428182 219.293632,82.1960455 C222.433132,79.3392955 225.562882,76.4701364 228.693518,73.60275 C229.111882,73.2207273 229.520495,72.8262955 229.921132,72.4256591 C231.002495,71.34075 232.077655,70.2478636 233.155473,69.1594091 C233.127995,70.3834773 232.635177,71.3912727 232.254927,72.4354091 C230.797745,76.4249318 229.325495,80.40825 227.897564,84.4084091 C227.182268,86.4089318 227.160109,88.4351591 227.931245,90.4427727 C228.713905,92.4831818 229.486814,94.5280227 230.280995,96.564 C230.353677,96.74925 230.544245,96.8884091 230.631995,96.9912273 C231.628268,97.0869545 232.527041,97.1720455 233.483427,97.2642273 C233.656268,97.0346591 233.8557,96.8325682 233.980677,96.5923636 C234.963655,94.7088409 236.159359,92.98575 237.441927,91.2821591 C239.899814,88.0194545 242.220314,84.6583636 244.417609,81.198 C246.79395,77.454 248.999223,73.5690682 251.84445,70.1299773 C252.384245,69.4767273 252.992291,68.8669091 253.451427,68.1604773 M210.126859,51.6040909 C206.822495,54.4794545 203.521677,57.3893864 200.502723,60.55725 C197.942018,63.2429318 195.600245,66.15375 193.472086,69.2320909 C191.464473,72.1349318 189.410768,74.9987727 187.6602,78.0673636 C187.488245,78.3696136 187.247155,78.6461591 186.991882,78.8845909 C186.251768,79.5768409 185.799723,80.3931818 185.508995,81.3788182 C185.3202,82.0187727 184.892973,82.7447045 184.354064,83.0895 C183.442882,83.6736136 183.072382,84.5289545 182.5902,85.3905 C181.418427,87.48675 180.237791,89.5865455 178.933064,91.6003636 C177.078791,94.4624318 175.506382,97.4450455 174.402859,100.677614 C174.180382,101.330864 173.824064,101.969045 173.400382,102.515932 C172.532632,103.633636 170.981495,103.867636 169.786677,103.127523 C169.560655,102.987477 169.268155,102.77475 169.221177,102.552273 C168.960586,101.290091 167.999768,100.495909 167.276495,99.5528182 C166.262495,98.2294773 165.871609,96.80775 166.326314,95.1777273 C167.427177,91.2192273 168.629973,87.2944091 170.291018,83.5291364 C171.549655,80.6785909 172.83045,77.8386818 174.136064,75.0094091 C174.488836,74.24625 174.967473,73.5415909 175.387609,72.8103409 C175.526768,72.5683636 175.731518,72.3423409 175.79445,72.0835227 C176.663086,68.4565227 178.589155,65.3001818 180.24045,62.0215227 C181.546064,59.4297955 182.879155,56.8513636 184.121836,54.2303864 C185.664109,50.9756591 187.282609,47.7705682 189.0447,44.6230909 C190.1367,42.6722045 191.457382,40.9881136 192.971291,39.4077273 C193.501336,38.85375 194.107609,38.3724545 194.732495,37.8096136 C198.078518,39.8571136 200.126905,42.1457045 200.901586,44.6443636 C200.757109,44.8836818 200.620609,45.2187273 200.391927,45.4713409 C198.136132,47.9655682 196.554859,50.8887955 195.105655,53.8785 C193.347109,57.5081591 191.695814,61.1892273 190.011723,64.8543409 C189.816723,65.2806818 189.709473,65.7477955 189.419632,66.6226364 C190.028564,66.1883182 190.317518,66.0500455 190.514291,65.8302273 C192.355268,63.7791818 194.133314,61.66875 196.024814,59.6673409 C197.820586,57.7660909 199.658905,55.8932045 201.608018,54.1541591 C205.040905,51.0908864 208.577495,48.1455 212.537768,45.7585227 C213.888586,44.9448409 215.3502,44.4440455 216.897791,44.1958636 C217.819609,44.0487273 218.726359,44.1027955 219.636655,44.7179318 C219.681859,45.4429773 219.7767,46.2043636 219.766064,46.96575 C219.750995,48.05775 219.4062,49.0433864 218.650132,49.8756818 C218.222905,50.3445682 217.849745,50.8639773 217.468609,51.3736364 C216.414723,52.7856136 216.418268,52.7882727 214.346836,51.9737045 C214.254655,51.0873409 214.156268,50.1318409 214.041927,49.0407273 C212.462427,49.6150909 211.248109,50.6273182 210.126859,51.6040909 M717.558518,66.4941136 C717.196882,65.0333864 715.347041,61.3407955 713.268518,62.8901591 C712.497382,63.4662955 711.887564,64.5015682 711.306995,65.2434545 C709.424359,67.6463864 707.664927,70.1397273 705.918791,72.6357273 C703.099268,76.6633636 700.155655,80.6989773 697.670291,84.9331364 C694.817973,89.7921818 691.250359,95.0784545 690.664473,100.771568 C690.578495,101.60475 690.773495,103.546773 692.118995,103.332273 C692.496586,103.272886 692.816564,103.049523 693.1197,102.830591 C696.879655,100.119205 700.418018,97.1064545 703.622223,93.8082955 C709.170859,88.0965682 713.717018,81.5303864 716.686336,74.1939545 C717.656905,71.7954545 718.194927,69.0601364 717.558518,66.4941136 M758.740745,34.8828409 C761.716268,32.14575 787.817905,8.775 781.257927,5.56636364 C779.961177,4.93172727 778.48095,5.00529545 777.25245,5.70109091 C775.700427,6.58036364 774.835336,8.29813636 773.887814,9.69859091 C772.809109,11.2940455 771.729518,12.8868409 770.665882,14.4920455 C770.221814,15.1630227 769.779518,15.8348864 769.342541,16.5094091 C767.666427,19.0993636 766.054132,21.7283182 764.591632,24.4370455 C763.634359,26.2097727 762.692155,27.9904773 761.721586,29.7578864 C761.234973,30.6407045 760.742155,31.5199773 760.236927,32.3921591 C759.807927,33.1322727 759.377155,34.2978409 758.740745,34.8828409 M857.736927,66.4994318 C855.936723,66.4976591 853.530245,65.2390227 851.684836,64.9092955 C849.554905,64.5290455 847.396609,64.3313864 845.238314,64.2906136 C836.806336,64.1284091 828.649132,66.3797727 820.689586,68.6674773 C812.621018,70.9870909 805.037291,73.89525 797.681359,77.8076591 C790.628564,81.5578636 783.904609,85.8088636 777.059223,89.8799318 C774.718336,91.2715227 772.490905,92.8217727 770.052518,94.0653409 C767.510427,95.3620909 762.660245,96.8432045 759.723723,95.8238864 C758.445586,95.3807045 757.381064,94.4455909 756.687041,93.3261136 C754.339064,89.5422273 756.020495,84.8161364 757.903132,81.2733409 C759.306245,78.6328636 761.823518,74.1700227 763.630814,71.1386591 C759.621791,74.8427727 753.038768,81.3531136 749.547382,85.6564091 C743.991655,92.5071136 739.233655,99.9153409 733.540541,106.672091 C732.208336,108.253364 730.792814,109.757523 729.429586,111.311318 C728.850791,111.972545 728.177155,112.599205 727.326245,112.892591 C724.098109,114.002318 720.908973,110.443568 720.258382,107.778273 C719.879018,106.219159 719.923336,104.603318 720.053632,103.016727 C720.516314,97.344 722.024905,91.8228409 723.859677,86.4497045 C727.670155,75.2930455 731.703109,64.0459773 737.661245,53.7641591 C737.710882,53.6781818 737.602745,53.5895455 737.527405,53.6551364 C734.483632,56.2858636 728.713405,61.6793864 722.04795,62.9140909 C724.375541,65.1016364 724.757564,68.094 724.131791,70.9959545 C723.257836,75.0546136 721.2972,79.1150455 719.264768,82.8625909 C716.884882,87.2509773 714.193882,91.4745 711.124405,95.4454091 C706.4187,101.532955 700.949836,107.056773 694.135473,110.277818 C691.3842,111.578114 685.948132,110.994 683.431745,109.337386 C680.41545,107.351932 678.408723,103.482068 678.447164,100.027023 C678.476086,97.6887955 679.179859,95.4197045 679.973155,93.2206364 C684.933245,79.4793409 693.717109,68.5371818 703.917382,58.0444091 C705.075859,56.85225 706.529495,55.9543636 708.186995,55.5289091 C709.318882,55.2381818 710.583723,55.1061136 711.743086,55.1681591 C712.441541,55.2053864 714.773564,55.2071591 716.047268,55.7239091 C717.872291,56.4649091 718.36245,58.1950909 718.784359,59.6921591 C718.872995,60.0032727 721.563995,59.1302045 721.883086,59.0265 C723.683291,58.4432727 725.364723,57.5595682 726.938018,56.5765909 C728.222359,55.7753182 742.114336,45.38625 743.02995,44.0363182 C743.903905,42.7466591 749.849632,30.6380455 751.708336,27.6235227 C755.340655,21.7309773 759.282314,15.8800909 763.677791,10.4839091 C767.494473,5.79859091 772.886223,1.37386364 779.549018,1.65129545 C783.293905,1.80729545 787.973905,2.90018182 786.72945,7.25843182 C784.275109,15.8526136 777.733745,21.73275 771.303177,27.7422955 C766.194177,32.5180227 760.623382,36.9223636 755.898177,42.0597273 C751.468132,46.8762273 749.200814,53.3351591 746.394586,59.0841136 C739.261132,73.7011364 733.031768,89.0299091 730.100564,105.029659 C741.368018,90.3523636 752.240155,75.2584773 767.450155,63.9936818 C770.375155,61.8265227 771.906791,59.4696818 774.082814,56.5801364 C775.324609,54.9306136 775.989382,53.2615909 778.349768,54.2020227 C779.712995,54.7444773 783.077632,55.3791136 783.748609,56.7689318 C784.800723,58.9485 782.309155,61.8584318 781.314655,63.6160909 C780.851086,64.4368636 780.384859,65.25675 779.917745,66.0766364 C775.849336,73.2189545 771.326223,80.1423409 767.592859,87.4583864 C767.252495,88.1249318 766.928086,88.8074318 766.772973,89.5360227 C766.711814,89.8214318 766.734859,90.2061136 767.026473,90.2974091 C767.191336,90.3505909 767.365064,90.27525 767.518405,90.2025682 C773.272677,87.4716818 778.603268,84.0201818 784.073905,80.8266136 C790.893586,76.8459545 797.771768,72.8874545 805.187086,69.9642273 C812.926814,66.9124773 820.967018,64.2542727 829.188927,62.5914545 C836.852427,61.0403182 845.998814,59.7790227 853.775768,61.6350682 C855.307405,62.0011364 856.824859,62.5932273 858.025882,63.6081136 C859.253495,64.6433864 859.982973,66.5020909 857.736927,66.4994318 M689.3952,65.3374091 C691.115632,62.0383636 692.353882,58.3484318 691.385973,54.7134545 C690.319677,50.7070909 687.561314,47.3584091 684.244541,45.0095455 C681.167973,42.8308636 677.58795,41.4259773 673.927268,40.4110909 C657.519791,35.8649318 638.837905,39.2747727 624.614427,49.4103409 C623.805177,49.98825 622.982632,50.6166818 622.516405,51.4915227 C621.616745,53.1791591 622.331155,55.2700909 623.531291,56.6820682 C624.392836,57.6942955 626.037927,58.4778409 627.007609,57.5010682 C627.864723,56.6386364 627.39495,55.1734773 627.871814,54.0610909 C628.234336,53.2163864 629.087905,52.6952045 629.895382,52.2511364 C632.300973,50.9269091 634.788109,49.7604545 637.333745,48.7544318 C643.847632,46.1830909 651.418064,44.2561364 658.725245,44.2366364 C663.608223,44.2242273 669.229541,44.8189773 673.562973,46.9790455 C678.375927,49.3784318 683.141905,53.5496591 681.675859,59.4324545 C678.334268,72.8440227 659.204768,86.7129545 646.707041,92.9600455 C643.241359,94.6928864 640.101859,96.1784318 636.822314,98.2498636 C636.419018,98.5033636 636.421677,99.1007727 636.818768,99.3347727 C639.353768,100.829182 642.738791,100.295591 645.724064,99.6086591 C649.750814,98.6824091 653.645495,97.2305455 657.331882,95.3027045 C664.3377,91.6393636 671.025314,86.8937727 676.831882,81.4789773 C681.838064,76.8113864 686.232655,71.4010227 689.3952,65.3374091 M605.185336,74.3180455 C607.438473,72.1189773 607.822268,70.5970909 608.159973,67.6774091 C608.232655,67.0445455 607.500518,66.5366591 606.931473,66.8309318 C594.419564,73.2978409 584.928382,80.7681136 580.489473,94.3764545 C580.4487,94.5005455 580.602927,94.6264091 580.718155,94.5625909 C587.025518,91.0268864 592.283427,85.6218409 597.606041,80.9205682 C600.108245,78.7108636 602.803677,76.6438636 605.185336,74.3180455 M641.953473,82.9246364 C637.885064,92.1507955 633.668632,101.311364 629.640995,110.556136 C625.856223,119.243386 622.0032,127.999773 615.884632,135.331773 C613.331018,138.392386 610.181768,141.022227 606.203768,142.296818 C604.746586,142.763932 600.667541,144.128932 599.081836,144.040295 C596.225086,143.882523 598.440995,142.331386 599.261768,141.475159 C605.644473,134.804386 609.975245,126.178295 614.020609,117.98475 C618.823814,108.257795 623.330086,98.3801591 628.162541,88.6700455 C630.572564,83.8278409 633.081859,79.0352727 635.798564,74.3641364 C637.234473,71.8947273 638.727109,69.459 640.291541,67.0675909 C641.034314,65.9330455 641.749609,64.7781136 642.566836,63.6949773 C644.322723,61.3647273 643.009132,61.6279773 642.514541,62.2041136 C642.011086,62.7926591 618.028745,89.0742273 606.223268,103.420909 C604.154495,105.934636 601.316359,111.244841 597.572359,111.690682 C594.183791,112.093091 590.944132,108.793159 590.201359,105.759136 C589.445291,102.672818 591.461768,100.240636 592.749655,97.7605909 C594.7227,93.96075 596.495427,90.012 598.387814,86.1651818 C594.6252,89.3427955 590.94945,92.6161364 587.089336,95.6891591 C584.079245,98.0876591 579.045586,100.821205 574.993132,97.6365 C571.170245,94.6326136 573.722086,90.1919318 575.402632,87.2545227 C577.511291,83.5663636 580.105677,80.1636136 583.183132,77.2031591 C586.394427,74.1132955 590.187177,71.5969091 593.807086,68.9599773 C597.079541,66.5765455 601.0602,63.3953864 605.335132,62.7261818 C609.329973,62.1004091 610.710041,64.9305682 612.336518,67.9016591 C613.095245,69.2879318 614.919382,69.8614091 615.483109,71.4683864 C616.001632,72.9450682 615.144518,74.2143409 614.357427,75.3249545 C608.717495,83.2809545 605.202177,92.9130682 601.867677,102.074523 C614.442518,87.7349318 626.552905,72.5657045 640.753336,59.67975 C644.292586,56.4675682 647.995814,53.3218636 652.149314,50.8276364 C653.497473,50.0183864 657.497632,48.9653864 657.93195,51.3160227 C658.271427,53.1534545 655.3092,55.3099773 654.356359,56.7432273 C649.074518,64.6832727 645.795859,74.2116818 641.953473,82.9246364 M596.845541,36.2788636 C598.624473,32.6279318 601.030064,27.1360227 598.639541,23.4044318 C596.159495,19.5327955 587.404882,23.3565682 584.667791,24.8217273 C580.415018,27.0987955 576.351041,29.7383864 572.287064,32.3097273 C564.270791,37.3832727 556.722518,43.134 550.03845,49.7923636 C551.903359,46.4622955 553.800177,43.1481818 555.627859,39.7995 C559.43745,32.8220455 564.125427,24.4335 564.425018,16.2638864 C564.709541,8.48781818 559.021745,2.24959091 551.195155,1.13720455 C542.806609,-0.0540681818 534.386155,3.19711364 527.055041,6.50590909 C522.0462,8.76613636 517.1517,9.96272727 512.410541,13.9345227 C509.833882,16.8878864 514.204541,19.1968636 517.667564,19.032 C522.161427,18.7022727 524.886109,12.051 529.745155,10.0318636 C536.896336,7.06165909 545.92395,3.11556818 553.902109,6.06272727 C558.801041,7.87179545 557.795018,11.3560909 556.023177,16.6264091 C555.056155,19.5044318 553.930473,22.3292727 552.594723,25.0521818 C549.051041,32.2769318 544.579336,39.1790455 539.960495,45.7611818 C530.006632,59.9483182 519.9207,74.0627727 510.278836,88.4750455 C508.091291,91.7439545 506.066836,95.1192273 503.753427,98.3012727 C501.789245,101.001136 500.831973,103.933227 503.610723,106.71375 C507.043609,110.148409 510.213245,107.249114 512.383064,104.380841 C515.011132,100.906295 517.567405,97.3759091 520.105064,93.8366591 C525.027927,86.9770909 529.274495,79.6610455 534.2922,72.8777045 C539.397655,65.9764773 545.210427,59.6141591 551.284677,53.5257273 C557.33145,47.4647727 564.033245,42.2192727 571.047041,37.2520909 C574.619973,34.7215227 578.214177,32.2122273 581.931586,29.8810909 C584.8557,28.0480909 589.133291,24.7499318 591.855314,24.5540455 C592.134518,24.5345455 592.387132,24.75525 592.349905,25.0255909 C591.712609,29.7268636 587.9952,33.6738409 585.305086,37.3868182 C581.9697,41.9914773 578.694586,46.6395682 575.493927,51.3372955 C569.097927,60.723 563.126495,70.3666364 556.954745,79.8950455 C551.777495,87.8882727 546.185427,95.9648182 542.376723,104.725636 C540.942586,108.025568 538.692109,113.150523 540.677564,116.734091 C541.781086,118.724864 543.557359,119.591727 545.664245,120.194455 C547.38645,120.686386 551.671132,122.064682 553.415495,121.150841 C556.759745,119.3985 556.569177,113.739955 557.443132,110.602227 C558.67695,106.173068 560.220109,101.824568 561.985745,97.5638182 C565.460291,89.1805909 569.882359,81.0083182 574.425859,73.2632727 C581.678086,60.9002727 590.582495,49.1337955 596.845541,36.2788636 M786.114314,41.5802045 C786.666518,40.8383182 787.613155,39.2251364 788.687427,39.3208636 C789.604814,39.4015227 791.332336,40.7035909 791.958109,41.3240455 C794.263541,43.6099773 791.919109,46.6431136 789.835268,48.3085909 C788.590814,49.3030909 783.6192,51.2628409 782.36145,49.4954318 C781.900541,48.8492727 782.443882,48.03825 782.724859,47.4009545 C783.077632,46.5996818 783.467632,45.8125909 783.889541,45.0432273 C784.551655,43.8413182 785.294427,42.6837273 786.114314,41.5802045" id="Fill-1"></path>
        </g>
    </g>
</svg>