<?xml version="1.0" encoding="UTF-8"?>
<svg width="728px" height="100px" viewBox="0 0 728 100" version="1.1" xmlns="http://www.w3.org/2000/svg" xmlns:xlink="http://www.w3.org/1999/xlink">
    <title>Script/white/MEXICO</title>
    <g id="Script/white/MEXICO" stroke="none" stroke-width="1" fill="none" fill-rule="evenodd">
        <g id="logo/Barista-Creations" transform="translate(214.000000, 0.000000)" fill="#FFFFFF">
            <path d="M206.905968,37.6686757 C210.261504,37.7071452 214.511175,33.3500191 212.213682,30.3805419 C211.564491,29.540625 210.200729,29.5122309 209.407886,28.8655773 C208.607678,28.2125122 207.824965,28.58072 207.143544,28.7410095 C206.40319,28.915954 205.605743,29.4050659 205.120461,29.9921834 C204.149897,31.1618387 203.622257,32.589789 203.605682,34.1056695 C203.591869,35.3238696 203.578977,37.0504163 204.872756,37.5395282 C204.970365,37.5770817 206.789942,37.6677598 206.905968,37.6686757 M208.243946,85.7527728 C208.932734,86.0156476 209.710842,86.2061631 210.440147,86.1841805 C214.089431,86.069688 217.316049,84.6041842 220.201037,82.5634701 C222.679935,80.8085292 224.910206,78.6963718 227.189282,76.6739765 C229.916806,74.2549792 232.575268,71.758127 235.276088,69.3079878 C235.582727,69.030458 235.967638,68.8371947 236.315715,68.604546 C236.263227,69.0231305 236.235602,69.4462947 236.154568,69.8602996 C235.820304,71.575855 235.602065,73.2859148 236.661029,74.8494242 C237.343371,75.857874 238.032158,76.8709036 238.815792,77.8005826 C239.738472,78.8942148 241.077372,79.4776685 242.426401,79.3961499 C244.465137,79.272498 246.343648,78.3895319 247.874082,77.062335 C252.285821,73.2401178 255.728837,68.3315959 258.282322,63.193173 C259.053065,61.6443186 259.705939,60.0047862 260.147021,58.3359437 C260.564161,56.7605271 261.78243,50.3709303 263.338648,49.5136106 C265.661924,48.2340425 267.077253,48.24137 269.669414,47.6817308 C276.706464,46.1621865 283.31164,45.0328326 289.228949,43.8540179 C292.35888,43.2311788 292.823904,43.1762224 295.971331,42.6440613 C297.240246,42.4297314 300,41.6896519 300,41.6896519 C300,41.6896519 296.125111,41.5751594 290.178334,42.3005838 C285.848551,42.8281652 279.06289,44.1599418 274.740473,44.7342361 C271.700784,45.1381656 268.660175,45.5356836 265.616803,45.9148827 C264.500746,46.0541055 263.383769,46.1914965 262.265871,46.3197281 C261.522754,46.4058265 260.973013,46.3563657 260.28883,46.7090026 C259.63043,47.0479003 259.06964,47.7495103 258.767605,48.348535 C258.386377,49.1005217 257.992258,49.8497605 257.71969,50.649376 C255.188304,58.0758168 250.947842,64.0514087 246.211048,70.2285074 C245.79667,70.767996 241.51477,76.1473111 240.732978,74.7330998 C240.584723,74.4647295 240.651944,73.998516 240.674044,73.7017515 C240.996338,69.1779243 243.982618,65.159696 246.541629,61.6012695 C248.459736,58.9349684 255.286834,48.8852758 257.869787,47.9794112 C258.10368,47.8969766 258.321919,47.3263461 258.286006,47.0112627 C258.138672,45.7087962 257.076945,45.118015 255.598078,45.7591729 C254.143152,46.3902555 252.687306,47.1807116 251.486533,48.1983209 C249.187198,50.1446932 247.093211,52.3301258 244.868465,54.3662602 C240.039587,58.7847543 235.263196,63.2655323 230.311846,67.5429716 C226.109138,71.1737574 221.720421,74.5947929 217.354725,78.0341473 C215.961496,79.1314433 214.433824,80.0638701 212.797494,80.7599844 C212.163957,81.0292707 208.918921,82.5176731 208.348001,81.8499529 C207.513721,80.8708131 208.177646,77.1346943 208.330505,75.9485521 C208.595707,73.8886033 209.173073,71.8845267 209.937369,69.9546414 C213.305797,61.4574669 219.771005,54.7784331 226.75833,49.0538087 C228.102754,47.952849 235.939092,41.2527486 237.089219,45.1986177 C237.271545,45.8205409 237.773402,46.4342206 238.292755,46.8500573 C238.875646,47.3153548 239.979732,47.0268337 240.176792,46.5258146 C240.73482,45.1079396 239.833319,41.8957384 238.592949,40.972471 C235.885683,38.9574032 232.067886,38.6917806 229.095418,39.7817491 C227.262028,40.454049 215.425567,49.4806367 212.572809,52.0489322 C207.793656,56.3520179 203.094616,60.7494454 198.220617,64.9444501 C195.322737,67.4376385 192.423937,69.9931108 188.945008,71.7205735 C188.48551,71.9486425 187.950503,72.0264974 187.449566,72.1739638 C187.606109,71.6509621 187.667805,71.073004 187.934848,70.6132022 C188.828983,69.0735072 189.768238,67.5585426 190.742486,66.0683084 C191.521515,64.8775865 192.373291,63.7326616 193.199283,62.5721658 C194.484774,60.7677641 195.840249,59.0091595 197.042864,57.1525494 C198.077887,55.5542342 198.979388,53.865241 199.862472,52.1762479 C200.268562,51.3976989 200.823828,50.4771793 200.715169,49.7041261 C200.558626,48.5802678 200.044798,47.387714 199.337594,46.4965045 C198.824687,45.848935 197.757435,45.3698984 196.924997,45.3488318 C196.493123,45.3387565 195.970087,46.4534553 195.600831,47.1211755 C195.014256,48.1836658 194.609087,49.3496573 193.97555,50.3782578 C190.965328,55.2629653 187.911827,60.1201946 184.861089,64.9783399 C183.108733,67.7673769 182.219202,70.6342688 183.552577,73.9032583 C184.270831,75.6636948 185.551718,76.5915419 187.516787,76.2498963 C191.331822,75.5858399 194.142222,73.2556888 197.051152,71.088575 C199.37719,69.3556167 201.520903,67.3790184 203.753937,65.5187444 C203.918767,65.3822694 204.145293,65.3190695 204.342353,65.2219799 C204.289865,65.418907 204.270527,65.632321 204.180285,65.8118452 C202.546717,69.0698434 201.736379,72.5375919 201.499723,76.3561454 C201.345023,80.4558924 203.924292,84.104081 208.243946,85.7527728 M144.804604,42.786032 C143.345996,43.0360836 140.525467,44.3889268 140.252898,44.55288 C136.841191,46.6000057 133.76559,49.1646375 131.184479,52.1872391 C129.727712,53.8927192 128.411833,55.7172715 127.044388,57.4978587 C126.949541,57.6215106 126.921916,57.7955392 126.862982,57.9457533 C127.020446,57.8981244 127.196326,57.8807216 127.334452,57.7992029 C132.982877,54.4111412 138.37715,50.6713586 143.269566,46.2574442 C144.105688,45.5036257 144.789871,44.5565438 145.421566,43.6158735 C145.953811,42.8235855 145.563375,42.6550526 144.804604,42.786032 M116.291754,66.7470198 C116.433563,65.25129 116.787165,63.7015197 117.139846,62.1361784 C117.17668,61.9713092 117.173917,61.7981965 117.188651,61.6287477 C117.05605,61.7313329 116.896745,61.8119356 116.794532,61.9383353 C115.126893,63.9891248 113.494246,66.0673924 111.796219,68.0916196 C108.61288,71.8863586 105.676325,75.8761928 102.652291,79.7954997 C101.023327,81.9076571 99.4431678,84.0656115 97.6631866,86.0586967 C96.7626063,87.0680625 95.8113799,88.0343791 94.7901698,88.9237568 C94.1465035,89.4824801 92.7182826,91.0441576 91.7946814,91.0725518 C90.3029227,91.1165169 87.6997116,89.4027933 86.7273059,88.3494624 C85.4270816,86.9407469 84.8211697,85.0227687 84.974029,83.1258572 C85.1784552,80.5868718 86.2806991,78.3419031 87.4464809,76.1711255 C92.4567644,66.8367819 97.4329769,57.4822877 102.655974,48.2661004 C107.487615,39.736868 112.67562,31.4091424 117.591057,22.9257071 C120.072718,18.6409402 122.300227,14.2105389 124.635474,9.84150555 C124.838979,9.46322237 125.018543,9.06662039 125.153906,8.65994308 C125.247831,8.37691765 125.24599,8.06183432 125.286507,7.76232197 C125.028672,7.87681446 124.739528,7.95100559 124.515765,8.1140429 C122.415331,9.65923351 120.27254,11.1549634 118.246695,12.7935799 C116.052336,14.5695873 113.931644,16.4426844 111.849628,18.3496713 C110.214218,19.8463171 108.638663,21.4162381 107.123884,23.033788 C101.790386,28.7281863 96.8869195,34.7202652 92.0267327,40.8130974 C91.0957648,41.9800049 90.163876,43.1469123 89.2780292,44.3477095 C87.2595507,47.0817901 85.2779057,49.842433 83.2677148,52.5829252 C81.4683959,55.0385601 79.6350061,57.4694646 77.8467373,59.932427 C75.9378386,62.5620904 74.19377,65.3062464 72.0509783,67.7545537 C71.9036441,67.9230867 71.7471015,68.0980312 71.5362295,68.1758861 C71.2931281,68.2665641 71.0214806,68.2116077 70.76825,68.1484079 C67.9044416,67.4238994 65.0765458,64.4031296 66.5839588,61.3255715 C68.8418554,56.7138141 70.9404468,52.0205381 73.3383109,47.4838877 C76.3255117,41.8334545 79.5769932,36.3222441 82.6636446,30.7240194 C85.1075506,26.2899543 87.4787103,21.8155879 89.8692076,17.3531287 C89.9714207,17.1626132 89.9520831,16.907066 89.9898375,16.6826607 C89.7973822,16.7669272 89.5782226,16.8173039 89.4179966,16.9427876 C87.4704227,18.4531725 85.4887778,19.9232561 83.6019793,21.5069162 C81.5715299,23.2123963 79.5567348,24.9499342 77.6690154,26.8074604 C74.3318958,30.0929368 71.0076681,33.4013117 67.8473496,36.8534892 C65.6152365,39.2926372 63.6602959,41.9855005 61.5838046,44.5657032 C57.8488827,49.2049388 54.1314568,53.8753164 50.6488447,58.7050675 C48.4425151,61.7652227 46.4866537,64.992079 44.5759134,68.2400019 C43.6210036,69.8648793 40.6798447,76.5503246 39.0490393,76.7591589 C37.1530324,76.9991352 34.6474302,73.9939363 33.5350571,72.6960495 C32.4972718,71.484261 31.6464168,70.1827104 32.5525221,68.6027141 C34.0000806,66.0820475 35.5351188,63.6108416 37.0195108,61.1103257 C41.671588,53.2753757 46.2371064,45.3873013 50.9913967,37.6128034 C54.4252043,31.9980918 58.2098515,26.5958783 61.6427382,20.9802507 C64.0507315,17.0407932 66.1760273,12.9254752 68.329869,8.83855136 C69.0720651,7.42891985 69.6135182,5.89380457 70.0730168,4.36418493 C70.4266188,3.18903404 70.1586548,3.05713869 68.9827437,3.40885962 C66.3694034,4.18924041 64.0663858,5.59520816 61.8388769,7.07353517 C57.1195784,10.2060496 52.4463219,13.4136712 47.8412075,16.7110548 C44.3899039,19.1822607 41.0223967,21.7771184 37.714744,24.436092 C34.7533267,26.8157038 31.9604228,29.4004862 29.0284724,31.8176516 C25.7447615,34.5233381 22.4582881,37.2354362 19.0428972,39.7698419 C15.8089116,42.1714363 12.4239085,44.3761036 9.06560968,46.6073333 C7.5655634,47.6038759 5.91357873,48.2844192 4.10413064,48.5967547 C2.1602401,48.9310728 0.445638393,47.87591 0.0441527099,45.9469406 C-0.183294455,44.8569721 0.503651233,44.1608578 1.28728499,43.6369401 C2.05066029,43.1267616 2.86376088,42.9765475 3.78644128,43.5517577 C4.24870232,43.8402788 5.07009046,43.929125 5.56734337,43.7230385 C7.18894036,43.0516545 8.85750013,42.3766068 10.2921669,41.3928874 C16.0243879,37.466253 21.7731841,33.5515259 27.3258416,29.3812515 C32.0147523,25.8603785 36.4089947,21.9548108 40.9901674,18.2892193 C47.6312562,12.9767678 54.4795338,7.94550995 61.8701854,3.69371692 C64.6492767,2.09540179 67.4845391,0.585932835 70.711158,0.056519571 C71.1881524,-0.0222512607 71.7323681,-0.0323265996 72.1835791,0.115139725 C80.7584293,2.89776515 75.0575168,15.0651108 72.6513652,20.2026177 C71.4736124,22.7168728 70.2488969,25.2146409 68.9164433,27.651041 C67.7681574,29.7494593 66.4366246,31.7480402 65.1944132,33.7960818 C64.527726,34.8988735 63.8757721,36.0099086 63.2275017,37.1236915 C63.1639638,37.2308565 63.1722514,37.3801547 63.1483096,37.5102181 C63.2864354,37.4286995 63.4531072,37.3737431 63.5590036,37.2619984 C65.6870619,35.0151978 67.78197,32.7363394 69.9358118,30.5133532 C75.4571608,24.8134592 81.3698662,19.5605439 87.9455755,15.0751862 C89.8305324,13.7882906 91.8600609,12.9208955 94.1999121,13.0674459 C94.8702827,13.1095791 95.5415742,13.2771961 96.1926071,13.4603841 C97.0931874,13.7131835 97.3362888,14.3671646 97.346418,15.2730292 C97.3777266,17.9494056 96.4716213,20.3281015 95.2929477,22.6756555 C93.2275064,26.7882256 91.3158453,30.9777347 89.2255413,35.0783977 C87.8138956,37.8482 86.2061112,40.5199967 84.6848856,43.2357585 C84.6683105,43.2669004 84.6443687,43.2971264 84.6351603,43.3310162 C84.5504432,43.6259489 84.4684885,43.9217975 84.3865339,44.217646 C84.6204269,44.0024002 84.8856284,43.8118847 85.0854505,43.5673287 C89.198837,38.5278274 93.2210606,33.412303 97.4302144,28.4534044 C103.30977,21.5288987 109.735382,15.123731 116.895824,9.50169185 C118.807485,8.00046635 120.973298,6.78684598 123.124377,5.63001388 C125.33439,4.44020795 127.687133,4.92474015 129.947792,5.61535884 C130.840085,5.88830893 131.447838,7.46189369 131.05372,8.73688203 C130.130118,11.7292577 129.138375,14.7078943 128.015873,17.6324904 C123.717397,28.825276 117.200622,38.9528235 111.310937,49.3478254 C105.139476,60.236519 99.4744763,71.4338843 94.5056306,82.9170229 C94.4319635,83.0883036 94.4568261,83.3017176 94.434726,83.4958969 C94.6041603,83.3694972 94.8012198,83.2687438 94.9365831,83.11395 C97.3620723,80.3606346 99.7958491,77.6146468 102.194634,74.8402648 C107.10915,69.1577737 111.996962,63.452384 116.914241,57.7744725 C118.621476,55.8033699 120.169406,53.7012878 121.900583,51.7512517 C125.185214,48.0508545 129.167842,44.0326262 133.539984,41.7207939 C135.937848,40.454049 138.447134,39.051745 141.193996,38.7513167 C144.038466,38.4398971 149.094792,41.1254329 150.930944,43.3749813 C152.755126,45.6107906 150.479733,48.9219134 148.554259,50.268345 C145.021001,52.7413828 141.289763,54.9194879 137.459074,56.9006659 C134.646832,58.3551784 131.984687,60.1311859 129.005774,61.2495485 C125.942144,62.3990531 123.245007,63.1336369 122.118821,66.5024639 C121.661165,67.8699622 121.387675,69.2603589 121.932812,70.6562513 C123.570984,74.8494242 130.724059,71.9962714 133.288595,70.6754861 C138.61933,67.9322461 142.917806,63.7244182 147.486087,59.932427 C150.061672,57.7955392 151.9586,55.5908718 154.467886,53.377961 C155.4495,52.5123978 159.406344,48.3412075 160.314291,47.4216038 C160.650397,47.0817901 160.771948,46.6668693 160.808781,46.1988241 C160.864031,45.4999619 160.88429,44.7956041 160.915598,44.0939942 C160.969007,42.8290812 161.03807,42.3253142 161.128312,41.0622331 C161.306955,38.5388186 161.694628,35.9952535 162.276598,33.5313752 C162.502204,32.5760499 163.030765,32.207842 163.998566,32.1464741 C164.973735,32.0841902 165.947982,31.9816049 166.924992,31.9971759 C167.87806,32.0118309 168.841257,32.1446422 169.709608,32.5531514 C170.335779,32.8471681 171.183871,33.3317003 171.385535,34.03789 C171.577069,34.7065261 171.567861,35.4502693 171.597328,36.1390561 C171.646132,37.26841 171.675599,38.3977639 171.750187,39.5252859 C171.840429,40.9065233 171.971188,42.2868447 172.088135,43.6653343 C172.231786,45.3634869 172.377278,47.0607235 172.544871,48.7570442 C172.626825,49.6052046 172.640638,50.528472 172.870848,51.3528179 C175.12414,49.8634996 177.314815,48.2697642 179.554295,46.7557155 C181.99728,45.1042759 184.433819,43.4390971 186.912717,41.840782 C188.401713,40.880877 189.904522,39.9429545 191.411014,39.0096118 C192.202936,38.518668 192.99762,38.0295561 193.789541,37.5386123 C194.537262,37.0751467 195.208553,36.6327477 196.129392,36.7912053 C197.362395,37.0018715 198.227063,37.8811738 198.483977,39.0993739 C198.640519,39.8522765 198.076045,40.2021655 197.457241,40.4824431 C196.692945,40.8295843 195.909312,41.1318445 195.156066,41.5037161 C193.611819,42.2657781 192.217669,43.3887204 190.823519,44.3880109 C189.378723,45.4248548 187.944977,46.4800176 186.503865,47.5214413 C184.242285,49.1554781 181.922692,50.6942571 179.7357,52.4272154 C178.093845,53.7296819 176.456594,55.0422238 174.87183,56.4143018 C174.595579,56.654278 174.320248,56.8951702 174.053205,57.1452218 C173.904029,57.2853606 173.660927,57.4557255 173.568843,57.6416613 C173.394805,57.9888025 173.597389,58.5740881 173.637906,58.956035 C173.727228,59.7922882 173.812866,60.6303732 173.899424,61.4675422 C174.172914,64.1109448 174.471265,66.7497677 174.982331,69.3601964 C175.578113,72.4011169 176.449227,75.3733418 177.173927,78.3840363 C177.366382,79.18182 177.546867,79.9823514 177.709855,80.7874626 C177.837852,81.422209 178.027544,82.0871813 177.98979,82.7402465 C177.935461,83.6561864 177.548708,84.7919519 176.744816,85.323197 C176.269663,85.6373644 175.807402,85.5705008 175.275157,85.4669996 C174.548616,85.3250289 173.820232,85.2032089 173.090928,85.0813889 C172.052222,84.9073603 171.025487,84.7076854 170.032823,84.3523007 C168.727994,83.8851714 167.302536,83.3246161 166.369726,82.2657896 C165.497692,81.2793223 165.027143,80.0217368 164.651441,78.7815542 C163.714027,75.6829295 163.186387,72.4780558 162.36684,69.3482892 C162.313432,69.1458664 162.281202,68.8839076 162.166097,68.7071312 C161.988376,68.4332652 161.805129,68.542262 161.557423,68.6448473 C161.336422,68.7355254 161.121866,68.8307831 160.910994,68.9434437 C160.268249,69.2869212 159.657733,69.6945144 159.057346,70.1048555 C157.33814,71.2772586 155.681551,72.5421716 154.035092,73.8134962 C150.732043,76.3662207 147.482403,78.9876407 144.207901,81.5760869 C140.878148,84.2075822 137.615616,86.9224281 134.370581,89.6565087 C132.468128,91.2603195 130.509504,92.7981825 128.607972,94.4029093 C128.026923,94.893853 124.234909,98.8626206 123.638205,98.3075611 C123.320516,98.0126284 123.931032,97.4942064 124.098625,97.3055228 C124.403422,96.9638772 124.703616,96.6185679 125.005651,96.2741745 C125.728509,95.4498286 126.447684,94.6227348 127.166859,93.7947252 C128.516809,92.2449548 129.867679,90.6961005 131.24065,89.1655649 C134.019741,86.0687721 136.920383,83.0864718 139.910346,80.1911857 C145.846073,74.4436628 152.153818,69.1211361 158.385134,63.6987718 C159.174292,63.0127329 160.178007,62.3688271 160.811544,61.5362377 C161.32353,60.8666857 161.348393,60.1165309 161.271963,59.3132516 C161.162383,58.1738223 161.109895,57.0307293 161.059249,55.8867204 C161.036228,55.3582231 161.011366,54.8297258 160.981899,54.3012284 C160.954274,53.8011252 161.007682,53.0344835 160.662368,52.6223106 C160.187215,52.6891742 155.884136,57.1397262 154.852796,58.1005472 C152.777226,60.0340963 150.549717,62.3624155 148.440996,64.260243 C144.254863,68.0265879 139.877196,71.7361445 134.852179,74.3575645 C130.083155,76.8443413 123.697139,78.1367325 119.181346,74.4225962 C116.506309,72.2225086 116.021948,69.580022 116.291754,66.7470198" id="Fill-1"></path>
        </g>
    </g>
</svg>