<?xml version="1.0" encoding="UTF-8"?>
<svg width="728px" height="100px" viewBox="0 0 728 100" version="1.1" xmlns="http://www.w3.org/2000/svg" xmlns:xlink="http://www.w3.org/1999/xlink">
    <title>Script/white/COSTARICA</title>
    <g id="Script/white/COSTARICA" stroke="none" stroke-width="1" fill="none" fill-rule="evenodd">
        <g id="logo/Barista-Creations" transform="translate(105.999903, 2.101749)" fill="#FFFFFF">
            <path d="M328.274467,0.00119685279 L329.408701,0.00280319718 C334.745571,0.0468206573 340.078853,0.605228203 345.308073,1.66881288 C348.824634,2.38332886 352.321717,3.34147636 355.577869,4.86980352 C358.845811,6.40273716 361.273571,8.46592764 363.698256,11.098786 C368.143683,15.9268871 368.719353,22.5740354 365.932247,28.4406416 C364.201648,32.0838541 361.336111,34.8948296 358.097901,37.2292905 C353.055786,40.8648256 347.140171,43.3420873 341.41166,45.6959977 C335.346872,48.1886144 329.125223,50.3004288 322.794387,52.0125033 C321.244741,52.4316928 319.703811,52.7782023 318.08855,52.7306021 C317.369859,52.7091052 316.912091,52.4961835 316.648605,53.2890096 C315.955545,55.3680669 319.332675,58.4933065 320.510159,59.851194 C322.373014,61.9993484 324.386067,64.0154504 326.521635,65.8928463 C330.710752,69.578029 335.364814,72.7283484 340.303892,75.320772 C349.316748,80.0506017 359.235913,82.9357926 369.315528,84.3765967 C369.403186,84.3888807 369.490844,84.4011646 369.577989,84.4134485 C366.820102,86.5201446 362.128619,86.8011398 358.797112,86.6655046 C350.63469,86.3333264 342.56864,83.5904244 335.288434,79.8811856 C330.323725,77.3517172 325.655822,74.2408088 321.416981,70.6262587 C319.298842,68.8200074 317.28784,66.8883575 315.401917,64.8410337 C313.565206,62.8469404 312.085789,60.5580325 310.303928,58.5455133 C309.386341,57.5013782 308.684054,56.3144422 307.971514,55.1264827 C307.566546,54.4406292 307.109803,53.7854856 306.67459,53.1201054 C306.628454,53.0535674 306.546435,53.0023843 306.479795,52.9409646 C306.033817,52.9512012 305.823643,53.3094828 305.536577,53.5500434 C305.495567,53.5858716 305.469424,53.642173 305.439179,53.693356 C299.98697,62.0213571 293.918594,70.080647 288.09525,78.0933602 L288.09525,78.0933602 L287.257507,79.2437897 C284.176026,83.4619051 280.962379,87.6478361 276.797653,90.7852318 C274.733339,92.340686 272.62289,93.948347 270.304317,95.0390587 C270.093631,94.9878756 270.001872,94.7780249 269.996746,94.5272277 C269.916777,91.1061498 272.077464,87.5427828 273.520484,84.4687263 C275.111139,81.0798937 276.850966,77.7616938 278.704594,74.5084964 C284.99032,63.4795634 292.552466,53.2403857 300.316071,43.2161769 C304.56414,37.7308848 308.878849,32.2972876 313.257635,26.9158972 C318.773921,20.138232 324.164616,13.2566652 330.116115,6.84547092 C330.31091,6.63562023 330.541588,6.46159772 330.823528,6.20568225 C330.605665,6.42372223 328.440878,5.92878172 328.021556,5.91137947 C326.344781,5.84177046 324.631611,5.96358622 322.956374,6.04650283 C319.657162,6.20875324 316.364614,6.51789912 313.092571,6.97189316 C308.251404,7.644439 303.496356,8.83546958 298.631095,9.34832417 C297.903177,9.42509881 297.180385,9.59400302 296.468358,9.77314384 C296.165913,9.84991848 295.878334,10.0392959 295.612285,10.2082001 C295.237561,10.4487607 294.888981,10.7200311 294.530148,10.9759465 C292.500179,12.4239162 290.134958,9.42509881 290.906449,7.49037789 C291.085865,7.03996667 291.387797,6.59467376 291.895802,6.40017801 C292.607829,6.12890761 293.326007,5.86275553 294.048799,5.60684006 C299.582002,3.64703943 305.579124,2.55683954 311.357871,1.57668331 C317.318085,0.566329052 323.358779,-0.0468444031 329.408701,0.00280319718 Z M103.458852,3.94983485 C107.695071,3.37646788 111.616076,2.44175231 115.55956,4.66488717 C117.380848,5.69134146 118.334661,6.80545718 118.197234,8.90780273 C118.151255,9.63253858 117.824292,10.2594198 117.421207,10.8450186 C117.319031,10.9928199 117.175474,11.1253313 117.134603,11.2838354 C116.895001,12.2093772 115.371556,13.6822932 114.545463,14.103272 C113.781697,14.4931615 112.704251,14.4141643 112.231176,13.7016602 C111.990551,13.339802 111.94355,12.8872243 111.903701,12.455033 C111.773427,11.0463341 112.321601,10.4643029 113.001583,9.30125989 C113.073106,9.1789416 113.113977,9.03623693 113.170173,8.91340899 C113.119085,8.87824248 113.09865,8.84256631 113.073106,8.84256631 C112.75636,8.84766291 112.440126,8.87824248 112.127978,8.8527595 C111.811232,8.82676687 111.494486,8.74522134 111.177741,8.69476505 C110.447182,8.58263995 109.711515,8.62850931 108.986065,8.57754336 C105.713367,8.33749372 102.504528,9.76301142 99.4821612,10.9021005 C96.2222349,12.1308896 93.033321,13.5502914 89.9389198,15.149603 C83.9125774,18.2641323 78.2392532,22.0605862 73.0768092,26.4563996 C71.7888803,27.5531869 70.532626,28.6856503 69.2896546,29.8323843 C64.5921115,34.1655096 60.0723547,38.7381749 56.217253,43.8449633 C54.3111591,46.3698166 52.5711013,49.0236138 51.0890379,51.8185866 C47.6477492,58.3096104 45.2506994,65.9427811 45.4361489,73.3201028 C45.5030742,75.9784869 46.9340496,77.514091 49.4940701,78.1659455 C53.6725589,79.2336823 58.4778977,78.0400596 62.5358188,76.9284922 C66.8287448,75.7511787 70.9730047,74.0912176 75.0442087,72.3079189 C87.3431377,66.9197984 99.5439777,60.4598639 110.472726,52.6325129 C111.070456,52.2043989 111.632935,51.7304155 112.179066,51.246239 C114.415699,49.2651924 116.702399,46.9100557 119.439695,45.6206171 C120.609099,45.0696752 124.832035,44.4178206 125.175857,46.511502 C125.283142,47.1638662 125.71739,47.7652644 125.497712,48.4736912 C125.456841,48.601106 125.513549,48.7591005 125.523256,48.866129 C125.809859,49.1005724 126.05968,48.9986405 126.310011,48.9069017 C127.224487,48.5756231 128.10882,48.1882818 128.96199,47.7193951 C135.45732,44.1573846 142.094165,40.7141248 148.727433,37.4054152 C151.081058,36.1771357 153.486792,34.9305085 156.109651,34.5171747 C158.733021,34.1033311 161.659342,34.6624276 163.472456,36.5976048 C164.170318,37.3417078 164.635219,38.3131188 164.818114,39.3283606 C164.919268,39.892044 164.934595,40.4689786 164.853365,41.0280751 C164.700612,42.082051 163.668123,44.3500359 162.695407,44.9060745 C162.189636,45.201677 161.673136,45.4870863 161.141821,45.7266263 C160.641158,45.9503668 160.094516,45.9044975 159.573929,45.8132684 C159.113626,45.7317229 158.75601,45.4565067 158.566985,45.0283927 C158.362633,44.5691895 158.189444,44.105909 158.209879,43.5860563 C158.230315,43.0254308 158.209879,42.4699019 158.199151,41.9092764 C158.178716,40.8644744 157.703597,40.0592124 156.896406,39.4170414 C154.513661,37.5623903 149.98573,43.6431382 148.721813,44.9060745 C147.667921,45.960265 146.884364,48.0211036 146.311816,49.7150676 L146.09391,50.3698309 C146.024932,50.5793925 145.959565,50.7791763 145.897667,50.9659262 C145.131347,53.2757032 144.690968,55.6940377 144.604119,58.1251136 C144.44217,62.6366198 145.472104,67.1440486 145.120619,71.6448519 C144.677686,77.3051306 140.357683,79.4671063 135.274936,80.849303 C132.330734,81.6494684 129.604166,81.371704 126.623181,81.1734464 C123.665695,80.9767178 120.566696,80.3503463 118.26467,78.3596162 C117.981643,78.1149796 117.694017,77.7215224 117.892239,77.4040046 C118.002078,77.2271527 118.225333,77.1588583 118.430196,77.1170662 C120.178427,76.7603046 121.910311,76.5712209 123.693283,76.1736865 C126.551147,75.5361024 129.470827,73.946984 131.994575,72.5178987 C133.424017,71.7080497 135.042997,70.5740572 135.781729,69.0532332 C136.114312,68.3707991 136.328882,67.6215996 136.50207,66.8825933 C136.921503,65.0936883 137.008353,63.2787908 136.901068,61.4491131 C136.701314,58.2387677 136.71664,55.0375962 137.416546,51.8833134 C137.631116,50.9195472 137.968807,49.9771868 138.346859,49.0490968 C138.887881,47.7193951 139.624059,46.4804127 140.17019,45.1558076 C140.195734,45.0844553 140.201354,45.0029098 140.216169,44.9310478 C140.165081,44.9060745 140.134939,44.8805915 140.119102,44.8851784 C139.807465,45.0380763 139.470284,45.1609042 139.1893,45.3596714 C135.533442,47.9456839 130.331149,51.0887542 125.784315,51.4292067 C125.579963,51.4450062 125.385829,51.5010687 125.171259,51.5367449 C125.07879,51.7406087 124.971505,51.9189896 124.905091,52.1126602 C123.177805,56.9982564 119.201625,61.4032437 115.729172,65.1329321 C112.922397,68.1485875 110.384344,71.8043753 107.30016,74.4867134 C106.196659,75.4458926 105.246422,76.7134159 103.929373,77.3907534 C102.893819,77.9233476 101.546117,78.0176346 100.618359,77.3148141 C99.7324925,76.6435925 99.4484431,75.4601631 99.223145,74.3730593 C98.9324542,72.9755729 98.2984519,71.3884932 98.656068,69.9762266 C98.9217257,68.9258183 99.2384714,67.8861129 99.5807611,66.8520137 C100.020118,65.5421887 100.602521,64.2981098 101.144054,63.0295672 C101.16449,62.9887945 101.139456,62.9276353 101.133837,62.8715728 L101.133837,62.8715728 L101.079948,62.8459011 L101.079948,62.8459011 L101.062314,62.8460898 C100.546835,63.2283345 100.035955,63.615166 99.5250752,63.9974107 C96.3714119,66.3525474 93.1973135,68.7041164 89.9251261,70.900749 C87.5245002,72.5128021 85.0717645,74.0478966 82.5735605,75.5045035 C77.4923464,78.464606 72.2185305,81.0964878 66.7965594,83.3761949 C61.0501793,85.7914714 53.5412627,88.483493 47.4965286,85.5667115 C42.8965637,83.3466346 40.5209709,78.588963 39.5860602,73.7849123 C38.2347822,66.8423302 39.2606295,59.5771336 41.6867994,52.931683 C44.4501502,45.3627294 48.9040035,38.0761271 54.1788411,31.9862054 C55.4458239,30.5234826 56.7490792,29.0857331 58.0513128,27.6591961 C58.4446905,27.2259855 58.8993738,26.853934 59.3182956,26.4411098 C60.1357038,25.6455313 60.953623,24.8458755 61.7654115,24.0406134 C61.8476632,23.9590679 61.908458,23.857136 61.9799812,23.7603007 C61.7909556,23.617596 61.7092147,23.80617 61.6024408,23.8668195 C58.5621929,25.6001716 55.5801854,27.4313783 52.6308743,29.3125316 C44.2989297,34.6272611 36.2280449,40.3859041 27.7980114,45.532446 C24.1329571,47.770361 20.2037778,49.6301086 16.5463867,51.9658782 C12.9482577,54.263933 9.21372372,56.5788066 5.24673926,58.0298073 C4.48041902,58.3096104 3.69366357,58.3457962 2.89158171,58.2489609 C2.71788246,58.2285745 2.5339656,58.1674154 2.37048395,58.1979949 C1.85960379,58.3050234 1.45089966,58.0858698 1.04219553,57.8514265 C0.53642417,57.0818406 0.245222478,56.2251029 1.24733828e-12,55.2623561 C0.0715232226,55.1757139 0.199243263,55.0228161 0.3167457,54.859725 C0.592620988,54.482577 1.00643392,54.3959349 1.42024685,54.4519974 C6.09582209,55.120161 11.467727,51.6794496 15.4086566,49.532254 C24.0067697,44.8474636 31.977522,38.8411261 40.1904314,33.5177323 C48.7088473,27.996081 57.3243303,22.6135667 66.1947425,17.6698693 C67.4566165,16.9665392 68.7746874,16.3697279 70.0217458,15.6460113 C71.3239794,14.8922249 72.7038667,14.3010199 74.0469706,13.6333659 C82.8136742,9.27730589 92.453472,5.72956592 102.140782,4.08744292 C102.574519,4.01609059 103.024093,4.0058974 103.458852,3.94983485 Z M426.738615,22.7920334 C428.143783,22.5691621 429.580019,22.4319713 430.986205,22.6451525 C432.602734,22.8904639 434.867097,23.6865786 434.948076,25.6062297 C434.999007,26.6675459 434.748939,27.6620517 434.321633,28.6004571 C434.091937,29.10026 433.883632,29.615363 433.572957,30.0896658 C433.320713,30.4791226 432.958291,30.6284987 432.585608,30.7575206 L432.305733,30.8539039 L432.305733,30.8539039 L432.16728,30.9056705 C432.080189,30.9413707 431.933,30.8801704 431.836233,30.82407 C431.356978,30.5435684 431.051906,30.135566 430.960231,29.5439626 C431.235255,28.7789582 431.800072,28.1057542 431.993608,27.197949 C431.810768,27.197949 431.66307,27.1622488 431.540837,27.203049 C428.615398,28.1797047 425.771958,29.2955912 423.174001,30.997981 C420.587759,32.6927209 418.249037,34.7312027 415.931707,36.7696846 C411.473265,40.6910974 407.410552,45.0643728 403.831168,49.8043403 C402.474893,51.6000608 401.1833,53.4569816 400.134135,55.4516031 C399.857583,55.9769062 397.707814,60.2752112 398.330183,60.6291532 C399.8092,61.4706581 401.913132,60.7709341 403.444098,60.4317821 C405.235827,60.0344898 407.002091,59.5270368 408.743909,58.9476735 C412.180688,57.8047568 415.516116,56.3813385 418.830153,54.9257901 C423.751551,52.7638875 428.580766,50.4540841 433.425259,48.1335706 C434.245238,47.7408683 435.070309,47.3583661 435.813383,46.827963 C436.02729,46.6800622 436.236105,46.5122712 436.419963,46.3332602 C440.371648,42.4414275 444.963018,39.2819592 449.960812,36.847205 C452.25064,35.7318286 454.645384,34.5389316 457.067122,33.751487 C459.641141,32.9145722 463.582131,31.2290124 466.137306,33.0420729 C466.207625,33.0922994 466.846261,32.3252501 467.509651,31.4929512 L467.793892,31.1344493 C468.311969,30.477911 468.797389,29.8474141 468.986493,29.6077351 L469.05867,29.5179524 C469.245584,29.2981412 469.440647,29.0762899 469.690715,28.932979 C470.553475,28.4392962 471.342386,29.5057124 471.964245,29.9264648 C472.819366,30.5053182 474.996128,32.189348 474.95131,33.3598048 C474.935521,33.7657671 474.535718,34.0182186 474.408392,34.4042908 C474.247452,34.8928737 474.364592,35.4497969 474.259676,35.9516398 C474.161889,36.4162525 473.907238,36.8298649 473.655133,37.2322573 C473.026143,38.2354331 472.38493,39.2309589 471.735059,40.2208746 C468.307447,45.439735 464.6425,50.4984544 461.263272,55.7499549 C457.951782,60.8953748 455.283032,66.2187857 452.727348,71.7620079 C452.605624,72.0272095 452.472696,72.292411 452.319905,72.5423125 C451.573776,73.8137498 452.962137,73.1864462 453.621684,72.9329747 C454.541486,72.5795427 455.443972,72.1848004 456.33729,71.770168 C458.008314,70.9944535 459.64165,70.1401985 461.289756,69.3160337 C472.335528,63.7947416 484.045431,59.6060873 496.084344,56.8699214 C499.650995,56.0590167 503.272652,55.3796927 506.93658,55.251682 C510.200705,55.1374413 513.835094,55.1614115 516.523197,57.2269235 C517.925309,58.3045597 515.809154,59.5918072 515.600849,58.5682313 C515.575893,58.4611306 515.5708,58.34383 515.560105,58.2163292 C515.198499,57.9817278 514.827217,57.8083268 514.419774,57.7471265 C511.602817,57.3080139 508.913186,57.8807473 506.115074,58.35403 C493.271461,60.5271526 480.714077,64.4026652 468.880413,69.8551068 C465.182871,71.5590267 461.55714,73.4149275 457.851449,75.1004873 C456.003696,75.9414822 454.136081,76.7416769 452.234851,77.455681 C450.02091,78.2880058 445.876199,80.1382966 444.213323,77.4194708 C442.243338,74.1998221 443.074521,69.0977524 444.643685,65.9132939 C446.465972,62.2147524 448.387064,58.521821 450.334131,54.8758098 C450.609155,54.3607068 450.898949,53.8507038 451.184668,53.3407009 C451.143924,53.2948006 451.103179,53.2494103 451.062435,53.1979 C450.791995,53.356001 450.502201,53.4886017 450.24755,53.6773028 C449.544711,54.1924058 448.857661,54.737599 448.169592,55.2736121 C445.926111,57.0203723 443.538496,58.694712 441.259364,60.2298209 C438.776001,61.9026306 436.259533,63.5275001 433.713525,65.1023892 C432.187652,66.0458947 429.528579,68.0338863 427.650778,67.1490311 C426.016423,66.3794366 425.562125,63.347469 425.815248,61.7771699 C425.988411,60.7082037 426.50128,59.6402575 426.952013,58.6600318 C427.51734,57.4309246 428.2049,56.2630179 428.933204,55.1257113 C429.019276,54.9880105 429.096181,54.8401096 429.273928,54.5244178 C428.871578,54.7279089 428.162118,55.1603915 427.973167,55.2991123 C427.018223,56.0003663 425.96753,56.4818091 424.886788,57.0866726 C423.450043,57.8899273 422.008206,58.6840019 420.556691,59.4602264 C417.597129,61.0432756 414.597842,62.5564544 411.533363,63.9268324 C406.482602,66.1861455 400.20391,67.4162727 395.102727,64.5607661 C392.261324,62.9705768 391.698034,59.208285 391.498387,56.2247676 C391.291101,53.1474098 391.779523,49.8604407 393.592133,47.2925757 C394.254737,46.3536603 394.886273,45.3999547 395.527995,44.4462492 C395.599298,44.3391486 395.731717,44.237148 395.634949,44.0127467 C395.405253,44.1504475 395.181669,44.2677482 394.972855,44.410549 C394.108058,44.9904224 393.242751,45.5702957 392.377954,46.1511891 C381.511967,53.4427015 371.591246,62.1056118 360.610156,69.2533033 C359.812587,69.7735064 358.996683,70.2891194 358.090633,70.5798211 C355.442255,71.428976 352.843789,69.8596969 352.595249,67.0995608 C352.418521,65.1401294 352.260128,63.6080805 353.28179,61.8363302 C357.988772,53.6732228 365.099666,47.0059541 371.977298,40.7028274 C372.61953,40.111224 373.166012,39.8990628 373.965619,39.9138529 C374.123503,39.9138529 374.523815,40.1622243 374.651141,40.2693249 C375.242442,40.7640278 375.700815,41.3658313 376.0777,42.0390352 C376.215212,42.2889367 376.230491,42.5439381 376.0777,42.7943496 C375.945281,43.0182409 375.817955,43.2528423 375.639699,43.4415434 C374.584932,44.761941 373.096747,45.9323978 371.940628,47.2043452 C370.580279,48.7022239 369.239793,50.2184627 367.920697,51.7520416 C365.280978,54.8197095 362.724275,57.9582677 360.252625,61.1631263 C359.457094,62.1958823 358.119663,64.2364042 357.952102,65.5460918 C357.922562,65.7786532 358.081974,66.0515047 358.316763,66.0484447 C358.423717,66.0469147 358.521503,65.9913244 358.613178,65.9367541 C358.733373,65.8658637 358.85306,65.7949732 358.972746,65.7235728 C370.602688,58.8186427 381.320978,50.5326246 392.263361,42.5745383 C397.429225,38.8173465 402.583884,34.8199433 408.003382,31.4279135 C410.631387,29.5847628 413.269578,27.7354921 416.123205,26.2666836 C419.448447,24.5556236 423.046166,23.3780268 426.738615,22.7920334 Z M135.710753,6.1852602 C135.772554,6.24219223 135.844656,6.27245339 135.860107,6.3186145 C136.250873,7.50598066 135.815204,8.77509045 135.323231,10.0111171 L135.125264,10.5034912 C134.895059,11.075234 134.674955,11.6364377 134.543219,12.1754327 C134.405711,12.7416756 134.266657,13.3284345 134.379445,13.8992935 C134.522619,14.622997 135.058747,15.220014 135.688607,15.6077672 C141.215209,19.012918 149.70262,18.9652182 155.939939,18.6692742 C161.62539,18.4000652 167.249304,17.5261257 172.86085,16.6103275 L175.450095,16.1867287 L175.450095,16.1867287 L176.744395,15.9765432 C180.705873,15.3374683 184.366583,14.7655836 188.375958,14.3916786 C190.562702,14.1880569 192.836483,14.5809391 194.073544,13.3689537 C194.422208,13.0227454 194.829068,12.6739727 195.174126,12.2739098 C195.91523,11.4173648 196.780966,10.6936613 197.625587,9.94995465 C197.758975,9.83250028 197.898544,9.71914913 198.022147,9.59656575 C199.14951,8.48357026 200.514809,7.80654074 202.049032,7.44699703 C202.502243,7.3444168 202.940519,7.44699703 203.347379,7.6116383 C203.949944,7.85218894 204.403155,8.24763573 204.521093,8.93492327 C204.557659,9.13444182 204.640061,9.32934425 204.701862,9.5298886 C204.846066,10.0320188 204.79405,10.5244039 204.573109,10.9916569 C204.470106,11.2019464 204.284187,11.3763327 204.371739,11.6738154 C204.578259,11.8225568 204.826495,11.8112729 205.097907,11.8066568 C206.401404,11.7846021 207.111607,11.6599671 208.547463,11.6132931 C212.730396,11.4794259 216.681574,11.1645046 220.906224,11.245543 C225.338424,11.3301716 229.765473,11.6840734 234.154412,12.303658 C241.613342,13.357157 250.00599,14.7809706 256.769137,18.2384373 C258.515545,19.1313982 260.230538,20.0751363 261.718925,21.3620053 C262.213337,21.7877132 262.7232,22.2088051 262.95444,22.8448025 C263.001307,22.9730278 262.985856,23.1268981 263.006457,23.3059006 C262.799937,23.3371876 262.620197,23.4089938 262.460028,23.3782197 C260.901085,23.0776596 259.30403,22.9935438 257.784227,22.5852745 C247.927398,19.9387046 237.801217,18.2938306 227.61272,17.6675783 C222.518729,17.3547086 217.408257,17.2967507 212.307571,17.4947306 C209.757742,17.5942334 207.209974,17.7578489 204.668386,17.985577 C202.852966,18.1486795 200.480303,18.3753819 199.103674,19.7463666 C198.7684,20.0797524 198.495958,20.4695573 198.197251,20.8337171 C191.563887,28.871391 185.161248,37.0778094 179.364264,45.745326 C173.831997,54.01637 168.166342,62.4587229 164.324347,71.6565792 C164.594214,71.6555534 164.699276,71.5196346 164.911976,71.3652514 C165.869385,70.6671929 166.755722,69.8824542 167.67193,69.1392604 C173.12746,64.7098461 178.325999,59.9603814 184.119377,55.9659072 C190.145542,51.8114079 196.205182,47.7707726 202.562499,44.1260971 C209.964778,39.8833787 217.987131,35.5693671 226.553339,34.667174 C227.140968,34.6056259 227.732718,34.615371 228.325498,34.610242 C228.495452,34.6056259 228.665406,34.667174 228.902312,34.7133351 C229.262306,34.2922433 229.627965,33.8311451 230.02504,33.3997953 C230.771808,32.5996695 231.45111,31.7385085 232.280796,31.0153178 C232.501736,30.8250315 232.697441,30.599355 232.898811,30.3788075 C233.341207,29.8971933 233.846434,29.4863595 234.386683,29.2042639 C235.744256,29.3991663 236.91797,29.3760857 237.794522,30.5901228 C238.436228,31.4805192 238.710215,32.5304278 239.058363,33.5485366 C239.140765,33.7901131 239.125315,33.9896316 238.986262,34.215821 C238.666954,34.7287222 238.29563,35.1641752 237.750231,35.4462709 C237.518475,35.5693671 237.265604,35.7232375 237.136851,35.933527 C236.715055,36.6259435 236.10219,37.1444866 235.576877,37.73381 C232.463625,41.2538506 229.995684,45.3226954 227.359334,49.2345925 C225.39868,52.1432549 223.427726,55.0708947 222.006291,58.276014 C220.669833,61.290847 219.094924,65.8818252 220.331984,69.1592635 C220.522539,69.6521615 220.837212,69.862451 221.300208,69.9440023 C222.979665,70.2317398 224.663757,69.9388733 225.935323,69.5188072 C236.972562,65.9028541 246.881922,60.2034965 256.6718,54.0086764 C259.581107,52.1673613 262.470843,50.2947592 265.349765,48.402154 C267.352649,47.0793819 269.356564,45.750455 271.287862,44.3302317 C273.574004,42.6427869 275.907526,41.0266354 278.188518,39.3340616 C278.49289,39.1032561 278.827134,38.9191246 279.255109,38.6421579 C278.417184,39.8659401 277.994873,40.437312 277.902171,40.5496373 C274.992349,44.0322361 273.187744,46.0889698 269.825226,49.1566315 C260.383497,57.7738838 249.938523,65.5510039 238.523265,71.4073093 C230.953093,75.2909968 221.365615,78.1806819 215.923475,69.5747135 C213.514761,65.7664224 213.644029,61.3467532 214.836798,57.1476315 C215.136021,56.0956712 215.459964,55.0549948 215.774637,54.0086764 C215.824078,53.8414707 215.884849,53.6819584 215.914205,53.5116752 C213.91235,54.6805769 212.2983,56.4716278 210.413354,57.8585125 C207.428855,60.087068 204.055521,61.8858123 200.751199,63.594286 C198.431582,64.7939618 196.063038,66.1531499 193.480249,66.6691285 C192.812278,66.8024828 192.10362,66.925579 191.464489,66.6911832 C190.599268,66.3736974 190.0858,65.4822752 189.809753,64.6057271 C188.659215,60.9615644 188.998608,58.4170618 191.87753,55.6238022 C192.274604,55.2391263 192.583097,54.7575121 192.938971,54.3266751 C193.181027,54.0338086 193.443168,53.756842 193.767626,53.3926822 C193.587887,53.4183272 193.495185,53.4085821 193.443168,53.4439723 C188.783848,57.0963414 184.063756,60.7163977 179.434821,64.4410859 C176.013076,67.1948521 172.50481,69.8686058 169.186582,72.7336717 C167.098721,74.5365192 163.911822,78.3119846 160.745523,77.4631332 C160.343813,77.3554239 159.967339,77.1559054 159.720648,76.7963617 C157.283607,73.1983601 156.513148,70.6989928 157.942309,66.4337068 C163.395779,50.1562759 174.690524,35.2231589 186.182003,22.634513 C186.467578,22.3165143 186.737831,21.9856931 187.003062,21.6503198 L187.793993,20.6388146 C187.911931,20.4849443 187.984548,20.2951709 188.133902,20.0182042 C187.443785,20.1572005 186.916927,20.1618166 186.315907,20.1618166 C186.04295,20.1618166 185.629395,20.2474711 184.770868,20.3326127 C182.969354,20.512641 181.8183,20.699337 180.439096,20.8660298 C178.452177,21.1055547 176.470923,21.3886761 174.492244,21.6846201 C170.739861,22.245221 166.996233,22.8591637 163.23252,23.3371876 C156.019251,24.2532291 148.647873,24.6645758 141.514432,23.2587137 C139.641845,22.8894249 137.768229,22.385756 136.116068,21.4327856 C132.902903,19.578648 132.054677,16.5827923 131.719404,13.0940387 C131.590651,11.7558796 131.97176,10.5197878 132.507374,9.31395722 C132.97552,8.25738085 133.706838,7.42186487 134.623561,6.73457733 C134.953684,6.48787188 135.309043,6.27758241 135.710753,6.1852602 Z M121.831125,47.7810639 C120.033337,46.8575608 116.380033,51.5734404 115.279087,52.6788919 C113.126749,54.8413773 111.088848,57.1170071 109.177134,59.4940591 C106.828107,62.4149179 103.200347,66.0676477 102.881558,69.9746976 C103.453233,69.5532092 103.949297,69.2423169 104.383035,68.8600722 C110.636719,63.401109 116.853619,58.1689443 122.056934,51.6911717 C122.223992,51.4832307 122.390028,51.2737606 122.555042,51.0632712 C122.812526,50.7340312 123.076651,50.3920496 123.18087,49.9878896 C123.391864,49.1703957 122.514682,48.1327289 121.831125,47.7810639 Z M461.893281,36.323432 C459.678829,36.1428909 457.551469,37.353128 455.62834,38.3002035 C453.621684,39.2885892 451.679201,40.4054957 449.811077,41.6361329 C446.125757,44.064257 442.736344,46.9340437 439.691728,50.1287022 C437.809852,52.1024137 435.92492,54.0807152 434.246256,56.2308877 C433.202184,57.5681154 432.24062,58.9696036 431.367674,60.424642 C431.109457,60.8550845 430.177941,61.9872911 430.286423,62.5034141 C430.398979,63.0419773 430.899624,63.1587679 431.33355,62.8762263 C436.141374,59.6096573 441.163615,56.6832603 445.893515,53.2728705 C447.301739,52.2579646 448.69723,51.2267386 450.081007,50.1791925 C450.969233,49.5064986 451.852874,48.8276847 452.730913,48.1417307 C453.101788,47.852049 453.481443,47.5712618 453.863172,47.2923105 L454.627408,46.7347647 C455.899119,45.8026304 457.144196,44.8386115 458.11425,43.5812842 C458.390825,43.2232028 459.41059,41.947155 460.405217,40.5726384 L460.717578,40.1362631 C461.853265,38.5312282 462.846815,36.9098287 462.505463,36.5442633 C462.353691,36.3815723 462.114827,36.3412821 461.893281,36.323432 Z M226.060471,38.0097508 C225.246751,37.4891562 222.699498,38.9565664 221.892988,39.2627683 C217.848593,40.7968557 214.418093,42.8469216 210.979868,45.5124689 C208.03142,47.7984693 205.19988,50.2347498 202.502243,52.8105393 C201.130249,54.1204889 199.797911,55.4699318 198.492353,56.8455327 C197.444302,57.9487831 196.322605,58.8268698 195.789051,60.3168477 C197.405161,59.9526879 198.990886,58.7576282 200.421076,57.9585282 C202.028946,57.0599254 203.629091,56.1474742 205.216875,55.2150199 C209.160843,52.9008099 213.022408,50.4609392 216.73874,47.7974435 C217.112125,47.5297091 217.509715,47.2624876 217.915545,46.9921887 C219.106769,46.1982177 220.36958,45.3755243 221.315659,44.4097314 C221.885263,43.8275886 222.334869,43.0438756 222.821041,42.3899267 C223.905143,40.9327745 224.985125,39.4725449 226.060471,38.0097508 Z M341.111779,7.40848494 C340.379247,7.22064299 339.5283,7.33785227 338.806021,7.51136296 C338.592259,7.56254605 338.349791,7.65416379 338.287251,7.8645263 C338.248292,7.99350769 338.291352,8.13067838 338.326723,8.26017161 C338.754353,9.83945242 337.894677,11.0317124 336.932735,12.151414 L336.656136,12.469626 C336.378801,12.786407 336.102331,13.0997096 335.854365,13.4168682 C334.281139,15.4283638 332.735595,17.4603326 331.195689,19.4969079 C328.163039,23.5060796 325.098094,27.5961205 321.959331,31.4578849 C320.023684,33.8389224 318.090088,36.2235427 316.218518,38.6557633 C314.831886,40.4574082 313.674906,42.4008302 312.17601,44.1221176 C311.277902,45.1529451 310.272658,46.1970802 311.153849,47.5457547 C311.268675,47.7208009 311.401443,47.8953353 311.589574,47.9890003 C312.46769,48.4261039 314.506373,46.9499835 315.276326,46.5789061 C326.298133,41.2696839 337.772583,36.9933364 348.561661,31.1364551 C351.267261,29.6675003 353.960558,28.1105106 356.222743,26.0237759 C358.050227,24.3378048 359.557838,22.248511 360.424675,19.9099554 C361.539108,16.9039724 361.855393,13.9179507 358.67921,12.2514292 C355.881339,10.7829863 352.901488,9.6615647 349.830904,8.91429154 C346.955628,8.21461866 343.972189,8.14296233 341.111779,7.40848494 Z M383.594166,23.6543745 C385.132746,23.8757467 386.12522,26.3606762 386.796679,27.4958645 C387.050656,27.9239208 387.225606,28.4479749 387.115513,28.9138008 C387.090988,29.0155691 387.053382,29.1152391 386.999425,29.2101878 C386.65661,29.8166008 385.840176,29.9765973 385.125661,30.0390222 C383.947337,30.1413151 383.549475,30.7776291 382.578257,31.1096874 C381.846846,31.3557148 381.466425,31.8865885 381.009157,32.4505106 C380.716483,32.8114208 380.318622,33.1539707 379.843368,33.1587503 C379.249301,33.1649869 378.804023,32.6608667 378.450308,32.2023849 C377.787024,31.3436495 377.458924,30.9722478 377.717262,29.9430243 C377.942353,29.0459947 378.247562,28.1447684 378.654144,27.3080653 C379.460767,25.6488228 380.748094,24.2954097 382.615318,23.7634869 C382.932517,23.6732593 383.266612,23.6071624 383.594166,23.6543745 Z" id="Combined-Shape"></path>
        </g>
    </g>
</svg>