<?xml version="1.0" encoding="UTF-8"?>
<svg width="79px" height="79px" viewBox="0 0 79 79" version="1.1" xmlns="http://www.w3.org/2000/svg" xmlns:xlink="http://www.w3.org/1999/xlink">
    <title>Cereal</title>
    <g id="Cereal" stroke="none" stroke-width="1" fill="none" fill-rule="evenodd">
        <g id="_brand-icons/80x80/Cereals" transform="translate(4.500000, 5.000000)">
            <rect id="bounding-box" x="0" y="0" width="69.4893402" height="69.3082502"></rect>
            <path d="M52.812702,47.7067954 C53.3961164,47.8118191 53.8230859,47.9184162 54.0641592,47.9930371 L54.4021128,48.0976459 L54.517671,48.4282515 C54.5966895,48.6543193 54.7088385,49.0522488 54.8191188,49.595134 C55.4360888,52.6323382 55.1870236,55.9740697 53.4414756,59.1345084 C52.7557573,60.3760502 51.8554976,61.5370026 50.7224143,62.6043334 C49.3035694,63.9261744 47.6924607,64.9468291 45.9271508,65.6939231 C42.4862073,67.1501593 38.8744461,67.4604273 35.6863928,67.1255185 C35.2804635,67.0828751 34.9872367,67.0395352 34.8235255,67.0091567 L34.7446323,66.9938842 L34.6658148,67.0091567 C34.5021035,67.0395352 34.2088768,67.0828751 33.8029474,67.1255185 C30.6148941,67.4604273 27.0031329,67.1501593 23.5621894,65.6939231 C21.7968796,64.9468291 20.1857708,63.9261744 18.7641166,62.6017017 C17.6338426,61.5370026 16.733583,60.3760502 16.0478646,59.1345084 C14.3023166,55.9740697 14.0532514,52.6323382 14.6702214,49.595134 C14.7805017,49.0522488 14.8926507,48.6543193 14.9716692,48.4282515 L15.0872274,48.0976459 L15.425181,47.9930371 C15.6662543,47.9184162 16.0932239,47.8118191 16.6766383,47.7067954 C19.9191225,47.1230978 23.4825393,47.3522621 26.8556891,48.986309 C28.1561945,49.6163097 29.3755508,50.440846 30.5067846,51.4824819 C31.8926181,52.8032718 32.9696744,54.299806 33.7648162,55.9376597 C34.1693788,56.7709882 34.4932791,57.6148423 34.7455115,58.4597663 C34.9960611,57.6148423 35.3199615,56.7709882 35.724524,55.9376597 C36.5196658,54.299806 37.5967221,52.8032718 38.9913469,51.4742468 C40.1137894,50.440846 41.3331457,49.6163097 42.6336511,48.986309 C46.0068009,47.3522621 49.5702178,47.1230978 52.812702,47.7067954 Z M43.2518529,50.230801 C42.0740415,50.8013654 40.969091,51.5485398 39.9573349,52.4798934 C38.6942727,53.6836742 37.7146068,55.0448878 36.9902651,56.5369057 C36.0203325,58.534798 35.554334,60.6133077 35.447382,62.6017627 C35.4790699,63.2165962 35.4776032,63.8233485 35.4481423,64.4180545 C35.4665233,64.7865949 35.4977235,65.1504175 35.5395454,65.5077189 C35.5483053,65.582558 35.5570235,65.6522864 35.5655462,65.7167287 C35.6472539,65.726645 35.7371394,65.7368633 35.8348775,65.7471308 C38.8045712,66.0591007 42.1874684,65.7684932 45.3742278,64.4198299 C46.9922009,63.7350901 48.4639481,62.8027223 49.7563624,61.5986827 C50.7813618,60.6331504 51.5928247,59.5867082 52.2091683,58.4707742 C53.7752537,55.6352653 54.0005093,52.6129897 53.4428523,49.8677701 C53.3944089,49.6292937 53.3432489,49.4135971 53.2919749,49.2228549 C53.0768923,49.1710697 52.8323381,49.1193381 52.5609715,49.0704879 C49.588643,48.5354225 46.3173247,48.7458019 43.2518529,50.230801 Z M16.9283687,49.0704879 C16.6570021,49.1193381 16.412448,49.1710697 16.1973653,49.2228549 C16.1460913,49.4135971 16.0949314,49.6292937 16.0464879,49.8677701 C15.4888309,52.6129897 15.7140865,55.6352653 17.2801719,58.4707742 C17.8965155,59.5867082 18.7079784,60.6331504 19.7301686,61.596051 C21.0253921,62.8027223 22.4971393,63.7350901 24.1151125,64.4198299 C27.3018718,65.7684932 30.684769,66.0591007 33.6544627,65.7471308 C33.7522008,65.7368633 33.8420863,65.726645 33.923794,65.7167287 C33.9323167,65.6522864 33.9410349,65.582558 33.9497948,65.5077189 C33.9916168,65.1504175 34.0228169,64.7865949 34.0423598,64.4174709 C34.011737,63.8233485 34.0102703,63.2165962 34.040551,62.6017434 C33.9350062,60.6133077 33.4690077,58.534798 32.4990751,56.5369057 C31.7747334,55.0448878 30.7950675,53.6836742 29.5407966,52.4881286 C28.5202492,51.5485398 27.4152987,50.8013654 26.2374873,50.230801 C23.1720156,48.7458019 19.9006972,48.5354225 16.9283687,49.0704879 Z M26.8556891,28.1245257 C28.1561945,28.7545264 29.3755508,29.5790627 30.5067846,30.6206986 C31.8926181,31.9414885 32.9696744,33.4380227 33.7648162,35.0758764 C34.1709954,35.9125348 34.4958664,36.7598031 34.7485317,37.6081119 C34.9888745,36.803509 35.2960903,36.0003596 35.6767516,35.2068967 C36.4767021,33.5394536 37.5700601,32.0205375 38.9883239,30.6845714 C40.110475,29.6391398 41.3296259,28.8040353 42.6300285,28.1648857 C46.0102855,26.5034849 49.5810653,26.264716 52.8266423,26.8483639 C53.4036319,26.9521232 53.8257667,27.0574627 54.0641592,27.1312538 L54.4021128,27.2358626 L54.517671,27.5664682 C54.5966895,27.792536 54.7088385,28.1904655 54.8191188,28.7333507 C55.4360888,31.7705549 55.1870236,35.1122863 53.4414756,38.2727251 C52.7557573,39.5142668 51.8554976,40.6752193 50.7224143,41.7425501 C49.3035694,43.0643911 47.6924607,44.0850458 45.9271508,44.8321398 C42.4862073,46.2883759 38.8744461,46.598644 35.6863928,46.2637352 C35.2804635,46.2210918 34.9872367,46.1777519 34.8235255,46.1473734 L34.7446323,46.1318842 L34.6658148,46.1473734 C34.5021035,46.1777519 34.2088768,46.2210918 33.8029474,46.2637352 C30.6148941,46.598644 27.0031329,46.2883759 23.5621894,44.8321398 C21.7968796,44.0850458 20.1857708,43.0643911 18.7641166,41.7399184 C17.6338426,40.6752193 16.733583,39.5142668 16.0478646,38.2727251 C14.3023166,35.1122863 14.0532514,31.7705549 14.6702214,28.7333507 C14.7805017,28.1904655 14.8926507,27.792536 14.9716692,27.5664682 L15.0872274,27.2358626 L15.425181,27.1312538 C15.6662543,27.0566329 16.0932239,26.9500358 16.6766383,26.8450121 C19.9191225,26.2613145 23.4825393,26.4904788 26.8556891,28.1245257 Z M43.2554755,29.4058424 C42.0775613,29.9847888 40.9724054,30.741808 39.9543759,31.6902221 C38.6661484,32.9037107 37.6731008,34.2832736 36.9452778,35.8003715 C36.0055971,37.7590729 35.5526997,39.7969303 35.4475413,41.7488499 C35.4790256,42.3601435 35.4774623,42.9632854 35.4482287,43.5545257 C35.4663802,43.9239758 35.4976154,44.2884043 35.5395377,44.6462647 C35.5482897,44.7209737 35.5570001,44.7905914 35.5655157,44.8549416 C35.6472316,44.8648592 35.7371272,44.8750787 35.8348775,44.8853475 C38.8045712,45.1973173 42.1874684,44.9067099 45.3742278,43.5580466 C46.9922009,42.8733067 48.4639481,41.940939 49.7563624,40.7368994 C50.7813618,39.7713671 51.5928247,38.7249248 52.2091683,37.6089909 C53.7752537,34.7734819 54.0005093,31.7512064 53.4428523,29.0059868 C53.3944231,28.7675803 53.3432789,28.5519402 53.29202,28.3612393 C53.0809201,28.3105497 52.8411187,28.2599281 52.5751647,28.2121019 C49.6021756,27.6774731 46.326313,27.8965217 43.2554755,29.4058424 Z M16.9283687,28.2087046 C16.6570021,28.2575548 16.412448,28.3092864 16.1973653,28.3610716 C16.1460913,28.5518138 16.0949314,28.7675104 16.0464879,29.0059868 C15.4888309,31.7512064 15.7140865,34.7734819 17.2801719,37.6089909 C17.8965155,38.7249248 18.7079784,39.7713671 19.7301686,40.7342677 C21.0253921,41.940939 22.4971393,42.8733067 24.1151125,43.5580466 C27.3018718,44.9067099 30.684769,45.1973173 33.6544627,44.8853475 C33.7522008,44.87508 33.8420863,44.8648617 33.923794,44.8549453 C33.9323167,44.7905031 33.9410349,44.7207747 33.9497948,44.6459355 C33.9916926,44.2879863 34.02293,43.9234922 34.042466,43.5536796 C34.0119334,42.9623285 34.0105825,42.3592567 34.040735,41.7482411 C33.9364133,39.7578062 33.4704734,37.6760336 32.4990751,35.6751223 C31.7747334,34.1831045 30.7950675,32.8218909 29.5407966,31.6263452 C28.5202492,30.6867565 27.4152987,29.939582 26.2374873,29.3690177 C23.1720156,27.8840186 19.9006972,27.6736392 16.9283687,28.2087046 Z M34.7446701,1.99588425 L35.061047,2.15366045 C35.3200453,2.28282212 35.7517199,2.53407281 36.2988067,2.91329008 C37.2020122,3.5393537 38.1037842,4.30471092 38.9460166,5.21607242 C41.3593966,7.82753876 42.8123825,11.0950732 42.8123825,15.0398903 C42.8123825,18.970532 41.3714119,22.4551015 38.9785688,25.4496182 C38.1445817,26.493309 37.2515401,27.4025098 36.3572828,28.1738302 C36.0429646,28.444938 35.7502007,28.6799373 35.486165,28.8783353 C35.3244912,28.9998179 35.2060258,29.083568 35.1379344,29.1290575 L34.7446701,29.3917839 L34.3514058,29.1290575 C34.2833144,29.083568 34.164849,28.9998179 34.0031752,28.8783353 C33.7391395,28.6799373 33.4463757,28.444938 33.1320574,28.1738302 C32.2378001,27.4025098 31.3447585,26.493309 30.5107714,25.4496182 C28.1179283,22.4551015 26.6769577,18.970532 26.6769577,15.0398903 C26.6769577,11.0950732 28.1299436,7.82753876 30.5433236,5.21607242 C31.385556,4.30471092 32.287328,3.5393537 33.1905335,2.91329008 C33.7376203,2.53407281 34.1692949,2.28282212 34.4282932,2.15366045 L34.7446701,1.99588425 Z M34.7446701,3.56737511 C34.5187101,3.70034002 34.2674525,3.86037194 33.9969723,4.0478573 C33.173802,4.61844394 32.3491982,5.31830644 31.5801466,6.15048062 C29.3898578,8.52054476 28.0806424,11.4647623 28.0806424,15.0398903 C28.0806424,18.6291938 29.401873,21.8242069 31.6126988,24.5909385 C32.3899957,25.5636845 33.2233299,26.4120976 34.0554484,27.1298217 C34.3023429,27.3427747 34.5335684,27.5305696 34.7446701,27.6927585 C34.9557718,27.5305696 35.1869973,27.3427747 35.4338918,27.1298217 C36.2660103,26.4120976 37.0993445,25.5636845 37.8766415,24.5909385 C40.0874672,21.8242069 41.4086978,18.6291938 41.4086978,15.0398903 C41.4086978,11.4647623 40.0994824,8.52054476 37.9091936,6.15048062 C37.140142,5.31830644 36.3155382,4.61844394 35.4923679,4.0478573 C35.2218877,3.86037194 34.9706302,3.70034002 34.7446701,3.56737511 Z" id="Combined-Shape" fill="#FFFFFF"></path>
        </g>
    </g>
</svg>