<?xml version="1.0" encoding="utf-8"?>
<svg width="80px" height="80px" viewBox="0 0 80 80" version="1.1" xmlns="http://www.w3.org/2000/svg">
  <title>4</title>
  <desc>Created with Sketch.</desc>
  <g id="Page-1" stroke="none" stroke-width="1" fill="none" fill-rule="evenodd" transform="matrix(1, 0, 0, 1, 0, 16.999998)">
    <g id="4" fill="#000000">
      <path d="M58.4843605,61.7464905 L58.4843605,61.4932563 C58.4843605,42.8900358 54.9256874,32.478943 54.8875247,32.3744839 C54.8143795,32.1560694 54.9288676,31.9186623 55.1483032,31.8395266 L56.1405338,31.4944949 C56.1818767,31.4786678 56.2295801,31.4723369 56.2804637,31.4723369 C56.4490157,31.4723369 56.6143875,31.5799615 56.6748118,31.7508946 C56.7129745,31.8585191 60.3797754,42.4816956 60.3765951,61.4869254 L60.3765951,61.4932563 L60.3765951,61.7464905 L58.4843605,61.7464905 Z M38.7542369,61.7464905 L38.7542369,61.7464905 L38.7542369,26.7273603 C38.7542369,26.2082301 39.1803873,25.7872282 39.6987641,25.7872282 C40.2203212,25.7872282 40.6464716,26.2082301 40.6464716,26.7273603 L40.6464716,61.4457748 C40.6496518,61.461602 40.652832,61.4774291 40.652832,61.4932563 L40.652832,61.7464905 L38.7542369,61.7464905 Z M19.0241134,61.7464905 L19.0241134,61.4932563 C19.0241134,61.4932563 19.0272936,61.4900908 19.0272936,61.4869254 C19.0209331,42.5101844 22.6845538,31.8585191 22.7258967,31.75406 C22.7831408,31.5799615 22.9453323,31.4723369 23.123425,31.4723369 C23.1679482,31.4723369 23.2156515,31.4786678 23.2601747,31.4944949 L24.2492251,31.8395266 C24.4718409,31.9186623 24.5863291,32.1560694 24.5068234,32.3744839 C24.4941025,32.412469 23.9979872,33.8685659 23.3778431,36.63515 C22.8658267,38.9047619 22.2711244,42.0575282 21.7940904,46.0364712 C21.2916147,50.2559868 20.916348,55.4029727 20.916348,61.4077897 C20.9195282,61.4362786 20.9227084,61.4647674 20.9227084,61.4932563 L20.9227084,61.7464905 L19.0241134,61.7464905 Z M78.367135,61.7464905 L72.013043,61.7464905 C71.9907814,52.3515001 71.3642768,41.671346 67.261785,32.9474264 C64.9434,28.0156895 61.6868484,24.1791908 57.5779961,21.5455546 C52.868081,18.5289017 46.9051568,17 39.8545952,17 C26.7457027,17 17.5071454,22.3622351 12.4060626,32.9410955 C8.05551306,41.9530691 7.40992714,52.9877512 7.38448533,61.7464905 L4.97069361,61.7464905 L0.632865022,61.7464905 C0.279859909,61.7464905 0,62.0250482 0,62.3732453 C0,62.7214423 0.279859909,63 0.632865022,63 L4.97069361,63 L7.39084578,63 L8.64703514,63 L19.0241134,63 L20.9227084,63 L38.7605974,63 L40.652832,63 L58.4843605,63 L60.3765951,63 L66.2186707,63 L70.7504931,63 L72.013043,63 L78.367135,63 C78.7137796,63 79,62.7214423 79,62.3732453 C79,62.0250482 78.7137796,61.7464905 78.367135,61.7464905 L78.367135,61.7464905 Z" id="Fill-21" style="fill: rgb(213, 213, 213);"/>
    </g>
  </g>
</svg>