<?xml version="1.0" encoding="UTF-8"?>
<svg width="1150px" height="368px" viewBox="0 0 1150 368" version="1.1" xmlns="http://www.w3.org/2000/svg" xmlns:xlink="http://www.w3.org/1999/xlink">
    <!-- Generator: Sketch 60.1 (88133) - https://sketch.com -->
    <title>epdp/exp/m-d/scripting/roma_L</title>
    <desc>Created with Sketch.</desc>
    <g id="epdp/exp/m-d/scripting/roma" stroke="none" stroke-width="1" fill="none" fill-rule="evenodd">
        <path d="M639.07424,177.922472 C639.11024,177.816472 639.14624,177.710472 639.18224,177.604472 L639.02924,177.879472 L639.07424,177.922472 Z M287.09524,156.312472 C286.87924,154.708472 286.25624,153.359472 284.69024,152.552472 C283.07724,151.720472 281.48524,150.847472 279.79924,149.947472 C277.64324,151.729472 276.60624,154.166472 275.79724,156.885472 C279.39824,159.596472 282.62924,159.411472 287.09524,156.312472 L287.09524,156.312472 Z M476.20224,149.104472 C476.36624,149.244472 476.36224,149.570472 476.51624,149.736472 C476.92824,150.178472 477.38324,150.580472 477.87224,151.046472 C478.62024,150.560472 479.24024,150.205472 479.80524,149.779472 C480.92524,148.934472 482.18024,148.379472 483.56724,148.457472 C485.79124,148.583472 486.83524,147.220472 487.75324,145.560472 C486.88224,143.560472 485.43924,142.038472 484.10424,140.477472 C483.38624,139.637472 482.28924,139.266472 481.05224,139.697472 C479.25724,140.324472 477.42424,140.844472 475.20624,141.534472 C474.57224,144.133472 473.51824,146.808472 476.20224,149.104472 L476.20224,149.104472 Z M471.86124,162.009472 C471.29424,160.373472 469.97824,159.464472 468.55124,158.731472 C467.27924,158.077472 466.55824,158.249472 465.60724,159.337472 C464.82224,160.235472 464.02524,161.155472 463.42724,162.179472 C461.97924,164.656472 460.57324,167.163472 459.27924,169.724472 C456.10624,176.002472 453.93824,182.687472 451.50124,189.262472 C451.33524,189.711472 451.20824,190.174472 451.03824,190.621472 C450.57624,191.832472 450.83824,192.986472 451.34324,194.098472 C451.81324,195.132472 452.33524,195.335472 453.47024,195.011472 C455.20024,194.516472 456.29324,193.247472 457.14824,191.783472 C458.02924,190.273472 458.82824,188.709472 459.58824,187.133472 C461.80024,182.542472 463.92024,177.905472 466.18724,173.342472 C467.46024,170.780472 468.91624,168.305472 470.36924,165.837472 C470.88524,164.959472 471.63724,164.220472 472.37124,163.307472 C472.15124,162.749472 471.99124,162.384472 471.86124,162.009472 L471.86124,162.009472 Z M340.07424,206.162472 C341.75224,205.657472 342.55524,204.393472 343.58424,203.439472 C345.97524,201.221472 348.40624,199.028472 350.61624,196.638472 C353.37824,193.652472 355.97324,190.508472 358.57424,187.377472 C363.52124,181.419472 368.33824,175.358472 372.89624,169.094472 C373.92324,167.683472 374.92424,166.253472 375.89424,164.890472 C375.16824,163.601472 374.21624,163.280472 372.98824,163.682472 C372.38324,163.880472 371.71724,163.964472 371.17724,164.273472 C368.62124,165.731472 366.08724,167.228472 363.57624,168.761472 C362.90724,169.169472 362.13924,169.640472 361.78124,170.284472 C361.05524,171.589472 359.90824,172.441472 358.92524,173.472472 C356.45024,176.067472 353.88024,178.568472 352.19724,181.825472 C351.36324,183.437472 350.30224,184.951472 349.19924,186.399472 C347.16924,189.065472 345.25424,191.780472 343.94424,194.891472 C342.82924,197.535472 341.59924,200.131472 340.49224,202.778472 C340.06624,203.797472 339.74624,204.888472 340.07424,206.162472 L340.07424,206.162472 Z M364.76424,186.113472 C364.19824,186.460472 363.54924,186.723472 363.08224,187.173472 C362.22324,188.001472 361.46424,188.934472 360.67624,189.834472 C359.36224,191.334472 358.10024,192.883472 356.74224,194.342472 C353.04424,198.315472 349.29224,202.238472 345.59324,206.212472 C344.50824,207.377472 343.46224,208.594472 342.52624,209.880472 C341.88324,210.765472 341.25524,211.514472 340.07524,211.528472 C337.94824,212.972472 336.32824,211.472472 334.66424,210.520472 C334.25424,210.284472 334.04224,209.619472 333.84524,209.110472 C333.35824,207.849472 332.92524,206.566472 332.48524,205.287472 C332.14324,204.294472 332.07624,203.309472 332.19824,202.234472 C332.54624,199.138472 333.83124,196.398472 335.25024,193.717472 C337.69124,189.104472 340.82524,184.945472 344.16724,180.967472 C347.81724,176.621472 351.74824,172.529472 355.95124,168.696472 C358.92724,165.983472 362.17624,163.700472 365.73024,161.844472 C368.89324,160.192472 372.24624,159.290472 376.01424,159.596472 C376.49124,160.110472 377.08424,160.750472 377.78324,161.506472 C378.15824,161.056472 378.54624,160.681472 378.82424,160.237472 C380.01024,158.345472 381.15624,156.427472 382.33324,154.528472 C383.13924,153.227472 383.44624,153.186472 384.80324,154.034472 C385.47724,154.457472 386.18324,154.829472 386.87424,155.226472 C387.75324,155.731472 388.33424,156.427472 388.43324,157.487472 C388.48524,158.041472 388.63524,158.586472 388.74724,159.133472 C388.96724,160.195472 388.77624,161.106472 388.17424,162.075472 C385.64724,166.149472 383.54224,170.447472 381.65824,174.855472 C379.53024,179.835472 377.35824,184.798472 375.28924,189.805472 C374.25624,192.306472 373.35624,194.867472 372.49424,197.435472 C371.47924,200.461472 370.52424,203.509472 369.63224,206.573472 C369.00924,208.713472 368.45724,210.880472 368.02324,213.064472 C367.73824,214.497472 367.07324,215.566472 365.89224,216.375472 C365.56824,216.597472 365.30524,216.908472 365.00224,217.191472 L362.39324,217.191472 C361.46424,216.561472 360.88024,215.745472 360.57624,214.704472 C360.46624,214.326472 360.29624,213.942472 360.06224,213.627472 C357.82324,210.611472 357.77824,207.342472 358.62924,203.827472 C359.74124,199.236472 361.16024,194.758472 362.89824,190.374472 C363.48024,188.904472 364.13024,187.462472 364.74724,186.010472 C364.69424,186.014472 364.64324,186.016472 364.59224,186.018472 C364.64924,186.050472 364.70724,186.081472 364.76424,186.113472 L364.76424,186.113472 Z M589.33824,174.278472 C591.09224,174.176472 592.32224,173.446472 593.55924,172.796472 C598.84424,170.014472 603.28924,166.183472 607.30324,161.801472 C608.71024,160.265472 609.99124,158.653472 610.98824,156.830472 C611.61424,155.686472 611.27524,154.379472 610.25124,153.704472 C608.41424,152.495472 604.80424,152.622472 603.33024,154.245472 C602.13224,155.566472 600.65424,156.488472 599.39224,157.681472 C598.19124,158.816472 596.85824,159.830472 596.00024,161.323472 C595.17124,162.768472 594.15424,164.103472 593.24824,165.504472 C592.86824,166.091472 592.52324,166.707472 592.23424,167.344472 C591.87824,168.129472 591.64324,168.970472 591.27424,169.748472 C590.60424,171.158472 589.83824,172.526472 589.33824,174.278472 L589.33824,174.278472 Z M639.02924,177.879472 C638.53024,178.764472 638.12724,179.723472 637.51124,180.516472 C636.34024,182.023472 635.05024,183.436472 633.80324,184.882472 C633.54224,185.184472 633.28724,185.506472 632.97124,185.739472 C631.30524,186.968472 629.60124,188.145472 627.95024,189.393472 C627.12924,190.013472 626.44324,190.815472 625.61124,191.416472 C621.47124,194.413472 617.18424,197.151472 612.32424,198.877472 C611.28424,199.247472 610.33024,199.847472 609.31524,200.291472 C605.43924,201.985472 601.50124,203.510472 597.45024,204.753472 C595.17624,205.451472 592.85524,205.392472 590.56624,205.317472 C584.50124,205.118472 579.91124,202.314472 576.41324,197.316472 C573.03724,192.492472 572.60124,187.287472 573.48924,181.750472 C573.59124,181.120472 573.69224,180.489472 573.78424,179.858472 C573.79524,179.784472 573.74924,179.703472 573.69324,179.482472 C573.03424,178.994472 572.28124,178.437472 571.35624,177.750472 C572.32124,176.874472 573.45824,177.288472 574.55724,176.771472 C575.18124,175.102472 575.82924,173.229472 576.57624,171.396472 C578.17624,167.468472 579.81124,163.554472 583.18024,160.715472 C583.42324,160.511472 583.63224,160.259472 583.82524,160.006472 C588.07224,154.443472 593.90724,151.047472 600.03324,148.014472 C601.92724,147.076472 603.84424,146.457472 605.95524,146.273472 C609.30424,145.981472 612.06324,147.306472 614.52924,149.314472 C615.45124,150.065472 616.28124,150.901472 617.33124,151.513472 C618.44024,152.158472 618.47724,152.598472 618.14524,153.911472 C617.37324,156.960472 615.51124,159.387472 613.50324,161.646472 C611.33024,164.088472 608.90224,166.306472 606.54224,168.577472 C604.56524,170.482472 602.17424,171.741472 599.73524,172.976472 C596.09824,174.817472 592.36224,176.388472 588.58924,177.917472 C587.24524,178.461472 586.24824,179.833472 585.83824,181.338472 C585.33624,183.177472 584.96524,185.054472 584.59224,186.926472 C584.29724,188.404472 584.00724,189.893472 583.85124,191.391472 C583.57024,194.110472 584.89724,195.565472 587.68124,195.734472 C592.60924,196.033472 597.40624,195.234472 602.09124,193.816472 C606.05924,192.614472 610.01824,191.351472 613.88924,189.874472 C618.20724,188.227472 622.43124,186.328472 626.67924,184.499472 C629.98824,183.074472 633.06524,181.222472 636.10024,179.292472 C637.02024,178.706472 637.89024,177.958472 639.07424,177.922472 L639.02924,177.879472 Z M144.69824,110.217472 C144.40524,111.127472 144.29524,112.116472 143.88724,112.966472 C142.71124,115.412472 141.48724,117.840472 140.16924,120.212472 C137.64924,124.748472 135.11824,129.281472 132.47024,133.744472 C127.47924,142.151472 123.54224,151.062472 119.74524,160.040472 C117.04024,166.435472 114.44824,172.877472 111.70524,179.255472 C109.37124,184.684472 106.84224,190.029472 104.49624,195.452472 C102.43424,200.217472 100.42024,205.017472 99.44624,210.151472 C99.02924,212.352472 98.47724,214.504472 97.88124,216.658472 C97.45824,218.191472 97.26024,219.791472 97.05524,221.374472 C96.88724,222.663472 97.09524,223.913472 97.77824,225.069472 C98.53824,226.358472 101.95924,228.629472 103.43724,228.771472 C104.49324,228.871472 104.86024,228.599472 105.31624,227.421472 C105.45324,227.066472 105.55724,226.573472 105.83224,226.417472 C106.81324,225.859472 106.93724,224.919472 107.13224,223.979472 C107.26124,223.357472 107.40424,222.735472 107.59724,222.130472 C107.98424,220.921472 108.43024,219.730472 108.81324,218.519472 C109.17224,217.383472 109.38024,216.189472 109.83124,215.094472 C111.80724,210.303472 113.78424,205.510472 115.88124,200.772472 C118.23624,195.448472 120.77124,190.205472 123.13724,184.887472 C125.73024,179.059472 128.21624,173.184472 130.75724,167.332472 C131.04224,166.674472 131.40924,166.052472 131.68824,165.392472 C134.17024,159.511472 136.84724,153.726472 139.94924,148.141472 C142.39124,143.746472 144.65724,139.248472 147.24524,134.943472 C149.30924,131.508472 151.16624,127.995472 152.73524,124.318472 C153.26724,123.069472 154.13124,121.866472 154.28024,120.577472 C154.43924,119.207472 153.93424,117.759472 153.71124,116.347472 C153.63724,115.877472 153.63924,115.358472 153.42624,114.957472 C153.02224,114.198472 152.63824,113.297472 151.98024,112.832472 C149.90724,111.366472 147.76224,109.984472 145.33324,108.881472 C145.08724,109.389472 144.83724,109.785472 144.69824,110.217472 L144.69824,110.217472 Z M317.31924,182.757472 C317.55124,182.914472 317.64824,182.980472 317.74824,183.047472 C317.31824,182.465472 317.37624,181.888472 317.68224,181.255472 C318.13424,180.320472 318.55524,179.368472 318.92624,178.399472 C319.72024,176.314472 320.49524,174.221472 321.23824,172.117472 C321.79724,170.536472 322.34724,168.953472 322.26824,167.221472 C322.24324,166.685472 322.43324,166.112472 322.63024,165.597472 C323.46924,163.403472 322.83224,161.174472 322.75124,158.975472 C322.72124,158.193472 322.15324,157.263472 321.55024,156.700472 C319.50124,154.787472 317.10824,153.584472 314.18324,153.853472 C313.94724,153.874472 313.60624,153.832472 313.49424,153.969472 C312.40024,155.296472 310.62024,155.630472 309.43424,156.828472 C307.91724,158.363472 306.29624,159.797472 304.80224,161.353472 C299.41924,166.957472 294.59524,173.022472 290.16324,179.396472 C285.32924,186.351472 280.61624,193.391472 275.72824,200.309472 C273.47424,203.499472 270.93524,206.490472 268.50824,209.558472 C268.30224,209.818472 267.96424,209.974472 267.55724,210.274472 C267.55724,209.798472 267.48724,209.539472 267.56724,209.341472 C268.67724,206.605472 269.76824,203.859472 270.94124,201.150472 C273.47724,195.287472 276.15324,189.483472 278.56824,183.571472 C279.40024,181.536472 279.80424,179.278472 280.09124,177.081472 C280.45624,174.268472 278.89424,171.687472 276.32624,170.459472 C275.58924,170.108472 274.84224,169.490472 274.09824,169.754472 C273.75624,171.316472 273.58024,172.746472 273.11824,174.076472 C272.46624,175.954472 271.66024,177.786472 270.81724,179.589472 C268.11124,185.376472 265.33424,191.129472 262.63424,196.918472 C261.55424,199.233472 260.57824,201.597472 259.59924,203.957472 C258.73124,206.050472 259.07324,208.036472 260.32424,209.875472 C260.77124,210.532472 261.26424,211.173472 261.82224,211.736472 C262.39024,212.312472 262.92824,212.822472 263.01624,213.717472 C263.09524,214.502472 263.70024,214.880472 264.46424,215.116472 C266.05724,215.608472 267.43924,215.469472 268.58624,214.133472 C269.05324,213.588472 269.59924,213.111472 270.09624,212.592472 C274.08324,208.425472 277.50724,203.818472 280.68324,199.019472 C282.35424,196.493472 284.02924,193.971472 285.72024,191.460472 C288.08424,187.950472 290.47424,184.459472 292.83524,180.948472 C295.37324,177.173472 297.89724,173.382472 300.89824,169.956472 C303.63424,166.833472 306.50024,163.822472 309.33124,160.782472 C309.79324,160.286472 310.37024,159.897472 311.28024,159.135472 C311.06624,160.077472 311.05324,160.570472 310.85024,160.966472 C307.95724,166.573472 305.04824,172.172472 302.12424,177.763472 C299.19824,183.358472 296.19824,188.917472 293.84524,194.789472 C292.77624,197.458472 291.75624,200.147472 290.73224,202.834472 C290.14124,204.384472 290.36724,205.801472 291.45924,207.088472 C291.97324,207.694472 292.42424,208.359472 292.86524,209.025472 C293.28024,209.651472 293.73424,210.139472 294.56624,210.163472 C295.45024,210.189472 296.05024,210.669472 296.38524,211.494472 C296.43424,211.614472 296.61624,211.680472 296.74324,211.776472 C297.04024,211.697472 297.34224,211.616472 297.72224,211.514472 C298.41524,212.195472 299.11624,213.171472 300.30024,212.697472 C301.30824,212.293472 302.57524,212.661472 303.35624,211.568472 C304.92724,209.371472 306.93424,207.510472 308.19424,205.067472 C308.96024,203.579472 309.86524,202.157472 310.78024,200.753472 C313.57024,196.469472 316.35124,192.177472 319.22024,187.944472 C321.67924,184.317472 324.15224,180.690472 326.80124,177.199472 C331.05624,171.591472 335.89524,166.479472 340.75124,161.390472 C342.56124,159.493472 344.43524,157.656472 346.36624,155.705472 C347.22524,156.865472 347.60124,158.158472 348.76024,158.746472 C350.65824,157.803472 352.30124,156.712472 353.44824,154.991472 C353.61924,154.736472 353.88524,154.519472 354.15124,154.359472 C356.34924,153.045472 356.89224,150.738472 357.62124,148.558472 C357.82724,147.941472 357.46024,147.315472 356.84724,147.313472 C355.10824,147.309472 353.27024,147.147472 351.65724,147.648472 C350.12024,148.126472 348.76124,149.285472 347.42624,150.283472 C345.19124,151.954472 342.95024,153.642472 341.32324,155.975472 C341.23724,156.098472 341.06624,156.157472 340.94524,156.258472 C338.49324,158.309472 336.34624,160.660472 334.23824,163.049472 C333.98024,163.340472 333.79424,163.696472 333.52924,163.978472 C331.89224,165.714472 330.18524,167.388472 328.61224,169.178472 C326.92824,171.094472 325.44824,173.191472 323.73124,175.073472 C321.47324,177.548472 319.49424,180.210472 317.73824,183.051472 C317.64324,182.984472 317.54724,182.917472 317.31924,182.757472 L317.31924,182.757472 Z M469.45024,142.362472 C469.37324,141.894472 469.06424,141.380472 469.18124,140.980472 C469.46024,140.024472 468.96724,139.459472 468.41524,138.860472 C467.49624,137.862472 466.59824,136.847472 465.66524,135.863472 C464.69824,134.844472 463.45724,134.308472 462.12024,133.965472 C458.46724,133.028472 454.74324,132.568472 450.99024,132.297472 C447.48124,132.044472 443.97524,131.742472 440.46424,131.518472 C436.87524,131.288472 433.28324,131.083472 429.68924,130.944472 C421.93324,130.646472 414.19124,131.230472 406.44224,131.370472 C403.25424,131.428472 400.05224,131.817472 396.88024,131.201472 C396.15924,131.062472 395.47824,130.717472 394.66124,130.425472 C394.06524,130.757472 393.31124,131.178472 392.58124,131.585472 C392.13424,134.067472 391.68324,136.486472 391.26624,138.913472 C391.00024,140.456472 391.69224,141.838472 393.20624,142.274472 C396.25824,143.151472 399.27524,144.146472 402.56124,143.970472 C408.46024,143.654472 414.36724,143.456472 420.27424,143.342472 C428.34424,143.185472 436.41424,143.232472 444.47324,143.782472 C445.73324,143.869472 446.98824,144.037472 448.51124,144.195472 C448.12424,144.609472 447.95924,144.877472 447.72024,145.029472 C444.02124,147.390472 440.22424,149.610472 436.62524,152.113472 C430.65624,156.266472 424.77524,160.550472 418.92424,164.871472 C413.52824,168.857472 408.13924,172.860472 402.90224,177.049472 C398.84824,180.291472 394.87224,183.668472 391.16324,187.292472 C388.26824,190.120472 385.19124,192.806472 382.86224,196.222472 C381.88724,197.652472 380.69124,198.948472 379.88024,200.512472 C379.77124,200.722472 379.65324,201.000472 379.46624,201.084472 C378.02624,201.734472 378.17924,203.403472 377.30724,204.417472 C377.14324,204.608472 377.18324,205.019472 377.21124,205.319472 C377.36624,206.988472 377.62724,208.651472 377.69424,210.321472 C377.75324,211.808472 378.73624,212.568472 379.74024,213.329472 C380.60924,213.987472 381.40224,213.339472 382.20524,213.045472 C386.25424,211.568472 390.24624,209.902472 394.36824,208.669472 C398.64524,207.390472 403.04424,206.520472 407.39524,205.496472 C408.32424,205.277472 409.28424,205.193472 410.22124,205.003472 C414.99024,204.041472 419.73524,202.941472 424.52924,202.132472 C428.53824,201.455472 432.57124,200.803472 436.67224,200.906472 C438.26524,200.946472 439.86524,200.953472 441.45424,200.857472 C443.23224,200.748472 444.95324,200.949472 446.67524,201.361472 C447.75924,201.621472 448.86724,201.800472 449.97324,201.940472 C450.51924,202.009472 451.10124,201.981472 451.64124,201.871472 C452.86624,201.623472 453.30224,200.497472 452.54224,199.518472 C452.15524,199.020472 451.66624,198.579472 451.16024,198.195472 C447.43424,195.369472 443.21024,193.758472 438.56924,193.405472 C435.78624,193.194472 432.98024,193.226472 430.18724,193.283472 C428.19524,193.324472 426.20824,193.603472 424.21724,193.753472 C420.87424,194.005472 417.51624,194.111472 414.26124,195.056472 C413.73124,195.210472 413.15424,195.196472 412.59924,195.275472 C408.97224,195.785472 405.32824,196.207472 401.72124,196.840472 C397.86824,197.516472 394.05024,198.394472 390.21524,199.175472 C389.82424,199.254472 389.42124,199.272472 388.48124,199.380472 C390.40624,197.378472 391.86324,195.678472 393.51324,194.194472 C395.70524,192.226472 398.01524,190.383472 400.33624,188.565472 C404.92324,184.969472 409.51224,181.374472 414.17524,177.879472 C418.76824,174.436472 423.48924,171.163472 428.08824,167.728472 C433.40024,163.759472 438.81324,159.942472 444.45024,156.453472 C448.03424,154.235472 451.60624,151.992472 455.43424,150.184472 C458.02724,148.959472 460.51024,147.503472 463.07624,146.218472 C463.60424,145.953472 464.28124,145.923472 464.89324,145.903472 C466.01524,145.868472 467.09824,145.870472 468.04024,145.067472 C468.43524,144.730472 469.04324,144.644472 469.72224,144.377472 C469.63624,143.734472 469.56124,143.045472 469.45024,142.362472 L469.45024,142.362472 Z M478.98724,203.244472 C479.45724,203.820472 480.09424,203.844472 480.74324,203.781472 C483.86224,203.481472 486.84924,202.792472 489.70024,201.379472 C494.08124,199.205472 498.12624,196.517472 502.11824,193.732472 C509.92924,188.283472 515.74424,181.256472 519.04224,172.250472 C519.20224,171.813472 519.40624,171.366472 519.44224,170.911472 C519.51524,169.970472 519.44724,169.018472 519.51024,168.074472 C519.75124,164.422472 519.09424,160.918472 517.74024,157.546472 C516.42924,154.284472 515.39924,153.895472 512.04424,154.870472 C511.22624,155.109472 511.40024,155.849472 510.88224,156.198472 C509.67124,155.987472 508.53424,155.976472 507.94624,157.419472 C507.81624,157.739472 507.39524,158.002472 507.04924,158.162472 C504.92424,159.142472 503.22124,160.725472 501.37224,162.096472 C500.67224,162.614472 500.01424,163.203472 499.40224,163.825472 C496.99524,166.274472 494.88724,168.971472 492.75724,171.660472 C489.93224,175.226472 487.09024,178.777472 484.68224,182.636472 C483.03724,185.273472 481.83824,188.140472 481.12824,191.192472 C480.89524,192.192472 480.61724,193.185472 480.29824,194.160472 C479.33324,197.117472 478.18924,200.043472 478.98724,203.244472 L478.98724,203.244472 Z M546.39224,179.801472 C546.61324,179.742472 546.90924,179.755472 547.04324,179.613472 C548.52224,178.047472 549.94324,176.426472 551.44524,174.882472 C552.83524,173.454472 554.31224,172.113472 555.73224,170.714472 C556.24224,170.211472 556.67524,169.629472 557.17724,169.116472 C559.97524,166.259472 563.06024,163.744472 566.27824,161.375472 C567.81024,160.247472 569.27424,160.537472 570.78624,161.222472 C571.39924,161.499472 571.81524,162.027472 571.74624,162.748472 C571.62524,164.012472 571.65324,165.339472 571.25524,166.517472 C569.87824,170.592472 568.44924,174.655472 566.84724,178.646472 C564.49524,184.499472 561.87924,190.248472 559.56324,196.115472 C557.95424,200.193472 556.59324,204.377472 555.72124,208.693472 C555.59724,209.312472 555.57724,209.954472 555.53924,210.587472 C555.40324,212.814472 555.20224,215.023472 553.86424,217.192472 C552.81024,215.486472 551.32224,214.223472 550.47724,212.463472 C550.13224,211.744472 549.72924,211.034472 549.52024,210.274472 C549.31824,209.536472 549.17224,208.717472 549.27524,207.972472 C549.95924,203.029472 551.51824,198.326472 553.39524,193.728472 C555.02224,189.742472 556.71324,185.781472 558.41724,181.828472 C559.14024,180.151472 560.12424,178.570472 560.71324,176.853472 C561.55024,174.411472 562.77224,172.197472 564.06624,169.996472 C564.22924,169.717472 564.08824,169.259472 564.08824,168.720472 C563.65224,168.908472 563.30224,168.958472 563.10824,169.159472 C560.62024,171.738472 558.15624,174.341472 555.68324,176.935472 C554.36024,178.321472 553.03224,179.704472 551.70224,181.084472 C548.54424,184.357472 545.74724,187.935472 543.14224,191.644472 C540.90024,194.836472 538.85524,198.171472 536.83024,201.508472 C535.55424,203.609472 534.47624,205.828472 533.35024,207.919472 C533.04424,207.945472 532.86824,208.016472 532.74824,207.962472 C530.43324,206.923472 530.52024,206.895472 529.80124,204.389472 C528.79224,200.870472 529.11124,197.463472 530.18524,194.028472 C532.05224,188.061472 534.58224,182.366472 537.32124,176.771472 C540.51424,170.244472 543.88324,163.804472 546.86924,157.176472 C547.72024,155.286472 548.61224,153.414472 549.46524,151.526472 C549.58624,151.255472 549.59424,150.934472 549.65024,150.655472 C548.92024,149.957472 548.08524,150.135472 547.31224,150.116472 C544.02724,150.038472 540.76324,150.277472 537.51424,150.765472 C534.83024,151.167472 532.13424,151.484472 529.45224,151.901472 C527.56124,152.194472 525.67924,152.560472 523.81024,152.969472 C523.30524,153.079472 522.86024,153.463472 522.21524,153.817472 C522.64024,154.447472 522.90524,155.029472 523.33324,155.441472 C525.21524,157.244472 526.46924,159.473472 527.62624,161.750472 C528.51024,163.489472 528.68924,165.439472 528.75124,167.346472 C528.99124,174.697472 526.88724,181.374472 522.71424,187.407472 C518.96424,192.830472 514.51124,197.598472 509.34824,201.706472 C507.66624,203.044472 506.10924,204.544472 504.39124,205.830472 C500.08624,209.053472 495.47324,211.737472 490.31324,213.372472 C487.99624,214.106472 485.65624,214.304472 483.21924,213.892472 C480.80624,213.484472 478.85624,212.428472 477.30924,210.568472 C476.95324,210.139472 476.64424,209.655472 476.22724,209.297472 C473.80324,207.214472 472.66624,204.443472 471.95424,201.441472 C471.41824,199.183472 470.92124,196.924472 470.97924,194.573472 C471.04924,191.756472 471.51424,189.045472 472.41124,186.349472 C473.75624,182.309472 475.56524,178.502472 477.62724,174.803472 C479.55224,171.352472 482.18624,168.437472 484.89824,165.609472 C487.38524,163.015472 489.99924,160.541472 492.57224,158.030472 C492.91324,157.696472 493.34424,157.454472 493.67724,157.211472 C493.12424,155.443472 491.18824,154.747472 491.27924,152.854472 C492.47224,152.103472 493.74524,151.705472 495.08524,151.474472 C497.84124,150.997472 500.61024,150.577472 503.34624,150.007472 C505.13624,149.635472 506.88524,149.054472 508.64324,148.537472 C509.71224,148.224472 510.77624,147.883472 511.82424,147.505472 C512.83724,147.139472 513.80024,147.178472 514.86724,147.379472 C516.26324,147.642472 517.73724,147.741472 519.15024,147.613472 C524.16424,147.162472 529.16324,146.542472 534.17624,146.067472 C539.67924,145.545472 545.20124,145.368472 550.67224,146.318472 C553.06024,146.733472 555.17724,147.873472 556.66624,149.920472 C557.37424,150.894472 557.56324,151.954472 557.17224,153.097472 C555.67724,157.460472 554.55824,161.936472 552.38324,166.082472 C550.15924,170.320472 548.36224,174.781472 546.39724,179.153472 C546.31324,179.341472 546.41724,179.612472 546.43324,179.845472 C546.36724,179.942472 546.30124,180.038472 546.23524,180.136472 C546.28724,180.025472 546.34024,179.912472 546.39224,179.801472 L546.39224,179.801472 Z M166.72824,188.651472 C166.31224,188.856472 166.08024,188.926472 165.90224,189.065472 C163.25924,191.121472 160.60824,193.169472 157.98824,195.255472 C155.80524,196.994472 153.63424,198.749472 151.51124,200.560472 C150.73124,201.226472 150.05524,202.036472 149.43224,202.857472 C149.13124,203.253472 149.06124,203.825472 148.81524,204.521472 C149.60024,204.703472 150.29824,205.111472 150.76424,204.929472 C152.26624,204.339472 153.82624,204.097472 155.38024,203.760472 C155.98124,203.630472 156.61324,203.316472 157.07324,202.907472 C159.75424,200.524472 162.52124,198.196472 164.15724,194.892472 C164.93424,193.323472 165.65824,191.729472 166.36924,190.129472 C166.54924,189.725472 166.58624,189.258472 166.72824,188.651472 L166.72824,188.651472 Z M160.01024,276.168472 C160.12724,275.604472 160.12924,275.135472 160.31824,274.761472 C162.51524,270.409472 164.70224,266.053472 166.96724,261.736472 C170.60724,254.801472 173.96324,247.734472 176.85224,240.453472 C178.93924,235.193472 180.88424,229.877472 182.95424,224.610472 C184.00024,221.951472 185.20024,219.354472 186.30024,216.715472 C187.34324,214.213472 188.31424,211.680472 189.37424,209.186472 C191.34224,204.558472 193.23424,199.894472 195.39024,195.354472 C196.58324,192.841472 197.44124,190.199472 198.66224,187.711472 C200.27624,184.425472 201.43424,180.951472 202.92024,177.612472 C204.41524,174.254472 205.71324,170.806472 207.26124,167.474472 C208.33624,165.161472 209.67324,162.969472 210.92124,160.738472 C212.47224,157.965472 214.05524,155.209472 215.61024,152.438472 C215.67024,152.330472 215.58424,152.141472 215.53824,151.765472 C215.17324,151.986472 214.88424,152.166472 214.59124,152.338472 C209.28024,155.450472 204.27024,159.022472 199.25224,162.567472 C194.55524,165.885472 190.00424,169.412472 185.43924,172.913472 C183.47724,174.418472 181.66024,176.109472 179.74324,177.674472 C179.01624,178.268472 178.63424,178.989472 178.45524,179.889472 C178.11324,181.612472 177.69124,183.320472 177.36424,185.047472 C176.20924,191.131472 174.21624,196.937472 171.39424,202.434472 C170.30724,204.554472 168.88624,206.511472 166.85424,207.911472 C166.33124,208.273472 165.80624,208.666472 165.38624,209.138472 C163.51224,211.244472 161.16024,211.423472 158.60324,210.949472 C157.67424,210.777472 156.72624,210.696472 155.78324,210.609472 C151.02824,210.161472 147.26324,208.050472 144.79024,203.907472 C143.72924,202.128472 143.99124,201.113472 145.55224,199.746472 C146.15324,199.220472 146.77324,198.715472 147.39824,198.216472 C154.45224,192.580472 161.49924,186.935472 168.57824,181.331472 C169.31924,180.744472 169.77824,180.086472 169.98824,179.202472 C170.96924,175.083472 171.96024,170.966472 172.92524,166.842472 C173.04924,166.311472 173.04524,165.748472 173.13124,164.899472 C172.53224,165.274472 172.12124,165.463472 171.79424,165.749472 C168.42124,168.688472 165.04124,171.617472 161.70724,174.600472 C159.74224,176.359472 157.80624,178.156472 155.94924,180.026472 C153.69924,182.294472 151.48824,184.607472 149.36124,186.991472 C145.85324,190.925472 142.37724,194.889472 138.98424,198.921472 C136.61924,201.731472 134.39724,204.660472 132.14824,207.566472 C130.97524,209.080472 129.91024,210.678472 128.74824,212.201472 C127.62224,213.678472 126.69924,215.245472 126.20424,217.050472 C126.14724,217.258472 125.93924,217.425472 125.71724,217.726472 C125.29124,217.605472 124.81124,217.557472 124.42624,217.341472 C123.41024,216.770472 123.18224,216.157472 123.68624,215.173472 C124.26724,214.036472 124.91324,212.927472 125.61224,211.859472 C130.91824,203.752472 136.80324,196.072472 143.10024,188.723472 C147.51924,183.565472 152.26124,178.695472 157.16924,173.985472 C161.50324,169.827472 166.07424,165.959472 170.72124,162.172472 C172.14624,161.012472 173.62024,159.905472 175.12824,158.856472 C176.39124,157.977472 177.52624,157.030472 178.29024,155.651472 C178.66924,154.967472 179.27624,154.408472 179.76224,153.815472 C181.87624,153.701472 183.81324,153.914472 185.71424,155.162472 C184.71124,156.860472 183.56224,158.466472 182.77524,160.233472 C181.93924,162.109472 181.47524,164.148472 180.79824,166.098472 C180.15224,167.959472 179.47524,169.803472 179.73124,172.147472 C180.28424,171.768472 180.60624,171.576472 180.89624,171.347472 C187.96924,165.732472 195.33224,160.525472 202.94024,155.659472 C206.57724,153.333472 210.19524,150.976472 213.77324,148.560472 C215.13924,147.638472 216.62824,147.035472 218.19924,146.857472 C219.39224,146.721472 220.31924,146.347472 220.99624,145.509472 C221.98624,145.583472 222.29124,146.185472 222.50424,146.917472 C222.80224,147.936472 223.03524,148.989472 222.46224,149.937472 C220.82224,152.644472 220.14524,155.656472 219.34824,158.671472 C218.39224,162.288472 217.11624,165.822472 215.92124,169.374472 C215.31224,171.182472 214.58924,172.952472 213.90024,174.734472 C212.05824,179.494472 210.20724,184.251472 208.36024,189.009472 C207.14924,192.127472 205.96324,195.255472 204.72024,198.359472 C203.56524,201.247472 202.35024,204.110472 201.16024,206.984472 C200.94924,207.495472 200.73224,208.003472 200.38124,208.836472 C200.97524,208.651472 201.32124,208.591472 201.62224,208.443472 C211.62024,203.514472 220.92424,197.479472 229.95824,190.969472 C234.50824,187.691472 238.83224,184.146472 243.06624,180.507472 C246.32124,177.710472 249.43024,174.670472 251.93624,171.139472 C253.73924,168.599472 255.48224,165.940472 256.00524,162.803472 C257.11424,156.146472 255.12824,150.499472 250.04424,146.008472 C247.87524,144.091472 245.46024,142.556472 242.81724,141.342472 C237.46924,138.886472 231.87924,137.335472 226.05524,136.551472 C220.00924,135.736472 213.96324,135.719472 207.90724,136.383472 C207.27324,136.453472 206.63624,136.512472 205.99924,136.522472 C204.74224,136.541472 203.89024,137.142472 203.37324,138.260472 C203.23924,138.550472 203.12024,138.848472 203.00424,139.146472 C202.56024,140.289472 201.72624,140.717472 200.31024,140.436472 C199.83924,139.948472 199.55024,139.092472 198.47924,138.755472 C196.69024,138.193472 195.57924,136.583472 194.50324,135.090472 C193.94124,134.311472 194.09924,133.583472 194.91124,133.045472 C196.58624,131.934472 198.35224,131.063472 200.38424,130.757472 C203.47024,130.292472 206.55624,129.925472 209.68324,129.824472 C217.40924,129.575472 225.02624,130.272472 232.48624,132.328472 C239.52324,134.269472 246.30224,136.910472 252.65724,140.510472 C258.11324,143.601472 262.09924,148.046472 264.34624,153.996472 C265.98224,158.325472 266.16724,162.741472 265.30824,167.208472 C264.78124,169.950472 264.08024,172.676472 262.45524,175.040472 C262.36624,175.170472 262.28524,175.318472 262.24524,175.468472 C261.53424,178.144472 260.03524,180.443472 258.34324,182.516472 C256.49124,184.783472 254.83724,187.271472 252.44024,189.068472 C251.74224,189.592472 251.07224,190.170472 250.46524,190.796472 C247.83824,193.508472 244.65424,195.513472 241.66124,197.756472 C239.94524,199.043472 238.05324,200.095472 236.32424,201.367472 C235.21324,202.186472 234.01324,202.727472 232.73624,203.183472 C230.10024,204.122472 227.59524,205.311472 225.28924,206.933472 C223.38124,208.276472 221.24224,209.148472 218.94924,209.660472 C217.94824,209.884472 216.99824,210.331472 216.01424,210.646472 C213.28724,211.518472 210.77524,212.970472 207.96924,213.622472 C206.27124,214.017472 204.54824,214.314472 202.86324,214.754472 C201.25024,215.176472 199.68024,215.756472 198.07624,216.211472 C197.19924,216.460472 196.76424,217.099472 196.45224,217.846472 C195.16224,220.939472 193.85624,224.026472 192.63724,227.148472 C191.44924,230.193472 190.39424,233.291472 189.21824,236.343472 C187.70024,240.279472 186.20024,244.226472 184.54024,248.103472 C183.47524,250.591472 182.20824,253.002472 180.89724,255.374472 C179.70724,257.528472 178.54024,259.748472 177.00024,261.645472 C174.09724,265.220472 171.13324,268.741472 167.47424,271.658472 C165.39024,273.319472 163.11824,274.580472 160.88524,275.951472 C160.70324,276.063472 160.45424,276.063472 160.01024,276.168472 L160.01024,276.168472 Z M742.87924,103.840472 C744.36624,103.665472 746.05424,103.621472 747.28024,104.620472 C748.60324,105.699472 749.38724,108.273472 748.40124,109.772472 C747.35224,111.366472 744.98124,111.908472 743.76224,113.568472 C742.33724,115.510472 741.49524,117.869472 740.35124,119.978472 C734.78824,130.231472 727.94924,139.820472 722.19624,149.986472 C716.28524,160.432472 711.21724,171.330472 705.27024,181.770472 C699.25324,192.333472 693.82024,204.010472 685.17124,212.730472 C679.96924,217.975472 673.79924,223.071472 667.17324,226.411472 C664.61624,227.700472 661.81324,228.600472 658.94924,228.615475 C657.80224,228.618472 659.17324,226.304472 659.40624,225.790472 C659.97324,224.542472 660.62524,223.334472 661.30624,222.145472 C662.66024,219.784472 664.15824,217.510472 665.48724,215.135472 C668.03824,210.576472 670.64724,206.050472 673.29724,201.549472 C678.67324,192.417472 684.20524,183.378472 689.79524,174.377472 C700.47524,157.177472 709.81724,139.330472 722.06324,123.142472 C725.32124,118.836472 728.60324,114.499472 732.09924,110.381472 C734.52124,107.527472 738.82424,103.661472 742.87924,103.840472 L742.87924,103.840472 Z M788.20724,221.120472 C788.36524,221.299472 788.21424,221.589472 787.97624,221.562472 C781.41024,220.794472 775.27824,217.885472 769.36924,214.888472 C760.44824,210.363472 751.67924,205.537472 743.08524,200.420472 C739.07724,198.033472 732.77224,193.751472 729.04824,190.943472 C724.51324,187.524472 719.90824,184.019472 715.90024,179.964472 C714.91924,178.972472 713.67824,178.068472 713.06424,176.775472 C712.84324,176.310472 712.79524,175.713472 713.11624,175.312472 C713.27824,175.110472 713.51124,174.983472 713.73924,174.861472 C717.57424,172.819472 721.67324,171.291472 725.65124,169.553472 C729.78924,167.744472 733.89624,165.864472 737.96924,163.913472 C741.37524,162.281472 744.75324,160.594472 748.09924,158.842472 C749.80724,157.948472 751.50724,157.037472 753.19724,156.110472 C754.06124,155.635472 754.92424,155.155472 755.78324,154.671472 C756.21324,154.430472 756.64224,154.187472 757.07124,153.942472 C757.33424,153.791472 757.94424,153.273472 758.23724,153.273472 C765.03224,149.352472 771.65024,145.127472 778.05024,140.590472 C781.55524,138.105472 784.73124,135.166472 787.37524,131.778472 C789.35924,129.237472 791.20024,126.294472 791.65724,123.039472 C792.83924,114.616472 783.43024,109.932472 776.89024,107.498472 C769.24724,104.654472 761.03924,103.747472 752.95624,103.167472 C739.83824,102.227472 726.63324,102.509472 713.56524,103.993472 C701.41124,105.373472 689.37624,107.792472 677.63824,111.234472 C674.85624,112.050472 671.74724,113.230472 670.69924,115.933472 C670.20224,117.215472 670.17724,118.821472 668.67324,119.383472 C667.50424,119.818472 666.19224,119.272472 665.50624,118.230472 C663.28924,114.867472 664.38624,110.504472 666.82624,107.548472 C668.92824,105.001472 671.88724,103.323472 674.86224,101.892472 C685.75624,96.6514717 697.72624,93.9704717 709.71724,92.4644717 C723.17124,90.7744717 736.78524,90.5444717 750.28824,91.7884717 C760.08224,92.6914717 769.92424,94.4344717 778.82924,98.5974717 C787.58724,102.692472 795.92524,109.968472 799.61724,119.070472 C804.87624,132.031472 795.54124,143.539472 785.10024,150.255472 C771.04024,159.298472 755.22124,165.069472 739.55624,170.650472 C737.76224,171.289472 732.76224,173.225472 730.35024,173.807472 C751.61724,186.156472 771.93824,202.649472 788.20724,221.120472 L788.20724,221.120472 Z M792.04424,178.272472 C789.11424,181.814472 786.08424,185.276472 782.83224,188.526472 C781.78824,189.570472 776.40324,194.862472 775.58624,191.318472 C775.36224,190.342472 776.47224,188.508472 776.92024,187.677472 C777.85224,185.944472 779.12724,184.193472 780.23524,182.568472 C782.71824,178.925472 785.54324,175.522472 788.64424,172.390472 C800.99324,159.914472 806.72824,157.394472 808.55724,156.967472 C808.82124,156.905472 809.01524,157.212472 808.85424,157.429472 C803.71024,164.363472 797.39024,171.810472 792.04424,178.272472 L792.04424,178.272472 Z M1042.07324,176.901472 C1038.85924,176.912472 1035.65024,177.129472 1032.47024,177.596472 C1022.85724,179.008472 1013.25624,181.762472 1004.13024,185.199472 C996.04724,188.243472 988.59024,192.315472 981.15024,196.658472 C977.63024,198.713472 974.25824,200.890472 971.02724,203.375472 C968.64424,205.207472 966.11324,207.494472 963.41124,209.145472 C962.18124,209.898472 960.71824,208.614472 961.26324,207.278472 C961.86424,205.807472 962.63424,204.360472 963.22924,203.030472 C964.29424,200.645472 965.42524,198.288472 966.58524,195.947472 C968.91524,191.248472 971.37624,186.614472 973.72624,181.925472 C975.79624,177.795472 977.81124,173.636472 980.00524,169.569472 C981.06424,167.608472 984.82724,163.212472 982.92824,160.859472 C981.86624,159.542472 979.06924,158.795472 977.53524,158.092472 C976.36124,157.554472 974.91624,157.026472 973.66724,157.668472 C972.31024,158.366472 971.67724,160.343472 970.67024,161.474472 C969.51824,162.768472 968.13324,163.818472 966.72424,164.813472 C959.27524,170.065472 952.07224,175.460472 945.16324,181.420472 C939.29524,186.484472 933.72424,192.427472 927.20124,196.732472 C926.41424,197.251472 925.40324,196.440472 925.75024,195.564472 C928.26924,189.207472 932.65524,183.719472 937.10424,178.588472 C941.99124,172.951472 947.64624,168.020472 953.77824,163.779472 C959.16224,160.057472 964.89924,156.863472 970.81124,154.060472 C974.44024,152.339472 978.02124,150.814472 982.05624,150.382472 C983.72624,150.203472 985.41024,150.181472 987.08624,150.291472 C988.12624,150.360472 990.19924,151.009472 991.18624,150.285472 C995.01024,147.478472 986.78124,146.353472 985.74724,146.224472 C982.16724,145.779472 978.55024,145.562472 974.94424,145.748472 C967.39824,146.139472 959.60824,147.935472 952.67924,150.943472 C939.00624,156.882472 926.51624,165.405472 914.71724,174.429472 C902.58524,183.707472 892.47224,194.530472 882.18324,205.745472 C884.68324,196.903472 888.56324,187.880472 892.87124,179.770472 C895.00324,175.757472 897.38224,171.883472 899.53624,167.883472 C900.58724,165.931472 903.63024,161.783472 901.31524,159.708472 C897.79824,156.557472 892.41024,159.846472 889.58624,161.734472 C887.45724,163.155472 885.37524,164.651472 883.38524,166.261472 C874.77524,173.232472 867.18924,181.173472 859.55924,189.127472 C857.71324,190.600472 860.28624,186.211472 860.95824,184.993472 C861.93224,183.230472 862.92824,181.479472 863.92424,179.728472 C865.74924,176.518472 867.58424,173.314472 869.30424,170.046472 C871.18524,166.473472 872.87624,162.828472 874.37124,159.078472 C875.45224,156.368472 876.98824,154.737472 873.36624,153.807472 C869.60824,152.841472 866.84324,153.314472 863.64524,155.546472 C860.50524,157.737472 857.55124,160.180472 854.65724,162.683472 C849.03024,167.551472 843.60224,172.588472 838.17724,177.677472 C840.41324,173.411472 843.60724,169.705472 846.15024,165.615472 C848.74624,161.441472 851.32224,157.273472 854.00124,153.149472 C856.64124,149.085472 859.20424,144.943472 861.13624,140.487472 C862.46524,137.421472 864.78824,133.191472 860.41824,131.886472 C858.65124,131.359472 856.44924,130.876472 854.61624,131.255472 C852.30924,131.731472 850.23324,133.504472 848.02824,134.371472 C843.05824,136.324472 838.51124,138.490472 833.89024,141.194472 C829.45024,143.793472 825.11324,146.561472 820.82424,149.400472 C819.90024,150.011472 818.95024,150.477472 818.00324,150.853472 C817.78324,148.034472 812.46724,146.162472 810.51924,146.680472 C807.01424,147.611472 803.64024,150.125472 800.74124,152.205472 C797.90124,154.242472 795.13224,156.379472 792.52024,158.701472 C787.76824,162.928472 783.51324,167.694472 779.66924,172.755472 C775.95024,177.650472 771.65324,183.103472 770.48424,189.289472 C770.05624,191.547472 769.74524,194.986472 771.08124,197.042472 C772.41424,199.093472 775.52324,199.549472 777.77524,199.609472 C783.93924,199.777472 788.14824,196.407472 792.17524,192.144472 C797.05224,186.982472 801.23124,181.166472 805.55124,175.543472 C807.56224,172.925472 809.46524,170.263472 811.15824,167.433472 C812.59724,165.027472 813.89324,162.830472 816.02324,160.883472 C820.77724,156.536472 826.32724,153.079472 831.83724,149.788472 C837.44224,146.442472 842.91824,143.050472 848.87924,140.406472 C844.13524,147.592472 839.46124,154.834472 834.47524,161.856472 C829.48824,168.879472 824.05724,175.570472 819.14724,182.656472 C814.28224,189.677472 809.72024,196.917472 805.68324,204.446472 C803.89524,207.781472 801.57424,211.395472 802.66824,215.313472 C803.15624,217.063472 803.96324,218.777472 804.95124,220.396472 C806.73424,223.313472 810.84224,223.767472 813.13124,221.229472 C820.73624,212.798472 826.22924,202.549472 833.75524,194.026472 C842.84224,183.734472 852.79224,174.076472 863.31624,165.265472 C858.67924,174.051472 853.94024,182.785472 849.42224,191.634472 C847.70524,194.995472 844.59624,198.769472 844.07424,202.574472 C843.73324,205.052472 845.01324,211.417472 848.74624,209.345472 C850.47424,208.385472 852.09524,205.699472 853.42224,204.204472 C855.03424,202.387472 856.65724,200.577472 858.35124,198.833472 C862.12324,194.946472 866.03624,191.187472 869.93324,187.424472 C876.88124,180.716472 883.99024,174.207472 891.11924,167.695472 C886.60824,176.094472 882.69824,184.805472 879.20424,193.673472 C877.23124,198.682472 873.58424,209.326472 879.60324,213.116472 C882.19824,214.751472 885.33724,213.470472 887.28124,211.455472 C890.11724,208.516472 892.61524,205.184472 895.28524,202.091472 C906.68324,188.893472 919.63124,177.502472 934.32724,168.064472 C929.36524,173.084472 924.05824,179.621472 921.45224,186.243472 C920.16824,189.508472 919.66624,193.026472 920.21924,196.505472 C920.64424,199.179472 921.51624,203.099472 924.36224,204.213472 C927.27424,205.353472 930.62824,202.907472 932.92324,201.359472 C935.19824,199.824472 937.34624,198.109472 939.33824,196.225472 C945.76024,190.148472 952.33024,184.233472 958.87224,178.284472 C959.60624,179.044472 955.46724,185.446472 954.86124,186.620472 C953.37324,189.502472 951.99624,192.439472 950.58624,195.359472 C948.86624,198.922472 946.56224,203.029472 947.09524,207.144472 C947.53124,210.505472 950.15924,214.659472 952.77924,216.741472 C956.03224,219.328472 962.03124,215.674472 964.84624,213.713472 C973.44324,207.725472 981.63324,201.332472 990.81124,196.202472 C1000.30324,190.897472 1010.53624,186.985472 1020.97124,183.971472 C1026.37524,182.409472 1031.87524,181.201472 1037.42624,180.284472 C1042.11424,179.511472 1046.97524,178.719472 1051.72224,179.213472 C1052.19224,179.262472 1052.38424,178.624472 1051.96524,178.406472 C1049.00124,176.867472 1045.33424,176.891472 1042.07324,176.901472 L1042.07324,176.901472 Z" id="script" fill="#FEFEFE"></path>
    </g>
</svg>