<svg xmlns="http://www.w3.org/2000/svg" viewBox="0 0 100 100"><defs><style>.cls-1,.cls-2{fill:#fff;}.cls-1{opacity:0.2;}</style></defs><title>RoastingScaleCompact_Firenze</title><g id="Firenze"><path class="cls-1" d="M65.37,44a9.45,9.45,0,0,1,.86,7.5v0H79a28.78,28.78,0,0,0-3.38-12.62l-2,1.17-1-1.74,2-1.16a29.26,29.26,0,0,0-9.23-9.23l-1.16,2-1.73-1,1.16-2A28.64,28.64,0,0,0,51,23.53V39.4C57.16,38.25,62.88,39.84,65.37,44Z"/><path class="cls-2" d="M51,21.53v-3h2.82v-2H46.18v2H49v3a31,31,0,1,0,2,0Zm0,2a28.64,28.64,0,0,1,12.62,3.38l-1.16,2,1.73,1,1.16-2a29.26,29.26,0,0,1,9.23,9.23l-2,1.16,1,1.74,2-1.17A28.78,28.78,0,0,1,79,51.49H66.23v0a9.45,9.45,0,0,0-.86-7.5C62.88,39.84,57.16,38.25,51,39.4Zm-3.07,31.9c5.73-.94,10.7-1.78,15.44-10.82.1.13.2.25.29.39a7.56,7.56,0,0,1,.64,6c-1,3.88-4.4,7.72-9,10.26-7.53,4.16-16,3.62-18.95-1.22a6.85,6.85,0,0,1-.37-.71A32,32,0,0,1,47.93,55.43Zm-7.74-.28A23.11,23.11,0,0,1,49.77,51a28.5,28.5,0,0,0,9.81-3.92c-3.58,5-7.25,5.63-12,6.4A42.9,42.9,0,0,0,40.19,55.15ZM54.89,41a11.5,11.5,0,0,1,6.82,1.94A26.16,26.16,0,0,1,49.3,49c-4.12,1-8.36,2.07-13.91,7.73a8.93,8.93,0,0,1,.31-2.71c1-3.89,4.4-7.73,9-10.26A21.46,21.46,0,0,1,54.89,41Zm19.7,26.86a29.22,29.22,0,0,1-9.24,9.24l-1.16-2-1.73,1,1.16,2A28.61,28.61,0,0,1,51,81.47V79.14H49v2.33a28.61,28.61,0,0,1-12.62-3.38l1.16-2-1.73-1-1.16,2a29.28,29.28,0,0,1-9.21-9.19l2.1-1.21-1-1.74-2.11,1.22A28.74,28.74,0,0,1,21,53.49h2.45v-2H21a28.71,28.71,0,0,1,3.41-12.67L26.55,40l1-1.74-2.1-1.21a29.38,29.38,0,0,1,9.29-9.24l1.2,2.07,1.73-1-1.19-2.06A28.61,28.61,0,0,1,49,23.53V39.87A25.13,25.13,0,0,0,43.73,42c-5.06,2.8-8.79,7.1-10,11.5A9.48,9.48,0,0,0,34.63,61c2,3.25,5.93,4.94,10.55,4.94a23.36,23.36,0,0,0,11.09-3,21.35,21.35,0,0,0,9.24-9.48H79a28.83,28.83,0,0,1-3.39,12.63l-2-1.17-1,1.74Z"/><path class="cls-1" d="M44.7,43.79A21.46,21.46,0,0,1,54.89,41a11.5,11.5,0,0,1,6.82,1.94A26.16,26.16,0,0,1,49.3,49c-4.12,1-8.36,2.07-13.91,7.73a8.93,8.93,0,0,1,.31-2.71C36.74,50.16,40.1,46.32,44.7,43.79ZM36.35,60c2.91,4.84,11.42,5.38,18.95,1.22,4.6-2.54,8-6.38,9-10.26a7.56,7.56,0,0,0-.64-6c-.09-.14-.19-.26-.29-.39-4.74,9-9.71,9.88-15.44,10.82a32,32,0,0,0-12,3.86A6.85,6.85,0,0,0,36.35,60Z"/></g></svg>