<?xml version="1.0" encoding="utf-8"?>
<!-- Generator: Adobe Illustrator 23.0.6, SVG Export Plug-In . SVG Version: 6.00 Build 0)  -->
<svg version="1.1" id="Soleilio" xmlns="http://www.w3.org/2000/svg" xmlns:xlink="http://www.w3.org/1999/xlink" x="0px" y="0px"
	 viewBox="0 0 604.2 229.9" style="enable-background:new 0 0 604.2 229.9;" xml:space="preserve">
<style type="text/css">
	.st0{opacity:0.7;fill:#FFFFFF;}
</style>
<title>Solelio_White</title>
<path class="st0" d="M600.3,103.5c-2.1-0.4-9.2-1.2-10.8-1.3c-10-0.2-15.2-1.1-23.7-1.2c-20.2-0.1-40.3-0.6-60.5-0.6
	c-2.2,0-3.3,1.4-2.6,3.5c0.8,2.4,2.4,3.8,5.5,3.9c-4.1,0.7-8,2.6-11.1,5.5c-1.3,1.2-2.8,2.3-4.1,3.5c-6.5,5.8-13.2,11.5-19.5,17.5
	c-4.4,4.2-8.4,8.9-12.5,13.4c-3.3,3.6-6.5,7.2-9.9,10.6c-5.3,5.3-10.8,10.3-16.3,15.4c-0.9,0.7-1.9,1.4-2.9,1.9l-0.6-0.5
	c2.5-6.3,4.8-12.7,7.6-18.9c3.2-7.4,7.3-14.4,12.2-20.9c1-1.3,1.6-2.8,3.4-3c1.3-0.2,1.5-1.1,1.7-2.2c0.7-3.6-1.9-5.3-4.1-7.2
	c-1.3-1.1-2.3-0.9-3.5,0.3c-3.2,3.2-6.1,6.7-8.6,10.5c-1.8,2.9-3.9,5.7-6.2,8.3c-7.4,8.1-15,15.9-22.5,23.9
	c-6.4,6.9-12.7,13.8-19,20.7s-12.9,13.6-19.3,20.4c-0.7,0.6-1.5,1.2-2.3,1.8c0-1.2,0.2-2.3,0.5-3.5c1.6-4,3.3-7.9,5-11.8
	c4.6-10.5,9.1-21,13.8-31.5s9.4-21.1,14.2-31.6c2.5-5.4,5.2-10.7,7.9-16.1c0.5-0.9,1.1-1.8,1.6-2.7c2.9-5.3,5.7-10.8,8.7-16
	c2.7-4.8,5.9-9.4,8.5-14.3c3.5-6.4,7.7-12.4,12.4-17.9c4.2-5.1,7-10.7,5.9-17.6c-0.6-3.8-0.7-5.6-3.3-9.7c-0.2-0.2-0.8-1.3-1-1.5
	c-0.8-1-1.5-2-2.4-2.9c-1.7-1.8-2.4-3.6-4.4-2.1c-1,0.8-2,1.8-2.7,2.9c-1.2,2.5-2.2,5-3.5,7.4c-5.4,10.1-10.9,20.2-16.3,30.4
	c-7.1,13.3-14.3,26.5-21,40c-6.9,14-13.3,28.2-20,42.3c-0.5,1.1-1.2,2.2-2.2,2.9c-11.7,8-24.1,14.6-37.8,18.7
	c-3.7,1.1-9.5,2.2-12.6-0.8c-5.1-4.8,1.8-16.4,3.5-21.2c0.7-1.9,2.2-3.4,4-4.2c4-2,7.8-4.4,11.5-7c6.9-4.8,13.2-10.5,18.7-16.7
	c5.7-6.6,8.7-14.8,0.1-20.3c-1.2-0.7-2.4-1.3-3.7-1.7c-3.4-1.1-7.6-1.8-10.8,0.2c-0.9,0.7-1.8,1.4-2.5,2.3l-2.5,2.5
	c-8.1,7.9-13.3,18-21.1,26c-11.7,11.9-20.5,26.1-32,38.1c-7.3,7.6-14.4,15.4-21.6,23.1c-3.2,3.4-6.3,6.9-9.5,10.3
	c0-0.9,0.1-1.8,0.3-2.6c1.2-2.8,2.5-5.5,3.8-8.2c2.9-6.2,5.6-12.4,8.6-18.6c3.6-7.4,7.4-14.6,11.2-21.9c2.6-4.9,5.1-9.9,7.8-14.8
	c3.3-6,6.7-11.9,10.1-17.8c3.1-5.5,6.3-10.9,9.5-16.3c3-5,6-9.8,9-14.8c1.2-1.9,2.3-3.7,3.5-5.6c1.8-2.8,3.5-5.7,5.3-8.5
	c2.3-3.6,4.7-7.2,7.1-10.8c1.1-1.6,2.3-3.2,3.5-4.8c3.4-4.6,6.6-9.2,10.2-13.6c3.2-3.9,7.5-8.6,6.6-14.1c-0.3-2.2-0.9-4.4-1.8-6.5
	c-0.6-1.7-1.6-3.3-3.1-4.4c-5.1-4-8.5,3.9-11,7.5c-3.9,5.6-7.5,11.4-11.1,17.2c-4.2,6.8-8.1,13.7-13.8,19.5
	c-13.7,13.8-27.6,27.2-42.5,39.7c-9.4,8-19.7,14.9-30.7,20.4c-3.1,1.5-3.1,1.5-5.4-1.1c-1.3-1.5-2.6-3.2-5-1.6
	c-0.5,0.3-1.4,0-2.1-0.1c-1.9-0.3-3.7-0.5-5.6-0.6c-4.9,0.1-9.7,0.2-14.5,0.5c-11.2,0.8-22.4,2.5-33.4,5.1c-2.9,0.7-5.7,1.4-8.6,1.8
	c-2,0.3-2.3,0-2.3-1.9c-0.1-4.6-0.1-9.2-0.2-13.8c-0.2-11.4-0.4-22.4,0.6-33.8c0.4-4.8,0.9-9.7,1.4-14.5c0.5-4.6,1.1-9.3,2-13.8
	c2.8-13.5,14.7-22.1,26.7-27.3c14.2-6.2,30.9-12,45.9-5c4,1.9,6,4.3,8.8,7.6c1,1.1,2.3,2.1,3.6,2.8c1.8,1.1,4.3,2.8,6.2,0.9
	c1.5-1.5,1.5-4.2,1-6.1c-0.7-2.4-1.7-4.7-3.1-6.8c-1.5-2.5-1.9-3-3.2-5.1c-1.7-2.4-3.8-4.5-6.2-6.2c-3.9-2.9-9-3.7-13.6-4.5
	c-11.4-2.1-23-2.6-34.5-1.5c-11.4,0.8-22.4,4.6-32,10.9c-2.5,1.6-5.2,3-7.2,5.2s-4.1,4.6-6.2,7c-3.8,4.2-6.9,9-9.4,14.1
	c-5.4,12-7.9,25.1-7.3,38.2c0.6,12.7,1,25.5,1.5,38.2c0.3,7.3,0.6,14.5,0.9,21.8c0,1.1-0.1,1.7-1.3,2.1c-5.4,1.7-10.8,3.5-16.2,5.3
	c-7.8,2.7-15.6,5.2-23.2,8.3c-15.1,6.2-30,12.7-45,19.1c-5.4,2.3-10.9,4.5-16.1,7.2c-9.2,4.8-18.1,10.1-26.9,15.7
	c-4.8,3-9.2,9.8-8.4,11.6c0.4,1.2,1,2.4,1.8,3.4c0.3,0.4,0.8,0.7,1.3,0.9c0.7,0.4,1.4,0.8,2.2,1.1c5.7,2.2,11.7,3.8,17.7,4.9
	c4.3,0.8,26.1,4.3,30.4,4.8c6.1,0.7,12.3,1,18.5,0.8c2.7-0.1,8,0.3,10.5,0.1c12-0.8,22.1-1.9,33.6-5.4c9.9-3.1,21-5.3,29.3-12.1
	c10.4-8.5,13.7-21.4,16.1-34.4c1.3-7.3,0.7-15,0.5-22.4c0-1.3,0-2.5,0-3.8c0-0.7,0.1-1.6,0.5-2c1.3-1.3,2.9-2.5,4.5-3.3
	c3.3-1.5,6.8-2.7,10.3-3.7c6.9-1.8,13.8-3.5,20.8-4.9c7.8-1.6,15.6-3,23.5-4.5c0.7,0,1.5,0,2.2,0.2c-2.2,2.1-4.3,3.7-6,5.7
	c-3.7,4.1-7.3,8.2-10.7,12.4c-5,6.1-9.9,12.3-14.8,18.5c-1.1,1.4-2,2.9-3.1,4.4c-4.8,6.5-4.3,13.3-1.3,20.3
	c2.7,6.1,6.8,6.1,11.4,4.4c8.7-3.2,17-10.8,22.5-18.1c1.7-2.2,3.4-4.4,4.9-6.8c3.6-5.9,5.7-12.4,8.6-18.6c1.6-3.7,2.9-7.6,3.9-11.5
	c0.3-1.3,1-2.5,1.9-3.5c1.6-1.5,3.4-2.9,5.2-4.1c4.7-3.1,9.6-6.1,14.3-9.1c6.5-4.2,12.1-9.4,17.7-14.5c7-6.3,13.6-13.2,20.4-19.8
	c0.3-0.3,0.9-0.3,1.4-0.4l0.1-0.2v0.1c-3.5,5.8-7,11.7-10.7,17.5c-9.9,15.9-19.9,31.7-29.6,47.8c-4.2,7-7.7,14.4-11.5,21.6
	c-1.4,2.7-2.5,5.6-4,8.4c-3.9,7.3-6.9,15-9.1,23c-1.4,5.2-2.5,8.9-0.1,14c1.3,2.9,2.7,5.8,5,8.2c1.3,1.5,2.8,2.7,4.4,3.8
	c1.1,0.7,1.8,0.5,2.7-0.3c2.2-1.8,2.2-3.1,3.6-4.6c1.6-1.8,2.7-3.3,3.9-4.8c3-4,5.9-8.1,9-12.1s6.2-7.7,9.3-11.5
	c3.3-4,6.5-8,9.9-11.8c4.5-5.1,9.2-10,13.9-15c3-3.2,5.9-6.5,9-9.8c6-6.4,7.5-8,8.1-7.1c0,0-0.4,1.8-2,9.1c-1.3,6.2,0,11.1,3.2,16.5
	c1.8,3.3,4.8,5.7,8.3,7c7.7,2.8,13.8,1.6,20.3-2.7c3.6-2.3,7.1-4.8,10.4-7.6c4.5-4.1,10-7,14.2-11.4c0.5-0.3,0.9-0.5,1.4-0.6
	c-0.7,1.8-1.2,3.1-1.7,4.4c-3.1,7.4-6.4,14.7-9.4,22.1c-2.5,5.9-4.3,12.1-5.4,18.5c-0.4,3.1-1.1,6.4,0.7,9.3c1.9,3.1,4,6,6,9
	c0.7,1.3,1.5,2.5,2.3,3.6c4.8,5.9,23.1-18.2,25.8-21.5c3.8-4.6,7.2-9.5,10.7-14.4c2.9-4,5.7-8,8.5-12c3.3-4.6,6.7-9.1,10-13.7
	c2.7-3.6,8.2-10.9,8-10.9c0.7,1.4-0.3,2.4-0.7,3.5c-1.2,3.1-2.4,6.3-3.6,9.4c-0.7,1.8-1.1,3.3-0.4,5.1c1.2,3.6,0,3.2,3.2,6.7
	c1.3,1.4,2.5,2.7,4.6,2.7c0.3,0,0.6,0.2,0.9,0.2c2,0.1,3.1,0.3,6-1.9c0.5-0.4,1.1-0.6,1.6-1c2.6-2.3,5.4-4.4,7.8-6.9
	s4.8-5.5,7.1-8.2l15.2-17.9c0,1.1-0.2,2.2-0.4,3.2c-2.9,8.1-2.6,20.3,1.7,28c2.8,5.3,8.6,8.2,14.5,7.4c4.2-0.6,8.2-1.8,12-3.6
	c20.1-9.6,31.7-30.1,38-50.6c1.3-4.7,1.6-9.5,0.9-14.3c-0.3-2.8-1.6-5.5-3.7-7.5c-0.5-0.5-1.1-1-1.6-1.5c-1.2-1.1-1.3-1.3,0.2-1.9
	c1.9-0.5,3.8-0.7,5.7-0.7c10.2-0.4,20.4-0.7,30.6-1c8.5-0.3,17-0.5,25.5-0.9c1.9-0.1,7.8-0.3,9.7-0.5c1.3-0.1,4,0,4-0.2
	S600.8,103.5,600.3,103.5z M339.2,123.1c2.5-2.9,5.1-6.8,7.7-9.6c1.4-1.5,4.6-5.4,6.8-5.5c1.4-0.1,3.2,1.3,3.8,2.6
	c0.8,1.7,0.1,3.2-0.9,4.6c-2.4,3.5-5.1,6.7-8.1,9.6c-4.5,4.4-9.5,8.9-15,12c-1.7,1-3.6,1.7-5.5,2c1.2-0.7,2.6-4.2,3.4-5.4
	c1.4-2,2.9-4,4.3-5.9C336.8,126,338,124.5,339.2,123.1z M134.4,177.5c-1.5,4.6-3.9,8.9-7.2,12.5c-5.1,5.5-11.4,9.3-18.1,12.3
	C93.3,209.5,76,212.6,58.7,213C43,213.3,27.4,212,12.1,208c-0.8-0.1-1.4-0.9-1.2-1.7c0-0.3,0.2-0.6,0.4-0.8
	c6.4-7,13.2-10.2,19.2-14.2c2.5-1.5,5-2.8,7.7-3.9c5.2-2.5,10.3-5.1,15.5-7.6c5.6-2.6,11.1-5.4,16.9-7.7c11-4.6,22.2-8.8,33.3-13.1
	c5-2,10.1-3.8,15.1-5.6c1.9-0.7,12.5-3.2,15.8-4.2c0.8-0.2,1.6-0.4,2.5-0.6C138.1,158.6,137.6,168.2,134.4,177.5L134.4,177.5z
	 M226.1,138.7c-6.2,15.7-15,29.3-29.7,38.5c-0.5,0.2-1,0.4-1.5,0.6c0.1-0.7,0.2-1.3,0.5-1.9c2.4-3.9,4.7-8,7.4-11.6
	c7.4-9.7,13.9-20.1,22.9-28.5l0.7,0.3C226.5,137,226.4,137.9,226.1,138.7z M255.9,204.5c0,0,0,0.1,0,0.1l-0.1,0.1L255.9,204.5z
	 M467.3,148.3L467.3,148.3l0.1,0.1L467.3,148.3z M518.1,128.1c-1.7,5.3-4.7,10.2-7.2,15.1c-4.1,7.9-9.4,15-15.8,21.1
	c-4,3.9-9.1,6.6-14.7,7.6c-0.2,0-0.4,0.1-0.6,0.1c-3.7,0.4-4.6-0.3-4.7-4c0-0.4,0-0.8,0-1.3c0-5.1,1.9-9.7,4-14.1s4.4-9.1,7-13.4
	c1.8-2.8,3.8-5.5,6.2-7.9c3.2-3.3,6.6-6.4,10-9.6c1.8-1.6,3.6-3.2,5.4-4.8c2.3-2.1,3.9-4.4,2.9-7.7c-0.5-1.7,0.1-2.3,1.8-1.9
	c1.3,0.3,3.3,0.9,3.8,2.3c1.9,4.9,3.8,9.7,2.8,15.1C518.7,126,518.4,127.1,518.1,128.1L518.1,128.1z"/>
<path class="st0" d="M464.8,107.9c-1.5,0-3,0.1-4.4-0.7c-4.7-2.9-1.7-12.8,1-16.1c1.8-2.2,6-4.9,9-4.3s3.8,4.5,4.4,7.1
	c0.3,1.4,0.5,2.9,0.5,4.3c0.1,2.5-1.1,4.9-3.1,6.5c-0.6,0.5-1.3,0.8-1.8,1.3c-1.8,1.4-2.7,2.1-5.1,2L464.8,107.9z"/>
</svg>
