<?xml version="1.0" encoding="UTF-8"?>
<svg width="779px" height="105px" viewBox="0 0 779 105" version="1.1" xmlns="http://www.w3.org/2000/svg" xmlns:xlink="http://www.w3.org/1999/xlink">
    <title>Script/ice-forte</title>
    <g id="Script/ice-forte" stroke="none" stroke-width="1" fill="none" fill-rule="evenodd">
        <g id="Script_VL_Barista_Ice_Forte" transform="translate(257.000000, 15.000000)" fill="#FFFFFF" fill-rule="nonzero">
            <g id="Ice_Forte_W" transform="translate(0.444444, 0.000000)">
                <path d="M60.8589474,2.22222222 C53.7263158,2.22222222 46.8715789,3.24074074 40.48,6.38888889 C34.8294737,9.07407407 28.5305263,12.6851852 24.8252632,17.8703704 C23.2505263,20 20.8421053,23.2407407 22.6021053,25.8333333 C23.0652632,26.4814815 24.0842105,28.0555556 25.1031579,28.0555556 C25.1957895,28.0555556 25.3810526,28.0555556 25.4736842,27.962963 C25.8442105,27.7777778 26.4,27.037037 26.5852632,26.5740741 C26.8631579,25.8333333 26.4,25.462963 26.2147368,24.8148148 C25.8442105,23.5185185 26.8631579,21.6666667 27.5115789,20.5555556 C27.9747368,19.7222222 28.6231579,18.9814815 29.2715789,18.2407407 C31.9578947,15.3703704 35.2926316,13.0555556 38.72,11.0185185 C41.6842105,9.35185185 44.7410526,7.68518519 48.0757895,6.66666667 C50.8547368,5.83333333 53.8189474,5.27777778 56.7831579,5 C56.7831579,5 56.7831579,5 56.8757895,5 C57.2463158,5 57.5242105,5.55555556 57.1536842,5.83333333 C55.3010526,7.5 53.8189474,9.72222222 52.1515789,11.6666667 C50.0210526,14.0740741 48.1684211,16.6666667 46.4084211,19.3518519 C43.0736842,24.3518519 40.48,29.8148148 37.5157895,35 C34.6442105,39.8148148 31.4021053,44.3518519 27.4189474,48.3333333 C23.8063158,51.9444444 19.5452632,55.2777778 14.9136842,57.5925926 C12.6905263,58.7037037 10.3747368,59.537037 7.87368421,59.9074074 C6.48421053,60.0925926 5.28,60.1851852 3.98315789,60.1851852 C3.98315789,60.1851852 3.98315789,60.1851852 3.98315789,60.1851852 C3.61263158,60.1851852 3.14947368,60.1851852 2.68631579,60.0925926 C2.22315789,60.0925926 1.85263158,60 1.38947368,60 C1.38947368,60 1.38947368,60 1.38947368,60 C0.926315789,60 0.741052632,60.5555556 1.11157895,60.8333333 C2.22315789,61.8518519 3.98315789,62.5925926 5.28,63.1481481 C7.04,63.8888889 8.89263158,64.4444444 10.7452632,64.537037 C11.2084211,64.537037 11.5789474,64.537037 12.0421053,64.537037 C15.4694737,64.537037 19.2673684,63.7037037 22.3242105,62.3148148 C25.6589474,60.7407407 29.0863158,58.1481481 31.7726316,55.6481481 C36.4042105,51.2962963 40.0168421,46.2962963 42.9810526,40.7407407 C46.1305263,35 49.0947368,29.1666667 52.3368421,23.4259259 C54.0968421,20.3703704 55.8568421,17.4074074 57.8021053,14.4444444 C59.5621053,11.6666667 61.2294737,8.88888889 63.7305263,6.66666667 C64.6568421,5.92592593 65.3978947,4.62962963 66.6947368,4.53703704 C66.6947368,4.53703704 66.7873684,4.53703704 66.7873684,4.53703704 C66.88,4.53703704 66.9726316,4.53703704 67.0652632,4.53703704 C67.1578947,4.53703704 67.2505263,4.53703704 67.3431579,4.53703704 C67.6210526,4.53703704 67.8063158,4.44444444 67.7136842,3.88888889 C67.6210526,3.33333333 66.88,3.05555556 66.5094737,2.87037037 C64.9347368,2.22222222 63.1747368,2.03703704 61.5073684,2.03703704 C61.2294737,2.22222222 61.0442105,2.22222222 60.8589474,2.22222222 M159.048421,7.5 C158.307368,7.5 157.473684,7.96296296 157.010526,8.24074074 C154.787368,9.53703704 153.305263,11.9444444 151.823158,13.9814815 C148.581053,18.5185185 145.616842,23.2407407 142.930526,28.1481481 C142.004211,29.8148148 141.633684,32.3148148 139.595789,32.8703704 C136.816842,33.6111111 133.852632,33.9814815 130.981053,34.6296296 C128.387368,35.1851852 125.793684,35.7407407 123.385263,36.9444444 C122.644211,37.3148148 120.791579,37.962963 120.884211,38.9814815 C120.976842,39.6296296 122.088421,40.7407407 122.736842,40.9259259 C122.829474,40.9259259 122.829474,40.9259259 122.922105,40.9259259 C123.755789,40.9259259 124.867368,40 125.608421,39.7222222 C126.905263,39.3518519 128.294737,39.0740741 129.591579,38.7962963 C132.277895,38.1481481 135.056842,37.2222222 137.835789,36.7592593 C137.187368,38.5185185 135.890526,40 134.964211,41.5740741 C133.852632,43.3333333 132.648421,45.0925926 131.444211,46.7592593 C129.221053,50 126.905263,53.1481481 124.311579,56.1111111 C119.402105,61.7592593 113.658947,67.5925926 107.267368,71.5740741 C106.618947,72.037037 105.414737,72.6851852 106.063158,73.5185185 C106.618947,74.2592593 107.823158,74.4444444 109.027368,74.4444444 C109.768421,74.4444444 110.509474,74.3518519 110.972632,74.2592593 C112.917895,73.9814815 114.770526,73.3333333 116.530526,72.5 C123.477895,69.1666667 129.406316,63.9814815 134.130526,57.8703704 C136.261053,55.1851852 138.021053,52.1296296 139.781053,49.2592593 C141.541053,46.2962963 143.393684,43.3333333 144.875789,40.1851852 C147.098947,35.5555556 147.562105,35 148.858947,34.9074074 C150.711579,34.6296296 152.656842,34.6296296 154.509474,34.6296296 C154.694737,34.6296296 154.972632,34.6296296 155.157895,34.6296296 C157.195789,34.6296296 159.326316,34.8148148 161.364211,35.462963 C161.92,35.6481481 162.105263,35.9259259 161.642105,36.3888889 C161.456842,36.5740741 161.178947,36.9444444 160.993684,37.1296296 C160.437895,37.6851852 159.974737,38.3333333 159.511579,38.8888889 C157.381053,41.5740741 155.528421,44.4444444 154.046316,47.5925926 C152.656842,50.5555556 151.915789,53.3333333 154.231579,56.1111111 C155.065263,57.1296296 156.084211,57.5 157.010526,57.5 C158.677895,57.5 160.345263,56.3888889 161.734737,55.2777778 C163.865263,53.4259259 165.532632,50.9259259 167.107368,48.5185185 C168.589474,46.2962963 170.164211,44.1666667 171.646316,42.037037 C172.943158,40.1851852 174.24,38.4259259 175.814737,36.7592593 C179.242105,32.962963 183.04,29.7222222 187.486316,27.2222222 C187.578947,27.962963 186.652632,29.1666667 186.374737,29.8148148 C185.818947,30.9259259 185.077895,32.037037 184.429474,33.1481481 C183.132632,35.462963 181.835789,37.7777778 180.631579,40.1851852 C178.130526,45 175.351579,49.6296296 172.943158,54.537037 C172.202105,55.9259259 171.646316,57.4074074 171.090526,58.8888889 C170.627368,60.1851852 170.164211,61.0185185 170.905263,62.1296296 C171.461053,62.962963 172.109474,63.7037037 172.850526,64.3518519 C173.313684,64.8148148 174.054737,65.5555556 174.795789,65.5555556 C174.795789,65.5555556 174.888421,65.5555556 174.888421,65.5555556 C175.722105,65.5555556 176.092632,64.8148148 176.463158,64.0740741 C179.242105,58.7962963 182.391579,53.7037037 186.189474,49.0740741 C190.265263,44.1666667 194.711579,39.537037 199.713684,35.5555556 C200.732632,34.8148148 201.844211,33.6111111 203.141053,33.3333333 C203.141053,33.3333333 203.233684,33.3333333 203.233684,33.3333333 C203.696842,33.3333333 203.789474,33.9814815 203.974737,34.4444444 C204.16,35 203.974737,35.7407407 204.252632,35.7407407 C204.345263,35.7407407 204.530526,35.6481481 204.715789,35.5555556 C205.456842,35.0925926 206.105263,34.2592593 206.661053,33.6111111 C207.587368,32.5 208.976842,30.7407407 206.846316,30.1851852 C206.383158,30.0925926 205.92,30 205.456842,30 C203.974737,30 202.677895,30.6481481 201.288421,31.5740741 C199.528421,32.7777778 197.768421,33.9814815 196.193684,35.3703704 C192.673684,38.2407407 189.894737,41.4814815 187.023158,44.9074074 C186.745263,45.1851852 186.56,45.3703704 186.374737,45.3703704 C186.096842,45.3703704 186.189474,44.6296296 186.930526,43.1481481 C187.208421,42.5 187.671579,41.8518519 187.949474,41.2037037 C188.690526,39.8148148 189.431579,38.4259259 190.172632,37.037037 C191.562105,34.4444444 193.044211,31.8518519 194.248421,29.2592593 C194.618947,28.4259259 194.433684,27.4074074 193.877895,26.7592593 C193.229474,26.0185185 192.395789,25.0925926 191.562105,24.6296296 C191.098947,24.3518519 190.543158,24.1666667 190.08,24.1666667 C188.505263,24.1666667 186.930526,25.3703704 185.633684,26.1111111 C183.503158,27.4074074 181.557895,28.7962963 179.612632,30.3703704 C178.686316,31.2037037 177.667368,32.037037 176.833684,32.962963 C176.555789,33.2407407 176,34.0740741 175.629474,34.1666667 C175.444211,34.2592593 175.351579,34.2592593 175.351579,34.2592593 C175.351579,34.2592593 175.444211,34.1666667 174.981053,33.8888889 C174.795789,33.7962963 174.425263,33.7037037 174.147368,33.7037037 C173.498947,33.7037037 172.757895,33.8888889 172.387368,34.2592593 C171.646316,35 171.368421,36.4814815 170.905263,37.4074074 C169.793684,39.8148148 168.496842,42.1296296 167.014737,44.3518519 C165.532632,46.4814815 164.050526,48.6111111 162.568421,50.6481481 C161.456842,52.2222222 160.252632,53.7962963 158.492632,54.7222222 C158.4,54.7222222 158.4,54.8148148 158.307368,54.8148148 C158.029474,54.8148148 157.844211,54.537037 157.844211,54.2592593 C158.492632,51.6666667 159.882105,49.0740741 160.993684,46.7592593 C162.290526,44.0740741 164.143158,41.5740741 165.903158,39.1666667 C167.663158,36.6666667 169.423158,32.2222222 172.48,32.2222222 C172.48,32.2222222 172.572632,32.2222222 172.572632,32.2222222 C173.035789,32.2222222 173.591579,32.4074074 173.962105,32.4074074 C174.332632,32.4074074 174.703158,32.3148148 174.981053,31.8518519 C175.814737,30.462963 173.684211,29.7222222 172.943158,29.6296296 C172.850526,29.6296296 172.665263,29.6296296 172.48,29.6296296 C169.886316,29.6296296 165.254737,32.6851852 163.68,34.4444444 C163.494737,34.7222222 163.216842,34.8148148 162.938947,34.8148148 C162.383158,34.8148148 161.92,34.3518519 161.364211,34.0740741 C159.233684,32.6851852 156.825263,32.4074074 154.324211,32.1296296 C153.675789,32.037037 153.12,32.037037 152.471579,32.037037 C151.267368,32.037037 150.063158,32.1296296 148.858947,32.1296296 C148.395789,32.1296296 148.673684,31.8518519 148.951579,31.1111111 C150.711579,26.5740741 153.305263,22.3148148 155.713684,18.1481481 C156.732632,16.3888889 157.751579,14.537037 158.677895,12.7777778 C159.233684,11.6666667 161.086316,9.16666667 159.974737,7.87037037 C159.696842,7.59259259 159.418947,7.5 159.048421,7.5 M235.006316,8.05555556 C232.783158,8.05555556 230.096842,11.5740741 228.892632,12.8703704 C227.410526,14.6296296 226.298947,16.7592593 223.890526,17.037037 C223.242105,17.1296296 222.130526,17.3148148 221.482105,17.4074074 C220.555789,17.5 219.629474,17.5925926 218.703158,17.6851852 C217.035789,17.8703704 215.368421,18.0555556 213.701053,18.1481481 C210.088421,18.5185185 206.383158,18.7037037 202.677895,18.8888889 C201.658947,18.9814815 199.991579,19.2592593 198.509474,19.2592593 C196.842105,19.2592593 195.36,18.8888889 194.711579,17.4074074 C194.526316,16.9444444 194.618947,16.2962963 193.970526,16.2037037 C193.970526,16.2037037 193.877895,16.2037037 193.877895,16.2037037 C193.507368,16.2037037 192.951579,16.4814815 192.766316,16.6666667 C192.025263,17.4074074 192.581053,18.7037037 193.044211,19.4444444 C194.433684,21.9444444 196.656842,23.0555556 199.435789,23.1481481 C199.713684,23.1481481 200.084211,23.1481481 200.362105,23.1481481 C203.696842,23.1481481 207.031579,22.6851852 210.273684,22.4074074 C212.126316,22.2222222 213.978947,22.1296296 215.831579,21.9444444 C217.128421,21.8518519 218.517895,21.5740741 219.907368,21.5740741 C220.277895,21.5740741 220.648421,21.5740741 220.926316,21.6666667 C218.888421,24.7222222 216.202105,27.5 213.978947,30.462963 C211.755789,33.3333333 209.717895,36.3888889 207.865263,39.4444444 C204.16,45.462963 200.547368,51.9444444 199.806316,59.0740741 C199.898947,60 199.621053,61.2037037 200.547368,61.8518519 C200.825263,62.037037 201.103158,62.1296296 201.381053,62.1296296 C201.751579,62.1296296 202.122105,61.8518519 202.492632,61.4814815 C203.696842,60 204.252632,58.0555556 205.086316,56.3888889 C205.456842,55.7407407 205.827368,55.0925926 206.197895,54.3518519 C212.404211,42.8703704 219.536842,31.9444444 228.058947,22.1296296 C228.892632,21.1111111 230.096842,20.5555556 231.393684,20.462963 C235.376842,20.0925926 239.174737,18.9814815 243.157895,18.4259259 C246.955789,17.8703704 250.846316,17.4074074 254.736842,17.4074074 C254.829474,17.4074074 254.829474,17.4074074 254.922105,17.4074074 C255.941053,17.4074074 256.96,17.5 257.886316,17.962963 C258.164211,18.0555556 258.812632,18.7037037 259.090526,18.7037037 C259.090526,18.7037037 259.183158,18.7037037 259.183158,18.7037037 C260.202105,17.7777778 257.330526,16.1111111 256.774737,15.8333333 C254.551579,14.7222222 251.865263,14.537037 249.271579,14.537037 C248.252632,14.537037 247.233684,14.537037 246.307368,14.6296296 C244.269474,14.7222222 242.324211,14.9074074 240.286316,15.0925926 C238.711579,15.2777778 236.766316,15.8333333 235.098947,15.8333333 C234.913684,15.8333333 234.635789,15.8333333 234.450526,15.8333333 C234.357895,15.8333333 234.265263,15.7407407 234.265263,15.5555556 C234.728421,14.1666667 236.766316,13.6111111 237.414737,12.3148148 C238.063158,11.2037037 237.414737,9.72222222 236.581053,8.7962963 C236.117895,8.24074074 235.562105,8.05555556 235.006316,8.05555556 M69.2884211,28.4259259 C68.4547368,28.4259259 67.7136842,28.6111111 66.9726316,28.8888889 C60.6736842,31.8518519 55.4863158,36.7592593 51.1326316,42.037037 C49.28,44.2592593 47.6126316,46.5740741 46.1305263,49.0740741 C44.6484211,51.4814815 43.2589474,54.0740741 43.1663158,56.8518519 C43.0736842,59.6296296 44.5557895,62.3148148 46.9642105,63.7962963 C47.7978947,64.3518519 48.7242105,64.6296296 49.5578947,64.6296296 C51.5957895,64.6296296 53.6336842,63.3333333 55.3936842,62.2222222 C60.2105263,58.9814815 64.6568421,55.1851852 68.9178947,51.2962963 C70.4926316,49.9074074 72.0673684,48.4259259 73.4568421,46.8518519 C72.9010526,47.4074074 72.8084211,49.3518519 72.6231579,50.0925926 C72.4378947,51.1111111 72.2526316,52.037037 72.16,53.0555556 C71.9747368,55.1851852 72.2526316,57.4074074 73.2715789,59.2592593 C74.7536842,62.037037 77.5326316,63.5185185 80.4968421,63.5185185 C81.0526316,63.5185185 81.7010526,63.4259259 82.2568421,63.3333333 C87.5368421,62.2222222 92.4463158,59.9074074 97.3557895,57.5925926 C102.08,55.2777778 106.526316,52.5925926 110.787368,49.537037 C111.157895,49.2592593 111.621053,48.9814815 111.435789,48.6111111 C111.435789,48.5185185 111.343158,48.5185185 111.250526,48.5185185 C110.787368,48.5185185 109.953684,48.8888889 109.397895,49.1666667 C103.284211,52.4074074 96.8,55.0925926 90.2231579,57.2222222 C86.6105263,58.4259259 82.8126316,59.4444444 79.0147368,59.537037 C79.0147368,59.537037 79.0147368,59.537037 79.0147368,59.537037 C78.2736842,59.537037 77.44,59.4444444 77.0694737,58.7962963 C76.8842105,58.5185185 76.8842105,58.0555556 76.7915789,57.7777778 C76.6989474,55.5555556 77.2547368,53.4259259 78.1810526,51.4814815 C79.1073684,49.6296296 80.3115789,49.0740741 82.1642105,48.2407407 C84.9431579,47.037037 87.5368421,45.5555556 90.0378947,43.8888889 C92.7242105,42.037037 96.4294737,39.7222222 98.2821053,36.9444444 C99.6715789,34.8148148 98.6526316,32.4074074 96.8,30.9259259 C95.4105263,29.8148148 94.0210526,29.4444444 92.6315789,29.4444444 C90.4084211,29.4444444 88.0926316,30.6481481 86.0547368,32.037037 C82.3494737,34.6296296 78.8294737,37.5 75.4021053,40.462963 C73.7347368,41.9444444 65.5831579,50 59.5621053,54.6296296 C57.7094737,55.9259259 55.7642105,57.1296296 53.9115789,58.4259259 C53.2631579,58.8888889 52.6147368,59.2592593 51.9663158,59.6296296 C51.4105263,59.9074074 50.7621053,60.3703704 50.1136842,60.7407407 C50.0210526,60.8333333 49.8357895,60.8333333 49.7431579,60.8333333 C49.28,60.8333333 48.8168421,60.3703704 48.9094737,59.8148148 C49.1873684,58.7962963 49.6505263,57.6851852 50.0210526,56.7592593 C51.6884211,52.5 54.4673684,48.5185185 57.1536842,44.8148148 C59.3768421,41.7592593 61.7852632,38.8888889 64.4715789,36.1111111 C65.3978947,35.0925926 66.3242105,34.0740741 67.4357895,33.3333333 C67.8063158,33.0555556 69.6589474,32.2222222 69.5663158,31.7592593 C69.6589474,33.0555556 70.5852632,33.6111111 71.5115789,33.6111111 C72.9936842,33.6111111 74.6610526,32.4074074 73.92,30.9259259 C73.1789474,29.3518519 71.1410526,28.4259259 69.2884211,28.4259259 M239.730526,28.8888889 C237.414737,28.8888889 235.098947,30.1851852 233.153684,31.4814815 C229.818947,33.7037037 226.576842,36.3888889 223.890526,39.4444444 C222.315789,41.2037037 220,44.3518519 218.795789,46.3888889 C217.776842,48.0555556 216.665263,49.8148148 216.294737,51.7592593 C215.831579,53.9814815 216.572632,56.0185185 217.684211,57.8703704 C218.981053,60 220.926316,61.8518519 223.334737,62.7777778 C224.538947,63.2407407 225.743158,63.5185185 226.947368,63.5185185 C228.8,63.5185185 230.652632,63.0555556 232.412632,62.3148148 C235.284211,61.2037037 238.063158,59.9074074 240.842105,58.5185185 C246.863158,55.3703704 252.606316,51.4814815 257.423158,46.8518519 C258.627368,45.7407407 259.738947,44.537037 260.757895,43.2407407 C261.962105,41.8518519 262.981053,40.2777778 263.444211,38.5185185 C263.444211,38.3333333 263.536842,38.2407407 263.444211,38.0555556 C263.351579,37.962963 263.351579,37.962963 263.258947,37.962963 C263.073684,37.962963 262.888421,38.1481481 262.703158,38.2407407 C262.610526,38.3333333 262.610526,38.4259259 262.517895,38.5185185 C258.905263,42.6851852 254.644211,46.3888889 250.012632,49.4444444 C245.288421,52.5925926 240.286316,55.0925926 234.821053,57.3148148 C232.412632,58.2407407 230.189474,58.8888889 227.595789,59.3518519 C227.225263,59.4444444 226.854737,59.4444444 226.391579,59.4444444 C224.724211,59.4444444 222.871579,58.8888889 222.223158,57.3148148 C222.037895,56.8518519 222.037895,56.3888889 222.130526,55.9259259 C222.408421,54.8148148 222.778947,53.7037037 223.242105,52.6851852 C223.797895,51.3888889 224.631579,49.8148148 225.835789,48.9814815 C226.113684,48.7962963 226.484211,48.6111111 226.854737,48.5185185 C229.726316,47.5 232.597895,46.6666667 235.284211,45.1851852 C237.877895,43.7962963 240.378947,42.037037 242.602105,40 C245.658947,37.3148148 246.863158,33.3333333 243.435789,30.462963 C242.231579,29.2592593 241.027368,28.8888889 239.730526,28.8888889 M80.6821053,45.9259259 C80.5894737,45.9259259 80.4968421,45.8333333 80.4968421,45.6481481 C82.1642105,42.5 84.2947368,39.4444444 86.7957895,36.8518519 C88.0926316,35.5555556 89.4821053,34.2592593 91.0568421,33.2407407 C91.8905263,32.6851852 93.3726316,31.6666667 94.5768421,31.6666667 C94.9473684,31.6666667 95.3178947,31.7592593 95.5957895,31.9444444 C98.6526316,34.0740741 92.7242105,38.2407407 91.1494737,39.4444444 C88.1852632,41.6666667 83.9242105,43.7962963 80.6821053,45.9259259 C80.7747368,45.9259259 80.6821053,45.9259259 80.6821053,45.9259259 M227.966316,45.3703704 C227.781053,45.3703704 227.595789,45.1851852 227.781053,45 C230.096842,41.8518519 231.856842,38.5185185 234.635789,35.5555556 C235.654737,34.4444444 237.044211,33.0555556 238.248421,32.3148148 C238.989474,31.8518519 240.286316,31.2962963 241.305263,31.2962963 C241.490526,31.2962963 241.675789,31.2962963 241.861053,31.3888889 C245.381053,32.4074074 238.711579,38.2407407 237.692632,38.9814815 C236.210526,40.0925926 234.635789,41.2037037 233.153684,42.3148148 C232.597895,42.6851852 229.541053,44.9074074 228.244211,45.462963 C228.058947,45.3703704 227.966316,45.3703704 227.966316,45.3703704 M191.932632,0.0925925926 C191.84,0.0925925926 191.747368,0.0925925926 191.562105,0.185185185 C190.913684,0.37037037 190.357895,1.11111111 189.709474,1.38888889 C189.061053,1.66666667 188.32,1.75925926 187.671579,1.85185185 C185.726316,2.03703704 183.781053,2.12962963 181.835789,2.12962963 C180.261053,2.12962963 178.686316,2.12962963 177.111579,2.03703704 C169.793684,1.75925926 162.383158,1.11111111 155.065263,1.11111111 C149.322105,1.11111111 143.578947,1.48148148 137.743158,2.68518519 C132.092632,3.88888889 126.534737,5.74074074 121.903158,9.16666667 C119.865263,10.6481481 117.456842,12.5 116.16,14.7222222 C114.585263,17.3148148 116.16,19.6296296 118.197895,21.4814815 C118.661053,21.9444444 119.402105,22.5 120.050526,22.5 C120.421053,22.5 120.791579,22.3148148 120.976842,21.6666667 C121.347368,20.3703704 119.68,19.6296296 119.68,18.4259259 C119.68,17.1296296 121.44,15.8333333 122.366316,15 C123.385263,14.1666667 124.404211,13.4259259 125.515789,12.7777778 C130.425263,9.81481481 136.353684,7.87037037 142.004211,6.94444444 C146.728421,6.2037037 151.545263,5.83333333 156.362105,5.83333333 C157.936842,5.83333333 159.418947,5.83333333 160.993684,5.92592593 C165.625263,6.11111111 170.256842,6.48148148 174.888421,6.94444444 C177.204211,7.12962963 179.52,7.40740741 181.835789,7.5 C182.484211,7.5 183.132632,7.5 183.781053,7.5 C184.985263,7.5 186.282105,7.40740741 187.486316,7.31481481 C189.153684,7.12962963 191.006316,7.03703704 192.395789,5.92592593 C193.877895,4.81481481 193.507368,3.05555556 193.044211,1.48148148 C192.673684,0.833333333 192.581053,0.0925925926 191.932632,0.0925925926" id="Shape"></path>
            </g>
        </g>
    </g>
</svg>