<svg xmlns="http://www.w3.org/2000/svg" width="535" height="103" viewBox="0 0 535 103">
  <defs>
    <style>
      .cls-1 {
        fill: #fff;
        fill-rule: evenodd;
      }
    </style>
  </defs>
  <g id="Artboard_3" data-name="Artboard 3">
    <path id="Bianco_Forte_Script" data-name="Bianco Forte Script" class="cls-1" d="M3366.23,1570.66a0.546,0.546,0,0,1-.83-0.43,13.124,13.124,0,0,1,2.2-7.53,71.683,71.683,0,0,1,11.28-13.96c1.07-1.08,2.3-1.99,3.64-3.14-0.2,6.48-9.98,21.35-16.29,25.06m-171.7-4.25a4.871,4.871,0,0,1-1.33,1.57,67.842,67.842,0,0,1-5.52,4.37c-10.14,6.73-20.32,13.4-31.64,18.09-1.34.56-2.55,1.44-3.88,2.02a8.23,8.23,0,0,1-2.06.46,0.544,0.544,0,0,1-.57-0.29v-0.01a0.535,0.535,0,0,1,.11-0.63c1.53-1.44,2.99-2.96,4.61-4.27a153.634,153.634,0,0,1,22.14-14.72c5.16-2.85,10.59-5.21,15.9-7.78a2.873,2.873,0,0,1,.96-0.41,1.561,1.561,0,0,1,1.14.2,1.657,1.657,0,0,1,.14,1.4m193.21-20.62a2.388,2.388,0,0,1,.27-0.87c8.62-.79,11.92-0.99,16.51-3.25a0.22,0.22,0,0,0-.09-0.42c-0.57,0-1.73.19-2.16,0.21-3.99.13-2.88,0.16-9.76,0.07a15.616,15.616,0,0,1-6.52-1.42,1.059,1.059,0,0,0-1.39.43c-0.34.58-.67,1.14-0.99,1.7-2.07-1.1-3.44-1.18-4.99-.08-4.34,3.05-8.87,5.86-12.17,10.17a12.839,12.839,0,0,1-2.72,2.41c-4.35,3.19-8.77,6.29-13.1,9.5a115.257,115.257,0,0,1-16.72,10.63,17.072,17.072,0,0,1-4.44,1.64,0.889,0.889,0,0,1-1.06-.96,8.163,8.163,0,0,1,.51-2.59,80.641,80.641,0,0,1,4.54-8.76,59.336,59.336,0,0,1,14.82-15.61,19.9,19.9,0,0,1,6.13-3.29c1.61-.5,3.09-0.91,4.67-1.37a1.175,1.175,0,0,0,.53-1.93,4.308,4.308,0,0,0-.71-0.65,9.969,9.969,0,0,0-9.9-1.13,47.091,47.091,0,0,0-21.4,16.9c-2.19,3.06-4.29,6.05-7.5,8.18-2.24,1.49-4.25,3.31-6.38,4.98-2.82,2.21-5.64,4.41-8.54,6.67a0.334,0.334,0,0,1-.53-0.34,2.723,2.723,0,0,1,.26-0.59c2.7-5.64,5.25-10.76,7.93-16.41,1.7-3.6,3.43-7.2,4.92-10.89,0.93-2.31.25-2.94-2.25-3.4a6.566,6.566,0,0,0-5.75,1.79c-4.28,3.7-8.51,7.45-12.77,11.18-0.65.56-1.32,1.1-1.98,1.64a54.477,54.477,0,0,1,3.81-8.19c1.29-2.36,2.72-4.64,3.95-7.04a3.344,3.344,0,0,0,.22-2.42c-0.67-1.77-4.46-2.08-5.75-.66-1.58,1.73-3.22,3.41-4.92,5.01-3.61,3.41-7.39,6.64-10.9,10.14-6.59,6.59-13.03,13.32-19.54,19.98-0.61.63-1.32,1.17-1.95,1.79a0.193,0.193,0,0,1-.31-0.22c2.84-5.86,5.66-11.73,8.53-17.57a31.926,31.926,0,0,1,1.81-2.86c1.16-1.83,2.39-3.62,3.44-5.51a2.005,2.005,0,0,0-.16-1.83c-1.03-1.22-3.47-1.09-4.67.05-3.1,2.92-6.09,5.98-9.35,8.71-6.19,5.2-12.52,10.25-18.86,15.28-1.84,1.46-3.88,2.67-5.83,4a0.33,0.33,0,0,1-.48-0.42c0.44-.88.83-1.79,1.33-2.63a76.073,76.073,0,0,1,15.91-18.81c4.47-3.8,9.57-6.61,14.55-9.6,2.26-1.36,5.24-2.89,7.87-1.54a1.2,1.2,0,0,0,.54.18c0.65,0,.83-1.54.74-2.04a1.623,1.623,0,0,0-1.34-1.13,15.131,15.131,0,0,0-4.04-.44c-2.17-.02-3.96,1.16-5.8,2.13-2,1.05-4.03,2.04-6.04,3.07-4.17,2.14-8.44,4.13-12.5,6.48-9.37,5.41-17.91,12.03-26.34,18.77-1.61,1.3-3.3,2.51-4.95,3.77a0.251,0.251,0,0,1-.36-0.34c4.98-7.48,10.02-14.91,15.51-22.2a3.2,3.2,0,0,0-.38-4.26c-0.58-.54-1.16-1.06-1.75-1.56a1.459,1.459,0,0,0-1.22-.07c-2.62.9-5.21,1.85-7.81,2.79-7.02,2.56-14.05,5.09-21.05,7.7a4.8,4.8,0,0,1-4.21-.26,26.943,26.943,0,0,0-9.4-2.95c-1.6-.16-3.18-0.42-5.41-0.72,1.94-.67,3.34-1.07,4.67-1.61,8.28-3.39,16.63-6.63,24.77-10.32a31.124,31.124,0,0,0,9.26-6.17c5.74-5.81,5.69-9.92,2.85-14.94a26.86,26.86,0,0,0-15.35-12.62c-6.3-2.11-12.83-2.77-19.4-3.1a81.525,81.525,0,0,0-20.38,1.56c-7.06,1.43-14.2,2.58-20.95,5.26a63.385,63.385,0,0,0-15.08,8.15c-1.72,1.3-1.99,1.95-1.46,3.99,0.55,2.16.8,4.33,2.45,6.18l0.03,0.04a1.977,1.977,0,0,0,3.38-.78c0.81-2.95,2.96-4.98,5.77-6.8,8.55-5.54,18.17-7.68,27.97-9.32,5.4-.9,10.84-1.41,16.31-1.86a55.653,55.653,0,0,1,23.35,2.9,19.761,19.761,0,0,1,9.38,7.2,3.7,3.7,0,0,1,.49,3.91,9.821,9.821,0,0,1-1.69,2.91,46.538,46.538,0,0,1-5.05,4.88,69.522,69.522,0,0,1-18.9,10.87c-8.28,3.13-16.62,6.12-24.97,9.09a43.942,43.942,0,0,1-5.47,1.14c0.79-1.05,1.24-1.67,1.71-2.27,6.05-7.53,11.96-15.16,18.7-22.1a12.662,12.662,0,0,0,3.99-8.48,4.4,4.4,0,0,0-2.28-4.07c-1.35-.93-2.42-0.16-3.43.54a34.73,34.73,0,0,0-3.51,2.77c-12.39,11.26-22.83,24.24-32.78,37.61a167.911,167.911,0,0,0-16.36,27.25c-2.4,4.98.14,7.92,4.66,9.5a2.374,2.374,0,0,0,3.15-1.08c0.55-.98,1.28-1.86,1.82-2.84,5.94-10.73,12.11-21.3,19.48-31.15a7.562,7.562,0,0,1,7.15-3.16,77.256,77.256,0,0,0,7.74.3,53.406,53.406,0,0,1,13.35,2.15c2.05,0.52,4.08,1.14,6.63,1.87-0.97.59-1.37,0.89-1.81,1.1a172.688,172.688,0,0,0-25.15,14.19,45.979,45.979,0,0,1-5.04,3.61,39.058,39.058,0,0,0-10.18,8.05c-3.78,3.95-3.58,3.06-2.37,8.42a1.654,1.654,0,0,0,1.11,1.22,5.621,5.621,0,0,0,2.61.47,82.8,82.8,0,0,0,11.84-2.77c8.14-2.8,16.21-5.86,23.63-10.26,4.48-2.65,8.75-5.68,12.95-8.75,3.23-2.36,4.02-5.79,3.13-9.57a40.384,40.384,0,0,0-1.66-4.61c2.4-2.17,18.17-8.65,21.21-8.63-1.45,1.87-2.85,3.64-4.2,5.44-2.81,3.75-5.62,7.51-8.36,11.32a3.471,3.471,0,0,0-.77,2.36,36.214,36.214,0,0,0,1.79,5.82,2.217,2.217,0,0,0,1.69,1.01,8.746,8.746,0,0,0,3.54-.43,17.666,17.666,0,0,0,4.27-2.47c5.66-4.47,11.24-9.05,16.88-13.55,1.71-1.37,3.53-2.6,5.3-3.9a9.218,9.218,0,0,1-1.68,2.38c-2.54,3.3-5.19,6.53-7.51,9.99-1.43,2.13-2.36,4.5-1.49,7.35,0.83,2.7,1.79,3.79,4.53,3.2a13.567,13.567,0,0,0,4.28-1.81,109.716,109.716,0,0,0,15.34-12.1c1.01-.92,2-1.85,3-2.78a0.377,0.377,0,0,1,.48-0.03,0.365,0.365,0,0,1,.15.42,2.293,2.293,0,0,1-.22.62c-1.05,1.8-2.23,3.54-3.16,5.39a14.245,14.245,0,0,0-1.66,4.07,4.71,4.71,0,0,0,.14,2.01,7.6,7.6,0,0,0,2.17,3.95,3.516,3.516,0,0,0,3.8.24,15.444,15.444,0,0,0,3.34-2.45c2.12-2.05,4.13-4.23,6.18-6.37,6.15-6.4,12.28-12.81,18.46-19.19,1.11-1.15,3.42-3.17,4.61-4.24-0.92,1.55-1.52,3.14-2.03,4.01-2.1,3.61-4.19,7.22-6.36,10.78-1.79,2.94-1.84,6.6,2.56,9.26a1.358,1.358,0,0,0,1.62-.19c1.27-1.2,2.6-2.42,3.85-3.73,5.15-5.4,10.23-10.88,15.42-16.25,1.55-1.61,3.45-2.88,5.16-4.34a0.191,0.191,0,0,1,.29.24c-0.87,1.47-1.79,2.9-2.61,4.38-3.64,6.53-7.3,13.04-10.84,19.61a5.584,5.584,0,0,0,1.23,7.33c3.13,2.91,3.7,2.85,6.82.27,3.07-2.55,5.86-5.43,8.8-8.15,2.27-2.1,4.58-4.17,7.26-6.6-0.06,1.06-.19,2.09-0.19,3.32,0,4.42.26,6.55,3.19,9.71,2.14,2.31,4.09,3.07,6.95,1.85a75.072,75.072,0,0,0,9.54-4.76c3.48-2.13,6.72-4.65,10.04-7.04,2.5-1.81,4.96-3.67,7.52-5.58a4.647,4.647,0,0,1,.14.56,11.277,11.277,0,0,1,.01,1.3c-0.39,3.87,1.51,6.62,4.29,8.99a4.965,4.965,0,0,0,5.37.88,13.266,13.266,0,0,0,4.14-2.63,56.658,56.658,0,0,0,12.06-17.78c1.47-3.28,2.67-6.6,2.44-10.28m-138.71-17.86a3.3,3.3,0,0,0,.72.18c2.43,0.33,4.64-.93,6.62-2.18a3.192,3.192,0,0,0,.95-0.8c0.76-1.1-.36-3-1.21-3.69a2.225,2.225,0,0,0-2.87-.06,43.651,43.651,0,0,0-5.31,3.74c-1.43,1.28-.17,2.38,1.1,2.81m239.5,18.04a6.478,6.478,0,0,0,3.39-1.46,0.318,0.318,0,0,0-.19-0.57h-25.61a15.076,15.076,0,0,1,.57-1.61c4.91-9.79,10.62-19.12,16.33-28.46,0.62-1.02.98-1.61,2-3.5,5.26,0.31,10.52.77,15.76,1.21,7.46,0.63,14.94,1.17,22.41.2a71.053,71.053,0,0,0,7.66-1.52,6.5,6.5,0,0,0,4.45-3.74c1.14-2.65.44-5.21-.78-8.09a0.711,0.711,0,0,0-1.25-.11,9.7,9.7,0,0,1-7.42,4.31c-3.62.44-7.25,1.2-10.87,1.15-8-.09-16.02-0.42-24-0.99-8-.58-15.95-1.13-23.99-0.49a105.507,105.507,0,0,0-24.88,5.43c-4.18,1.38-8.24,3.2-11.46,6.51a8.2,8.2,0,0,0-2.52,6.55l0.01,0.04a1.961,1.961,0,0,0,3.3,1.32,47.7,47.7,0,0,1,5.06-4.38c8.52-6.03,21.36-7.19,31.47-7.64,3.44-.15,6.02-0.22,9.45-0.12a4.278,4.278,0,0,0-.98.74,128.474,128.474,0,0,0-9.79,12.84c-3.95,6.13-7.57,12.48-11.2,18.81a3.524,3.524,0,0,1-3.36,2.2c-6.02.2-12.03,0.61-18.08,0.97a1.654,1.654,0,0,0-1.56,1.56,5.676,5.676,0,0,0,.39,2.26,2.185,2.185,0,0,0,2.21,1.41c5.26-.38,10.58-0.77,16.18-1.17-0.46.82-.68,1.28-0.95,1.7-3.69,5.89-7.35,11.81-11.11,17.66a85.958,85.958,0,0,1-14.05,17.42c-4.34,3.97-8.98,7.39-14.74,9a0.01,0.01,0,0,0-.01.01,0.462,0.462,0,0,0-.06.85,11.89,11.89,0,0,0,9.3.4,54.9,54.9,0,0,0,11.78-5.42,48.2,48.2,0,0,0,15.81-15.63c5.14-8.26,10.14-16.61,15.09-24.99a4.151,4.151,0,0,1,3.39-2.4c3.54-.34,7.08-0.77,10.63-1.13,4.07-.4,8.14-0.75,12.22-1.13m52.16-1.16a7.538,7.538,0,0,0,3.17-2.11,2.911,2.911,0,0,0,.13-2.42,2.254,2.254,0,0,0-1.75-.76,11.06,11.06,0,0,0-6.87,2.07c-2.87,2.1-5.75,4.21-8.58,6.37-1.8,1.38-3.52,2.87-5.28,4.32-0.22-.18-0.18-0.15-0.4-0.33,0.41-.83.85-1.65,1.23-2.49,0.65-1.41,1.24-2.85,1.9-4.26a1.8,1.8,0,0,0-.41-2.11,7.179,7.179,0,0,0-7.91-2.57c-3.71.89-7.41,1.86-11.11,2.81-1,.26-2.15.2-3.01,0.83a1.013,1.013,0,0,0-.33,1.2c0.57,1.32-.29,2.48-0.99,3.48-2.88,4.13-5.77,8.27-8.91,12.2a52.233,52.233,0,0,1-11.95,11.22c-1.11.73-2.29,1.35-3.45,2a0.36,0.36,0,0,1-.53-0.37,9.142,9.142,0,0,1,1.24-3.72c6.08-9.42,14.16-16.96,22.82-23.95a1.015,1.015,0,0,0,.24-1.29c-1.04-1.82-1.54-1.81-3.67-.72a27.4,27.4,0,0,0-3.84,2.19,102.747,102.747,0,0,0-14.93,13.41c-2.92,3.22-5.54,6.69-6.71,11.03a8.128,8.128,0,0,0,1.61,7.58,4.252,4.252,0,0,0,4.86,1.55c3.65-.99,6.54-3.23,9.33-5.57,5.38-4.51,9.6-10.05,13.49-15.84,2.43-3.62,4.48-7.45,5-11.83,2.92-1.73,8.69-3.47,11.71-3.48-1.07,1.59-2.13,3.07-3.09,4.6-4.49,7.14-8,14.81-11.8,22.31-0.39.78-.74,1.58-1.08,2.38-1.56,3.77-.78,6.48,2.53,8.84,1.39,0.98,2.21.84,2.76-.77a29.456,29.456,0,0,1,3.44-6.37,108.52,108.52,0,0,1,18.25-22.33,85.987,85.987,0,0,1,9.49-7.79,1.2,1.2,0,0,1,1.2-.08c0.94,0.45,1.68.94,2.2,0.77m27.54-13.52c2.32-.25,4.76-0.35,7.2-0.46a92.01,92.01,0,0,1,19.37.89,53.561,53.561,0,0,1,5.23,1.22,0.393,0.393,0,0,0,.34-0.69,14.91,14.91,0,0,0-5.09-2.4,59.391,59.391,0,0,0-14.7-2.01c-4.05-.12-8.11-0.02-12.4-0.02,0.74-1.15,1.46-2.2,2.11-3.3,1.02-1.71,1.98-3.46,2.98-5.18,0.92-1.57.14-2.83-.8-3.98a3.569,3.569,0,0,0-.77-0.67,1.374,1.374,0,0,0-1.86.28c-3.58,4.65-7.09,9.19-10.55,13.67-1.77.17-3.41,0.4-5.05,0.48-4.79.23-9.57,0.54-14.35,0.52a44.527,44.527,0,0,1-8.03-.93c-2.98-.55-4.17-2.41-3.78-5.45,0.05-.33.11-0.65,0.18-1.03a0.264,0.264,0,0,0-.48-0.19c-3.01,4.49-1.35,8.99,3.8,10.5a40.069,40.069,0,0,0,12.67,1.12c3.8-.11,7.6-0.36,11.65-0.57a18.365,18.365,0,0,1-.87,1.73c-1.35,2.13-2.7,4.26-4.11,6.35a151.928,151.928,0,0,0-15.21,29.05,47.4,47.4,0,0,0-2.06,8.04,4.222,4.222,0,0,0,1.05,3.89,10.924,10.924,0,0,0,3.83,2.76,2.192,2.192,0,0,0,1.45.08c1.07-.36,2.19-1.88,2.84-2.76a4.726,4.726,0,0,0,1.01-3.7,2.052,2.052,0,0,1-.07-0.6,13.659,13.659,0,0,1,1.01-2.92c0.41-1.21.81-2.41,1.22-3.62,0.81-2.35,1.64-4.7,2.6-6.99,4.44-10.59,9.95-20.66,15.48-30.7,0.94-1.72,2.24-2.19,4.16-2.41m0.18,23.69a59.6,59.6,0,0,1,12.05-10.23c1.81-1.17,3.86-1.38,5.85-1.67a1.019,1.019,0,0,1,.88,1.72c-0.01,0-.01.01-0.02,0.01a21.49,21.49,0,0,1-2.89,2.6c-5.81,3.94-11.66,7.81-17.5,11.69a2.113,2.113,0,0,1-1.69.22c1.1-1.46,2.1-3,3.32-4.34m74.72-2.71c-8.23-.57-16.06,1.59-23.77,3.93a172.1,172.1,0,0,0-16.2,6.36c-6.47,2.71-12.87,5.59-19.6,7.67-5.99,1.85-15.68,5.96-21.57,2.64-2.25-1.27-1.21-4.35-.65-6.38a2.9,2.9,0,0,1,2.48-2.27,24.184,24.184,0,0,0,6.42-1.96c5.93-3.26,11.75-6.72,17.5-10.3a14.057,14.057,0,0,0,3.51-3.8c1.43-1.97,1.32-3.53-.52-5.05-3.05-2.51-6.78-3.75-10.49-2.45-11.5,4.03-19.26,12.1-23.66,23.37a15.391,15.391,0,0,0-.91,5.35,9.27,9.27,0,0,0,10.04,9.3,53.2,53.2,0,0,0,7.46-1.08,189.149,189.149,0,0,0,24.11-7.42c8.51-3.28,16.89-6.91,25.44-10.08a65.871,65.871,0,0,1,28.12-4.31,2.122,2.122,0,0,0,.94-0.27,0.36,0.36,0,0,0,.08-0.62c-2.7-2.06-5.7-2.42-8.73-2.63" transform="translate(-3121 -1497)"/>
  </g>
</svg>
