<?xml version="1.0" encoding="UTF-8"?>
<svg width="94px" height="94px" viewBox="0 0 94 94" version="1.1" xmlns="http://www.w3.org/2000/svg" xmlns:xlink="http://www.w3.org/1999/xlink">
    <!-- Generator: Sketch 64 (93537) - https://sketch.com -->
    <title>icon_greencoffee</title>
    <desc>Created with Sketch.</desc>
    <g id="icon_greencoffee" stroke="none" stroke-width="1" fill="none" fill-rule="evenodd">
        <g id="_brand-icons/80x80/Milk">
            <g>
                <rect id="bounding-box" x="0" y="0" width="93.3142569" height="93.0710789"></rect>
                <path d="M46.6571284,2.79213237 C22.4700731,2.79213237 2.79942771,22.4115158 2.79942771,46.5355394 C2.79942771,70.6595631 22.4700731,90.2789465 46.6571284,90.2789465 C70.8441838,90.2789465 90.5148291,70.6595631 90.5148291,46.5355394 C90.5148291,22.4115158 70.8441838,2.79213237 46.6571284,2.79213237 Z M46.6571284,88.4175249 C23.5058613,88.4175249 4.66571284,69.6264741 4.66571284,46.5355394 C4.66571284,23.4446048 23.5058613,4.65355394 46.6571284,4.65355394 C69.8083956,4.65355394 88.648544,23.4446048 88.648544,46.5355394 C88.648544,69.6264741 69.8083956,88.4175249 46.6571284,88.4175249 Z" id="Combined-Shape" fill="#FFFFFF"></path>
                <path d="M52.8062624,24.2130821 C53.051134,26.3587426 52.6304059,28.4031004 51.7252318,30.0484398 C51.9609161,29.9615569 52.2021959,29.8829311 52.4480909,29.8116441 C57.0918653,28.4409495 61.8099854,30.3942986 62.951765,34.3129629 C63.8494562,37.6733392 61.7145656,41.1806993 58.056764,42.9589135 C60.4181139,43.6415404 62.2876606,45.2534368 62.9500891,47.5267635 C63.9982595,51.3547966 60.9421556,55.5141788 56.2226136,56.8813397 C53.2295336,57.6906583 50.2685177,57.2380275 48.222985,55.8269155 C48.0708786,57.6428053 47.844676,59.6462497 47.5474823,61.9445925 C47.4590332,62.6286119 47.3824122,63.2071303 47.2247406,64.3876348 C46.9991351,66.0767691 46.8141011,67.4995721 46.6623356,68.7429422 C48.5133739,65.4876406 50.7791075,63.4143271 53.3752383,62.4068642 C56.597508,61.1564199 60.0053065,61.622324 63.2758473,63.139868 C63.9512984,63.45328 64.5663819,63.7892572 65.110389,64.1262191 C65.4413703,64.3312312 65.6786748,64.4937731 65.8113048,64.5924493 L66.09375,65.6445795 C64.0766321,70.7357257 61.1023346,73.609871 57.4384406,74.5562837 C54.5269868,75.3083352 51.451226,74.7986471 48.465988,73.5024402 C47.7657373,73.1983875 47.1252609,72.8724725 46.5566989,72.5456943 C46.4504662,72.4846376 46.3534374,72.4274966 46.2659735,72.3748775 C46.1377318,73.7947979 46.0648059,75.0313685 46.0234806,76.375 L44.0625,76.331716 C44.1645313,73.0143189 44.4530682,70.3586775 45.2755321,64.200798 C45.432948,63.0222074 45.5093847,62.4450808 45.5975008,61.7636362 C45.9935949,58.7004492 46.2615013,56.1734223 46.3987689,53.9205086 C46.3516427,53.8474008 46.3074899,53.7713405 46.2650035,53.6941806 C44.6266568,56.6757656 40.4977023,58.0160441 36.2946776,56.8792243 C31.5898924,55.5159422 28.5339467,51.3559944 29.5807152,47.5324241 C30.1182852,45.5197003 31.6275445,44.0246747 33.609655,43.2327732 C29.5909712,41.56709 27.1639025,37.8586067 28.1107687,34.3136741 C29.1569129,30.3970588 33.8827434,28.4407775 38.6123077,29.8111456 C39.0521596,29.9385905 39.4772503,30.0895193 39.8856865,30.2615898 C39.0330284,28.9841825 38.4509446,27.4305167 38.2562376,25.7244179 C37.7104503,20.9420158 40.4712751,16.662872 44.5328447,16.183517 C48.630105,15.8054375 52.2573827,19.4035838 52.8062624,24.2130821 Z M53.9200677,64.0358147 C51.348621,65.0336985 49.1133843,67.2772081 47.3139974,71.018447 C47.833838,71.3171937 48.4226395,71.6167951 49.0669644,71.8965645 C51.7699849,73.070231 54.5286567,73.5273739 57.063594,72.8725796 C60.0562378,72.0995561 62.530893,69.8147084 64.3346556,65.6430601 L64.3090842,65.6271869 L64.3090842,65.6271869 C63.8164542,65.3220484 63.2560253,65.0159252 62.6399062,64.7300434 C59.7097151,63.370423 56.6963442,62.9584439 53.9200677,64.0358147 Z M52.9230361,44.6284203 L52.91881,44.6296566 C50.9549557,45.198606 49.369844,46.2978316 48.3726716,47.6193916 L48.3526743,47.3044487 C48.5010112,49.37143 48.5065628,51.4278481 48.3728442,53.759737 C49.9077577,55.4040409 52.7723844,56.0874526 55.768392,55.2774488 C59.6691815,54.1473487 62.1147652,50.8188895 61.3368796,47.9775486 C60.4832971,45.0485134 56.7425115,43.5001808 52.9230361,44.6284203 Z M31.1988666,47.9652705 C30.4173435,50.8200144 32.8628006,54.1489262 36.7488757,55.2751153 C40.698158,56.3431882 44.4063031,54.8306526 45.1759963,51.9488327 C45.9553789,49.0307345 43.5423124,45.7685686 39.6128225,44.6299399 C35.7127324,43.4998303 31.9786666,45.0456718 31.1988666,47.9652705 Z M32.3350397,48.46875 L33.8442865,48.6552525 C33.8441702,48.6561527 33.8427786,48.6698587 33.8409944,48.6949784 C33.8125,49.0962354 33.8703686,49.589554 34.0786743,50.0422604 C34.4569035,50.8642577 35.2467397,51.361057 36.71875,51.3879743 L36.6903019,52.875 C34.6367865,52.8374493 33.3138553,52.0053384 32.6913366,50.6524317 C32.3640513,49.9411496 32.2790339,49.2164783 32.3233945,48.5919439 C32.3272118,48.5382017 32.3314218,48.4967351 32.3350397,48.46875 Z M58.7203245,48.46875 L60.21875,48.4964115 C60.1813999,50.5474004 59.3532251,51.8695166 58.0020663,52.4938011 C57.2893137,52.8231187 56.5628918,52.9086937 55.9366446,52.8640277 C55.8826007,52.8601731 55.840819,52.8559135 55.8125,52.8522373 L56.0041473,51.3557115 C56.0046466,51.3557763 56.0179097,51.3571285 56.0425449,51.3588855 C56.4397117,51.3872128 56.9284572,51.3296369 57.3769955,51.1223959 C58.1957003,50.7441245 58.693356,49.9496562 58.7203245,48.46875 Z M45.3686846,38.9859265 L45.3267313,39.1579458 L45.3267313,39.1579458 C44.7878379,41.1754861 43.2654513,42.6605181 41.256923,43.4409057 C43.5488635,44.3802196 45.3277027,45.9838509 46.2653315,47.8445836 C46.3104833,47.7554952 46.3572554,47.66708 46.4059168,47.5792975 C46.4027452,47.5194531 46.3985185,47.4587831 46.3941649,47.3981108 C46.3079918,45.9972154 46.1740886,44.9072134 45.7737242,42.0617778 C45.6375488,41.0939636 45.564365,40.5605915 45.4881589,39.966516 C45.4449677,39.6298123 45.4051165,39.3032507 45.3686846,38.9859265 Z M47.7786402,42.2746425 L47.8175574,42.5504436 C47.9870249,43.7675772 48.1016487,44.6354172 48.1840894,45.3693011 C48.891319,44.726759 49.7214707,44.1669038 50.6487431,43.7187561 C49.5610059,43.4194578 48.5823026,42.9304675 47.7786402,42.2746425 Z M29.730379,34.7415372 C28.9509428,37.6596354 31.3641751,40.9218013 35.2794215,42.0563653 C39.2289752,43.1244382 42.937375,41.6119026 43.707121,38.7300827 C44.4865572,35.8119845 42.0733249,32.5498186 38.1435651,31.4111899 C34.2432071,30.2810803 30.5088848,31.8269218 29.730379,34.7415372 Z M52.9231754,31.4096271 L52.9189492,31.4108635 C49.3878922,32.4338324 47.0812453,35.1710667 47.2149845,37.8326544 C47.2292136,37.9702295 47.2432889,38.1099404 47.2581393,38.251659 C47.280414,38.4121908 47.3132292,38.5709916 47.3553825,38.7287862 C48.12513,41.6102241 51.833537,43.1225592 55.7685849,42.058692 C59.6983523,40.9202142 62.1115893,37.6584808 61.3371774,34.7587668 C60.4835788,31.8297217 56.7427228,30.2813838 52.9231754,31.4096271 Z M35.1258554,32.3234723 C35.1798993,32.3273269 35.221681,32.3315865 35.25,32.3352627 L35.0583527,33.8317885 C35.0578534,33.8317237 35.0445903,33.8303715 35.0199551,33.8286145 C34.6227883,33.8002872 34.1340428,33.8578631 33.6855045,34.0651041 C32.8667997,34.4433755 32.369144,35.2378438 32.3421755,36.71875 L30.84375,36.6910885 C30.8811001,34.6400996 31.7092749,33.3179834 33.0604337,32.6936989 C33.7731863,32.3643813 34.4996082,32.2788063 35.1258554,32.3234723 Z M55.8409481,32.3125 C57.8944635,32.3500507 59.2173947,33.1821616 59.8399134,34.5350683 C60.1671987,35.2463504 60.2522161,35.9710217 60.2078555,36.5955561 C60.2040382,36.6492983 60.1998282,36.6907649 60.1962103,36.71875 L58.6869635,36.5322475 C58.6870798,36.5313473 58.6884714,36.5176413 58.6902556,36.4925216 C58.7187568,36.0912646 58.6608814,35.597946 58.4525757,35.1452396 C58.0743465,34.3232423 57.2845103,33.826443 55.8125,33.7995257 L55.8409481,32.3125 Z M44.1145319,33.5158485 L44.2011017,33.6352696 C44.573137,34.1639681 44.8741284,34.7227787 45.0950783,35.3005716 C45.0827113,34.7540775 45.0888148,34.2326683 45.1130602,33.7267749 C44.7744501,33.683421 44.440805,33.6122295 44.1145319,33.5158485 Z M44.7125937,17.8322293 C41.6805316,18.1902901 39.4839511,21.5948828 39.9341503,25.5397038 C40.3882923,29.5190739 43.2806558,32.3882082 46.3499063,32.1052707 C49.3819684,31.7472099 51.5785489,28.3426172 51.1283497,24.3977962 C50.6742077,20.4184261 47.7818442,17.5492918 44.7125937,17.8322293 Z M45.4071054,19.1047223 C45.4611493,19.1085769 45.502931,19.1128365 45.53125,19.1165127 L45.3396027,20.6130385 C45.3391034,20.6129737 45.3258403,20.6116215 45.3012051,20.6098645 C44.9040383,20.5815372 44.4152928,20.6391131 43.9667545,20.8463541 C43.1480497,21.2246255 42.650394,22.0190938 42.6234255,23.5 L41.125,23.4723385 C41.1623501,21.4213496 41.9905249,20.0992334 43.3416837,19.4749489 C44.0544363,19.1456313 44.7808582,19.0600563 45.4071054,19.1047223 Z" id="Combined-Shape" fill="#FFFFFF"></path>
            </g>
        </g>
    </g>
</svg>