<svg enable-background="new 0 0 60 60" viewBox="0 0 60 60" xmlns="http://www.w3.org/2000/svg"><g fill="#fff"><path d="m27.8 22.4 1.1 5.7c.1.5.5.9 1.1.9h7.5c.5 0 1-.4 1.1-.9l.5-2.3h.7c.7 0 1.3-.3 1.8-.7.7-.7 1.2-1.5 1.5-2.4 0-.1.1-.2.1-.3s.1-.1.1-.2c.1-.2.1-.3.2-.5 0-.1.1-.2.1-.3l.1-.5c0-.1 0-.1 0-.2s0-.1 0-.2 0-.1 0-.2c0-.2 0-.4 0-.6 0-.6-.2-1.2-.6-1.6-.3-.3-.6-.4-1-.4h-1.4l.3-1.5c.1-.4-.2-.8-.6-.9-.1 0-.1 0-.2 0h-12.8c-.2 0-.5.1-.6.3s-.2.4-.2.7l.9 4.5zm12.6-3.7h1.6c.1 0 .3.1.4.2.2.3.3.6.3.9v.6.2.2.1c0 .2-.1.4-.1.6 0 .1 0 .2-.1.2-.1.3-.2.5-.3.8-.1.1-.1.3-.2.4l-.3.1-.2.3c-.1.1-.1.2-.1.3-.1.1-.1.2-.2.3 0 .1-.1.1-.1.2-.1.1-.2.2-.3.3-.3.3-.8.4-1.2.4h-.5l.5-2.4.3-1.7zm-.5-2.5-.7 3.7h-10.9l-.7-3.7z"/><path d="m49.8 25.1c-.2-.3-.4-.4-.7-.4h-.3c-.1 0-.1 0-.2 0s-.1 0-.2 0-.1 0-.2 0-.1.1-.2.1-.1 0-.1.1c-.1 0-.1.1-.2.1 0 0-.1 0-.1.1-.1 0-.1.1-.2.1l-.2.1c-.1.1-.1.1-.2.2-.1 0-.1.1-.1.1-.1.1-.2.2-.2.2l-.1.2c-.1.1-.2.3-.3.4s-.2.2-.3.4c0 .1-.1.1-.1.2h-.1c-.8 1.2-1.7 2.3-2.8 3.3-.2.1-.3.2-.5.4-.1.1-.1.1-.2.2s-.2.2-.3.3-.1.1-.2.2l-.3.3c-.1.1-.1.1-.2.2s-.2.2-.3.2c-.1.1-.1.1-.2.2l-.3.2c-.1.1-.1.1-.2.2s-.1.1-.2.2c0 0-.1.1-.1.1s-.1.1-.2.1c0 0-.1.1-.1.1v-.2c-.2.2-.2.5-.1.7 0 .1.1.1.2.1h.1.1.1.1c.1 0 .1-.1.2-.1 0 0 .1 0 .1-.1 0 0 0 0 .1-.1.1 0 .1-.1.2-.1 0 0 .1-.1.1-.1l.2-.2c.1-.1.1-.1.2-.1s.1-.1.2-.2c0 0 0 0 .1-.1s.2-.2.3-.2c.1-.1.2-.1.2-.2.1-.1.2-.2.3-.3s.2-.1.2-.2c.1-.1.2-.2.4-.3.1-.1.1-.1.2-.2.2-.1.4-.3.5-.4.2-.1.4-.3.6-.5l.1-.1c.2-.2.4-.4.5-.6.2-.2.4-.4.5-.6 0-.1.1-.1.1-.2.2-.2.3-.4.5-.6.2-.3.5-.6.7-.9.2-.2.3-.4.4-.6.1-.1.1-.2.2-.3 0 0 0 0 .1-.1s.1-.2.2-.2c.1-.1.2-.2.3-.2 0 0 .1 0 .1-.1.1-.1.2-.1.2-.2l.1-.1c.1 0 .2-.1.2-.1h.1c.1 0 .2-.1.3-.1h.1c0 .3 0 .6-.1.8l-.3.7c-.1.2-.2.5-.4.7-.1.2-.2.4-.3.6 0 .1-.1.2-.1.3-.1.2-.2.3-.2.5-.5 1.1-1.1 2.4-1.6 3.4v.1c0 .1-.1.1-.1.2s-.1.2-.1.2v.1c-.1.1-.1.3-.2.4 0 .1-.1.1-.1.2s-.1.2-.1.2v.1c0 .1-.1.2-.2.3v.1c0 .1-.1.1-.1.2v.1c0 .1-.1.1-.1.2-.3.5-.5 1-.9 1.4-1.1 1.1-2.3 2.2-3.6 3.1-3.1 2.6-6.3 4.3-7.4 4.3h-.1c-.2 0-.3 0-.5-.1h-.1c-.2-.1-.4-.1-.6-.2h-.1c-.2-.1-.5-.2-.7-.3 0 0 0 0-.1 0-.3-.1-.6-.3-.9-.4-.7-.4-1.7-.9-2.8-1.4-3.3-1.5-5.6-2.4-7.5-2.4h-.5c-.1 0-.1 0-.2 0s-.1 0-.2 0-.1 0-.2 0-.1 0-.2 0-.2 0-.2 0-.1 0-.2 0-.1 0-.2 0-.1 0-.2 0-.2 0-.2.1c-.1 0-.1 0-.2 0s-.1 0-.2.1c-.1 0-.1 0-.2 0l-.2.1c-.1 0-.1 0-.2.1-.1 0-.1 0-.2.1l-.2.1c-.1 0-.1 0-.2.1h-.1c-.1 0-.1 0-.2.1h-.1l-.2.1h-.1s-.1 0-.1.1h-.1-.1-.1s-.1 0-.1.1c-.3.1-.4.4-.3.7 0 .1.1.2.2.2h.1c.1.1.2.1.3.1h.2.1.1.1s.1 0 .1 0 .1 0 .1 0 .1 0 .1 0h.1.1c.1 0 .1 0 .2-.1h.1c.1 0 .1 0 .2-.1h.1c.1 0 .1 0 .2-.1h.1l.2-.1h.2l.2-.1h.2l.2-.1h.2.2.2.2.2.2s.1 0 .2 0h.2.4c1.3.1 2.9.5 7.1 2.3 1.1.5 1.9.9 2.7 1.3.3.2.6.3.9.5l.2.1c.1 0 .1.1.2.1.2.1.4.2.6.3h.1c.2.1.4.1.6.2.1 0 .1 0 .2.1.2.1.4.1.6.1h0c.1 0 .2 0 .4-.1h.1c.1 0 .2 0 .3-.1.1 0 .1 0 .1-.1.1-.1.3-.1.4-.2h.1c.2-.1.4-.2.5-.2h.1s.1 0 .1-.1c.2-.1.3-.1.4-.2.1 0 .1-.1.2-.1.2-.1.4-.2.6-.3h.1c.2-.1.4-.3.7-.4.1 0 .1-.1.2-.1.2-.1.3-.2.5-.3.1-.1.1-.1.2-.1.2-.1.4-.3.7-.4.2-.2.5-.3.7-.5l.2-.2c.2-.1.4-.3.5-.4l.2-.2c.2-.2.5-.4.7-.5 1.3-1 2.6-2.1 3.8-3.3.4-.5.7-1 1-1.6 0-.1.1-.1.1-.2.1-.1.1-.2.2-.4 0 0 0 0 0-.1.1-.1.1-.3.2-.4l.2-.3.2-.3c0-.1.1-.1.1-.1.1-.2.2-.4.3-.6s0-.1.1-.1c.2-.3.3-.7.5-1.1 0 0 0 0 0-.1.1-.2.2-.4.3-.5 0-.1.1-.1.1-.2.2-.5.4-.9.6-1.3 0-.1.1-.2.1-.2 0-.1.1-.1.1-.2.1-.2.2-.3.2-.5 0-.1.1-.2.1-.3.2-.3.3-.6.4-.8 0-.1.1-.2.2-.3.1-.2.1-.3.2-.3v-.1c0-1.1.1-1.8-.2-2.4z"/><path d="m19.7 27.5c1 .1 2 .4 2.9.7 1.2.5 2.3 1.3 3.2 2.2.8.7 2 1.7 3.1 2.6 1.7 1.3 3.2 2.6 3.2 2.6l.2.2.2-.1c2.5-.5 7-.9 8.2.1.2.1.3.3.3.5 0 .5-.2 1-.6 1.4-1.4 1.3-4.7 1.3-5.7 1.3-.7 0-1.4-.2-2.1-.4-1.2-.4-2.9-1-7.5-1.1-.3 0-.5.2-.5.5s.2.5.5.5c4.4.1 6 .6 7.2 1 .8.3 1.5.5 2.4.5h.4c1.6 0 4.4-.2 5.9-1.6.6-.5.9-1.3.9-2.1 0-.5-.2-1-.6-1.3-.9-.7-2.6-1-5.3-.8-1.2.1-2.3.2-3.4.4-.3-.2-1.1-.8-2.1-1.6-1.3-1.1-3-2.4-4-3.4-1.1-1.1-2.4-2-3.9-2.5-.9-.3-1.8-.5-2.8-.6-3.2-.5-8.4 1.6-9.4 2-.1 0-.2.1-.2.1-.2.1-.3.4-.2.6.1.1.2.2.3.3h.1.3c.1 0 5.8-2.5 9-2z"/></g></svg>