<svg enable-background="new 0 0 60 60" viewBox="0 0 60 60" xmlns="http://www.w3.org/2000/svg"><g fill="#fff"><path d="m49.3 27.1c0-.1 0-.1 0 0-.8-2.1-1.6-4.1-2.6-6.1 3-1.4 3.4-2.8 3.3-3.6-.1-1.3-1.7-2.4-3.8-2.4-.8 0-1.6.2-2.4.4-1.3.5-2.5 1.3-3.4 2.3h-4.2c-1-1-2.1-1.8-3.4-2.3-.8-.3-1.6-.4-2.4-.4-2.1 0-3.7 1-3.8 2.4 0 .5.2 1.1.5 1.5.7.8 1.5 1.4 2.5 1.8-1.1 2.5-2.3 5.5-2.5 6.2v.2.2 16c0 .9.7 1.5 1.5 1.5h19.2c.9 0 1.5-.7 1.5-1.5v-16s0-.1 0-.2zm-12.3-8.4h.6v1c-.2-.4-.4-.7-.6-1zm-8.8 7.1c.3-.7.7-1.6 1.3-3h8.1v3h-9.1s-.1 0-.3 0c.1 0 .1 0 0 0zm5.1-3.7h-3.4l.5-.9c.9.4 1.9.7 2.9.9zm4.2-.2c-2.3-.3-4.6-.9-6.8-1.7l.3-.6.1-.2c.1-.3.4-.6.7-.7h3.9c.8.9 1.4 1.8 1.8 2.9zm-5.7-4.1c-.7.1-1.3.5-1.5 1.2l-.1.2-.2.5-.1.2c-1.7-.8-2.6-1.6-2.5-2.4 0-.8 1.3-1.5 2.9-1.5.7 0 1.4.1 2.1.4.9.3 1.7.8 2.5 1.4zm-3.9 9.6c0-.3.3-.6.6-.6h9.2v17.2h-9.2c-.3 0-.6-.3-.6-.6zm12.8-8.6h3.5c.3.2.6.5.7.8l.4.8c-2.1.7-4.3 1.2-6.4 1.5.4-1.2 1-2.2 1.8-3.1zm2.4 3.2c.9-.2 1.7-.5 2.6-.8l.3.6.1.2zm2.7-2.8c-.3-.7-.9-1.2-1.6-1.3h-2.6c.7-.6 1.5-1.1 2.4-1.4.7-.3 1.4-.4 2.1-.4 1.6 0 2.8.7 2.9 1.5s-.9 1.7-2.9 2.5zm-7.3 6.6v-2.8h8c.6 1.2 1 2.2 1.3 2.9h-9.3zm.1-5.4v-1.7h1c-.4.6-.8 1.1-1 1.7zm9.8 7.1v15.9c0 .2-.1.3-.2.4s-.3.2-.4.2h-9.2v-17.2h9.2c.3 0 .6.3.6.6-.1 0 0 .1 0 .1z"/><path d="m24.7 26.5h-14.5c-.1 0-.2.1-.2.2v.6c0 .1.1.2.2.2h14.6c.1 0 .2-.1.2-.2v-.6c-.1-.1-.2-.2-.3-.2z"/><path d="m24.7 30.9h-11c-.1 0-.2.1-.2.2v.6c0 .1.1.2.2.2h11.1c.1 0 .2-.1.2-.2v-.7c-.1 0-.2-.1-.3-.1z"/><path d="m24.7 35.2h-8.9c-.1 0-.2.1-.2.2v.6c0 .1.1.2.2.2h8.9c.1 0 .2-.1.2-.2v-.6c0-.1-.1-.2-.2-.2z"/><path d="m24.7 39.6h-7.7c-.1 0-.2.1-.2.2v.6c0 .1.1.2.2.2h7.7c.1 0 .2-.1.2-.2v-.6c0-.1-.1-.2-.2-.2z"/><path d="m24.7 44h-6.3c-.1 0-.2.1-.2.2v.6c0 .1.1.2.2.2h6.3c.1 0 .2-.1.2-.2v-.6c0-.1-.1-.2-.2-.2z"/></g></svg>