<?xml version="1.0" encoding="UTF-8"?>
<svg width="779px" height="105px" viewBox="0 0 779 105" version="1.1" xmlns="http://www.w3.org/2000/svg" xmlns:xlink="http://www.w3.org/1999/xlink">
    <title>Script/freedo-intenso</title>
    <g id="Script/freedo-intenso" stroke="none" stroke-width="1" fill="none" fill-rule="evenodd">
        <g id="Script_OL_Barista_Freddo_Intenso" transform="translate(201.000000, 20.000000)" fill="#FFFFFF" fill-rule="nonzero">
            <g id="Freddo_Intenso_W">
                <path d="M133.881625,45 C134.547703,43.3333333 135.080565,41.6666667 135.613428,39.9333333 C133.815018,41.5333333 128.286572,46.8666667 126.55477,48.5333333 C123.424205,51.4666667 120.29364,54.3333333 117.096466,57.2 C117.029859,56.0666667 118.162191,53.6 119.028092,51.6 C121.026325,47.0666667 123.290989,42.1333333 125.555654,37.7333333 C128.286572,32.4 131.483746,27.7333333 134.547703,22.6 C136.74576,18.8666667 138.810601,15.0666667 140.875442,11.2666667 C142.140989,9.06666667 143.339929,6.8 144.405654,4.46666667 C144.938516,3.33333333 145.804417,2.06666667 144.472261,1.66666667 C143.206714,1.2 141.674735,-0.2 140.34258,1.2 C137.545053,4.2 135.946466,8 133.815018,11.4666667 C130.418021,17.0666667 128.219965,22.7333333 124.623145,28.2 C123.424205,30 122.558304,33.0666667 118.295406,32.2666667 C115.164841,31.6666667 112.234099,33.1333333 109.769611,34.8666667 C107.1053,36.7333333 104.70742,38.9333333 102.176325,41 C101.243816,41.8 99.3121908,43.2 96.7810954,45.1333333 C92.0519435,48.7333333 87.189576,51.8666667 81.7943463,54.4666667 C80.2623675,55.2 78.5305654,56.0666667 76.9319788,55.4666667 C74.9337456,54.6666667 76.9985866,50.2 77.464841,48.9333333 C77.9310954,47.8 78.5305654,46.7333333 79.6628975,46.1333333 C85.7242049,42.9333333 92.0519435,40.2 96.8477032,35.1333333 C98.0466431,33.8666667 99.7784452,32.4666667 98.6461131,30.4 C97.1141343,27.5333333 92.6514134,27.2666667 89.9871025,28.4666667 C83.7259717,31.3333333 78.3973498,37.2666667 75.4,43.4 C74.6007067,45 73.5349823,46.2666667 71.6699647,46.3333333 C70.8706714,46.4 69.4053004,46.8666667 69.6051237,47.6666667 C69.8715548,48.6 71.270318,48.3333333 72.2028269,48.0666667 C72.5358657,48 73.0021201,47.7333333 72.735689,48.4666667 C71.7365724,51.1333333 72.0696113,55.3333333 74.0012367,57.5333333 C74.6673145,58.3333333 75.5332155,58.9333333 76.5323322,59.1333333 C79.0634276,59.6 81.8609541,58.0666667 83.9924028,56.9333333 C86.3902827,55.6666667 88.7215548,54.2 90.7863958,52.5333333 C92.9844523,50.8 95.3823322,49.4 97.780212,47.4 C95.9818021,50 95.7819788,52.2666667 97.5137809,54.6666667 C100.377915,58.5333333 103.508481,57.4666667 107.171908,54.7333333 C109.303357,53.1333333 111.035159,50.9333333 113.366431,48.6 C113.033392,48.9333333 112.833569,49.8 112.700353,50.2 C112.433922,50.8 112.234099,51.3333333 111.967668,51.9333333 C111.501413,53 111.101767,54.0666667 110.635512,55.0666667 C110.235866,56.0666667 109.769611,57 109.303357,58 C108.837102,58.9333333 108.237633,59.9333333 108.237633,61 C108.237633,61.8 108.504064,62.5333333 108.970318,63.1333333 C109.703004,64.0666667 111.035159,64.8 112.300707,64.4 C114.29894,63.7333333 115.697703,62.3333333 117.163074,60.9333333 C120.959717,57.2666667 124.75636,53.6 128.553004,49.9333333 C129.219081,49.6666667 133.415371,45.4666667 133.881625,45 Z M92.3183746,31.4666667 C93.1842756,31 94.84947,31.6666667 94.7828622,32.8 C94.7828622,33.4666667 93.9835689,33.9333333 93.5839223,34.3333333 C93.0510601,34.8666667 92.5181979,35.3333333 91.9853357,35.8 C90.8530035,36.8 89.6540636,37.6666667 88.4551237,38.5333333 C87.189576,39.4 85.8574205,40.2 84.525265,40.9333333 C83.7925795,41.3333333 83.059894,41.7333333 82.3272085,42.0666667 C81.7943463,42.3333333 80.5954064,43.1333333 80.2623675,43.0666667 C79.8627208,42.6 87.3227915,34 92.3183746,31.4666667 Z M112.633746,44.8 C110.169258,47.4 107.504947,49.8666667 104.907244,52.3333333 C104.374382,52.8666667 103.708304,53.2666667 102.909011,53.8 C102.109717,54.3333333 101.110601,53.5333333 101.44364,52.6666667 C102.975618,47.8 105.506714,44.7333333 108.770495,41.4666667 C110.568905,39.6666667 111.434806,38.8666667 113.366431,37.2 C114.232332,36.4666667 116.496996,35.3333333 117.695936,35.2 C119.560954,34.9333333 118.828269,37.2 118.362014,38 C117.762544,39.0666667 116.963251,39.9333333 116.230565,40.8666667 C114.89841,42.6 114.099117,43.2666667 112.633746,44.8 Z M176.643816,5.06666667 C175.178445,4.06666667 173.513251,2.66666667 171.914664,4.73333333 C167.25212,10.8 163.122438,17.3333333 160.391519,24.4666667 C159.792049,26.0666667 158.926148,26.2666667 157.39417,26.4666667 C149.60106,27.4666667 143.206714,32.2666667 137.678269,37.4666667 C136.479329,38.6 135.346996,39.8666667 134.414488,41.2666667 C134.081449,41.7333333 133.415371,42.5333333 133.481979,43.0666667 C133.615194,43 133.74841,42.9333333 133.881625,42.8 C132.616078,44.2 131.750177,45.8666667 131.017491,47.6 C130.15159,49.5333333 130.617845,52.8666667 132.149823,54.4 C132.815901,55.0666667 133.74841,55.4 134.680919,55.5333333 C136.878975,55.8666667 139.210247,55.3333333 141.075265,54.0666667 C145.005124,51.2666667 148.069081,47.5333333 151.532686,43.9333333 C151.466078,44.2666667 151.466078,44.4666667 151.39947,44.6666667 C150.400353,48.6 149.334629,52.4666667 148.40212,56.4 C148.069081,57.8666667 148.268905,59.5333333 150.000707,59.8666667 C153.19788,60.4666667 154.196996,55.9333333 154.99629,53.6666667 C155.728975,51.5333333 156.528269,49.4666667 157.327562,47.4 C161.657067,36.5333333 166.985689,26 172.514134,15.7333333 C173.713074,13.4666667 174.912014,11.2 176.24417,9 C176.976855,7.46666667 178.575442,6.33333333 176.643816,5.06666667 Z M157.99364,30.3333333 C157.660601,30.8666667 157.327562,31.3333333 156.927915,31.8666667 C156.261837,32.8 155.529152,33.6 154.796466,34.4666667 C152.132155,37.6 149.734276,41.0666667 146.803534,43.9333333 C143.473145,47.1333333 140.475795,50.9333333 135.946466,52.6666667 C135.013958,53 134.481095,52.8 134.547703,51.6666667 C134.814134,50 135.54682,48.5333333 136.412721,47.1333333 C139.543286,42.0666667 143.273322,37.5333333 147.669435,33.5333333 C149.734276,31.6666667 152.265371,30.4 154.863074,29.2 C158.526502,27.5333333 158.326678,29.8 157.99364,30.3333333 Z M375.534629,40.4 C373.136749,47.1333333 368.940459,52.6 363.811661,57.4666667 C361.946643,59.2666667 359.881802,61.1333333 357.017668,60.7333333 C352.621555,60.1333333 348.292049,54.6666667 350.556714,49.2666667 C350.95636,48.2666667 353.753887,42.7333333 354.353357,41.8 C357.284099,37.4 360.880919,33.7333333 365.676678,31.3333333 C367.208657,30.5333333 368.807244,30.7333333 370.339223,31.2 C370.672261,31.2666667 371.071908,31.6 371.0053,32 C370.738869,32.8666667 369.872968,33.1333333 369.20689,33.4 C365.743286,34.7333333 363.678445,37.5333333 361.680212,40.4 C361.14735,41.1333333 360.814311,42 360.281449,42.7333333 C359.615371,43.7333333 356.618021,50.4666667 355.219258,54.3333333 C354.686396,55.9333333 355.818728,56.0666667 356.95106,55.5333333 C360.015018,54.1333333 362.479505,51.8 364.810777,49.4 C368.274382,45.8666667 370.805477,41.7333333 372.337456,37.0666667 C373.802827,32.7333333 373.336572,29.7333333 368.141166,27.4666667 C368.007951,27.4 368.074558,27.2 368.207774,27.2 C370.206007,27.4 371.804594,27.7333333 373.203357,28.8 C377.333039,32.0666667 377.199823,35.8 375.534629,40.4 Z M239.588163,47 C244.317314,41.2 249.113074,36.1333333 254.641519,31.9333333 C256.10689,30.8 257.372438,28.8666667 259.836926,29.6 C261.50212,30.1333333 261.768551,31.2 261.035866,32.5333333 C258.837809,36.2 256.573145,39.8 254.708127,43.6666667 C253.509187,46.2 252.376855,48.8 251.311131,51.4 C250.778269,52.7333333 250.312014,54.0666667 249.84576,55.3333333 C249.645936,55.8 249.446113,56.6 249.24629,57.3333333 C249.179682,57.6 249.512721,57.8666667 249.712544,57.6 C251.910601,55.4 253.642403,53.2666667 255.240989,50.9333333 C259.770318,44.2666667 264.965724,38.2 270.760601,32.5333333 C273.225088,30.1333333 274.024382,26.6666667 276.022615,24 C276.422261,23.4666667 275.689576,23.6666667 275.489753,23.6666667 C270.760601,23.8 265.765018,24.3333333 261.035866,23.8 C258.704594,23.5333333 256.040283,22.8666667 255.574028,20.2666667 C255.240989,18.6 255.574028,16.2 257.172615,15.2 C257.372438,15.0666667 257.638869,15.0666667 257.838693,15.2666667 C258.105124,15.6666667 258.038516,16.0666667 257.772085,16.4666667 C256.306714,18.6666667 257.239223,20.9333333 260.836042,20.7333333 C266.89735,20.4666667 272.359187,20.2666667 278.420495,20.0666667 C279.353004,20.0666667 280.019081,19.1333333 280.485336,18.4666667 C281.084806,17.6 281.55106,16.7333333 282.283746,15.9333333 C282.683392,15.5333333 283.083039,15.2 283.549293,14.8666667 C284.215371,14.4 285.081272,14.1333333 285.947173,14.2 C286.34682,14.2 286.746466,14.3333333 287.079505,14.6 C287.412544,14.8 287.945406,15.3333333 287.812191,15.7333333 C287.745583,15.8 287.678975,15.8666667 287.612367,15.9333333 C286.480035,17 285.414311,18.0666667 285.014664,19.6666667 C290.409894,19.8 295.871731,19.8666667 300.933922,22 C303.664841,23.1333333 306.329152,24.5333333 307.461484,27.6666667 C307.5947,28 307.528092,28.8666667 307.061837,29 C306.462367,29.2 306.39576,28.4 306.129329,28 C305.663074,27.3333333 304.797173,26.8666667 304.131095,26.5333333 C302.665724,25.8 301.00053,25.4 299.401943,25 C294.806007,23.8666667 290.010247,23.6 285.281095,23.5333333 C282.017314,23.5333333 280.551943,26.2666667 279.086572,28.8 C277.421378,31.5333333 276.089223,34.5333333 274.890283,37.5333333 C272.758834,43 270.960424,48.6666667 268.828975,54.1333333 C268.362721,55.2666667 267.163781,55.1333333 266.497703,54.9333333 C265.431979,54.5333333 264.832509,53.4 264.832509,52.2 C264.832509,48.6 266.098057,45.3333333 267.430212,42.1333333 C267.963074,40.8666667 268.495936,39.5333333 268.762367,38.1333333 C268.828975,37.9333333 268.562544,37.8 268.362721,37.9333333 C266.497703,40.0666667 264.632686,42.1333333 262.767668,44.3333333 C258.105124,49.8 254.508304,56.0666667 249.978975,61.6666667 C248.846643,63.0666667 247.314664,64.4 245.249823,63.7333333 C241.45318,62.4666667 242.185866,57.5333333 243.318198,54.6 C244.583746,51.3333333 246.448763,48.2666667 247.980742,45.1333333 C249.579329,41.8666667 251.311131,38.8 253.44258,35.8 C253.509187,35.7333333 253.509187,35.6 253.509187,35.3333333 C250.378622,37.9333333 247.581095,40.6666667 244.983392,43.6 C242.119258,46.8666667 239.388339,50.2666667 236.524205,53.4666667 C236.057951,54 234.992226,54.5333333 234.192933,53.9333333 C233.060601,53 231.861661,51.8 232.660954,50.1333333 C234.326148,46.4 236.257774,42.8 238.256007,39.2666667 C239.255124,37.5333333 240.320848,35.8 241.319965,34.1333333 C242.185866,32.7333333 243.25159,31.5333333 243.451413,30.2 C243.784452,28.5333333 246.182332,27.6 247.248057,29.1333333 C248.247173,30.5333333 248.313781,31.9333333 247.514488,33.4666667 C245.183216,37.8 242.518905,42.1333333 239.588163,47 Z M354.55318,28.2 C354.020318,27.6 353.087809,27 352.1553,27.4666667 C349.424382,29 347.026502,31 344.895053,33.2 C340.698763,37.5333333 336.502473,41.9333333 332.372792,46.3333333 C330.374558,48.4666667 328.376325,50.5333333 326.4447,52.6666667 C324.846113,54.4666667 323.047703,56.4666667 320.916254,57.6666667 C320.583216,57.8666667 320.183569,58.0666667 319.85053,58.1333333 C319.584099,58.2 319.384276,57.4 319.450883,57.1333333 C319.517491,56.7333333 319.584099,56.2666667 319.717314,55.8666667 C321.04947,51.6666667 322.514841,47.5333333 323.647173,43.2666667 C323.980212,42.0666667 324.912721,40.5333333 323.846996,39.4 C323.180919,38.6666667 321.848763,38.7333333 320.982862,39.2 C318.784806,40.4 316.786572,42 314.921555,43.6666667 C311.724382,46.4666667 308.926855,49.6 305.862898,53.0666667 C306.329152,52 306.662191,51.3333333 306.99523,50.6 C309.126678,45.4666667 311.324735,40.4 314.921555,36.1333333 C315.321201,35.6666667 315.387809,35.2 315.254594,34.7333333 C314.788339,33.6666667 310.991696,33.2 310.259011,34.1333333 C309.592933,35 309.060071,36.0666667 308.260777,36.7333333 C303.465018,40.8 298.669258,44.8666667 293.740283,48.8 C290.143463,51.6 286.480035,54.2666667 282.017314,55.6 C281.750883,55.6666667 281.484452,55.7333333 281.218021,55.6666667 C280.152297,55.4 280.618551,53.1333333 280.685159,52.4 C280.884982,51.1333333 281.284629,49.9333333 281.750883,48.8 C282.283746,47.4666667 282.816608,45.6666667 284.215371,44.9333333 C284.748233,44.6666667 285.281095,44.6 285.813958,44.5333333 C290.942756,43.6666667 295.6053,40.8666667 299.335336,37.2 C300.068021,36.4666667 300.867314,35.5333333 300.734099,34.5333333 C300.667491,33.4666667 299.734982,32.7333333 298.735866,32.2666667 C296.071555,31.0666667 292.874382,31.7333333 290.276678,33.1333333 C287.345936,34.7333333 285.014664,37.2 282.883216,39.6666667 C280.751767,42.2 278.686926,44.8666667 277.487986,48 C276.622085,50.2 276.289046,52.6666667 277.088339,54.8666667 C278.087456,57.6 281.018198,59.0666667 283.882332,58.4 C287.945406,57.4 291.342403,55.1333333 294.539576,52.6 C296.80424,50.8666667 298.935689,49 301.200353,47.0666667 C301.400177,46.9333333 301.666608,47.1333333 301.6,47.3333333 C300.467668,49.8 299.401943,52.1333333 298.269611,54.4 C297.137279,56.6 297.869965,58.3333333 299.468551,59.8 C301.466784,61.5333333 303.131979,60.7333333 304.663958,58.9333333 C307.994346,55.0666667 311.391343,51.2 314.788339,47.4 C316.320318,45.7333333 317.985512,44.2666667 320.050353,42.4 C320.183569,42.2666667 320.383392,42.4 320.316784,42.6 C318.385159,47.8 315.987279,52.0666667 313.85583,56.4 C312.856714,58.3333333 313.056537,60.8666667 314.788339,62.2 C316.653357,63.6666667 318.851413,63.3333333 321.116078,62 C325.712014,59.2666667 328.709364,55 332.306184,51.2 C336.369258,46.9333333 340.432332,42.6 344.295583,38.1333333 C344.362191,38.0666667 344.362191,38.0666667 344.428799,38 C343.49629,41.4 343.030035,44.2 342.696996,47.5333333 C342.696996,49.2666667 341.631272,49.4666667 340.432332,49.8666667 C337.301767,50.8666667 334.037986,51.6666667 331.839929,54.4 C331.040636,55.4 331.173852,56.4666667 331.973145,57.7333333 C333.571731,60.0666667 335.370141,60.8666667 337.701413,61.7333333 C340.032686,62.6 342.497173,61.2 343.429682,59.4 C344.495406,57.4 344.895053,55.2666667 345.2947,53.0666667 C345.827562,50.5333333 345.161484,49.6666667 347.09311,49.3333333 C348.558481,49.1333333 350.023852,48.6666667 351.489223,48.2666667 C352.088693,48.1333333 352.688163,47.7333333 352.554947,47.0666667 C352.421731,46.5333333 351.755654,47 351.422615,47.0666667 C349.75742,47.4 348.025618,47.7333333 346.360424,48.0666667 C345.89417,48.1333333 345.694346,48.1333333 345.827562,47.5333333 C346.093993,46.0666667 346.227208,44.6 346.427032,43.1333333 C347.359541,37.8 348.158834,32.4 353.887102,29.6 C354.286749,29.3333333 355.15265,28.8666667 354.55318,28.2 Z M285.614134,41.2 C286.413428,40.1333333 287.212721,39.4666667 288.078622,38.4666667 C289.810424,36.5333333 291.875265,34.6 294.539576,34.2666667 C294.672792,34.2666667 294.872615,34.2666667 295.00583,34.2 C295.938339,34.1333333 296.80424,34.2 297.270495,35.1333333 C297.470318,35.5333333 297.270495,35.8666667 297.004064,36.2 C296.737633,36.4666667 296.471201,36.7333333 296.20477,36.9333333 C295.871731,37.2 295.538693,37.5333333 295.205654,37.8 C293.673675,39.0666667 292.075088,40.1333333 290.276678,41.0666667 C289.410777,41.5333333 288.478269,41.9333333 287.612367,42.2666667 C286.879682,42.5333333 286.146996,42.7333333 285.414311,42.8 C285.281095,42.8 285.081272,42.8666667 285.014664,42.8 C284.348587,42.6 285.347703,41.5333333 285.614134,41.2 Z M342.030919,51.6 C341.764488,52.9333333 341.364841,54.9333333 340.299117,56.6666667 C339.566431,57.8666667 338.434099,57.7333333 337.634806,57.6 C336.502473,57.4 335.037102,56.3333333 334.704064,55.1333333 C334.237809,53.5333333 335.70318,52.8666667 336.968728,52.3333333 C338.500707,51.6666667 340.099293,51.1333333 341.69788,50.5333333 C342.097527,50.4 342.230742,50.5333333 342.030919,51.6 Z M36.1680212,37.2666667 C31.2390459,38.4666667 26.8429329,40.3333333 22.380212,42 C20.1155477,42.8666667 19.1830389,42 18.9166078,39.8 C18.9166078,39.6666667 18.9832155,39.4 19.0498233,39.4 C25.1111307,36.9333333 30.7727915,35.0666667 37.2337456,33.5333333 C38.6991166,33.2 40.7639576,29.2 41.6964664,27.4 C44.6272085,21.6666667 48.290636,16.1333333 52.6201413,11.3333333 C53.4194346,10.4666667 54.4185512,9.73333333 55.2844523,9 C55.8839223,8.46666667 56.4167845,8.46666667 57.0828622,9 C57.8155477,9.6 57.6823322,10.0666667 57.2160777,10.8666667 C53.3528269,17.5333333 49.489576,24.2 46.1591873,31.2 C45.6263251,32.3333333 46.0925795,32 46.7586572,31.9333333 C51.0881625,31.5333333 55.3510601,31.7333333 59.6139576,32.6 C59.8137809,32.6666667 60.2134276,32.8 60.2134276,33 C60.1468198,33.2666667 59.7471731,33.5333333 59.4141343,33.6 C56.6832155,34.4 53.8190813,34.2666667 51.0215548,34.6 C49.1565371,34.8 47.2915194,34.9333333 45.4265018,35.2666667 C42.5623675,35.7333333 42.2293286,39 41.0303887,41.1333333 C38.6325088,45.5333333 36.5010601,50 33.3038869,53.8666667 C28.8411661,59.4 22.7132509,64.0666667 15.5196113,65.3333333 C10.9236749,66.1333333 5.52844523,66.1333333 1.79840989,62.8 C1.46537102,62.4666667 0.399646643,61.6666667 0.666077739,61.1333333 C0.932508834,60.6666667 1.73180212,61.0666667 1.99823322,61.2 C2.59770318,61.4666667 3.13056537,61.8666667 3.66342756,62.1333333 C5.26201413,62.9333333 7.3934629,62.8 9.05865724,62.6 C11.9227915,62.2 14.3872792,60.7333333 16.8517668,59.3333333 C18.9166078,58.1333333 20.7816254,56.3333333 22.5800353,54.8 C26.1768551,51.7333333 29.2408127,48.0666667 31.9717314,44.1333333 C32.704417,43.0666667 33.4371025,41.9333333 34.1031802,40.8 C34.4362191,40.2666667 34.769258,39.6666667 35.1022968,39.0666667 C35.3021201,38.8 35.4353357,38.4666667 35.635159,38.2 C35.7683746,38 36.0348057,37.3333333 36.1680212,37.2666667 Z M160.191696,51 C160.324912,49 161.057597,47 161.923498,45.2 C165.187279,38.4666667 170.982155,33.0666667 177.642933,29.8 C179.507951,28.8666667 181.506184,28.0666667 183.504417,27.4666667 C184.769965,27.0666667 185.835689,27.5333333 186.235336,28.8 C186.768198,30.3333333 185.369435,30.6666667 184.436926,31.1333333 C177.376502,34.3333333 171.115371,38.5333333 166.985689,45.2 C165.520318,47.6 163.788516,50.0666667 163.721908,53.0666667 C163.6553,55.0666667 164.987456,55.8666667 167.052297,55.1333333 C170.982155,53.8 173.979505,51.2 177.043463,48.6 C181.173145,45.0666667 184.636749,41 186.901413,36 C187.700707,34.2 188.5,32.3333333 187.767314,30.2 C187.30106,28.8 188.433392,28.8 189.565724,28.7333333 C192.629682,28.4 195.627032,27.8 198.624382,27.2666667 C200.75583,26.9333333 202.887279,26.6 205.085336,26.4 C206.217668,26.3333333 207.283392,26.2 208.415724,26.2 C209.081802,26.2 210.613781,25.8666667 210.94682,26.6 C210.147527,27.6666667 208.54894,28 207.35,28.3333333 C205.818021,28.8 204.286042,29.2 202.687456,29.5333333 C199.623498,30.2 196.492933,30.8 193.495583,31.8 C193.162544,31.9333333 192.69629,32.1333333 192.896113,32.6 C194.827739,37 192.496466,40.4666667 190.29841,43.9333333 C188.300177,47.1333333 185.769081,49.8666667 182.904947,52.2666667 C180.040813,54.6666667 176.84364,56.9333333 173.579859,58.6666667 C172.247703,59.3333333 170.84894,59.8666667 169.383569,59.9333333 C165.586926,60.1333333 161.723675,58.0666667 160.458127,54.2666667 C160.191696,53.2 160.058481,52.0666667 160.191696,51 Z M212.945053,60.2666667 C213.611131,56.0666667 215.476148,52.0666667 217.474382,48.1333333 C221.271025,40.6 225.200883,32.8666667 229.330565,25.4 C233.526855,17.9333333 238.45583,10.8666667 242.585512,3.33333333 C242.851943,2.8 243.184982,2.26666667 243.451413,1.73333333 C243.717845,1.2 243.984276,1.06666667 244.583746,1.2 C246.915018,1.86666667 248.846643,4.33333333 248.113958,5.8 C247.314664,7.26666667 246.515371,8.8 245.582862,10.2 C242.05265,15.5333333 238.256007,20.7333333 234.992226,26.2666667 C231.528622,32.0666667 228.59788,38.2666667 225.400707,44.2 C222.203534,50.2 219.339399,56.3333333 217.274558,62.8 C217.074735,63.5333333 216.541873,64.1333333 215.809187,64.0666667 C214.54364,63.9333333 213.477915,63.4 213.144876,61.9333333 C213.011661,61.4666667 213.011661,61 212.945053,60.2666667 Z M70.7374558,9 C65.1424028,9 60.080212,7.53333333 54.8848057,7.26666667 C48.0242049,6.86666667 40.8305654,6.33333333 34.0365724,7.86666667 C29.9734982,8.8 26.0436396,10.4666667 22.7132509,13.0666667 C21.1812721,14.2666667 19.9823322,15.6 19.1164311,17.3333333 C18.5169611,18.6 17.7176678,20.4666667 18.5169611,21.8 C18.9832155,22.6 19.3162544,24.6666667 17.6510601,24.4666667 C17.3180212,24.4 17.0515901,24.2 16.785159,24 C14.8535336,22.4666667 13.7212014,20 14.5871025,17.6 C17.1848057,10.4666667 23.7123675,6.73333333 30.7061837,4.93333333 C40.1644876,2.46666667 49.7560071,3.13333333 59.3475265,4.33333333 C65.6086572,5.13333333 73.2685512,5.8 78.7969965,2 C79.1966431,1.73333333 79.5962898,1.46666667 79.9959364,1.4 C80.8618375,1.26666667 81.3946996,2.13333333 81.594523,2.86666667 C81.9941696,4.33333333 81.0616608,6 79.9293286,6.93333333 C77.6646643,8.86666667 73.6681979,9 70.7374558,9 Z M62.0118375,43.4666667 C65.6086572,39.8666667 68.7392226,35.8 73.1353357,33.1333333 C74.3342756,32.4 75.5332155,31.7333333 76.9319788,31.7333333 C77.5980565,31.7333333 78.330742,31.6666667 78.4639576,32.5333333 C78.5305654,33.4 77.7978799,33.6666667 77.0651943,33.7333333 C75.2667845,33.8 73.8014134,34.9333333 72.469258,36.0666667 C70.9372792,37.4 69.4053004,38.8666667 67.9399293,40.3333333 C65.4754417,42.8666667 63.1441696,45.5333333 61.0127208,48.4 C58.8812721,51.2666667 56.6166078,54.0666667 54.7515901,57.1333333 C54.3519435,57.8666667 53.4194346,57.8666667 52.7533569,57.6666667 C52.0206714,57.4 51.3545936,56.9333333 51.3545936,55.9333333 C51.3545936,52.1333333 53.7524735,49.2 55.3510601,46.0666667 C57.0828622,42.6666667 59.0144876,39.3333333 60.9461131,36 C61.4123675,35.2 61.8786219,34.4 62.3448763,33.5333333 C62.6779152,32.9333333 62.8111307,32.4 62.9443463,31.7333333 C63.2107774,30.5333333 63.9434629,30.4 65.0091873,30.9333333 C67.0740283,32 67.2738516,33.8 66.274735,35.6666667 C65.6086572,37 64.809364,38.3333333 64.0766784,39.6666667 C63.4772085,40.8666667 62.4780919,42.1333333 62.0118375,43.4666667 Z" id="Shape"></path>
            </g>
        </g>
    </g>
</svg>