<?xml version="1.0" encoding="UTF-8"?>
<svg width="728px" height="100px" viewBox="0 0 728 100" version="1.1" xmlns="http://www.w3.org/2000/svg" xmlns:xlink="http://www.w3.org/1999/xlink">
    <title>Script/white/COLOMBIA-OL</title>
    <g id="Script/white/COLOMBIA-OL" stroke="none" stroke-width="1" fill="none" fill-rule="evenodd">
        <path d="M164.00011,70.5959862 C163.993235,68.391544 164.307503,66.1978888 164.933088,64.0844238 C165.777124,61.471779 166.837903,58.93449 168.104319,56.4991194 C169.292058,54.0692935 170.470545,51.6445246 171.834931,49.3082508 C174.591519,44.6366213 177.811285,40.2554336 181.445359,36.231186 C185.126554,32.1892594 189.078291,28.403294 193.273125,24.899584 C197.599106,21.1749839 202.150079,17.7210563 206.900165,14.5574429 C211.68751,11.3370868 216.799365,8.6297171 222.151514,6.47993647 C225.016271,5.39279715 227.953564,4.50820528 230.941796,3.83266523 C233.788334,3.16768687 236.704688,2.36364461 239.655531,2.54232067 C242.523588,2.85029333 245.281357,3.82018841 247.712308,5.37585327 C248.955575,6.07474989 250.137455,6.87801756 251.245245,7.77702352 C251.983172,8.48175087 252.50496,9.38291318 252.749266,10.3745689 C253.077501,11.4186573 253.201459,12.5164213 253.114336,13.6075942 C252.926756,14.7797294 252.383057,15.8654168 251.557321,16.7167262 C250.768694,17.691986 249.912803,18.6106549 248.995942,19.4659776 C248.47272,20.0827543 247.560505,20.1843498 246.914874,19.6977508 C246.303168,19.0929551 245.874018,18.3276294 245.676664,17.4895844 C245.304307,16.465029 245.262525,15.349172 245.557217,14.2995425 C245.876023,13.2165296 247.272374,10.2346621 245.685917,9.47444609 C244.869269,9.23748493 243.997933,9.27238248 243.202767,9.57389785 C241.718093,9.94304934 240.238466,10.3408564 238.763885,10.7479344 C225.852686,14.3113419 213.934073,21.1836277 203.830716,29.9286408 C193.536269,38.7425005 185.207221,49.6273342 179.38448,61.8762574 C177.197424,66.5606043 174.891762,71.8113205 174.534263,77.0308528 C174.368002,78.4520269 174.343206,79.8862446 174.460239,81.3123357 C174.644784,82.2943466 175.167182,83.180423 175.936502,83.816329 C177.908217,85.5929758 180.446043,85.8879599 182.987233,85.7657522 C188.635726,85.4952097 193.995695,83.4143079 198.885447,80.6642136 C204.413651,77.5517104 209.861943,74.2866582 215.288365,71.0013786 C220.784044,67.6745203 226.251683,64.2984979 231.691283,60.8733116 C236.974706,57.5576907 242.07391,54.0018686 247.168909,50.4064343 C249.414924,48.6999324 251.749354,47.1135165 254.162441,45.6538197 C255.160793,45.0724867 256.239301,44.6419482 257.363113,44.3761173 C258.075588,44.2235684 259.561104,43.9808387 259.992627,44.77561 C260.273025,45.5426375 260.116554,46.4016767 259.583815,47.0200173 C258.536941,47.9980593 257.398641,48.8729899 256.184626,49.6327333 C253.82304,51.3489372 251.604824,53.2549302 249.551959,55.3318253 C247.530527,57.3635821 245.679833,59.5589667 244.018708,61.8956421 C242.491344,64.1576105 241.092492,66.5040701 239.828813,68.923848 C239.230421,69.8893227 238.791301,70.9451474 238.528356,72.050679 C238.478727,72.3304925 238.322268,73.1294779 238.660421,73.2778127 C238.899315,73.3831642 239.402337,73.1345348 239.603378,73.0325546 C241.219276,72.2158701 242.391875,70.4552367 243.490449,69.07134 C245.076065,67.076405 246.951045,65.3098719 248.652742,63.4135457 C250.67479,61.152194 252.55907,58.770873 254.295346,56.2825168 C255.12811,55.0949952 255.938162,53.8923031 256.74569,52.6870825 C257.165717,52.0611544 257.586304,51.4349454 258.007453,50.8084554 C258.294738,50.2255119 258.695082,49.7057715 259.185098,49.2795952 C259.625033,49.003153 260.14572,48.8994872 260.581449,48.6129312 C261.21906,48.1915254 261.802836,47.669825 262.405958,47.2020646 C263.655945,46.2311456 264.907894,45.2624742 266.161806,44.2960502 C271.118011,40.4612574 275.966546,36.5143707 280.703204,32.4124066 C285.211062,28.5076605 289.758456,24.465536 293.404951,19.7162927 C297.013593,15.0159324 300.018271,9.89838032 303.791783,5.31348521 C304.742311,4.15967613 305.730692,3.03789389 306.779638,1.9708944 C307.478808,1.14095302 308.404278,0.533218795 309.442799,0.222060327 C310.167051,0.029899282 311.23282,-0.192602981 311.89146,0.291170878 C312.740645,1.00589153 313.424125,1.89749497 313.894299,2.90388684 C314.411644,3.68962343 314.508594,4.68056393 314.153381,5.55200089 C313.556707,6.96792438 312.926947,8.36867726 312.264101,9.75425954 C310.938409,12.5271097 309.487101,15.2342206 307.910178,17.8755921 C304.678382,23.302456 301.096658,28.5203026 297.603257,33.7786042 C290.510467,44.45787 283.892099,55.4515046 277.219056,66.3954132 C275.621383,69.013186 274.024833,71.6309589 272.429403,74.2487317 L269.989995,78.2487156 L268.722344,80.3220321 C268.260375,80.8789226 267.912506,81.5215976 267.698633,82.2133013 C268.035104,82.1779032 268.424568,81.7800962 268.653367,81.566022 C269.031055,81.2137268 269.410425,80.8572175 269.783066,80.5023938 C270.656206,79.6809334 271.528224,78.8569446 272.399121,78.0304273 C273.974362,76.5369652 275.549323,75.0423793 277.124003,73.5466696 C280.359163,70.4822066 283.6061,67.4312287 286.917807,64.4493612 C293.523556,58.4999541 300.303429,52.7443937 307.070685,46.9795623 C308.773784,45.5288026 310.476884,44.0772001 312.179984,42.6247548 C313.466982,41.5290997 314.630327,40.3415782 316.26389,39.7929078 C317.13703,39.4996094 318.735263,39.2029397 319.02715,40.4359731 C319.226509,41.2787847 318.592263,42.2117771 318.131299,42.8556852 C316.882445,44.4471421 315.463328,45.8967172 313.899346,47.1784659 C310.748003,49.9291483 307.874186,52.9835781 305.319358,56.2976874 C302.972543,59.4427698 300.985314,62.841737 299.39496,66.4308113 C298.60036,68.083322 298.052778,69.8439913 297.769809,71.6562432 C297.615881,72.2878549 297.602956,72.9457185 297.731957,73.5829105 C297.976739,74.0633131 298.955867,73.866938 299.395801,73.7228173 C300.806452,73.2601137 301.884839,72.0076956 302.999396,71.0856598 C304.44081,69.9454696 305.801459,68.7063654 307.071526,67.3772887 C309.568688,64.5500787 311.728271,61.4407356 313.506517,58.1122608 C315.144285,55.1733767 316.637371,52.1577968 318.191022,49.1784578 C319.561297,46.5480428 321.602829,43.5973594 320.871007,40.4755852 C320.689154,39.7397103 320.399144,39.0350051 320.010484,38.3845696 C319.75368,37.9473974 319.468468,37.5276148 319.156691,37.1279375 C318.824022,36.7844914 318.544211,36.3933576 318.326451,35.967386 C318.111111,35.3774178 318.474498,35.0402932 319.04818,34.9914101 C319.787252,35.0198731 320.504519,35.2501016 321.122518,35.6572313 C322.477644,36.3172378 323.68081,37.2526535 324.655454,38.4039543 C325.12956,38.9929001 325.519151,39.6453721 325.812912,40.342421 C325.961696,40.6941539 326.087026,41.0553896 326.188076,41.4237483 C326.309205,41.8628531 326.247799,42.0052883 326.714652,42.0364723 C327.545733,42.0920979 328.40962,41.3689655 329.114525,40.986329 C330.123935,40.4368159 331.135028,39.8856171 332.147803,39.3327327 C334.068486,38.2831513 335.98945,37.2352555 337.910695,36.1890454 C338.920105,35.6400941 339.934282,35.0945141 340.953226,34.5523053 C341.803173,34.0105254 342.706952,33.5586043 343.650034,33.2038067 C345.056792,32.9350836 346.512407,33.2403046 347.693564,34.0516752 C350.629265,35.8173655 351.697558,39.3900439 350.974147,42.6483535 C350.23896,45.9631315 347.99891,48.8699888 346.347683,51.7751603 C345.842978,52.666855 345.321449,53.55265 344.807491,54.4409734 C344.347368,55.2340592 343.451517,56.3035871 343.461611,57.2635495 C344.044012,56.817952 344.583842,56.319112 345.074144,55.7734586 C345.741476,55.1553967 346.408248,54.5387396 347.074459,53.9234871 C348.323884,52.7660259 349.57303,51.6088455 350.821895,50.4519461 C353.322709,48.1401139 355.833617,45.8375526 358.374808,43.5703894 C360.007529,42.114011 362.610966,40.4663143 364.683622,42.1376097 C366.627579,43.7027108 366.445043,46.9728198 365.932768,49.1498022 C365.487822,50.7846533 364.826987,52.3526543 363.967782,53.812236 C363.576636,54.5319971 363.172872,55.2450157 362.790137,55.9673053 C362.310301,56.650845 361.986368,57.4317521 361.841291,58.2546959 C362.37552,57.8590441 362.856205,57.395555 363.271289,56.8758562 C363.839924,56.2825168 364.404633,55.6849634 364.965416,55.0831959 C366.050532,53.9218015 367.124713,52.7502934 368.199735,51.5796281 C370.386791,49.1995281 372.5831,46.8236422 374.895491,44.5632215 C377.034599,42.4713631 379.164455,40.3618056 381.37254,38.3399006 C382.466068,37.3344264 383.593243,36.3542365 384.759953,35.4288293 C385.873007,34.481563 387.067983,33.6354145 388.330743,32.9003945 C390.745757,31.6125784 393.041324,34.3753148 394.210558,36.1292058 C394.783398,36.9880308 395.556438,38.1519536 395.333527,39.2400234 C394.94578,40.7504674 394.41541,42.2204997 393.749594,43.630229 C392.507178,46.5986115 391.033439,49.4641709 389.5883,52.3364729 C388.087643,55.3194641 386.576612,58.2973984 385.055206,61.2702758 C383.32631,64.6544454 381.592648,68.0358055 379.854219,71.4143563 C379.013044,73.0539058 378.171868,74.6934553 377.330693,76.3330048 C376.412184,77.9614736 375.578855,79.6367187 374.834085,81.3519479 C375.198061,81.1168059 375.520669,80.8229042 375.788819,80.4821663 C376.209406,80.0607605 376.620741,79.6224985 377.02787,79.1850792 C377.792498,78.3624951 378.541986,77.526426 379.299043,76.6970994 C381.773781,73.9849317 384.261136,71.2851252 386.761109,68.5976799 C391.566744,63.4228167 396.402661,58.276609 401.204089,53.0975318 C406.023183,47.8999126 410.804423,42.6677382 415.494817,37.353811 C417.801319,34.7410951 420.064081,32.1106801 422.127484,29.2965321 C424.17154,26.5085114 426.081008,23.6260957 428.00814,20.7546366 C431.082636,16.1705843 434.22022,10.9004833 438.781072,7.68515706 C440.816717,6.25237733 441.543492,6.0104904 444.040942,6.66872626 C445.975645,7.17947009 447.255914,6.76143554 445.789745,8.92493292 C445.380093,9.52838603 444.981376,10.1394244 444.57677,10.7470916 C443.72466,12.0231084 439.505324,17.5106547 438.652373,18.7849858 C436.976751,21.2864507 435.30786,23.7921296 433.681868,26.3264641 C430.410537,31.4271599 427.322583,36.6450065 424.219487,41.8502109 C423.3699,43.2762482 422.51807,44.7014426 421.663996,46.1257942 C421.25837,46.8204703 420.888608,47.5355538 420.556168,48.2682213 C420.374474,48.6570384 420.193341,49.0458554 420.012769,49.4346725 C419.807253,49.7789384 419.644003,50.1468226 419.52657,50.5303276 C419.854628,50.3553603 420.154623,50.1320571 420.416533,49.8678777 C420.72945,49.6200911 421.041527,49.3706189 421.362855,49.132946 C422.01826,48.6725299 422.70179,48.2536761 423.409435,47.8788423 C424.846162,47.0697432 426.252608,46.2092325 427.677558,45.3807487 C430.230526,43.8974003 433.043416,42.2513893 435.999306,41.7676154 C437.994146,41.4029706 440.050568,41.8839698 441.67808,43.0958865 C443.346942,44.4908604 444.129459,46.6829444 443.722136,48.8219485 C443.334542,50.6055244 442.751434,52.3407273 441.983427,53.9959689 C441.638545,54.8803592 441.29142,55.7636258 440.942052,56.6457686 C440.758115,57.11381 440.574178,57.5815704 440.390241,58.0490499 C440.16854,58.4484856 439.998919,58.8747783 439.885536,59.3174814 C440.255653,59.4573881 440.687176,59.1615612 440.998411,58.9913133 C441.402175,58.7713395 441.805098,58.5479944 442.208862,58.3271777 C443.113966,57.8327283 444.018791,57.3368741 444.923335,56.8396153 C446.682512,55.8748769 448.44169,54.9107004 450.200868,53.9470858 C451.911258,53.0132506 453.624452,52.0847531 455.340449,51.1615935 C456.265742,50.6651775 458.682439,49.0688923 459.888684,49.513054 C461.541594,50.1207212 459.829802,52.9517253 459.194715,53.9563568 C458.888527,54.4412544 458.581778,54.9253092 458.274469,55.4085212 C456.891577,57.5852226 455.500273,59.7563053 454.100557,61.9217692 C452.733928,64.0405976 451.364214,66.1577403 449.991416,68.2731974 C449.306699,69.3317688 448.621982,70.3903402 447.937266,71.4489116 C447.594066,71.9807257 447.248343,72.5108542 446.905985,73.0435111 C446.591697,73.4336178 446.407257,73.9125615 446.378568,74.41308 C447.228996,74.4467924 448.163542,73.455646 448.791059,72.9861999 C449.632234,72.3591481 450.473409,71.7312534 451.314584,71.102516 L456.352383,67.3300913 C459.664371,64.8488539 462.976919,62.3690212 466.290028,59.8905933 C469.365365,57.592246 472.390232,55.1936042 475.663245,53.1784417 C478.670125,51.3161432 481.867444,49.781903 485.20049,48.6019747 C486.888479,48.0100117 488.609332,47.5166995 490.354371,47.1245259 C492.024674,46.6989075 493.728948,46.4205607 495.447688,46.2926709 C497.215721,46.1931324 498.973147,46.6248327 500.49474,47.5324467 C501.833891,48.3246897 502.85676,47.4742927 503.898135,46.5952402 C504.850345,45.7920408 505.748721,45.2627551 507.02899,45.6428631 C508.127623,45.8845844 508.944004,46.8105934 509.04781,47.9327823 C508.940452,48.6623145 508.671738,49.358588 508.261311,49.9707007 C507.797543,50.8961078 507.336018,51.8217959 506.876737,52.7477649 C506.099491,54.3108995 505.324768,55.8760007 504.552569,57.4430684 C502.912278,60.7679601 501.277033,64.0945375 499.612347,67.4067871 C498.715093,69.1946715 497.808867,70.9777799 496.893668,72.7561123 C496.388963,73.7396735 495.890146,74.7291343 495.3703,75.705953 C495.144333,76.0611136 494.947417,76.43401 494.781477,76.8209927 C494.545299,77.3056312 494.386353,77.8243489 494.310419,78.3582811 C494.907464,78.1289283 495.46363,77.8044841 495.95744,77.3974758 C496.475604,77.0468662 496.98788,76.6861428 497.50352,76.332162 C498.534241,75.6247621 499.567484,74.9224191 500.603251,74.225133 C502.674225,72.8299988 504.760059,71.4587444 506.860754,70.1113695 C510.967372,67.4860114 515.148014,64.9769613 519.43969,62.6668147 C523.811104,60.296789 528.314263,58.179277 532.927095,56.3246574 C537.512827,54.4066752 542.283274,52.9663179 547.163146,52.0263182 C550.055947,51.5206312 553.06399,50.7334452 555.97698,50.3760931 C557.380902,50.2075308 561.45892,50.0625672 562.149525,50.3078254 C562.827255,50.501488 563.457435,50.8341237 564.00011,51.284644 C563.547238,51.526369 563.056037,51.68776 562.548242,51.7616754 C562.023172,51.8552403 561.491621,51.9076534 560.958421,51.9184383 C559.889567,51.9926057 558.821835,52.0903719 557.755225,52.2117368 C555.64051,52.452219 553.537572,52.7817583 551.44641,53.2003548 C547.290371,54.038434 543.207358,55.2060304 539.23591,56.6921232 C535.24958,58.1788429 531.405409,60.0102725 527.582267,61.8686721 C523.695969,63.7174209 519.910143,65.7711399 516.2407,68.0211968 C508.776111,72.6853162 502.089608,78.501559 495.280294,84.048945 C493.669166,85.3134611 492.124916,86.6612597 490.65383,88.0868554 C490.078785,88.702069 489.436265,89.250277 488.738474,89.7210671 C488.10112,90.07202 487.344462,90.1333574 486.659088,89.8896294 C485.211426,89.5053073 485.22152,89.2035807 484.361839,88.0674707 C483.626651,87.0965517 482.494429,86.2250845 482.161324,85.0384058 C481.857392,83.7695397 481.945396,82.4380959 482.413677,81.2204693 C483.131245,79.3038555 484.035974,77.4629301 485.114691,75.7244948 C486.336077,73.6006096 492.390016,62.3507603 492.517033,61.792819 C492.099567,61.9030661 491.716176,62.1159928 491.401635,62.4122856 C491.030676,62.6937846 490.6614,62.9778122 490.290442,63.260154 L487.523817,65.367183 L482.269836,69.3739094 C478.757648,72.0394416 475.245741,74.7016025 471.734115,77.3603921 C469.883529,78.7594594 466.602946,81.7480693 464.374672,79.253347 C463.495213,78.0663847 463.040365,76.617242 463.083468,75.1395836 C463.034535,73.4238092 463.363373,71.7182943 464.046614,70.1442392 C464.818455,68.4430327 465.762428,66.8256406 466.86371,65.3174572 C467.426456,64.5016155 467.99425,63.689988 468.546061,62.8690895 C469.201336,61.8981705 470.096347,61.0149039 470.664981,59.9934163 C469.791067,60.5488157 468.964966,61.1763622 468.19529,61.8695149 C467.219527,62.6508013 466.270681,63.4666429 465.311742,64.2689995 C463.455548,65.8214585 461.600196,67.375884 459.745685,68.9322761 C456.157231,71.9394279 452.604947,75.0047337 448.962658,77.9503602 C447.55369,79.0881559 446.045462,80.1989816 444.193194,80.3650155 C443.525268,80.4682905 442.841994,80.3944835 442.211385,80.1509413 C441.557977,79.6928948 441.00777,79.1025682 440.596329,78.4181207 C439.519624,76.9971403 438.913978,75.3359587 439.749265,73.6334792 C440.307995,72.6577951 440.946682,71.7303202 441.658733,70.8606291 L443.879436,67.7801527 C445.427199,65.6326687 446.973279,63.484061 448.517677,61.3343295 C449.323523,60.2133901 450.129088,59.0916079 450.934373,57.9689828 C451.334773,57.4110415 451.745266,56.8589999 452.136413,56.2934733 C452.490636,55.8712381 452.760764,55.3848626 452.932165,54.8606936 C452.393961,54.8998265 451.87379,55.0718167 451.418049,55.3613237 C450.868762,55.6773781 450.341345,56.035573 449.800469,56.366798 C448.622824,57.0890875 447.43256,57.7995777 446.245662,58.5083822 C444.058606,59.8189543 441.883327,61.1430113 439.790483,62.5960185 C437.750525,63.9839719 435.841267,65.555593 434.086473,67.2913219 C432.315799,69.0755541 430.70579,71.0098067 429.04531,72.8951763 C426.068478,76.4276398 422.526918,79.440361 418.565106,81.8104374 C414.663039,84.0554393 410.312621,85.4054461 405.827189,85.7632238 C404.530133,85.9831883 403.203429,85.9577461 401.915724,85.6882136 C400.879396,85.3392896 400.002891,84.5790735 398.84291,84.7880908 C395.535409,85.3831158 394.277852,88.7779609 391.237003,85.082232 C390.538855,84.3293453 390.040258,83.4130852 389.786817,82.4172617 C389.566429,81.0839338 390.41181,79.8171879 391.106621,78.7603022 C391.960414,77.4623723 392.709901,76.1029172 393.495559,74.7636896 C396.990642,68.80754 400.652278,62.9525278 404.302138,57.0916159 C405.29809,55.4930833 406.291798,53.8917412 407.283263,52.2875898 C407.787968,51.4700625 408.292674,50.6514115 408.797379,49.8316368 C409.339558,49.0427254 409.838007,48.2245235 410.290465,47.3807407 C409.517466,48.0530137 408.802454,48.7894335 408.153039,49.5821646 C407.406075,50.4325615 406.691076,51.3124568 405.965983,52.1805527 C404.503459,53.9307915 403.045422,55.6849634 401.591871,57.4430684 C398.676358,60.9516931 395.754115,64.4552609 392.750278,67.8888754 C387.366756,74.0414 381.455817,79.664639 375.780407,85.533979 C373.677469,87.7059045 371.064778,90.1812422 367.842236,90.1905131 C366.478926,90.3128319 365.158718,89.6750764 364.405193,88.5301743 C363.907515,87.4105852 363.666091,86.1936328 363.698606,84.9684525 C363.537738,83.2537098 363.602218,81.5252277 363.890394,79.8273017 C364.270499,77.9357107 364.9573,76.1192808 365.923515,74.4501637 C368.185435,70.507491 370.518014,66.6061161 372.881717,62.7241259 C375.480949,58.4544423 378.118874,54.2075146 380.743341,49.9521589 C382.055014,47.8282736 383.360518,45.7010171 384.659853,43.5703894 C385.303072,42.5106943 385.942085,41.4484707 386.576892,40.3837187 C387.144685,39.429656 387.914361,38.485707 388.00689,37.349597 C387.455255,37.864533 386.842481,38.3095092 386.182381,38.6744968 C385.337891,39.2782293 384.525074,39.9252462 383.747178,40.6129635 C381.134263,42.7719951 378.640954,45.0723616 376.278383,47.5037912 C374.091327,49.848493 372.038859,52.3255163 369.948539,54.7587134 C367.806065,57.2525929 365.679574,59.7608003 363.605236,62.311991 C361.514915,64.8825664 359.491047,67.5020248 357.579897,70.2082929 C356.611704,71.5795474 355.615753,72.9449021 354.72663,74.3692538 C354.030492,75.6262004 353.217088,76.8142522 352.297316,77.9174906 C351.72784,78.5310574 350.828624,79.3848256 350.026143,78.6465226 C349.437475,77.9403019 349.06607,77.078054 348.957009,76.1644425 C348.664669,74.9503972 348.609257,73.6911848 348.793821,72.4560714 C349.16331,70.8158957 349.803861,69.2491478 350.688989,67.8206076 C352.640516,64.2192736 354.514654,60.5766419 356.369446,56.9247392 C357.271186,55.1492161 358.170402,53.3720074 359.067095,51.593113 C359.529741,50.6795053 359.992949,49.7658975 360.456716,48.8522897 C360.847863,48.0819599 361.652868,46.9770339 361.565386,46.0710114 C361.20368,45.8695795 360.402881,46.390437 360.099217,46.5766984 C359.527953,46.9515725 358.999105,47.3876258 358.522013,47.8771567 C357.574009,48.8118348 356.755545,49.8602924 355.853805,50.837111 C354.710648,52.0760441 353.469073,53.2247963 352.310775,54.4502444 C351.031347,55.8046426 349.820896,57.2129808 348.633998,58.6491318 C343.620593,64.7173753 338.762805,70.9061409 333.878942,77.0755218 C331.595151,79.9604659 329.420713,83.0594842 326.766804,85.6140461 C326.16957,86.1896865 325.407465,86.8580361 324.697513,86.0624219 C324.279457,85.5206778 323.96075,84.9088481 323.756238,84.2554338 C323.426129,83.4210452 323.214337,82.5444267 323.127039,81.651146 C323.031734,80.0473272 323.389135,78.4490343 324.15832,77.0392809 C325.038189,75.3106743 326.074517,73.6494926 327.032616,71.9638694 C329.01779,68.4729438 330.99343,64.9763994 332.959537,61.4742363 C334.925644,57.9720731 336.888386,54.4682244 338.847764,50.96269 C340.776579,47.5071624 342.829047,44.0979895 344.543362,40.5328964 C344.951332,39.6850279 345.366032,38.8354738 345.73699,37.9715919 C345.910272,37.568728 346.210572,36.7402442 345.850549,36.365193 C345.406408,35.9033323 344.344004,36.2025304 343.845187,36.351708 C343.014666,36.5994947 342.193679,36.8767797 341.382225,37.1835631 C338.323048,38.3332974 335.442185,39.9121712 332.82579,41.8729668 C330.151011,43.7578315 327.895668,46.178274 326.202376,48.9812399 C324.561243,51.9083246 323.45678,55.1244937 322.019211,58.1535585 C319.295058,64.2199675 315.66439,69.8351456 311.252167,74.8058302 C308.186083,78.1206082 302.855555,82.9979589 298.187874,79.6570537 C296.01209,77.9653944 294.470679,75.5867067 293.813762,72.9069756 C293.438004,71.5867877 293.305737,70.2089982 293.423457,68.8412525 C293.67118,67.2199574 294.146082,65.6418158 294.834108,64.1535343 C295.163007,63.341064 295.511254,62.5361789 295.852771,61.7287654 C296.044559,61.2744899 296.237188,60.8193716 296.419723,60.3608821 C296.635991,59.9716815 296.757338,59.5367562 296.773858,59.0916079 C296.365047,59.1067785 295.991565,59.5576827 295.727436,59.8223255 C295.357319,60.1931626 294.991407,60.5682138 294.622973,60.9407365 C293.845727,61.7245513 293.069041,62.508647 292.292917,63.2930237 C290.778801,64.8201983 289.266929,66.3479348 287.7573,67.8762332 C284.815429,70.8491106 281.873559,73.8217072 278.931688,76.7940227 C275.947199,79.8062314 272.959905,82.8156307 269.969807,85.8222206 C268.550744,87.2491006 267.114858,88.656596 265.578872,89.9578971 C264.549273,90.8302071 263.532292,91.8474807 262.094724,91.8120827 C259.48708,91.7497146 257.480036,89.1782964 256.860931,86.853822 C255.955826,83.4547628 257.272266,79.9613087 258.88564,77.0055684 C260.771555,73.5500409 262.833276,70.1787945 264.800785,66.77215 C266.905405,63.1227757 269.022924,59.4809868 271.15334,55.8467832 C273.530502,51.8147725 275.968228,47.8204074 278.466519,43.8636878 C279.805109,41.7487926 281.147344,39.6369877 282.493225,37.528273 C283.015595,36.7082174 283.5346,35.8856332 284.057811,35.0647347 C284.483445,34.3980708 285.047033,32.7048622 285.598844,32.2531152 C285.039757,32.7933603 284.510703,33.36396 284.01407,33.9623372 C280.53354,37.4673604 276.854308,40.768507 272.994673,43.8493601 C269.57109,46.5825981 266.054136,49.222284 262.792058,52.1502115 C262.227915,52.6357271 261.69416,53.1556027 261.193825,53.7068845 C260.246661,54.7949543 259.79495,56.2580753 259.117804,57.516393 C257.453655,60.5234083 255.558664,63.3962215 253.449965,66.1088573 C251.3669,68.9332948 249.101835,71.6183145 246.669251,74.1467515 C245.426835,75.4042264 244.13479,76.6111326 242.811621,77.7817979 C241.754264,78.716476 240.606059,79.749763 239.134003,79.8888269 C236.136054,80.1669548 234.177798,76.4088578 233.476257,74.006002 C232.987358,72.2209523 233.004544,70.3347199 233.525887,68.5589106 C233.794797,67.6088317 234.141994,66.6827703 234.563897,65.7902745 C234.927285,65.0047741 235.612002,64.0498685 235.516108,63.1379464 C234.937582,63.467876 234.403584,63.8706412 233.927127,64.3364245 C233.292881,64.8168271 232.660037,65.2986344 232.028595,65.7818463 C230.765149,66.7465847 229.503387,67.7127277 228.243306,68.6802754 C225.71978,70.6094712 223.176907,72.5226535 220.588611,74.3700966 C215.4995,78.0068286 210.424689,81.6730591 205.130332,85.0072218 C200.060569,88.1989493 194.774623,91.345165 189.016778,93.1116981 C184.512284,94.4939092 179.604868,94.4146849 175.557973,91.7884839 C173.451506,90.2805014 171.624437,88.4150797 170.15931,86.2764961 C168.567707,84.2519423 167.190849,82.066828 166.05101,79.7565055 C164.704397,76.8909124 164.004217,73.7633252 164.00011,70.5959862 Z M438.650529,43.0337026 C438.530494,42.9611601 438.363303,43.0140735 438.06836,43.1130727 C429.609331,45.9413773 421.06199,51.0364222 415.635556,58.3640696 C410.19026,65.7164668 405.159941,73.3726892 400.002728,80.9324726 C399.904128,81.0767042 402.611772,80.9759981 404.589775,80.7617844 C408.825292,79.3885972 409.328581,79.5772078 413.299163,77.6441631 C421.207747,73.7874617 426.458415,66.8745867 431.345549,59.9617118 C433.114516,57.3503199 434.650806,54.5900293 435.936884,51.7123477 C437.006051,49.4421937 439.604806,45.8713951 438.871736,43.4442079 C438.80486,43.2129253 438.739698,43.0883229 438.650529,43.0337026 L438.650529,43.0337026 Z M499.999278,51.0554684 C499.479856,50.8385905 493.918548,51.282356 491.591972,51.9571799 C486.026501,53.5729201 481.541495,57.6293705 477.600882,61.7091771 C476.623637,62.7218299 475.667202,63.7536682 474.713264,64.7880088 C472.63744,66.9774612 470.796106,69.3787131 469.21938,71.9524861 C469.002955,72.3111687 466.359231,76.6579019 467.145856,76.9748773 C467.962446,77.3043648 471.712438,74.3056111 473.395564,73.0952657 C475.74628,71.4036182 478.082845,69.690283 480.3395,67.8726795 C486.387766,63.0021029 492.279539,57.935502 498.22209,52.9331303 C498.848168,52.3398797 499.441711,51.7130738 500.00011,51.0554684 L499.999278,51.0554684 Z M458.068281,38.9042998 C458.224024,39.9734935 458.583791,42.3703258 461.105275,41.9513887 C462.942268,41.6499951 466.919173,38.2141086 466.986143,36.4509563 C467.042989,34.9816627 467.035981,33.1077482 464.701389,33 C460.151348,33.1326132 457.536417,35.245382 458.068281,38.9042998 L458.068281,38.9042998 Z" id="Shape" fill="#FFFFFF" fill-rule="nonzero"></path>
    </g>
</svg>