<?xml version="1.0" encoding="UTF-8"?>
<svg width="48px" height="48px" viewBox="0 0 48 48" version="1.1" xmlns="http://www.w3.org/2000/svg" xmlns:xlink="http://www.w3.org/1999/xlink">
    <title>Original 110ml</title>
    <g id="Original-110ml" stroke="none" stroke-width="1" fill="none" fill-rule="evenodd">
        <g id="Shape" fill="#000000">
            <path d="M38.1856681,22.4362421 C37.2916381,21.4663227 36.0211744,20.9109655 34.7036565,20.9109655 L34.4134889,20.9109655 L34.735026,17.8604124 L33.9507891,17 L12.7763945,17 L12,17.8604124 L15.1369474,40.5837506 L15.9133418,41.2877244 L31.5181885,41.2877244 L32.2945829,40.5837506 L32.9940202,34.2942897 L34.374277,34.2942897 C36.821096,34.2942897 38.8914812,32.3935604 39.0953828,29.9609398 L39.4247623,26.0186866 C39.5345554,24.7124241 39.0796981,23.4061616 38.1856681,22.4362421 Z M33.0802862,18.5643862 L32.7329102,21.1287724 L13.9731445,21.1287724 L13.6468974,18.5643862 L33.0802862,18.5643862 Z M37.5347515,29.8357889 C37.4014312,31.4627506 36.013332,32.7299034 34.374277,32.7299034 L33.1587099,32.7299034 L34.2409568,22.4753518 L34.7036565,22.4753518 C35.5976865,22.4753518 36.4289776,22.8351606 37.0328399,23.4922028 C37.6367023,24.149245 37.9347123,25.0018355 37.8562886,25.8935357 L37.5347515,29.8357889 Z"></path>
        </g>
    </g>
</svg>