<?xml version="1.0" encoding="UTF-8"?>
<svg width="48px" height="48px" viewBox="0 0 48 48" version="1.1" xmlns="http://www.w3.org/2000/svg" xmlns:xlink="http://www.w3.org/1999/xlink">
    <title>Original 25ml</title>
    <g id="Original-25ml" stroke="none" stroke-width="1" fill="none" fill-rule="evenodd">
        <g id="Shape" fill="#000000">
            <path d="M34.1548868,31.7328966 C36.5075973,31.7328966 38.4681894,29.7774139 38.4681894,27.4308345 C38.4681894,25.0842552 36.5075973,23.1287724 34.1548868,23.1287724 L32.5864131,23.1287724 L32.8216841,20.8604124 L32.0374473,20 L14.7842368,20 L14,20.8604124 L16.2742868,40.4152402 L17.0585237,41.119214 L29.7631605,41.119214 L30.5473973,40.4152402 L31.5669052,31.7328966 L34.1548868,31.7328966 Z M34.1548868,24.6931587 C35.6449368,24.6931587 36.8997157,25.9446676 36.8997157,27.4308345 C36.8997157,28.9170015 35.6449368,30.1685104 34.1548868,30.1685104 L31.7237526,30.1685104 L32.351142,24.6931587 L34.1548868,24.6931587 Z M29.6847368,34.079476 L29.0573473,39.5548277 L17.7643368,39.5548277 L17.1369474,34.079476 L29.6847368,34.079476 Z M31.1747868,21.5643862 L29.9200078,32.5150898 L16.9801,32.5150898 L15.6468974,21.5643862 L31.1747868,21.5643862 Z M17.7643368,39.5548277 L17.1369474,34.079476 L29.6847368,34.079476 L29.0573473,39.5548277 L17.7643368,39.5548277 Z"></path>
        </g>
    </g>
</svg>