<?xml version="1.0" encoding="utf-8"?>
<!-- Generator: Adobe Illustrator 23.0.6, SVG Export Plug-In . SVG Version: 6.00 Build 0)  -->
<svg version="1.1" id="Diavollito" xmlns="http://www.w3.org/2000/svg" xmlns:xlink="http://www.w3.org/1999/xlink" x="0px" y="0px"
	 viewBox="0 0 945.3 215.4" style="enable-background:new 0 0 945.3 215.4;" xml:space="preserve">
<style type="text/css">
	.st0{opacity:0.7;fill:#FFFFFF;}
</style>
<title>Diavolitto_White</title>
<path class="st0" d="M40.5,213.2c4.7-13.2,8.3-26.3,15-38.1c7.5-13.2,14.9-26.5,22.4-39.8c9.4-16.6,18.9-33.1,28.5-49.6
	c5.6-9.6,11.4-19.1,18.7-27.6c4.1-4.8,5.4-7.6,10.2-11.8c6.4-5.8,9.3-5,13.7,2.3c6.2,10.5,3.2,5.2-15.7,41.7
	c-16.3,31.4-30.1,66.9-51.1,95.5c-0.8,1.1-1.6,2.3-2.4,3.4l-6.8,9.9c1.9,0.3,3.3-0.6,4.7-1.2c13-5.6,26.2-11,39-16.9
	c21.1-9.8,41.2-21.9,59.1-36.9c15.7-13.1,37.7-32.6,42.8-53.1c1.2-4.9,1.3-10.1,0.4-15.1c-6.4-36-55.8-43-85-42
	c-22.9,0.8-44.9,6.6-66.9,12.6c-16.1,4.4-33,9.7-46.8,19.5c-4.3,3-8,6.8-8,12.8c-0.2,2.5-0.6,5.1-1.3,7.5c-0.4,1.9-0.7,3.9-3.1,4.4
	c-1.5,0.3-4.2-1.5-5.2-3.4c-2.7-5.4-3.4-22.1-2.3-25.7c0-1.5,3.2-4.4,4.7-5.4c10.6-6.3,21.7-11.7,33.2-16.2
	C95.9,16.7,189.1-0.1,226.9,65.4c10.1,17.5,9.2,40.5-3.4,56.5c-4.7,5.9-9,12-13.4,18.4c8.2-5,16.3-10.1,24.5-14.9
	c7.8-4.6,15.7-9.1,23.9-13.8c3.8-2.2,6.9,9.2,5.5,11.5c-1.2,2.1-3,3.9-4.5,5.9c-11,14.9-19.9,31.4-27.9,48.1
	c-0.1,0.6-0.2,1.1-0.2,1.7c1.2-0.7,2.3-1.5,3.4-2.3c5-4.6,10.1-9,14.9-13.8c6.1-6.2,12-12.6,18-18.9c12.1-12.9,25.8-24.2,39.8-35
	c5.9-4.5,11.7-9.1,17.9-13.2c10.3-6.8,21.3-12.2,33.4-14.8c2.3-0.6,4.7,0,6.5,1.5c0.6,0.5,0.9,1.2,0.9,1.9c-0.1,0.5-1,1-1.6,1.3
	c-6.8,2.6-13.9,3.3-20.2,7.2s-12.9,8.2-18,13.6c-10.5,11.3-16.5,22.2-24,35.6c-0.9,1.7-1.6,3.4-2.1,5.2c0,0.2,0.1,0.4,0.3,0.4
	c0.1,0,0.2,0,0.3,0c1.3-0.9,2.3-1.5,3.2-2.2c14.6-11.5,28.8-23.5,41.9-36.7c3-3,5.3-6.6,8-9.8c2.3-2.7,4.7-5.4,7.1-8
	c0.6-0.6,1.3-1.2,2-1.7c0.8-0.6,1.8-0.6,2.6-0.1c0.8,0.7,1.8,1.2,2.8,1.5c4.4,1.2,4.4,7.9,3.4,11.5c-0.6,1.9-1.7,3.6-3.2,4.9
	c-1.5,1.5-2.8,3.1-3.8,5c-3.4,6.3-6.9,12.2-10.1,18.7c-4.1,8.2-8,16.5-12,24.8c-1.2,2.5-2.1,5.2-3.3,7.8c-0.8,1.7-1.7,3.4-2.5,5.2
	c-0.6,1.1-1,2.3-1.3,3.5c-0.5,3.1,2.3,0,3.3-1c13.1-13.3,26.1-26.7,39.2-40.1c7.3-7.5,14.6-15.1,21.9-22.6c0.7-0.7,1.6-1.7,1.5-2.5
	c0-1.6,0.7-3,2-3.9c0.9-0.8,2.3-0.9,3.3-0.3c2.8,1.6,5.7,3.2,8.4,5.1c1.6,1.2,3,2.7,4,4.4c0.6,1,0.7,2.2,0.3,3.2
	c-2.3,4-2.4,8.5-3.7,12.8c-1.6,5.5-3.2,11-4.7,16.6c-2.8,10.6-5.6,21.2-8.4,31.8c-0.2,0.7-0.2,1.4,0.1,2.1c0.7-0.8,1.5-1.6,2.1-2.4
	c13.5-19.2,26.8-38.4,40.5-57.4c2.1-2.8,3.1-6.2,2.8-9.7c-0.1-3.2,0.1-6.4,0.8-9.5c1-4.5,1.3-5.1,5.4-7.7c3.3-2,8.2-0.1,9.6,0.1
	c1.2,0.1,2,1.1,2,2.3c-0.2,3.1-3.7,7.8-4.3,9.6c-0.4,0.8-0.7,0.8-1.5,1.9c1.2,0.3,2.5,0.6,3.7,0.7c9.2,0.3,18.4,0.5,27.6,0.7
	c1.1,0.1,2.3-0.2,3.2-0.9c3-2.7,6.9-4.2,11-4.2c1.8,0.1,2.8,0.6,3.3,1.9c0.7,1.6,0.3,3.4-1,4.6c-2.9,2.7-6,5.2-8.8,7.9
	c-1.7,1.6-2.9,3.7-4.4,5.4c-2.8,3.3-5.3,6.7-7.7,10.3c-7.1,10.4-13.8,21.3-17.1,33.6c-0.2,0.6,0.2,1.2,0.7,1.4
	c1.3,0.3,2.6,0.1,3.8-0.6c4.3-2,7.5-5.2,10.8-8.4c9.5-9.3,15.2-20.8,18.7-33.4c1-3.5,2.2-6.9,3.1-10.3c0.8-2.8,3-4.9,5.8-5.5
	c5.6-1.2,10.1-4.4,14.2-8.1c6.5-6,12.8-12.1,18.9-18.5c11.3-11.9,22.5-23.9,33.6-36c11.3-12.4,22.3-25.3,31.4-39.5
	c2.9-4.5,7.2-5.6,12-5.3c3.1,0.2,3.8,1.6,3,4.7c-1.9,7.5-4.8,14.8-8.5,21.7c-4,7.4-7.2,15.2-10.9,22.7s-7.7,15-11.4,22.5
	c-6.8,13.9-13.4,27.8-20.1,41.7c-8.3,17.1-15.4,34.7-22.2,52.5c-2.8,7.5-5,15.2-7.4,22.9c-1.6,5.2-2.9,10.5-4.7,15.6
	c-0.8,1.8-1.9,3.6-3.2,5.1c-0.5,0.7-1.5,0.9-2.3,0.3c-0.1-0.1-0.2-0.2-0.3-0.3c-0.5-0.5-0.8-1-1.1-1.6c-1.5-4.5-2.7-9.1-4.2-13.5
	c-0.8-2.2-0.8-4.6,0-6.8c1.9-5.8,3.4-11.8,5.8-17.4c8.1-19.2,16-38.5,24.9-57.3c9.9-21.4,20.9-42.3,31.5-63.5c0.7-1.5,2.3-3,0.3-5
	c-0.8,0.6-1.5,1.2-2.2,1.8c-6.2,6.3-12.4,12.5-18.5,18.9c-3.8,4-7.5,8-11.2,12.1c-7,7.8-13.9,15.6-20.8,23.4
	c-3.2,3.6-6.5,7.1-9.8,10.7c-0.4,0.5-6,5-6.4,8.6c-0.5,5.9-1.5,11.6-3.1,17.3c-2.1,7.6-5.1,14.8-8.9,21.6c-3.6,5.7-7.9,11-12.8,15.6
	c-6.4,5.8-13.5,10.8-22.4,12.4c-4.5,0.8-10-0.1-13.7-2.9c-4.9-3.7-6.9-11.8-7.1-17.4c-0.3-8.3,1.5-16.5,5.2-23.9
	c2.1-4.3,4.6-8.4,7.4-12.3c3.8-5.3,9.4-10.2,14.3-14.6c0.8-0.7,3.3-3.7,3.7-5.2c-3.1,0.6-6.2,0.9-9.3,1.7
	c-5.6,1.5-11.5,2.2-17.3,2.1c-1,0-2.1,0-3.1,0c-1.4-0.1-2.8,0.7-3.4,2c-6.1,12-14.2,22.7-21.5,33.9c-5.8,9.1-11.4,18.4-17.1,27.6
	c-4.6,7.5-9.1,15-13.8,22.5c-2.5,4.1-5.3,8.1-7.9,12.1c-0.4,0.5-0.9,0.9-1.5,1.1c-1.3,0.5-2.5,1-3.9,1.5c-1,0.4-2.1,0.2-3-0.4
	c-0.6-0.4-1.1-0.8-1.7-1.1c-1.2-0.8-4.5-6.4-7-10.9c-1.2-3.1-1.7-6.5-1.3-9.8c0.5-10.7,3.3-20.9,7-30.9c4.2-11.5,8.5-23,12.8-34.5
	c0.4-1,0.4-2,0.2-3c-0.9,0.9-1.8,1.7-2.6,2.6c-6.8,7.6-13.7,15.2-20.4,22.8c-2.9,3.3-5.6,6.9-8.4,10.4c-3.3,4-6.7,8-10.1,11.9
	s-7.2,8-10.8,12c-2.3,2.6-5.3,4.5-8.6,5.4c-1.4,0.4-9.6,2.4-11.7-1.2c-1.2-4.4-2.6-8.8-3.6-13.3c-0.6-2.5-0.6-5.1,0-7.5
	c1.8-5.6,4.1-11,6.5-16.4c3.1-7,10.7-21.9,11-23.3c-1.9,3.3-6.6,8.4-7.6,9.6c-10.8,12.3-16.3,19.9-26,26.8c-3.4,2.4-9,7.5-13.2,3.9
	c-1.3-1.3-2.2-3-2.5-4.8c-1.3-5.9-1-12,0.8-17.8c0.9-3,2.1-6,3.6-8.8c1-2.1,7.2-13.8,9.1-15.1c-1.1,0.7-2.2,1.5-3.2,2.3
	c-7.6,7-15.2,14-22.7,21.2c-2.4,2.3-4.2,5.1-6.4,7.5c-7.1,8-13.9,16.3-22,23.3c-2.9,2.5-5.5,5.3-8.4,7.8c-4.2,3.5-11.5,4.1-13.5-2
	c-3.7-11.4,2.9-19.8,8.1-29.3c4.3-7.9,9-15.6,14.1-23c2.2-3.2,3.9-6.7,5.3-10.3c-4.9,3.3-9.7,6.7-14.6,9.9
	c-5.8,3.8-11.7,7.4-17.4,11.1s-11.6,7.8-17.5,11.6c-13.9,9.3-26.7,18.3-41.7,25.8c-25.6,12.6-51.6,26.8-79.5,33.4
	c-12.1,2.8-24.6,2.5-36.9,3C42.5,214.2,41.7,213.7,40.5,213.2z"/>
<path class="st0" d="M676.5,65.6c3.9-0.2,6.9-0.3,10-0.5c4.6-0.4,9.2-1.1,13.7-1.2c2.6,0,5-1.4,6.1-3.8c3.5-6.1,7-12.2,10.7-18.1
	c3.5-5.6,5.8-8.9,9.6-14.4c0.5-0.8,3.2-4,5.4-4.4c2.7-0.5,3.7-0.5,6.4-0.8c4.7-0.5,6.3,0.5,2.5,7.2c-1.8,3.2-4,6.2-5.9,9.4
	c-3.8,6.4-7.6,12.9-11.3,19.4c-0.5,1-0.9,2.1-1.2,3.2c1.5,0,2.6,0.1,3.7,0c15.1-1,30.1-2.2,45.2-2.8c15.3-0.6,30.7-0.8,46-0.8
	c12.8,0,25.6,0.6,38.3,1.2c17.2,0.9,34.4,2.6,50.9,8.2c12.9,4.4,24.6,10.8,33.6,21.3c1.7,2.1,3.1,4.3,4.3,6.7c1.8,3.3,0.5,6.5-1,9.5
	c-0.3,0.6-1.7,0.9-2.6,1c-0.3,0-1.1-1.2-1-1.7c1.7-6.1-2.4-9.3-6.1-12.6c-6.8-6-15.2-8.9-23.7-11.3c-10.1-2.9-20.5-4-31-5.1
	c-15.7-1.6-31.4-2.2-47.1-2.6c-15.5-0.3-30.9-0.4-46.3,0.1c-12.9,0.4-25.8,1.7-38.6,2.6c-7.5,0.5-15,1.1-22.5,1.6
	c-0.6,0-1.3,0.2-1.9,0.2c-6.2,0-10,3-12,9c-2.2,6.5-5.1,12.8-7.6,19.2c-2.1,5.3-4.3,10.6-6.2,16c-3,8.4-6,16.8-8.9,25.3
	c-3.5,10-7,20-10.2,30c-2,6.4-3.3,13.1-5,19.7c-0.9,3.4-1.7,6.9-2.8,10.3c-0.3,0.9-1.2,1.6-2.1,2.7c-1.1,1.3-6.4-8.9-6.8-9.8
	c-3-6-4.7-10.7-3.6-17.6c1.9-11.7,6.1-22.7,10-33.8c3.3-9.4,6.6-18.8,9.9-28.2c0.2-0.8,0.3-1.7,0.4-2.6c-3.8,5.1-7,9.5-10.2,13.9
	c-8,11.1-16.4,21.8-24.5,32.8c-3.3,4.4-16.2,29.3-22.4,24c-2.2-1.7-4.1-3.9-5.5-6.3c-2-3.9-4.1-8.1-3.5-12.8
	c0.2-2.8,0.7-5.5,1.5-8.2c3.5-10,7.3-19.9,11.3-30.5c-0.6,0.4-1.1,0.9-1.5,1.4c-3.1,4.4-6.1,8.8-9.1,13.2
	c-3.9,5.6-7.6,11.6-11.9,16.9c-6.4,8.1-14.3,15-23.3,20.3c-2.1,1.3-4.6,1.7-6.9,1c-4-1.3-5-4.5-5.5-8.3c-0.6-3.4-0.5-7,0.4-10.4
	c1-3.6,2.8-6.9,4.1-10.4c2-4.9,4-9.8,6.1-14.7c2.5-6,5.6-11.8,8.4-17.7c1.2-2.6,2.2-5.4,3.5-8.5c2.1-0.5,4.8,1.5,6,3.1
	c1.2,1.4,2.2,2.4,2,4.3c-0.3,2.6-1.6,5-2.7,7.3c-3.3,7.2-5.7,12.4-8.7,19.7c-1.3,3.2-2.5,6.4-3.8,9.6c-0.6,1.6-1.3,3.2-1.9,4.8
	c-0.4,1-0.8,2-1,3c-0.1,0.3-0.1,0.6-0.1,0.9c0.1,1.1,4.1-1.8,4.8-2.2c5.5-3.8,9-6.5,13.3-11.6c14.7-17.1,28.6-34.8,41.6-53.2
	c3.3-4.7,6.2-9.7,9.3-14.5c0.4-0.8,0.8-1.7,1.1-2.6c-4.2-0.4-8-0.8-11.9-1c-14.3-1-22.8-14-22-24.9c0.1-1.4,0-2.8,1.7-3.6
	c1.5,0.7,1.5,2.3,1.7,3.6c0.7,5,3.8,7.8,8.5,8.6c6.6,1,13.2,1.6,19.8,2.3c2.5,0.3,5.1,0.1,7.7,0.2c1.4,0.1,2.7-0.6,3.3-1.9
	c4-6.5,7.6-13.4,12.2-19.6c9.4-12.5,7.7-15.6,20.2-16.7c4-0.3,6.3-0.4,3.1,6.2c-1.2,2.4-2,3.8-3.9,7c-2.8,4.9-5.8,9.2-8.4,14
	C679.2,58.8,678.1,61.8,676.5,65.6z M694.9,79.5c-8.1,1-15.5,1.9-23,2.7c-1.7,0.1-3.1,1.2-3.7,2.8c-4.9,10.2-9.9,20.4-14.8,30.6
	c-1.4,2.9-2.8,5.7-3.9,8.6c-1.5,3.8-2.8,7.6-4.2,11.5c-1.7,4.6-3.3,9.3-5.2,14.4C646,145.4,691.8,86.6,694.9,79.5z"/>
<path class="st0" d="M872.7,95c-1.5-2-21-4.3-24-4.6c-10.7-1.1-54.3-2.3-65-3c-5.3-0.4-10.7,0.4-16.1,0.4
	c-8.6,0.1-17.1,0.2-25.7,0.3c-2,0-4.1-0.1-5.7,1.5c0,2.1,1.2,3.3,2.6,4.8c3.8,1.9,7.9,3.8,11.3,6.3c0.9,0.5,1.6,1.1,2.3,1.9
	c4,5.5,1.6,13.6-0.1,19.5c-1.2,4.5-3,8.9-5.4,12.9c-4.6,7.6-9.3,15.1-16.1,20.8c-3.1,2.6-6.5,4.9-10.1,6.9c-2.3,1.1-4.8,1.8-7.3,2
	c-4.1,0.5-6.8-2.4-6.5-6.5c0.1-1.3,0.6-2.5,0.8-3.7c1.4-9.2,5.3-17.8,11.3-25c4.9-6.2,10.6-11.7,16.9-16.5c1.9-1.4,1.8-1.2,3.7-2.7
	c1.3-1,4-2.4,4.5-4.1c1.7-5.2-7.8-7.7-11-5.1c-4.4,3.6-3.5,2.9-7.7,6.4c-2.8,2.4-5.7,4.8-8.3,7.4c-9.2,9-15,20-19,32
	c-2.5,7.2-2.7,15-0.7,22.3c0.9,3.2,3.1,6,6.1,7.4c8.2,4.6,16.7,3.2,24.9,0.7c10.1-3,18.3-9.6,25.7-16.7c7.2-6.9,12.5-15.5,16.8-24.6
	c3.6-7.7,5.7-15.9,6.4-24.4c0.4-4.5,0.8-9.3-3.4-13.4c0.7-1.8,3.2-1.6,4.5-1.7c6.6-0.4,13.3-0.8,19.9-1c5.7-0.1,54.5,0.1,60.2,0.2
	c2,0,14.2,0.1,14.2,0.1C872.9,95.7,872.9,95.3,872.7,95z"/>
<path class="st0" d="M263.7,97.4c-5.2-0.7-7.2-5.5-5.4-12.3c1-3.9,3.8-7.1,7.5-8.6c5.9-2.8,9.8,4,9.5,9.4c-0.1,2.2-1.5,3.9-1.7,6
	c-0.2,3.1-2.4,4.6-5.3,5.2C266.8,97.5,265.2,97.6,263.7,97.4z"/>
<path class="st0" d="M600.2,97.8c-2.2-3.6-1.2-5.4-1.9-8.2c-1.4-5.7,1.9-11.5,7.6-13.1c1.9-0.5,3.9,0.1,5.2,1.6c1.9,2,3.3,4.4,4,7.1
	c0.7,3,0.4,5.5-1.8,7.8c-1.8,2-2.5,2.9-5,4.1C604.6,100.2,600.5,98.3,600.2,97.8z"/>
</svg>
