<svg width="728" height="92" viewBox="0 0 728 92" fill="none" xmlns="http://www.w3.org/2000/svg">
<path d="M636.158 38.9063C633.369 37.7212 631.042 39.6228 628.516 40.0902C624.709 40.7951 621.197 42.9689 617.05 42.0162C615.581 41.6772 613.1 44.7716 613.479 46.0826C614.069 48.1267 615.232 47.8699 616.871 46.6334C612.248 53.9882 607.909 61.054 600.597 66.1348C601.356 61.6587 602.793 57.3246 604.859 53.282C607.322 48.3206 609.692 43.1885 613.306 39.0732C616.758 35.1429 621.275 32.1499 625.311 28.728C631.354 23.8687 636.846 18.3612 641.688 12.3044C643.763 9.57072 643.282 7.56255 640.249 6.48014C637.828 5.61729 635.046 5.20384 632.867 6.22334C628.416 8.29957 624.718 11.6226 621.064 14.9237C612.432 22.6506 605.153 31.768 599.531 41.898C598.119 44.466 597.419 47.6837 595.447 49.6585C591.778 53.3333 587.413 56.3148 583.18 59.7136C583.493 58.6787 583.873 57.6653 584.317 56.6794C587.339 51.0388 590.461 45.4509 593.435 39.7807C593.774 39.0848 593.881 38.2982 593.74 37.5368C593.598 36.7755 593.216 36.0798 592.649 35.5525C592.194 35.0545 591.592 34.714 590.931 34.5801C590.27 34.4462 589.584 34.526 588.971 34.8078C583.844 37.1459 579.917 41.1507 575.659 44.6792C573.476 46.4896 571.457 48.5004 569.037 50.7217C569.974 48.7328 570.778 47.1714 571.449 45.5549C572.011 44.2041 572.496 42.5028 571.1 41.6232C570.45 41.1609 569.675 40.9064 568.877 40.8931C568.079 40.8798 567.296 41.1084 566.63 41.5488C563.107 43.8125 559.977 46.5808 556.58 49.1436C557.847 46.5333 559.148 44.0667 560.242 41.509C560.682 40.4818 561.728 39.366 561.43 38.2335C560.599 34.3147 553.853 35.8517 549.819 38.0653C549.892 37.163 549.81 36.255 549.576 35.3804C549.191 34.1645 547.401 33.977 546.344 33.9757C544.91 33.9921 543.501 34.3518 542.235 35.0248C534.889 38.8087 528.806 44.3068 522.911 49.9526C518.272 54.3952 514.027 59.2475 509.339 64.205C509.556 63.5412 509.627 63.2394 509.75 62.9621C513.884 53.9121 518.774 45.2267 524.368 36.9983C526.885 33.2053 528.902 29.0683 532.765 26.2833C538.713 22.1236 544.096 17.2103 548.78 11.6662C550.119 10.0394 551.144 7.25053 548.395 6.47371C547.05 6.25285 545.672 6.34066 544.367 6.73051C542.725 7.179 541.173 7.90605 539.777 8.87994C539.045 9.34079 538.34 9.84323 537.666 10.3848C537.244 10.7212 536.756 10.9883 536.356 11.3311C535.891 11.7279 535.479 12.2132 535.049 12.6472C530.814 16.7091 527.022 21.21 523.739 26.074C522.435 28.1207 521.284 30.5423 519.413 31.8905C515.262 34.9043 510.742 37.3726 505.963 39.235C505.234 39.5149 503.568 40.1415 503.503 39.0386C503.417 37.5658 502.703 37.9433 502.022 37.9651C500.503 38.1423 499.088 38.8257 498.005 39.9053C493.094 43.7936 488.904 48.5143 485.625 53.8521C480.285 56.5164 472.795 60.0422 468.878 61.4277C463.602 63.2959 458.401 65.3965 452.827 66.2709C450.516 66.633 448.682 66.4725 447.755 63.7607C447.056 61.7179 447.581 59.8843 447.836 57.9365C448.478 52.9636 450.78 48.6467 453.169 44.389C455.949 39.4328 460.103 35.5294 463.644 31.1497C465.211 29.1195 466.928 27.2099 468.781 25.4371C472.818 21.7182 477.232 18.4301 481.952 15.6261C485.769 13.3808 489.714 11.359 493.765 9.57073C496.567 8.42276 499.556 7.7995 502.583 7.73203C503.023 7.71063 503.457 7.83475 503.819 8.08514C503.947 8.18144 503.713 8.79518 503.593 9.1547C503.061 10.7392 502.111 8.9634 501.492 9.39483C499.157 11.0268 500.36 13.0003 501.158 14.794C501.654 15.9073 502.619 15.3526 503.46 14.97C506.87 13.4202 508.48 9.8211 506.515 7.74359C504.978 6.28829 503.367 4.91262 501.689 3.62195C500.65 2.85399 499.359 2.50848 498.075 2.65509C493.655 2.909 489.3 3.84586 485.167 5.43238C477.831 7.94271 471.018 11.7763 465.064 16.7432C458.774 21.5927 453.149 27.2479 448.333 33.5636C443.382 40.4253 439.831 47.9328 439.639 57.089C439.639 80.879 468.027 66.3788 472.999 63.8943C475.395 62.6988 479.915 59.9935 483.878 57.4049C483.724 57.853 483.708 58.061 483.808 57.9789C482.773 61.1735 484.214 62.9364 486.633 63.9777C488.425 64.7481 492.773 62.0697 494.838 59.7932C497.587 56.8753 500.094 53.7384 502.334 50.4135C503.623 48.474 504.719 46.4127 505.606 44.2593C505.991 43.3014 505.977 42.662 507.256 42.4489C510.19 41.9597 512.493 40.0285 514.908 38.5725C513.019 41.9224 511.056 45.2749 509.216 48.6981C506.235 54.2527 503.061 59.7405 501.85 66.045C501.539 67.2671 501.712 68.562 502.332 69.6598C502.953 70.7576 503.973 71.5735 505.181 71.9372C505.871 72.1644 506.616 72.1641 507.305 71.9364C507.995 71.7087 508.594 71.2657 509.013 70.6725C511.819 67.8091 514.439 64.7692 516.857 61.5715C520.242 56.8797 523.431 52.0802 527.753 48.1383C531.44 44.7054 535.369 41.5408 539.509 38.6688C536.473 41.4785 533.695 44.5544 531.208 47.8596C527.327 53.1613 526.216 57.3369 529.746 62.9004C529.899 63.2515 530.123 63.5676 530.403 63.8293C530.683 64.091 531.013 64.2928 531.374 64.4224C531.734 64.552 532.118 64.6066 532.5 64.5829C532.883 64.5592 533.256 64.4577 533.598 64.2846C537.199 62.7281 540.26 60.1443 542.399 56.8566C543.613 55.1257 544.705 53.3116 545.665 51.4279C546.136 50.479 546.508 49.5019 546.903 48.5248C547.867 46.2084 548.65 43.8212 549.247 41.3844C551.396 39.104 556.695 36.6619 557.101 38.8922C557.258 39.7409 556.33 40.9748 556.221 41.2226C554.336 45.786 550.908 49.5019 549.125 54.1217C548.174 56.5921 546.452 58.9175 547.841 61.8052C548.301 62.7592 548.94 62.8645 549.499 62.1596C552.956 57.4708 556.866 53.1343 561.174 49.213L562.764 47.7223L565.433 45.2159C565.681 44.9835 566.732 43.8163 567.082 44.1386C567.104 44.1745 567.119 44.2145 567.125 44.2562C567.131 44.298 567.129 44.3405 567.118 44.3813C567.104 44.429 567.084 44.4748 567.058 44.5174C566.131 46.2675 565.165 48.0009 564.233 49.7497C563.248 51.5974 562.299 53.4733 561.491 55.3993C560.89 56.7865 560.412 58.2242 560.065 59.6956C559.877 60.5113 559.985 61.3673 560.369 62.1108C560.754 62.8542 561.391 63.4368 562.165 63.7543C563.493 64.3218 563.661 62.8555 564.187 62.1981C569.915 54.9807 575.556 47.6889 582.806 41.8621C584.799 40.2588 586.797 38.6606 588.8 37.0676C588.836 37.2852 588.827 37.5077 588.776 37.7221C588.725 37.9365 588.632 38.1387 588.502 38.3169C584.183 45.3237 578.872 51.6706 575.037 59.0112C573.225 62.478 573.184 64.9086 575.466 67.5729C576.601 68.8967 579.026 69.5901 579.668 68.7285C581.314 66.6756 583.096 64.7342 584.999 62.9171C587.802 60.0538 590.797 57.3767 593.931 54.4119C593.712 55.8372 593.513 56.8849 593.393 57.9429C592.952 61.8347 593.205 65.5802 599.408 68.699C602.336 70.1705 604.786 68.4627 607.033 66.6664C611.952 62.7348 614.157 57.0236 616.935 51.6693C618.219 49.1886 618.668 46.0197 621.669 44.778C625.064 43.3798 628.543 42.1843 632.208 40.8169C629.952 44.719 627.726 48.2718 625.804 51.98C624.866 53.441 624.144 55.0293 623.658 56.6961C623.486 57.5378 623.557 58.4111 623.862 59.2141C624.178 60.1624 624.814 60.9717 625.66 61.5034C625.846 61.5946 626.048 61.6462 626.255 61.655C626.598 61.6893 626.945 61.6455 627.269 61.5266C627.692 61.3365 627.793 60.8846 627.952 60.4904C628.38 59.4144 628.823 58.3444 629.28 57.2804C630.188 55.1523 631.148 53.0483 632.162 50.9682C633.471 48.2804 634.867 45.6388 636.35 43.0434C637.021 41.8736 639.064 40.1402 636.158 38.9063ZM614.925 30.3459C616.914 26.5076 619.404 22.9507 622.329 19.7683C625.597 16.2398 636.521 6.85377 638.418 9.51679C639.284 10.7327 637.867 11.6893 637.184 12.5188C631.588 19.306 618.923 29.745 612.401 35.5743C611.291 36.5617 614.691 30.8132 614.925 30.3459ZM531.874 23.6151C532.873 21.3565 534.169 19.2408 535.726 17.3235C537.241 15.3964 538.928 13.6112 540.767 11.9898C541.539 11.3036 542.349 10.6606 543.192 10.0638C543.548 9.81469 543.912 9.57885 544.284 9.35629C544.355 9.31529 544.43 9.28256 544.508 9.25872C544.865 9.14701 545.369 9.15214 545.565 9.47956C545.877 10.0034 545.219 10.6352 544.93 11.0127C543.679 12.6246 542.338 14.1648 540.914 15.6261C539.298 17.3261 537.634 18.9773 535.92 20.5798C535.138 21.3125 534.347 22.0349 533.545 22.7471C533.191 23.0604 532.834 23.3703 532.474 23.6768C532.31 23.8167 532.146 23.9567 531.979 24.0941C531.881 24.1762 531.574 24.3509 531.532 24.4613C531.641 24.1788 531.755 23.8968 531.874 23.6151ZM504.002 42.0829C501.561 46.6658 498.301 50.7637 494.386 54.1744C492.49 56.1042 490.384 57.815 488.106 59.2744C489.776 53.4964 493.419 49.2977 496.851 44.9411C498.343 42.8847 500.306 41.2152 502.576 40.0722C502.704 40.0431 502.837 40.0331 502.968 40.0426C502.997 40.8734 504.63 40.7899 504.002 42.0829ZM546.749 40.9183C546.687 41.0955 546.62 41.2714 546.56 41.4473C545.902 43.2789 545.137 45.0702 544.269 46.8119C543.414 48.5238 542.439 50.1724 541.349 51.745C540.257 53.3201 539.038 54.8029 537.703 56.1787C537.024 56.8772 536.316 57.5462 535.577 58.1856C535.203 58.5092 534.821 58.8276 534.433 59.1319C534.092 59.4015 533.629 59.8111 533.186 59.4645C533.063 59.3421 532.975 59.1897 532.93 59.0225C532.885 58.8552 532.885 58.6791 532.929 58.5117C532.962 58.1496 532.974 57.7888 533.022 57.428C533.113 56.749 533.25 56.0768 533.431 55.416C533.697 54.4405 534.031 53.4846 534.429 52.5552C534.965 51.305 535.586 50.0926 536.287 48.9267C537.19 47.4257 538.189 45.9843 539.276 44.6111C540.642 42.8856 542.108 41.2418 543.667 39.6883C544.725 38.6264 546.389 38.1218 546.908 38.9179C547.323 39.565 546.975 40.2751 546.749 40.9183ZM727.987 53.5336C727.38 49.656 724.649 47.8481 721.222 47.0238C712.461 44.9129 703.947 46.5975 695.686 49.4223L694.932 49.6791C693.466 50.1875 692.006 50.714 690.553 51.2584C689.192 51.772 687.838 52.2984 686.492 52.8377C685.236 53.3453 683.986 53.8666 682.742 54.4016C681.587 54.8998 680.439 55.4113 679.298 55.936C678.243 56.4197 677.194 56.9153 676.151 57.4229C675.195 57.8886 674.243 58.3641 673.295 58.8494C672.433 59.2894 671.577 59.7388 670.727 60.1976C669.957 60.6094 669.192 61.0279 668.432 61.4534C667.754 61.8309 667.079 62.2131 666.407 62.6C665.818 62.9424 665.231 63.2848 664.644 63.6272L663.138 64.5119C662.72 64.7575 662.301 65.0006 661.881 65.2412C661.702 65.3426 661.524 65.444 661.344 65.5429C661.23 65.6204 661.111 65.6891 660.987 65.7484C660.888 65.7849 660.783 65.8013 660.678 65.7964C660.573 65.7916 660.47 65.7656 660.375 65.7201C660.322 65.6771 660.286 65.6172 660.273 65.5506C660.266 65.2415 660.327 64.9346 660.452 64.6518C660.556 64.291 660.666 63.9315 660.78 63.5733C661.01 62.8581 661.259 62.1506 661.523 61.4469C662.049 60.0448 662.635 58.6645 663.246 57.2958C663.857 55.927 664.493 54.5698 665.122 53.2088C665.751 51.8477 666.365 50.497 666.943 49.1218C667.919 46.8016 669.225 44.7562 668.751 41.9147C668.463 40.2399 667.669 38.6936 666.475 37.4843C665.281 36.275 663.745 35.4609 662.073 35.1519C660.04 34.7631 657.945 34.839 655.946 35.374C653.939 35.8365 652.035 36.6672 650.33 37.8239C642.899 42.7349 637.165 49.8198 633.912 58.1111C632.801 60.8897 633.429 65.227 635.187 66.0244C636.311 66.6627 637.603 66.9438 638.891 66.8306C640.18 66.7173 641.403 66.2149 642.398 65.3901C645.194 63.2831 658.504 49.5622 661.788 45.9324C660.457 49.0538 659.291 51.5126 658.346 54.055C656.601 58.7506 653.496 63.1405 655.007 68.6142C655.462 70.2578 658.08 71.9437 659.63 71.2259C661.257 70.4591 662.823 69.5679 664.314 68.5603C668.047 66.0629 671.684 63.4243 675.66 61.3031C681.165 58.3653 692.811 51.9068 706.836 48.9164C710.457 48.0816 714.223 48.1076 717.832 48.9922C721.442 49.8768 724.793 51.5954 727.618 54.01C727.705 54.0806 727.864 54.0652 727.99 54.0896C728.004 53.9045 728.003 53.7186 727.987 53.5336ZM650.398 52.8223C648.85 54.0716 647.245 55.2478 645.623 56.3983C644.661 57.0801 643.697 57.7516 642.726 58.4257C642.341 58.6915 641.98 58.9881 641.586 59.2308C641.366 59.3592 640.985 59.5723 640.765 59.3682C640.737 59.3417 640.712 59.3109 640.693 59.277C640.54 59.0099 640.703 58.6838 640.833 58.4437C640.985 58.1663 641.143 57.8915 641.295 57.6155C641.706 56.8682 642.124 56.1248 642.549 55.3852C643.541 53.6646 644.588 51.971 645.741 50.3519C646.863 48.7571 648.115 47.2574 649.484 45.8682C650.839 44.5942 652.267 43.3998 653.76 42.2909C654.145 41.9866 654.531 41.6746 654.926 41.3831C655.724 40.7819 656.555 40.2246 657.413 39.7139C658.67 38.8637 660.046 38.2042 661.496 37.7571C662.633 37.5003 664.064 37.2011 664.609 38.5596C664.849 38.9435 664.941 39.4007 664.87 39.8474C664.8 40.2941 664.57 40.7003 664.224 40.9915C659.618 44.9385 655.117 49.0165 650.404 52.8223H650.398ZM642.659 29.0555C642.837 29.2432 642.972 29.4677 643.054 29.7131C643.136 29.9586 643.163 30.2191 643.134 30.4762C643.104 30.7334 643.018 30.9808 642.883 31.2012C642.747 31.4216 642.565 31.6096 642.348 31.7518C641.176 32.7178 639.855 33.4894 638.438 34.0374C637.971 34.2037 637.477 34.2821 636.981 34.2685C636.634 34.2639 636.297 34.1597 636.008 33.9685C635.719 33.7773 635.491 33.507 635.351 33.1899C634.753 31.938 636.009 30.7863 636.892 30.0634C637.921 29.2789 639.083 28.6869 640.322 28.3159C640.737 28.1456 641.198 28.1263 641.625 28.2615C642.052 28.3967 642.418 28.6777 642.659 29.0555ZM423.959 45.4804C423.599 45.5126 423.251 45.6287 422.943 45.8194C421.894 46.4614 420.889 47.1894 419.844 47.8352C412.306 52.4666 404.53 56.6011 395.877 58.7685C394.408 59.1357 392.709 59.1537 392.211 57.1494C391.84 55.6574 390.942 53.9394 392.966 52.8724C397.151 50.8082 400.809 47.8152 403.66 44.1219C404.866 42.4874 406.742 40.7424 405.358 38.4633C404.744 37.3929 403.813 36.5396 402.693 36.0214C401.573 35.5031 400.32 35.3456 399.107 35.5705C396.693 35.8761 395.126 37.4297 393.413 38.8883C389.109 42.2667 385.099 46.0037 381.426 50.0591C378.762 53.2435 375.925 56.2853 372.979 59.598C373.849 52.9404 379.689 40.7733 383.832 36.0764C388.919 30.3086 393.89 24.4395 398.746 18.4688C401.261 15.3872 403.785 12.1528 404.253 8.05559C404.405 6.73051 405.53 3.9956 402.305 4.1561C401.041 4.21007 399.817 4.62242 398.778 5.34508C391.287 11.0306 386.153 18.682 381.09 26.4476C379.795 28.4327 379.109 30.4178 378.321 31.6671C378.248 31.7878 378.142 31.8855 378.016 31.9493C377.89 32.013 377.749 32.0403 377.608 32.0279C374.574 32.0962 371.589 32.8055 368.848 34.1093C361.426 37.9097 355.081 43.5177 350.397 50.4161C347.811 54.236 345.288 58.1291 347.341 63.1675C348.565 66.1682 350.215 67.2057 353.27 66.095C357.445 64.5761 359.809 60.7767 362.976 57.993C365.652 55.6394 368.177 53.1138 370.48 50.931C369.569 53.5067 368.531 56.5356 367.424 59.5338C366.159 62.9634 366.032 66.2581 368.371 69.3217C368.477 69.4875 368.617 69.6292 368.781 69.7378C368.945 69.8464 369.13 69.9194 369.325 69.9522C369.519 69.9849 369.718 69.9767 369.909 69.9281C370.099 69.8794 370.278 69.7914 370.433 69.6697C374.521 67.4959 376.377 63.3344 379.02 59.928C381.973 56.1183 384.937 52.3395 388.394 48.6377C388.295 49.0846 388.256 49.2926 388.205 49.4967C387.647 51.3084 387.488 53.2194 387.739 55.0983C387.99 56.9772 388.644 58.7795 389.658 60.3812C391.584 63.3678 395.308 64.1755 400.411 62.1544C407.218 59.4991 413.567 55.7963 419.23 51.1801C420.873 49.8293 422.084 48.1087 423.677 46.7413C423.866 46.5991 423.999 46.394 424.05 46.1629C424.102 45.9318 424.07 45.6898 423.959 45.4804ZM397.326 40.0696C398.688 38.9561 400.433 38.4209 402.186 38.5789C402.271 38.5869 402.353 38.6179 402.422 38.6687C402.491 38.7195 402.545 38.7881 402.579 38.8671C402.612 38.9462 402.623 39.0329 402.611 39.1178C402.599 39.2027 402.564 39.2827 402.51 39.3493C400.277 43.3181 395.655 46.9467 392.401 50.0065C392.058 46.8414 393.814 43.3053 397.326 40.0696ZM395.519 13.3084C396.96 11.7445 398.317 10.0984 399.695 8.48188C400.255 7.82319 400.956 7.11442 401.766 7.57153C402.537 8.00937 402.174 8.92358 401.874 9.65033C399.423 15.5567 394.844 19.8581 390.623 24.4022C388.266 26.9381 385.646 29.2275 383.541 31.2472C386.634 24.7137 390.67 18.6697 395.519 13.3084ZM370.927 44.1245C370.086 44.8846 369.218 45.6126 368.359 46.3548C367.788 46.8504 367.221 47.3525 366.673 47.8738C362.238 52.0904 358.093 56.6384 352.787 60.2169C352.972 58.7634 354.469 55.954 356.201 53.0483C358.499 49.576 361.216 46.4003 364.291 43.5929C365.384 42.6183 366.529 41.699 367.704 40.8259C368.879 39.9528 370.089 39.122 371.314 38.3169C372.539 37.5119 373.783 36.7338 375.031 35.9621C375.232 35.8337 376.144 35.1005 376.296 35.6578C376.315 35.948 376.264 36.2386 376.148 36.5052C376.071 36.7971 375.986 37.0856 375.892 37.3706C375.701 37.919 375.471 38.4528 375.203 38.9679C374.678 39.9615 374.039 40.8909 373.3 41.7375C372.56 42.5829 371.767 43.3809 370.927 44.127V44.1245ZM258.933 37.1819C258.348 36.5812 257.58 36.191 256.749 36.0718C255.919 35.9527 255.072 36.1114 254.341 36.5232C251.964 37.9086 249.508 39.1682 247.207 40.6667C244.563 42.3885 242.051 44.3132 239.086 46.4318C240.432 44.4326 241.761 42.4399 243.059 40.4099C243.918 39.0681 248.73 32.0125 247.462 30.5719C247.077 30.1611 246.589 29.861 246.049 29.703C245.508 29.5449 244.935 29.5346 244.39 29.6731C241.49 30.2573 239.374 32.2321 237.185 33.9398C229.281 40.103 225.756 44.1348 218.762 51.2507C217.531 52.5026 216.215 53.6698 214.56 55.2311C215.617 52.6079 216.525 50.5073 217.313 48.363C218.541 45.0246 219.524 41.6001 221.526 38.6046C222.316 37.4233 222.08 36.5425 220.604 36.1945C220.038 36.0661 219.748 35.8478 219.752 35.1532C219.767 32.6237 216.305 30.057 213.947 30.7452C209.088 32.1653 205.059 35.035 201.117 38.0512C200.593 38.4518 200.536 38.5648 200.182 37.8239C200.007 37.3702 199.725 36.9656 199.359 36.6447C198.994 36.3238 198.556 36.0962 198.084 35.9813C193.995 35.0826 191.096 37.4438 188.118 39.5047C184.523 42.2236 181.162 45.2391 178.071 48.5196C178.646 47.4757 178.953 46.8414 179.329 46.2521C181.868 42.2614 183.417 37.6698 186.678 34.1196C186.837 33.981 186.966 33.8112 187.057 33.6208C187.148 33.4304 187.198 33.2234 187.206 33.0127C187.213 32.8019 187.177 32.5918 187.1 32.3955C187.023 32.1992 186.907 32.0207 186.758 31.8713C186.21 31.3873 185.528 31.0822 184.802 30.9969C183.681 30.8325 182.398 29.8246 181.493 31.5349C179.987 34.1218 178.123 36.4836 175.957 38.5506C170.925 43.7688 164.996 47.9752 159.413 52.5681C155.209 56.0285 150.887 59.3733 145.613 61.1221C145.041 61.3108 143.806 61.9015 143.724 60.7074C143.52 57.7709 146.536 53.3064 149.144 52.1264C154.187 50.0717 158.854 47.1946 162.955 43.6122C165.394 41.3202 165.929 38.9705 163.924 38.0524C161.323 36.8609 158.679 35.523 155.834 36.744C153.108 37.9848 150.611 39.6779 148.449 41.7517C147.339 42.7863 146.293 43.8874 145.316 45.049C143.979 46.575 142.835 48.2599 141.91 50.0656C141.16 51.582 140.295 53.065 138.527 53.4861C135.1 54.3002 131.806 55.6689 128.453 56.8002C130.696 54.9024 132.907 53.1228 135.04 51.2134C143.25 43.8638 142.186 35.2623 133.595 29.9247C124.718 24.4035 114.657 23.8296 104.549 26.7455C103.276 27.1127 101.925 27.6443 102.571 29.6332C103.085 31.1997 104.555 32.2013 105.458 31.5592C107.125 30.4865 109.103 30.0008 111.077 30.179C113.408 30.179 115.737 30.179 118.042 30.179C115.363 34.5035 112.843 38.7663 110.105 42.8906C110.036 42.9933 109.948 43.1281 109.848 43.286C106.893 43.7781 104.01 44.636 101.267 45.8399C95.3161 48.3784 85.9858 54.53 85.797 53.7738C84.5232 48.7007 83.9299 45.7642 85.1691 39.3762C85.619 37.528 86.5239 35.8217 87.8015 34.4123C89.2352 32.8729 91.1649 31.887 93.2525 31.6273C94.3574 31.5653 95.4657 31.6391 96.5526 31.8469C96.6028 31.8553 96.6534 31.8604 96.7042 31.8623C96.803 31.8623 97.6749 31.8815 97.7687 31.1073C97.8457 30.4743 97.2075 30.1866 96.821 30.0724L96.5642 29.9953C94.513 29.2904 92.3822 28.8428 90.2207 28.6625H89.9999C88.4208 28.5562 86.8365 28.7726 85.3438 29.2987C83.8511 29.8248 82.4813 30.6495 81.3179 31.7225C80.1545 32.7954 79.2219 34.0942 78.577 35.5395C77.9322 36.9847 77.5886 38.5462 77.5672 40.1287C77.464 45.4509 78.1888 50.7568 79.7155 55.8564C79.7245 55.8872 79.7361 55.918 79.7476 55.9476C79.8843 56.2309 79.905 56.5564 79.8052 56.8548C79.7055 57.1531 79.4931 57.4008 79.2135 57.5449C78.3916 58.0456 77.5544 58.5207 76.712 58.9868C75.3547 59.7379 73.9846 60.4634 72.6389 61.2351C71.1108 62.1095 69.6315 63.0648 68.0932 63.9225C66.1876 64.9844 64.3693 66.2042 62.5715 67.4266C61.7073 68.0121 60.8367 68.5899 59.97 69.1728C59.1739 69.616 58.5046 70.2556 58.0258 71.0307C57.7443 71.4777 57.5803 71.9886 57.5491 72.5159C57.5179 73.0432 57.6205 73.5698 57.8473 74.0469C57.8983 74.12 57.9564 74.188 58.0207 74.2497C58.6319 74.8404 59.7041 74.7633 60.4887 74.8121C61.6444 74.8827 62.8001 74.9752 63.9686 74.9842C64.8675 74.9842 65.7664 74.9649 66.6652 74.8866C67.645 74.8006 68.6196 74.6491 69.5904 74.4937C71.3796 74.2086 73.1572 73.8602 74.9233 73.4485C75.9833 73.2246 77.0298 72.9408 78.0578 72.5985C81.268 71.4429 85.3014 70.0228 86.4506 66.4353C86.9781 64.3756 87.1269 62.2373 86.8898 60.1244L86.8795 59.9023C86.8342 59.6278 86.8064 59.3508 86.7961 59.0728C86.877 57.939 86.4006 57.1468 87.8105 56.1106C89.3309 54.9923 102.589 46.9763 108.183 45.8669C107.06 47.635 105.891 49.4929 105.819 49.6174C100.35 58.9367 94.6226 68.125 89.9845 77.8886C88.2689 81.5005 85.2333 85.2267 87.9851 89.772C88.4692 90.572 89.1408 91.3244 89.8715 91.2139C90.3511 91.1907 90.8149 91.0353 91.2117 90.765C91.6085 90.4947 91.9228 90.1199 92.1199 89.6821C95.2788 80.4283 100.576 72.2814 105.498 63.9508C109.937 56.4342 114.714 49.1128 118.99 41.5064C120.852 38.1937 124.768 34.6216 119.823 30.3715C124.574 31.1034 129.314 31.2768 133.178 34.411C133.974 34.9378 134.602 35.6832 134.985 36.5577C135.369 37.4322 135.492 38.3988 135.34 39.3416C134.855 42.0053 133.546 44.4499 131.6 46.3317C126.711 51.2109 120.861 54.8061 115.198 58.6581C113.612 59.7354 112.334 61.375 110.361 61.7333C109.514 61.8861 109.462 62.4202 109.675 62.7451C109.907 63.1777 110.249 63.5416 110.667 63.8003C111.084 64.059 111.562 64.2035 112.053 64.2191C115.194 63.8423 118.287 63.1444 121.286 62.1365C127.288 60.1257 133.302 58.156 139.465 56.1119C139.382 56.6679 139.345 57.0107 139.277 57.3561C138.404 61.7397 141.577 66.642 145.088 66.2157C148.87 65.6729 152.407 64.023 155.253 61.4739C159.462 57.9095 163.507 54.1551 167.86 50.262C167.59 50.8026 167.475 51.0709 167.328 51.3226C165.361 54.7894 163.444 58.2562 162.858 62.2957C162.881 63.7674 163.351 65.1972 164.208 66.3942C164.482 66.9656 164.914 67.4461 165.453 67.7784C165.893 67.9813 166.372 68.0825 166.855 68.0743C167.339 68.066 167.815 67.9487 168.246 67.7309C169.242 66.8973 170.081 65.8924 170.722 64.7635C172.668 62.1467 174.318 59.2937 176.407 56.8027C179.32 53.3359 181.672 49.8267 184.973 46.7349C188.226 43.6931 191.974 38.5917 196.892 39.6485C197.672 39.8964 198.515 39.8507 199.264 39.5201C197.124 41.7581 194.622 43.5159 192.922 46.0402C190.505 49.6277 188.479 53.2537 190.464 57.7991C191.503 60.1771 193.316 61.447 194.898 60.4698C196.443 59.544 197.904 58.484 199.264 57.3022C202.337 54.5467 205.299 51.668 208.645 48.5222C208.088 49.5727 207.611 50.6638 207.218 51.7861C206.387 55.0886 203.905 58.3615 206.832 61.8013C207.338 62.4253 207.755 63.1168 208.07 63.8557C208.345 64.3279 208.748 64.7122 209.233 64.9637C209.717 65.2152 210.264 65.3235 210.808 65.2758C212.101 64.7265 213.233 63.8563 214.096 62.7476C218.077 58.2164 231.852 40.5717 237.454 35.9724C238.481 35.1313 239.482 34.2582 240.536 33.4544C241.47 32.6803 242.519 32.0549 243.644 31.6003C243.836 31.5323 244.486 31.2639 244.591 31.5644C244.611 31.6633 244.606 31.7655 244.577 31.8622C244.548 31.9588 244.496 32.047 244.426 32.1191C244.178 32.3859 243.95 32.6694 243.742 32.9678C243.276 33.5713 242.815 34.1773 242.349 34.7808C241.653 35.6796 240.947 36.5784 240.205 37.4515C237.885 40.0653 235.718 42.8103 233.714 45.673C231.776 48.3437 229.137 51.4215 230.503 54.9602C230.676 55.4018 230.891 55.8258 231.145 56.2262C231.421 56.6666 231.563 56.8502 232.071 56.9517C232.467 57.0514 232.882 57.0437 233.273 56.9292C233.665 56.8148 234.018 56.5978 234.298 56.3007C234.964 55.4702 235.688 54.688 236.464 53.9599C239.754 51.0825 243.081 48.2448 246.48 45.5035C248.799 43.6353 251.269 41.9558 254.239 39.7756C250.822 44.7832 247.631 49.0679 244.88 53.6235C243.238 56.3431 239.704 63.5283 241.054 67.0811C241.515 68.2031 242.154 69.2436 242.946 70.1628C243.588 70.9332 244.221 71.4557 244.793 69.7994C245.779 66.9425 248.496 59.8689 249.837 57.1545C252.58 51.6025 255.503 46.1391 258.226 40.5768C258.736 39.5496 259.986 38.1359 258.933 37.1845V37.1819ZM157.181 39.9605C158.218 39.2106 159.454 39.7563 160.547 40.2006C160.963 40.3688 160.616 40.6243 160.49 40.7758C157.674 44.1348 153.834 45.9876 149.976 47.8507C152.401 45.2172 154.255 42.0765 157.181 39.9605ZM81.2038 62.7862C81.0789 63.3615 80.879 63.9179 80.6093 64.4412C79.8543 65.618 78.8187 66.5888 77.5955 67.2661C74.4786 69.2373 71.0107 70.5887 67.3818 71.2464C66.8193 71.353 65.1924 71.5032 65.4903 70.6044C65.9962 69.0636 67.9686 67.9517 69.1513 66.9887C70.28 66.0706 71.4049 65.1423 72.5785 64.2795C73.9088 63.3023 75.383 62.5345 76.6876 61.524C77.0498 61.2441 77.3823 60.9295 77.7573 60.6676C78.3215 60.1982 78.9492 59.8109 79.6218 59.5171C79.8516 59.4034 80.1146 59.3757 80.3631 59.439C80.6116 59.5024 80.8292 59.6526 80.9765 59.8625C81.1042 60.0595 81.1887 60.2814 81.2244 60.5135C81.2924 60.968 81.286 61.4328 81.3194 61.8925C81.3286 62.1946 81.2896 62.4963 81.2038 62.7862ZM196.901 52.292C196.196 52.7601 195.468 53.1913 194.718 53.5837C197.523 47.977 201.428 42.9923 206.201 38.9269C208.756 36.7085 211.685 34.962 214.851 33.769C215.443 33.5559 216.577 32.919 216.821 33.7395C217.162 34.8848 217.409 36.5874 216.308 37.3257C209.515 41.9006 203.379 47.3191 196.904 52.292H196.901ZM62.9991 60.2734C58.4496 62.1416 53.9963 64.3591 49.6908 66.5046C48.3664 67.1646 47.0395 67.8216 45.71 68.4756C41.7024 70.4388 37.678 72.3751 33.7949 74.5784C32.9705 75.0471 32.1487 75.5247 31.3423 76.0242C30.5359 76.5237 29.7705 77.0411 28.9834 77.5483C27.0299 78.8476 24.8532 79.7748 22.5629 80.2833C21.3497 80.6099 20.0947 80.7548 18.839 80.7134C18.1053 80.6583 17.3916 80.4487 16.7446 80.0983C15.2044 79.0902 13.8964 77.7657 12.9078 76.213C11.2474 73.9891 11.2153 72.1529 12.7909 69.4334C14.1315 67.1222 15.3231 64.6826 16.475 62.3226C17.1658 60.9102 17.8798 59.449 18.6169 58.0366C21.4419 52.6169 24.819 46.202 28.4813 39.7204C31.0405 35.1917 33.8745 30.7221 36.6161 26.4014C38.7631 23.0168 40.982 19.5179 43.061 16.001C43.5977 15.0919 44.1717 14.2201 44.8356 13.2083C45.1592 12.7152 45.5007 12.1978 45.8629 11.6392L46.8901 10.0355L45.0295 10.4567L42.0157 11.1321C39.9611 11.5892 38.0247 12.0219 36.0909 12.4854C27.969 14.2521 20.3388 17.7942 13.7476 22.8576C9.61186 26.1137 6.40524 30.4001 4.44939 35.2867C4.24291 35.7874 4.18279 36.3364 4.27604 36.8699C4.32484 37.0907 4.67925 37.5697 4.46224 37.7687C4.32227 37.8971 4.09755 37.7828 3.96144 37.7083C3.60331 37.4753 3.27363 37.2012 2.9791 36.8917C2.29367 36.2311 1.66523 35.5138 1.10047 34.7474C0.90143 34.4906 0.702395 34.2338 0.500792 33.9886C-0.851364 32.3194 0.946374 28.2722 1.09661 27.8844C2.99853 23.3111 6.33644 19.4804 10.6066 16.9704C20.177 10.8689 31.5375 6.92184 45.3428 4.90082C46.912 4.67099 48.4786 4.4283 50.0452 4.18562C55.744 3.30095 73.6726 0.958925 79.5294 0.768893C83.3816 0.640492 87.302 0.59299 91.0939 0.545482C91.3508 0.545482 91.7065 0.438908 91.9389 0.566024C92.3369 0.78302 91.9543 1.09632 91.7167 1.27608C90.8859 1.8311 89.9852 2.27365 89.0381 2.59218C87.1079 3.31445 85.1069 3.8309 83.0683 4.13298C81.6237 4.36924 80.1701 4.54644 78.7178 4.72363C77.4825 4.87514 64.1677 6.45831 62.9144 6.64963C61.6692 6.86136 60.4357 7.13692 59.2188 7.47523L58.3867 7.68967C58.154 7.73843 57.9372 7.8447 57.7562 7.9988C57.5752 8.15289 57.4357 8.34988 57.3504 8.57177C57.281 8.79213 57.2682 9.02638 57.3131 9.253C57.358 9.47961 57.4591 9.69131 57.6072 9.86861C58.7449 11.367 58.5664 12.7075 57.7703 14.9712C56.6439 17.7758 55.1114 20.3997 53.222 22.7587C52.7084 23.4777 52.1832 24.1981 51.6811 24.93C49.805 27.6649 47.9059 30.315 45.895 33.1193C45.3056 33.9424 44.598 34.6794 43.9932 35.4896C46.4561 34.6717 48.8304 33.8781 51.2535 33.3068C53.552 32.7623 55.8557 32.2381 58.1645 31.7339C60.4733 31.2297 62.7847 30.7315 65.0986 30.2393C67.41 29.7471 69.7214 29.2562 72.0328 28.7665C72.5464 28.6587 73.0498 28.538 73.5609 28.4468H73.593C73.7509 28.4186 74.3095 28.2594 74.4019 28.461C74.5303 28.7473 74.0244 28.9836 73.8459 29.103C73.4196 29.379 72.9702 29.6268 72.5284 29.8734C71.5474 30.4289 70.5526 30.96 69.5442 31.4668C67.5307 32.4824 65.4775 33.4146 63.4152 34.3276C62.3532 34.7988 61.2887 35.2636 60.2255 35.7335C53.5854 38.6623 46.4124 40.0105 39.7159 42.7609C39.6101 42.8053 39.4992 42.8368 39.3859 42.8546C37.452 45.8078 35.7108 48.9266 33.9926 52.0198C33.0655 53.689 32.1063 55.4224 31.1214 57.0916C30.3355 58.4231 24.9436 68.4114 24.6727 69.1676C24.5443 69.5105 24.4158 69.8726 24.2605 70.2488L23.4618 72.1401L25.3134 71.2554C26.2611 70.8022 27.1844 70.3476 28.0948 69.8982C30.0672 68.9262 31.9291 68.0082 33.8565 67.2018C34.8093 66.8047 35.7617 66.4066 36.7136 66.0077C42.2104 63.5981 47.8281 61.4745 53.5443 59.6455C59.6879 57.8707 65.9824 56.6672 72.3474 56.0503H72.3782C72.2281 56.1791 72.0587 56.2836 71.8761 56.3597L70.2607 57.0929C67.8903 58.1586 65.4402 59.2719 62.9991 60.2734ZM331.965 49.5109C328.1 50.3958 324.37 51.7891 320.872 53.6543C319.043 54.6482 317.276 55.7473 315.517 56.8643C314.456 57.5372 313.401 58.219 312.343 58.8982L310.564 60.041L309.579 60.6701C309.389 60.7921 308.809 61.0271 308.711 61.2223C309.528 59.5762 309.952 58.798 310.31 57.9904C312.219 53.2839 314.481 48.7282 317.076 44.362C319.928 39.8898 319.696 37.6069 316.137 35.3098C314.591 34.3514 312.833 33.787 311.018 33.6661C309.203 33.5452 307.386 33.8715 305.726 34.6165C297.397 37.8265 291.486 43.8279 287.243 51.573C286.938 52.1277 286.873 52.7067 285.808 52.4974C282.007 51.7753 278.129 51.5441 274.269 51.8092C269.671 52.1796 265.102 52.8405 260.587 53.7879C265.706 49.7073 271.218 46.9108 276.344 43.5159C281.783 39.7552 287.486 36.3918 293.409 33.4519C294.012 33.1668 294.936 33.8615 295.233 32.7649C295.813 30.6309 294.493 28.2863 291.999 27.1577C286.821 24.8131 281.27 25.4692 275.844 25.2009C272.262 25.0224 268.667 24.9505 265.084 25.0596C263.868 25.0969 262.144 24.0581 261.41 25.9828C261.132 26.5791 260.997 27.2325 261.017 27.8904C261.037 28.5482 261.211 29.1922 261.525 29.7705C261.84 30.3489 262.285 30.8453 262.826 31.22C263.368 31.5947 263.989 31.8371 264.641 31.9278C267.523 32.5698 270.395 31.7865 273.274 31.7416C277.392 31.6787 281.513 31.7262 285.763 31.7262C284.927 32.3502 284.21 32.937 283.443 33.4519C273.952 39.8269 264.427 46.1532 255.229 52.9494C253.832 53.983 251.871 55.1053 251.505 56.5266C250.49 60.5135 252.328 61.7307 256.246 61.072C258.775 60.647 261.242 59.8599 263.762 59.3617C270.038 58.2549 276.394 57.6631 282.766 57.5924C283.623 57.5654 284.478 57.4807 285.334 57.4986C285.512 57.4967 285.69 57.5083 285.866 57.5333C286.019 57.5603 286.251 57.6527 286.274 57.8235C286.299 58.0076 286.336 58.1899 286.385 58.3692C286.487 58.7086 286.642 59.03 286.843 59.3219C287.239 59.8797 287.765 60.3316 288.376 60.638C288.958 60.9389 289.589 61.1308 290.24 61.2043C290.68 61.2626 291.127 61.2448 291.561 61.1516C296.039 60.0923 298.567 56.3007 301.684 53.3693C303.59 51.5717 305.369 49.6457 307.205 47.7775C306.485 49.5244 305.632 51.2139 304.655 52.8313C303.756 54.4504 302.977 56.1325 302.064 57.74C300.796 59.9768 299.709 62.4497 300.845 64.8264C302.548 68.3857 305.235 68.9494 308.516 66.7524C313.564 63.3806 314.984 62.3072 319.764 58.5875C320.16 58.2793 320.558 57.9711 320.959 57.6668C323.17 55.9631 325.473 54.3827 327.859 52.9327C329.026 52.2355 330.217 51.5794 331.433 50.9746C332.052 50.6665 332.677 50.3712 333.307 50.0887C333.604 49.9603 334.517 49.7137 334.567 49.2926C334.644 48.6994 332.302 49.43 331.965 49.5109ZM295.3 53.5709C294.703 54.1307 294.132 54.7201 293.503 55.2401C292.898 55.7434 292.238 56.1774 291.149 56.9709C293.789 50.6793 297.98 46.3304 302.577 42.3461C305.093 40.1633 307.346 37.5132 310.842 36.78C311.821 36.5814 312.816 36.4727 313.814 36.4552C314.024 36.4594 314.231 36.5112 314.418 36.6069C314.605 36.7025 314.768 36.8394 314.894 37.0073C315.132 37.4502 314.666 37.7777 314.3 38.046C307.641 42.809 301.295 47.9946 295.3 53.5709Z" fill="white"/>
</svg>
