<?xml version="1.0" encoding="utf-8"?>
<svg viewBox="0 0 30 30" width="30" height="30" style="enable-background:new 0 0 25 25;" xmlns="http://www.w3.org/2000/svg">
  <defs>
    <style type="text/css">
	.st0{fill:#D5D5D5;}
</style>
  </defs>
  <path class="st0" d="M 22.937 14.685 L 20.694 14.685 L 20.694 11.907 C 20.694 11.373 20.373 10.946 19.732 10.946 L 6.593 10.946 C 6.059 10.946 5.632 11.267 5.632 11.907 L 5.632 26.435 C 5.632 28.465 7.234 30.067 9.264 30.067 L 16.955 30.067 C 18.985 30.067 20.587 28.465 20.587 26.435 L 20.587 24.619 L 22.83 24.619 C 23.792 24.619 24.646 23.765 24.646 22.803 L 24.646 16.501 C 24.753 15.433 24.005 14.685 22.937 14.685 Z M 19.305 12.335 L 19.305 14.578 L 19.305 17.355 L 7.021 17.355 L 7.021 12.335 L 19.305 12.335 Z M 23.364 22.803 C 23.364 23.124 23.151 23.23 22.937 23.23 L 20.694 23.23 L 20.694 16.073 L 22.937 16.073 C 23.257 16.073 23.364 16.287 23.364 16.501 L 23.364 22.803 Z" style="" transform="matrix(0.9999999999999999, 0, 0, 0.9999999999999999, -4.440892098500626e-16, 0)"/>
</svg>