<?xml version="1.0" encoding="utf-8"?>
<!-- Generator: Adobe Illustrator 23.0.3, SVG Export Plug-In . SVG Version: 6.00 Build 0)  -->
<svg version="1.1" id="Layer_1" xmlns="http://www.w3.org/2000/svg" xmlns:xlink="http://www.w3.org/1999/xlink" x="0px" y="0px"
	 width="30px" height="30px" viewBox="0 0 30 30" style="enable-background:new 0 0 30 30;" xml:space="preserve">
<style type="text/css">
	.st0{fill:#D5D5D5;}
</style>
<g>
	<path class="st0" d="M17.1,29.9H7.5c-1.8-0.2-3.1-1.8-2.9-3.5l0-14.5H6v14.6c-0.1,1.1,0.6,2,1.6,2.1l9.5,0c1.1,0,2.1-0.9,2.1-2.1
		V11.9h1.4v14.6C20.5,28.3,19,29.9,17.1,29.9z"/>
	<path class="st0" d="M19.8,22.3v-1.4h1.8c0.6,0,1.2-0.3,1.7-0.7c0.5-0.5,0.7-1.1,0.7-1.8c0-1.3-1.2-2.4-2.5-2.4h-1.7v-1.4h1.7
		c2.1-0.1,3.8,1.6,3.9,3.7c0,1-0.4,2.1-1.1,2.8c-0.7,0.7-1.7,1.1-2.7,1.1H19.8z"/>
	<path class="st0" d="M19.8,12.6H5.3l-0.7-0.7V11c0-0.7,0.2-1.3,0.5-1.8c0.5-0.7,1.2-1.3,2.1-1.4c0.6-0.1,1.3-0.1,1.9,0.1
		c0.4-0.6,1-1.1,1.6-1.4c1.9-0.9,4.2-0.3,5.4,1.4c0.4-0.1,0.7-0.2,1.1-0.2l0.2,0c0.9,0,1.6,0.4,2.2,1c0.6,0.6,0.9,1.4,0.9,2.3l0,1
		L19.8,12.6z M6,11.2h13.2v-0.3c0-0.5-0.2-0.9-0.5-1.3C18.3,9.2,17.9,9,17.4,9l-0.1,0c-0.4,0-0.7,0.1-1,0.3l-1-0.3
		c-0.7-1.4-2.4-2.1-3.9-1.4C10.8,8,10.3,8.4,10,9L9,9.3C8.6,9,8,8.9,7.5,9C7,9.1,6.6,9.4,6.3,9.9C6.1,10.2,6,10.6,6,11V11.2z"/>
	<path class="st0" d="M19.8,20.2H5.3l0,0.6l0.3,7.1c0,0,0.6,1,1.3,1.1s2.4,0.2,2.4,0.2h7.2c0,0,1.7,0.1,2.3-0.6c0.6-0.7,1-1.1,1-2.2
		c0-1,0-4.5,0-4.5V20.2z"/>
</g>
</svg>
