<?xml version="1.0" encoding="utf-8"?>
<svg viewBox="0 0 30 30" width="30" height="30" style="enable-background:new 0 0 25 25;" xmlns="http://www.w3.org/2000/svg">
  <defs>
    <style type="text/css">
	.st0{fill:#D5D5D5;}
</style>
  </defs>
  <path class="st0" d="M 22.984 14.314 L 20.928 14.314 L 20.928 10.987 C 20.928 10.498 20.635 10.106 20.048 10.106 L 6.35 10.106 C 5.86 10.106 5.567 10.4 5.567 10.987 L 5.567 26.741 C 5.567 28.599 7.035 30.067 8.894 30.067 L 17.602 30.067 C 19.461 30.067 20.928 28.599 20.928 26.741 L 20.928 23.413 L 22.984 23.413 C 23.864 23.413 24.647 22.631 24.647 21.75 L 24.647 15.879 C 24.647 14.999 23.864 14.314 22.984 14.314 Z M 19.657 14.314 L 6.742 14.314 L 6.742 11.378 L 19.657 11.378 L 19.657 14.314 Z M 23.375 21.75 C 23.375 22.044 23.179 22.142 22.984 22.142 L 20.928 22.142 L 20.928 15.488 L 22.984 15.488 C 23.277 15.488 23.375 15.684 23.375 15.879 L 23.375 21.75 Z" style="" transform="matrix(0.9999999999999999, 0, 0, 0.9999999999999999, -4.440892098500626e-16, 0)"/>
</svg>