<?xml version="1.0" encoding="utf-8"?>
<svg viewBox="0 0 30 30" width="30" height="30" style="enable-background:new 0 0 25 25;" xmlns="http://www.w3.org/2000/svg">
  <defs>
    <style type="text/css">
	.st0{fill:#D5D5D5;}
</style>
  </defs>
  <path class="st0" d="M 23.036 10.429 L 20.936 10.429 L 20.936 7.129 C 20.936 6.629 20.636 6.229 20.036 6.229 L 6.036 6.229 C 5.536 6.229 5.236 6.529 5.236 7.129 L 5.236 26.629 C 5.236 28.529 6.736 30.029 8.636 30.029 L 17.536 30.029 C 19.436 30.029 20.936 28.529 20.936 26.629 L 20.936 19.829 L 23.036 19.829 C 23.936 19.829 24.736 19.029 24.736 18.129 L 24.736 12.229 C 24.736 11.229 23.936 10.429 23.036 10.429 Z M 19.636 7.529 L 19.636 8.829 L 6.436 8.829 L 6.436 7.529 L 19.636 7.529 Z M 23.436 18.129 C 23.436 18.429 23.236 18.529 23.036 18.529 L 20.936 18.529 L 20.936 11.729 L 23.036 11.729 C 23.336 11.729 23.436 11.929 23.436 12.129 L 23.436 18.129 Z" style="" transform="matrix(0.9999999999999999, 0, 0, 0.9999999999999999, -4.440892098500626e-16, 0)"/>
</svg>