<?xml version="1.0" encoding="utf-8"?>
<!-- Generator: Adobe Illustrator 23.0.6, SVG Export Plug-In . SVG Version: 6.00 Build 0)  -->
<svg version="1.1" id="Fortado" xmlns="http://www.w3.org/2000/svg" xmlns:xlink="http://www.w3.org/1999/xlink" x="0px" y="0px"
	 viewBox="0 0 742.3 242" style="enable-background:new 0 0 742.3 242;" xml:space="preserve">
<style type="text/css">
	.st0{opacity:0.7;fill:#FFFFFF;}
</style>
<title>Fortado_White</title>
<path class="st0" d="M575.7,161c-5.7,5.5-11.8,10.8-17.1,16.7c-8,8.9-15.4,18.2-23.1,27.3c-4.9,5.8-9.8,11.6-14.8,17.3
	c-3.2,3.7-6.7,7.1-10,10.8c-3.4,3.9-7.9,5.8-12.6,7.4c-4,0.7-8.1,0.5-12-0.4c-0.6-0.1-1.3-0.3-1.8-0.6c-1.3-0.7-2.9-1.3-3.5-2.3
	c-2.3-3.5-3.8-7.6-4.3-11.8c-0.5-3.5,0.4-7.4,1.3-11c3.5-14.4,7.1-21.9,13.9-35c5.3-10.2,16.8-33.3,16.6-33.1
	c-9.3,11.4-15.7,19.5-25.6,30.4c-6.1,6.7-24.6,22.5-31.7,28.3c-2.3,1.9-5.3,2.9-8.1,4.2c-0.6,0.3-1.3,0.3-2,0.2
	c-5-1-12.1-2.9-9.1-16.7c1.4-6.8,3.8-13.3,7.2-19.3c6.5-12.2,13.8-23.9,21.9-35.1c-7.5,6.7-14.6,12.7-21.3,19.1s-13.5,13.3-20,20.2
	c-4.7,4.9-8.8,10.4-13.6,15.1c-7.1,6.9-14.4,13.7-22.2,19.8c-6.5,5.2-15.1,1.4-18.1-6.4c-3-7.8-3.3-16.4-0.7-24.3
	c0.2-0.9,0.2-1.7,0.2-2.6l0.2-0.1l0,0l0.1,0.2c-4.4,2.6-8.7,5.2-13.1,7.8c-4.2,2.5-8.6,3.8-13.2,1.6c-6.6-3.1-7.8-6.8-5.6-15.9
	c0.7-2.9,1.7-5.8,2.7-9.1c-7.1,6.4-14,12.5-20.8,18.6c-7.6,6.8-15.1,13.8-22.7,20.5c-4.1,3.5-8.2,7-12.4,10.4c-2,1.6-3.2,3-5.1,4.7
	s-4.3,4-6.5,5.1c-3.4,1.8-7.4-6.4-8.3-8.6c-2.1-5-3.6-10.2-4.5-15.5c-0.4-2.2,1-5,2.1-7.3c7.9-14.8,15.5-29.9,24.1-44.3
	c11.6-19.4,24-38.4,36-57.6c0.3-0.7,0.6-1.4,0.8-2.1c-0.8,0-1.6-0.1-2.4,0c-6.8,0.5-13.5,0.9-20.2,1.6c-7.2,0.7-14.4,2-21.6,2.6
	c-6.7,0.5-26.3,2.8-29.6-5.5c-2.2-5.5-4.1-11.4-2.8-17.4c0.3-0.8,0.6-1.5,1.1-2.2c0.5,0.6,1,1.2,1.4,1.8c0.5,0.7,0.8,1.5,0.9,2.4
	c-0.6,4.3,2,5.3,5.5,6c8,1.7,16.1,1.1,24.1,0.8s16-0.3,24-0.8s15.9-1.7,23.9-1.8c3.6-0.1,5.4-1.3,7.3-4c4.2-5.9,8.5-11.8,12.8-17.7
	c4-5.4,8.8-17.1,16.9-17c3,0.1,5.7,5.9,5.5,9.7c-0.2,4,1,5.6,0,9.3c-1.2,4.6-5.3,10.2-8.1,13.8c-0.7,0.9-1.3,1.9-1.9,2.9
	c1.3,0.2,2.7,0.3,4,0.3c14.9-0.8,29.8-1.1,44.5,2.4c6.2,1.4,12,4.3,17.9,6.8c1.2,0.5,1.8,2.2,2.6,3.4c-1.5,0.4-3.1,1.4-4.6,1.3
	c-8.4-0.8-16.7-2.2-25.1-2.6c-10.4-0.4-20.8-0.1-31.1,0c-5.1,0-10.2,0.4-15.2,1.1c-2.2,0.5-4.1,1.7-5.4,3.5
	c-3.6,5.2-6.9,10.7-10.1,16.2c-5.2,8.7-10.2,17.5-15.5,26.2c-4.2,6.9-9.1,13.5-13.2,20.5c-3.9,6.8-7.1,14-10.7,21
	c-4.7,9.2-9.5,18.3-14.2,27.4c-0.9,1.5-1.4,3.2-1.6,5c4.2-3.4,8.5-6.8,12.7-10.2c10-8.1,20-16.1,30.1-24.1
	c7.1-5.6,12.6-10.6,19.6-16.4c2-1.8,3.9-3.6,5.7-5.6c10.8-11.6,22.7-21.8,38.1-26.9c4.4-1.5,9-2,12.8,2.1c1.3,1.4,3.4,1.6,4.8-0.9
	c2.6-4.8,2.7-4.7,8.1-3.5c2.1,0.5,4.2,1,6.2,1.5c5.6,1.4,6.7,3.1,3.1,7.5c-5.7,6.9-8.6,14.9-12,22.8c-3.3,7.5-7,14.7-10.5,22.1
	c-2.3,4.9-4.6,9.9-6.9,14.9c-0.1,0.5-0.1,1.1,0,1.7c0.5-0.2,1-0.4,1.5-0.7c5.1-4.6,10.3-9.2,15.3-14c22.4-21.8,46.3-41.9,72.2-59.3
	c3.3-2.2,24.8-16.5,39-13.7c2.1,0.2,4.1,0.7,6,1.5c5.1,1.3,8-2.9,9.5-5.6c7.8-14.9,13.9-25.3,21.9-40.1c2.8-5.1,6.4-10.7,9.3-15.7
	c0.9-1.6,1.1-3.5,3.3-4c0.5-0.1,1.1-0.4,1.4-0.2c4.9,3.1,9.8,7.2,14.5,10.6c2,1.4,3,3.1,1.1,6c-4.1,6.5-7.7,13.3-11.4,20
	c-5.1,9.3-10.3,18.7-15.2,28.1C552.3,113,547,123.4,542,134c-5.9,12.5-11.4,25.2-17.3,37.7c-5,10.5-10.6,20.7-15.5,31.3
	c-2.5,5.5-4.2,11.4-6.2,17.1c-1,2.2-1.6,4.5-1.8,6.9c2.5-2.7,5.1-5.4,7.5-8.1c12.8-14.6,25.4-29.6,38.6-43.9
	c14.4-15.6,30.7-29.2,48.6-40.6c0.8-0.4,1.5-1,2.2-1.6c0.2-0.4,0.2-0.8,0-1.2c-1.9-0.8-3.9-1.6-5.7-2.3c3.2-5,8.7-8.1,18.2-9.9
	c15.9-3,31.8-5.4,48-5.1c27.1,0.5,54.2,1,80.8,6.9c0.5,0,1,0.2,1.4,0.4c0.6,0.4,1.1,0.9,1.6,1.4c-0.7,0.3-1.3,1-2,0.9
	c-4.1-0.2-8.3-0.6-12.4-0.7c-12.1-0.6-24.2-1.3-36.3-1.5c-9.9-0.1-19.9,0.2-29.8,0.7c-3.8,0.3-7.6,0.9-11.3,1.9
	c-1.6,0.4-2.8,0.9-1.1,3.2c9.8,13.6-2.5,33.5-10.5,44.9c-8.1,11.6-18.3,21.7-30,29.7c-6.8,4.8-14.5,7.8-22.7,7.1
	c-10-0.8-15-5.3-17.3-16.8c-1.8-8.6,0.4-16.6,4.2-24.4C574.1,165.7,574.9,163.3,575.7,161c0,0.1,0,0.1,0,0.1L575.7,161z M581,195.7
	c5.3-0.4,10.4-2.6,14.2-6.3c6.3-5.8,12.2-11.9,18-18.2c8.2-8.9,14.3-19.1,17.1-31c0.7-4.9,0-10.8-6-10.9c-6.5-0.2-12.5,5.5-16.7,9.8
	c-7.7,7.7-13.6,17-20.2,25.6c-5.2,6.9-8.6,14.9-9.8,23.5C576.9,193.1,577.7,196.5,581,195.7z M455,181.7c0.3,0.3,5.4-4.4,5.7-4.7
	c8.9-7.9,18.4-15.3,26.7-23.9c12.6-13,24.3-26.8,36.5-40.2c1.3-1.5,1-2.3-0.3-3.3c-3.2-2.5-6.8-2.3-10.1-1c-3.3,1.3-6.5,2.4-9.4,4.4
	c-8.5,5.7-14.9,12.5-20.6,20.2c-4,5.3-9.4,11.9-12.7,17.7C465.7,159.9,453.5,180.9,455,181.7L455,181.7z M395.7,130.2
	c0.2-0.2,0.1-0.5-0.1-0.7c0,0,0,0,0,0c-1.3-0.9-2-1.7-3.8-1.8c-2.3-0.1-5.4,1-7.5,1.7c-2.8,1-5.4,2.5-7.7,4.5
	c-7.6,5.6-12.8,8.4-18.8,15.9c-2.8,3.3-5.3,6.8-7.5,10.5c-1.1,1.8-2,3.8-2.8,5.8c-0.5,1.2-1.6,3-1.3,4.4c0.5,2.5,6.7-0.8,7.7-1.3
	c7.9-3.9,14.2-10.6,20.5-16.7c6.9-6.7,13.6-13.7,20.4-20.5C394.9,131.3,395.3,130.8,395.7,130.2L395.7,130.2z"/>
<path class="st0" d="M167.9,122.1c-3.7-0.4-7.3-0.6-11-0.5c-17.3,0.7-37.5,1.5-54.8,2.5c-2.4,0.1-2.8-0.4-1.7-2.4
	c5-9.2,9.9-18.4,14.8-27.6c3-5.6,6-11.2,9-16.9c4.7-8.9,9.6-17.7,14.7-26.3c3.5-5.6,7.4-11,11.4-16.2c1.8-2.4,3.5-5,2.1-8.2
	c-0.3-0.6-4.5-1.2-5-1.2c-3.1,0-5.9,0-9.8,4.1c-6.9,7.4-31.7,44.1-39.9,56.7c-7.5,11.5-14.5,23.4-21.3,35.3
	c-3.6,6.3-10.3,6.9-16.7,8.3c-6.9,1.6-13.8,3.5-20.6,5.3c-3.3,0.9-2.4,3.1-2.7,6c-0.1,0.8-0.1,1.6,0,2.4c0.2,2.4,0.6,4.7,1.2,7
	c0.1,0.4,2.1,0.7,2.9,0.3c2.6-1.2,4.7-3.1,7.6-4c4.3-1.3,8.6-2.3,12.9-3.5l0.5,0.6c-4.2,5.9-8.1,14.4-12.5,20.3
	c-7,9.2-27.8,38.9-27.9,38.9c-1.6,2.4-9.5,11.6-5.4,14.4c4.5,3.1,17,8.2,22.1,9.6c3.1,0.9,6.3-0.5,7.9-3.2c8.4-15,22-47.3,27.8-56.6
	c5.4-8.7,8.3-15.4,12.8-21.9c0.8-1.2,3.5-8.5,10.7-9.7c9.8-1.7,15.6-3.1,25.5-4.5c9.3-1.3,24.6-2.3,33.8-3.8
	c4.1-0.7,8.1-2.2,12.1-3.5c0.4-0.1,0.7-0.8,1-1.2C168.9,122.4,168.4,122.2,167.9,122.1z"/>
<path class="st0" d="M156.4,221.6c1.1-3,1.9-6.2,3.5-9c8.7-14.8,17.7-29.4,26.4-44.3c5.1-8.9,9.8-18,14.6-27.1
	c3.8-6.9,7.6-13.9,11.3-20.8c0.3-0.7,0.5-1.4,0.6-2.2c-0.7,0.2-1.4,0.4-2.1,0.8c-16.5,9.7-31.6,21.2-46.4,33.2
	c-2.6,2.1-4.9,4.5-6.9,7.2c-3.9,5.5-7.1,11.3-11.4,16.5c-12.3,14.9-23.3,29.4-39.9,39.8c-6.4,3.9-16.2,6.6-19-2.3
	c-2.6-8.2-4.6-16.9-0.4-25.1c2.6-4.9,6.4-9.2,10.1-13.4c11.2-12.7,24.8-22.7,39.2-31.4c2.8-1.5,5.7-2.7,8.7-3.6
	c1.2-0.2,2.4,0.1,3.4,0.9c2.9,1.8,5.6,4,8.5,5.9c1.7,1.1,3.3,0.8,5.1-0.5c17.2-12.8,34.6-25.5,53.6-35.6c1.9-1,3.3-2.9,5-4.4
	c0.5-0.5,1.3-1.1,1.9-1.1c3.1,0.4,6.2,0.9,9.2,1.6s3.3,3.1,2.4,5.4c-1.8,4.4-3.8,8.6-5.8,12.9c-3.5,7.1-7.1,14.1-10.6,21.1
	c-5,9.9-10,19.9-15,29.8c-0.2,0.5-0.3,1.1-0.4,1.6c0.8-0.6,1.5-1.3,2.1-2.1c6.8-7.1,15.5-16.1,24-23.6c12.7-11.5,23.2-19.2,37.6-26
	c3.3-1.5,6.4-2.9,11.8-2c4.1,0.4,7.1,2.6,7.1,6.5c0,2.1-2.6,6-7.6,9c-2.8,1.7-6.9-0.5-12.5-0.5c-1.8,0-3.5,0.6-4.8,1.8
	c-5.7,4.8-10.2,8.1-15.5,13.3c-7.3,7.2-13.7,12.3-20.9,19.5c-7,7-15.7,14.3-20.1,20c-3.2,4.1-6.5,8.2-9.6,12.4
	c-3.7,5-7.6,10-10.9,15.3c-3.5,5.7-6.2,11.8-9.5,17.6c-2.5,4.4-4.7,4.6-7.7,0.4c-3-4.3-5.7-8.8-8.1-13.4c-0.6-1-0.3-2.5-0.5-3.8
	L156.4,221.6z M142.2,151.1c-0.5-0.1-1-0.3-1.3-0.2c-2.9,1.4-6.1,2.5-8.5,4.5c-7.1,6-14.1,12.3-20.7,18.8c-3.8,3.8-7,8.3-10.3,12.5
	c-1.7,2.1-3.1,4.3-4.2,6.8c-0.8,2.1-0.8,4.5-1.1,6.8c1.7-0.8,3.4-1.8,5-2.9c14.1-11.3,26.5-24.6,36.8-39.5
	C139.4,155.8,140.7,153.6,142.2,151.1z"/>
<path class="st0" d="M24.4,33.4C9,31.2,3.9,26.2,0.1,15.6c-0.3-0.7,0.1-1.5,0.8-1.7c0.2-0.1,0.5-0.1,0.7-0.1C5.2,14.6,12,16,15,16.4
	c12.9,1.9,25.6,0.5,38.4-1.3c25.4-3.7,50.8-7.8,76.3-11c23.9-3,48-5.2,72.2-3.5c14.8,1,28.8,4.8,41.5,12.6c4.4,2.7,8.1,7,10.9,11.3
	c2.3,3.5,5.7,9.4,2.8,13.5c-0.7,1-3.7,3.4-5,2.7c-0.5-0.2-0.9-3-1.3-3.6c-0.8-1.3-1.8-2.6-2.8-3.7c-2.9-3.6-6.7-6.4-10.9-8.2
	c-4.6-2.1-9.5-3.8-14.4-4.8c-6.2-1.4-12.5-2.9-18.8-3.1c-10.3-0.4-20.6-0.2-30.9,0.5c-13.4,1-26.8,2.6-40.2,4.1
	c-9.5,1.1-18.9,2.4-28.4,3.5c-10.9,1.3-21.7,2.3-32.6,3.6c-10.4,1.3-20.7,3.2-31.1,4.3C34.6,33.8,28.4,33.4,24.4,33.4z"/>
</svg>
