<?xml version="1.0" encoding="UTF-8"?>
<svg width="94px" height="94px" viewBox="0 0 94 94" version="1.1" xmlns="http://www.w3.org/2000/svg" xmlns:xlink="http://www.w3.org/1999/xlink">
    <!-- Generator: Sketch 62 (91390) - https://sketch.com -->
    <title>icon_flavoured_white_L</title>
    <desc>Created with Sketch.</desc>
    <g id="icon_flavoured_white" stroke="none" stroke-width="1" fill="none" fill-rule="evenodd">
        <g id="_brand-icons/80x80/Flavoured">
            <g id="_brand-icons/80x80/Milk">
                <rect id="bounding-box" x="0" y="0" width="93.3142569" height="93.0710789"></rect>
                <path d="M46.4050633,2.37974684 C70.6808101,2.37974684 90.4303797,22.1293165 90.4303797,46.4041266 C90.4303797,70.6798734 70.6808101,90.4303797 46.4050633,90.4303797 C22.1293165,90.4303797 2.37974684,70.6798734 2.37974684,46.4041266 C2.37974684,22.1293165 22.1293165,2.37974684 46.4050633,2.37974684 Z M46.4050633,4.25316456 C23.1625063,4.25316456 4.25316456,23.1625063 4.25316456,46.4041266 C4.25316456,69.6476203 23.1625063,88.556962 46.4050633,88.556962 C69.6476203,88.556962 88.556962,69.6476203 88.556962,46.4041266 C88.556962,23.1625063 69.6476203,4.25316456 46.4050633,4.25316456 Z M72.5603848,26.1772152 L73.6807696,27.2536898 C73.6407899,27.4770209 72.7545722,32.3706821 70.3805367,35.3113641 C72.3176506,37.3138685 73.8492557,39.603246 74.8934886,42.1580043 L74.8934886,42.1580043 L74.9620253,42.5056159 L74.9620253,62.1288514 L74.0101266,63.0632911 L18.8,63.0632911 L17.8481013,62.1288514 L17.8481013,42.5056159 L18.4506532,41.6365869 L54.6228051,27.6199902 L55.0987544,27.5629894 C55.1720506,27.5723338 56.8350177,27.8031404 59.2042937,28.56284 C59.962957,28.1432765 60.8348962,27.9012566 61.7658532,27.9012566 C63.0242633,27.9012566 64.1808203,28.3404433 65.0841722,29.0693063 C68.0702785,27.0621297 72.3642937,26.2155272 72.5603848,26.1772152 L72.5603848,26.1772152 Z M73.0582278,58.3910922 L19.7518987,58.3910922 L19.7518987,61.1944116 L73.0582278,61.1944116 L73.0582278,58.3910922 Z M73.0582278,53.7188933 L19.7518987,53.7188933 L19.7518987,56.5222127 L73.0582278,56.5222127 L73.0582278,53.7188933 Z M73.0582278,43.4400557 L19.7518987,43.4400557 L19.7518987,51.8500138 L73.0582278,51.8500138 L73.0582278,43.4400557 Z M55.0797165,29.4514922 L23.8050835,41.5711762 L72.5204051,41.5711762 C71.6218127,39.758363 70.452881,38.1016012 69.0259848,36.6205142 C67.6752405,37.6184959 66.2502481,37.8913523 65.1212962,37.8913523 C64.6101266,37.8913523 64.1627342,37.8362203 63.8086278,37.7726784 C63.1803747,38.0343216 62.4892962,38.1800942 61.7658532,38.1800942 C58.8787443,38.1800942 56.5304101,35.8738968 56.5304101,33.0406754 C56.5304101,31.9090688 56.9092658,30.8652996 57.5432304,30.0149594 C56.3695392,29.686971 55.4795139,29.5187718 55.0797165,29.4514922 L55.0797165,29.4514922 Z M61.7658532,29.7701362 C59.9286886,29.7701362 58.4342076,31.2372066 58.4342076,33.0406754 C58.4342076,34.8441442 59.9286886,36.3112146 61.7658532,36.3112146 C63.6020658,36.3112146 65.0974987,34.8441442 65.0974987,33.0406754 C65.0974987,31.2372066 63.6020658,29.7701362 61.7658532,29.7701362 Z M71.4799797,28.3619354 C70.0873519,28.7441213 67.9589063,29.4458855 66.3149772,30.5074091 C66.749043,31.2568298 67.0012962,32.1202522 67.0012962,33.0406754 C67.0012962,34.1087401 66.6662278,35.1011151 66.0969924,35.9243566 C66.8528,35.770174 67.6666734,35.4160213 68.4243848,34.6731417 L68.4243848,34.6731417 L68.4262886,34.6703384 C70.0549873,33.0687086 71.0211646,30.1196166 71.4799797,28.3619354 Z" id="Combined-Shape" fill="#FFFFFF"></path>
            </g>
        </g>
    </g>
</svg>