<?xml version="1.0" encoding="utf-8"?>
<!-- Generator: Adobe Illustrator 23.0.6, SVG Export Plug-In . SVG Version: 6.00 Build 0)  -->
<svg version="1.1" id="Arondio" xmlns="http://www.w3.org/2000/svg" xmlns:xlink="http://www.w3.org/1999/xlink" x="0px" y="0px"
	 viewBox="0 0 691.3 203" style="enable-background:new 0 0 691.3 203;" xml:space="preserve">
<style type="text/css">
	.st0{opacity:0.7;fill:#FFFFFF;}
</style>
<title>ArondioWhite</title>
<path class="st0" d="M489.5,161.8c0.6-0.6,1.2-1.2,1.8-1.8c8.1-10.6,17-20.6,26.6-30c10.5-10.4,21.4-20.4,32.8-29.8
	c0.4-0.3,0.7-0.6,1-0.9c1.4-1.5,2.9-2.4,4.9-1.8c0.3,0.1,0.5,0.1,0.8,0.1c3.3,0.4,4,1.1,3.9,4.4c-0.1,3.3-0.9,6.6-2.2,9.7
	c-3,6.9-6.7,13.4-10.2,20c-2.8,5.2-5.2,10.7-7.8,16c-0.6,1.3-1.3,2.6-1.9,3.9c-0.3,0.5-0.9,0.7-1.4,0.6c-1-0.4-1.5-0.4-2.4-0.8
	c-0.2-0.1-0.4-0.2-0.6-0.3c-2.8-2.2-3.8-3-5.2-5.4c-0.8-1.7-1-3.7-0.5-5.5c0.8-3.4,2.2-6.7,4-9.7c2.3-4,4.6-8,6.8-12
	c0.5-0.8,0.8-1.7,1.2-2.6l-0.6-0.4c-0.7,0.7-1.4,1.5-2.1,2.1c-5.7,5-10.7,10.6-16,16.1c-3,3.1-6,6.3-8.8,9.6
	c-3.3,3.9-6.6,7.9-9.7,12c-3.7,4.9-7.4,9.8-11.1,14.7s-6.6,10-10.4,14.8c-1,1.2-4.4,7-7.4,5.4c-2.3-1.2-4.8-2.8-6-5.1
	c-0.6-1.1-1-2.4-1.6-3.6c-1.8-3.5-0.9-7.2,0.2-10.8c2.6-8.6,5-17.4,8-25.9c2.9-8.1,6.5-15.9,9.7-23.8c1.5-3.8,3-7.5,4.5-11.3
	c0.1-0.2,0-0.5-0.1-1.4c-1.1,1.9-1.9,3.3-2.7,4.7c-2,3.3-3.8,6.8-6,9.9c-3.7,5.4-7.6,10.7-11.5,16c-3.2,4.2-6.8,8-10.8,11.4
	c-3.2,2.8-6.5,5.9-10,8.6c-2.4,1.8-5.1,3.2-7.9,4.3c-12,4.1-25.3-5.1-25.3-17.7v-1c0-0.9-1.1-0.5-1.8,0.1c-1.3,0.9-3.5,4.2-4.4,5.4
	c-3.1,4.1-3.9,5.1-8,10.7c-2,2.8-4.6,6.6-6.8,9.4c-4.5,5.9-8.9,11.9-13.4,17.8c-0.5,0.7-1.5,2-2,2.7c-1.4,2-2.9,3.8-4.5,5.6
	c-1.9,2.2-4.2,4.1-6.8,5.5c-1.1,0.5-3,1.9-4.2,1.1c-1.5-0.9-2.7-2.1-3.7-3.5c-0.6-1.1-1.1-2.2-1.5-3.3c-0.7-1.6-1.2-3.3-1.4-5
	c-0.3-2-0.4-4.1-0.1-6.2c0.5-3.7,1.5-7.2,2.9-10.7c3.1-8.8,7.2-17.1,11.4-25.4c4.5-8.8,8.6-17.7,12.9-26.6c2-4.2,4-8.3,5.9-12.5
	v-0.1l-2.2-1.8c-0.3,0.2-0.6,0.4-0.9,0.7c-4.7,4.4-9.4,8.8-13.9,13.3c-2.9,2.9-5.7,6.1-8.3,9.3c-3.8,4.6-7.5,9.3-11.3,13.9
	c-1.8,2.2-3.7,4.2-5.4,6.4c-2.9,3.7-5.7,7.4-8.6,11.1c-1.7,2.1-3.3,4.3-5.2,6.3s-3.4,1.6-4.7-0.8c-1.1-1.9-2.3-3.9-3.3-5.9
	c-1.8-3.9-1.5-8-0.1-11.9c1.1-3.1,2.5-6.2,3.9-9.2c2.2-4.7,4.5-9.5,6.8-14.1c3.1-6.1,6.3-12.2,9.4-18.3s6.2-12.2,9.1-18.4
	c2.4-5.1,4.3-10.3,6.5-15.5c0.1-0.2,0.4-0.7,0-1.1c-0.7-0.6-1.5-0.1-2,0.2c-4.6,2.4-9.2,4.8-13.8,7.2c-4.7,2.4-9.1,5.3-13.1,8.8
	c-2.1,1.8-4.1,3.6-6,5.5c-0.6,0.6-1,1.5-1,2.4c0.4,4.5-1.4,8.7-3.3,12.6c-2.3,4.7-4.8,9.3-7.4,13.8c-3.3,5.9-7,11.5-11.1,16.8
	c-5.9,7.6-11.2,15.9-20.5,19.6c-4,1.6-8.1,1.5-12.2,1.1c-4.3-0.4-7.1-6.4-8.1-10c-1.1-4.1-1.8-8.3-2.2-12.5
	c-0.8-7.5,3.7-15,7.9-20.8c3.3-4.5,6.3-9.2,9.6-13.6c3-3.9,6.1-7.6,9.4-11.2c3.1-3.4,6.2-6.8,9.5-10c2.4-2.3,5-4.4,7.8-6.3
	c2.7-1.8,5-1,6.4,1.8c2.2,4.4,3.6,7.7,3.3,12.8c0,1.2-0.6,2.3-1.5,2.9c-2.2,1.6-4.2,3.4-6,5.4c-5,5.8-9.8,11.8-14.6,17.8
	c-1.6,2.2-3,4.5-4.3,6.9c-2.2,3.8-4.5,7.6-6.6,11.5c-1.6,2.8-2.7,5.8-3.3,9c-0.1,0.9,1.2,2.8,2,2.4l0.2-0.1c2.9-1.5,5.4-3.6,7.6-6.1
	c4.3-4.8,8.6-9.5,12.7-14.5c3.9-4.9,7.2-10.2,9.9-15.8c1.3-2.6,3.1-5,3.2-8c0.1-5.1,3.4-8.1,6.9-11c10.7-8.8,22.5-16.1,35.2-21.8
	c1.6-0.8,3.3-1.5,5-2.2c1.9-0.8,3.6-1.6,4.5-3.6c0.5-0.6,1.2-1,2-1c5,0.4,12,0.5,13.6,6.5c0,0.5-0.1,1-0.4,1.5
	c-0.6,1.2-1.3,2.3-1.9,3.6c-2.8,6.1-5.5,12.2-8.3,18.2c-2.1,4.5-4.5,8.8-6.6,13.3c-1.3,2.6-2.4,5.4-3.6,8.1
	c-1.6,3.4-3.3,6.8-4.9,10.2c-0.8,1.7-1.6,3.3-2.4,5l0.5,0.4c0.7-0.6,1.4-1.3,2-1.9c6.3-6.3,12.4-12.7,18.8-18.8
	c3.6-3.3,7.4-6.4,11.3-9.3c1.5-1.1,3.2-2,5-2.7c3.8-1.6,7.4-0.3,10.9,1.2c1.4,0.6,1.5,1.8,1.6,3.2c0.2,4.8-0.8,9.6-2.7,14
	c-2.7,6-5.5,11.9-8.2,17.9c-2.2,5-4.2,10.2-6.5,15.2c-3.1,6.9-6.5,13.6-9.7,20.5c-2.3,4.8-4.2,9.8-5.5,14.9c-0.1,0.3-0.4,1.4,0,1.7
	c1,0.1,3.4-1.8,4.2-2.5c4.4-3.9,5.9-6,9.1-9.9c10-12,15.2-21.3,24.5-33.1c4-5,6.6-10,10.1-13.9c1.8-2,3.6-4.3,5.2-6.5
	c1.9-2.6,3.1-3.8,4.8-5.9c3.6-4.4,7.3-8.9,11-13.2c2.6-3.2,5.5-6,8.7-8.6c7.6-5.7,19.9-14.3,29.9-13.8c4.6,0.3,9.2,1.2,13.5,2.8
	c3.8,1.4,5.6-0.5,7.3-2.9c1.2-1.6,2.3-3.3,3.3-5c8.6-14.2,16.3-29,23.2-44.1c2.8-6,5.2-12.2,9.1-17.5c1.6-2,3.4-3.9,5.2-5.7
	c3.3-3.4,9.7-10.9,13-2.8c0.9,2.3,2.1,3.3,1.7,5.8c-0.3,1.7-0.7,5.2-1.4,6.8c-2.1,4.6-3.7,9.3-6.3,13.6c-4.2,7.1-7.1,14.9-10.5,22.4
	c-7.7,17.3-16.6,34.3-23.4,52.1c-1.4,3.8-3,7.6-4.6,11.3c-2.7,6.1-5.3,12.1-8,18.2c-3.9,8.9-7.8,17.8-11.6,26.8
	c-0.1,0.3-0.1,0.7-0.2,1L489.5,161.8z M491.9,89.8c0.5-0.7,0.3-1.7-0.4-2.2c-0.2-0.2-0.5-0.3-0.8-0.3h-0.5c-2.8-0.1-5,1.3-8.5,2.7
	c-0.8,0.3-1.5,0.6-2.3,0.9c-8.8,3.3-13.3,11.6-18.5,18.6c-3.5,4.7-6.5,10.3-9.4,15.4c-3.4,6-6.7,12.3-9.5,18.5
	c-1.6,3.5-2.8,7.2-3.7,11c-0.1,0.3-0.2,0.7-0.3,1.2c-0.1,0.6,0.3,1.2,0.9,1.3c0.2,0,0.3,0,0.5,0c0.7-0.3,1.4-0.8,2-1.4
	c5.6-4.3,10.8-9,15.7-14.1c5.7-6.1,10.3-12.9,15-19.6c1.5-2.1,2.9-4.3,4.2-6.5c4.6-7.6,9.2-15.2,13.8-22.8
	C490.6,91.7,491.2,90.8,491.9,89.8z"/>
<path class="st0" d="M163.3,92.7l-8.5,1c-6,0.7-12,1.5-18,2.1c-5.8,0.6-11.5,1.1-17.3,1.6c-1.6,0.1-3.2,0.8-4.3,2
	c-11.2,10.8-23,21-35.4,30.4c-4.3,3.3-8.5,6.7-13,9.7s-9.5,5.9-14.2,8.9c-2.9,1.8-5.6,3.9-8.6,5.5c-3.4,1.8-6.5,3.9-10.3,5.5
	c-1.6,0.8-3.3,1.5-5.1,2.2c-2.5,0.9-5.1,1.3-7.7,1.3c-2.1,0.1-4.1,0-6.2-0.3c-2.8-0.4-10.3-1.6-13.5-3.4c-0.7-0.4-1.2-0.4-1.2-1
	c0-0.4,1.4-0.7,2-0.7c3.5-0.1,6.5-2,9.5-3.5c6.8-3.6,13.6-7.3,20.2-11.3c2.9-1.7,5.7-3.7,8.4-5.7c1.7-1.2,3.5-2.3,5.2-3.5
	c1.1-0.8,2.1-1.7,3.1-2.5s2.3-1.8,3.4-2.6c10.9-7.6,21.8-15.1,32.8-22.6c0.8-0.6,1.5-1.2,2.7-2.1c-0.6-0.2-1.2-0.3-1.8-0.3
	c-1.3,0.1-2.5,0.3-3.8,0.6c-6.2,1.3-12.3,2.7-18.5,4.1c-7.4,1.7-15.2,2.6-22.4,5.1c-1.4,0.7-2.8,1.4-4.1,2.3c-2.1,1-4.6,0.1-5.5-2
	c-0.3-0.6-0.4-1.2-0.4-1.9c-0.1-2.7-0.2-5.4-0.1-8.1c0.1-2,1.1-2.5,3.3-2.3c0.9,0.1,1.7,0.1,2.6,0c9.8-1.3,19.5-2.8,29.3-4
	s19.6-2.2,29.4-3.2c1.4-0.2,2.9-0.3,4.3-0.4c2.5-0.2,4-2.1,5.6-3.5c5.5-4.7,10.9-9.4,16.3-14.3c4.3-3.9,8.6-8,12.8-12.1
	C145,53,155.6,42.4,166.4,32c4.4-4.2,9.1-8,13.7-12c6.3-5.5,11.6-12.3,20.5-12.8c3.6-0.2,7,0.5,9.7,2.9c2.9,2.6,6.4,5.1,6.1,9.7
	c-0.1,3.3-0.7,6.5-1.8,9.5c-1.8,4.6-3.4,9.3-5.2,14c-2.3,6-4.6,11.9-6.9,17.9c-1.1,2.8-2.2,5.7-3.4,8.5c-2.1,5.1-4.3,10.1-6.4,15.1
	c-0.2,0.6-0.4,1.2-0.5,1.9c2.9,0.1,5.1-0.2,8.7-0.3c11.2-0.3,13.7-0.4,24.6-0.6c1.7,0,4.9-0.2,6.4-0.2c1.3,0,2.5-0.6,3.2-1.8
	c4.3-5,10.4,1.6,10,6.4c-0.7,7.2-5.8,12.1-9.2,18.1c-2.7,4.7-5.4,9.3-8.1,14c-1,1.7-2,3.3-3.2,5.2c1.3,0.3,1.6-0.6,2.1-1.1
	c6.4-6.6,13.1-12.7,20.1-18.6c8-6.5,16.2-12.7,25.6-17.3c0.6-0.3,1.2-0.8,1.8-1.2c1.6-0.9,5.4-1.2,7.1-0.6c4.4,1.3,1.7,4.5-0.7,7.3
	c-1.9,2.1-3.9,4-6,5.8c-1.1,1.3-2.5,2.3-4,3.1c-1.5,0.6-3.3,0.4-5,0.4c-0.3,0-0.7-0.7-1-1.2c-0.3-0.7-0.6-1.5-0.9-2.3
	c-2,1.5-4,2.8-5.8,4.2c-4.5,3.5-9.1,6.8-13.4,10.5c-3.5,3-6.8,6.3-10,9.6c-2.9,3-5.7,6.1-8.4,9.3c-6.2,7.2-11.8,14.8-16.9,22.8
	c-3.1,4.9-5.5,8.9-9.4,14.8c-0.7,1.1-2,3.2-3.5,3.3c-2.5,0.2-3.6-6.5-4.1-8.2c-1.1-3.9-0.1-7,1.7-10.3c5.7-10.8,11.2-21.6,17-32.4
	c3-5.5,6-11,9-16.4c2.5-4.6,4.8-9.3,7.5-13.7c1.3-1.9,2.4-3.9,3.5-6c-1.3-0.1-2.2-0.2-3.2-0.1c-7.3,0.4-14.3,0.6-21.6,1
	c-4.5,0.3-9,0.6-13.5,0.7c-1.7-0.1-3.2,0.9-3.7,2.5c-4.9,10.6-9.6,20.4-14.6,31c-1.4,2.9-2.6,6-4,8.9c-3.2,7-6.6,14-9.7,21.1
	c-2.4,5.5-4.5,11.2-7,16.7c-2.9,6.7-5.8,13.4-9.8,19.6c-1.3,1.9-2,4.2-3.3,6.2c-1.3,1.9-2.7,3.6-4.3,5.2c-0.7,0.4-1.5,0.5-2.3,0.2
	c-1-0.3-2-0.9-2.8-1.6c-2.2-1.6-4.2-3.3-6.1-5.2c-2.7-2.8-4-6.7-3.4-10.5c0.8-4.7,2.3-9.3,4.3-13.7c5.4-12.4,10.8-24.9,16.6-37.1
	c6.1-12.9,12.8-25.6,19.1-38.3C162.1,95.2,162.5,94.2,163.3,92.7z M123.6,91.1c2.6,0,4.6,0.1,6.7,0c8.5-0.7,16.9-1.5,25.4-2.3
	c2.6-0.2,5.5-0.6,8.1-0.9c2.3-0.3,2.6-1,3.2-2c1.1-1.7,1.9-3.5,2.8-5.2c5.9-11.3,11.6-22,17.4-33.3c5.4-10.5,10.6-21.2,15.8-31.7
	c0.2-0.3,0.2-0.6,0.2-0.9c-0.3-0.7-1.2-2.4-2.5-2.3c-0.5,0.1-1,0.4-1.3,0.8c-13.8,13-26.4,27.6-39.5,41.5
	c-3.9,4.1-7.8,8.3-11.7,12.4c-3.3,3.3-6.7,6.6-10,9.8c-4.5,4.3-9,8.6-13.5,12.9C124.3,90.2,123.9,90.7,123.6,91.1z"/>
<path class="st0" d="M615.2,91.4c1.3,2.4,3.4,3.1,5.4,3.9c9.8,4.1,12.5,16.8,9.8,26.1c-2.1,7.3-5.3,14.2-9.7,20.4
	c-3.6,5.2-7.5,10.1-11.8,14.8c-8,8.9-17.2,16.1-28.3,20.8c-3.5,1.5-7,2.9-10.9,2.9c-5,0.1-9.9-1.3-14.1-4.1c-2-1.4-3.5-3.6-4.9-5.7
	c-4.7-7-5.3-14.7-3-22.6c1.7-5.9,4.8-11.2,8.2-16.4c5-7.7,11.1-14.8,17.9-21c5.5-5,11-9.9,17.8-13.2c2.6-1.3,5-2.8,7.9-4.5
	c-0.7-0.2-1.3-0.3-2-0.3c-4.1,0.6-8.2,1.2-12.3,1.9c-1.9,0.3-3.9-2.1-5.5-4c1.1-1.5,2.8-1.8,4.3-2.2c3.7-0.9,7.3-1.9,11.1-2.5
	c2.9-0.5,5.9-0.4,8.9-0.8c12.5-1.7,25.1-2.8,37.8-3.1c44.8-1.2,49.6,2.9,49.6,3.1c-1.2,0.1-2.5,0.3-3.7,0.4c-2.4,0.1-4.9,0-7.3,0.2
	c-9.6,0.4-19.1,0.8-28.7,1.3c-8.8,0.5-17.6,1.2-26.5,1.9c-2.5,0.3-5,0.8-7.5,1.4C616.8,90.3,615.1,90.5,615.2,91.4z M608.2,96.2
	c-3.9-1.3-15.3,8.5-17.7,10.8c-4,3.7-7.7,7.8-11,12.2c-2.8,3.9-5.7,7.6-8.6,11.4c-0.3,0.4-0.7,0.8-1,1.3c-1.4,1.7-2.7,3.5-3.9,5.4
	c-3.4,6-6.8,12.1-8.7,18.8c-1,3.5-1.9,6.9-1.4,10.6c0.3,2.3,0.7,2.7,2.9,3.2c0.9,0.2,1.8,0.3,2.7,0.3c4.4,0.1,8.7-0.9,12.5-3
	c5.5-3,10.8-6.1,15.6-10.2c4.9-4.4,9.5-9.2,13.6-14.3c4.5-5.5,8.8-11.1,11.5-17.6c2.3-5.4,3.8-10.9,3.4-16.8
	C617.5,102.7,613.7,97.9,608.2,96.2L608.2,96.2z"/>
<path class="st0" d="M555.8,79.8c-5.3-0.9,2.6-13.3,3.9-14.9c2-2.3,4.9-5.4,8.3-5.2c4.7,0.2,8.4,4.1,8.2,8.8c-0.1,2.2-1,4.2-2.5,5.8
	C569.6,78.3,566,83.1,555.8,79.8L555.8,79.8z"/>
</svg>
