<?xml version="1.0" encoding="UTF-8"?>
<svg width="728px" height="100px" viewBox="0 0 728 100" version="1.1" xmlns="http://www.w3.org/2000/svg" xmlns:xlink="http://www.w3.org/1999/xlink">
    <title>Script/white/NICARAGUA</title>
    <g id="Script/white/NICARAGUA" stroke="none" stroke-width="1" fill="none" fill-rule="evenodd">
        <g id="logo/Barista-Creations" transform="translate(159.000000, 2.000000)" fill="#FFFFFF">
            <path d="M300.170948,33.3549824 C301.533112,31.0021188 302.219642,31.4617941 303.390608,31.8689633 C305.800895,32.7070781 305.371938,35.105513 304.667575,37.4306375 C304.241589,38.8344302 303.923586,39.9806463 303.325224,41.331933 C305.813774,40.0608914 307.825814,39.1970189 310.581843,38.6600707 C312.028214,38.3787177 313.648941,38.399522 315.068564,38.7789522 C317.042959,39.3069843 317.442196,40.8851366 316.482242,42.7396885 C312.536425,50.3570225 308.062583,57.6632831 304.154411,65.302412 C303.69177,66.2059116 303.379711,67.1916377 303.014156,68.1466526 C302.968585,68.2655341 303.011184,68.4220615 303.013165,68.5617473 C303.179597,68.5023065 303.381692,68.4894277 303.506516,68.3784716 C304.492227,67.5086551 305.508649,66.6695496 306.430958,65.7303855 C309.44456,62.6672048 312.452218,59.5951079 315.457895,56.5220204 C316.92606,55.0211411 318.393235,53.5192711 319.8614,52.0174011 C320.84513,51.0098802 321.661437,49.7180342 322.84231,48.9363882 C323.48327,48.5113867 325.534936,47.6187846 326.074849,48.6154081 C326.53848,49.4713551 326.894128,50.7622103 326.608817,51.6151853 C325.535927,54.8190425 324.160884,57.9119436 322.939395,61.0632948 C321.585156,64.5603931 320.275497,68.0753237 318.944044,71.5823288 C318.856866,71.8131571 318.722135,72.03606 318.683499,72.2748137 C318.645854,72.508614 318.701331,72.7602466 318.716191,73.0049444 C318.955932,72.9217274 319.256103,72.9068672 319.427488,72.7453864 C323.428783,68.9649538 327.532116,65.2895332 331.147052,61.0989593 C336.223218,55.2133329 341.905671,49.8636641 348.170634,45.2629489 C352.434455,42.1333927 356.842913,39.1593731 361.425728,36.5707278 C365.052552,34.5220028 369.182633,33.7978161 373.349368,33.6472329 C373.809037,33.631382 374.339043,33.6333634 374.70757,33.4045164 C376.21338,32.4673337 378.457236,33.013198 379.227973,34.6706047 C379.434031,35.1134384 379.459788,35.8465412 379.244814,36.2685706 C376.685927,41.2923059 374.079488,46.2902835 371.460171,51.2803357 C368.256361,57.3799488 366.114544,64.134401 363.76865,70.6233511 C363.673546,70.8848905 363.698313,71.1929918 363.667602,71.4792981 C363.94796,71.3693327 364.271908,71.3188081 364.499761,71.1375137 C367.778861,68.5478778 370.988614,65.8591738 374.325173,63.3537456 C381.836393,57.7108357 389.756757,52.7891404 398.319072,49.023568 C401.734884,47.521698 405.2458,46.3962862 408.942961,45.9584059 C409.286721,45.9167973 409.647323,46.0128932 410,46.0455857 C409.734502,46.359631 409.526462,46.820297 409.192608,46.9629548 C407.518385,47.6802067 405.765899,48.2122015 404.125358,48.998801 C403.526171,49.286098 402.924067,49.5690746 402.321032,49.8509871 L400.51112,50.6967888 C398.099475,51.8289519 395.704708,52.9961924 393.453918,54.4069199 C388.41936,57.5622338 383.45613,60.8542615 378.724715,64.4841108 C375.425802,67.0133154 372.415172,69.9080806 369.351046,72.7305262 C366.574213,75.2864791 363.756762,78.1990766 360.048704,79.1788585 C357.873204,79.7504805 356.133597,76.6189429 355.295495,75.0100795 C353.84219,72.218345 353.956116,69.162099 355.146895,66.2841753 C355.560993,65.2845798 356.902353,62.607764 357.536378,61.7409195 C357.626529,61.6180753 357.56907,61.3813029 357.580958,61.1960459 C357.424433,61.2683655 357.242151,61.3079926 357.116337,61.4169674 C355.534245,62.7821236 353.999705,64.2106833 352.372043,65.5173894 C350.408546,67.0935604 348.434151,68.6766661 346.341867,70.0596545 C344.252555,71.439671 341.798679,70.586696 340.244326,68.6469457 C337.365454,65.0537515 338.68601,60.7918487 340.923922,57.5384615 C342.699193,54.956747 344.629008,52.4889645 346.487495,49.9676854 C346.568729,49.8587107 346.620244,49.724969 346.683647,49.6021247 C346.521178,49.6417519 346.308185,49.6259011 346.205156,49.727941 C344.543811,51.3665248 342.796278,52.9278355 341.265701,54.6892635 C337.588354,58.9214459 335.079991,62.3333458 331.365989,66.5298638 C327.684679,70.688736 323.90034,74.7574563 320.002074,78.6963976 C318.647835,80.0645259 315.591635,82.30148 314.164087,80.1992583 C313.246731,78.8509436 312.328385,77.4768713 311.735968,75.9363648 C310.034006,71.5189253 312.851456,66.2395947 314.893216,62.475013 C315.041816,62.2025761 315.055685,61.8498943 315.132957,61.5358489 C314.927889,61.7329941 314.709943,61.9182512 314.520726,62.1312472 C311.999484,64.9774692 309.623871,67.9821998 306.911431,70.6164164 C305.31547,72.1678203 303.246962,73.2427075 301.278511,74.3106599 C299.910403,75.0516881 299.048525,74.0719061 298.44521,72.9187553 C296.872034,69.9140247 295.25626,67.6423968 297.433741,64.3483877 C300.578111,59.5921359 303.664032,54.7942755 306.757878,50.0033499 C308.485597,47.3265341 310.188549,44.6328768 311.887539,41.9362475 C312.060906,41.6608386 312.12629,41.3121195 312.241207,40.9970834 C311.923203,41.0357199 311.596284,41.0337385 311.289178,41.1179463 C308.961116,41.7559438 307.003562,42.3741278 304.855801,43.4836887 C302.307812,44.8003016 301.56085,45.6413885 300.344314,48.2112109 C298.544907,52.0105564 297.342649,54.6724711 296.192374,57.191326 L295.810126,58.0270098 C294.982853,59.8320886 294.151099,61.6201767 293.10949,63.7658683 C285.883581,78.6528077 270.489643,98.1196581 254.143675,98.1196581 C244.753164,98.1196581 238.999384,91.4305908 237.967111,86.9556919 C237.778885,86.1413534 238.775493,85.5509085 239.370883,86.139372 C240.935142,87.6868133 244.28557,92.0745324 250.176063,91.7446361 C269.168096,90.6796558 284.358948,67.8940294 290.48621,53.3459022 C290.590229,53.0992231 290.615987,52.8158887 290.677408,52.5503867 C290.460452,52.7534759 290.222693,52.9377423 290.030504,53.1636172 C288.577199,54.8774926 287.223951,56.6765664 285.678514,58.3072247 C284.669369,59.371824 283.672682,60.4517745 282.675959,61.5329918 L281.479075,62.8301592 C277.683825,66.9340727 273.815914,70.974928 269.18989,74.1798902 C267.211533,75.5509905 265.133119,76.8933611 262.46724,76.3514595 C258.581853,75.561888 257.164212,71.3148454 257.243465,67.4085964 C257.275166,65.8066678 257.558496,64.261208 258.027081,63.0357375 C258.628414,61.4625386 259.459582,59.9785009 260.169888,58.4459198 C260.278861,58.2091475 260.274899,57.9208597 260.323441,57.6553577 C260.116392,57.7960341 259.884577,57.9089716 259.71022,58.0823405 C259.556254,58.2350702 259.302534,58.5167947 259.031041,58.8188716 L258.701966,59.1841801 C258.429373,59.4851563 258.1718,59.7630281 258.01123,59.9091533 C252.313917,65.0715837 246.748363,70.3925228 240.930189,75.4202208 C239.315406,76.8150974 237.47376,78.0385865 235.120931,78.1990766 C232.955338,78.3466878 231.570389,77.4124771 230.663931,75.484615 C229.297804,72.5769709 230.578734,70.2013217 231.715026,67.7206605 C231.866598,67.3907642 231.895327,67.0053899 231.981515,66.6447826 C231.66153,66.8637228 231.312816,67.0499705 231.027505,67.3065565 C229.000605,69.1274252 227.049986,71.0414178 224.942842,72.7612373 C223.949205,73.5726037 222.752482,74.1551232 221.563685,74.6167798 C221.040614,74.8188784 220.552216,74.6970249 220.05094,74.4691686 C215.851512,72.5561667 217.210704,66.3277652 218.886909,63.1447123 C222.310646,56.6448647 227.213446,51.5854649 233.407081,47.7337034 C234.622627,46.977815 235.919407,46.1149332 237.276618,45.8880676 C239.061795,45.5908638 241.047087,45.5244883 242.754003,46.019828 C244.158765,46.4269972 244.77694,46.223908 245.205898,45.0410367 C245.623958,43.8888766 246.547258,43.6927221 247.575568,43.6758805 C249.181435,43.6491322 250.017556,44.9033323 249.430092,46.3972769 C248.493914,48.7828329 247.48938,51.1475846 246.383798,53.4588397 C244.500545,57.3928276 242.478598,61.2614307 240.590391,65.1934373 C239.324322,67.8296352 238.182085,70.5252739 237.000222,73.2020896 C236.891249,73.4487688 236.897193,73.7449819 236.84865,74.0184095 C237.113158,73.9203322 237.433143,73.8866491 237.636229,73.7152616 C238.05995,73.3593246 238.485087,73.0049242 238.910902,72.6512574 L241.468048,70.5316367 C243.170385,69.1158606 244.860014,67.6861282 246.489799,66.1910514 C252.387226,60.7839232 257.998351,55.0518522 264.070135,49.8527666 C271.947901,43.1072305 280.467618,37.2582593 290.415873,33.8592383 C292.312005,33.2103432 294.446887,32.6288144 296.482703,33.2866256 C296.628806,33.3338215 296.776736,33.3871518 296.925895,33.4424872 L297.225678,33.5546083 C298.229245,33.929101 299.269839,34.2703702 300.170948,33.3549824 Z M57.5833783,3.23471021 C62.2167521,1.25182566 66.9802656,-0.391333904 72.1808899,0.0821020652 C74.4667803,0.290096947 76.6841239,1.09533428 76.8748631,3.62593867 C77.4391333,11.0929549 68.7138071,23.3567294 64.2532907,31.4308926 C63.2211133,33.2998752 62.1412511,35.1411251 61.0931788,36.9992127 C61.0007895,37.1616468 60.978934,37.3627085 60.9252886,37.5459421 C61.1170212,37.4508587 61.3604124,37.4003457 61.4935325,37.2517779 C64.144013,34.2873556 66.7110452,31.2436972 69.4390135,28.349597 C75.359877,22.0681515 81.6890418,16.2720275 89.2421165,11.9180013 C92.990341,9.75782589 101.360018,7.68877204 101.518967,14.1732601 C101.584534,16.8425277 100.577193,19.8346827 99.8579467,22.3969815 C98.121425,28.5843341 94.6752042,34.0347904 91.8419319,39.7467261 C89.0394561,45.3962632 86.2538686,51.0547145 83.5090119,56.7309939 C81.5718166,60.7373715 79.7160829,64.7813862 77.8196184,68.8075729 C76.4168903,71.7848711 74.9535628,74.7334461 73.6173947,77.7394674 C72.410373,80.4533054 71.3374649,83.2235991 70.2158785,85.9750743 C70.1811083,86.0602531 70.2625699,86.1929737 70.2893926,86.3029138 C70.3398485,86.2648596 71.2483448,85.3732609 72.6903934,83.9334914 L73.0465631,83.5775782 C75.1210258,81.5028677 78.134333,78.4594459 81.2702491,75.2154669 L81.8247527,74.6410745 L81.8247527,74.6410745 L82.380805,74.0634564 C82.4735541,73.96697 82.5663261,73.8703883 82.6591004,73.7737308 L83.2156067,73.1930331 L83.2156067,73.1930331 L83.7711696,72.6114549 C86.0826651,70.1876811 88.3436344,67.7654091 90.2295894,65.6500125 C92.0301876,63.6304193 95.4105645,59.7423378 98.8568792,55.8687268 L99.5703541,55.0681142 C103.494179,50.6726743 107.368195,46.4641251 108.961771,45.2169915 C109.708833,44.6326249 110.395296,43.8828529 111.242694,43.530252 C113.435202,42.6190363 115.00582,45.1813352 114.586592,47.5386105 C114.220015,49.604693 113.331885,51.1141416 112.333484,52.9395443 C109.67605,57.8016723 107.045438,63.1342649 104.241969,67.9181472 C104.071098,68.2103304 101.156364,74.066872 103.248535,73.297291 C103.656836,73.1467423 104.051229,72.9823273 104.338332,72.7059912 C109.141583,68.0894953 113.889201,63.4155532 118.662649,58.7693437 C123.580145,53.9824901 128.408232,49.0985721 133.463815,44.4612767 C137.428608,40.8243376 143.34053,35.2589889 148.221269,32.9235035 C150.710813,31.7319899 151.471783,31.278363 154.18187,30.7781848 C157.534708,30.1591525 160.46335,33.6911036 159.259308,37.1745227 C158.865909,38.3135423 156.877055,43.4926148 155.349154,41.4057329 C155.030262,40.9709245 155.032249,39.1564168 155.428629,36.2603357 C155.610427,34.9301589 155.308423,34.7063168 154.431222,35.1094306 C152.099633,36.1801091 150.31344,37.4330306 148.449759,39.1791972 C144.530664,42.8517925 141.021856,46.9691007 138.105136,51.4786279 C135.329483,55.7682747 132.278648,60.7353906 131.820676,65.9263485 C131.772991,66.4681257 131.70047,67.0118837 131.704444,67.5556418 C131.733253,71.035099 132.250832,70.9598247 135.20431,70.1575587 C140.611568,68.69169 145.369121,65.7748094 149.724334,62.3864737 C155.691889,57.746207 161.819386,53.2138994 167.564412,48.3012584 C170.471199,45.8162148 172.938887,43.4242737 176.30762,41.454265 C178.039175,40.4410328 179.835303,39.9200551 181.855946,40.63219 C182.135101,40.7312352 182.662614,40.344959 182.981506,40.0745656 C183.158205,39.9250734 183.329182,39.7363505 183.497205,39.539481 L183.747372,39.2419522 C184.120339,38.7981505 184.485366,38.391788 184.873997,38.3769312 C186.208178,38.3264182 187.64965,38.65921 188.864619,39.2178248 C189.987199,39.7338502 189.69215,40.8461276 189.485515,41.5275584 C188.50897,44.7356319 186.812186,47.8664501 185.723383,51.0408482 C185.115537,52.8132167 184.576082,54.3017123 184.057176,55.7780384 L183.835907,56.4107966 C183.689047,56.8331949 183.543306,57.2577684 183.397569,57.690854 L183.178827,58.3476588 C182.37576,60.7851608 181.555929,63.5760064 180.533686,67.7745316 C180.482028,67.9854979 180.523752,68.229149 180.523752,68.4579434 C180.695616,68.2964997 180.908211,68.1608079 181.034377,67.9696506 C187.572163,58.0889033 194.850056,48.7647899 202.459757,39.6952226 C204.823135,36.8783776 207.280889,34.1348261 209.788315,31.4457494 C210.488686,30.6939964 211.299328,30.0175178 212.1507,29.4182945 C214.124653,28.0316619 217.147671,28.2634277 218.734184,30.076945 C221.519771,33.2602571 217.83016,43.9739744 217.810291,44.404821 C218.056662,44.1750361 218.344758,43.9769458 218.545432,43.7124951 C223.913946,36.6198697 232.21905,30.703901 241.076503,32.6025971 C243.125956,33.0413672 243.618699,33.4177389 244.754194,34.0040864 C246.406274,34.8568654 248.08915,36.6684018 246.251298,38.2570865 C245.060463,39.2855542 243.82735,38.4879055 242.669742,37.689057 L242.369548,37.4818345 C241.922058,37.1745595 241.487697,36.8913991 241.073523,36.7416952 C239.410515,36.1414814 237.071973,36.4009798 235.479499,37.0091172 C231.912079,38.3729694 228.562221,40.5945528 225.70908,43.0350261 C219.505088,48.3428574 215.329687,56.4239538 211.441389,63.4630949 C208.782961,68.2806525 206.619263,72.6445832 204.205219,77.5849569 C204.184357,77.6295272 204.166475,77.6770689 204.138659,77.7176775 C203.547566,78.5863037 203.315103,80.1175422 202.055429,79.9204423 C201.222932,79.7897027 200.512627,78.6903011 199.812256,77.9623191 C197.812475,75.8793989 197.975398,73.4775532 198.938035,71.0321277 C200.369573,67.3951886 201.885552,63.7919249 203.328018,60.1589476 C204.515171,57.1747163 205.651658,54.1706759 206.804041,51.1705973 C208.788921,45.9994484 210.775788,40.8282995 212.738813,35.6482364 C212.923592,35.1619246 212.949421,34.6151952 213.048764,34.0961984 C212.64245,34.443847 212.174543,34.7399921 211.841742,35.1460774 C210.840181,36.3668543 209.832478,37.5830472 208.822575,38.797615 L205.790205,42.4394014 C202.253935,46.6893677 198.738987,50.9556693 195.414326,55.3651608 C191.659148,60.3421812 188.566589,65.8144275 185.116395,71.0242041 C183.725588,73.1239619 182.271201,75.2009394 180.656872,77.1303395 C177.136144,81.3377789 173.227976,75.4158674 172.540521,71.7541671 C171.83717,68.003326 172.542507,64.0761845 173.238904,60.3778375 C173.29255,60.0915969 173.350169,59.7974327 173.395867,59.504259 C173.167377,59.6557981 172.901137,59.7697 172.716358,59.9618477 C169.583069,63.2293482 166.860068,66.4473262 163.24695,69.2205913 C161.833294,70.3061265 160.417652,70.6696223 159.294078,69.04231 C158.502312,67.8953668 158.101958,66.3631378 158.040365,64.9834384 C157.944002,62.8490147 158.586754,61.1137432 159.546411,59.2447606 C159.839473,58.6732699 160.889533,57.046948 161.028613,56.7577361 C160.762373,56.9409696 160.459376,57.0895374 160.233867,57.31437 C159.509654,58.033438 158.789414,58.7544869 158.066195,59.4745454 C152.077778,65.4350844 143.099126,72.3573522 137.41768,74.1104519 C133.811516,75.2237198 130.167602,73.8222304 128.061523,70.6547655 C124.308332,65.0101806 125.529261,59.6409413 128.485719,54.2419884 C128.759907,53.7408198 128.95462,53.1960713 129.187083,52.6721223 C128.780769,53.0712744 128.349619,53.4466556 127.977081,53.8745308 C126.317054,55.7811506 124.540795,57.6065533 123.052632,59.6399509 C118.886172,65.3340584 113.643823,70.0109718 108.725334,74.9959159 C108.064701,75.6654613 107.311678,76.2468565 106.598393,76.8658889 C104.471452,78.7101102 101.518967,77.8553503 99.3354007,76.278551 C97.1717026,74.7166084 96.4604042,72.3246673 97.6435835,69.9772965 C99.5380611,66.2185318 101.683877,62.5845641 103.720416,58.8951311 C104.727758,57.0707188 105.733112,55.2453161 106.722572,53.4119898 C106.827876,53.2188517 106.816948,52.9633151 106.859666,52.7365017 L106.859666,52.7365017 L106.549126,52.9427358 L106.549126,52.9427358 L106.407654,53.0603794 C100.495731,59.0328039 97.0614315,63.2402432 91.5955604,69.3642068 C84.5789398,77.2264134 77.892139,85.908714 70.9887697,92.6249678 C67.4650612,96.0519311 64.3506472,94.6781744 61.5203552,91.3482754 C59.2414188,88.6671223 59.2344648,85.1747892 60.4663223,82.0152479 C62.0448881,77.9652904 64.0128798,74.057958 65.9778912,70.171425 C68.7972555,64.5932004 71.6464227,59.0238898 74.7032175,53.572443 C78.2994467,47.1592675 82.3079508,40.971915 85.8088104,34.5092168 C89.1874777,28.2713513 92.162811,21.8145959 95.2672906,15.4301435 C95.5990974,14.7487126 96.0034248,13.631483 95.7640073,13.1461616 C95.2583497,12.7648376 94.2659096,13.5958267 93.6628955,14.0237019 C90.5504684,16.2353808 87.4519494,18.4698401 84.4130364,20.7805642 C77.1917684,26.2706386 71.381176,33.1780496 65.3649428,39.8626089 C61.2799443,44.4008592 57.1889852,48.9628802 53.4924193,53.8111419 C51.6094807,56.2814811 49.9391017,58.9138559 48.2979224,61.5676969 L47.069648,63.5599062 C46.4553832,64.555827 45.8387785,65.5498245 45.2101643,66.534486 C42.8457926,70.2387758 40.458572,73.9311801 38.1995042,77.6988589 C37.5249629,78.8250026 36.9835417,79.8738911 35.5917413,80.2601673 C34.7373886,80.4978757 32.8220488,80.1036759 32.192212,79.4668154 C31.2583845,78.5209339 30.1874632,77.7067825 29.2893993,76.7311874 C28.0903251,75.4287433 27.8926319,73.7984596 28.6466479,72.280097 C30.2987278,68.9511884 31.9816041,65.6222798 33.8999241,62.4429295 C40.1655091,52.062004 46.4688445,41.6998971 52.9043066,31.4219785 C54.9736286,28.117336 57.1110007,24.855283 59.2637711,21.6026392 L62.4978938,16.726583 C63.5753966,15.1008182 64.6501674,13.4732583 65.7156248,11.8397556 C67.3388951,9.34975974 68.8965988,6.81618398 70.446355,4.27963687 C70.6619301,3.92703603 71.5470793,2.6859999 71.6444358,2.26109607 C71.22322,2.2789242 70.1860755,2.48295727 69.7867152,2.58398336 C60.4285718,4.93333508 51.9933281,9.43989085 43.9455235,14.6050971 C38.6872801,17.9795664 33.3306867,21.2015062 27.9234283,24.3352958 C22.4645113,27.4978084 16.4065539,30.9059531 10.05156,31.8102356 C8.39252605,32.0459632 6.90038896,32.2311777 4.76848071,32.1866073 C4.13268328,32.1737315 0.236437169,31.9865361 0,31.4576348 C0,31.4576348 1.31629936,31.2486495 2.06236791,31.2120027 C5.29202016,31.0475877 8.42729622,30.7732326 11.499986,29.6025185 C20.6614296,26.1101854 29.2407211,19.5910315 37.5875492,14.5426986 C44.1461971,10.5759391 50.5101319,6.26351187 57.5833783,3.23471021 Z M298.298592,36.9818598 C298.730521,35.7861097 294.404289,36.3458436 293.932732,36.4042937 C290.984514,36.7658916 288.276037,38.0963741 285.86674,39.7854825 C279.170837,44.4822936 274.258131,51.9361654 269.72584,58.5955124 C268.360704,60.6016382 267.137233,62.6989065 266.126755,64.9031682 C265.273793,66.7626735 263.701608,69.2681017 264.049331,71.36537 C264.175146,72.1291838 269.398921,67.9267218 269.761504,67.6097044 C272.206465,65.4619114 274.632602,63.2834074 276.886365,60.9325251 C283.610006,53.9165336 290.123626,46.7033968 296.692724,39.5417753 C297.352507,38.8225421 297.835951,37.8774339 298.282741,37.0214869 C298.287694,37.0086081 298.293638,36.9957293 298.298592,36.9818598 Z M240.5894,48.1131336 C240.294182,48.0992641 239.99203,48.1240311 239.645297,48.1864439 C238.968673,48.3073068 238.303937,48.5064333 237.684771,48.8036371 C235.556824,49.8240369 233.738954,51.5280055 232.055815,53.1675799 C230.48462,54.6981796 228.977819,56.3189311 227.630515,58.0516294 C226.26637,59.8061227 225.086488,61.6943576 224.070066,63.6717537 C223.540061,64.7040417 223.052654,65.7591152 222.591995,66.8240956 C222.180869,67.7791105 221.403197,69.0253852 221.569629,70.0764961 C222.511751,69.8615187 223.332021,69.03232 224.109693,68.4557446 C225.057759,67.7543436 226.01276,67.0648307 226.949929,66.3505508 C228.708359,65.0111523 230.316207,63.5598069 231.823008,61.9420275 C233.415997,60.2321148 234.93964,58.46078 236.440497,56.6696316 C237.872998,54.959719 239.220302,53.145785 240.756823,51.5280055 C241.279894,50.9761971 241.834666,50.4224073 242.225978,49.7636055 C242.34783,49.5595255 242.67574,49.0453629 242.57172,48.7907583 C242.479589,48.5619114 241.902031,48.4261883 241.694982,48.3518873 C241.294754,48.2072481 240.948021,48.1309658 240.5894,48.1131336 Z M371.939653,35.6890221 C371.276898,35.6890221 370.533899,35.9624506 369.886995,36.1011458 C369.154894,36.2596545 368.423784,36.4409488 367.722393,36.712395 C366.259181,37.2780729 364.891073,38.2221904 363.560611,39.0603052 C360.973985,40.6889821 358.500295,42.5227297 356.324795,44.7141125 C353.9472,47.110566 351.749906,49.7933259 349.665547,52.4641976 C347.831827,54.8130984 346.12194,57.3185267 344.568577,59.8784423 C343.852327,61.0603228 343.178675,62.2907466 342.713062,63.6063689 C342.481247,64.2602173 342.297974,64.940814 342.230609,65.636271 C342.204851,65.8968197 342.212777,66.1573683 342.195935,66.4189077 C342.086962,68.102072 343.443182,67.2728734 344.315958,66.646764 C345.072826,66.102881 345.760347,65.4232749 346.472635,64.8209418 C347.994296,63.5310772 349.524873,62.2521101 351.044553,60.9592735 C353.495457,58.8758747 355.955278,56.7677089 358.242722,54.4822115 C358.703381,54.0215456 359.158097,53.5539449 359.602905,53.0784188 C361.971584,50.5472329 364.085663,47.7802653 366.247293,45.061841 C367.843254,43.0547245 369.449122,41.0575148 370.946016,38.968172 C371.236281,38.5629841 373.332527,35.6870418 371.939653,35.6890221 Z M179.039562,45.0753569 C178.656097,45.0753569 177.216612,45.0783282 175.221797,46.7868576 C172.483895,49.1342284 169.765861,51.5222077 167.501826,54.3281577 C166.363351,55.740542 165.310312,57.2242389 164.354629,58.7663723 C163.495309,60.1549858 162.323057,61.7674414 162.031981,63.3977251 C162.042877,63.3390647 163.020838,62.4776798 164.027104,61.5833961 L164.381903,61.2676541 C165.087738,60.638452 165.752646,60.0379847 166.046446,59.7370151 C167.244527,58.5108358 168.432673,57.2747519 169.585056,56.007964 C172.557409,52.7384826 175.435386,49.3838223 178.347139,46.0608564 C178.571655,45.8043294 178.742526,45.5022416 179.039562,45.0753569 Z M113.894888,32.9960321 C113.711229,31.2567055 117.787826,27.4733989 120.156287,28.104402 C120.280495,28.1378506 120.399396,28.1830514 120.512989,28.2418124 C120.95462,28.4678164 121.406868,28.7046685 121.794357,28.9966657 C123.811423,30.5271646 121.849561,33.5221693 120.136116,34.583484 C118.61907,35.5227565 114.110396,35.034588 113.894888,32.9960321 Z" id="Combined-Shape"></path>
        </g>
    </g>
</svg>