<?xml version="1.0" encoding="UTF-8"?>
<svg width="1150px" height="368px" viewBox="0 0 1150 368" version="1.1" xmlns="http://www.w3.org/2000/svg" xmlns:xlink="http://www.w3.org/1999/xlink">
    <!-- Generator: Sketch 60.1 (88133) - https://sketch.com -->
    <title>epdp/exp/m-d/scripting/palermo_L</title>
    <desc>Created with Sketch.</desc>
    <g id="epdp/exp/m-d/scripting/palermo" stroke="none" stroke-width="1" fill="none" fill-rule="evenodd">
        <g id="script" transform="translate(137.000000, 51.000000)" fill="#FEFEFE">
            <path d="M328.227134,43.9925352 C327.780939,42.1725352 326.391024,41.0998592 325.086003,39.9808451 C324.339714,39.34 323.693126,39.3804225 322.931042,39.9177465 C320.66157,41.5169014 319.576686,43.8101408 319.216374,46.4740845 C319.068301,47.5743662 319.505611,48.2152113 320.59938,48.6598592 C321.615163,49.0719718 322.689189,49.3361972 323.706947,49.7414085 C324.70891,50.1397183 325.669413,50.2047887 326.758246,49.7019718 C326.410767,47.8721127 327.990216,47.0114085 328.972437,45.6271831 C328.673328,44.986338 328.355464,44.5121127 328.227134,43.9925352 L328.227134,43.9925352 Z M517.911126,27.2743662 C517.410638,27.4725352 516.959508,27.8333803 516.537992,28.1833803 C514.65746,29.7391549 512.836158,31.3402817 511.344565,33.3121127 C510.791758,34.0426761 510.476855,34.801831 510.290282,35.6230986 C510.202425,36.0076056 510.350499,36.598169 510.619992,36.8811268 C511.25967,37.5584507 511.988191,38.1825352 512.774954,38.6814085 C513.184624,38.9407042 513.844044,39.071831 514.302084,38.943662 C515.960506,38.4812676 517.630774,38.0001408 519.203314,37.3119718 C521.490554,36.3083099 523.636631,34.9753521 526.185468,34.533662 C526.185468,33.728169 526.186455,33.0311268 526.185468,32.3340845 C526.184481,31.0119718 525.777772,30.0171831 524.607005,29.1446479 C523.283229,28.1597183 521.501413,28.0532394 520.41258,26.5822535 C519.418514,26.8484507 518.636686,26.9894366 517.911126,27.2743662 L517.911126,27.2743662 Z M417.93197,47.215493 C417.459123,47.0261972 417.033659,46.7156338 416.612143,46.721466 C415.921134,46.7304225 415.162011,46.8014085 414.556884,47.098169 C411.457214,48.6164789 408.378275,50.1791549 405.337835,51.811831 C404.596481,52.2091549 404.047622,52.9505634 403.373394,53.4898592 C402.820587,53.9315493 402.204602,54.2914085 401.637974,54.7153521 C401.135512,55.0919718 400.590602,55.4439437 400.188829,55.9132394 C397.994381,58.4864789 395.810792,61.0705634 393.676561,63.6930986 C391.095148,66.8657746 388.559145,70.0769014 386.016231,73.2811268 C385.037959,74.5125352 383.993548,75.7074648 383.158414,77.0325352 C382.242334,78.4867606 381.499005,80.056338 380.753703,81.6101408 C380.540477,82.0547887 380.579963,82.6216901 380.493093,83.2043662 C381.599695,83.3443662 382.093273,82.6305634 382.645093,82.1425352 C385.414066,79.694507 388.138616,77.1991549 390.894756,74.7383099 C392.535409,73.2752113 394.109923,71.715493 395.884829,70.4357746 C397.685402,69.1373239 399.133559,67.4987324 400.744598,66.021831 C402.998275,63.9543662 405.182851,61.8109859 407.400003,59.7040845 C410.309152,56.9405634 413.246928,54.2056338 416.118565,51.4046479 C417.194565,50.3556338 418.114594,49.1498592 417.93197,47.215493 L417.93197,47.215493 Z M415.360429,43.8742254 C415.484811,44.0802817 415.723703,44.473662 415.962594,44.8670423 C417.271563,45.0869014 418.57757,45.3057746 420.132341,45.5670423 C420.602227,44.9340845 421.207354,44.2242254 421.695996,43.4414085 C422.351468,42.3904225 423.209306,41.9546479 424.456084,42.0926761 C425.554789,42.2139437 426.60611,42.3569014 427.618932,42.8764789 C428.367196,43.2609859 428.873607,43.7430986 429.225035,44.5022535 C430.026605,46.2364789 430.022657,46.7067606 428.571537,48.0042254 C427.358323,49.0897183 426.593277,50.3812676 425.99506,51.8838028 C423.493607,58.1729577 420.655534,64.3102817 417.605222,70.3569014 C416.013926,73.5128169 414.712855,76.8156338 413.29135,80.0573239 C411.490778,84.1626761 409.688231,88.2670423 407.913325,92.3842254 C407.384209,93.6107042 406.881747,94.8559155 406.48491,96.1307042 C406.151251,97.2073239 405.569816,97.8146479 404.456304,98.1725352 C403.319101,98.5383099 402.367482,98.9060563 401.078257,98.4752113 C399.720917,98.0216901 398.915398,97.2349296 398.430704,96.04 C397.751541,94.3649296 397.090147,92.6721127 396.601504,90.9369014 C396.403086,90.2369014 396.526481,89.3466197 396.775244,88.6397183 C397.823603,85.6730986 398.806811,82.6660563 400.131574,79.8207042 C401.55604,76.7614085 403.3576,73.8776056 404.951857,70.8952113 C405.786003,69.3315493 406.529332,67.7185915 406.992308,65.8966197 C405.474062,67.2966197 403.93015,68.67 402.441519,70.0995775 C397.505739,74.8408451 392.584767,79.5978873 387.666756,84.3559155 C385.924425,86.041831 383.873115,87.1214085 381.517761,87.686338 C380.918558,87.8302817 380.454594,87.768169 379.979772,87.406338 C378.983732,86.6491549 377.954128,85.9343662 376.978818,85.1505634 C376.694517,84.921831 376.449703,84.5471831 376.357897,84.1952113 C375.836679,82.1967606 375.606671,80.185493 376.217721,78.1515493 C376.930448,75.7853521 378.025203,73.6114085 379.545424,71.6711268 C381.828715,68.7547887 384.102136,65.8276056 386.495989,63.0039437 C387.917493,61.3269014 389.490033,59.7583099 391.121802,58.2823944 C393.981592,55.6953521 396.942073,53.2177465 399.856158,50.6898592 C401.4208,49.3332394 403.195706,48.3216901 405.073277,47.4767606 C406.724789,46.7343662 408.379262,45.9949296 410.05644,45.3116901 C410.705002,45.0474648 411.417728,44.9449296 412.099853,44.7615493 C413.146238,44.4795775 414.191637,44.1926761 415.360429,43.8742254 L415.360429,43.8742254 Z M211.697321,1.3171831 C211.407097,2.21535211 211.299497,3.19042254 210.896737,4.02746479 C209.735842,6.44 208.527563,8.8328169 207.226492,11.1714085 C204.737871,15.644507 202.240367,20.113662 199.626378,24.5138028 C194.699482,32.8023944 187.222763,49.8252113 184.515981,56.1133803 C182.211959,61.4649296 179.715442,66.7346479 177.399574,72.0822535 C175.364059,76.7791549 173.375926,81.5115493 172.414437,86.5742254 C172.002792,88.7432394 171.456895,90.8649296 170.869537,92.9895775 C170.45197,94.5 170.256514,96.0784507 170.054147,97.638169 C169.889292,98.91 170.093633,100.141408 170.766873,101.281127 C171.518099,102.551972 174.895159,104.790986 176.354176,104.930986 C177.396613,105.030563 177.757912,104.761408 178.208055,103.6 C178.344282,103.25 178.446947,102.763944 178.718414,102.610141 C179.685827,102.059014 179.808235,101.134225 180.001717,100.206479 C180.12906,99.5932394 180.269237,98.9790141 180.460745,98.3835211 C180.841787,97.1915493 181.283046,96.0173239 181.660139,94.8233803 C182.015515,93.7033803 182.220844,92.5261972 182.666051,91.4466197 C184.615684,86.7230986 186.568279,81.9976056 188.638345,77.326338 C190.963097,72.0783099 193.46455,66.9091549 195.801148,61.6650704 C198.359857,55.9191549 193.339181,67.6623944 195.847545,61.8928169 C196.129871,61.2450704 201.859325,48.4774648 204.92247,42.9721127 C207.332117,38.6390141 211.656848,29.9402817 214.211607,25.6949296 C216.249097,22.3092958 218.082246,18.8457746 219.630106,15.2195775 C220.155273,13.9891549 221.009163,12.8030986 221.156249,11.5322535 C221.31222,10.1815493 220.813706,8.75394366 220.594558,7.36084507 C220.521508,6.8984507 220.523482,6.38577465 220.313218,5.99140845 C219.914407,5.24309859 219.536326,4.35380282 218.885791,3.89535211 C216.838429,2.45098592 214.721967,1.08746479 212.324165,0 C212.081325,0.501830986 211.834536,0.892253521 211.697321,1.3171831 L211.697321,1.3171831 Z M352.898136,50.1091549 C352.898136,50.1091549 352.817189,50.0105634 352.818176,50.0085915 C352.711563,50.5242254 352.70564,51.0940845 352.475633,51.5515493 C351.597064,53.3015493 350.611882,54.9983099 349.730352,56.746338 C347.784668,60.6052113 345.814304,64.4522535 343.971284,68.3594366 C341.82422,72.9104225 339.819306,77.5274648 337.719625,82.1001408 C336.639677,84.4515493 337.001963,86.5022535 338.769959,88.3725352 C339.410624,89.0508451 339.939739,89.833662 340.490572,90.5316901 C340.304987,90.9901408 340.163824,91.3391549 340.000943,91.7404225 C340.733413,92.866338 341.557688,93.928169 342.70575,94.6528169 C344.543835,95.8142254 345.206216,95.4307042 346.149937,94.2209859 C346.777769,93.415493 347.354268,92.5616901 347.881409,91.6861972 C350.641497,87.0987324 353.367035,82.4885915 356.772723,78.3329577 C359.918789,74.4947887 363.039189,70.6349296 366.253369,66.8559155 C370.183237,62.2369014 374.209846,57.6997183 378.679688,53.584507 C382.270961,50.2787324 385.90567,47.0232394 390.109967,44.485493 C390.763464,44.0911268 391.467306,43.7815493 392.28862,43.3605634 C393.15633,45.0908451 394.265893,46.3685915 396.121747,46.6091549 C397.648877,45.9190141 398.867027,44.9676056 399.722892,43.5498592 C399.8068,42.6487324 399.506704,41.8747887 398.799901,41.2674648 C397.830514,40.4353521 396.802884,39.7294366 395.456403,39.6564789 C392.563049,39.4977465 389.863178,39.9423944 387.283739,41.4557746 C382.344998,44.3533803 377.979794,47.9707042 373.890007,51.905493 C368.662029,56.933662 363.754877,62.2753521 359.18237,67.9157746 C358.752958,68.4461972 358.240624,68.9115493 357.578242,69.6046479 C357.44695,68.6778873 357.584165,68.1464789 357.886235,67.5707042 C358.798367,65.8276056 359.624616,64.0391549 360.516018,62.2861972 C361.691721,59.9722535 362.812143,57.6257746 364.114202,55.3838028 C365.887134,52.3294366 367.932521,49.4269014 369.609699,46.3232394 C370.3244,45.0030986 370.722224,43.3309859 370.676814,41.8353521 C370.636341,40.495493 369.844642,39.1556338 369.28295,37.8591549 C368.862422,36.8880282 368.104286,36.224507 367.018414,35.9543662 C366.262253,35.7660563 365.535706,35.4643662 364.75684,35.1991549 C364.339273,35.5935211 364.008576,36.1367606 363.542638,36.3043662 C361.990829,36.8653521 361.317589,38.2269014 360.412367,39.4021127 C359.742088,40.2707042 359.072796,41.1876056 358.228778,41.8649296 C351.512169,47.2450704 345.108488,52.9702817 338.967391,58.9942254 C335.080958,62.8057746 331.25178,66.6656338 327.646686,70.7532394 C322.850095,76.1915493 317.926161,81.5194366 313.058495,86.8966197 C312.386242,87.6390141 311.68931,88.3429577 310.399097,88.9009859 C310.796921,87.8657746 311.012121,87.1204225 311.355651,86.4411268 C313.628084,81.9512676 315.931119,77.478169 318.219347,72.9971831 C319.11371,71.248169 319.862961,69.405493 320.927115,67.7678873 C321.798774,66.4280282 322.531244,65.0921127 322.863915,63.5747887 C321.554947,60.8773239 320.771145,60.0126761 318.478969,58.7398592 C317.976506,59.2860563 317.234165,59.7583099 316.990337,60.4159155 C315.994297,63.0877465 314.458282,65.4657746 313.139442,67.9630986 C310.308279,73.3215493 307.633086,78.7647887 304.690374,84.0601408 C303.394238,86.3947887 302.986543,88.6239437 303.452481,91.245493 C304.054646,94.6232394 303.953956,94.6173239 307.289556,95.713662 C308.736726,96.1888732 309.934147,95.9216901 311.074312,95.1250704 C311.778154,94.6330986 312.406972,94.0178873 313.013086,93.403662 C314.67447,91.7207042 316.331904,90.0328169 317.942943,88.3025352 C319.875794,86.2261972 321.81062,84.1478873 323.650679,81.9897183 C325.996161,79.2370423 328.170866,76.3364789 330.56077,73.6232394 C333.62589,70.1449296 336.795648,66.7573239 339.984161,63.3914085 C343.22993,59.9633803 346.545787,56.6004225 349.850785,53.2285915 C350.783648,52.2771831 351.804367,51.4125352 352.415416,50.19 C352.458851,50.1032394 352.694781,50.1111268 352.840881,50.0746479 L352.898136,50.1091549 Z M618.427295,62.2891549 C619.399644,61.8839437 619.998848,61.7192958 620.510194,61.4097183 C625.560484,58.3405634 630.363985,54.9184507 634.799277,51.0171831 C637.578121,48.5711268 639.961115,45.7435211 641.84066,42.5077465 C641.397427,41.4794366 640.970976,40.4905634 640.545512,39.5026761 C639.316503,39.1901408 638.253336,39.5460563 637.319486,40.0952113 C634.266213,41.8935211 631.643339,44.2469014 629.198154,46.783662 C627.729266,48.3059155 626.445963,50.0056338 625.008664,51.5614085 C622.226859,54.5704225 619.814249,57.7953521 618.427295,62.2891549 L618.427295,62.2891549 Z M707.252576,47.5861972 C707.440136,49.6487324 706.871534,51.0723944 705.627717,52.348169 C704.151919,53.8615493 702.823207,55.5188732 701.443163,57.1249296 C699.520183,59.3639437 697.04637,60.9128169 694.656466,62.5711268 C692.463992,64.0943662 690.338646,65.7191549 688.100763,67.1704225 C686.191603,68.4087324 684.175831,69.4833803 682.187699,70.5964789 C679.244987,72.2459155 676.307211,73.908169 673.325013,75.4856338 C670.336892,77.0650704 667.32804,78.6090141 664.274767,80.056338 C661.006293,81.6052113 657.696359,83.0712676 654.364708,84.4821127 C652.267989,85.3694366 650.114014,86.1325352 647.959053,86.8719718 C645.440818,87.7356338 642.921596,88.6259155 640.349068,89.2992958 C637.004583,90.1738028 633.629497,90.9783099 630.22677,91.5728169 C626.076767,92.2984507 621.925776,92.33 617.916936,90.6519718 C616.914972,90.2329577 615.69386,90.2319718 614.806407,89.6719718 C613.2852,88.7087324 611.81335,87.5867606 610.557688,86.3011268 C607.355354,83.0259155 605.587358,79.0349296 605.349453,74.4504225 C605.11451,69.9083099 605.858825,65.5052113 607.57549,61.2785915 C609.097684,57.5321127 611.047317,54.0478873 613.63564,50.9107042 C615.994943,48.0515493 618.263427,45.1253521 621.239703,42.8469014 C624.433152,40.401831 627.63055,37.9626761 631.321526,36.3004225 C632.460704,35.7867606 633.688726,35.4623944 634.890095,35.0966197 C636.095413,34.7288732 637.353049,34.51 638.525791,34.0614085 C640.490231,33.3101408 642.406301,33.4471831 644.279923,34.2201408 C645.582969,34.7584507 646.843567,35.4209859 648.073563,36.1150704 C649.608591,36.9816901 650.169295,38.5759155 649.311457,40.1247887 C646.908719,44.461831 644.328293,48.6292958 640.489244,51.9725352 C637.762719,54.3476056 635.118128,56.7956338 632.12211,58.8295775 C627.432132,62.0130986 622.675027,65.0921127 617.510227,67.4642254 C616.320704,68.0104225 615.629695,68.8021127 615.269383,70.0078873 C614.56949,72.3612676 614.646488,74.7383099 615.482609,76.9812676 C616.186451,78.8673239 617.865603,79.8650704 619.812275,80.3028169 C622.082734,80.8135211 624.373923,80.6764789 626.63451,80.2821127 C633.015486,79.1660563 639.232594,77.4269014 645.348025,75.3032394 C647.429937,74.5805634 649.57404,74.036338 651.652991,73.3038028 C653.800055,72.5476056 655.931325,71.7273239 658.018172,70.8183099 C664.803882,67.8664789 671.6044,64.9432394 678.325945,61.8533803 C684.767137,58.8926761 691.137255,55.7791549 697.497501,52.6508451 C700.463904,51.1916901 703.333567,49.5373239 706.2516,47.9795775 C706.517145,47.8376056 706.815266,47.7557746 707.252576,47.5861972 L707.252576,47.5861972 Z M483.612392,40.3623944 C481.636106,41.7880282 479.593681,43.1209859 477.582844,44.4983099 C474.784257,46.4129577 471.995541,48.3423944 469.18807,50.2452113 C464.164433,53.6495775 459.11513,57.0164789 454.105314,60.4425352 C451.308701,62.3552113 448.630547,64.4453521 445.790499,66.2890141 C442.340389,68.5280282 439.223937,71.1643662 436.113409,73.8253521 C433.778785,75.821831 431.433303,77.8084507 429.028591,79.7201408 C426.998011,81.3360563 424.888459,82.8553521 422.784829,84.3766197 C422.232022,84.7769014 421.592345,85.0805634 420.955629,85.3359155 C419.205402,86.0359155 418.372242,87.4349296 418.834231,89.2312676 C419.338668,91.1932394 419.58447,93.2725352 421.099754,94.8923944 C422.016822,95.2808451 422.973376,95.2946479 424.038517,95.2187324 C427.474807,94.9732394 430.618899,93.6807042 433.862693,92.7509859 C438.998866,91.2780282 444.06495,89.5753521 449.354132,88.6416901 C452.682822,88.0540845 455.934514,87.0435211 459.246422,86.3395775 C463.020319,85.5370423 466.810998,84.793662 470.616484,84.1577465 C473.488121,83.6776056 476.400231,83.4321127 479.286675,83.0377465 C485.164202,82.2342254 489.246092,82.0567606 495.034774,82.308169 C496.828437,82.3860563 498.667508,82.5270423 500.340737,81.3823944 C500.415761,80.5098592 499.891581,79.6925352 500.354558,78.6839437 C503.611185,71.598169 506.602268,64.3891549 510.287321,57.5025352 C510.583468,56.9494366 510.926011,56.3795775 511.039534,55.778169 C511.350488,54.1297183 512.006947,52.6478873 512.840106,51.205493 C513.683137,49.7453521 513.159945,48.2743662 511.568649,47.8464789 C510.5272,47.5664789 509.393945,47.5477465 508.305112,47.564507 C507.910249,47.5694366 507.447273,47.9470423 507.149152,48.276338 C506.678279,48.7949296 506.261699,49.384507 505.930014,50.0016901 C504.62993,52.4230986 503.260745,54.8169014 502.121567,57.3132394 C499.670459,62.6874648 497.364462,68.1277465 494.955802,73.5216901 C494.334881,74.9138028 493.800829,76.264507 494.674462,77.9395775 C493.97753,77.8725352 493.527387,77.8301408 493.078231,77.7857746 C489.862077,77.4683099 486.648884,76.918169 483.430756,76.883662 C477.664778,76.8225352 471.920517,77.3973239 466.220679,78.2856338 C463.026242,78.7835211 459.842664,79.3553521 456.659086,79.9173239 C450.911864,80.9308451 445.169578,81.9630986 439.425317,82.984507 C438.727398,83.1087324 438.027504,83.2359155 437.322675,83.3157746 C436.984081,83.3542254 436.52604,83.603662 436.335519,82.9135211 C437.463838,82.2371831 438.67113,81.6407042 439.73331,80.85 C442.260429,78.9708451 444.690807,76.9615493 447.210029,75.074507 C450.300814,72.7605634 453.407394,70.4643662 456.572216,68.2539437 C461.094378,65.0970423 465.666884,62.0101408 470.237416,58.9242254 C472.125846,57.6494366 474.068569,56.4584507 475.982664,55.2211268 C477.167251,54.4550704 478.356774,53.6959155 479.520631,52.8983099 C481.991482,51.204507 484.382374,49.3884507 486.921339,47.8040845 C490.659699,45.4704225 494.498748,43.2964789 498.291402,41.0515493 C500.357519,39.8290141 502.515442,38.7297183 504.031714,36.7677465 C504.505548,36.155493 505.02578,35.5767606 505.493692,34.9595775 C505.672367,34.7249296 505.854991,34.4350704 505.885592,34.1540845 C506.044525,32.6683099 505.461115,31.3876056 504.539112,30.3011268 C503.936947,29.5912676 503.13735,29.0470423 502.421662,28.4338028 C500.504605,26.7902817 498.378271,25.725493 495.752437,25.9502817 C494.970609,26.0173239 494.176936,25.9522535 493.389185,25.9384507 C488.339882,25.853662 483.291567,25.7156338 478.242264,25.6959155 C475.086326,25.6830986 471.92644,25.7915493 468.774451,25.9414085 C461.995651,26.2638028 455.218825,26.6246479 448.442987,27.0209859 C446.082697,27.1590141 443.732279,27.4764789 441.372976,27.6598592 C439.261449,27.8235211 437.142025,27.9142254 435.283211,28.023662 C434.454,27.3019718 433.868616,26.7932394 433.36418,26.355493 C432.568532,26.9391549 431.896279,27.4340845 431.108528,28.0128169 C431.071016,29.644507 430.88938,31.3787324 431.023633,33.0883099 C431.229948,35.7059155 433.171684,37.73 435.721508,38.3669014 C438.217038,38.9909859 440.745145,38.6104225 443.258444,38.6508451 C444.665141,38.6735211 446.079736,38.5207042 447.482484,38.3698592 C449.205071,38.184507 450.914825,37.8838028 452.636425,37.694507 C457.48731,37.1601408 462.334246,36.586338 467.223629,36.4788732 C473.74873,36.3349296 480.271857,36.1052113 486.796958,35.9267606 C487.415904,35.91 488.037813,35.9938028 489.219438,36.0638028 C487.065464,37.7211268 485.374466,39.0915493 483.612392,40.3623944 L483.612392,40.3623944 Z M576.318183,62.9112676 C576.269813,62.9004225 576.222429,62.8885915 576.172084,62.8807042 C577.32607,61.2007042 578.596539,59.5828169 579.616271,57.82 C582.331937,53.1290141 584.7712,48.2852113 587.307203,43.4966197 C587.759321,42.6438028 588.083108,41.393662 587.798807,40.5516901 C587.275614,39.0028169 587.608286,37.613662 587.873831,36.1643662 C588.212425,34.311831 587.675413,32.8073239 586.365457,31.4398592 C585.030822,30.0447887 583.315145,29.2235211 581.794925,28.1143662 C581.460279,27.8698592 580.91142,27.9260563 580.465225,27.824507 C578.987453,27.486338 577.965747,28.5728169 576.733776,29.0026761 C573.676554,30.0704225 570.784187,31.5069014 567.837526,32.8388732 C562.789211,35.1212676 558.009402,37.8394366 553.369769,40.8356338 C552.777475,41.218169 552.123978,41.5080282 551.491211,41.8274648 C550.584014,42.2859155 549.670895,42.7305634 548.710392,43.2067606 C548.637343,44.1542254 548.586011,45.0119718 548.505064,45.8667606 C548.311581,47.915493 548.681765,49.6497183 551.195064,50.2757746 C550.841662,51.0585915 550.608693,51.718169 550.264176,52.3116901 C548.515923,55.3197183 546.346154,58.0260563 543.950326,60.5233803 C540.843747,63.7601408 537.599952,66.8667606 534.396631,70.0108451 C531.065967,73.2801408 527.363145,76.0890141 523.483622,78.668169 C522.932789,79.0339437 522.3632,79.5702817 521.414543,79.274507 C521.515233,77.7049296 521.836059,76.1747887 522.717589,74.8477465 C523.994969,72.9242254 524.82418,70.8094366 525.686954,68.6916901 C526.246671,67.3173239 526.839952,65.9005634 527.714572,64.7214085 C529.961339,61.6916901 531.847794,58.4046479 534.484488,55.6401408 C535.677959,54.3890141 536.890187,53.1773239 538.140914,51.9843662 C539.825989,50.3802817 541.823992,49.0019718 542.544616,46.5785915 C542.693677,46.0777465 543.094462,45.6202817 543.462671,45.2209859 C545.327409,43.201831 547.221761,41.2112676 549.098345,39.2039437 C549.527758,38.745493 549.978888,38.2949296 550.334264,37.7822535 C551.214807,36.5084507 552.28291,35.6043662 553.852488,35.2011268 C555.461552,34.7880282 556.013372,33.6650704 555.727097,31.9505634 C555.664906,31.5828169 555.537563,31.2249296 555.454642,30.916338 C554.788312,30.8414085 554.222671,30.8660563 553.719222,30.7023944 C552.768591,30.3938028 551.837703,30.4509859 550.922609,30.7230986 C549.179292,31.2407042 547.494216,31.8657746 546.086532,33.1080282 C544.910829,34.1452113 543.649244,35.0857746 542.400492,36.0371831 C540.21789,37.6994366 537.745064,38.9702817 535.760881,40.8987324 C534.241648,42.3756338 532.249567,43.2609859 530.857677,44.9025352 C529.845842,46.095493 528.692844,47.1721127 527.711611,48.3877465 C526.231864,50.2215493 524.910062,52.1825352 523.409585,53.9966197 C520.740315,57.224507 518.454062,60.7235211 516.225064,64.2452113 C513.482745,68.5783099 512.371207,73.3639437 513.174752,78.4946479 C513.295185,79.2538028 513.521244,80.0622535 513.933875,80.6961972 C514.653512,81.7994366 515.367225,82.9056338 516.27146,83.906338 C517.897306,85.7066197 519.967372,86.5338028 522.205255,87.1016901 C523.153912,87.3432394 524.06407,87.1647887 524.929805,86.6521127 C527.167688,85.3309859 529.419391,84.0374648 530.982059,81.8664789 C531.11335,81.6830986 531.295974,81.5085915 531.494392,81.4090141 C534.360106,79.9597183 536.463736,77.5629577 538.791449,75.4659155 C540.825978,73.6311268 542.677882,71.5922535 544.57717,69.6115493 C545.768668,68.3702817 546.98978,67.1398592 548.036165,65.7812676 C549.793303,63.4978873 551.570183,61.2056338 553.059802,58.7487324 C554.272029,56.7473239 555.671816,54.8129577 556.322352,52.488169 C556.742881,50.9856338 557.213754,49.4712676 557.89193,48.0742254 C558.492121,46.8398592 558.907714,45.6350704 558.93338,44.2597183 C558.943251,43.7480282 559.115016,43.1160563 559.446701,42.7561972 C561.259119,40.7902817 562.961963,38.6538028 565.299548,37.2932394 C569.248172,34.9940845 573.334011,32.946338 577.708099,31.546338 C578.038796,31.4408451 578.396147,31.4122535 578.835431,31.3314085 C578.785086,31.7642254 578.823585,32.025493 578.72487,32.2138028 C576.952925,35.5540845 575.276734,38.9515493 573.354741,42.2040845 C569.82862,48.171831 566.126785,54.0360563 562.552293,59.9742254 C558.599721,66.5414085 555.409233,73.4783099 552.669875,80.6271831 C552.447765,81.2088732 552.204925,81.83 552.19604,82.436338 C552.151618,85.3378873 552.882114,88.0235211 554.66393,90.3660563 C555.549409,91.5323944 556.45858,92.6819718 557.418095,93.916338 C557.714242,93.9597183 558.102194,94.0238028 558.492121,94.0721127 C559.815897,94.2387324 560.761592,93.8364789 561.30749,92.4985915 C561.690506,91.5609859 562.274903,90.6953521 562.831659,89.8376056 C567.480176,82.6778873 572.821677,76.0485915 578.380352,69.5849296 C579.459314,68.331831 580.726822,67.1861972 581.552084,65.7822535 C583.936066,61.728169 587.26673,58.4884507 590.415758,55.0919718 C593.087002,52.2101408 595.800693,49.3647887 598.57855,46.5864789 C600.018811,45.1470423 601.633798,43.8821127 603.186594,42.5570423 C603.344539,42.4219718 603.619956,42.4239437 603.804554,42.3716901 C604.788748,43.0066197 604.708789,43.8328169 604.269504,44.6728169 C603.833181,45.5078873 603.282348,46.2828169 602.850961,47.1188732 C602.276437,48.2359155 601.821358,49.4140845 601.224128,50.5173239 C598.749328,55.0870423 596.139288,59.5877465 593.782947,64.2185915 C592.501618,66.7356338 591.562833,69.4360563 590.596407,72.1 C589.952781,73.8756338 589.537189,75.7350704 590.148238,77.6378873 C591.024833,80.3669014 592.476939,82.7192958 594.701002,84.6822535 C595.45124,82.4797183 596.192594,80.4132394 596.860899,78.3230986 C598.006,74.7392958 599.711805,71.3221127 600.095809,67.5056338 C600.141218,67.0550704 600.423545,66.6271831 600.599259,66.1914085 C601.714745,63.4180282 602.850961,60.6525352 603.93782,57.8683099 C604.393886,56.7 604.722609,55.4833803 605.148073,54.3022535 C605.519244,53.2719718 605.936811,52.2564789 606.352403,51.2419718 C607.483684,48.4804225 608.6584,45.7376056 609.749207,42.9602817 C610.40764,41.2822535 611.16775,39.6111268 611.093714,37.7398592 C611.043369,36.4897183 610.696877,36.0835211 609.471816,35.7847887 C608.249717,35.4870423 607.176679,35.7522535 606.11055,36.4423944 C599.796701,40.5270423 593.970506,45.22 588.62407,50.4907042 C585.937031,53.1388732 583.429655,55.9684507 580.853178,58.7270423 C579.993365,59.6478873 579.193769,60.6239437 578.325071,61.5339437 C577.739688,62.1471831 577.212547,62.9171831 576.178994,62.7860563 C576.225391,62.8274648 576.271787,62.8688732 576.318183,62.9112676 L576.318183,62.9112676 Z M207.780286,90.8570423 C208.552242,91.8685915 209.582833,91.7561972 210.443633,91.5895775 C213.690389,90.9625352 216.940106,90.335493 220.062481,89.18 C221.71498,88.5677465 222.931156,87.4743662 223.712983,85.9895775 C224.43953,84.6073239 224.927185,83.0978873 225.469134,81.6259155 C225.586605,81.3064789 225.486903,80.9061972 225.486903,80.3738028 C224.975556,80.5433803 224.603398,80.6252113 224.266778,80.7839437 C221.775196,81.9630986 219.26782,83.1146479 216.809802,84.361831 C214.985537,85.2885915 213.195824,86.2922535 211.451519,87.3629577 C210.002374,88.2532394 208.555203,89.203662 207.780286,90.8570423 L207.780286,90.8570423 Z M249.457024,70.2839437 C248.039468,70.7719718 247.15695,71.0746479 246.274433,71.3783099 C242.996088,72.5111268 239.952686,74.1684507 236.812543,75.6108451 C235.62302,76.1580282 235.019868,77.0384507 234.830334,78.3270423 C234.590455,79.9616901 234.307141,81.5992958 233.904381,83.2004225 C233.368356,85.3290141 232.699064,87.4240845 232.08604,89.5329577 C232.064323,89.6088732 232.030759,89.6798592 232.004106,89.7547887 C230.964631,92.808169 228.518459,94.0661972 225.600425,94.534507 C224.147332,94.7671831 222.662649,94.8342254 221.142429,94.6764789 C219.764359,94.5335211 218.312253,94.838169 216.923325,95.1053521 C214.462345,95.5776056 212.074414,95.4543662 209.69833,94.6577465 C208.429835,94.2328169 207.08138,94.0238028 205.844473,93.5288732 C204.664822,93.0566197 203.569079,93.0309859 202.424965,93.5959155 C201.001486,92.6001408 200.299618,91.2484507 199.918576,89.6561972 C201.507897,87.0721127 204.050811,85.5952113 206.604583,84.2040845 C211.31233,81.6387324 216.170125,79.3691549 221.198697,77.4870423 C222.228301,77.1015493 223.295416,76.8146479 224.342789,76.4715493 C225.088092,76.2290141 225.827471,75.9707042 226.541185,75.7271831 C227.341769,73.8657746 227.447394,71.9639437 227.746503,70.1104225 C228.160121,67.5460563 228.412833,64.9530986 228.877783,62.3995775 C229.272646,60.2364789 229.888631,58.1128169 230.368389,55.964507 C230.477963,55.4774648 230.432554,54.9569014 230.475989,54.0952113 C228.707005,55.2891549 227.178888,56.2109859 225.863996,57.4207042 C223.891659,59.2338028 221.95091,61.0823944 220.02793,62.9497183 C217.712062,65.1976056 215.406066,67.4573239 213.142517,69.7574648 C211.762473,71.1604225 210.489042,72.6659155 209.135651,74.095493 C204.584862,78.901831 200.33022,83.9595775 196.225625,89.1474648 C194.174315,91.7423944 192.109185,94.3264789 190.002594,96.8760563 C188.72324,98.4249296 188.225714,98.3687324 186.96018,96.7261972 C186.820991,96.5457746 186.729185,96.3308451 186.541625,96.0035211 C187.33135,95.0698592 188.144767,94.1233803 188.942389,93.1640845 C192.775515,88.5588732 196.519798,83.8787324 200.462499,79.3691549 C203.313405,76.1077465 206.336077,72.9823944 209.440682,69.9576056 C214.354745,65.1690141 219.358638,60.4691549 224.409915,55.825493 C226.67149,53.7471831 229.155174,51.9104225 231.50658,49.9267606 C232.223255,49.3233803 232.944866,48.673662 233.479904,47.915493 C235.530227,45.0070423 238.237009,43.4049296 241.845064,43.4246479 C242.073097,43.4256338 242.305079,43.3359155 242.529163,43.2669014 C243.291248,43.0292958 243.707827,43.4542254 244.057281,44.0477465 C243.941783,45.8273239 243.200429,47.1514085 241.498572,47.9361972 C240.80164,48.2576056 240.247846,48.8807042 239.621989,49.3569014 C238.31302,50.3526761 237.333761,51.5170423 237.425567,53.3015493 C237.440374,53.5992958 237.26466,53.9059155 237.177791,54.2085915 C236.697046,55.8757746 236.538114,57.5370423 236.585497,59.3057746 C236.652624,61.8050704 236.239005,64.3191549 236.008998,66.8253521 C235.84513,68.6069014 235.673365,70.3864789 235.672378,72.3819718 C238.470965,71.8249296 240.875677,70.8646479 243.339618,70.1094366 C245.823303,69.346338 248.335614,68.6769014 251.004884,67.9187324 C251.396785,66.8983099 251.751174,65.7783099 252.244752,64.7223944 C253.610976,61.8011268 255.003853,58.8916901 256.446088,56.0069014 C257.499383,53.8990141 258.653369,51.8423944 259.749112,49.7561972 C260.518106,48.2921127 261.283152,46.8240845 262.011673,45.3402817 C262.591134,44.1591549 263.474638,43.0726761 263.184414,41.5997183 C263.130121,41.3216901 263.30386,40.9874648 263.406525,40.6907042 C264.080752,38.7257746 265.207097,36.9915493 266.532848,35.4495775 C267.836881,33.9332394 268.780602,33.6246479 270.438037,35.3992958 C270.759849,35.7433803 271.122136,36.0973239 271.304759,36.516338 C272.116202,38.3915493 272.963181,40.2608451 273.592,42.1991549 C273.806213,42.8587324 273.558437,43.7687324 273.280059,44.4677465 C271.183339,49.7374648 268.915842,54.9273239 266.189317,59.9140845 C264.341361,63.2967606 263.056084,66.9377465 261.659259,70.5185915 C259.599064,75.7971831 257.648444,81.1191549 255.659325,86.4253521 C255.609967,86.555493 255.652414,86.7191549 255.652414,87.0602817 C256.033457,87.0040845 256.429306,87.0366197 256.735325,86.8867606 C260.341405,85.1259155 263.953409,83.3749296 267.519016,81.5371831 C268.62858,80.9643662 269.59007,80.1076056 270.647314,79.426338 C272.567332,78.1909859 274.532759,77.023662 276.432048,75.7577465 C277.473497,75.063662 278.424128,74.2305634 279.404374,73.4487324 C282.238499,71.19 285.087431,68.9490141 287.891941,66.6547887 C290.694477,64.3615493 293.466411,62.031831 296.219589,59.6794366 C298.510778,57.7214085 300.51273,55.4922535 302.124756,52.9377465 C303.850304,50.2028169 304.78218,47.2480282 304.611402,43.9728169 C304.486033,41.5770423 303.615361,39.5549296 301.905607,37.8630986 C299.850348,35.8311268 297.377523,34.4577465 294.793148,33.2509859 C290.840576,31.4053521 286.671816,30.2360563 282.406315,29.4088732 C281.018374,29.1407042 279.600818,28.9819718 278.190172,28.886338 C273.71342,28.583662 269.237655,28.21 264.756954,28.1104225 C262.01957,28.0502817 259.268367,28.4042254 256.529009,28.6516901 C255.331589,28.7601408 254.211167,28.8459155 253.112462,28.1735211 C252.451068,27.7683099 251.666279,27.556338 250.924925,27.2911268 C249.958499,26.9450704 249.329681,26.3140845 249.088814,25.1960563 C249.573508,24.371831 250.457013,24.0967606 251.357299,23.8266197 C257.270363,22.0549296 263.308796,21.7433803 269.415343,22.2915493 C272.163585,22.5380282 274.909853,22.8328169 277.647237,23.1838028 C285.425038,24.1815493 292.680635,26.7390141 299.390334,30.7595775 C304.108939,33.5861972 307.610381,37.6373239 310.034837,42.5343662 C311.806781,46.1152113 312.185849,49.9701408 310.950917,53.8023944 C310.081233,56.5008451 308.792994,59.0494366 307.053625,61.3308451 C304.316242,64.9215493 301.175112,68.1297183 297.725002,71.0283099 C294.585846,73.6656338 291.450638,76.311831 287.978811,78.5242254 C286.124932,79.706338 284.332257,80.9850704 282.506018,82.2095775 C282.180257,82.4284507 281.843637,82.67 281.476414,82.7804225 C277.704492,83.9092958 274.323482,85.9885915 270.591046,87.2061972 C266.857622,88.4247887 263.06793,89.4471831 259.227893,90.2773239 C258.457912,90.4429577 257.698789,90.6519718 256.930781,90.8264789 C255.941651,91.0522535 254.950547,91.2642254 253.728448,91.5323944 C253.597156,91.7157746 253.259548,92.0598592 253.070014,92.4729577 C251.306954,96.3219718 249.5972,100.194648 247.805512,104.028873 C247.27837,105.156761 246.466928,106.149577 245.915108,107.269577 C245.120448,108.885493 244.440297,110.559577 243.716712,112.210986 C241.188605,117.978592 238.605218,123.719577 236.346605,129.606479 C235.574649,131.620704 234.501611,133.566901 233.629952,135.573239 C233.284448,136.365915 232.930059,137.154648 232.558888,137.935493 C231.66255,139.823521 229.937002,140.080845 228.66357,138.46 C228.187761,137.855634 227.810668,137.119155 227.586583,136.38169 C226.502686,132.83338 226.565864,129.291972 227.394088,125.655915 C228.933064,118.916197 231.907365,112.744366 234.623031,106.463099 C237.652613,99.4552113 240.697002,92.4542254 243.702892,85.4364789 C245.434363,81.3922535 247.124374,77.3292958 248.780822,73.255493 C249.09375,72.485493 249.161864,71.6178873 249.457024,70.2839437 L249.457024,70.2839437 Z"></path>
            <path d="M533.60023,128.263787 C532.064988,127.922695 530.464709,127.811298 529.026035,128.55756 C527.507544,129.347199 526.60788,130.904787 525.400773,132.055234 C519.593851,137.584674 507.633147,139.758397 500.335325,142.774007 C493.723336,145.506688 485.762344,149.092099 479.485389,149.960603 C476.765703,150.337184 473.030078,149.689504 470.020687,150.748269 C467.009325,151.80605 469.862038,156.180113 473.952406,155.604397 C480.422498,154.871936 486.569381,152.847071 493.97264,150.327326 C498.61877,148.746078 502.2529,147.199333 506.825125,145.402191 C509.679809,144.280333 515.282755,143.265929 515.282755,143.265929 C515.282755,143.265929 513.614484,145.758071 512.760148,146.914433 C507.205487,154.437191 501.997683,162.216262 496.882507,170.044624 C488.126302,183.444816 480.286513,197.463113 471.201188,210.635582 C467.958258,215.336936 464.667045,220.155603 462.397684,225.42183 C461.483239,227.543305 460.557955,229.96644 460.706749,232.322539 C460.765873,233.247234 461.113717,233.899844 461.386671,234.752574 C462.476516,238.17434 464.532046,241.964801 467.382789,244.281468 C468.442087,245.142085 471.312537,244.982383 472.475301,244.254851 C474.172148,243.191156 474.874734,240.124284 475.648267,238.408965 C476.74501,235.980901 477.842738,233.552837 478.944408,231.126745 C483.205248,221.755582 487.545906,212.41695 492.179225,203.223234 C496.979075,193.700255 502.095237,184.329092 507.748438,175.283248 C510.61002,170.702163 513.648973,166.240362 516.691867,161.77856 C518.841996,158.624936 520.78322,155.150922 523.192507,152.195447 C526.05803,148.681014 529.484243,145.611184 532.488707,142.214064 C534.708798,139.704177 538.977521,135.659376 538.978507,131.967496 C538.979492,129.536475 535.466565,128.67783 533.60023,128.263787 L533.60023,128.263787 Z M670.170809,222.542262 C674.867193,221.969504 691.001037,209.121369 702.570539,196.939645 C700.970261,197.527191 699.270457,198.002355 697.86036,198.922121 C694.116851,201.364972 690.461042,203.947809 686.840707,206.57205 C681.897974,210.152532 677.305056,214.145085 673.207791,218.680823 C672.187909,219.809582 671.316821,221.074383 670.170809,222.542262 L670.170809,222.542262 Z M734.723921,228.241262 C734.736731,228.324071 734.75841,228.399979 734.79684,228.44434 C735.926101,229.73083 749.476244,215.179206 750.113793,214.522652 C753.593217,210.938227 756.913007,207.202972 760.306701,203.538695 C762.617448,201.044582 769.472829,192.635574 771.35493,190.215397 C772.232916,189.08861 775.134899,185.059582 772.664518,184.129957 C771.46628,183.67944 766.968945,184.506539 765.161734,185.985262 C761.85771,188.69034 759.987434,190.369184 757.14753,193.572099 C749.99259,201.641 745.881529,206.247716 740.616573,215.725348 C738.64283,219.278227 736.370513,222.733511 734.987021,226.577206 C734.834285,227.002092 734.69436,227.463454 734.70717,227.919887 C734.70914,228.000723 734.708155,228.127894 734.723921,228.241262 L734.723921,228.241262 Z M876.210627,198.770305 C874.429036,198.330631 873.9255,198.218248 873.552036,198.079248 C871.541834,197.475929 870.708191,197.442411 868.238796,197.054986 C867.007054,196.931759 866.950887,196.893312 864.420397,196.808532 C859.371242,196.562078 860.260066,196.817404 855.552843,197.609014 C848.999978,198.711156 843.999107,202.311355 838.988382,206.54839 C833.865322,210.88105 831.564429,214.567014 827.016839,219.333433 C823.567963,222.948418 820.782256,226.924213 818.116767,230.641723 C815.375403,234.465702 812.677397,238.038298 809.915339,241.847489 C807.983969,244.512149 805.856505,247.034851 803.790135,249.600929 C802.92496,250.675468 796.540597,250.191433 795.200462,249.732043 C793.88102,249.280539 792.695592,248.533291 792.391106,246.972745 C792.380266,246.919511 792.374354,246.863319 792.35169,246.816986 C790.359225,242.938787 791.176116,239.250851 792.853255,235.476163 C795.493124,229.530709 797.920147,223.490617 800.4329,217.488972 C801.992778,213.762589 803.543787,210.032262 805.124357,206.243773 C804.170497,205.355553 803.192001,205.610879 802.345548,206.191525 C800.772861,207.269021 799.289844,208.474674 797.754601,209.605404 C792.398003,213.551624 788.189389,218.76166 784.031029,223.895787 C779.916027,228.975695 775.809893,234.066447 771.502739,238.984681 C769.381188,241.40683 767.196571,243.817149 763.966452,244.862113 C761.692164,245.598518 759.514445,244.699454 758.382228,242.541504 C758.178252,242.153092 757.856028,241.824816 757.575191,241.47978 C757.272675,241.110099 756.888372,240.792667 756.654834,240.386511 C754.545107,236.705475 753.440481,232.916 754.77963,228.617844 C756.461697,223.218532 758.290587,217.894142 760.803339,212.816206 C761.35713,211.698291 761.715813,210.484752 762.164167,209.315574 C762.048876,209.239667 761.9326,209.163759 761.816324,209.086865 C760.7925,210.156475 759.7401,211.20144 758.750765,212.30161 C757.117969,214.116496 755.490099,215.938284 753.923324,217.810348 C751.297251,220.95017 749.031831,224.375879 746.350576,227.472326 C744.0418,230.138957 740.268729,234.366135 736.440476,234.566255 C734.881584,234.647092 733.364079,233.897872 732.307737,232.780943 C730.937055,231.328837 729.924071,229.722943 729.009626,227.953404 C726.632857,223.356546 727.410333,219.024872 729.540753,214.623206 C731.766756,210.021418 734.725892,205.93817 737.947143,202.014624 C738.219111,201.682404 738.418161,201.29005 738.652684,200.925298 C738.534437,200.809957 738.41619,200.694617 738.296957,200.579277 C737.624919,201.099787 736.905582,201.571007 736.288726,202.150667 C734.481515,203.85317 732.691055,205.574404 730.940011,207.335071 C729.262872,209.018844 727.635002,210.750922 726.005162,212.479057 C721.699979,217.045355 717.237133,221.464766 713.055124,226.14739 C711.125724,228.306326 709.406212,230.639752 707.478783,232.796716 C703.639691,237.091915 699.011299,240.582688 693.853751,243.143837 C692.761935,243.686035 691.825811,243.177355 690.905454,242.516858 C688.906091,241.083482 687.818217,239.096078 686.958954,236.844475 C685.535061,233.114149 685.767613,229.446915 687.08804,225.809255 C688.062594,223.121922 689.231271,220.505567 690.376298,217.706837 C688.20252,219.365965 686.21104,220.993546 684.108211,222.462411 C680.953967,224.666695 677.734688,226.777326 674.511466,228.880071 C673.947821,229.248766 673.254105,229.468603 672.588964,229.621404 C669.325342,230.37161 667.748712,229.421284 666.613539,226.253858 C665.012275,221.785156 665.784824,217.967092 669.204138,214.548284 C672.84221,210.91161 676.769002,207.649546 680.962836,204.705901 C683.882556,202.655404 686.833809,200.617723 689.932871,198.861986 C692.560915,197.373404 695.457971,196.364915 698.171744,195.016319 C700.822452,193.698284 702.179338,193.707156 705.147343,192.610929 C706.21748,192.216603 708.789356,191.016865 708.789356,191.016865 C710.206352,190.03105 711.146417,190.104986 712.344655,190.331723 C713.520229,190.554518 714.017853,192.015496 714.88697,192.803163 C715.630942,193.478447 715.833933,194.046277 716.386738,194.731418 C717.041039,195.542745 715.790575,196.798674 714.948064,198.195574 C712.357465,202.491759 711.788893,203.881759 709.528401,208.329759 C707.990202,211.357199 706.647111,214.48322 705.204496,217.55995 C704.798513,218.425496 701.812772,225.34395 703.000171,226.197667 C703.970783,225.317333 706.549557,222.38256 707.536921,221.441106 C708.992347,220.054064 710.402445,218.618716 711.859842,217.234631 C714.284894,214.933738 716.669546,212.585525 719.18624,210.388142 C722.590774,207.414922 725.927316,204.314532 729.608745,201.716908 C736.310405,196.986965 743.20126,192.520234 750.099012,188.076177 C754.079016,185.511085 758.193033,183.148085 762.312962,180.810716 C764.52517,179.555773 766.820151,178.405326 769.180167,177.46683 C771.614089,176.497773 775.528071,177.759617 776.943096,179.929397 C777.985642,181.526418 778.269435,183.375809 777.616119,185.273504 C777.098788,186.772929 776.554851,188.269397 776.161679,189.80234 C776.072008,190.150333 776.45237,190.874908 776.796272,191.030667 C778.017174,191.583709 778.01816,192.495589 778.054619,193.648007 C778.160056,196.963305 777.287983,199.966099 776.096643,203.048745 C773.988887,208.499319 772.273317,214.104667 770.518331,219.684383 C769.307283,223.532021 768.306124,227.444723 767.210366,231.330809 C767.931674,232.097773 768.489407,232.508858 769.393998,231.658099 C774.356438,226.990262 778.376843,221.459837 782.882061,216.374014 C790.690317,207.557865 800.357025,199.514596 811.529413,195.422475 C812.097985,195.214468 812.979912,195.635411 813.63914,195.939043 C816.232696,197.134837 817.822135,199.33222 819.099205,201.763241 C819.296283,202.135879 819.124825,202.839752 818.898184,203.273511 C817.82312,205.336823 816.64459,207.346901 815.551789,209.402326 C814.884678,210.657269 814.322018,211.966433 813.680527,213.235177 C813.323815,213.943979 812.870534,214.604475 812.515792,215.313277 C810.783471,218.774475 810.222782,219.307801 808.875749,222.961234 C808.299294,224.526709 807.48733,226.005433 807.035035,227.671461 C808.346593,225.849674 809.611838,223.990426 810.98252,222.213986 C813.10013,219.472433 814.411689,217.860624 816.566744,215.148645 C818.812455,212.322312 820.420617,211.128489 822.82202,208.441156 C824.909083,206.105759 827.275012,204.012872 829.588716,201.891397 C832.457196,199.262227 835.870598,197.512404 839.429838,196.01495 C843.905494,194.132043 848.71717,192.689794 853.518991,192.474887 C859.053945,192.227447 860.502473,191.69905 866.000967,192.967794 C868.628026,193.574071 870.334727,193.861929 872.73416,195.104057 C874.418197,195.975518 877.742913,197.81505 876.210627,198.770305 L876.210627,198.770305 Z M587.478578,210.04705 L587.364272,210.021418 L587.39679,210.160418 L587.478578,210.04705 Z M592.39569,200.231284 C587.540657,205.832688 582.500371,211.258617 576.805783,216.03095 C572.60111,219.554255 568.3787,223.052915 564.14348,226.537773 C563.510857,227.058284 562.766885,227.442752 561.815981,228.056915 C562.607252,224.677539 564.112933,221.988234 565.641278,219.332447 C566.701561,217.489957 567.913594,215.725348 569.168985,214.008057 C572.582388,209.34022 576.116993,204.760121 579.483097,200.05778 C581.916033,196.657702 585.150093,194.116269 588.259009,191.442738 C590.768806,189.284787 595.058222,188.928908 597.553238,190.450021 C597.903053,190.662957 598.201627,190.959688 598.58593,191.268248 C596.770836,194.505667 594.76359,197.499589 592.39569,200.231284 L592.39569,200.231284 Z M684.812767,186.755184 C683.923943,183.195404 681.329402,180.299078 678.507236,178.088879 C674.906609,175.267475 671.404521,173.901135 666.923938,173.220922 C664.364872,172.832511 661.798908,172.495362 659.231958,172.166099 C655.046993,171.629816 650.866955,171.026496 646.667209,170.615411 C644.292411,170.372901 641.926482,170.224043 639.536903,170.150106 C638.845157,170.128418 637.81148,169.961816 637.283309,170.501057 C636.892108,170.899326 636.81032,171.711638 636.635906,172.214404 C635.874197,174.402915 634.949898,176.546078 634.402019,178.803596 C634.081766,180.122617 634.161583,181.249404 634.089649,182.57434 C634.031511,183.67944 633.209693,184.316277 632.464736,185.039865 C631.47146,186.005965 630.465373,186.959248 629.478009,187.932248 C625.394539,191.955362 621.605702,196.309709 617.732121,200.534915 C613.991569,204.615206 610.257913,208.701411 606.573528,212.832965 C604.689456,214.944582 602.797501,217.049298 600.894707,219.145142 C600.026575,220.101383 599.155488,221.055652 598.2844,222.009922 C597.53156,222.834064 596.582626,224.256596 595.509533,224.690355 C594.32509,224.259553 599.191947,212.292738 599.753621,210.771624 C601.46722,206.120546 603.401547,201.644943 605.736929,197.271865 C607.081991,194.753106 611.22754,189.766851 607.18053,187.565525 C606.494697,187.191901 605.270838,186.875454 604.508144,186.764057 C603.388737,186.602383 602.704874,187.039099 601.886012,187.799163 C601.197222,188.437972 600.738029,189.290702 599.714206,188.904262 C599.104247,188.672596 598.542573,188.156028 597.934585,187.882957 C597.318715,187.605943 596.663428,187.411738 596.013069,187.240206 C594.011735,186.712794 591.932555,186.589567 589.984433,187.397936 C587.619489,188.378823 585.360967,189.510539 582.930988,190.35144 C578.67803,191.822277 574.637918,193.477461 570.707184,195.690617 C562.994511,200.031163 555.400085,204.097652 548.305254,209.354021 C544.31244,212.311468 540.405356,215.389184 536.584001,218.564496 C534.699929,220.129972 532.833594,221.720092 531.013573,223.360489 C529.335448,224.873716 527.726301,226.754652 525.875733,228.046071 C525.224388,227.543305 524.969171,225.558858 524.709027,224.732745 C523.8271,221.940915 523.397469,220.358681 522.507658,217.569809 C521.032525,212.950277 513.912073,186.997695 513.66671,186.149894 C513.379961,185.167035 514.328894,184.699759 514.99502,184.161504 C515.904538,183.426085 516.754933,182.623631 517.650655,181.87244 C519.40367,180.405546 521.374456,179.234397 523.259513,177.950865 C525.584056,176.368631 527.890862,174.760766 530.217375,173.180504 C534.319567,170.394589 538.365592,167.526851 542.453003,164.720234 C550.416952,159.253887 558.59473,153.98273 567.492831,150.151851 C571.601921,148.382312 575.900207,147.277213 580.066449,145.693007 C581.896325,144.997021 583.78828,144.157106 585.25553,142.829213 C587.664817,140.651546 588.914296,134.115589 584.79141,132.774879 C583.141862,132.238596 581.117864,133.564518 579.770831,134.34134 C576.03422,136.493376 572.187245,138.449234 568.468371,140.630844 C560.91139,145.064057 553.571196,149.863993 546.311803,154.766454 C538.872084,159.791156 531.453058,164.868106 524.153265,170.095887 C520.604864,172.636333 517.030843,175.13439 513.435143,177.607801 C511.715631,178.79078 509.992179,179.967844 508.262813,181.136035 C506.922679,182.042986 505.076052,182.850369 504.466093,184.448376 C503.885697,185.969489 504.092629,187.575383 504.219745,189.14283 C504.385291,191.184454 504.093615,193.280298 504.073907,195.327837 C504.031535,199.627965 504.299562,203.927106 504.831674,208.193716 C505.884074,216.639199 508.061793,224.819496 510.381409,232.98895 C512.459603,240.312574 515.135931,247.288206 520.025453,253.229716 C524.976069,259.246149 531.562437,262.955773 539.383503,263.59261 C543.974451,263.966234 548.68266,263.478255 553.061747,262.037979 C557.564009,260.557284 562.242656,258.986879 566.531088,256.964972 C570.606674,255.043617 574.462518,252.486411 578.138035,249.894702 C580.090099,248.519489 581.989937,247.073298 583.887805,245.625135 C585.688118,244.250908 588.04912,242.891468 589.333088,240.978 C589.084769,240.656624 584.720462,243.757014 584.121343,244.133596 C582.014572,245.452617 579.885137,246.737135 577.72614,247.971376 C573.628875,250.312688 569.424202,252.474582 565.092413,254.349603 C560.897594,256.165475 556.576645,257.778269 552.022157,258.379617 C548.022446,258.908014 543.530038,259.007582 540.525574,255.902262 C537.602898,252.879752 534.598434,249.494461 532.753778,245.684284 C531.724042,243.557879 530.802699,241.379227 529.917816,239.188745 C529.425119,237.971262 528.944247,236.748851 528.46239,235.527426 C528.046554,234.474574 527.323275,233.299482 527.191233,232.163823 C527.002037,230.52244 529.410338,228.777546 530.45584,227.724695 C532.262066,225.904879 534.228911,224.236879 536.238128,222.645773 C539.9639,219.695227 543.924196,217.020709 547.871681,214.378723 C552.419271,211.337482 556.863394,208.155269 561.393247,205.090369 C562.667361,204.22778 573.979675,196.151979 574.794596,197.353688 C574.402409,198.684539 572.815926,200.035106 571.955678,201.117532 C570.823461,202.543021 569.685331,203.963582 568.556071,205.390057 C566.302476,208.238078 564.062678,211.109759 562.001235,214.100723 C560.007784,216.993106 558.461702,220.14673 556.978685,223.321057 C555.656288,226.152319 554.633449,229.578028 556.650549,232.45661 C558.595716,235.232667 561.78839,232.805589 563.763118,231.438262 C566.455212,229.573099 568.713734,227.133206 571.255063,225.071865 C573.974748,222.866596 576.605748,220.61795 579.125399,218.185943 C580.428089,216.928043 581.715012,215.652397 583.004892,214.378723 C583.78828,213.605844 585.776803,210.851475 586.977012,211.052582 C586.918874,212.201057 586.264573,213.502333 585.96797,214.628135 C585.643775,215.853504 585.326479,217.087745 584.809147,218.249035 C583.724229,220.680057 580.072362,231.619652 580.911917,234.712156 C581.258775,235.991745 582.12198,237.232887 583.398064,237.657773 C585.977824,238.51839 587.654963,238.398121 589.433598,238.520362 C593.005648,238.766816 594.003852,237.146135 595.796282,235.373638 C599.491507,231.722177 602.225973,227.24756 605.524084,223.255007 C612.409027,214.922894 618.716529,206.174766 625.550231,197.799277 C627.248064,195.717234 629.04148,193.709128 630.816173,191.692149 C631.960215,190.390872 633.458998,187.829723 635.431755,187.839582 C638.9772,187.85634 642.546294,187.93422 646.089769,187.826766 C651.076844,187.676922 656.056036,188.294043 661.030301,188.554298 C662.540909,188.633163 664.052502,188.568099 665.561139,188.505993 C666.387884,188.471489 667.619626,188.225035 668.354729,188.770191 C669.234685,189.422801 668.909506,190.03795 668.250278,190.596908 C666.193762,192.343773 663.921445,193.961496 661.722047,195.523028 C657.025663,198.857057 652.90869,202.804262 648.650806,206.67556 C644.530876,210.420674 640.396166,214.13917 636.166858,217.761057 C627.604776,225.091582 619.996555,233.458199 612.314429,241.682858 C610.514116,243.612099 608.68227,245.520638 606.945021,247.507057 C606.135028,248.431752 605.354597,249.382078 604.57318,250.331418 C603.841033,251.22161 602.902938,251.987589 602.950237,253.214929 C603.011331,254.797163 604.158329,256.912723 605.841381,257.170021 C606.675024,257.297191 607.810197,257.087213 608.625117,256.873291 C609.914997,256.53417 611.120133,255.483291 612.37848,254.97461 C617.462124,252.919184 622.345733,250.364936 627.5762,248.681163 C630.407235,247.769284 633.146628,246.628695 635.948101,245.636965 C638.818552,244.620589 641.789512,243.921645 644.755546,243.248333 C647.684135,242.582908 650.60484,241.890865 653.590582,241.514284 C656.796066,241.110099 659.982828,241.187979 663.206049,241.176149 C666.921967,241.162348 670.67533,240.590574 674.376467,241.13573 C674.901682,241.212624 679.048217,242.421234 679.041319,242.394617 C678.560447,240.683241 676.799549,239.628418 675.254453,239.161142 C672.95356,238.46417 670.622119,237.951546 668.246336,237.57595 C663.349917,236.801099 658.374666,236.597035 653.426021,236.809972 C648.344348,237.028823 643.304062,237.709035 638.319943,238.706681 C636.092954,239.153255 633.893556,239.700383 631.707954,240.316518 C629.340054,240.983915 626.924855,241.951986 624.5067,242.394617 C623.74302,242.534603 622.667956,242.125489 622.897553,241.063766 C623.072953,240.258355 625.0329,239.254794 625.606399,238.786532 C627.53777,237.210213 629.375528,235.523482 631.245805,233.874213 C638.468737,227.503872 645.825683,221.272532 652.705699,214.52561 C655.896402,211.395645 659.671444,208.944908 663.134116,206.139277 C666.900289,203.087191 670.678287,200.035106 674.723326,197.354674 C676.658638,196.072128 678.592965,194.786624 680.464227,193.411411 C682.40151,191.986908 684.870906,190.669858 684.956313,187.96478 C684.966489,187.566511 684.914263,187.162326 684.812767,186.755184 L684.812767,186.755184 Z M386.442587,185.788099 C378.055905,185.167035 375.140126,184.653426 366.378994,184.003773 C365.672467,183.951525 365.611373,183.666624 366.234142,183.330461 C369.850535,181.382489 379.251187,180.509057 386.604191,185.308007 C386.832802,185.456865 386.714555,185.808801 386.442587,185.788099 L386.442587,185.788099 Z M450.054648,182.006511 C449.461442,180.651014 447.505436,182.461957 446.48851,182.924305 C444.512797,183.823369 442.437558,184.478936 440.329802,184.982688 C431.345972,187.126837 421.672366,187.857326 412.459925,187.579326 C408.707547,187.465957 404.912798,187.64439 401.176187,187.468915 C396.778376,187.261894 394.967224,184.305433 391.407983,182.34366 C387.882246,180.400617 384.045125,178.969213 380.018808,178.572915 C375.731362,178.15 371.403515,178.984 367.393949,180.488355 C366.021297,181.00295 364.536309,181.537262 363.365662,182.442241 C362.921249,182.786291 362.454173,183.231879 362.325087,183.801681 C362.267934,184.050106 362.285671,184.302475 362.368444,184.542028 C362.480779,184.863404 362.757674,185.043809 362.899571,185.326738 C363.981533,186.411135 367.166324,186.694064 368.753792,186.958262 C370.902935,187.316113 373.089522,187.596085 375.262315,187.691709 C377.250838,187.778461 379.226552,188.067305 381.200294,188.298972 C382.731596,188.480362 384.261911,188.65978 385.793212,188.840184 C387.167836,189.001858 388.625233,189.070865 389.881609,189.709674 C391.435574,190.499312 392.08889,192.09239 392.58947,193.688426 C395.020435,201.431021 389.563327,210.330965 386.591381,217.188298 C383.277503,224.832312 378.738782,230.658482 373.01956,236.625624 C370.493997,239.261695 367.616648,242.328567 364.08894,243.59534 C359.333433,245.301787 359.180697,241.292475 359.302885,237.624255 C359.497993,231.729078 361.650092,226.144433 364.42693,221.012277 C365.772978,218.525064 367.310191,216.19361 368.717333,213.737943 C370.795527,210.109156 373.009706,206.539518 375.651545,203.289284 C376.87836,201.779014 378.1574,200.241142 379.725161,199.076894 C381.035734,198.102908 382.670501,197.111177 383.11787,195.423461 C383.636187,193.47056 381.733392,193.080177 380.413951,193.655894 C378.427398,194.525383 376.51672,196.183525 374.759764,197.444383 C372.217449,199.268142 370.096883,201.573965 367.879748,203.762475 C365.269442,206.339397 362.604938,208.859142 359.887224,211.322695 C356.595025,214.307745 353.284103,217.335184 350.19391,220.562745 C349.045927,221.761496 347.903856,222.964191 346.740107,224.14717 C339.974397,231.025206 333.472772,238.095475 326.062615,244.300199 C325.872434,244.457929 325.65072,244.626504 325.406343,244.592 C324.889011,244.51905 324.918573,243.761943 325.092988,243.270021 C329.413937,231.118858 334.848381,219.443844 340.22173,207.759957 C342.981817,201.759298 346.118324,195.989319 349.06662,190.089213 C350.231355,188.00717 351.438462,185.949773 352.696809,183.922936 C353.563955,182.528007 355.307116,180.687489 354.919856,178.91795 C354.22811,175.762355 349.846066,174.509383 347.101746,174.858362 C343.233092,175.349298 339.763522,178.874574 336.853656,181.263206 C334.202948,183.438901 331.578846,185.647128 329.070035,187.984496 C324.554963,192.189 320.047774,196.40139 315.536644,200.610823 C312.476998,203.465745 309.896253,206.744567 307.14602,209.886362 C306.672046,210.429546 305.747747,210.116057 305.734937,209.393454 C305.724098,208.824638 306.121211,208.249908 306.512412,207.322255 C307.05832,206.031823 307.603243,204.740404 308.148165,203.449972 C309.306988,200.706447 310.464825,197.962922 311.614779,195.21644 C312.404079,193.329589 314.443843,190.323837 314.455667,188.264468 C314.470448,185.921184 311.408831,185.794014 309.780962,186.426908 C305.094431,188.247709 300.768555,192.816965 297.189607,196.216057 C293.233253,199.972014 289.715399,204.063149 286.065502,208.105979 C284.548982,209.430915 284.426793,208.365248 285.631929,206.29405 C285.944299,205.759738 286.350281,204.974043 286.659694,204.405227 C287.517972,202.830879 288.376249,201.256532 289.233542,199.682184 C290.776667,196.84895 292.318808,194.01473 293.846167,191.172624 C296.202243,186.789688 300.39312,180.280348 297.204388,175.223113 C296.672275,174.378269 295.678013,173.550184 294.621672,173.521596 C293.447083,173.489064 293.64022,173.667496 293.248034,174.591206 C292.333589,176.743241 291.493048,178.785851 290.266234,180.878738 C287.478556,185.631355 284.712557,190.387915 282.071703,195.224326 C279.275157,200.346624 276.519998,205.49061 273.748087,210.625723 C272.321237,213.271652 270.889461,215.91561 269.444874,218.551681 C268.370796,220.511482 267.132156,222.356929 266.980406,224.645993 C266.798108,227.390504 269.423196,234.156156 272.877984,230.736362 C276.732843,226.920269 280.047706,222.219901 283.601034,218.099191 C287.192792,213.935106 290.569735,209.589631 294.330981,205.573418 C298.11292,201.534532 302.110661,197.703652 306.037453,193.805738 C302.122485,202.343887 298.119818,210.794298 293.792956,219.133312 C291.992643,222.603383 289.61686,225.916709 292.864716,229.267496 C294.035363,230.475121 295.435607,231.81583 296.884135,230.379496 C298.287335,228.987525 299.162364,226.436234 300.400018,224.821468 C305.001805,218.812922 310.08939,212.841837 315.403616,207.462241 C320.968131,201.830277 325.63791,195.398816 331.25071,189.813184 C332.668691,188.402482 334.142839,187.047972 335.691878,185.784156 C336.339281,185.255759 338.793896,182.777418 339.633451,182.932191 C340.631654,183.115553 338.520942,185.95766 338.192806,186.529433 C337.08818,188.456702 335.972715,190.376085 334.87203,192.30434 C330.530388,199.904979 326.635128,207.749113 322.763518,215.597191 C320.719812,219.740574 318.705669,223.89973 316.726999,228.07466 C315.285369,231.114915 313.627937,234.166014 312.764733,237.435965 C311.942915,240.546213 312.118315,243.683078 313.793483,246.484766 C315.469637,249.289411 319.008184,253.026638 322.613738,252.408532 C326.10006,251.811128 329.407039,247.774213 331.806472,245.397411 C334.15762,243.069901 336.243698,240.422986 338.418461,237.935773 C341.344093,234.588929 344.287463,231.252929 347.326416,228.009596 C350.110152,225.039333 352.809144,221.945844 355.821491,219.201333 C356.024482,219.016 356.340793,219.233865 356.247181,219.492149 C355.100183,222.626057 353.829026,225.702787 353.208228,229.005269 C351.819809,236.37917 353.107718,243.91573 360.123718,247.798858 C367.529934,251.897879 373.413717,246.799241 379.043269,241.944099 C385.260115,236.582248 390.411751,230.09361 394.151318,222.783787 C397.876105,215.506496 401.62257,207.507589 401.177172,199.123227 C401.058925,196.898241 400.569184,195.688645 400.190793,193.520837 C400.030174,192.59417 399.847876,191.750312 400.723891,191.163752 C402.010815,190.303135 405.083271,190.296234 406.553478,190.341582 C408.82678,190.41256 411.100082,190.395801 413.372399,190.325809 C422.677467,190.035979 431.731261,188.997915 440.784069,186.785745 C442.347888,186.404234 451.164201,184.543014 450.054648,182.006511 L450.054648,182.006511 Z M116.681328,165.970248 C112.578151,172.254823 106.867797,176.477071 100.848029,180.796915 C94.2084494,185.561362 87.3432146,189.991617 80.2592225,194.065993 C65.6635775,202.462184 50.399836,209.738489 35.3765303,217.327298 C44.8126562,200.724191 54.659691,184.352752 64.0002337,167.696411 C66.1040483,163.947355 68.3714382,160.158865 70.0958764,156.215603 C71.5749517,152.834255 71.4064494,149.92117 68.8385146,147.156943 C67.5308978,145.749199 66.937691,145.065043 69.0040607,144.382858 C70.8723663,143.764752 73.2028214,143.769681 75.1529146,143.698702 C79.2216034,143.549844 83.314927,143.902766 87.3510978,144.393702 C95.0273112,145.327269 102.020647,147.634078 108.845481,151.261879 C112.059834,152.970298 115.561921,155.101631 117.751465,158.093582 C119.835572,160.940617 118.397883,163.341078 116.681328,165.970248 L116.681328,165.970248 Z M121.791578,151.650291 C119.221672,148.821986 115.981699,146.458 113.031431,144.440035 C107.497463,140.655489 101.327916,137.876475 94.8992101,136.007369 C81.763918,132.188319 67.7871,132.060163 54.2773584,133.511284 C45.829582,134.418234 37.4596517,135.974837 29.1862899,137.896191 C28.0501315,138.159404 26.9159438,138.430504 25.7827416,138.705546 C21.3800045,139.779099 16.9802236,140.864482 12.5824135,141.959723 C10.3840011,142.507837 8.18657417,143.058908 5.9891472,143.61195 C4.45193372,143.999376 2.861509,144.321738 1.58443934,145.328255 C-0.944079765,147.319603 0.268939336,150.208043 0.442368549,152.873688 C0.52415619,154.135532 0.279778662,155.391461 0.334960684,156.651333 C0.384230347,157.778121 0.767548324,158.842801 1.29571911,159.831574 C2.43089214,161.958965 5.18802248,164.707418 7.56282023,162.447929 C8.33536855,161.712511 8.80244495,160.72078 9.42225731,159.851291 C12.3784371,155.703965 18.5676921,154.220312 23.1694787,152.772149 C29.2010708,150.87544 35.3775157,149.481496 41.5657854,148.207823 C45.3014112,147.439872 49.0537888,146.756702 52.8150348,146.130709 C55.4007068,145.698922 58.0119989,145.277979 60.6262472,145.059128 C62.5231292,144.900411 62.9192573,145.63583 62.0698483,147.598589 C60.2084405,151.901674 56.889636,156.011539 54.3916641,159.976489 C42.6576011,178.602489 30.7993787,197.113149 19.7107483,216.138404 C14.5650247,224.968355 9.50108877,233.908716 5.73590113,243.432681 C3.97401799,247.886596 -2.68329887,264.038199 6.02067979,266.146858 C7.37263934,266.473163 8.6930663,266.354865 9.68141574,265.281312 C10.3268483,264.581383 10.7160787,263.68922 11.1023528,262.818745 C16.8777427,249.798092 24.8052315,237.894369 31.1176607,225.141858 C31.8665596,223.644404 32.9061494,222.196241 34.4601146,221.468709 C35.7884247,220.847645 37.2586315,220.613021 38.7022326,220.355723 C58.2366685,216.878752 75.9786742,207.67222 93.1747719,198.162057 C104.271285,192.025355 117.117857,184.432603 123.537694,173.020801 C127.554157,165.881525 127.374816,157.796851 121.791578,151.650291 L121.791578,151.650291 Z M205.905731,200.967688 C205.544092,201.502 206.123503,202.171369 206.702915,201.88844 C210.560729,199.998631 214.476682,197.874199 217.881216,195.37417 C219.978133,193.83334 222.075049,191.875511 223.948282,190.062596 C225.354438,188.701184 227.677996,186.247489 225.617538,184.387255 C221.745928,180.890567 217.17666,187.421596 214.768358,189.839801 C211.41408,193.210305 208.564322,197.032312 205.905731,200.967688 L205.905731,200.967688 Z M95.2667618,225.632794 C95.0184427,226.111901 95.5515405,226.634383 96.0274854,226.380043 C99.4270921,224.566142 102.264039,221.743752 105.092118,219.183589 C108.653329,215.959972 112.165271,212.683121 115.666373,209.39444 C118.972367,206.290106 122.167012,202.985652 125.650378,200.082426 C127.583719,198.470617 129.788044,196.952461 130.604935,194.63678 C130.883801,193.843199 129.956546,193.161014 129.255931,193.626319 C116.178778,202.333043 102.89272,211.000333 95.2667618,225.632794 L95.2667618,225.632794 Z M124.661043,232.318596 C136.177334,219.27034 148.031615,206.543461 159.656299,193.594773 C165.770664,186.783773 171.927401,180.007277 178.003336,173.162759 C183.60234,166.854525 188.166682,159.892695 192.99708,153.007759 C197.766383,146.207603 202.834261,139.348298 208.23323,133.032177 C209.072785,132.049319 210.434599,130.324142 211.869331,130.780574 C212.625128,131.021113 213.848987,132.278028 214.554528,132.75122 C216.699729,134.190511 217.299834,137.221894 215.840466,139.401532 C214.83438,140.904901 213.252824,142.095766 212.138344,143.551816 C210.912515,145.154752 209.836465,146.866128 208.754503,148.568631 C206.514705,152.092922 204.108374,155.506801 201.859707,159.026163 C197.100257,166.475972 192.72117,174.16139 188.434709,181.890184 C183.626975,190.558461 178.732527,199.190262 174.399753,208.108936 C172.18853,212.659461 170.07092,217.254348 167.937544,221.842333 C165.876101,226.275546 163.407691,230.585532 161.519678,235.087752 C167.836048,227.369801 173.946472,219.744518 181.064953,212.723539 C188.247484,205.640454 195.549248,198.726929 203.228418,192.183085 C207.784876,188.300943 212.140315,183.881532 217.576729,181.213915 C219.700252,180.171908 221.983408,179.614922 224.315834,180.201482 C226.724135,180.806773 229.059517,182.635461 230.448921,184.660326 C231.053953,185.542631 231.674751,186.72561 231.635335,187.82578 C231.598875,188.830326 231.103222,189.979787 230.694284,190.880823 C229.629074,193.230021 227.892811,194.74522 226.077717,196.484199 C225.10809,197.413823 224.118755,198.32373 223.091975,199.189277 C220.409735,201.450738 217.433847,203.32773 214.410661,205.093326 C211.459408,206.817518 208.516038,208.581142 205.544092,210.263929 C204.10936,211.076241 202.898311,211.590837 202.100143,213.063645 C200.871357,215.328064 200.054466,218.957837 200.718621,221.502227 C201.888283,225.98966 207.908051,222.620142 210.593247,221.636298 C215.34777,219.893376 220.099336,218.126794 224.736597,216.086156 C228.591455,214.391539 233.296708,213.091248 234.723557,208.757603 C237.793057,199.441645 241.9593,190.514099 245.157887,181.229688 C246.135397,178.392511 246.702983,171.307454 250.95594,172.948837 C254.234344,174.212652 257.099867,176.191184 258.286281,179.631681 C259.432293,182.953879 258.970144,186.702936 257.929569,189.98866 C256.324363,195.064624 254.274745,200.084397 252.509906,205.117972 C256.614069,199.750206 260.729071,194.372582 265.318047,189.405057 C269.668558,184.69483 274.779793,179.593234 280.325587,176.296667 C282.76542,174.84456 284.631755,175.721936 285.160911,178.570943 C285.682184,181.385447 283.845411,183.378766 282.004697,185.232099 C279.92059,187.330901 277.418676,189.472092 274.773881,190.835475 C272.452294,192.031269 271.623579,190.965603 271.182122,188.559227 C265.207683,195.033078 260.006778,201.917028 254.870908,209.06222 C249.72617,216.220227 244.441506,223.356546 239.999353,230.98183 C237.777291,234.794965 233.57656,248.238532 228.036679,240.335248 C226.131913,237.615383 223.994596,234.180801 224.761231,230.718617 C225.154403,228.941191 226.268883,227.438809 227.023694,225.805312 C227.949964,223.798191 228.681126,221.703333 229.561082,219.675511 C224.440979,222.206099 219.38197,224.924979 214.100262,227.110532 C209.117128,229.171872 202.236127,231.362355 198.329043,226.246957 C195.742385,222.858709 194.684073,218.128766 195.075274,213.926234 C195.272353,211.808702 195.793626,209.730603 196.488328,207.724468 C196.920916,206.471496 197.426422,205.244156 197.978243,204.039489 C198.481779,202.940305 199.075971,200.946 199.965781,200.128759 C194.694912,204.964184 186.851182,212.622 181.408855,218.245092 C175.703428,224.140269 170.511391,230.400199 165.560775,236.93517 C163.271707,239.956695 154.258315,252.984248 150.206378,246.958943 C145.47649,239.927121 150.472434,230.738333 153.362592,224.069291 C155.411225,219.342305 157.611608,214.687284 159.896735,210.071695 C161.864565,206.095901 164.542864,202.036312 165.811065,197.784489 C159.171485,205.066709 152.421542,212.243447 145.731707,219.480319 C139.217272,226.528901 133.378817,234.309943 126.614092,241.103199 C125.00593,242.71895 123.277551,244.189787 121.480193,245.593589 C117.607598,248.619057 114.467149,246.542929 113.537924,245.079979 C112.294357,243.121163 111.705092,240.849844 111.606553,238.526277 C111.433124,234.408525 113.018621,230.475121 114.59328,226.752681 C116.277317,222.772943 118.10128,218.875028 119.91736,214.95444 C116.215237,218.367333 112.371218,221.592922 108.609972,224.942723 C105.103943,228.065787 100.313946,233.086546 95.4983292,233.945191 C90.0067326,234.926078 88.6734955,228.519262 89.1770315,224.444887 C89.7318079,219.954496 92.3716764,216.217269 95.1711787,212.813248 C101.85313,204.690128 108.644461,197.500574 118.207702,192.752887 C120.685966,191.521603 123.223354,190.472695 125.886872,189.718546 C126.930403,189.422801 128.438055,188.709071 129.512134,188.82244 C130.690664,188.945667 131.657335,190.000489 132.752107,190.451993 C136.427624,191.964234 144.715766,193.274383 142.300567,199.118298 C141.167365,201.861823 139.057638,204.338191 137.512542,206.864837 C135.774308,209.705957 134.119833,212.597355 132.55897,215.539028 C129.65403,221.015234 127.349196,226.744794 124.661043,232.318596 L124.661043,232.318596 Z"></path>
        </g>
    </g>
</svg>