<?xml version="1.0" encoding="utf-8"?>
<svg viewBox="0 0 30 30" width="30" height="30" style="enable-background:new 0 0 25 25;" xmlns="http://www.w3.org/2000/svg">
  <defs>
    <style type="text/css">
	.st0{fill:#D5D5D5;}
</style>
  </defs>
  <path class="st0" d="M 23.922 13.961 L 22.295 13.961 L 22.946 11.142 L 22.295 10.274 L 3.102 10.274 L 2.451 11.25 L 6.355 29.468 L 7.005 30.01 L 18.283 30.01 L 18.934 29.468 L 20.777 21.009 L 23.922 21.009 C 25.874 21.009 27.392 19.491 27.392 17.539 C 27.392 15.588 25.874 13.961 23.922 13.961 Z M 21.319 11.792 L 20.343 16.563 L 4.945 16.563 L 3.969 11.792 L 21.319 11.792 Z M 23.922 19.491 L 21.211 19.491 L 22.187 15.371 L 23.922 15.371 C 25.006 15.371 25.982 16.238 25.982 17.431 C 25.982 18.624 25.006 19.491 23.922 19.491 Z" style="" transform="matrix(0.9999999999999999, 0, 0, 0.9999999999999999, -4.440892098500626e-16, 0)"/>
</svg>