<?xml version="1.0" encoding="UTF-8"?>
<svg viewBox="0 0 30 30" width="30" height="30" style="enable-background:new 0 0 25 25;" xmlns="http://www.w3.org/2000/svg">
  <defs>
    <style type="text/css">
	.st0{fill:#D5D5D5;}
</style>
  </defs>
  <path class="st0" d="M 22.67 15.988 L 20.9 15.988 L 21.343 13.997 L 20.68 13.113 L 4.093 13.113 L 3.54 13.997 L 6.968 29.478 L 7.632 30.031 L 17.363 30.031 L 18.025 29.478 L 19.353 23.507 L 22.67 23.507 C 24.771 23.507 26.43 21.848 26.43 19.747 C 26.43 17.647 24.661 15.988 22.67 15.988 Z M 19.795 14.55 L 17.805 23.507 L 7.079 23.507 L 5.199 14.55 L 19.795 14.55 Z M 22.67 21.959 L 19.795 21.959 L 20.79 17.425 L 22.67 17.425 C 23.886 17.425 24.881 18.42 24.881 19.637 C 24.881 20.853 23.886 21.959 22.67 21.959 Z" style="" transform="matrix(0.9999999999999999, 0, 0, 0.9999999999999999, -4.440892098500626e-16, 0)"/>
</svg>