<?xml version="1.0" encoding="utf-8"?>
<svg viewBox="0 0 30 30" width="30" height="30" style="enable-background:new 0 0 25 25;" xmlns="http://www.w3.org/2000/svg">
  <defs>
    <style type="text/css">
	.st0{fill:#D5D5D5;}
</style>
  </defs>
  <path class="st0" d="M 22.768 15.966 L 21.226 15.966 L 21.666 13.984 L 21.006 13.103 L 4.487 13.103 L 3.936 13.984 L 7.24 29.512 L 7.901 30.063 L 17.592 30.063 L 18.253 29.512 L 19.683 23.015 L 22.768 23.015 C 24.749 23.015 26.291 21.473 26.291 19.491 C 26.291 17.508 24.641 15.966 22.768 15.966 Z M 20.015 14.535 L 19.023 18.72 L 6.358 18.72 L 5.479 14.535 L 20.015 14.535 Z M 22.768 21.582 L 20.015 21.582 L 21.006 17.398 L 22.768 17.398 C 23.869 17.398 24.861 18.389 24.861 19.491 C 24.861 20.592 23.869 21.582 22.768 21.582 Z" style="" transform="matrix(0.9999999999999999, 0, 0, 0.9999999999999999, -4.440892098500626e-16, 0)"/>
</svg>