<?xml version="1.0" encoding="utf-8"?>
<svg width="80px" height="80px" viewBox="0 0 80 80" version="1.1" xmlns="http://www.w3.org/2000/svg">
  <title>3</title>
  <desc>Created with Sketch.</desc>
  <g id="Page-1" stroke="none" stroke-width="1" fill="none" fill-rule="evenodd" transform="matrix(1, 0, 0, 1, 0, 7)">
    <g id="3" fill="#000000">
      <path d="M78.2564868,70.4232308 C78.2564868,70.8495484 77.9055441,71.2004116 77.4986,71.2004116 L2.51260034,71.2381388 C2.09445585,71.2381388 1.74724659,70.8872756 1.74724659,70.4647308 L1.74724659,69.2914142 C1.74724659,68.8613239 2.09072242,68.5142335 2.5088669,68.5142335 L7.14952399,68.5104607 C7.33619563,68.574597 7.52660071,68.574597 7.70580549,68.5104607 L72.3016614,68.480279 C72.4808662,68.5406425 72.6750047,68.5444152 72.8616763,68.4765062 L77.4986,68.4765062 C77.9055441,68.4765062 78.2564868,68.8273694 78.2564868,69.253687 L78.2564868,70.4232308 Z M16.4495053,17.8805305 C16.6025761,17.4542129 16.7332462,17.2806677 16.9908531,17.0543043 C17.2447265,16.827941 17.6740713,16.5713959 18.2900877,16.1978964 C19.0815755,15.7074426 21.5232406,14.3039899 23.8678365,12.9646736 C26.2198992,11.6140391 28.4935598,10.3237681 29.0199739,10.0219504 C29.538921,9.71635989 30.0354676,9.3919058 30.5282808,9.15799703 C31.0210939,8.92031554 31.4989733,8.77317938 31.9955199,8.77317938 L47.9596789,8.76563393 C48.4524921,8.76563393 48.9303715,8.90899737 49.4231846,9.15045158 C49.9197312,9.38436035 50.4125443,9.70881445 50.9352249,10.0106322 C51.4579055,10.3086773 53.7278327,11.6027209 56.0836289,12.94581 C58.4356916,14.2851263 60.8736233,15.6848062 61.6763114,16.1752601 C62.4864663,16.6770321 62.949412,16.9599863 63.1846183,17.2504859 C63.3003547,17.4013948 63.4011574,17.5711673 63.5056935,17.8578941 C63.5430278,17.9635304 63.5728953,18.1031211 63.6064962,18.2389391 L16.3449692,18.2653481 C16.3785701,18.1257574 16.4159044,17.9861667 16.4495053,17.8805305 L16.4495053,17.8805305 Z M77.4986,66.714645 L73.0371477,66.7184177 C72.5779354,65.9148279 71.6744447,64.1567395 71.3795035,62.3835601 C71.263767,61.7610609 70.8605563,58.8296559 70.3229419,54.8117069 C68.6802315,42.7352235 65.7420198,20.615754 65.4956132,18.8538928 C65.4097443,18.2351663 65.3052081,17.7258489 65.1596043,17.2806677 C64.9281314,16.6091231 64.5510547,16.0771693 64.1030427,15.6923517 C63.6512974,15.3037613 63.1547508,15.0321253 62.5760687,14.669944 C61.7173791,14.1455356 59.3055815,12.7571739 56.9348516,11.4103121 C54.5827889,10.0634503 52.3053948,8.77317938 51.7939145,8.47890705 L51.7939145,8.48267978 C51.3421691,8.21858923 50.8045548,7.86018063 50.1773381,7.55836287 C49.5426545,7.25277238 48.7997013,7 47.9596789,7 L31.9955199,7.00754544 C31.1480306,7.00754544 30.4088109,7.26031782 29.7778607,7.56590831 C29.1469106,7.8714988 28.6092962,8.2299074 28.1538174,8.49022522 C27.6386037,8.78449754 25.3612096,10.0823139 23.0091469,11.425403 C20.6496173,12.7760375 18.2303528,14.1681719 17.3791301,14.6925803 C16.6063095,15.171716 15.9716259,15.4961701 15.4265447,16.148851 C15.161471,16.4733051 14.9523987,16.8618955 14.8030614,17.3070767 C14.6499907,17.7522579 14.5454545,18.2615754 14.4558522,18.8803018 C14.299048,20.0536184 12.9512787,30.2739225 11.5885757,40.543272 C10.9053575,45.6704013 10.2184058,50.8163942 9.67705805,54.8418886 C9.13197685,58.8636104 8.7287661,61.7912427 8.62422998,62.4137419 C8.41889117,63.6247856 7.93354489,64.8433749 7.50046668,65.7412827 C7.2988613,66.1562822 7.11592309,66.4958271 6.97031921,66.7448268 L2.5088669,66.7485995 C1.1237633,66.7523722 0,67.8917343 0,69.2914142 L0,70.4647308 C0.00373343289,71.8606379 1.1237633,73 2.51260034,73 L77.4986,72.9660455 C78.8799701,72.9622728 80,71.8229107 80,70.4232308 L80,69.2499143 C80,67.8502344 78.8799701,66.7184177 77.4986,66.714645 L77.4986,66.714645 Z" id="Fill-3" style="fill: rgb(213, 213, 213);"/>
    </g>
  </g>
</svg>