<?xml version="1.0" encoding="utf-8"?>
<!-- Generator: Adobe Illustrator 23.0.3, SVG Export Plug-In . SVG Version: 6.00 Build 0)  -->
<svg version="1.1" id="Layer_1" xmlns="http://www.w3.org/2000/svg" xmlns:xlink="http://www.w3.org/1999/xlink" x="0px" y="0px"
	 width="25px" height="35px" viewBox="0 0 25 35" style="enable-background:new 0 0 25 35;" xml:space="preserve">
<style type="text/css">
	.st0{fill:none;stroke:#D5D5D5;stroke-width:1.1872;stroke-linejoin:bevel;}
	.st1{fill:#D5D5D5;}
</style>
<g>
	<path class="st0" d="M18.7,14.9v-1.3c0.1-1.7-1.2-3.1-2.9-3.2c-0.1,0-0.1,0-0.2,0c-0.6,0-1.2,0.2-1.7,0.5c-0.9-2.1-3.3-3.1-5.4-2.3
		C7.6,9.1,6.8,10,6.3,11c-0.5-0.3-1.1-0.5-1.7-0.5c-1.8,0.1-3.2,1.5-3.1,3.3v1.2H18.7z"/>
	<path class="st0" d="M18.1,17.3h2.7c1.8,0,3.3,1.5,3.3,3.3l0,0l0,0c0,1.8-1.5,3.3-3.3,3.3h-3.3"/>
	<polygon class="st1" points="18.1,14.9 15.8,31.6 4.4,31.6 2.2,14.9 0.9,14.9 3.3,32.2 3.9,32.7 16.4,32.7 16.9,32.2 19.3,14.9 	
		"/>
	<polygon class="st1" points="18.3,17.9 2,17.9 1.8,16.7 18.4,16.7 	"/>
	<polygon class="st1" points="1.7,17.3 4.2,32.1 7.1,32.3 11.5,32.5 15.5,32.2 16.5,31.5 17.8,21.9 18.3,18.1 18.3,17.3 	"/>
</g>
</svg>
