<?xml version="1.0" encoding="utf-8"?>
<!-- Generator: Adobe Illustrator 23.0.6, SVG Export Plug-In . SVG Version: 6.00 Build 0)  -->
<svg version="1.1" id="Decaffeinato_Intenso" xmlns="http://www.w3.org/2000/svg" xmlns:xlink="http://www.w3.org/1999/xlink"
	 x="0px" y="0px" viewBox="0 0 1011.9 198.9" style="enable-background:new 0 0 1011.9 198.9;" xml:space="preserve">
<style type="text/css">
	.st0{opacity:0.7;fill:#FFFFFF;enable-background:new    ;}
	.st1{opacity:0.7;fill:#FFFFFF;}
</style>
<title>Decaffeinato_Intenso_VL_White</title>
<path class="st0" d="M677.8,6.9c-4.7-4-3.7-8.1-8.7,5c-2.1,5.4-7.9,17.1-10.3,22.3c-4.1,8.4-8.7,16.6-13.7,24.5
	c-10.6,17.5-27.3,40.5-30.4,44.1c-2,2.5-3.5,4.1-5.6,6.6c-1.6,1.9-4.5,4.6-6,7c-0.2,0.4-0.1,0.9,0.3,1.2c0.1,0.1,0.3,0.1,0.4,0.1
	c1.4-0.1,2.7-0.3,4.1-0.6c3.9-0.5,7.9-1.9,12.6-2.5c0.9-0.2,1.7-0.6,2.4-1.2c8.6-8.7,7.9-10.2,13.5-17.8
	c7.4-9.7,14.1-19.8,20.1-30.4c2-3.5,3.6-6.9,5.9-11.2c4.9-9.3,8.6-17.7,13-25.7C679.6,20.9,683.6,11.9,677.8,6.9z"/>
<path class="st0" d="M770.5,92c-1.5-0.2-2.1-1.3-1.7-2.9c1-3.7,2.6-7.1,4.8-10.3c0.6-0.9,1.5-1.5,2.6-1.5c6.6-0.7,13.1-1.7,19.7-2.5
	c3.8-0.6,7.6-1.9,11-3.8c2.3-1.1,4.2-2.9,5.3-5.1c1.4-2.8,1.2-4.6-1.3-6.6c-3-2.4-6.5-4-10.3-4.7c-4.1-0.6-8.3-0.1-12.2,1.4
	c-7.3,2.6-13.9,6.9-19.2,12.5c-1.4,1.4-3,2.7-4.8,3.8C753,79.8,741.8,87.6,730.9,96c-4.8,3.7-9.7,7.4-14.6,11
	c-0.5,0.3-1.1,0.6-1.7,0.9c0-0.6,0.2-1.2,0.4-1.8c2.6-5,5.2-10,8-14.9c3.1-5.4,6.7-10.6,9.8-16c4.4-7.8,9.2-15.3,14.4-22.5
	c3.7-5,4.1-7.6,7.9-8.2c3.2-0.4,6.4-1.1,9.6-1.6c8.1-1.3,16.2-1.9,24.3-0.7c2.3,0.3,4.5,0.6,6.8,0.8c0.5,0,1.2,0.1,1.4-0.3
	s-0.6-0.9-1-1.1c-1.7-1-3.4-1.9-5.2-2.6c-7.7-2.8-15.7-3.2-23.8-3.3c-1.6,0-3.3,0.1-4.9,0.1s-1.8-0.4-1-1.7c1.3-2.2,3.2-3.9,4.8-5.9
	c1.8-2.3,2.4-3.7,0.4-4.9c-0.8-0.5-1.8-0.8-2.6-1.3c-2.7-1.4-4.2-1.1-6.1,1.4c-3,3.8-6.1,7.6-9.1,11.5c-1.2,1.7-3.1,2.7-5.2,2.6
	c-3.9,0.1-7.8,0.4-11.6,0.9c-8.5,1-17,2.4-25.6,2.1c-1.7-0.1-3.5-0.2-5.2-0.4c-3.8-0.5-6.1-2.6-7.1-6.2c-0.4-1.5-0.9-2.9-1.4-4.3
	c-0.3-0.9-0.8-1.8-1.3-2.6c-0.6-0.8-1.4-0.7-1.6,0.3c-1.2,4.5-0.8,8.9,2,12.7c2,2.6,4.5,4.7,7.5,6.2c4.4,2.3,9.2,2.8,13.9,2.6
	c7-0.3,14.1-1,21.1-1.6c1-0.1,2.1,0,3.2,0c-0.6,0.9-1.2,1.7-1.9,2.5c-11.8,11.6-23.5,23.2-35.3,34.7c-3.2,3.1-6.5,6.1-9.8,9
	c-1,0.9-3.2,2.4-3.5,1.9c-0.7-1.2,0-3.1,0.6-4.4c2.5-4.9,5.3-9.7,8-14.5c2.5-4.4,5.1-8.8,7.4-13.4c1.4-2.7,0.5-4.3-2.4-5.1
	c-2.4-0.8-5-0.5-7.2,0.8c-6.3,3.7-12.2,8-17.7,12.7c-0.9,0.7-2.2,2.1-3,1.8c1.1-1.8,2.2-3.6,3.3-5.4c1.6-2.5,1.4-4-0.9-5.8
	c-0.8-0.7-1.8-1.2-2.8-1.5c-3-1.1-3.5,1.7-8.5,8.3c-3.4,4.5-6.9,8.9-10.4,13.3c-3.7,4.7-7.5,9.3-11.2,14c-1,1.2-1.9,2.5-0.9,4.1
	c2.5,3.9,6.5,6.6,10.8,1.8c1.4-1.6,2.9-3.2,4.4-4.7c8.4-9.1,17.3-17.7,26.8-25.7c3.7-3.1,7.5-5.9,11.3-8.8c0.5-0.3,1.1-0.6,1.7-0.8
	c-0.1,0.7-0.2,1.4-0.4,2c-1.6,3.2-3.2,6.4-4.8,9.6c-2.3,4.6-4.6,9.1-6.7,13.8c-0.8,1.7-1.3,3.5-1.5,5.3c-0.3,3.2,2,6,5.2,6.4
	c1.1,0.1,2.3-0.1,3.3-0.6c2-1.1,3.9-2.4,5.6-3.9c4.7-4.2,9.3-8.4,13.9-12.8c3.7-3.5,7.3-7.1,11-10.7c0.8-0.8,1.7-1.4,2.5-2.1
	c-0.5,0.9-0.9,1.9-1.5,2.8c-5.5,8.1-10.9,16.2-15.1,25.1c-1.6,3.4-3.1,6.9-4.8,10.4c-0.8,1.7-0.8,3.7,0,5.3c0.5,1.2,1,2.4,1.5,3.6
	c1.2,2.3,5.6,4,7.5,2.7c4.8-3.4,9.9-6.4,14.1-10.4c9.9-9,20.2-17.5,30.6-25.9c1.3-1,2.6-2,3.9-3c0.3-0.1,0.6-0.3,0.9-0.3
	c0,0.4,0,0.8,0,1.1c-0.4,2.2-1.4,5.4-1.6,7.6c-0.3,2.8,0.1,5.7,1.1,8.4c0.8,2.8,4.7,4.6,7.3,5.7c4.5,2,9.1,1.7,13.7,0.5
	c4.9-1.5,9.5-3.7,13.8-6.5c3-1.9,6.1-3.7,9.2-5.5c0.3-0.1,0.5-0.4,0.9-0.3c0.2,0.4,0.2,0.4-0.2,1.1c-1.5,3-3.3,5.9-4.7,8.9
	c-1.2,2.6-1,5.7,0.5,8.1c1.4,2.5,3.5,5.4,4.9,5.2c0.7-0.2,1.4-0.5,2-1c1.7-1.5,4.6-5.6,6.1-7.3c4-4.3,7.5-8.9,11.8-12.9
	c6.2-5.8,8.1-6.4,12-8.9c1.1-0.7,2.3-1.2,3.6-1.7c0.2,0,0.3,0,0.4,0.2c0,0.1,0,0.1,0,0.2c-0.2,0.7-0.5,1.4-0.8,2.1
	c-1.4,2.8-3,5.5-4.3,8.4c-0.9,2-1.3,4.2-1,6.4c0.3,2.2,1.6,4.2,2.5,6.1c0.7,1.5,1.6,3.3,3.6,3.3c1.1-0.1,2.2-0.4,3.2-0.8
	c2.4-0.8,4.6-2.8,6.6-4.2c2.5-1.8,4.9-3.7,7.1-5.8c7.7-7.2,15-14.8,22.5-22.2c3.5-3.5,7.1-7.1,10.6-10.6c0.3-0.2,0.7-0.4,1.1-0.5
	c0.1,0.4,0.1,0.8,0.2,1.2c-0.2,4.2-0.4,8.5-0.4,12.7c0.1,1.4-0.6,2.7-1.8,3.4c-5.7,3.6-11.1,7.7-16.9,11.1c-4.1,2.4-7.2,5.2-9.3,9.3
	c-0.8,1.5,0,2.8,1.8,2.9c8.7,0.5,17.4,0.1,26-1.2c4.3-0.7,5.9-1.1,6.6-6.4c0.2-1.5,0.2-3.1,0.1-4.6c-0.2-2.7-0.5-5.4-0.8-8.1
	c-0.3-2,0.2-3.6,2-4.7c4.1-2.6,8.1-5.4,12.3-7.8c3.2-1.8,6.6-3.2,10-4.7c1-0.5,2-0.9,3.1-1.2c-0.3,0.6-1.5,2-1.9,2.5
	c-1.8,2.8-3.7,5.4-5.3,8.2c-2.3,3.9-2.6,8.7-0.8,12.9c0.3,0.6,0.5,1.2,0.7,1.8c2.5,5.4,7.8,9.1,13.6,7.7c13-3.1,22.9-10.5,29.4-22.3
	c1.7-3.4,2.7-7.1,3-10.9c0.3-2.5,0-5-0.8-7.3c-1-2.5-2.5-4.8-4.5-6.8c-1-1.1-3.8-3.2-0.9-3.8c0.7-0.1,1.4-0.2,2.2-0.2
	c6.6-0.4,12.2-1.1,18.8-1.2c10.5-0.2,21.1-0.3,31.2,3.6c0.3,0.2,0.8,0.2,1.1-0.1c0.4-0.6,0.2-1.4-0.6-2.1c-1-0.9-2.1-1.6-3.4-2
	c-6-2.1-12.2-3.1-18.6-3c-12-0.3-23.9,0.4-35.8,2.1c-6.8,1-13.7,2.3-20.5,3.6c-1.1,0.2-2.8,2.9-2.4,4c0.5,1.3,1.5,1.4,2.7,1
	c0.4-0.1,2-0.8,2.9-1c5.9-1.9,11.9-3,13.7-2.8c1,0,1.9,0.6,2.4,1.5c3,4.8,2.1,9.6,0,14.9c-2.4,6.2-6.4,11.7-11.7,15.8
	c-3.8,3.1-8.2,5.3-13,6.6c-2.2,0.5-2.5,0.1-1.9-2.5c0.2-1,0.5-2,0.8-3c1.8-4.6,4.3-9,7.5-12.8c1.9-2.4,4.3-4.2,6.6-6.3
	c2.6-2.4,5.7-3.8,8.6-5.7c0.9-0.6,1.4-3.1,1-4.2c-0.6-1.5-1.8-1.3-3-1.2c-6.7,0.7-12.9,5.8-18.8,8.8c-7.2,3.7-14.5,7.1-21.7,10.8
	c-2.3,1.2-4.5,2.6-6.8,3.8c-0.9,0.5-1.8,0.7-1.7-0.8c0.4-5.2,0.5-10.7,1.9-15.7c0.5-2.2,1.4-4.2,2.5-6.1c4.5-6.7,9.7-0.2,11.8-1.9
	c1.6-1.3,1.5-1.9-0.1-2.9c-3.8-2.3-11.2-9.2-16.9,2.5c-1,1.9-2.3,3.7-3.9,5.1c-12,10.9-24,21.8-36.1,32.6c-4,3.6-8.4,6.8-12.7,10.2
	c-0.4,0.3-1.3,0.8-1.4,0.5c-0.1-0.5,0-1.1,0.2-1.5c2.4-6.2,5.5-12,9.2-17.6c2-3,3.8-6,5.7-9.1c0.9-1.5,0.6-3.4-0.6-3.7
	c-2.4-0.8-4.6-1.9-7.4-0.4c-6.6,3.6-12.8,7.9-18.5,12.6l-3.6,2.9c0.1-0.6,0.4-1.1,0.6-1.6c1.7-2.4,3.5-4.7,5.3-7
	c2.7-3.4,1.9-5.6-2.1-7c-2.9-1-3.4-2-7.4,1.6c-6.3,4.9-15.5,11.4-20.2,12.9l-4,1.9C791,88.9,780.9,91.5,770.5,92L770.5,92z
	 M778.9,70.3c1.2-1.4,2.5-2.7,3.9-3.9c4.4-3.2,9.4-5.3,14.8-6.4c1.6-0.4,3.3-0.2,4.9,0.4l0.5,0.3c3.2,1.7,3.3,2.9,0.5,5.2
	c-1.5,1.4-3.4,2.4-5.4,2.9c-6.1,1.2-12.2,2-18.3,3c-0.4,0.1-0.8-0.1-1.1-0.4C778.5,71,778.6,70.6,778.9,70.3z M894.2,93.8
	c-0.1,0.5-0.2,0.9-0.4,1.4c-1,2.6-4.1,3.7-6.5,4.2c-3.9,0.9-8.1,2.1-12.1,0.7c-0.3-0.1-0.3-0.3-0.2-0.6c0.5-1.4,2.2-2.5,3.3-3.5
	c1.4-1.2,2.8-2.4,4.3-3.6c3-2.3,6.1-4.4,9.3-6.3c1.3-0.8,1.8-0.4,1.9,0.9C894.1,89.2,894.6,91.6,894.2,93.8z"/>
<path class="st0" d="M827.9,83.7c0,0,0.1,0,0.2,0l-0.2,0.2C827.8,83.8,827.8,83.7,827.9,83.7z"/>
<path class="st0" d="M347.3,84.5c-1.4,1.1-2.8,2.1-4,3.2c-6.7,6-13.4,12.1-20.1,18.1c-2.7,2.4-5.5,4.8-8.4,7.2
	c-0.9,0.7-1.8,1.2-2.8,1.7c-6.3,3.4-11.7-0.2-13.8-5.4c-1.8-4.4-2.3-9.1-1.4-13.8c1.3-7,4.7-13,8.9-18.6c0.5-0.6,1-1.2,1.4-1.8
	c0.4-0.6,0.7-1.3,1-1.9c-0.6,0-1.3,0-1.9,0.1c-5.2,1-10.5,2-15.7,2.9c-1.4,0.1-2.7,1-3.3,2.3c-3.8,8.4-7.9,16.6-11.5,25.1
	c-2.7,6.1-5,12.3-6.9,18.6c-0.9,2.9-0.6,6.2-0.4,9.3c0.7,12.1-0.4,24.2-3.3,35.9c-0.9,3.6-2,7.1-3,10.6c-1.4,4.2-3.6,8.2-6.5,11.6
	c-1.5,1.7-3.3,3.2-5.3,4.2c-2.5,1.5-6.1-0.1-7.6-3.1c-1.7-3.4-2.4-7.3-2-11.1c0.1-1.9,0-3.9,0-5.8l0.1,0.1
	c-2.4,5.2-4.6,10.5-7.3,15.6c-1.9,3.6-9.8,11.7-14.4,8.7c-0.5-0.3-1-0.6-1.5-1c-2.9-1.7-3.6-4.8-4.8-7.7c-1.1-3.2-1.5-6.7-1.4-10.1
	c0-7.3,1.2-14.5,3.6-21.4c3-9.6,5.9-19.3,9.2-28.8c2.5-7.3,5.7-14.3,8.6-21.4c1.3-3.1,2.6-6.2,3.9-9.3c0.4-0.9,0.9-1.7,1.3-2.6
	l0.2-0.5l0.5-0.9c-0.5,0.1-1.8,1.6-2,1.8c-2,2.1-4,4.2-6,6.4s-4.3,3.9-7.5,4.2c-1.3,0.3-2.6-0.5-2.9-1.8l0,0
	c-1.4-3.8-2.7-7.6-2-11.7c0-0.4,0-0.8-0.1-1.3c-0.4,0.2-0.8,0.5-1.2,0.8c-3.3,3.2-6.5,6.4-9.8,9.5c-0.9,0.8-2,1.3-3.1,1.7
	c-3.1,1-5.1-0.1-5.7-3.4c-0.5-2.5-0.2-5,0.7-7.4c0.4-0.9,0.7-1.8,1-2.7c0.1-0.2-0.1-0.5-0.1-0.8c-0.2,0-0.4,0.1-0.6,0.2
	c-1.6,1.1-3.2,2.3-4.6,3.6c-4.9,4.6-10.2,8.8-15.9,12.4c-3.5,2.3-7.7,3.2-11.8,2.5c-2.2-0.2-4.1-1.7-4.9-3.8c-1.1-3-2.2-6.1-3.2-9.2
	c-0.7-2.2-0.8-2.4-2.7-0.8c-2.4,2-4.7,4.1-7.2,6c-1.8,1.4-3.7,2.6-5.6,3.8c-2.4,1.5-4.7,3.1-7.2,4.4c-2.3,1.2-4.6,2.6-7.1,3
	s-5-1-6.7-3.2c-1.3-1.8-2.2-3.8-2.7-5.9c-0.8-2.6-1-5.4-0.5-8.1c0.7-2.7,1.8-5.4,3.3-7.8c4.3-7.8,10.5-14.1,17-20.1
	c2.8-2.7,6.2-4.8,9.9-6c2-0.7,4.2-0.4,5.9,0.7c2.2,1.8,2.7,5,1,7.3c-2.2,3-4.7,5.7-7.4,8.2c-4.4,3.7-9.2,6.9-13.8,10.4
	c-0.9,0.6-1.7,1.3-2.4,2.1c-2.8,4.1-4.5,6.5-6.1,11.1c-0.5,1.4-0.2,1.7,1.3,1.4c0.5-0.1,1.1-0.2,1.6-0.4c9.9-3.1,19.4-7.1,27.9-13.1
	c0.9-0.7,1.7-1.6,2.2-2.6c0.7-1.2,1.5-2.7,2.1-4c2.4-5.5,4.5-9,8-12.6c2-2.3,4.2-4.5,6.5-6.5c5.4-4.5,10.6-9.4,17.7-11.2
	c2.4-0.6,4.7-1.6,7.6-0.3c0.8,0.5,1.5,1.1,2,1.9c0.6,1.1,1.7,2.2,1.8,3.5c-0.1,1.5-0.7,2.9-1.7,3.9c-1.2,1.1-4.1,0.6-5.7,0.4
	c-0.4,0-0.8-1-0.9-1.5c-0.4-1.9-0.6-2.1-2.2-1.3c-3.8,1.8-6.7,4.7-9.5,7.8c-5.1,5.4-9.4,11.5-12.8,18.2c-1.7,3.7-2.9,7.6-3.5,11.6
	c-0.2,1.3,0.3,1.9,1.6,1.5c2.2-0.6,4.3-1.4,6.4-2.4c8.4-4.7,16.8-9.5,25.1-14.4c5-3,9.9-6.2,14.8-9.4c1.8-1.3,4.2-1.6,6.4-0.9
	c2,0.6,2.9,0.6,3.8-0.8c0.6-0.9,0.9-1,2.3-1.2c1-0.1,2,0,2.9,0.2c1.2,0.1,2.1,1.2,2,2.4c0,0.3-0.1,0.6-0.3,0.9
	c-1.7,2.9-3.1,5.9-4.3,9c-1.9,4.6-3.4,9.8-4.8,14.5c-0.1,0.5,0,1,0.1,1.4c0.4-0.1,0.8-0.4,1.1-0.6c6.9-7.1,13.8-14.2,20.6-21.3
	c1.1-1.3,2-2.8,2.7-4.5c6.4-14.6,14.4-28.5,23.7-41.5c5.1-7.2,10.3-14.3,16.6-20.5c2-1.9,4.3-3.6,6.8-5c1.3-0.7,2.8-1,4.4-0.9
	c3,0.3,4.9,2.1,3.5,4.7c-2.1,3.8-4.3,7.6-6.8,11.1c-7.7,11-15.5,22-23.5,32.8c-3.3,4.5-7.3,8.6-10.6,13.1c-1.9,2.8-3.5,5.7-5,8.7
	c-0.6,1.3-1.2,2.6-1.7,3.9c-0.9,2-1.2,2.9,1.1,2.6c2-0.2,4.1-0.7,6.1-1.1c2.7-0.5,5.3-1.2,8-1.6c1.7-0.2,3.2-1.3,3.9-2.9
	c2.1-4.3,4.2-8.6,6.6-12.7c5.1-8.7,10.4-17.3,15.8-25.8c3.9-6.4,7.9-12.7,12-19c3.5-5.3,7.5-10.1,13.1-13.3c4.4-2.5,9-3.7,14-2.6
	c1.5,0.3,2.2,1,2,2.4c-0.1,1.7-0.5,3.4-1.2,5c-1.9,3.4-4.2,6.6-6.4,9.8c-3.3,4.7-6.6,9.4-10,14c-5.4,7.1-10.9,14.1-16.4,21
	c-3.2,4-6.8,7.7-9.9,11.7c-1.5,2.1-2.9,4.3-4,6.7c-0.7,1.4-0.5,1.7,1.2,1.4c4.2-0.7,8.3-1.5,12.5-2.2c8.6-1.5,8.6-1.6,15.1-7.8
	c3.2-3.2,6.9-5.7,11.1-7.4c1-0.4,2-0.7,3.1-1c2.3-0.4,4.8,0.2,6.6,1.7c2.3,1.6,3.8,4.2,4,7c-0.1,2.4-1,4.7-2.6,6.5
	c-3.4,4.5-7.8,7.8-12.3,11c-3.7,2.5-8,5.3-12.2,6.7c-3.7,1.3-4.9,3.6-6.4,6.8s-2.6,6.2-3.9,9.3c-0.2,0.3-0.3,0.6-0.4,0.9
	c-0.3,1.6-1.2,3.3-0.2,5c1.4-0.4,2.8-0.9,4.2-1.6c3-1.8,5.8-3.8,8.6-5.8c11.9-8.6,22.8-18.5,33.7-28.3c1.6-1.3,4-1.1,5.4,0.5
	c0.3,0.3,0.5,0.7,0.6,1.1c0.1,0.6-0.1,1.2-0.4,1.8c-3.1,5.9-6.4,11.6-9.3,17.5c-2.4,4.9-4.4,9.9-6.6,14.9c-0.3,1-0.8,2-1.4,2.9
	c-0.8,0.7-1.8,1-2.8,1c-1.1,0-1.5-1.1-1.5-2.2c0-2.1-0.2-4.3,0.8-6.4c2.8-5.7,5.5-11.6,8.2-17.3c0.3-0.7,0.5-1.4,0.8-2.1
	C347.5,84.7,347.6,84.4,347.3,84.5z M268.9,48.2c2.1-1.2,5.2-4.5,7.7-8c6.7-9.3,9.1-13.5,15.7-22.9c2.2-3.2,4-6.7,6-10.1
	c0.3-0.4,0.3-1,0.1-1.5c-0.5-0.2-1.1-0.1-1.5,0.2c-2.1,1.4-3.8,3.2-5.1,5.3c-3.8,5.7-8,11.1-11.5,16.9
	C276.4,34.7,268.9,48.2,268.9,48.2z M246.5,150.7c0.2-0.6,2.1-5.4,2.3-6c3.4-10.2,6.9-20.5,10.4-30.6c0.9-2.5,1.1-5.3,0.4-7.9
	c-1.9-7.2-2.9-14.1-4.7-21.4c-0.1-0.3-0.3-0.5-0.5-0.7c-0.2,0.2-0.6,0.3-0.7,0.5c-1,2.2-1.9,4.4-2.8,6.6
	c-3.5,9.4-7.2,18.8-10.5,28.4c-4.7,13.5-9.6,27-13,40.9c-2,8-3.8,16.1-3.7,24.4c0.1,1.1,0.3,2.2,0.6,3.3c0,0.2,0.2,0.3,0.4,0.3l0,0
	c1.1-0.4,7.5-11.8,12.7-20.6C247.4,149.7,246.4,150.9,246.5,150.7z M264.6,142.6c0-1.6,0-3.3,0-4.9c-0.1-0.5-0.2-1-0.4-1.4
	c-0.4,0.3-0.7,0.7-0.9,1.1c-2,5-3.9,10.1-5.8,15.1c-1.9,4.9-4,9.8-5.5,14.9c-1.9,6.2-3.3,12.5-4.9,18.8c-0.2,1.4-0.3,2.8-0.2,4.2
	c0,1.3,0.9,1.6,1.7,0.9c1.7-1.3,3.8-2.5,4.8-4.2c2.4-4.1,4.9-8.3,6.2-12.8C262.6,164,264.3,153.3,264.6,142.6z M224.6,74.6
	c-0.2-0.2-0.5-0.4-0.7-0.6c-1.1-0.9-2.1-0.6-3.2,0.2c-3.6,2.8-6.9,6-9.7,9.5c-3.1,3.6-5.6,7.7-7.5,12.1c-0.4,0.8-0.6,1.6-0.9,2.4
	c0,0.1,0.5,0.6,0.7,0.6c0.4-0.2,0.8-0.4,1.1-0.7c8.3-6,14.5-14,19.9-22.6C224.3,75.2,224.5,74.9,224.6,74.6L224.6,74.6z M306.4,43.8
	c0.3-0.1,0.6-0.3,0.8-0.5c0.4-0.5,0.9-1,1.3-1.5c8.1-9.9,14.6-20.9,21.9-31.4c0.5-0.7,0.8-1.5,1.1-2.3c0.5-1.3-0.2-2.1-1.3-1.5
	c-1.4,0.7-2.7,1.7-3.7,2.9c-4.2,4.9-7.9,10.3-10.9,16c-3.1,5.6-5.9,11.3-8.8,17C306.5,42.9,306.4,43.4,306.4,43.8L306.4,43.8z
	 M340.1,62c-0.1-2.4-0.8-2.8-2.5-1.8c-1.4,0.7-2.8,1.7-3.9,2.8c-4.3,4.8-8.4,9.6-12.5,14.5c-1.4,1.9-2.7,3.9-3.9,6
	c-0.1,0.2-0.1,0.5-0.1,0.8c0.3,0,0.6-0.1,0.9-0.2s0.6-0.3,0.8-0.5c6-4,11.4-8.6,16.4-13.8c1.5-1.7,2.8-3.6,4-5.5
	C339.7,63.6,339.9,62.8,340.1,62L340.1,62z M271.8,79.9c-4,0.8-7.7,1.3-11.2,2.2c-1.9,0.4-2.4,1.8-1.7,3.8c1.2,3.7,2.6,7.3,3.9,11
	c0.2,0.5,0.5,1,0.8,1.4c0.5,0.7,1.1,0.9,1.5,0c1-2.6,1.1-3.4,2.3-7.4c0.6-1.5,1.4-3,2.2-4.4c1.2-2.3,1.6-3.4,2.7-5.4
	C272.3,80.8,271.9,80.2,271.8,79.9L271.8,79.9z M153.9,66.3c-0.1-0.2-0.2-0.3-0.3-0.5c-0.3-0.4-0.8-0.3-1.3-0.3
	c-1.6,0.2-3.1,0.7-4.5,1.5c-5.1,3.9-8.4,8.2-12.2,14.3c-0.2,0.4-0.5,1.2-0.3,1.6c0.3,0.2,0.8-0.2,1.1-0.5c4.1-3.3,8.4-7.1,12.4-10.5
	c1.5-1.2,2.8-2.6,4.1-4c0.4-0.4,0.9-0.9,0.9-1.5C153.9,66.4,153.9,66.3,153.9,66.3z"/>
<path class="st0" d="M376.7,80.4c1.6,0.1,2.1-1.4,2.9-2.3c5.7-6.8,12-13.2,18.6-19.1c3.1-2.8,7.6-3.3,11.2-1.3c1.8,1,2.6,2.3,2,4.3
	c-1,3.1-2.1,6.1-3.4,9.1c-4.1,9.2-8.1,18.4-10.5,28.3c-0.7,2.8-1.1,5.7-1.1,8.6c-0.1,3,1,3.5,3.5,1.6c2.4-1.8,4.7-3.9,6.6-6.2
	c3.3-4.1,6.5-8.5,9.4-12.9c5.8-8.6,11.5-17.2,18.7-24.6c4-4.2,8.4-7.9,13.2-11.1c1.1-0.9,2.6-1.2,4-1c1,0.2,2.2,0,3.2,0.1
	c0.8,0.1,1.7,0.3,2.5,0.6c1.1,0.4,2.2,0.8,3.3,1.3c0.9,0.4,1.7,0.9,2.4,1.6c0.8,0.6,0.9,1.7,0.3,2.5c-0.1,0.1-0.2,0.2-0.3,0.3
	c-3.5,3.4-5.5,7.7-7.1,12.2c-1.7,4.7-3.4,9.4-5,14.1c-0.3,1-0.6,2.1-0.8,3.2c0,0.5,0,1,0.1,1.5c0.4-0.3,0.9-0.6,1.2-1
	c4.3-5.1,8.6-10,12.7-15.3c8.1-10.5,16.1-21.1,24.1-31.6c0.6-0.9,1-1.8,1.4-2.8c-0.9,0.1-1.9,0.2-2.8,0.3c-11,1.2-22,2.6-33,3.7
	c-4,0.4-8,0.4-12,0.2c-9.1-0.5-12.2-5.3-12.4-14.3c0-0.9,0.3-1.7,0.9-2.4c0.4-0.5,1.4-1.2,1.8-1c0.8,0.4,1.3,1,1.6,1.8
	c0.3,1.2,0.5,2.3,0.6,3.5c0.2,2,1.8,3.7,3.8,3.9c1.8,0.4,3.6,0.7,5.5,0.7c7.6-0.2,15.2-0.3,22.8-0.8c8-0.6,16-1.7,24-2.5
	c2.3-0.2,3.2-1.3,4.5-3.3c4.7-7.1,6.3-11.1,9.5-16.6c1.8-3.4,4.1-6.4,6.9-9.1c1.4-1.3,3.1-2.4,5-1.4c1.8,0.9,2.8,3,2.4,5
	c-0.4,1.7-0.9,3.4-1.5,5.1c-0.5,1.3-1.2,2.6-1.8,3.8l-5.8,12c-0.8,1.7-0.7,1.8,1.1,1.8c4.5-0.2,8.9-0.5,13.3-0.5
	c8.3-0.1,16.5,1.1,24.4,3.8c1.3,0.4,2.6,1,3.9,1.7c0.7,0.4,1.3,1.1,1.7,1.9c0.3,0.7,0.3,1.4-0.1,2.1c-0.6,0.4-1.3,0.4-2,0.2
	c-10.8-4.2-22-4.5-33.3-3.3c-3.3,0.4-6.7,1-10,1.2c-3.6,0.2-5.2,2.5-6.5,5.4c-3.6,8.5-7.4,16.9-10.9,25.4
	c-2.9,7.1-5.5,14.4-8.3,21.5c-1.5,3.8-3.1,7.6-4.7,11.4c-0.7,1.7-1.4,3.4-2.2,5.1c-0.4,1-1,1.9-1.8,2.6c-1.9,1.7-3.2,1.5-4.3-0.9
	c-2.1-4.2-2.6-9.1-1.5-13.6c2-8.8,5.4-17.2,8.8-25.5c1.1-2.8,2.1-5.6,3.2-8.4l0.3-1.6h0.3c0,0,0.1,0,0.1,0.1l-0.4-0.1l-0.2,1.7
	c-0.8,1.2-1.6,2.4-2.4,3.7c-5,7.6-10,15.2-15.1,22.7c-2.5,3.7-5.2,7.3-7.8,10.9c-1.4,2.1-3.5,3.6-5.9,4.4c-0.1,0-0.2,0-0.3,0.1
	c-1.4,0.8-5.5-0.7-6.5-1.9c-1.3-1.7-2.8-3.2-3.6-5.4c-0.7-1.6-0.9-3.4-0.7-5.1c0-0.6,0-1.2-0.2-1.8c-0.5,0.3-1.1,0.6-1.6,0.9
	c-1.8,1.1-3.4,2.3-5.3,3.2c-3.5,1.8-4.9,1.4-7.3-1.8c-0.9-1.2-1.4-0.5-2,0.2c-1.6,2-3.1,4.1-4.8,6.2c-4.3,5.3-8.8,10.5-14.3,14.7
	c-1.5,1.1-3.2,1.8-4.9,2.3c-2,0.6-4.3-1.1-5.7-3.5c-1.7-3.2-2.2-6.9-1.5-10.4c1-7.1,2.8-14.1,5.4-20.7c1.8-4.4,3.8-8.7,5.7-13.1
	l-0.1-0.1v0.2c-0.6,0.2-1.5,0.1-1.9,0.5C395,72.5,390,77.6,385.4,83c-5.2,6.1-10.1,12.4-15.1,18.7c-1.7,2.1-3.8,3.9-6.3,5.1
	c-2.2,1.1-2.9,1-4.4-1c-2.9-3.7-3.2-8-2-12.3c0.7-2.5,1.7-4.9,2.8-7.3c5-11.3,10-22.7,16.6-33.2c1.1-1.8,1.7-4.2,4.7-3.6
	c3.2,0.5,5.8,1.8,7.3,4.8c1,1.8,0.7,4.1-0.7,5.7c-2.2,2.9-3.7,6.3-5.5,9.5C380.9,73,378.8,76.7,376.7,80.4L376.7,80.4z M453,59.3
	c-0.1-0.6-0.6-1.1-1.3-1.1c-0.3,0-0.5,0.1-0.7,0.3c-2.8,2.4-5.6,4.8-8.2,7.4c-4.9,4.8-8.3,10.8-12.2,16.4c-0.6,1-1.1,2.1-1.4,3.3
	c-0.1,0.4-0.1,0.8,0,1.2c0.4,0,0.8,0,1.2-0.1c2.6-1.1,4.8-2.9,6.5-5.2c5.7-6.6,10.8-13.6,15.5-20.9C452.6,60,452.9,59.6,453,59.3
	L453,59.3z"/>
<path class="st0" d="M84.2,17c-12.2-0.3-23.7,3-35.1,6.7c-8.4,2.7-16.5,6.2-23.7,11.3c-4.4,3-8.5,6.3-12.4,9.9
	c-2.1,1.8-4.3,3.7-5.6,6.3c-0.7,1.4-1.4,2.6-1.1,4.3c0.2,1.2,0.1,2.5-1.3,3c-1.3,0.5-2.7-0.2-3.2-1.4l0,0C1,55.2,0.4,53.2,0,51.2
	c-0.1-1.8,0.1-3.7,0.4-5.5s1.3-3.5,2.8-4.6c6.9-6.3,14.6-11.7,23-15.8c13.2-6.4,27-11.5,41.6-13.8c17.3-2.8,34.4-2.2,50.9,4.8
	c5.8,2.4,11.1,6.1,15.4,10.7c3.2,3.6,5.3,8,6,12.8c1.7,9-0.5,18.3-6,25.6c-7.3,10.2-14.6,16.9-24.3,24.6c-2.5,1.7-5.1,3.3-7.8,4.8
	c-8.2,4.6-16.3,9.4-25.1,13c-4.9,2-9.8,4-14.7,5.9c-2.7,1.1-5.7,1.4-8.6,0.9c-1.8-0.3-3.6-0.5-5.4-0.8c-0.3-0.1-0.6-0.2-0.9-0.4
	c0.2-0.3,0.3-0.8,0.6-0.9c3.8-2.1,7.6-4.2,11.4-6.3c16-8.8,31.7-18.1,45.5-30.3c8.6-7.6,16.6-15.7,22.7-25.4
	c3-4.6,4.1-10.2,3.1-15.6c-0.7-3.5-2.8-6.5-5.8-8.2c-6.2-4-13.2-6.6-20.6-7.7C97.6,17.9,90.9,17.5,84.2,17z"/>
<path class="st0" d="M565,47.5c8.7,0,17.4,0,26.1,0c0.4,0.1,0.9,0.2,1.3,0.4c-0.3,0.2-0.7,0.4-1.1,0.6c-2.3,0.3-4.5,0.7-6.8,0.8
	c-8.6,0.5-17.1,1-25.7,1.4c-2.6,0.1-5.2,0.1-7.8,0.5c-2,0.3-1.7,0.4-1,2.4c0.9,2.4,1.5,5,1.7,7.5c0.3,5.2-0.6,10.4-2.4,15.3
	c-1,2.9-3.1,5.4-5.1,7.9c-4.8,6-10.9,10.6-17.2,14.7c-4.8,3.1-10,5.8-15.8,6.7c-6.2,0.9-12.2,0.4-17-4.3s-5.9-10.2-4.5-16.5
	c1.3-5.4,4.2-10,7.4-14.4c6.4-9,14.6-16.5,24.2-21.9c1.3-0.7,2.7-1.3,4.2-1.8c3.2-1.1,4.5-0.5,6.1,2.5c0.9,1.7,0.5,2.8-1.3,3.5
	c-0.4,0.2-0.8,0.3-1.2,0.4c-3.5,0.6-6.8,2.3-9.4,4.8c-5.7,5.3-11.2,10.9-14.9,17.9c-2.6,4.7-4.3,9.7-5.3,15
	c-0.1,0.6-0.2,1.3-0.2,1.9c0.1,2.7,0.6,3.4,3.3,3c2.5-0.2,4.9-0.9,7.2-1.8c8.4-3.8,16-9.3,22.3-16.1c4.3-4.8,7-10.8,7.9-17.2
	c0.4-2.5,0.5-5,0.7-7.4c0.3-1.5-0.7-2.9-2.1-3.2c-0.1,0-0.2-0.1-0.3-0.1c-1-0.5-2.4-0.8-2.1-2.1c0.4-1.6,1.9-1,3-1
	c3.3,0,6.5,0.2,9.8,0.3C554.3,47,565.9,47.5,565,47.5z"/>
<path class="st1" d="M87.7,23c-0.1,0.4-0.4,1.2-0.8,2c-3.2,7.4-6.5,14.6-9.4,22.1c-5.6,14.4-11,29-18.4,42.6c-2.2,4.1-4.7,8-7.2,12
	s-5,7.6-7.5,11.4c-3,4.6-7.8,6.4-12.6,8.2c-0.5,0.2-1.1,0.2-1.6,0.2c-2.9-0.1-3.2-0.9-2.3-3.6c5-13.9,12.9-26.3,19.9-39.2
	c4.8-8.8,8.8-17.9,13.2-26.9c4.5-9.3,9.7-18.2,15.6-26.6c1.8-2.4,4.4-4.2,7.3-5.1C86.1,19.2,87.9,20.4,87.7,23z"/>
<path class="st0" d="M360.9,48.7c2,0.4,3.9,1.6,5.2,3.2c2,3.4,2.6,5.7-0.8,7.7c-4.5,2.7-5.6,2.8-7.4,1s-2.8-6.2-1.5-8.3
	c0.8-1.3,2.5-3.5,4.2-3.6C360.6,48.7,360.7,48.7,360.9,48.7z"/>
</svg>
