<?xml version="1.0" encoding="utf-8"?>
<!-- Generator: Adobe Illustrator 23.0.0, SVG Export Plug-In . SVG Version: 6.00 Build 0)  -->
<svg version="1.1" id="Layer_1" xmlns="http://www.w3.org/2000/svg" xmlns:xlink="http://www.w3.org/1999/xlink" x="0px" y="0px"
	 viewBox="0 0 80 80" style="enable-background:new 0 0 80 80;" xml:space="preserve">
<style type="text/css">
	.st0{fill-rule:evenodd;clip-rule:evenodd;fill:#3D3D3D;}
</style>
<title>4</title>
<desc>Created with Sketch.</desc>
<g id="Page-1" transform="matrix(1, 0, 0, 1, 0, 16.999998)">
	<g>
		<path id="Fill-21" class="st0" d="M58.5,61.7v-0.3c0-18.6-3.6-29-3.6-29.1c-0.1-0.2,0-0.5,0.3-0.5l1-0.3c0,0,0.1,0,0.1,0
			c0.2,0,0.3,0.1,0.4,0.3c0,0.1,3.7,10.7,3.7,29.7v0v0.3H58.5z M38.8,61.7L38.8,61.7v-35c0-0.5,0.4-0.9,0.9-0.9
			c0.5,0,0.9,0.4,0.9,0.9v34.7c0,0,0,0,0,0v0.3H38.8z M19,61.7v-0.3c0,0,0,0,0,0c0-19,3.7-29.6,3.7-29.7c0.1-0.2,0.2-0.3,0.4-0.3
			c0,0,0.1,0,0.1,0l1,0.3c0.2,0.1,0.3,0.3,0.3,0.5c0,0-0.5,1.5-1.1,4.3c-0.5,2.3-1.1,5.4-1.6,9.4c-0.5,4.2-0.9,9.4-0.9,15.4
			c0,0,0,0.1,0,0.1v0.3H19z M78.4,61.7H72c0-9.4-0.6-20.1-4.8-28.8c-2.3-4.9-5.6-8.8-9.7-11.4c-4.7-3-10.7-4.5-17.7-4.5
			c-13.1,0-22.3,5.4-27.4,15.9c-4.4,9-5,20-5,28.8H5H0.6C0.3,61.7,0,62,0,62.4S0.3,63,0.6,63H5h2.4h1.3H19h1.9h17.8h1.9h17.8h1.9
			h5.8h4.5H72h6.4c0.3,0,0.6-0.3,0.6-0.6S78.7,61.7,78.4,61.7L78.4,61.7z"/>
	</g>
</g>
</svg>
