<?xml version="1.0" encoding="utf-8"?>
<!-- Generator: Adobe Illustrator 23.0.0, SVG Export Plug-In . SVG Version: 6.00 Build 0)  -->
<svg version="1.1" id="Layer_1" xmlns="http://www.w3.org/2000/svg" xmlns:xlink="http://www.w3.org/1999/xlink" x="0px" y="0px"
	 viewBox="0 0 80 80" style="enable-background:new 0 0 80 80;" xml:space="preserve">
<style type="text/css">
	.st0{fill-rule:evenodd;clip-rule:evenodd;fill:#3D3D3D;}
</style>
<title>3</title>
<desc>Created with Sketch.</desc>
<g id="Page-1" transform="matrix(1, 0, 0, 1, 0, 7)">
	<g>
		<path id="Fill-3" class="st0" d="M78.3,70.4c0,0.4-0.4,0.8-0.8,0.8l-75,0c-0.4,0-0.8-0.4-0.8-0.8v-1.2c0-0.4,0.3-0.8,0.8-0.8
			l4.6,0c0.2,0.1,0.4,0.1,0.6,0l64.6,0c0.2,0.1,0.4,0.1,0.6,0h4.6c0.4,0,0.8,0.4,0.8,0.8V70.4z M16.4,17.9c0.2-0.4,0.3-0.6,0.5-0.8
			c0.3-0.2,0.7-0.5,1.3-0.9c0.8-0.5,3.2-1.9,5.6-3.2c2.4-1.4,4.6-2.6,5.2-2.9c0.5-0.3,1-0.6,1.5-0.9c0.5-0.2,1-0.4,1.5-0.4l16,0
			c0.5,0,1,0.1,1.5,0.4c0.5,0.2,1,0.6,1.5,0.9c0.5,0.3,2.8,1.6,5.1,2.9c2.4,1.3,4.8,2.7,5.6,3.2c0.8,0.5,1.3,0.8,1.5,1.1
			c0.1,0.2,0.2,0.3,0.3,0.6c0,0.1,0.1,0.2,0.1,0.4l-47.3,0C16.4,18.1,16.4,18,16.4,17.9L16.4,17.9z M77.5,66.7l-4.5,0
			c-0.5-0.8-1.4-2.6-1.7-4.3c-0.1-0.6-0.5-3.6-1.1-7.6c-1.6-12.1-4.6-34.2-4.8-36c-0.1-0.6-0.2-1.1-0.3-1.6
			c-0.2-0.7-0.6-1.2-1.1-1.6c-0.5-0.4-0.9-0.7-1.5-1c-0.9-0.5-3.3-1.9-5.6-3.3c-2.4-1.3-4.6-2.6-5.1-2.9v0c-0.5-0.3-1-0.6-1.6-0.9
			C49.5,7.3,48.8,7,48,7L32,7c-0.8,0-1.6,0.3-2.2,0.6c-0.6,0.3-1.2,0.7-1.6,0.9c-0.5,0.3-2.8,1.6-5.1,2.9c-2.4,1.4-4.8,2.7-5.6,3.3
			c-0.8,0.5-1.4,0.8-2,1.5c-0.3,0.3-0.5,0.7-0.6,1.2c-0.2,0.4-0.3,1-0.3,1.6c-0.2,1.2-1.5,11.4-2.9,21.7c-0.7,5.1-1.4,10.3-1.9,14.3
			c-0.5,4-0.9,6.9-1.1,7.6c-0.2,1.2-0.7,2.4-1.1,3.3c-0.2,0.4-0.4,0.8-0.5,1l-4.5,0c-1.4,0-2.5,1.1-2.5,2.5v1.2
			C0,71.9,1.1,73,2.5,73l75,0c1.4,0,2.5-1.1,2.5-2.5v-1.2C80,67.9,78.9,66.7,77.5,66.7L77.5,66.7z"/>
	</g>
</g>
</svg>
