<?xml version="1.0" encoding="UTF-8"?>
<svg width="728px" height="100px" viewBox="0 0 728 100" version="1.1" xmlns="http://www.w3.org/2000/svg" xmlns:xlink="http://www.w3.org/1999/xlink">
    <title>Script/white/ETHIOPIA</title>
    <g id="Script/white/ETHIOPIA" stroke="none" stroke-width="1" fill="none" fill-rule="evenodd">
        <g id="logo/Barista-Creations" transform="translate(221.999960, 0.074282)" fill="#FFFFFF">
            <path d="M125.152049,0.781915395 C125.639193,1.14529553 125.773333,1.28823355 125.869577,1.40483908 L125.939578,1.49038884 C126.036569,1.60595997 126.174441,1.74372602 126.668303,2.09779663 C127.442238,2.65280831 127.396199,4.4565616 127.163921,5.22741886 C126.288985,7.63362547 124.622748,9.57583497 122.930934,11.4821627 L122.296801,12.1961898 C121.664459,12.9102073 121.041981,13.6267043 120.469745,14.3682573 C118.098016,17.4421148 116.196805,20.8857952 114.021438,24.0987871 C110.345209,29.5283577 106.402311,34.9860882 102.959608,40.6469022 C99.4404965,46.4333949 96.4063251,52.4951046 93.2302908,58.47178 C93.0299079,58.8486774 92.8605879,59.2541508 93.0102163,59.9310959 C93.450504,59.5102247 93.7815171,59.2601157 94.0297423,58.9446704 C95.0127972,57.695374 95.9983483,56.4460775 96.9317581,55.1596045 C100.080335,50.8193882 103.358571,46.5661482 107.018575,42.6479128 C109.75557,39.7181835 112.658279,36.9649039 115.894359,34.5821407 C117.906508,33.1004911 120.049427,31.9005784 122.617379,31.7085923 C124.244155,32.1117075 124.236528,32.1290473 125.325252,33.3438029 C125.541998,34.4969677 125.402493,35.6762114 124.995625,36.8856958 C123.670879,40.8236292 121.927618,44.5863615 120.278376,48.3882123 C119.468386,50.2553598 118.865295,52.1759139 118.467026,54.0645627 C118.780843,54.6978115 119.190068,54.706412 119.61427,54.455332 C119.991461,54.2322731 120.336896,53.952201 120.682193,53.6792035 C125.185608,50.1187224 129.684308,46.5521377 134.189525,42.9937374 C135.398202,42.0389397 135.483763,41.9852558 136.324262,40.1665209 C136.439083,39.9180765 136.674967,39.7308069 136.94635,39.6966822 C139.078452,39.4284011 142.70046,40.2856799 143.315753,42.7332245 C143.366923,42.9365854 143.305491,43.157841 143.18013,43.3261063 C140.170366,47.3694656 137.268627,51.4362682 135.758336,56.3395419 C135.891185,56.6431961 136.142184,56.5619072 136.343538,56.3731117 C136.793394,55.9514082 137.219537,55.5040419 137.647066,55.0590338 C141.563893,50.9815498 145.430105,46.8541273 149.434018,42.8623712 C152.081985,40.2227018 155.100209,38.0158333 158.171129,35.8830403 C158.902145,35.3753316 159.522257,34.7638616 160.121014,34.1333698 L160.835002,33.3730726 C161.192602,32.9937821 161.555408,32.6198463 161.942764,32.2695689 C162.2631,31.9797865 162.516317,31.6156511 162.740275,31.3558318 C163.651635,30.6623793 168.422274,31.3667906 168.106792,32.2416865 C167.877981,32.5773847 167.690772,32.9781417 167.392347,33.2618205 C166.882723,33.7459471 166.29974,34.1522528 165.753784,34.5989256 C160.316404,39.0462324 156.576386,44.809143 153.280538,50.8865278 C152.362659,52.5790291 151.729754,54.4348017 151.361716,56.3581301 C151.12292,57.6059007 150.554637,60.4539249 151.895053,61.3103713 C152.678834,61.8111442 153.55622,61.5897499 154.250141,61.068308 C156.025437,59.7338385 157.60548,58.1978114 158.894171,56.3792153 C160.783872,53.7120797 162.672325,51.0438343 164.5501,48.3682369 C165.399751,47.1575041 166.186167,45.9086238 166.827392,44.4924492 C166.980488,44.1543929 166.88092,43.7491969 166.596224,43.5112951 L166.055537,43.0594898 C165.881224,42.9136969 165.75212,42.7329471 165.675849,42.5187661 L164.982067,40.5710233 C164.841452,40.1759537 164.920496,39.7245646 165.204499,39.4160552 C165.732844,38.8420391 166.404993,38.5634929 167.16423,38.4224165 C167.510081,38.3580512 167.867165,38.319765 168.218285,38.3255911 C169.312001,38.3439019 170.300465,37.9665883 171.267433,37.529071 C173.115948,36.6928774 174.956143,35.8383731 176.793841,34.97832 C181.269105,32.883952 185.831872,31.0088975 190.537889,29.494233 C191.126835,29.3047439 191.711758,29.1267684 192.154404,28.660259 C192.00741,28.2724028 191.633408,28.2775353 191.327217,28.2027662 C187.91003,27.3687922 184.493814,26.5280209 180.935319,25.8614797 C179.514611,26.7015574 177.961886,26.6294239 176.249687,26.1654114 C175.949598,25.7825491 175.578093,25.3088263 175.277588,24.9256865 C175.307125,24.2610874 175.614425,23.9493875 176.061369,23.8421583 C177.527146,23.4903689 178.985295,23.3644127 180.517635,23.5627798 C183.766334,23.9835122 186.918516,24.829416 190.103426,25.5281398 C192.253416,25.9997818 194.377475,26.5897505 196.575169,27.142404 C197.383357,26.6804722 198.221776,26.2014782 199.304675,25.5826561 L201.558116,26.1330901 C202.142902,27.0634733 201.715233,27.925191 201.744771,28.9120326 C202.208494,29.1694936 202.737255,29.4651022 203.268097,29.7572428 C204.659267,30.5231062 206.086631,31.2304305 207.434397,32.0664854 C209.246163,33.1903806 210.82066,34.594764 212.136808,36.2980853 C214.022903,38.7392489 214.69741,41.4968288 214.318555,44.5036854 C214.144104,45.8872612 213.731551,47.2408737 213.40234,48.7185004 L213.509993,48.7167756 L213.509993,48.7167756 L213.729113,48.7264025 C213.872658,48.7322392 214.00549,48.7283891 214.093765,48.6637067 C217.014641,46.5252263 219.924699,44.3716257 222.824358,42.2045693 C223.742098,41.5187463 224.623505,40.7845107 225.562462,40.0400099 C225.695588,39.4514284 225.765757,38.8316353 225.982919,38.2687166 C226.13754,37.8679596 226.365519,37.4955012 226.594191,37.1187424 C226.773773,36.8227177 227.080934,36.6269863 227.425121,36.5913357 C229.209153,36.4072566 230.948393,36.2552214 232.588066,37.1729813 C233.128476,37.7045496 233.122097,38.2835595 232.710099,38.8477266 C232.453415,39.1992386 232.138765,39.5210649 231.802066,39.7973917 C231.466616,40.0727474 231.070981,40.2744437 230.852293,40.4131619 C228.799096,44.1682647 226.66533,47.8789777 224.630993,51.6444843 C222.772217,55.0852515 221.414883,59.0929602 219.273906,62.341464 C218.978254,62.7902175 218.419817,63.0279806 217.89369,62.9183932 C217.30114,62.7950727 216.737155,62.534976 216.225867,62.3572779 C216.031308,62.0466877 215.900955,61.8178026 215.75105,61.6026507 C214.311621,59.5354714 214.542789,57.4108629 215.663131,55.3428513 C216.671285,53.4819461 217.818668,51.6962262 218.910304,49.8808206 C219.491623,48.9142319 220.209534,48.0246318 220.652041,46.9544206 C220.410056,46.8835356 220.200105,46.7527243 220.121893,46.8100149 C219.777823,47.0625332 217.069817,48.6709562 214.274432,50.3200467 L213.652722,50.6866461 C210.753334,52.395578 207.94133,54.0434703 207.755703,54.1634688 C205.631505,55.5368488 203.406354,56.726219 201.167456,57.8907759 L198.927207,59.052958 C197.434959,59.8300936 195.949522,60.6197857 194.496734,61.4692037 C192.750005,62.4904474 190.925897,63.4144496 189.051727,64.1712963 C187.509958,64.7938638 185.844353,65.112777 184.227561,65.5436359 C183.980861,65.609527 183.697968,65.5799801 183.438233,65.5459941 C183.186541,65.5131179 182.942892,65.4178184 182.720599,65.3567824 C182.537689,64.9388243 182.669012,64.6135301 182.95565,64.3828416 C184.811653,62.8894011 186.624529,61.3340921 188.556525,59.9451064 C191.709124,57.6784503 195.003724,55.6065547 198.12096,53.2941216 C200.456634,51.5613921 202.639352,49.61573 204.824288,47.6900434 C205.677406,46.9380518 206.393931,46.0152981 207.094786,45.1100228 C208.144127,43.7546069 208.678989,42.1768256 208.946768,40.4879311 C209.167951,39.0925643 208.864812,37.8327252 208.025977,36.7378221 C207.494304,36.0438148 206.86861,35.3994686 206.19549,34.8408502 C204.485371,33.4213464 202.515101,32.4134197 200.513213,31.4792911 C200.048658,31.2623357 199.505474,31.2140618 198.954664,31.0788115 C198.075198,30.8674049 194.768256,38.6286905 193.481923,40.7534378 C192.113218,43.0145451 190.977345,45.4089607 189.692537,47.7170935 C189.093329,48.793547 188.564846,49.9091191 187.985191,50.9966701 C187.073137,52.7083145 186.145551,54.4117745 185.222958,56.1178701 C184.971266,56.5834085 184.653288,57.0231454 184.469546,57.5136531 C183.254907,60.7541112 181.388364,63.6588711 179.792928,66.7031817 C178.72875,68.7341554 177.80893,70.8414242 176.743087,72.8703172 C175.429712,75.3704361 174.306181,77.9626638 173.237426,80.5768091 C172.113895,83.3250949 170.8675,86.0260777 169.594202,88.7088885 C168.620299,90.7612249 167.792974,92.8765393 167.009609,95.0089161 C166.507473,96.3758457 165.944459,97.7190544 165.402108,99.0705862 C165.185917,99.6095066 164.749234,99.8829202 164.225604,100.052711 C164.139627,100.041198 164.041307,100.053821 163.970445,100.015535 C161.982148,98.942688 160.447728,97.4084643 159.417108,95.4007952 C158.696978,93.9979376 158.579244,92.5361248 159.189268,91.0444875 L159.449086,90.3881415 L159.449086,90.3881415 L159.949717,89.0666949 C160.201756,88.4069336 160.464438,87.7524956 160.774026,87.1208421 C165.515127,77.4481579 170.252206,67.7721444 175.442054,58.3286227 C177.720456,54.1827507 180.071384,50.0768295 182.385564,45.9506554 C182.946775,44.9502194 183.487462,43.9371601 183.969768,42.8962184 C184.379177,42.0126102 185.632298,40.0262294 186.908518,37.9872165 L187.358572,37.2670894 C188.62887,35.2302273 189.825725,33.2642789 190.128526,32.4193846 C190.014813,31.7173316 189.609887,31.6142639 189.138537,31.6837618 C188.792547,31.7348101 188.445309,31.8267803 188.118734,31.9528751 C185.515559,32.959276 182.904063,33.9465337 180.331258,35.0271488 C179.193582,35.5050331 178.080729,36.0399307 176.963993,36.5648405 C175.754485,37.1333078 174.526117,37.6737541 173.489118,38.7030435 C173.940084,39.7822714 174.444022,40.7895045 175.098838,41.79757 C176.092293,43.3270773 175.106603,45.5007921 174.431542,46.9508139 C173.047721,49.9235458 171.237896,52.6772416 169.41878,55.3962578 C167.2907,58.5770671 165.118521,61.6738131 162.000037,63.9698774 C160.762239,64.8811176 159.402963,65.4778834 157.958126,65.8807212 C156.944147,66.1632903 155.885793,66.3334975 154.835897,66.4314326 C152.977675,66.6048304 151.423286,65.9998802 150.072609,64.6341991 C147.896686,62.4337116 147.276262,59.9337315 147.77396,56.8928889 C148.354169,53.3476669 149.562014,50.0826556 151.262148,46.9602467 C152.22884,45.184792 153.184715,43.4033723 154.110636,41.6890923 C154.015922,41.3497875 153.881964,41.3052589 153.678807,41.4545198 C151.746811,42.8747171 150.078849,44.5871938 148.464969,46.3380954 C146.190727,48.8051993 143.9861,51.3383331 141.804908,53.888668 C140.77512,55.092881 139.850446,56.3890643 138.911212,57.6680465 C137.708776,59.3053379 136.524506,60.9541429 134.978576,62.3058134 C134.026446,63.1381229 131.439634,63.2489587 130.311666,62.7809234 C128.732593,62.1254797 127.641096,60.471126 127.150608,58.8871024 C126.951196,58.243311 126.93303,57.5601237 127.055894,56.8973279 C127.294551,55.6123809 127.705579,54.3877762 128.227684,53.1874473 C128.418082,52.7496525 128.866967,52.2909113 128.498096,51.7347899 C128.410455,51.7358996 128.301735,51.7038557 128.26041,51.7428355 C127.37415,52.5793065 126.467504,53.3967731 125.62229,54.2733337 C124.521224,55.4151235 123.416137,56.5426254 122.225765,57.5996584 C121.092388,58.6061979 119.811325,59.3169902 118.517226,60.056081 C117.037998,60.9005976 115.551697,61.1387769 113.82993,60.4350592 C112.114264,58.9112393 111.484133,56.903709 111.97254,54.5539607 C112.259039,53.1759337 112.629435,51.8263439 113.176363,50.5082432 C115.009485,46.0904834 117.366653,41.9582057 119.817704,37.8690694 C120.313045,37.0427248 120.731006,36.1622802 121.103344,35.2728188 C121.29291,34.8194876 121.076164,34.4185919 120.46087,34.2393679 C118.68502,35.4180568 117.067258,36.8549003 115.535611,38.3992505 C114.92323,39.0165467 113.913411,40.020728 113.263866,40.5987669 C112.073078,41.6582969 110.989624,42.7960639 110.074657,44.1506475 C108.696384,46.1909154 107.021626,48.0282385 105.54018,50.0020603 C103.157911,53.1764886 100.808786,56.3763022 98.4850376,59.5938718 C96.6901893,62.0788704 95.119853,64.7172913 93.3255594,67.202706 C92.1399028,68.84513 90.8262508,70.4000228 89.3977773,71.8367276 C88.0314294,73.2107318 85.5079917,76.5452408 83.3072466,75.0087976 C81.8314855,73.9783985 81.1926177,71.345665 81.2023249,69.652054 C81.2087038,68.5185873 81.3645726,67.3677807 81.8427181,66.2956275 C82.1297718,65.652391 82.3296,64.9698972 82.6205365,64.3286028 C84.9910177,59.1014221 87.4198802,53.9030947 90.2429909,48.8989729 C91.76077,46.2085326 93.2685647,43.5122661 94.7508434,40.8021279 C94.9818731,40.3794534 95.4389402,39.9588597 95.0605008,39.2973124 C94.8558191,39.3923344 94.6159143,39.4472668 94.4511704,39.5891756 C93.113944,40.7422016 91.8337122,41.9458598 90.656792,43.275058 C89.0196152,45.1243108 87.2588805,46.864115 85.5606875,48.6598226 C83.7561321,50.567892 81.8984647,52.4311554 80.1968049,54.4291143 C78.6462989,56.2496525 77.0724958,58.0492442 75.4672138,59.8217859 C72.9830206,62.5649391 70.5964534,65.4333549 67.9244966,68.0139303 C67.0242296,68.8834162 65.8170787,69.9525177 64.5760914,70.2844705 C63.9828471,70.4430254 62.2773044,70.5498385 61.8160771,70.1600402 C60.4889737,69.0380871 59.7517866,67.5461724 59.257139,65.91873 C58.9686985,64.970036 58.9774349,64.0339653 59.3363214,63.0687637 C60.8130532,59.096012 62.2981054,55.1267283 64.2608871,51.3617765 C66.382727,47.2913672 68.5501904,43.2446787 70.6961595,39.186754 C70.7866977,39.0156065 70.9148729,38.7516514 71.0508093,38.4689569 L71.2568002,38.0401193 C71.3589716,37.8279317 71.457106,37.626035 71.5385997,37.4656767 C71.2543195,37.3334783 71.0611476,37.1822754 70.8527216,37.1573061 C70.0793407,37.0645036 68.6003902,36.664024 67.8687499,36.5988265 C67.6924962,36.5831513 67.534686,36.4972847 67.4139015,36.3678606 C66.5771469,35.471602 65.9403592,34.4812925 65.907355,33.1361417 C65.9644822,33.0806791 66.6282317,32.9290812 67.5826678,32.7349197 L68.0426667,32.6424795 C70.4343597,32.1671178 74.1152418,31.5089768 75.2026252,31.3264236 C75.9201208,30.8697631 76.3283749,30.2251395 76.6714526,29.4810548 C77.2400824,28.2472948 77.8874093,27.055601 78.5528331,25.8734442 L79.5569663,24.1032954 C79.8911516,23.5129192 80.2222861,22.9208611 80.5427947,22.3230549 C81.6634135,20.2332646 82.5346978,17.9075145 84.2263732,16.1908763 C85.1714316,15.2319171 85.9327479,15.7802703 87.0812401,16.2069676 C87.9375476,16.5250485 88.7193876,17.0219373 89.3870994,17.6454758 C89.8236429,18.0531687 90.2801554,18.4838888 90.7265447,18.9247354 C90.9774047,19.1930165 91.891955,20.2193927 91.3790025,20.9683325 C88.7813745,23.2226427 87.4842246,26.4026196 85.8814388,29.5821804 C87.3343188,29.9217627 88.5954137,29.4216834 89.8739813,29.3208352 C91.2827632,29.2097219 92.695844,29.1368949 94.0993563,28.9793109 C95.4087095,28.8322696 97.9872005,28.4313739 99.4123458,28.6648367 C98.989531,29.2016763 98.3067038,29.8284053 97.7678194,29.9572745 C95.7975493,30.4285004 92.5011467,30.7891678 90.5580566,31.3504218 C88.0188101,32.0838252 85.6698234,32.5733618 83.2899125,33.7311043 C82.9770655,33.8831395 82.6306597,34.0579244 82.4237591,34.3201019 C79.7114484,37.7578174 77.4813046,41.3404934 75.39968,45.181324 C73.6019195,48.4977997 71.8227413,51.8267601 70.1933302,55.2299347 C68.9020045,57.9266173 67.7786123,60.6947398 66.5391505,63.6121231 C66.9296544,63.6069905 67.2316848,63.6964638 67.3510825,63.5868764 C68.4564473,62.5717363 69.5670816,61.5575672 70.6067152,60.4763973 C73.7300536,57.2280322 76.7972293,53.9252896 79.9319389,50.688022 L86.5678716,43.8308506 C90.9938914,39.2613381 95.4305736,34.7022244 99.9171166,30.1926794 C102.36054,27.7366729 104.571685,25.1350123 106.561924,22.3102928 C107.525149,20.9429471 108.332089,19.4748919 109.31972,18.1359835 C111.70185,14.9064841 113.675864,11.5571322 116.122061,8.3753519 C116.697,7.62752186 117.692952,6.45049759 118.319893,5.74580893 C119.829491,4.04914612 120.432581,3.0055688 121.988495,1.31598062 C122.696145,0.7705405 122.99138,0.0888790641 123.504749,0.00439965547 C123.788336,-0.0422096735 124.486972,0.285858966 125.152049,0.781915395 Z M39.9741621,8.97325659 C40.803622,9.60925331 41.6642987,10.2501007 42.2206791,11.1878113 C42.4854709,11.6342148 42.7962593,12.0530385 43.1447568,12.5716482 C44.8904209,12.4135152 46.6334606,12.2564909 48.3763622,12.097665 C49.6887182,11.9780605 50.9984498,11.8050982 52.3132921,11.7459196 C55.5648299,11.5998441 58.8194064,11.5216784 62.0712205,11.3822553 C63.3867534,11.3259871 64.6982806,11.1800502 66.0118798,11.0765223 C67.3430212,10.9716085 68.6510953,11.0445076 69.870491,11.66027 C70.6833754,12.0709168 71.0369836,12.7020628 70.6368262,13.7897295 C70.1340396,14.008427 69.5103908,14.2796507 68.7995831,14.5887099 C68.3950056,14.2438941 68.0089373,13.9148777 67.5763198,13.5462241 C67.3702325,13.4949452 67.1152478,13.3699356 66.8642689,13.3781125 C66.1295274,13.4018999 65.3938543,13.4179123 64.6578093,13.4309639 L62.449118,13.4660497 C59.8723155,13.5078525 57.2978113,13.5723549 54.7495972,13.8659548 C49.9702235,14.4164406 45.168473,15.0139088 40.4356484,16.3054437 C40.034033,16.8535887 39.6242664,17.3965323 39.211775,17.9381619 L37.9715536,19.5629958 C36.9402684,20.9202179 35.9258702,22.2935235 35.0131498,23.7436533 C34.2176695,25.0074699 33.3893147,26.2516064 32.5441083,27.4825767 C30.4969103,30.4643744 28.8419963,33.6819163 26.9644198,36.7653016 C26.7218666,37.1636138 26.5646767,37.5394741 26.8494971,38.0239903 C27.5978757,38.3399791 28.38051,38.0566979 29.1223966,37.9102066 C32.5709051,37.2295834 36.031569,36.653181 39.5170959,36.1843258 C43.4338591,35.6574006 47.3200959,34.9051255 51.2294001,34.3165271 C53.9216568,33.9111468 56.6052114,33.4023771 59.3376634,33.3231028 C59.6698618,33.3135399 60.0048226,33.3929529 60.291853,33.4257991 C60.5292954,34.0476595 60.2571829,34.4157587 59.8271898,34.5662692 C58.4232548,35.0571605 57.0193198,35.5770175 55.5765708,35.9222491 C49.8561296,37.2912566 44.1253288,38.6153605 38.4512988,40.1739613 C37.2701645,40.4985428 36.086544,40.8124527 34.8835855,41.0721733 C33.3580977,41.4016055 31.8946295,42.0583909 30.437377,42.6551662 C29.3834589,43.0867404 28.3845157,43.6531641 27.3587758,44.1548656 C26.4766891,44.5863012 25.6567601,44.5143722 24.9333827,43.8161478 C24.627705,43.5210864 24.3426084,43.2046818 23.9664854,42.8128834 C22.2648841,45.8467915 20.5998868,48.7396134 19.0092025,51.6731812 C17.4147887,54.6140943 15.9557406,57.6252734 14.7374499,60.7460784 C14.1292714,62.3041249 13.549133,63.873813 12.9957914,65.4520938 C12.9319762,65.6337874 13.1223169,65.9052883 13.1922097,66.1264804 C13.3505046,66.1244016 13.4494044,66.1497638 13.5248224,66.1183035 C15.3855474,65.3390031 17.2465486,64.5603957 19.1020246,63.7684834 C23.3029175,61.9755243 27.4870968,60.1420964 31.7038745,58.3878043 C35.7624953,56.6993431 39.9711233,55.4468911 44.1910779,54.2362937 L45.103398,53.9765798 C45.5590387,53.8441239 46.0117456,53.702827 46.4518221,53.5304469 C49.0791585,52.501543 51.8355067,51.9197356 54.5422668,51.1717569 C55.716909,50.8471754 56.9530182,50.7466965 58.1318043,50.5493421 C56.3651446,53.041773 56.3563044,53.0208456 53.579237,54.2016458 C51.5610459,55.0598048 49.579597,56.0045836 47.5652735,56.8718896 C44.3387369,58.2611316 41.0923099,59.6039453 37.8668784,60.9956819 C36.500238,61.5852504 35.1634333,62.2445305 33.8166834,62.8798343 C30.5647312,64.41335 27.2946843,65.9102776 24.0698053,67.4995071 C20.9262837,69.0486837 17.702786,70.4327977 14.6976689,72.2732938 C13.2879326,73.1368579 11.7123042,73.7430574 9.95959553,73.6320456 C9.03455099,73.5735599 8.28769183,73.2510573 7.58130423,72.6606573 C6.38925789,71.6641839 5.84047456,70.2434817 5.06308907,68.9778634 C4.6992594,68.3852459 4.50947125,67.6849426 4.20310291,66.941676 C4.29523442,66.4060196 4.34288865,65.7867925 4.51209569,65.2029062 C5.29652572,62.4955198 5.91105807,59.7393493 6.93237796,57.1000114 C8.20550555,53.8101246 9.69480377,50.6222413 11.4255501,47.5572887 C14.1544107,42.724462 16.9376939,37.9219869 19.4411294,32.9659523 C21.192733,29.4979754 23.1636843,26.1687286 25.4086819,22.9995552 C26.3718498,21.6399719 27.2787995,20.2407514 28.1675163,18.6857539 C27.8086593,18.5722474 27.5750845,18.4103725 27.3840532,18.4507026 C23.5177068,19.2674227 19.7346518,20.3891829 16.0056048,21.6893105 C14.600703,22.1792317 13.2281231,22.7646425 11.8518137,23.3331451 C9.90448238,24.137392 7.98201413,25.0044209 6.01976496,25.7687534 C5.05038127,26.1464154 4.06193589,26.5890769 2.85980619,26.3989292 C1.04493981,25.2247815 0.874627744,23.0723158 1.1283898e-12,21.3335459 C0.221281372,21.1646028 0.355818236,20.977227 0.467011435,20.9902546 C1.73640957,21.1382704 2.90234968,20.7701712 4.05931146,20.3240449 C8.91437946,18.4519499 13.9738772,17.3631746 19.0579617,16.3572769 C22.6792687,15.6408971 26.2996087,14.9350502 29.9833496,14.6194772 C30.7984441,14.5497657 31.4834218,14.2379346 32.0758537,13.6309035 C33.1210698,12.5598679 34.2457095,11.567275 35.2993514,10.5042777 C35.9757652,9.82185278 36.5847724,9.07193379 37.1566232,8.42803735 C38.2979765,7.98537587 39.2058931,8.38424241 39.9741621,8.97325659 Z M269.040676,32.528088 C269.880793,33.3534876 269.100606,34.479635 268.638583,35.169959 C268.413263,35.5066611 268.227988,35.8698708 268.07302,36.2459112 C267.146917,38.4914381 266.573126,40.8735916 265.594635,43.0976869 C262.892988,49.2393989 260.305851,55.199788 258.179092,61.6019225 C258.038936,62.0239281 257.990114,62.4748383 258.192121,62.8993819 C258.795671,63.0914206 259.171982,62.6592631 259.586692,62.4018016 C262.648057,60.5004497 265.70325,58.588664 268.753369,56.6682775 C273.223705,53.8538255 277.909349,51.4771709 282.733642,49.3816654 C283.033291,49.2515247 283.689641,49.0459502 283.992856,48.945278 C284.101334,49.2042905 282.944288,51.4472794 282.56592,51.7954023 C281.343733,52.960606 280.522679,53.5196613 279.103285,54.3860912 C275.3602,56.6708154 271.719559,59.1309406 268.272558,61.8643189 C266.545835,63.2334051 264.861076,64.6624152 263.095406,65.9789092 C262.02366,66.7782243 260.827804,67.3818348 259.683512,68.060174 C258.37479,68.8356605 256.312076,71.4501779 254.704801,71.2276838 C254.484692,71.1970873 254.0586,71.1402653 253.633056,71.0789314 C252.030444,70.8479774 250.922083,69.8712874 250.151359,68.4945874 C249.39572,67.1450999 248.333301,65.3174898 248.34674,63.7067338 C248.366351,61.3736475 249.165052,58.6081217 249.987477,56.4601651 C250.546389,55.0004175 251.089701,53.5343603 251.628042,52.0663115 L253.23878,47.6605084 L253.23878,47.6605084 C253.390182,47.2482316 253.517859,46.8266489 253.799543,45.9795357 C253.193112,46.1580386 252.923222,46.1635375 252.750426,46.2994591 C249.911502,48.5332832 247.059824,50.7511745 244.262727,53.0397057 C241.734012,55.1088446 239.202691,57.154014 236.254741,58.5835881 C235.036531,59.1743678 232.899487,59.8316983 231.615587,59.0364722 C230.424531,58.2936971 230.33155,55.6254596 230.649576,54.4303644 C231.407821,51.5817911 233.567493,49.2498327 235.333987,47.0062798 C237.340063,44.4585952 239.526752,42.05783 241.922167,39.8925307 C245.097358,37.0223847 249.801105,33.9771198 254.148289,33.7068275 C256.056036,33.5882485 257.85846,34.6794285 259.736037,34.9436579 C260.933813,33.6242029 261.391585,31.9106598 262.549179,30.4933525 C263.698545,29.0901449 268.15023,31.6531983 269.040676,32.528088 Z M257.517257,36.8873091 C256.087852,37.2320481 254.677921,37.695648 253.232334,37.9298449 C250.592674,38.3574905 248.243337,39.3653409 246.11507,41.0364438 C241.638837,44.5512306 238.004367,48.8546166 234.790914,53.5670365 C234.642529,53.7848777 234.475219,54.0238685 234.434077,54.2735752 C234.398833,54.4871865 234.532269,54.7301252 234.617844,55.0645714 C235.103867,54.9055262 235.551764,54.8513831 235.897356,54.628889 C237.001603,53.9176974 238.100364,53.1885991 239.142899,52.3861821 C242.485673,49.8132589 245.817203,47.224262 249.124184,44.6026947 C251.811706,42.4720808 254.460144,40.2895798 257.117907,38.1194866 C257.502172,37.8056261 257.981612,37.5437936 258.016582,36.9363762 C257.845981,36.9170596 257.669893,36.8506497 257.517257,36.8873091 Z M149.293165,30.0672777 C148.384236,31.4571377 146.913006,33.6990913 145.106815,32.4700947 C144.411957,31.9971562 143.766681,31.473224 143.18513,30.879638 C142.895959,30.5842927 142.735551,30.1592916 142.701865,29.7259255 C142.598329,28.3918851 143.019764,27.227073 143.45199,26.0148062 C143.48903,25.9112101 143.526069,25.8071315 143.563255,25.7014442 C144.772729,22.2700664 150.847661,27.6897162 149.293165,30.0672777 Z M239.430118,24.7995585 C239.784897,25.0619038 240.139822,25.3267893 240.518701,25.5539953 C241.309759,26.0281644 241.606699,26.6747842 241.409664,27.5685083 C240.698062,28.8604778 239.695655,29.8891142 238.294651,30.5488584 C237.840114,30.7629401 237.413035,31.0314948 236.958206,31.3025896 C236.75825,31.4218375 236.519297,31.46996 236.285455,31.4487918 C236.049277,31.4273413 235.806526,31.4037739 235.570932,31.3504299 C234.732988,31.1603389 234.122605,30.7100194 233.793679,29.9018152 C233.473808,29.1161904 233.11976,28.3497582 233.273998,27.4749445 C233.653753,26.9520885 234.157367,26.5810794 234.715461,26.3293182 C235.968944,25.7637023 237.156701,25.0452515 238.528054,24.6343049 C238.83551,24.5422936 239.17466,24.6107376 239.430118,24.7995585 Z" id="Combined-Shape"></path>
        </g>
    </g>
</svg>