<?xml version="1.0" encoding="UTF-8"?>
<svg width="79px" height="79px" viewBox="0 0 79 79" version="1.1" xmlns="http://www.w3.org/2000/svg" xmlns:xlink="http://www.w3.org/1999/xlink">
    <title>Flowery</title>
    <g id="Flowery" stroke="none" stroke-width="1" fill="none" fill-rule="evenodd">
        <g id="_brand-icons/80x80/Flowery" transform="translate(6.000000, 6.000000)">
            <rect id="bounding-box" x="0" y="0" width="67.5039305" height="67.3280145"></rect>
            <path d="M33.7519652,2.01984044 C38.105773,2.01984044 41.822045,4.96380386 42.8559772,9.07601487 C46.3072464,6.68713684 50.9846906,6.86780479 54.3092134,9.65312644 C57.6256873,12.4317046 58.605519,17.0575731 56.8615145,20.9045042 C61.0449879,21.2787237 64.5413443,24.4508879 65.3394431,28.7626568 L65.3411815,28.7724576 C66.0757428,33.1017354 63.853919,37.251246 59.9852388,39.016238 C62.9144639,42.0382983 63.5838619,46.7535146 61.4125448,50.4941977 C59.2355361,54.2446862 54.8477975,56.0124205 50.7826379,54.9704714 C51.1453547,59.1905888 48.6397943,63.2697433 44.5927224,64.7254696 C40.5564306,66.2433841 36.0394504,64.7698753 33.6169574,61.345252 C31.1944643,64.7698753 26.6774842,66.2433841 22.6411923,64.7254696 C18.5797446,63.1980948 16.0913063,59.1669703 16.4512699,54.9707535 C12.4002793,56.0105407 8.06817167,54.2486297 5.88887387,50.4941977 C3.71283977,46.7453883 4.38987665,42.0178069 7.33530234,38.9965665 C3.55428543,37.1663193 1.36637007,33.0009294 2.0969835,28.6953288 C2.88686057,24.4279778 6.40433935,21.2763938 10.5753399,20.8520349 C8.82830578,17.0440819 9.81464661,12.3611029 13.1272131,9.58579843 C16.434278,6.81510325 21.1206444,6.66018998 24.5936164,9.03166108 C25.6801861,4.951743 29.4135307,2.01984044 33.7519652,2.01984044 Z M25.4131997,46.3765479 L17.9186511,54.4519626 L17.8930002,54.4304036 C17.2477641,58.263675 19.4299988,62.0769497 23.1264725,63.46707 C26.8784143,64.8780499 31.1280499,63.2535794 33.0146487,59.7411057 L33.0700925,59.7408404 L33.0701112,49.1111281 C30.2290213,48.9100683 27.6050156,47.9269334 25.4131997,46.3765479 Z M34.4336861,49.1469788 L34.4337549,59.9892609 L34.3585648,59.9897319 C36.3087456,63.3295032 40.445406,64.8442413 44.1167313,63.4636528 C47.8853466,62.1080221 50.1017749,58.0801388 49.2849176,54.1318389 L49.2860925,54.1298404 L42.4036704,46.7136091 C40.1038143,48.2073716 37.3710899,49.0944583 34.4336861,49.1469788 Z M19.6020813,38.192532 L8.84609251,39.4338404 L8.79863313,39.4756994 C5.86607755,42.0309433 5.088462,46.4075667 7.07188078,49.8245439 C9.11057573,53.3367493 13.3249894,54.8116373 17.0312292,53.3705972 L17.0550925,53.3898404 L24.338175,45.5413663 C22.1006231,43.6362793 20.4272142,41.0920807 19.6020813,38.192532 Z M43.5154682,45.9180139 L50.546845,53.4955371 C54.1772976,54.7212761 58.2572093,53.2224153 60.2295379,49.8245439 C62.2451119,46.3521707 61.4094021,41.8887835 58.3584614,39.3528707 L48.9725396,37.1302985 C48.2399313,40.6712459 46.2621724,43.7590118 43.5154682,45.9180139 Z M34.1569888,20.3330604 C26.5568401,20.3330604 20.3929374,26.4808999 20.3929374,34.0679753 C20.3929374,41.6550508 26.5568401,47.8028903 34.1569888,47.8028903 C41.7571376,47.8028903 47.9210403,41.6550508 47.9210403,34.0679753 C47.9210403,26.4808999 41.7571376,20.3330604 34.1569888,20.3330604 Z M11.5780925,22.1498404 L11.6672511,22.1508303 C7.68961849,22.0878578 4.17792909,24.9417775 3.44007723,28.9276508 C2.76483007,32.9073494 4.98375798,36.7439314 8.67299162,38.1005514 L19.290423,36.8723191 C19.1190136,35.9636402 19.029358,35.0262285 19.029358,34.0679753 C19.029358,31.4731469 19.6867644,29.0311405 20.8446839,26.8986442 L11.5780925,22.1498404 Z M55.793768,22.2174852 L47.2891941,26.5764539 C48.5588087,28.7837247 49.2846197,31.3414883 49.2846197,34.0679753 C49.2846197,34.6520494 49.2513113,35.2283806 49.186484,35.795182 L58.7500925,38.0608404 L58.7665197,38.0561823 C62.4727239,36.7325769 64.6674584,32.9640702 63.9971804,28.9998852 C63.2472536,24.9612171 59.7715836,22.1004606 55.793768,22.2174852 Z M14.0093669,10.6126059 C10.9826945,13.1483853 10.217002,17.5586238 12.1386563,20.9215424 L21.5435473,25.7391283 C23.2170562,23.225149 25.6265802,21.2401904 28.4658923,20.0900792 L24.4760925,10.6398404 L24.379472,10.5586654 C21.3653239,8.10116554 17.0210548,8.08938087 14.0093669,10.6126059 Z M43.0538048,10.6242034 L40.1497686,20.2161113 C42.7426873,21.3325512 44.9599219,23.1514015 46.5604409,25.4319462 L55.3203383,20.9443688 C57.2108976,17.5307415 56.4454504,13.2087748 53.4270596,10.6799339 C50.3860319,8.13212762 46.0405059,8.12772634 43.0538048,10.6242034 Z M33.7519652,3.36640073 C29.7729428,3.36640073 26.3838417,6.25410603 25.746382,10.1484689 L29.7524887,19.6356768 C31.146065,19.2135337 32.624887,18.9865001 34.1569888,18.9865001 C35.8037003,18.9865001 37.3888626,19.2487709 38.8727861,19.7336747 L41.7110925,10.3538404 L41.6800532,10.1271783 C41.0737066,6.23235225 37.7231301,3.36640073 33.7519652,3.36640073 Z" id="Combined-Shape" fill="#FFFFFF"></path>
        </g>
    </g>
</svg>