<?xml version="1.0" encoding="utf-8"?>
<!-- Generator: Adobe Illustrator 23.0.6, SVG Export Plug-In . SVG Version: 6.00 Build 0)  -->
<svg version="1.1" id="Melozio" xmlns="http://www.w3.org/2000/svg" xmlns:xlink="http://www.w3.org/1999/xlink" x="0px" y="0px"
	 viewBox="0 0 858.2 250.1" style="enable-background:new 0 0 858.2 250.1;" xml:space="preserve">
<style type="text/css">
	.st0{opacity:0.7;fill:#FFFFFF;}
</style>
<title>Melozio_White</title>
<path class="st0" d="M354.8,178.2c-4.5,4-9,8.1-13.6,11.9c-4.2,3.6-8.6,6.9-13.3,9.8c-7.8,4.6-16.2,8.6-25.6,6.1
	c-18.6-4.9-21.9-17-17.4-35.6c-4.3,2.2-8,4.3-11.9,6.2c-5.9,2.8-11.8,5.7-17.9,8.1c-4.7,1.9-5.9,5.9-7.6,9.9
	c-3.1,7.3-6.8,14.3-9.5,21.7c-3,8.2-5.1,16.8-7.9,25c-0.9,2.5-2.9,4.7-4.7,6.8c-0.6,0.6-1.3,1.1-2.1,1.5c-0.7,0.4-1.5,0.4-2.2,0.2
	c-1.6-0.3-3.1-0.8-4.6-1.4c-0.2-0.1-0.4-0.2-0.6-0.4c-0.7-0.6-1.4-1.5-2.8-2.6c-7.1-5.7-8.8-9.4-11.9-15.1c-1.6-3,0.6-5.8,4.1-7.9
	c0.9-0.5,1.7-1.2,2.2-2.1c7.6-16.4,15-33,22.7-49.4c7.9-16.9,15.4-34.1,23.9-50.7c9.7-18.7,20.4-36.9,30.5-55.3
	c7.9-14.4,15.6-29,23.6-43.9c-4.5,3.5-8.7,6.7-13,10c-6,4.7-12.4,8.9-18,14.1c-6.4,6.2-12.5,12.7-18.2,19.5
	c-6.1,7.1-12,14.5-17.7,21.9c-8.1,10.5-15.8,21.3-23.9,31.8c-6.5,8.4-13.7,16.3-20.1,24.7c-6.2,8.3-11.7,17.1-17.5,25.6
	c-2.9,4.3-5.8,8.7-8.5,13.1c-2.9,4.6-6.5,8.8-8.8,13.7c-2.9,6.1-7.9,10.2-12.1,15c-2.4,2.8-5.1,3.5-8.7,2.6c-7.6-2-14.2-5-18.9-11.9
	s-4.8-14.3-2.9-21.5c2.5-9.7,5.7-19.2,9.5-28.4c4.1-10.1,9-20,13.8-29.8c5.4-11.3,10.8-22.5,16.5-33.6c5.3-10.3,11-20.3,16.6-30.4
	c1.6-2.8,2.8-5.7,3.7-8.7c-1.2,0.9-2.4,1.9-3.5,3c-6.8,7-13.8,14-20.4,21.3c-6.1,6.9-11.7,14.3-17.3,21.6c-8.1,10.5-16,21.2-24,31.7
	c-9.8,12.9-19.6,25.8-29.3,38.7c-5.9,7.8-11.4,15.9-17.3,23.7c-3.9,5.1-7.9,10.2-12,15.1c-3.6,4.3-7.3,8.6-11.1,12.7
	c-4.1,4.4-8,9.2-12.5,13.2c-5.9,5.2-12.7,8.6-20.9,7.7C7.8,236.9,1,231.2,0,227.4c-0.2-0.7,0.4-2.1,0.9-2.3c2.1-0.7,4.4-0.9,6.5-1.5
	c1.6-0.4,3.1-1,4.4-1.9c15-11.3,26.3-26.3,38-40.7c12.3-15.1,24.5-30.4,36.6-45.7c16.1-20.5,31.9-41.2,47.9-61.7
	c18.5-23.9,39-46,63.3-64.3c2.7-2,5.4-4.4,8.5-5.2c2.5-0.7,5.7,0.3,8.4,1.2c5.8,1.9,11,4.8,14.7,10c0.5,0.6,0.7,1.4,0.5,2.1
	c-4.2,9.8-8.5,19.6-12.7,29.4c-2.4,5.6-4.4,11.4-6.8,17.1c-2.8,6.6-5.7,13.1-8.6,19.6c-3.8,8.4-7.5,16.8-11.4,25.1
	c-4.6,9.7-9.3,19.4-14,29.1c-3.3,6.9-6.7,13.8-9.9,20.8c-1.3,2.7-2.2,5.5-3.3,8.3c-0.1,0.5,1.8-1.3,2.3-2.1
	c10.3-14.4,20.2-29.2,30.9-43.3c13.6-17.9,27.5-35.7,42-52.8c11.2-13.3,23.1-26.1,35.5-38.2c12-11.8,25.8-21.6,40.9-29
	c5.9-2.9,11.2,0,16.3,2.2c0.8,0.4,1.1,3.5,0.6,5c-3.5,10.9-7.1,21.6-13,31.8c-7.9,13.6-14,28.3-20.7,42.5
	c-5.8,12.2-11.3,24.5-17.1,36.7c-5.1,10.7-10.5,21.2-15.3,32c-3.9,8.7-7.2,17.6-11.2,27.4c6.3-3.2,11.9-5.9,17.3-8.7
	c5.8-3,11.6-6.1,17.3-9.4c1.2-0.8,2.2-1.8,2.9-3c5.3-8.1,9.8-16.9,16-24.3c6.6-7.9,14.9-14.2,25.7-15.9c5.7-0.9,11.2-0.1,15.6,3.9
	c1.1,1,1.4,3.7,1,5.4c-1.9,8.3-6.7,15.7-13.5,20.8c-6,4.6-12.1,8.9-18.3,13.1c-2.9,2-6.2,3.5-9.5,4.6c-5.5,1.6-6.9,6.1-8.5,10.4
	s-2.6,8.9-4,13.2c-1.2,3.6,1,5.5,3.6,5.6c4,0.2,8.5,0,12.1-1.5c14.6-6,25.4-17.1,36.7-27.6c8.1-7.4,15.7-15.1,23-23.3
	c3.8-4.3,6.1-9.9,9-14.9c15-26.2,29.4-52.7,48.2-76.4c3.6-4.5,7.1-9,10.7-13.5c1.2-1.5,2.2-3.8,3.6-4.1c4-0.8,7.9-0.2,10.9,2.8
	c0.9,0.9,1.5,1.7,2.8,3.1c3.1,4.4,4.6,7,5.4,11.3c1.5,8.5-5.8,11.3-10.1,16.1c-0.7,0.6-1.3,1.2-1.9,1.9c-7,10.1-14.3,20.1-21,30.5
	c-5.7,8.8-10.9,18-16.2,27.1c-4.1,7.1-8.1,14.2-11.8,21.4s-7,15-10.5,22.4c-2.2,4.7-4.8,9.1-6.7,13.9c-2.4,5.9-4.3,12-6.5,18
	c-1.2,3.1-2.6,6.1-4.3,10.1c1-0.5,2-1.2,2.9-1.9c19-18.8,38.2-37.4,56.9-56.4c3.4-3.5,5.3-8.5,7.9-12.7c7.3-12,15.3-23.7,27-31.9
	c3.7-2.6,10.4-5.4,12.9-5.2c1.2,0.3,2.2,1.2,2.7,2.4c0.4,1.8,0.7,4.5-0.3,5.5c-2.7,2.8-6.1,4.8-9.3,7.2c-1.4,0.9-2.6,2-3.8,3.1
	c-3,3.1-6.1,6-8.6,9.4c-5.7,7.9-11.3,16-16.5,24.3c-4.2,6.5-6.9,13.8-7.9,21.5c-0.4,3.7,1.5,4.6,4,3.1c5.1-3,10.7-5.9,14.7-10.2
	c8.9-9.4,17.6-19.1,21.4-32c1-3.2,0.5-6.7-1.4-9.4c-1-1.6,0.1-6.5,1.5-7.1c9.9-4.2,20-7.9,30.1-11.4c20.4-7.2,40.6-14.9,62-18.6
	c8.1-1.4,16.2-3.5,24.3-3.2c5.3,0.2,10.7,3.8,15.8,6.5c2.7,1.4,2.3,4.8,0.8,7c-2.8,3.8-5.9,7.4-9.3,10.7c-4.4,4.4-9.2,8.4-13.9,12.4
	c-7.1,5.9-14.3,11.7-21.5,17.5c-10.6,8.5-21.3,17-31.8,25.6c-8.9,7.3-17.8,14.6-26.6,22.1c-8.2,7-16.3,14.1-24.4,21.3
	c-1.2,1.1-2.3,2.3-3.5,3.4c-4.1,3.6-7.8,7.5-11.3,11.7c4.6-2.2,9-4.6,13.7-6.5c22.3-9,44.3-18.8,67-26.7
	c20.4-7.1,41.7-11.4,63.6-10.3c9.4,0.3,18.4,3.1,26.3,8.2c1.1,0.7,2.1,1.6,3,2.5c1.1,1,1.4,2.6,0.7,4c-1.1,2.2-3,3.2-5.9,2.6
	c-0.8-0.2-1.6-0.6-2.3-1.1c-3.2-2.4-4.5-3.1-6.8-3.5c-13.2-2-26.3-1.1-39.4,0.9c-17.4,2.6-34.1,7.9-50.4,14.5
	c-8.7,3.5-17,8.1-25.5,12.3c-8.3,4.1-16.6,8.1-24.8,12.4c-7.4,3.9-14.4,8.3-21.9,12c-2.7,1.5-5.7,2.4-8.8,2.6c-5.9,0-6,0.8-8.9-6.9
	c-0.6-1.8-0.9-3.6-1.4-5.4c-0.2-0.7-0.5-1.4-0.6-2.1c-1.3-5.4-2.8-10.8-0.3-16c0.7-1.7,1.8-3.1,3.2-4.3c6.7-6.4,13.4-12.7,20.4-18.8
	c9.6-8.4,19.2-16.7,29.1-24.8c9.2-7.4,18.8-14.3,28-21.6c13.2-10.4,26.2-20.9,39.3-31.3c3.5-2.8,7-5.6,10.4-8.4
	c1.2-1.1,2.3-2.4,3.4-3.6h0.2l-0.1,0.1c-7.4,1.9-15,3.2-22.1,5.7c-12.5,4.3-24.7,9.6-37.2,14c-9.4,3.3-18.9,6.5-28.6,8.3
	c-4.9,0.9-6.1,2.8-7.7,6.8c-6.4,16.1-15.8,30.9-27.7,43.6c-2.2,2.4-4.9,4.4-7.8,5.9c-6.4,2.9-12.1,3.1-16.2-5.4
	c-1.7-3.5-2.6-7.5-4-11.5c-0.5,0.3-1,0.6-1.3,1.1c-8.8,14.4-21.5,25.5-32.7,37.9c-5.9,6.6-12,13.2-17.9,19.8
	c-4.2,4.7-8.6,5.2-13.8,1.8c-1.5-1-3.5-1.5-5.2-2.3c-10.8-5.5-12.8-16.1-10.7-25.4c2-8.8,5.5-17.3,8.3-26c0.2-0.9,0.3-1.9,0.2-2.8
	v0.1L354.8,178.2z M341,128.4c-6.4-1.2-11,1.7-14.6,5.9c-5.1,5.9-9.7,12.4-14.5,18.7c-0.5,0.6-1.1,1.4-0.7,2.3
	c0.5,0.5,1.8-0.1,2.4-0.5c5.6-3.9,11.2-7.8,16.5-12.1C335,138.9,338.7,134,341,128.4z"/>
<path class="st0" d="M641.3,144.9c-4.1,4.3-7.4,8.1-11.2,11.6c-6.8,6.2-13.4,12.7-20.8,18c-7.2,5.1-14.4,1.8-19-7.1
	c-2.2-4.3-2.6-8.4-0.4-12.7c6.3-12,12.8-24,19.1-36c1.2-2.3,2.3-4.7,3.5-7.1c2.6-5.1,2.6-5.1,7.8-2.6c3.5,1.7,5.5,5.7,4,8.6
	c-1.6,3.1-3.5,6-5.2,9c-5.5,10-11.1,20-16.5,30.1c-2,3.7-3.5,7.6-5.2,11.4l0.8,0.8c2.3-1.4,4.9-2.4,7-4.1
	c10.3-8.6,20.5-17.2,30.7-25.9c4.4-3.7,9.1-7.2,12.8-11.6c5.3-6.3,9.2-13.9,14.8-19.9c5-5.4,11.3-9.9,17.4-14.2
	c5.6-3.9,11.9-7,18.3-10.7c-4.8-0.4-9.1-0.5-13.2-1.3c-1.6-0.5-3.1-1.2-4.4-2.3c-0.4-0.2,0-3.4,0.4-3.5c1.3-0.1,2.7-0.3,4-0.3
	c10.3-0.4,20.6-1,30.9-1.1c28.1-0.4,56.2-0.8,84.3-1c17.4-0.2,34.8-0.1,52.3-0.2c1.6,0,4.6,1.8,4.6,3.6c-4.6,0.4-9.3,1-13.9,1.2
	c-13.5,0.5-27,1-40.6,1.3c-19.9,0.5-39.9,0.7-59.8,1.2c-6.3,0.1-12.5,0.6-18.8,0.9c-1.1-0.1-2,0.7-2.1,1.8c0,0.4,0.1,0.9,0.3,1.2
	c2.5,4.8,5.6,9.5,7.2,14.6c2,6.5,1.8,13,1.2,19.7c-0.4,4.2-0.9,8.4-1.5,12.5c-2.1,13.4-6.9,24.5-15.9,34.6
	c-6.4,7.2-13.4,13.9-22,18.4c-3.4,1.8-7,3.4-10.6,4.7c-7.9,3-14.4,2.2-21.1-3.2C648.2,175.6,641.9,162.3,641.3,144.9z M666.1,164.7
	c0.3,1.7,3.6,1.3,4.1,1.2c1.9-0.4,4.1-0.8,5-1c12.7-3.7,19.8-12.3,26.4-23c4.2-6.9,6.5-13.2,9.6-20.7c3.7-9,7.5-25.9,4.7-36
	c-0.8-2.9-2.3-3.4-5.2-2.3c-3.2,1.5-6,4.6-8.7,7.2c-7.6,7.4-15.8,18.8-20.8,27.8c-4.7,8.5-7.6,16.4-11.4,25.4
	C667.9,147.7,665.2,159.4,666.1,164.7L666.1,164.7z"/>
<path class="st0" d="M640.8,69.9c5.9,0,14.2,6.5,15.3,12.2c0,1.3-0.7,2.6-1.8,3.3c-2.9,1.6-6.1,2.7-9.2,4s-5.8,2.5-8.8,3.7
	c-2.3,1-4.5,2.7-6.8,2.6c-2.7-0.1-5.3-1.7-8-2.7c-0.2-0.1-0.4-0.9-0.3-1.3c3.8-8.8,8.3-17,17.5-21.3C639.5,70.2,640.2,70,640.8,69.9
	z"/>
</svg>
