<?xml version="1.0" encoding="UTF-8"?>
<svg width="779px" height="105px" viewBox="0 0 779 105" version="1.1" xmlns="http://www.w3.org/2000/svg" xmlns:xlink="http://www.w3.org/1999/xlink">
    <title>Script/ice-leggero</title>
    <g id="Script/ice-leggero" stroke="none" stroke-width="1" fill="none" fill-rule="evenodd">
        <g id="Script_VL_Barista_Ice_Leggero" transform="translate(217.920000, 7.000000)" fill="#FFFFFF" fill-rule="nonzero">
            <g id="Ice_Leggero_W" transform="translate(0.080000, 0.000000)">
                <path d="M57.7579787,4.186 C57.7579787,4.186 57.7579787,4.186 57.7579787,4.186 C55.0292553,4.186 52.3914894,5.642 50.1175532,6.916 C47.6617021,8.372 45.2968085,10.374 43.1138298,12.285 C38.6569149,16.198 34.8367021,20.839 32.2898936,26.208 C31.1984043,28.574 30.0159574,31.031 30.6526596,33.67 C30.9255319,34.762 31.562234,36.309 32.562766,37.037 C32.7446809,37.128 33.0175532,37.219 33.2904255,37.219 C34.0180851,37.219 34.8367021,36.764 34.9276596,36.036 C35.018617,35.399 34.4728723,34.671 34.2909574,34.125 C34.1090426,33.488 34.1090426,32.851 34.1090426,32.214 C34.2,30.758 34.8367021,29.302 35.4734043,28.028 C36.7468085,25.298 38.5659574,22.841 40.3851064,20.475 C43.9324468,15.925 48.2984043,11.739 53.3010638,8.918 C53.7558511,8.645 55.3930851,7.553 56.2117021,7.553 C56.393617,7.553 56.5755319,7.644 56.6664894,7.826 C56.8484043,8.19 55.2111702,10.192 54.9382979,10.647 C53.3010638,13.559 51.6638298,16.471 50.0265957,19.383 C46.8430851,25.207 43.7505319,31.031 40.5670213,36.764 C37.4744681,42.497 34.4728723,48.321 30.5617021,53.599 C27.1962766,58.149 23.1941489,62.062 17.918617,64.246 C15.0079787,65.429 11.8244681,66.157 8.64095745,66.43 C8.27712766,66.43 7.91329787,66.521 7.45851064,66.521 C6.36702128,66.521 5.36648936,66.339 4.36595745,66.066 C3.63829787,65.884 2.36489362,65.247 1.00053191,64.701 C0.909574468,64.701 0.818617021,64.61 0.727659574,64.61 C0.0909574468,64.61 -0.27287234,65.52 0.27287234,65.975 C1.63723404,66.976 3.27446809,67.886 4.00212766,68.159 C7.45851064,69.797 11.2787234,70.616 15.1898936,70.616 C18.3734043,70.616 21.6478723,69.979 24.5585106,68.796 C29.7430851,66.612 33.4723404,62.335 36.5648936,57.785 C40.4760638,51.961 43.2047872,45.5 46.3882979,39.312 C49.7537234,32.669 53.2101064,25.935 56.2117021,19.11 C57.6670213,15.834 59.5771277,12.74 60.668617,9.373 C61.3962766,7.098 60.9414894,5.187 59.031383,4.55 C58.7585106,4.186 58.3037234,4.186 57.7579787,4.186 M199.469681,26.299 C196.65,26.299 193.648404,28.574 191.738298,29.575 C190.373936,30.303 189.100532,31.031 187.827128,31.941 C185.098404,33.852 182.460638,35.854 179.731915,37.765 C174.274468,41.496 168.998936,45.5 163.632447,49.413 C161.540426,50.96 159.448404,52.507 157.174468,53.872 C155.992021,54.6 154.718617,55.237 153.53617,55.783 C152.899468,56.056 151.080319,57.057 150.170745,57.057 C150.079787,57.057 149.98883,57.057 149.897872,57.057 C148.715426,56.602 150.989362,51.961 151.535106,51.142 C152.262766,50.05 153.445213,49.595 154.62766,49.049 C155.901064,48.503 157.083511,47.866 158.356915,47.32 C160.630851,46.137 162.995745,44.954 165.178723,43.589 C167.08883,42.315 168.998936,40.677 170.27234,38.766 C171.272872,37.219 171.272872,35.308 169.726596,34.125 C168.635106,33.397 167.270745,33.033 165.906383,33.033 C164.996809,33.033 164.087234,33.215 163.268617,33.397 C161.813298,33.852 160.630851,34.762 159.357447,35.672 C157.174468,37.31 155.173404,39.039 153.263298,41.041 C151.262234,43.225 149.352128,45.5 147.623936,47.957 C146.07766,50.232 144.713298,52.507 145.622872,55.328 C146.350532,57.603 147.805851,59.787 150.170745,60.333 C150.534574,60.424 150.898404,60.515 151.262234,60.515 C153.17234,60.515 154.62766,59.241 156.446809,58.331 C161.813298,55.601 173.182979,48.139 178.003723,44.59 C173.364894,50.596 171.909574,59.514 177.367021,59.514 C177.548936,59.514 177.821809,59.514 178.003723,59.514 C179.731915,59.332 181.096277,58.331 182.460638,57.33 C185.007447,55.51 187.554255,53.69 189.828191,51.506 C190.555851,50.778 191.374468,50.05 192.01117,49.231 C192.375,48.867 192.647872,48.503 193.011702,48.139 C193.10266,48.048 193.830319,47.229 194.103191,47.229 C194.103191,47.229 194.103191,47.229 194.103191,47.229 C194.376064,47.32 193.466489,49.322 193.10266,50.323 C191.192553,55.055 188.918617,59.605 186.462766,64.064 C186.007979,64.883 185.917021,65.156 181.823936,66.339 C173.637766,68.614 165.724468,72.618 158.53883,77.077 C155.537234,78.897 152.080851,81.081 149.170213,83.447 C148.169681,84.266 147.532979,85.085 147.260106,86.45 C146.987234,87.633 147.805851,88.998 148.624468,89.817 C149.534043,90.727 150.716489,90.909 151.898936,90.909 C152.080851,90.909 152.262766,90.909 152.444681,90.909 C153.990957,90.909 155.537234,90.727 157.083511,90.454 C161.540426,89.635 165.815426,88.179 169.999468,86.541 C171.818617,85.813 173.546809,84.812 175.184043,83.811 C175.911702,83.356 176.548404,82.901 177.185106,82.446 C178.276596,81.627 179.459043,80.717 180.550532,79.625 C181.278191,80.444 182.733511,82.082 184.18883,82.992 C187.099468,84.812 190.555851,85.449 194.103191,85.449 C196.377128,85.449 198.651064,85.176 200.743085,84.721 C206.473404,83.538 211.930851,80.626 216.023936,76.531 C217.024468,75.53 217.934043,74.438 218.661702,73.255 C222.936702,66.521 225.938298,59.059 228.121277,51.415 C229.030851,48.321 229.849468,45.136 230.759043,42.042 C231.122872,41.041 231.395745,39.949 231.850532,38.948 C232.123404,38.22 232.123404,38.493 232.305319,37.765 C232.578191,36.946 232.487234,36.218 231.668617,35.945 C231.395745,35.854 230.85,35.49 230.213298,35.49 C229.758511,35.49 229.212766,35.672 228.757979,36.491 C228.576064,36.855 228.121277,37.765 227.939362,38.129 C227.484574,38.857 227.575532,38.766 227.029787,39.403 C226.120213,40.677 225.028723,41.86 224.028191,43.043 C221.481383,45.864 218.934574,48.776 216.205851,51.506 C213.75,53.872 211.294149,56.42 208.565426,58.513 C208.474468,58.604 208.383511,58.604 208.292553,58.604 C208.110638,58.604 208.019681,58.513 208.110638,58.331 C208.201596,58.058 208.383511,57.694 208.383511,57.603 C209.384043,54.236 211.112234,51.051 212.840426,47.957 C214.659574,44.863 216.751596,41.86 219.207447,39.312 C220.844681,37.674 222.572872,36.127 224.482979,34.853 C225.84734,33.943 227.30266,33.124 228.939894,32.76 C229.576596,32.578 230.213298,32.487 230.85,32.487 C231.850532,32.487 232.851064,32.669 233.760638,33.124 C234.306383,33.397 234.943085,33.761 235.48883,33.761 C235.670745,33.761 235.943617,33.67 236.125532,33.579 C236.580319,33.306 236.671277,32.669 236.489362,32.214 C236.307447,31.577 235.761702,31.213 235.215957,30.94 C235.125,30.849 235.034043,30.849 234.943085,30.758 C232.851064,29.666 230.577128,29.211 228.303191,29.211 C226.120213,29.211 223.937234,29.666 221.93617,30.576 C217.206383,32.669 213.659043,36.855 210.657447,40.95 C207.655851,45.045 205.2,49.504 203.198936,54.236 C202.744149,55.237 202.471277,56.329 202.562234,57.421 C202.744149,58.513 203.380851,59.423 204.199468,60.242 C205.381915,61.334 206.655319,61.789 207.837766,61.789 C210.293617,61.789 212.749468,59.969 214.659574,58.058 C216.114894,56.693 217.570213,55.237 218.934574,53.781 C220.026064,52.598 221.026596,51.415 222.027128,50.141 C222.572872,49.504 223.02766,48.958 223.573404,48.321 C223.846277,48.048 224.119149,47.684 224.392021,47.411 C224.482979,47.32 224.573936,47.138 224.755851,47.047 C224.846809,46.956 225.119681,46.865 225.210638,46.774 C224.664894,48.776 224.210106,50.869 223.482447,52.871 C221.117553,60.151 217.843085,68.068 212.203723,73.437 C208.110638,77.35 203.017021,79.989 197.559574,81.445 C195.740426,81.9 193.830319,82.264 191.829255,82.264 C190.101064,82.264 188.372872,81.991 186.917553,81.263 C184.734574,80.262 183.09734,78.533 182.369681,78.078 C186.280851,74.256 189.828191,69.888 191.192553,67.795 C192.193085,66.248 193.921277,65.975 195.558511,65.611 C197.468617,65.156 199.378723,64.883 201.28883,64.61 C202.289362,64.519 203.289894,64.428 204.199468,64.337 C204.745213,64.246 205.2,64.246 205.745745,64.155 C206.109574,64.155 206.655319,63.973 207.019149,63.973 C207.201064,63.973 208.019681,63.791 208.110638,63.609 C208.201596,63.245 204.927128,63.063 204.563298,63.063 C203.835638,63.063 203.107979,62.972 202.380319,62.972 C199.742553,62.972 197.104787,63.154 194.557979,63.7 C194.103191,63.791 193.739362,63.882 193.284574,63.882 C193.284574,63.882 193.375532,63.7 193.375532,63.7 C194.557979,60.788 195.740426,57.876 196.922872,54.964 C198.014362,52.234 199.105851,49.413 199.924468,46.501 C200.743085,43.589 201.470745,40.677 202.471277,37.765 C203.198936,35.581 204.563298,33.124 204.381383,30.758 C204.199468,29.12 203.107979,27.846 201.743617,27.118 C201.015957,26.39 200.288298,26.299 199.469681,26.299 M325.445745,27.846 C320.26117,27.846 315.076596,28.301 309.892021,28.847 C306.617553,29.211 303.252128,29.484 299.97766,30.212 C299.159043,30.394 298.88617,30.394 299.159043,31.213 C299.340957,31.85 299.795745,32.578 300.432447,32.76 C300.523404,32.76 300.705319,32.76 300.796277,32.76 C301.614894,32.76 302.615426,32.305 303.343085,32.214 C304.434574,32.123 305.526064,32.032 306.708511,32.032 C299.886702,35.945 293.701596,40.495 289.608511,47.32 C287.971277,49.959 285.879255,53.053 285.242553,56.147 C284.696809,58.513 284.969681,60.97 285.879255,63.154 C286.697872,65.065 287.880319,67.067 289.881383,67.886 C290.609043,68.159 291.336702,68.25 292.064362,68.25 C292.973936,68.25 293.792553,68.068 294.702128,67.886 C297.794681,67.067 300.705319,65.793 303.434043,64.064 C306.344681,62.153 308.982447,59.787 311.438298,57.33 C312.529787,56.238 313.530319,55.146 314.530851,54.054 C316.531915,51.779 318.260106,49.231 319.715426,46.592 C321.079787,44.044 322.807979,41.041 322.353191,38.038 C321.807447,34.216 317.714362,31.213 317.714362,31.213 C317.714362,31.213 319.442553,30.94 321.625532,30.758 C327.810638,30.212 333.45,30.121 339.453191,30.121 C340.180851,30.121 340.817553,30.121 341.545213,30.121 C341.545213,30.121 341.545213,30.121 341.545213,30.121 C342.090957,30.121 341.545213,29.575 341.363298,29.575 C340.908511,29.393 340.180851,29.302 339.726064,29.211 C338.634574,28.938 337.543085,28.756 336.451596,28.574 C334.268617,28.21 332.085638,28.028 329.811702,27.846 C328.44734,27.846 326.992021,27.846 325.445745,27.846 M90.5026596,30.121 C88.956383,30.121 87.0462766,30.94 86.0457447,31.577 C81.4978723,34.307 79.7696809,36.491 76.0404255,40.222 C73.8574468,42.406 71.4015957,44.59 69.1276596,46.683 C65.762234,49.777 62.487766,52.962 58.7585106,55.601 C57.5760638,56.42 56.3026596,57.148 55.0292553,57.876 C53.7558511,58.604 52.3005319,59.605 50.7542553,59.605 C50.6632979,59.605 50.5723404,59.605 50.481383,59.605 C50.2994681,59.605 50.0265957,59.514 49.8446809,59.423 C49.4808511,59.15 49.2989362,58.695 49.3898936,58.149 C49.4808511,56.966 49.662766,55.874 49.9356383,54.691 C51.4819149,47.775 56.4845745,41.951 62.3968085,38.129 C62.9425532,37.765 63.5792553,37.401 64.3069149,37.401 C64.4888298,37.401 64.5797872,37.401 64.7617021,37.492 C65.5803191,37.765 65.8531915,38.675 66.6718085,38.948 C66.8537234,39.039 67.1265957,39.039 67.3085106,39.039 C68.6728723,39.039 70.037234,37.947 69.8553191,36.491 C69.4914894,33.761 67.1265957,32.942 64.7617021,32.942 C63.9430851,32.942 63.2154255,33.033 62.487766,33.124 C58.5765957,33.852 55.0292553,37.128 52.5734043,40.04 C49.2989362,43.953 46.2973404,48.685 44.9329787,53.599 C44.387234,55.692 44.387234,57.967 45.1148936,59.969 C45.8425532,61.88 47.4797872,63.882 49.7537234,63.882 C49.8446809,63.882 49.8446809,63.882 49.9356383,63.882 C52.937234,63.791 55.2111702,61.88 57.6670213,60.333 C60.1228723,58.877 62.3968085,57.148 64.6707447,55.328 C65.2164894,54.873 67.9452128,52.325 68.6728723,51.688 C68.4909574,52.234 68.4,52.325 68.4,52.507 C67.6723404,54.964 66.6718085,58.786 68.3090426,61.516 C70.2191489,64.792 72.9478723,66.066 76.2223404,66.066 C77.4047872,66.066 78.6781915,65.884 80.0425532,65.611 C85.9547872,64.337 91.1393617,60.151 95.8691489,56.602 C96.687766,56.056 97.4154255,55.419 98.2340426,54.873 C101.235638,52.689 103.691489,50.505 106.056383,47.411 C106.14734,47.229 106.056383,47.047 105.874468,47.047 C105.874468,47.047 105.783511,47.047 105.783511,47.047 L94.2319149,54.327 C92.8675532,55.146 91.5941489,55.965 90.2297872,56.784 C87.9558511,58.149 85.5,59.332 83.0441489,60.333 C81.7707447,60.788 80.5882979,61.152 79.3148936,61.516 C78.4962766,61.698 77.5867021,61.971 76.6771277,61.971 C76.2223404,61.971 75.8585106,61.88 75.4037234,61.698 C73.0388298,60.697 73.2207447,56.966 74.0393617,55.055 C75.0398936,52.598 77.0409574,50.687 79.3148936,49.504 C79.6787234,49.322 80.1335106,49.14 80.4973404,48.958 C80.5882979,48.958 80.5882979,48.958 80.6792553,48.867 C82.4984043,48.139 84.1356383,47.502 85.6819149,46.41 C87.0462766,45.5 88.4106383,44.59 89.6840426,43.589 C91.0484043,42.497 92.2308511,41.223 93.5042553,40.04 C95.1414894,38.402 96.0510638,35.672 95.2324468,33.579 C94.6867021,32.032 93.3223404,31.031 92.2308511,30.394 C91.6851064,30.303 91.1393617,30.121 90.5026596,30.121 M274.509574,31.577 C273.6,31.577 273.418085,32.305 272.963298,33.033 C272.326596,34.125 271.507979,35.126 270.871277,36.127 C269.68883,38.038 268.506383,39.858 267.232979,41.769 C265.959574,43.589 264.68617,45.5 263.048936,47.047 C261.411702,48.685 259.410638,50.141 257.500532,51.415 C253.407447,54.054 249.132447,56.602 244.857447,58.786 C244.129787,59.15 243.31117,59.514 242.492553,59.787 C241.855851,59.969 240.673404,60.606 239.945745,60.606 C239.854787,60.606 239.76383,60.606 239.672872,60.606 C237.853723,60.151 239.581915,55.874 239.945745,54.964 C240.491489,53.69 241.310106,52.143 242.492553,51.324 C242.765426,51.142 243.129255,50.96 243.493085,50.869 C246.312766,49.868 249.132447,49.049 251.770213,47.593 C254.317021,46.228 256.772872,44.499 258.955851,42.497 C261.957447,39.858 263.139894,35.945 259.774468,33.033 C258.592021,32.032 257.409574,31.668 256.13617,31.668 C253.862234,31.668 251.588298,32.942 249.587234,34.216 C246.039894,36.582 242.674468,39.494 239.854787,42.679 C238.490426,44.226 236.489362,46.956 235.48883,48.776 C234.488298,50.414 233.396809,52.143 233.032979,54.054 C232.578191,56.238 233.305851,58.24 234.39734,60.06 C235.306915,61.607 236.216489,63.882 238.035638,64.337 C238.399468,64.428 238.763298,64.519 239.127128,64.519 C240.855319,64.519 242.583511,63.518 244.03883,62.79 C246.130851,61.698 248.222872,60.697 250.223936,59.332 C252.225,57.967 254.135106,56.42 256.045213,54.964 C257.045745,54.145 258.137234,53.417 259.137766,52.598 C259.410638,52.325 260.865957,51.233 261.229787,51.233 C261.229787,51.233 261.320745,51.233 261.320745,51.233 C261.775532,51.688 259.319681,56.42 259.046809,57.057 C258.046277,59.423 257.045745,61.789 255.954255,64.155 C255.499468,65.247 254.589894,66.612 254.407979,67.795 C254.226064,68.796 254.953723,69.706 255.408511,70.616 C255.863298,71.526 256.409043,72.8 257.136702,73.437 C257.318617,73.619 257.591489,73.71 257.773404,73.71 C258.319149,73.71 258.773936,73.164 259.228723,72.8 C260.775,71.435 261.957447,69.706 263.139894,67.977 C264.413298,66.157 265.868617,64.428 267.142021,62.608 C270.05266,58.604 272.87234,54.782 276.419681,51.324 C279.694149,48.048 283.059574,44.772 286.697872,41.951 C286.78883,41.951 286.78883,41.86 286.879787,41.86 C286.970745,41.86 287.15266,41.951 287.15266,42.042 C287.243617,42.224 287.334574,42.497 287.334574,42.77 C287.334574,42.952 286.970745,43.316 287.243617,43.498 C287.243617,43.589 287.334574,43.589 287.425532,43.589 C287.880319,43.589 288.880851,43.043 289.153723,42.952 C290.063298,42.497 291.973404,41.496 292.064362,40.313 C292.064362,38.948 289.790426,38.038 288.698936,38.038 C288.698936,38.038 288.698936,38.038 288.607979,38.038 C286.970745,38.038 285.333511,39.403 284.060106,40.404 C281.240426,42.497 278.875532,45.045 276.237766,47.411 C273.781915,49.686 271.326064,51.87 268.870213,54.145 C269.870745,52.598 270.780319,51.051 271.780851,49.504 C273.054255,47.411 274.32766,45.227 275.692021,43.225 C276.874468,41.405 278.511702,39.585 278.875532,37.31 C279.148404,35.49 276.692553,31.85 274.782447,31.668 C274.600532,31.577 274.509574,31.577 274.509574,31.577 M152.171809,86.905 C151.717021,86.905 151.262234,86.814 151.080319,86.541 C150.716489,85.904 152.262766,84.175 152.626596,83.72 C153.354255,82.901 154.172872,82.173 155.082447,81.445 C159.266489,78.351 163.996277,75.894 168.726064,73.71 C173.637766,71.526 178.640426,69.433 183.734043,67.795 C182.187766,70.161 180.095745,72.163 178.094681,74.074 C176.00266,76.076 173.910638,77.805 171.454787,79.352 C167.179787,81.9 162.81383,84.812 157.902128,85.904 C156.628723,86.177 155.264362,86.45 153.990957,86.541 C153.627128,86.814 152.808511,86.905 152.171809,86.905 M154.536702,46.865 C154.536702,46.865 154.445745,46.865 154.445745,46.865 C153.9,46.592 158.53883,41.587 161.176596,39.312 C162.177128,38.402 166.088298,35.217 167.45266,35.217 C167.634574,35.217 167.725532,35.217 167.816489,35.308 C168.635106,36.127 164.269149,40.404 161.904255,42.315 C159.903191,44.044 155.446277,46.865 154.536702,46.865 M245.403191,47.502 C245.039362,47.502 244.766489,47.047 245.039362,46.683 C247.040426,43.862 248.67766,40.859 251.133511,38.22 C252.134043,37.128 253.498404,35.763 254.680851,35.035 C255.408511,34.58 256.681915,34.034 257.682447,34.034 C257.864362,34.034 258.046277,34.034 258.228191,34.125 C261.684574,35.126 255.135638,40.859 254.135106,41.587 C252.679787,42.679 251.133511,43.771 249.587234,44.863 C249.132447,45.136 247.22234,46.592 245.676064,47.411 C245.585106,47.411 245.494149,47.502 245.403191,47.502 M77.8595745,45.591 C77.4047872,45.591 77.6776596,44.954 77.9505319,44.681 C78.1324468,44.408 78.4053191,44.135 78.587234,43.771 C79.8606383,42.042 81.225,40.404 82.7712766,38.857 C84.1356383,37.401 85.5909574,35.945 87.137234,34.671 C87.9558511,34.034 88.8654255,33.397 89.8659574,33.124 C90.0478723,33.124 90.3207447,33.033 90.593617,33.033 C91.412234,33.033 92.3218085,33.306 92.2308511,34.216 C91.8670213,36.946 89.775,38.675 87.7739362,40.04 C86.2276596,41.132 84.5904255,42.133 82.9531915,43.134 C82.1345745,43.589 81.3159574,44.044 80.4973404,44.499 C80.0425532,44.681 79.6787234,44.954 79.2239362,45.136 C78.7691489,45.318 78.4053191,45.591 77.8595745,45.591 C77.9505319,45.591 77.9505319,45.591 77.8595745,45.591 M291.06383,63.882 C290.881915,63.882 290.609043,63.882 290.427128,63.791 C289.97234,63.609 289.790426,63.154 289.608511,62.699 C289.426596,62.062 289.426596,61.334 289.517553,60.697 C289.608511,59.696 289.97234,58.695 290.33617,57.876 C290.790957,56.784 291.42766,55.783 291.973404,54.691 C291.973404,54.691 291.973404,54.6 292.064362,54.6 C292.882979,53.053 293.792553,51.506 294.793085,50.05 C297.067021,46.774 299.795745,43.771 302.706383,40.95 C305.617021,38.129 308.52766,35.035 311.893085,32.76 C312.620745,32.305 313.348404,32.032 313.985106,32.032 C315.62234,32.032 316.804787,33.397 317.350532,35.308 C318.532979,39.858 315.713298,44.226 313.075532,47.593 C312.165957,48.867 311.165426,50.05 310.164894,51.233 C307.618085,54.145 304.798404,56.784 301.614894,59.059 C298.704255,61.061 295.065957,63.518 291.42766,63.882 C291.336702,63.882 291.154787,63.882 291.06383,63.882 M178.640426,54.873 C178.276596,54.873 177.912766,54.418 178.094681,54.054 C179.277128,51.324 181.096277,48.867 182.733511,46.501 C184.55266,44.044 186.462766,41.587 188.554787,39.403 C191.101596,36.673 193.921277,34.307 196.740957,31.85 C197.195745,31.486 199.924468,29.302 201.197872,29.302 C201.561702,29.302 201.834574,29.484 201.834574,30.03 C201.834574,30.94 201.28883,31.759 200.834043,32.578 C200.288298,33.579 199.469681,34.58 198.832979,35.49 C197.468617,37.583 196.013298,39.585 194.194149,41.314 C192.375,42.952 190.646809,44.681 189.009574,46.319 C185.917021,49.322 182.824468,52.689 179.004255,54.782 C178.82234,54.873 178.731383,54.873 178.640426,54.873 M167.816489,0 C167.816489,0 167.816489,0 167.816489,0 C166.179255,0 164.451064,0.637 162.995745,1.183 C156.628723,3.458 151.535106,7.735 146.896277,12.467 C142.166489,17.29 137.982447,22.568 134.344149,28.301 C130.523936,34.307 127.158511,40.677 123.338298,46.683 C119.972872,52.143 116.243617,57.33 111.786702,61.971 C109.603723,64.246 107.329787,66.339 104.782979,68.25 C103.509574,69.251 102.145213,70.161 100.780851,70.98 C99.962234,71.435 97.6882979,72.163 98.7797872,73.255 C98.2340426,73.073 97.506383,72.891 96.9606383,72.891 C96.3239362,72.891 95.8691489,73.255 96.2329787,74.438 C96.5968085,75.803 97.9611702,76.531 99.3255319,76.531 C99.5074468,76.531 99.5984043,76.531 99.7803191,76.531 C103.964362,75.985 108.057447,74.347 111.968617,72.982 C119.245213,70.525 126.612766,68.705 134.253191,68.159 C136.254255,68.068 138.255319,67.886 140.256383,67.886 C141.984574,67.886 143.712766,67.977 145.440957,68.432 C146.987234,68.796 146.987234,69.069 146.623404,70.434 C146.441489,71.071 146.623404,71.344 146.987234,71.344 C147.260106,71.344 147.532979,71.253 147.896809,71.162 C148.988298,70.798 150.170745,69.342 149.625,68.159 C149.079255,66.885 147.442021,65.975 146.259574,65.429 C143.348936,63.973 139.892553,63.7 136.618085,63.7 C136.163298,63.7 135.708511,63.7 135.344681,63.7 C127.795213,63.882 120.42766,66.066 113.151064,68.068 C115.879787,65.247 119.063298,63.063 121.701064,60.151 C124.33883,57.148 126.794681,53.963 129.068617,50.687 C133.525532,44.226 137.254787,37.31 141.620745,30.758 C143.621809,27.755 145.622872,24.934 148.078723,22.204 C150.35266,19.565 152.717553,16.926 155.264362,14.469 C157.629255,12.103 160.357979,10.283 163.450532,8.918 C165.087766,8.19 166.725,7.371 168.544149,7.007 C168.817021,6.916 169.089894,6.916 169.453723,6.916 C169.817553,6.916 170.181383,6.916 170.63617,7.007 C171,7.007 171.36383,7.098 171.818617,7.098 C172.182447,7.098 172.455319,7.098 172.819149,7.007 C174.001596,6.734 175.002128,5.551 174.91117,4.277 C174.820213,2.912 173.273936,2.184 172.273404,1.547 C170.909043,0.728 169.453723,0 167.816489,0" id="Shape"></path>
            </g>
        </g>
    </g>
</svg>