<?xml version="1.0" encoding="UTF-8"?>
<svg width="1150px" height="368px" viewBox="0 0 1150 368" version="1.1" xmlns="http://www.w3.org/2000/svg" xmlns:xlink="http://www.w3.org/1999/xlink">
    <!-- Generator: Sketch 60.1 (88133) - https://sketch.com -->
    <title>epdp/exp/m-d/scripting/genova_L</title>
    <desc>Created with Sketch.</desc>
    <g id="epdp/exp/m-d/scripting/genova" stroke="none" stroke-width="1" fill="none" fill-rule="evenodd">
        <g id="Group" transform="translate(152.000000, 45.000000)" fill="#FFFFFF">
            <path d="M218.003623,1.336 C217.710623,2.246 217.600623,3.235 217.191623,4.086 C216.016623,6.532 214.792623,8.959 213.474623,11.331 C210.954623,15.868 208.423623,20.401 205.774623,24.863 C200.784623,33.271 188.900623,58.045 185.104623,67.024 C182.399623,73.419 179.806623,79.861 177.064623,86.239 C174.730623,91.668 172.200623,97.013 169.855623,102.437 C167.793623,107.201 165.778623,112 164.805623,117.136 C164.388623,119.336 163.835623,121.488 163.239623,123.642 C162.816623,125.174 162.619623,126.775 162.413623,128.357 C162.246623,129.648 162.453623,130.897 163.136623,132.053 C163.897623,133.341 167.317623,135.613 168.796623,135.754 C169.852623,135.855 170.218623,135.582 170.674623,134.405 C170.812623,134.049 170.916623,133.557 171.190623,133.4 C172.171623,132.842 172.295623,131.903 172.490623,130.962 C172.619623,130.34 172.763623,129.718 172.955623,129.114 C173.342623,127.904 173.788623,126.713 174.171623,125.503 C174.530623,124.367 174.738623,123.172 175.190623,122.077 C177.165623,117.286 179.143623,112.494 181.239623,107.755 C183.595623,102.433 186.130623,97.189 188.495623,91.871 C191.088623,86.043 193.574623,80.167 196.115623,74.316 C196.400623,73.658 196.768623,73.036 197.047623,72.376 C199.528623,66.495 210.152623,44.844 213.254623,39.26 C215.695623,34.865 217.962623,30.367 220.550623,26.062 C222.614623,22.628 224.471623,19.114 226.039623,15.437 C226.572623,14.189 227.436623,12.985 227.585623,11.696 C227.744623,10.326 227.239623,8.878 227.016623,7.466 C226.941623,6.997 226.944623,6.477 226.731623,6.076 C226.327623,5.318 225.943623,4.416 225.285623,3.951 C223.212623,2.485 221.067623,1.103 218.638623,1.27897692e-12 C218.392623,0.508 218.142623,0.904 218.003623,1.336 L218.003623,1.336 Z M269.837623,55.122 C269.847623,55.172 269.862623,55.221 269.877623,55.27 C269.884623,55.227 269.890623,55.184 269.896623,55.141 C269.896623,55.141 269.841623,55.12 269.837623,55.122 L269.837623,55.122 Z M525.483623,50.22 C523.754623,51.557 523.014623,53.475 523.064623,55.665 C523.089623,56.757 523.572623,57.661 524.343623,58.413 C525.153623,59.203 525.743623,59.168 526.563623,58.316 C527.333623,57.516 528.105623,56.715 528.884623,55.923 C529.660623,55.135 530.440623,54.349 531.233623,53.577 C532.016623,52.814 532.816623,52.068 533.543623,51.378 C532.858623,48.169 532.762623,48.035 530.346623,47.03 C528.784623,48.041 527.044623,49.014 525.483623,50.22 L525.483623,50.22 Z M353.125623,49.861 C352.716623,49.65 352.214623,49.475 351.770623,49.507 C348.942623,49.712 346.758623,50.973 345.472623,53.575 C345.153623,54.218 344.888623,54.889 344.633623,55.56 C343.535623,58.457 343.828623,59.272 346.509623,60.803 C346.708623,60.918 346.959623,60.942 347.278623,61.036 C348.295623,60.534 349.334623,59.937 350.437623,59.498 C352.135623,58.82 353.307623,57.513 354.544623,56.275 C354.762623,56.058 355.033623,55.735 355.021623,55.474 C354.945623,53.987 355.634623,52.481 354.930623,51.017 C354.326623,50.623 353.755623,50.186 353.125623,49.861 L353.125623,49.861 Z M514.395623,65.537 C513.042623,67.971 511.650623,70.383 510.256623,72.793 C508.818623,75.276 507.341623,77.736 505.921623,80.23 C505.212623,81.475 504.642623,82.8 503.923623,84.04 C502.078623,87.223 500.842623,90.682 499.299623,94.001 C498.637623,95.425 498.805623,96.623 499.537623,97.84 C500.028623,98.656 500.617623,99.417 501.200623,100.173 C501.656623,100.766 502.339623,100.874 502.918623,100.508 C503.573623,100.096 504.266623,99.59 504.663623,98.952 C505.796623,97.134 506.815623,95.242 507.825623,93.351 C508.876623,91.386 509.772623,89.333 510.900623,87.415 C513.367623,83.228 515.985623,79.13 518.449623,74.942 C519.857623,72.549 521.162623,70.082 521.792623,67.132 C519.743623,65.675 518.469623,63.013 515.349623,63.277 C515.006623,64.101 514.772623,64.858 514.395623,65.537 L514.395623,65.537 Z M389.740623,113.427 C390.475623,113.453 391.092623,113.318 391.766623,112.926 C395.877623,110.53 399.233623,107.218 402.698623,104.041 C404.575623,102.319 406.285623,100.408 408.226623,98.766 C409.641623,97.568 410.877623,96.239 412.067623,94.842 C413.465623,93.205 414.857623,91.562 416.287623,89.953 C417.187623,88.941 418.149623,87.983 419.091623,87.009 C419.755623,86.323 420.423623,85.64 421.106623,84.972 C422.130623,83.972 423.157623,82.976 424.207623,82.003 C424.454623,81.774 424.799623,81.65 425.259623,81.386 C425.146623,82.495 424.923623,83.36 425.009623,84.194 C425.105623,85.123 424.916623,85.906 424.536623,86.726 C423.396623,89.191 422.309623,91.68 421.195623,94.158 C419.101623,98.824 417.011623,103.489 415.444623,108.372 C414.567623,111.106 414.390623,113.862 415.087623,116.627 C415.495623,118.247 416.140623,119.809 416.703623,121.387 C416.978623,122.154 417.374623,122.843 418.374623,123.12 C418.716623,122.962 419.126623,122.67 419.576623,122.585 C421.702623,122.18 422.499623,120.635 423.065623,118.786 C423.905623,116.043 424.735623,113.29 425.741623,110.605 C427.979623,104.63 430.354623,98.708 432.605623,92.738 C433.476623,90.427 433.927623,87.935 434.981623,85.721 C437.407623,80.626 439.302623,75.248 442.728623,70.657 C443.562623,69.54 443.488623,68.877 442.635623,67.869 C441.151623,66.116 439.296623,64.962 436.954623,64.46 C435.782623,66.445 434.376623,68.125 432.668623,69.62 C429.063623,72.777 425.561623,76.058 422.106623,79.38 C418.189623,83.147 414.469623,87.122 410.482623,90.81 C406.144623,94.821 401.616623,98.628 397.127623,102.473 C395.997623,103.44 394.697623,104.211 393.406623,105.122 C392.929623,104.595 392.568623,104.198 392.116623,103.699 C393.972623,100.124 395.799623,96.584 397.646623,93.053 C398.312623,91.78 398.930623,90.467 399.730623,89.28 C402.855623,84.64 406.209623,80.175 410.212623,76.237 C411.178623,75.287 412.213623,74.405 413.159623,73.436 C415.679623,70.852 418.448623,68.603 421.530623,66.707 C423.898623,65.25 426.121623,63.56 428.488623,62.101 C430.444623,60.895 432.407623,59.778 434.871623,59.603 C436.476623,59.488 438.057623,58.641 439.579623,57.966 C440.170623,57.705 440.571623,57.018 440.957623,56.628 C440.572623,54.711 439.263623,53.968 438.135623,53.243 C437.167623,53.386 436.379623,53.467 435.607623,53.622 C433.101623,54.125 430.619623,54.663 428.232623,55.659 C422.940623,57.867 418.239623,60.993 413.804623,64.565 C407.679623,69.497 402.263623,75.133 397.420623,81.313 C393.462623,86.361 390.226623,91.875 387.419623,97.63 C385.223623,102.136 384.326623,106.841 385.812623,111.788 C385.970623,112.314 386.182623,112.823 386.397623,113.419 C387.688623,113.419 388.715623,113.392 389.740623,113.427 L389.740623,113.427 Z M367.930623,91.045 C367.965623,91.105 367.834623,91.261 367.777623,91.374 C367.749623,91.308 367.712623,91.244 367.691623,91.175 C367.651623,91.04 367.619623,90.901 367.582623,90.765 C367.748623,90.61 367.981623,90.485 368.073623,90.293 C370.290623,85.709 371.963623,80.884 374.267623,76.336 C375.955623,73.002 377.518623,69.605 379.140623,66.238 C379.590623,65.304 380.192623,64.417 380.482623,63.437 C381.205623,61.001 381.934623,58.548 382.377623,56.053 C382.677623,54.364 382.805623,52.534 381.611623,51.006 C380.874623,50.063 380.121623,49.129 379.328623,48.233 C377.664623,46.351 375.924623,46.389 374.348623,48.362 C370.543623,53.124 367.344623,58.277 364.606623,63.712 C362.413623,68.064 360.286623,72.449 358.160623,76.834 C356.696623,79.853 355.211623,82.864 353.861623,85.934 C351.387623,91.561 348.934623,97.199 346.613623,102.891 C345.168623,106.436 343.975623,110.085 342.683623,113.692 C341.934623,115.785 342.143623,117.773 343.383623,119.644 C343.646623,120.039 343.962623,120.469 344.023623,120.916 C344.300623,122.885 345.400623,124.102 346.998623,125.282 C348.920623,126.703 350.810623,126.978 352.962623,126.58 C353.177623,126.197 353.367623,125.934 353.482623,125.642 C354.351623,123.42 355.135623,121.162 356.085623,118.976 C356.940623,117.007 357.954623,115.106 358.930623,113.191 C359.727623,111.626 360.554623,110.076 361.397623,108.536 C362.120623,107.213 362.810623,105.862 363.648623,104.612 C366.177623,100.84 368.725623,97.079 371.353623,93.375 C373.651623,90.133 375.841623,86.804 378.673623,83.963 C379.620623,83.012 380.327623,81.822 381.147623,80.743 C381.435623,80.363 381.695623,79.956 382.024623,79.615 C384.839623,76.7 387.650623,73.781 390.503623,70.903 C391.104623,70.297 391.869623,69.854 392.522623,69.364 C393.260623,69.971 393.855623,70.46 394.404623,70.912 C395.538623,70.54 396.043623,69.686 396.690623,69.004 C398.399623,67.206 400.162623,65.444 402.589623,64.675 C403.798623,64.292 404.466623,63.59 404.850623,62.447 C405.023623,61.929 405.357623,61.466 405.615623,60.977 C406.274623,59.731 405.871623,58.949 404.437623,58.928 C403.166623,58.91 401.879623,58.995 400.624623,59.189 C399.508623,59.361 398.552623,59.922 397.734623,60.771 C396.853623,61.686 395.857623,62.496 394.884623,63.318 C393.237623,64.71 391.540623,66.042 389.914623,67.456 C385.692623,71.127 381.741623,75.071 378.113623,79.334 C375.475623,82.434 372.849623,85.544 370.236623,88.668 C369.729623,89.274 369.321623,89.965 368.853623,90.607 C368.492623,91.1 368.033623,90.97 367.575623,90.765 C367.698623,90.856 367.858623,90.924 367.930623,91.045 L367.930623,91.045 Z M638.620623,84.183 C639.639623,82.677 640.716623,81.211 641.744623,79.711 C642.507623,78.598 643.243623,77.464 643.957623,76.318 C645.490623,73.856 647.651623,71.941 649.636623,69.883 C651.567623,67.88 653.650623,66.022 655.663623,64.096 C658.089623,61.774 660.728623,59.796 663.874623,58.503 C665.411623,57.87 666.801623,56.887 668.295623,56.139 C669.216623,55.677 670.183623,55.265 671.174623,54.995 C672.551623,54.621 673.279623,55.082 673.732623,56.424 C673.883623,56.871 673.919623,57.371 674.135623,57.779 C674.348623,58.182 674.722623,58.501 675.016623,58.846 C673.682623,61.578 671.624623,63.574 669.551623,65.552 C664.676623,70.201 659.180623,74.037 653.434623,77.49 C649.203623,80.034 644.784623,82.264 640.442623,84.623 C639.964623,84.882 639.443623,85.064 638.506623,85.47 C638.561623,84.74 638.482623,84.388 638.620623,84.183 L638.620623,84.183 Z M619.664623,94.47 L623.192623,94.47 C623.259623,95.022 623.357623,95.408 623.343623,95.79 C623.263623,97.832 623.853623,99.752 624.455623,101.653 C625.328623,104.407 626.615623,106.986 628.123623,109.441 C629.480623,111.651 631.126623,113.589 633.672623,114.529 C635.886623,115.346 638.183623,115.558 640.510623,115.42 C641.944623,115.335 643.367623,115.086 644.799623,114.952 C649.022623,114.558 653.171623,113.757 657.274623,112.719 C658.259623,112.471 659.157623,111.859 660.146623,111.658 C662.890623,111.099 665.553623,110.298 668.192623,109.372 C669.838623,108.795 671.582623,108.498 673.231623,107.926 C675.857623,107.015 678.432623,105.959 681.044623,105.006 C682.372623,104.522 683.477623,103.766 684.844623,102.442 C683.988623,102.442 683.628623,102.411 683.275623,102.447 C679.618623,102.819 675.966623,103.238 672.306623,103.575 C666.024623,104.153 659.740623,104.725 653.451623,105.213 C649.549623,105.517 645.636623,105.709 641.725623,105.862 C638.972623,105.97 636.378623,105.04 633.757623,104.366 C632.866623,104.137 632.227623,103.485 632.066623,102.521 C631.382623,98.395 632.582623,94.794 635.190623,91.617 C635.477623,91.269 635.970623,91.072 636.396623,90.861 C640.472623,88.839 644.613623,86.939 648.617623,84.783 C652.269623,82.817 655.832623,80.669 659.322623,78.428 C662.001623,76.707 664.575623,74.802 667.073623,72.824 C670.453623,70.148 673.816623,67.412 676.500623,64.004 C677.817623,62.333 679.439623,60.811 679.985623,58.622 C681.943623,55.899 679.571623,51.441 677.209623,50.161 C674.867623,48.892 672.385623,48.018 669.654623,48.277 C668.867623,48.352 668.101623,48.691 667.317623,48.721 C663.551623,48.861 660.166623,50.285 656.811623,51.788 C649.472623,55.076 643.372623,60.069 637.824623,65.783 C634.525623,69.18 631.917623,73.111 629.372623,77.083 C626.802623,81.094 624.821623,85.333 624.185623,90.113 C624.134623,90.495 623.928623,90.857 623.754623,91.339 C622.407623,91.733 621.041623,92.133 619.443623,92.601 C619.527623,93.312 619.586623,93.813 619.664623,94.47 L619.664623,94.47 Z M495.348623,65.521 C488.330623,70.67 483.939623,71.718 477.599623,76.44 C476.446623,77.299 462.710623,86.086 461.580623,86.974 C458.122623,89.69 454.686623,92.431 451.208623,95.119 C446.148623,99.03 441.052623,102.893 435.988623,106.798 C433.773623,108.506 431.702623,110.422 429.375623,111.954 C427.760623,113.018 426.974623,114.662 425.754623,115.988 C425.574623,116.183 425.655623,116.756 425.805623,117.063 C425.888623,117.234 426.399623,117.341 426.651623,117.263 C428.622623,116.652 430.591623,116.118 432.694623,116.31 C433.049623,116.343 433.423623,115.995 433.808623,115.901 C435.039623,115.598 436.270623,115.264 437.521623,115.065 C439.795623,114.704 442.090623,114.474 444.364623,114.112 C447.434623,113.625 450.486623,113.029 453.558623,112.552 C455.047623,112.321 456.571623,112.321 458.063623,112.101 C460.587623,111.729 463.095623,111.249 465.613623,110.842 C470.184623,110.105 474.775623,109.486 479.407623,109.426 C483.391623,109.375 487.377623,109.208 491.365623,109.582 C495.554623,109.974 499.764623,110.144 503.891623,111.057 C504.272623,111.141 504.690623,111.149 505.077623,111.092 C505.995623,110.957 506.491623,110.167 506.108623,109.344 C505.849623,108.785 505.453623,108.245 504.997623,107.83 C499.422623,102.751 492.768623,100.059 485.351623,99.225 C478.707623,98.477 472.107623,99.064 465.559623,100.298 C459.517623,101.438 453.497623,102.684 447.558623,104.291 C447.114623,104.411 446.634623,104.391 445.876623,104.465 C446.770623,103.18 447.790623,102.442 448.815623,101.731 C451.757623,99.688 454.746623,97.713 457.666623,95.64 C461.569623,92.871 500.348623,69.947 503.002623,68.057 C505.232623,66.469 507.449623,64.821 510.338623,64.267 C510.250623,63.553 509.996623,62.828 510.110623,62.165 C510.467623,60.094 509.558623,58.434 508.479623,56.868 C507.713623,55.757 506.764623,54.757 505.808623,53.795 C503.585623,51.56 503.389623,51.474 500.252623,50.907 C499.075623,50.694 497.887623,50.513 496.696623,50.417 C492.320623,50.064 483.044623,48.475 474.966623,48.66 C470.651623,48.759 466.337623,48.876 462.023623,48.987 C460.797623,49.019 459.721623,48.756 458.659623,48.018 C457.877623,47.474 456.963623,46.722 455.942623,47.163 C454.574623,48.626 454.483623,50.526 453.682623,52.125 C453.321623,52.843 453.458623,53.825 453.422623,54.689 C453.340623,56.672 454.270623,58.36 454.946623,60.15 C455.853623,62.547 457.855623,63.462 459.953623,64.185 C461.124623,64.588 462.467623,64.592 463.732623,64.595 C466.113623,64.602 468.481623,64.044 470.874623,64.389 C472.085623,63.83 473.392623,64.091 474.649623,63.933 C478.849623,63.403 490.357623,63.637 494.783623,64.134 C495.214623,64.145 495.641623,64.338 496.332623,64.514 C495.873623,64.989 495.645623,65.303 495.348623,65.521 L495.348623,65.521 Z M588.094623,84.099 C588.094623,84.099 587.970623,84.053 587.966623,84.056 C589.075623,82.329 590.168623,80.587 591.304623,78.875 C592.673623,76.812 594.096623,74.786 595.463623,72.722 C597.983623,68.919 600.025623,64.848 601.996623,60.749 C603.000623,58.661 603.609623,56.426 603.400623,54.025 C603.288623,52.732 602.797623,51.645 601.826623,50.913 C599.140623,48.884 596.151623,47.537 592.696623,48.121 C589.947623,48.585 587.213623,49.207 584.529623,49.962 C579.292623,51.437 574.255623,53.428 569.504623,56.125 C567.596623,57.209 565.799623,58.636 563.218623,58.465 C563.185623,59.295 562.992623,60.021 563.163623,60.647 C563.537623,62.015 563.455623,63.406 563.054623,64.647 C562.319623,66.915 561.293623,69.091 560.346623,71.287 C559.097623,74.187 556.966623,76.516 555.056623,78.945 C550.168623,85.159 545.082623,91.222 539.383623,96.726 C535.468623,100.506 531.405623,104.117 526.651623,106.841 C525.687623,107.394 524.661623,107.857 523.621623,108.25 C523.251623,108.389 522.755623,108.194 522.172623,108.138 C522.314623,106.569 522.205623,105.084 522.620623,103.763 C523.332623,101.495 523.968623,99.176 525.225623,97.096 C525.755623,96.218 526.029623,95.186 526.434623,94.229 C526.835623,93.278 527.142623,92.264 527.685623,91.399 C529.467623,88.559 531.232623,85.698 533.194623,82.982 C538.176623,76.089 543.799623,69.795 550.777623,64.821 C552.136623,63.853 553.545623,62.92 554.747623,61.778 C557.018623,59.625 559.333623,57.549 562.286623,56.408 C563.613623,55.895 564.616623,55.115 565.393623,53.967 C565.615623,53.637 565.869623,53.324 566.135623,53.026 C567.514623,51.478 567.566623,49.758 566.918623,47.924 C565.748623,47.313 564.635623,47.835 563.545623,47.791 C562.322623,47.741 561.245623,48.059 560.118623,48.607 C558.472623,49.405 556.948623,50.372 555.369623,51.27 C547.548623,55.718 540.325623,60.945 533.881623,67.227 C527.086623,73.849 521.509623,81.429 516.699623,89.571 C515.065623,92.337 514.182623,95.444 513.897623,98.656 C513.749623,100.32 513.811623,102.015 513.920623,103.687 C514.047623,105.61 514.488623,107.49 515.582623,109.118 C516.607623,110.643 517.715623,112.113 518.824623,113.579 C519.776623,114.839 521.081623,115.521 522.607623,115.936 C525.550623,116.736 528.348623,116.241 530.996623,114.992 C533.810623,113.666 536.648623,112.314 539.231623,110.604 C541.796623,108.905 544.129623,106.827 546.433623,104.768 C548.511623,102.91 550.480623,100.915 552.375623,98.868 C554.864623,96.182 557.224623,93.376 559.658623,90.639 C561.885623,88.133 563.523623,85.201 565.552623,82.558 C567.421623,80.125 568.608623,77.326 569.958623,74.625 C570.732623,73.077 571.114623,71.328 571.625623,69.655 C571.809623,69.053 572.002623,68.39 571.930623,67.786 C571.706623,65.933 572.065623,63.99 571.011623,62.348 C576.026623,58.003 592.142623,51.828 596.965623,52.392 C596.880623,52.855 596.874623,53.344 596.700623,53.763 C595.848623,55.824 595.005623,57.892 594.059623,59.911 C591.650623,65.052 587.879623,69.361 585.181623,74.332 C584.195623,76.147 583.008623,77.852 581.998623,79.654 C580.712623,81.952 579.577623,84.335 578.258623,86.613 C576.379623,89.859 574.370623,93.03 572.458623,96.257 C570.874623,98.928 570.006623,101.653 572.210623,104.456 C572.308623,104.58 572.391623,104.726 572.440623,104.876 C572.908623,106.302 573.976623,106.815 575.486623,106.848 C575.782623,106.562 576.138623,106.252 576.455623,105.906 C578.506623,103.67 580.459623,101.335 582.614623,99.204 C587.327623,94.547 592.149623,90 596.907623,85.387 C597.406623,84.903 597.774623,84.284 598.208623,83.733 C598.547623,83.305 598.852623,82.836 599.249623,82.469 C602.004623,79.921 604.738623,77.35 607.564623,74.881 C609.244623,73.413 611.080623,72.121 612.842623,70.744 C613.386623,70.318 613.936623,70.072 614.697623,70.674 C614.039623,71.725 613.305623,72.757 612.713623,73.866 C609.966623,79.018 606.567623,83.766 603.524623,88.732 C601.229623,92.477 599.005623,96.265 596.755623,100.037 C594.288623,104.171 592.736623,108.726 590.817623,113.109 C590.319623,114.247 590.099623,115.566 590.031623,116.817 C589.920623,118.875 591.114623,120.429 592.422623,121.878 C593.113623,122.643 593.836623,123.383 594.469623,124.193 C594.853623,124.685 595.256623,124.975 595.878623,124.877 C597.261623,124.658 599.030623,125.302 599.594623,123.221 C599.629623,123.09 599.812623,122.913 599.933623,122.907 C600.970623,122.854 601.102623,122.004 601.422623,121.295 C603.423623,116.87 605.401623,112.434 607.585623,108.093 C608.553623,106.169 609.683623,104.307 610.451623,102.306 C611.742623,98.944 613.399623,95.771 615.029623,92.578 C616.261623,90.167 617.500623,87.76 618.754623,85.36 C619.899623,83.169 620.945623,80.913 622.263623,78.829 C623.467623,76.927 624.602623,75.019 625.192623,72.848 C625.692623,71.013 626.125623,69.152 626.453623,67.278 C626.687623,65.947 626.752623,64.6 625.759623,63.412 C625.040623,62.551 624.061623,62.206 623.105623,61.875 C622.147623,61.543 621.028623,61.153 620.106623,61.356 C618.415623,61.728 616.740623,62.371 615.199623,63.17 C613.440623,64.082 611.804623,65.245 610.167623,66.375 C605.163623,69.827 600.717623,73.969 596.068623,77.859 C595.336623,78.472 594.518623,79.029 593.943623,79.771 C592.594623,81.513 590.738623,82.642 589.076623,84.002 C588.862623,84.176 588.367623,84.007 588.003623,83.998 L588.094623,84.099 Z M269.841623,55.12 C269.702623,55.169 269.508623,55.304 269.434623,55.255 C267.911623,54.268 267.914623,54.264 266.348623,54.228 C265.811623,53.338 265.284623,52.465 264.878623,51.791 L264.878623,46.558 C267.543623,44.107 270.623623,42.473 273.908623,41.209 C276.286623,40.294 278.679623,39.392 281.121623,38.676 C283.637623,37.939 286.196623,37.286 288.780623,36.857 C294.048623,35.983 299.353623,35.375 304.707623,35.3169998 C315.952623,35.3169998 324.566623,39.711 329.999623,44.92 C333.404623,48.185 335.225623,53.896 334.686623,58.721 C334.412623,61.169 334.320623,63.68 333.410623,65.98 C332.444623,68.416 331.259623,70.777 330.012623,73.085 C329.298623,74.407 328.255623,75.55 327.389623,76.794 C327.123623,77.174 326.951623,77.62 326.737623,78.037 C326.675623,78.064 326.603623,78.079 326.554623,78.122 C326.533623,78.14 326.565623,78.216 326.571623,78.265 C326.609623,78.175 326.647623,78.084 326.685623,77.994 C327.424623,78.254 327.886623,77.696 328.401623,77.373 C333.013623,74.482 337.784623,71.893 342.762623,69.689 C343.200623,69.495 343.634623,69.289 344.081623,69.116 C346.323623,68.25 346.571623,68.259 349.215623,69.284 C349.230623,69.619 349.364623,70.043 349.244623,70.376 C348.434623,72.625 347.607623,74.868 346.713623,77.084 C345.761623,79.442 344.516623,81.703 343.775623,84.122 C342.318623,88.879 339.802623,93.156 337.925623,97.72 C336.500623,101.186 334.769623,104.529 333.112623,107.896 C332.416623,109.311 331.119623,110.099 329.671623,110.78 C328.243623,109.629 326.917623,108.519 326.963623,106.503 C326.966623,106.35 326.907623,106.185 326.842623,106.042 C325.361623,102.83 326.532623,99.952 328.023623,97.156 C330.955623,91.652 334.287623,86.396 337.850623,81.276 C339.717623,78.592 341.403623,75.781 343.148623,73.012 C343.340623,72.709 343.381623,72.311 343.574623,71.693 C341.283623,72.488 339.431623,73.527 337.641623,74.668 C333.461623,77.329 329.275623,79.982 325.155623,82.732 C322.306623,84.634 319.644623,86.824 316.743623,88.638 C314.466623,90.062 312.401623,91.837 309.737623,92.704 C308.277623,93.179 307.023623,94.345 305.737623,95.283 C303.600623,96.844 301.378623,98.21 298.836623,99.037 C297.937623,99.329 297.118623,99.873 296.271623,100.315 C295.846623,100.536 295.463623,100.884 295.015623,101.007 C292.751623,101.631 290.877623,103.027 288.826623,104.068 C286.698623,105.148 284.513623,106.07 282.276623,106.911 C279.522623,107.948 276.837623,109.182 274.152623,110.399 C273.208623,110.827 272.354623,111.406 271.239623,111.322 C270.863623,111.294 270.437623,111.441 270.090623,111.618 C268.329623,112.516 266.459623,112.746 264.510623,112.722 C263.729623,112.712 262.944623,112.974 262.066623,113.128 C261.306623,114.69 260.550623,116.264 259.773623,117.828 C258.993623,119.399 258.220623,120.976 257.394623,122.524 C255.624623,125.834 253.866623,129.151 252.024623,132.42 C249.591623,136.734 247.151623,141.047 244.581623,145.279 C242.718623,148.344 240.636623,151.275 238.654623,154.268 C238.301623,154.801 237.974623,155.35 237.617623,155.88 C235.931623,158.393 234.388623,161.03 231.729623,162.704 C229.891623,165.233 227.322623,167.063 225.301623,169.419 C224.578623,170.261 223.838623,171.089 222.569623,171.153 C222.119623,171.176 221.593623,171.391 221.259623,171.693 C220.039623,172.794 218.554623,172.785 217.177623,172.482 C215.803623,172.179 214.660623,172.589 213.487623,173.026 C211.406623,173.801 209.680623,173.53 207.794623,172.016 C207.836623,171.867 207.838623,171.685 207.927623,171.574 C211.180623,167.531 214.438623,163.493 217.702623,159.459 C218.751623,158.163 219.888623,156.931 220.861623,155.582 C221.743623,154.359 222.401623,152.978 223.255623,151.733 C228.949623,143.433 234.373623,134.961 239.501623,126.299 C240.922623,123.898 242.489623,121.583 243.898623,119.175 C246.677623,114.421 249.456623,109.665 252.119623,104.845 C255.750623,98.272 259.240623,91.622 262.852623,85.038 C265.770623,79.719 268.778623,74.45 271.742623,69.156 C271.856623,68.953 271.923623,68.724 272.018623,68.492 C271.540623,68.081 271.255623,68.523 271.009623,68.726 C268.244623,71.014 265.426623,73.245 262.767623,75.65 C258.918623,79.129 255.165623,82.715 251.420623,86.307 C250.153623,87.522 248.991623,88.854 247.857623,90.196 C243.683623,95.132 239.631623,100.175 235.356623,105.022 C231.822623,109.027 228.038623,112.813 224.365623,116.696 C222.094623,118.003 219.831623,119.324 217.542623,120.598 C217.218623,120.779 216.767623,120.772 216.372623,120.784 C214.543623,120.837 212.713623,120.87 210.883623,120.902 C210.644623,120.906 210.366623,120.774 210.172623,120.857 C208.024623,121.776 206.086623,120.707 204.150623,120.135 C202.647623,119.69 201.224623,118.884 200.357623,117.142 C201.268623,116.827 202.104623,116.909 202.940623,116.877 C203.638623,116.85 204.426623,116.815 205.009623,116.488 C210.611623,113.355 215.903623,109.8 220.241623,104.982 C222.211623,102.793 223.466623,100.239 224.301623,97.448 C225.445623,93.622 226.478623,89.757 227.771623,85.982 C229.036623,82.287 230.572623,78.685 231.983623,75.039 C232.202623,74.476 232.390623,73.9 232.736623,72.921 C231.870623,73.397 231.339623,73.57 230.964623,73.914 C228.142623,76.502 225.278623,79.051 222.564623,81.747 C215.882623,88.381 209.005623,94.836 202.919623,102.037 C199.465623,106.122 196.272623,110.429 192.982623,114.651 C191.901623,116.037 190.873623,117.463 189.844623,118.887 C188.596623,120.615 187.577623,120.805 185.893623,119.576 C185.647623,119.396 185.424623,119.184 185.061623,118.877 C185.777623,117.944 186.441623,117.074 187.111623,116.209 C190.002623,112.484 192.888623,108.756 195.786623,105.038 C199.675623,100.05 203.923623,95.384 208.417623,90.937 C213.191623,86.212 217.908623,81.421 223.170623,77.231 C226.481623,74.594 229.903623,72.093 233.324623,69.598 C235.070623,68.324 236.793623,67.063 238.274623,65.456 C239.732623,63.876 241.593623,63.011 243.830623,63.248 C244.067623,63.274 244.314623,63.287 244.536623,63.364 C245.470623,63.686 245.853623,64.687 245.274623,65.479 C244.857623,66.049 244.376623,66.716 243.769623,66.979 C242.041623,67.726 241.147623,69.229 240.093623,70.605 C238.712623,72.407 237.774623,74.441 237.214623,76.62 C236.840623,78.073 236.742623,79.595 236.432623,81.067 C235.427623,85.825 234.635623,90.615 233.992623,95.434 C233.774623,97.077 233.341623,98.691 232.913623,100.766 C233.613623,100.218 233.997623,99.992 234.289623,99.679 C238.690623,94.95 243.037623,90.169 247.487623,85.487 C250.294623,82.534 253.173623,79.639 256.160623,76.87 C260.202623,73.123 264.308623,69.435 268.523623,65.884 C271.817623,63.109 275.273623,60.517 278.757623,57.979 C279.938623,57.119 280.781623,56.219 280.989623,54.731 C281.859623,54.487 282.577623,53.934 283.623623,53.904 C285.266623,53.857 286.531623,54.557 287.810623,55.338 C288.456623,55.732 288.490623,56.419 288.179623,57.042 C287.933623,57.533 287.615623,58.041 287.202623,58.389 C284.547623,60.628 283.097623,63.676 281.679623,66.708 C280.602623,69.01 279.605623,71.354 278.974623,73.854 C278.589623,75.378 277.718623,76.774 277.108623,78.246 C276.134623,80.599 275.272623,83.002 274.224623,85.321 C272.159623,89.89 270.038623,94.436 267.857623,98.95 C267.162623,100.389 266.546623,101.822 266.085623,103.361 C265.608623,104.954 264.786623,106.442 264.127623,107.981 C263.919623,108.467 263.752623,108.971 263.448623,109.782 C264.100623,109.592 264.481623,109.553 264.787623,109.381 C268.543623,107.262 272.325623,105.186 276.029623,102.978 C283.504623,98.523 290.795623,93.774 297.930623,88.791 C304.941623,83.893 311.830623,78.81 317.755623,72.607 C320.503623,69.73 322.981623,66.549 325.254623,63.278 C326.735623,61.145 327.864623,58.715 328.508623,56.118 C329.142623,53.56 328.705623,51.336 326.618623,49.628 C325.200623,48.467 323.771623,47.273 322.187623,46.373 C319.197623,44.675 309.998623,40.78 301.905623,41.289 C298.819623,41.708 295.699623,41.899 292.630623,42.405 C290.136623,42.8169998 287.616623,43.185 285.254623,44.246 C283.511623,45.028 281.652623,45.55 279.868623,46.247 C277.177623,47.298 274.663623,48.692 272.417623,50.511 C270.966623,51.685 270.096623,53.249 269.896623,55.141 L269.841623,55.12 Z" id="Fill-1"></path>
            <path d="M530.726323,181.0576 C529.938323,182.3056 529.214323,184.0046 529.925323,185.4466 C530.622323,186.8626 531.626323,190.9886 533.964323,190.1206 C535.854323,189.4186 537.169323,187.8556 538.749323,186.6826 C539.995323,185.7596 542.477323,185.3306 543.298323,184.0566 C543.756323,183.3466 543.737323,182.4296 543.588323,181.6306 C543.192323,179.4956 541.339323,175.5006 539.024323,174.7756 C538.905323,174.7386 538.787323,174.7246 538.667323,174.7246 C535.328323,174.7616 532.325323,178.5256 530.726323,181.0576 M470.181323,240.4996 C472.075323,238.1146 473.751323,235.5776 475.643323,233.2206 C477.380323,231.0556 479.156323,228.9476 480.747323,226.6786 C482.412323,224.3076 484.599323,222.1056 485.963323,219.5456 C487.199323,217.2256 488.879323,215.1816 490.381323,213.0316 C491.313323,211.6966 492.287323,210.3396 493.167323,208.9696 C498.423323,200.7856 519.757323,168.1226 525.364323,160.1566 C529.669323,154.0396 531.339323,150.8756 535.271323,144.4026 C535.819323,143.5006 536.467323,142.3486 536.548323,141.3016 C536.660323,139.8736 535.726323,138.6716 534.945323,137.5946 C533.979323,136.2606 531.060323,134.5976 529.400323,134.8486 C529.150323,134.8866 528.894323,134.8936 528.642323,134.8936 C524.601323,134.8866 521.180323,138.2336 518.265323,140.6286 C517.152323,141.5426 515.986323,142.5596 514.965323,143.5786 C514.566323,143.9766 514.369323,144.3976 514.011323,144.8136 C512.550323,146.5146 508.541323,152.7416 508.442323,152.9186 C507.926323,153.8346 507.417323,154.7566 506.849323,155.6406 C506.121323,156.7726 505.332323,157.8646 504.582323,158.9826 C503.903323,159.9956 503.243323,161.0236 502.567323,162.0406 C501.891323,163.0576 485.948323,188.6656 485.282323,189.6886 C484.387323,191.0636 483.519323,192.4566 482.628323,193.8346 C481.919323,194.9316 481.199323,196.0206 480.474323,197.1086 C479.754323,198.1906 479.105323,199.3176 478.347323,200.3776 C473.093323,207.7226 468.519323,215.5596 463.367323,222.9816 C458.198323,230.4256 453.331323,238.0066 448.304323,245.5186 C446.114323,248.7916 438.176323,260.4166 436.437323,263.9406 C436.296323,264.2246 436.176323,264.6636 436.124323,265.1176 C435.909323,265.1616 435.692323,265.2006 435.476323,265.2466 C434.839323,265.3846 434.209323,265.5636 433.575323,265.7106 C432.815323,265.8876 432.045323,265.9036 431.283323,266.0926 C430.214323,266.3586 429.131323,266.5356 428.052323,266.7216 C426.682323,266.9566 424.722323,267.6206 423.413323,266.9926 C423.073323,266.8286 422.692323,266.7586 422.322323,266.7036 C421.758323,266.6216 421.297323,267.0596 421.265323,267.7816 C421.221323,268.7486 421.098323,269.7136 421.045323,270.6816 C420.941323,272.6106 421.628323,273.8076 422.134323,275.5286 C422.398323,276.4266 423.012323,276.8756 423.696323,277.0806 C424.562323,277.3426 425.448323,277.3516 426.341323,276.8986 C429.054323,275.5236 432.028323,275.7986 434.833323,274.9456 C436.573323,274.4176 438.377323,274.1086 440.145323,273.7686 C443.751323,273.0746 447.407323,272.8576 451.024323,272.2566 C454.043323,271.7556 457.056323,271.1746 460.070323,270.6186 C462.849323,270.1066 465.647323,269.6806 468.448323,269.4956 C478.162323,268.8516 487.996323,269.0076 497.616323,268.7856 C500.292323,268.7246 502.775323,268.9576 505.439323,269.2126 C507.669323,269.4256 509.923323,269.5366 512.118323,270.0576 C512.394323,270.1236 512.679323,270.1796 512.960323,270.1686 C513.730323,270.1386 514.452323,270.3816 515.178323,270.6096 C515.860323,270.8226 516.545323,271.0236 517.219323,271.2656 C517.430323,271.3406 517.610323,271.5326 517.777323,271.6516 C517.767323,271.7886 517.779323,271.8596 517.756323,271.9016 C517.465323,272.4306 517.182323,272.9666 516.871323,273.4776 C516.620323,273.8886 516.580323,274.3196 516.653323,274.7876 C516.760323,275.4816 517.137323,275.8576 517.655323,276.0816 C518.784323,276.5686 519.973323,276.5276 521.152323,276.5006 C522.686323,276.4656 527.646323,276.5276 528.133323,274.3226 C528.682323,271.8426 528.635323,267.9976 527.173323,265.9846 C526.337323,264.8346 525.788323,263.3846 524.762323,262.4476 C524.352323,262.0726 523.928323,261.7176 523.538323,261.3136 C522.053323,259.7806 520.312323,258.8446 518.459323,258.1336 C516.847323,257.5146 515.210323,257.0196 513.549323,256.6036 C510.964323,255.9556 508.340323,255.5986 505.718323,255.2386 C503.185323,254.8906 500.623323,254.9136 498.065323,255.0096 C496.287323,255.0756 494.495323,255.0746 492.719323,255.2626 C491.522323,255.3896 490.327323,255.4986 489.127323,255.5276 C480.513323,255.7356 472.018323,258.0156 463.505323,259.6166 C459.036323,260.4576 454.562323,261.1166 450.118323,262.1666 C451.757323,260.6746 453.350323,259.1356 454.982323,257.5756 C458.015323,254.6756 467.564323,243.7966 470.181323,240.4996 M614.515323,210.8996 C614.377323,211.0126 614.241323,211.1266 614.106323,211.2426 C612.522323,212.5976 611.097323,214.1246 609.572323,215.5436 C606.215323,218.6656 602.751323,221.7016 599.176323,224.5746 C598.230323,225.3336 597.255323,226.0556 596.284323,226.7826 C595.776323,227.1626 595.276323,227.5576 594.747323,227.9096 C591.458323,230.0916 588.159323,232.2126 584.703323,234.1286 C583.436323,234.8306 582.163323,235.6716 580.678323,235.7776 C580.622323,233.9986 581.798323,232.5416 582.921323,231.2906 C584.177323,229.8926 585.212323,228.3146 586.489323,226.9346 C588.477323,224.7866 590.505323,222.6126 592.667323,220.6396 C594.533323,218.9376 596.443323,217.1886 598.501323,215.7216 C600.454323,214.3306 602.474323,213.0376 604.399323,211.6086 C608.333323,208.6876 613.016323,205.9096 618.131323,206.7846 C618.452323,206.8396 618.754323,207.0186 619.058323,207.1566 C619.209323,207.2246 619.236323,207.4726 619.116323,207.5856 C617.742323,208.8886 615.977323,209.7006 614.515323,210.8996 M845.997323,203.4886 C845.215323,202.5586 843.230323,201.6986 842.732323,201.5246 C840.986323,200.9166 839.144323,200.6796 837.330323,200.3726 C835.191323,200.0116 833.023323,199.9136 830.872323,199.6516 C829.877323,199.5306 828.876323,199.4746 827.874323,199.4386 C825.370323,199.3486 822.867323,199.3166 820.363323,199.4766 C819.484323,199.5326 818.608323,199.6216 817.729323,199.6826 C816.824323,199.7446 815.917323,199.7506 815.013323,199.8316 C813.226323,199.9926 811.435323,200.1716 809.655323,200.3926 C806.328323,200.8076 802.978323,201.2716 799.671323,201.8156 C797.032323,202.2506 794.414323,202.7456 791.798323,203.3046 C790.243323,203.6366 788.689323,203.9916 787.136323,204.3396 C783.733323,205.1036 780.347323,205.9186 777.100323,207.2126 C776.639323,207.3966 776.174323,207.5696 775.695323,207.7006 C774.909323,207.9146 774.062323,208.0506 773.394323,208.5516 C772.446323,209.2626 772.685323,210.1066 772.338323,211.0706 C772.226323,211.3826 772.308323,211.6916 772.413323,211.9926 C772.873323,213.3156 773.326323,213.8586 774.781323,214.0996 C775.124323,214.1566 775.485323,214.1386 775.831323,214.1206 C776.692323,214.0776 777.638323,213.9496 778.389323,213.4946 C778.529323,213.4096 778.647323,213.3126 778.799323,213.2476 C779.165323,213.0906 779.556323,212.9976 779.923323,212.8416 C780.318323,212.6736 780.658323,212.6046 781.048323,212.8246 C781.223323,212.9226 781.368323,213.0086 781.405323,213.2166 C781.443323,213.4336 781.440323,213.6756 781.437323,213.8946 C781.428323,214.7486 781.111323,215.4986 780.895323,216.3126 C780.744323,216.8856 780.586323,217.4536 780.391323,218.0136 C779.513323,220.5326 778.192323,222.8636 777.005323,225.2436 C774.772323,229.7216 771.752323,233.9056 768.362323,237.5776 C765.824323,240.3266 762.902323,242.5926 759.745323,244.5846 C757.993323,245.6896 755.337323,247.5706 753.264323,246.1826 C752.597323,245.7356 751.924323,245.0186 751.573323,244.2936 C750.742323,242.5826 751.354323,240.5516 751.868323,238.8396 C752.520323,236.6646 753.201323,234.4976 753.957323,232.3576 C754.512323,230.7886 755.124323,229.2406 755.704323,227.6816 C756.271323,226.1536 756.909323,224.6696 757.572323,223.1826 C758.277323,221.6026 758.946323,219.9756 759.960323,218.5636 C762.093323,215.5956 764.425323,212.7446 766.747323,209.9226 C767.464323,209.0516 768.218323,208.1736 769.110323,207.4736 C769.959323,206.8056 770.935323,206.3246 771.817323,205.7036 C772.707323,205.0766 773.503323,204.3106 774.480323,203.8126 C775.442323,203.3216 775.885323,202.3956 775.446323,201.3256 C775.288323,200.9396 774.975323,200.6326 774.678323,200.3506 C774.151323,199.8506 773.538323,199.4406 772.851323,199.1986 C772.106323,198.9356 771.350323,198.9136 770.571323,198.9816 C770.153323,199.0176 769.652323,199.0056 769.258323,199.1626 C768.856323,199.3236 767.331323,200.0466 767.018323,200.2756 C766.642323,200.5506 766.283323,200.8246 765.880323,201.0606 C765.089323,201.5246 764.304323,201.9896 763.528323,202.4776 C761.847323,203.5326 760.131323,204.5326 758.461323,205.6016 C756.815323,206.6576 755.283323,207.8666 753.750323,209.0786 C752.194323,210.3086 750.392323,211.2566 749.011323,212.6806 C713.773323,249.0466 703.415323,268.5716 703.419323,268.2136 C703.421323,268.0666 703.551323,267.9176 703.621323,267.7946 C704.508323,266.2056 705.192323,264.5176 705.967323,262.8736 C706.873323,260.9506 715.044323,241.7796 715.943323,239.8516 C720.726323,229.5976 725.420323,219.2656 730.481323,209.1446 C732.639323,204.8286 735.037323,200.6396 737.409323,196.4396 C738.577323,194.3706 739.704323,192.2786 740.865323,190.2056 C744.256323,184.1456 743.423323,184.9816 745.035323,183.8596 C746.046323,183.1556 748.671323,182.8306 751.024323,182.4716 C752.963323,182.1746 755.715323,181.9976 757.655323,181.7056 C759.880323,181.3696 762.056323,181.3626 764.297323,181.2866 C765.453323,181.2476 766.603323,181.0686 767.760323,181.0866 C768.822323,181.1016 775.313323,181.5086 777.502323,181.7376 C778.798323,181.8726 780.097323,182.0176 781.372323,182.2996 C782.669323,182.5856 783.943323,182.9886 785.239323,183.2926 C785.872323,183.4416 786.508323,183.5816 787.142323,183.7326 C787.755323,183.8776 788.337323,184.1036 788.924323,184.3306 C791.257323,185.2366 793.640323,186.0506 795.834323,187.2716 C796.199323,187.4746 796.553323,187.6956 796.884323,187.9496 C797.072323,188.0936 797.561323,188.7326 797.794323,188.3896 C797.873323,188.2746 797.853323,187.9146 797.879323,187.7756 C797.913323,187.5966 797.924323,187.4156 797.907323,187.2346 C797.862323,186.7816 797.649323,186.3756 797.419323,185.9906 C796.957323,185.2136 796.454323,184.4586 795.870323,183.7666 C795.293323,183.0846 794.626323,182.4916 793.950323,181.9106 C793.271323,181.3276 792.566323,180.7716 791.810323,180.2916 C791.007323,179.7816 790.154323,179.3346 789.317323,178.8826 C788.476323,178.4286 787.607323,178.0206 786.724323,177.6576 C785.821323,177.2866 784.886323,177.0056 783.960323,176.7006 C783.001323,176.3856 782.050323,176.0496 781.077323,175.7826 C779.161323,175.2586 777.197323,174.9256 775.229323,174.6726 C773.242323,174.4166 771.250323,174.2156 769.247323,174.1656 C768.238323,174.1406 767.240323,174.1336 766.233323,174.0556 C765.256323,173.9796 764.283323,173.9846 763.303323,173.9986 C761.292323,174.0276 759.283323,173.9856 757.272323,174.0226 C756.278323,174.0416 755.284323,174.0666 754.290323,174.0916 C753.320323,174.1156 752.343323,174.1746 751.373323,174.1396 C750.997323,174.1256 750.758323,174.0096 750.887323,173.5936 C751.018323,173.1746 751.104323,172.7246 751.370323,172.3656 C752.136323,171.3246 752.762323,170.1906 753.450323,169.0986 C754.036323,168.1666 754.621323,167.2766 754.774323,166.1606 C754.975323,164.6866 754.872323,163.2406 753.543323,162.3296 C753.274323,162.1446 752.974323,162.0186 752.716323,161.8156 C752.320323,161.5026 751.960323,161.3986 751.488323,161.2686 C751.249323,161.2036 751.022323,161.1006 750.794323,161.0056 C750.167323,160.7426 749.401323,160.4666 748.708323,160.484672 C748.334323,160.4956 747.885323,160.5956 747.612323,160.8746 C747.190323,161.3036 747.006323,161.9146 746.685323,162.4116 C745.643323,164.0246 744.370323,165.4446 743.210323,166.9696 C741.447323,169.2916 739.829323,171.7006 738.260323,174.1566 C738.026323,174.5246 737.775323,174.8786 737.499323,175.2166 C737.193323,175.5926 736.526323,175.5546 736.071323,175.6106 C731.929323,176.1136 727.750323,176.1916 723.611323,176.7016 C720.545323,177.0786 717.504323,177.5866 714.447323,178.0166 C712.897323,178.2356 711.337323,178.3706 709.783323,178.5476 C706.998323,178.8646 704.219323,179.1946 701.431323,179.4856 C698.052323,179.8366 694.628323,180.0476 691.262323,180.4706 C689.761323,180.6586 688.249323,180.7056 686.739323,180.7196 C685.225323,180.7336 683.707323,180.7606 682.195323,180.7166 C679.372323,180.6346 676.032323,180.7956 673.351323,179.7776 C670.984323,178.8796 669.262323,176.1316 668.974323,173.6326 C668.883323,172.8456 669.205323,172.0536 669.380323,171.3006 C669.499323,170.7956 669.663323,170.2916 669.747323,169.7796 C669.783323,169.5626 669.873323,168.6376 669.422323,168.9506 C669.291323,169.0416 669.195323,169.2286 669.097323,169.3536 C668.950323,169.5446 668.807323,169.7396 668.677323,169.9436 C668.464323,170.2786 668.288323,170.6356 668.177323,171.0186 C668.123323,171.2046 668.093323,171.3986 668.031323,171.5826 C667.412323,173.4126 667.244323,175.1176 667.248323,177.0576 C667.254323,179.0916 668.406323,181.2986 669.727323,182.7956 C670.490323,183.6596 671.332323,184.4556 672.237323,185.1706 C675.641323,187.8636 680.266323,187.5666 684.349323,187.9996 C687.941323,188.3816 691.467323,188.6366 695.072323,188.2376 C698.564323,187.8506 702.080323,187.7676 705.575323,187.4066 C709.528323,186.9896 713.473323,186.4976 717.433323,186.1396 C718.696323,186.0246 719.958323,185.9106 721.218323,185.7746 C722.637323,185.6226 724.048323,185.3806 725.471323,185.2696 C726.771323,185.1686 728.079323,185.1066 729.380323,185.0236 C729.588323,185.0106 729.819323,184.9656 730.022323,185.0336 C730.219323,185.0996 730.238323,185.1786 730.161323,185.3696 C729.983323,185.8116 729.614323,186.2096 729.316323,186.5776 C728.688323,187.3506 728.041323,188.1116 727.404323,188.8776 C726.117323,190.4236 724.816323,191.9576 723.526323,193.4996 C722.266323,195.0066 721.015323,196.5226 719.701323,197.9826 C718.375323,199.4546 717.114323,200.9826 715.788323,202.4546 C715.133323,203.1806 714.430323,203.8606 713.763323,204.5746 C713.144323,205.2356 712.471323,205.8446 711.882323,206.5336 C711.741323,206.6986 711.619323,206.8896 711.466323,207.0456 C711.328323,207.1876 711.160323,207.3036 711.017323,207.4416 C710.716323,207.7336 710.446323,208.0556 710.162323,208.3636 C709.537323,209.0406 708.795323,209.6096 708.132323,210.2506 C707.450323,210.9106 706.823323,211.6226 706.155323,212.2986 C705.479323,212.9826 704.774323,213.6396 704.066323,214.2906 C701.471323,216.6786 698.861323,219.0426 696.423323,221.5946 C693.018323,225.1596 689.434323,228.5596 685.666323,231.7396 C685.394323,231.9696 685.098323,232.3206 684.774323,232.4806 C684.489323,232.6216 683.859323,232.6106 683.797323,232.2476 C683.682323,231.5626 684.658323,228.9006 685.137323,227.7796 C686.481323,224.6406 687.867323,221.5346 688.726323,218.9896 C692.773323,207.0006 692.706323,209.2836 690.997323,206.2166 C690.185323,204.7616 689.808323,204.3236 688.287323,203.6326 C687.978323,203.4936 687.665323,203.2986 687.337323,203.2126 C687.050323,203.1376 686.737323,203.1386 686.442323,203.1386 C685.947323,203.1386 685.420323,203.1406 684.931323,203.2266 C684.555323,203.2916 684.228323,203.4816 683.901323,203.6676 C683.558323,203.8636 683.169323,203.9906 682.877323,204.2616 C682.195323,204.8946 681.555323,205.5686 680.835323,206.1616 C680.513323,206.4286 680.181323,206.6616 679.898323,206.9706 C679.564323,207.3346 679.202323,207.6746 678.844323,208.0156 C678.190323,208.6396 677.525323,209.2546 676.913323,209.9206 C676.266323,210.6256 675.549323,211.2586 674.894323,211.9556 C674.237323,212.6566 673.588323,213.3626 672.924323,214.0576 C672.251323,214.7626 671.580323,215.4696 670.933323,216.1986 C669.591323,217.7096 668.290323,219.2576 666.985323,220.7986 C665.732323,222.2786 664.515323,223.7926 663.213323,225.2306 C662.602323,225.9066 662.100323,226.6626 661.497323,227.3436 C660.826323,228.1016 660.149323,228.8516 659.496323,229.6246 C658.207323,231.1476 656.973323,232.7136 655.684323,234.2336 C655.397323,234.5716 655.084323,234.8846 654.770323,235.1966 C654.667323,235.2986 654.464323,235.5826 654.291323,235.5856 C654.082323,235.5886 654.063323,235.3016 654.085323,235.1376 C654.248323,234.0266 655.048323,232.7706 655.480323,231.7486 C656.519323,229.2916 657.571323,226.8406 658.628323,224.3916 C659.903323,221.4386 661.084323,218.4456 662.402323,215.5106 C663.353323,213.3916 664.368323,211.2996 665.455323,209.2476 C666.457323,207.3556 667.489323,205.8166 668.904323,204.2246 C669.989323,203.0036 671.530323,201.3436 670.586323,199.6046 C669.635323,197.8506 667.736323,196.3286 666.061323,195.3076 C664.939323,194.6236 663.322323,194.3916 662.020323,194.4476 C660.924323,194.4946 661.695323,196.2206 660.767323,196.8166 C658.410323,198.3306 656.036323,199.7276 653.810323,201.4506 C651.827323,202.9856 649.865323,204.4936 647.996323,206.1696 C647.657323,206.4736 647.328323,206.7976 646.965323,207.0726 C646.599323,207.3486 646.225323,207.6056 645.876323,207.9046 C645.151323,208.5246 644.520323,209.2446 643.801323,209.8716 C643.093323,210.4906 642.348323,211.0586 641.653323,211.6936 C640.205323,213.0176 638.749323,214.3316 637.257323,215.6056 C636.501323,216.2516 635.737323,216.8876 634.959323,217.5066 C634.231323,218.0866 633.586323,218.7636 632.881323,219.3716 C631.403323,220.6466 629.961323,221.9646 628.526323,223.2876 C627.119323,224.5856 625.767323,225.9446 624.351323,227.2336 C623.648323,227.8736 622.905323,228.4666 622.187323,229.0906 C621.443323,229.7366 620.731323,230.4186 619.996323,231.0756 C619.274323,231.7206 618.532323,232.3416 617.786323,232.9576 C617.428323,233.2516 617.079323,233.5666 616.706323,233.8416 C616.565323,233.9466 616.400323,234.0686 616.212323,234.0346 C616.040323,234.0016 615.903323,233.8696 615.897323,233.6986 C615.892323,233.5106 616.014323,233.2276 616.058323,233.0446 C616.101323,232.8676 616.145323,232.6916 616.199323,232.5176 C616.697323,230.9346 617.582323,229.3636 618.248323,227.8376 C619.269323,225.4956 624.394323,216.7516 625.592323,214.5266 C625.882323,213.9886 626.214323,213.4746 626.544323,212.9606 C627.223323,211.9046 627.772323,210.8006 628.356323,209.6916 C629.122323,208.2356 630.076323,206.8856 630.823323,205.4166 C631.236323,204.6046 630.595323,203.7776 630.116323,203.1626 C629.573323,202.4646 629.091323,201.6556 628.360323,201.1366 C627.776323,200.7226 626.717323,200.1726 626.014323,200.5966 C625.722323,200.7716 625.539323,201.0576 625.366323,201.3406 C625.153323,201.6846 624.923323,202.0186 624.676323,202.3396 C624.093323,203.0996 624.250323,203.0096 623.462323,203.5676 C623.355323,203.6426 623.194323,203.7666 623.051323,203.7576 C622.917323,203.7486 622.752323,203.6306 622.636323,203.5756 C622.422323,203.4726 622.208323,203.3686 621.996323,203.2626 C621.200323,202.8656 620.690323,202.6986 619.901323,202.2886 C618.433323,201.5296 616.721323,201.3196 615.117323,201.0156 C611.029323,200.2436 606.007323,202.4356 603.099323,204.7126 C596.841323,209.6116 590.263323,214.1536 584.693323,219.8636 C580.397323,224.2676 575.876323,230.5996 574.642323,236.9706 C574.353323,238.4636 574.386323,240.2066 575.330323,241.4756 C575.724323,242.0076 576.244323,242.4386 576.801323,242.7906 C577.076323,242.9646 577.361323,243.1196 577.653323,243.2596 C577.963323,243.4086 578.314323,243.5976 578.655323,243.6586 C579.006323,243.7216 579.411323,243.6046 579.754323,243.5326 C580.146323,243.4496 580.533323,243.3456 580.914323,243.2226 C581.618323,242.9936 582.297323,242.6986 582.954323,242.3566 C584.248323,241.6826 585.442323,240.8336 586.610323,239.9646 C587.832323,239.0556 589.034323,238.1196 590.326323,237.3086 C591.039323,236.8616 591.763323,236.4296 592.443323,235.9306 C593.121323,235.4336 593.757323,234.8786 594.392323,234.3286 C595.667323,233.2236 596.938323,232.1406 598.315323,231.1616 C598.959323,230.7036 599.588323,230.2166 600.122323,229.6296 C600.382323,229.3446 600.645323,229.0596 600.953323,228.8236 C601.058323,228.7416 601.242323,228.6046 601.374323,228.7326 C601.469323,228.8236 601.443323,229.1036 601.436323,229.2196 C601.413323,229.6196 601.283323,230.0236 601.224323,230.4206 C601.158323,230.8626 601.114323,231.3066 601.091323,231.7526 C600.951323,234.5556 601.845323,237.2626 602.958323,239.7956 C603.843323,241.8076 604.827323,244.8696 606.839323,246.0336 C608.068323,246.7446 609.593323,246.4756 610.932323,246.3576 C611.453323,246.3116 611.953323,246.2686 612.459323,246.1336 C613.531323,245.8466 614.501323,245.2846 615.405323,244.6566 C616.452323,243.9286 617.323323,242.9896 618.310323,242.1896 C618.717323,241.8596 619.162323,241.5916 619.582323,241.2816 C621.118323,240.1506 622.426323,238.4996 623.811323,237.1826 C625.074323,235.9806 626.262323,234.7546 627.473323,233.5056 C627.892323,233.0726 628.367323,232.7006 628.828323,232.3156 C630.109323,231.2446 631.175323,229.9476 632.315323,228.7336 C632.732323,228.2886 633.188323,227.8866 633.611323,227.4486 C633.784323,227.2686 633.928323,227.0646 634.091323,226.8776 C635.901323,224.8016 637.919323,222.8926 639.751323,220.8286 C640.490323,219.9966 641.236323,219.1706 642.013323,218.3736 C644.103323,216.2306 646.262323,214.0766 648.518323,212.1076 C650.343323,210.5156 652.399323,209.1996 654.144323,207.5136 C654.413323,207.2536 654.698323,207.0306 655.021323,206.8426 C655.291323,206.6856 655.604323,206.4696 655.923323,206.6196 C656.252323,206.7726 656.281323,207.1436 656.194323,207.4526 C656.070323,207.8906 655.908323,208.3226 655.763323,208.7546 C655.474323,209.6206 655.164323,210.4826 654.894323,211.3546 C654.368323,213.0576 653.630323,214.6896 652.921323,216.3266 C652.209323,217.9706 651.434323,219.5826 650.663323,221.1996 C649.890323,222.8176 649.168323,224.4586 648.411323,226.0826 C646.881323,229.3626 645.415323,232.6726 643.918323,235.9666 C643.191323,237.5676 642.428323,239.1426 641.761323,240.7716 C641.444323,241.5456 641.122323,242.3186 640.754323,243.0696 C640.368323,243.8566 640.094323,244.6656 639.812323,245.4956 C639.237323,247.1896 638.676323,248.8606 638.282323,250.6086 C638.112323,251.3626 637.985323,252.1206 637.872323,252.8846 C637.812323,253.2946 637.707323,253.7176 637.733323,254.1336 C637.824323,255.5686 638.740323,257.3906 639.346323,258.6886 C639.907323,259.8876 640.814323,260.8876 641.495323,262.0156 C641.620323,262.2236 641.789323,262.5746 642.068323,262.6036 C643.694323,262.7766 644.928323,258.7006 645.390323,257.6206 C646.619323,254.7466 648.454323,252.1826 649.953323,249.4446 C651.462323,246.6876 653.364323,244.1906 655.009323,241.5196 C655.576323,240.5996 656.306323,239.7986 656.918323,238.9096 C657.719323,237.7476 658.526323,236.6006 659.465323,235.5446 C660.798323,234.0456 662.101323,232.5156 663.167323,230.8116 C663.683323,229.9896 666.736323,226.3256 667.683323,225.2676 C668.649323,224.1876 669.439323,222.9716 670.377323,221.8696 C671.229323,220.8676 672.107323,219.8886 673.013323,218.9356 C674.004323,217.8926 674.990323,216.8556 675.926323,215.7646 C677.125323,214.3676 678.682323,213.2456 680.003323,211.9666 C680.281323,211.6976 680.561323,211.4046 680.867323,211.1676 C680.959323,211.0966 681.147323,210.9526 681.274323,210.9776 C681.418323,211.0056 681.594323,211.2346 681.697323,211.3366 C682.063323,211.7016 681.947323,212.0116 681.771323,212.4556 C681.120323,214.1036 680.512323,215.7556 679.973323,217.4436 C678.809323,221.0816 677.878323,224.7996 677.049323,228.5276 C676.733323,229.9506 676.375323,231.4226 676.559323,232.8896 C676.792323,234.7426 677.536323,236.5336 678.462323,238.1416 C678.970323,239.0256 680.330323,241.6026 681.650323,241.2016 C682.495323,240.9446 683.292323,240.5356 683.935323,239.9216 C686.334323,237.6266 689.124323,235.6146 691.592323,233.3256 C698.346323,227.0586 703.973323,219.6506 711.119323,213.7946 C711.386323,213.5756 711.637323,213.3416 711.842323,213.0616 C712.012323,212.8306 712.242323,212.6736 712.532323,212.8236 C712.940323,213.0326 713.396323,213.5616 713.526323,214.0026 C713.603323,214.2686 713.485323,214.5456 713.362323,214.7796 C713.142323,215.1976 712.906323,215.6066 712.675323,216.0186 C711.808323,217.5756 710.925323,219.1216 710.057323,220.6776 C709.170323,222.2656 708.322323,223.8756 707.436323,225.4646 C707.018323,226.2136 706.594323,226.9606 706.145323,227.6916 C705.681323,228.4476 705.176323,229.1756 704.724323,229.9386 C704.273323,230.7016 703.849323,231.4806 703.390323,232.2396 C702.933323,232.9936 702.468323,233.7366 702.044323,234.5106 C700.318323,237.6696 691.475323,258.1576 690.030323,261.4586 C688.636323,264.6416 688.547323,267.1406 688.547323,270.7536 C688.547323,274.3676 692.059323,280.5356 701.497323,275.9566 C703.475323,273.2986 726.889323,237.3856 746.974323,218.7396 C747.255323,218.4786 747.500323,218.1006 747.828323,217.8956 C747.915323,217.8416 748.046323,217.7576 748.150323,217.8216 C748.326323,217.9296 748.154323,218.1916 748.098323,218.3106 C747.383323,219.8566 746.324323,221.2256 745.461323,222.6906 C744.640323,224.0846 743.888323,225.5246 743.306323,227.0356 C741.390323,232.0106 740.356323,238.3506 743.068323,243.2936 C743.432323,243.9566 743.862323,244.5826 744.263323,245.2226 C744.670323,245.8696 745.027323,246.5426 745.401323,247.2086 C746.499323,249.1636 747.942323,250.9296 749.337323,252.6786 C750.056323,253.5796 751.006323,254.2836 752.014323,254.8286 C753.635323,255.7066 756.581323,255.8996 758.392323,255.7066 C760.949323,255.4346 763.444323,254.5676 765.671323,253.2956 C769.008323,251.3896 772.290323,248.4086 775.068323,245.7666 C779.229323,241.8106 782.602323,237.6466 784.978323,232.3826 C785.958323,230.2086 786.690323,227.9356 787.560323,225.7176 C788.580323,223.1176 788.855323,220.0426 789.208323,217.2886 C789.414323,215.6876 789.266323,214.0296 788.734323,212.5026 C788.608323,212.1426 788.490323,211.7906 788.414323,211.4156 C788.338323,211.0386 788.443323,210.8136 788.737323,210.5726 C789.337323,210.0786 789.992323,209.6456 790.705323,209.3326 C791.060323,209.1776 791.429323,209.0596 791.790323,208.9226 C793.474323,208.2806 795.167323,207.6876 796.920323,207.2656 C798.573323,206.8686 800.350323,206.5946 802.050323,206.2326 C803.927323,205.8336 805.782323,205.3076 807.692323,205.0796 C811.267323,204.6556 814.845323,204.1596 818.435323,203.8756 C819.025323,203.8286 821.778323,203.4566 822.636323,203.4166 C825.734323,203.2716 827.948323,203.4446 830.518323,203.3386 C831.597323,203.2946 832.675323,203.3456 833.755323,203.3406 C834.817323,203.3356 835.834323,203.4676 836.885323,203.5926 C838.583323,203.7966 840.301323,203.7556 841.995323,204.0236 C842.392323,204.0866 842.782323,204.1976 843.178323,204.2586 C843.926323,204.3726 844.468323,204.4436 845.199323,204.6606 C845.479323,204.7436 845.905323,204.9436 846.136323,204.6636 C846.444323,204.2906 846.329323,203.8836 845.997323,203.4886 M604.119323,193.4956 C603.946323,192.8756 603.667323,192.2926 603.118323,191.9276 C601.946323,191.1486 600.759323,191.0606 599.557323,190.4586 C597.780323,189.5696 595.453323,188.1696 593.420323,189.1046 C591.727323,189.8846 589.910323,191.7286 588.686323,193.1036 C587.593323,194.3316 586.652323,195.6926 585.832323,197.1176 C585.183323,198.2466 584.625323,199.4296 584.035323,200.5936 C583.800323,201.0556 584.227323,201.3186 584.389323,201.7016 C584.733323,202.5126 584.900323,203.8196 584.256323,204.5106 C583.369323,205.4666 582.519323,206.4576 581.668323,207.4476 C580.682323,208.5956 579.730323,209.7726 578.731323,210.9096 C576.783323,213.1286 575.066323,215.5296 573.228323,217.8346 C572.468323,218.7886 571.761323,219.7856 571.030323,220.7636 C570.450323,221.5386 569.862323,222.3106 569.289323,223.0936 C567.851323,225.0636 566.425323,227.0446 564.983323,229.0126 C563.913323,230.4736 562.839323,231.9316 561.740323,233.3696 C560.948323,234.4056 560.230323,235.4946 559.396323,236.5006 C558.376323,237.7316 557.423323,239.0196 556.421323,240.2666 C555.920323,240.8896 555.376323,241.4766 554.847323,242.0766 C554.795323,242.1356 554.710323,242.1876 554.633323,242.1996 C554.569323,242.2086 554.444323,242.1696 554.431323,242.1276 C554.308323,241.7106 555.717323,236.9556 556.181323,235.4246 C556.955323,232.8746 557.661323,230.3096 558.418323,227.7556 C559.185323,225.1716 560.284323,222.7036 561.166323,220.1606 C562.332323,216.8006 563.387323,213.4006 564.673323,210.0826 C565.289323,208.4956 565.763323,206.7806 566.185323,205.1306 C566.685323,203.1706 567.439323,201.2696 568.292323,199.4396 C568.357323,199.3006 569.303323,197.0226 569.967323,196.1256 C570.561323,195.3236 571.896323,193.6026 571.105323,192.7596 C563.195323,184.3216 562.843323,186.6066 557.244323,194.5426 C556.021323,196.2766 555.055323,198.2826 553.929323,200.0816 C553.584323,200.6326 553.191323,201.0866 552.628323,201.4216 C551.689323,201.9816 550.752323,202.5536 549.856323,203.1776 C548.337323,204.2346 546.779323,205.2286 545.247323,206.2656 C542.775323,207.9386 540.265323,209.5596 537.788323,211.2276 C532.663323,214.6776 527.352323,218.2406 522.517323,222.2216 C520.956323,223.5066 519.413323,224.8116 517.852323,226.0946 C517.433323,226.4386 516.973323,226.7326 516.526323,227.0536 C516.480323,226.9456 516.404323,226.8566 516.423323,226.7996 C516.574323,226.3646 516.721323,225.9276 517.025323,225.5586 C519.436323,222.6266 521.560323,218.9626 523.423323,215.6546 C524.622323,213.5286 526.257323,211.8046 527.777323,209.9216 C528.416323,209.1286 528.865323,208.2226 529.475323,207.4116 C530.331323,206.2746 531.396323,205.2736 532.037323,203.9856 C532.557323,202.9386 533.838323,200.8456 532.798323,199.3536 C531.909323,198.0776 529.440323,197.4236 528.161323,197.0476 C528.044323,197.0136 527.909323,197.0236 527.785323,197.0386 C526.768323,197.1606 525.908323,197.5176 525.493323,198.5536 C525.365323,198.8706 525.140323,199.1166 524.895323,199.3566 C524.113323,200.1246 521.861323,203.6696 522.065323,203.6696 C521.942323,203.9256 520.747323,206.2516 520.634323,206.4166 C520.081323,207.2116 519.518323,207.9986 518.955323,208.7866 C518.077323,210.0206 517.182323,211.2446 516.320323,212.4896 C514.720323,214.7986 513.108323,217.1176 511.575323,219.4716 C509.825323,222.1566 508.175323,224.9156 506.380323,227.5706 C505.580323,228.7536 504.858323,229.9976 503.850323,231.0296 C503.476323,231.4126 503.304319,231.9186 503.304319,232.4076 C503.304319,233.2676 503.569323,233.9846 503.755323,234.8126 C503.856323,235.2626 503.888323,235.7246 503.961323,236.1806 C504.154323,237.3706 505.079323,240.9206 506.083323,241.6416 C508.137323,243.1166 509.931323,242.1706 511.841323,240.9826 C514.006323,239.6356 515.720323,237.6716 517.351323,235.7416 C520.114323,232.4746 523.028323,229.3456 526.278323,226.5556 C527.495323,225.5106 528.761323,224.5346 530.026323,223.5496 C534.085323,220.3906 538.228323,217.1786 542.127323,213.8256 C543.391323,212.7386 548.896323,208.5786 549.385323,208.3326 C549.427323,208.5126 549.502323,208.6396 549.473323,208.7356 C549.302323,209.3006 549.127323,209.8656 548.917323,210.4156 C548.151323,212.4206 547.351323,214.4136 546.601323,216.4236 C546.086323,217.8046 545.607323,219.1996 545.159323,220.6026 C544.775323,221.8056 544.505323,223.0446 544.100323,224.2396 C542.869323,227.8706 542.156323,231.6826 541.213323,235.3936 C540.382323,238.6646 538.972323,242.1676 538.906323,245.5706 C538.897323,246.0306 538.808323,246.4886 538.764323,246.9486 C538.741323,247.1986 538.699323,247.4546 538.734323,247.6996 C538.867323,248.6156 538.979323,249.5356 539.314323,250.4136 C539.539323,251.0026 539.697323,251.6176 539.889323,252.2196 C539.954323,252.4176 539.997323,252.6376 540.114323,252.8016 C540.669323,253.5756 541.253323,254.5746 542.059323,255.1096 C542.919323,255.6796 543.466323,256.4936 544.253323,257.1106 C545.638323,258.1966 548.143323,258.4546 548.999323,258.3936 C549.989323,258.2626 550.615323,257.6666 551.147323,257.1346 C553.607323,254.6736 555.886323,252.0346 558.083323,249.3376 C559.116323,248.0716 560.041323,246.7046 561.163323,245.5136 C562.994323,243.5716 564.601323,241.4386 566.196323,239.3036 C568.955323,235.6076 583.527323,216.0536 585.851323,213.5396 C587.784323,211.4506 589.577323,209.2416 591.527323,207.1676 C592.021323,206.6416 592.519323,206.1176 593.019323,205.5916 C595.193323,203.3046 597.349323,200.9836 599.263323,198.4716 C600.481323,196.8716 601.816323,196.0066 603.219323,194.7226 C603.341323,194.6116 603.522323,194.5646 603.643323,194.4536 C603.795323,194.3136 603.943323,194.1536 604.039323,193.9746 C604.112323,193.8366 604.158323,193.6386 604.119323,193.4956 M151.683323,216.6836 C153.463323,215.1276 156.216323,213.0606 158.164323,211.7456 C160.293323,210.3086 162.382323,209.5926 164.385323,210.0346 C165.227323,210.2196 165.628323,211.1946 165.161323,211.9176 C159.817323,220.1626 145.677323,229.4586 139.339323,232.1756 C138.304323,232.6196 147.468323,220.3706 151.683323,216.6836 M227.445323,232.4536 C222.636323,236.6996 217.341323,240.0026 212.024323,243.5516 C211.654323,243.7986 211.165323,243.4576 211.277323,243.0276 C212.017323,240.1546 214.080323,237.1036 215.284323,234.5396 C217.003323,230.8716 218.723323,227.2046 220.425323,223.5286 C221.994323,220.1416 223.552323,216.7766 225.270323,213.4696 C226.605323,210.9006 226.318323,207.9736 222.963323,207.4326 C219.872323,206.9326 216.976323,209.2536 214.593323,210.9346 C211.872323,212.8546 209.265323,214.9296 206.748323,217.1106 C201.558323,221.6096 196.418323,226.1686 191.264323,230.7096 C190.850323,231.0746 190.242323,230.5676 190.525323,230.0936 C194.462323,223.5016 199.431323,217.5126 203.756323,211.1696 C205.788323,208.1896 209.189323,204.4226 210.136323,200.8996 C211.082323,197.3836 206.607323,195.6966 203.741323,196.1536 C200.340323,196.6946 197.704323,199.9676 195.565323,202.3976 C191.599323,206.9056 187.322323,211.0956 182.988323,215.2746 C178.012323,220.0726 172.868323,224.6886 167.654323,229.2266 C161.506323,234.5776 155.594323,240.2316 149.269323,245.3776 C146.626323,247.5286 143.866323,249.5316 141.000323,251.3766 C138.569323,252.9446 135.534323,255.1776 132.877323,256.1366 C129.052323,257.5166 130.888323,252.8096 131.443323,250.8336 C132.129323,248.3836 132.862323,245.7356 133.946323,243.4246 C135.511323,240.0856 138.485323,238.7706 141.511323,236.9666 C144.686323,235.0736 147.803323,233.0816 150.855323,230.9956 C157.261323,226.6206 163.385323,221.8336 169.191323,216.6896 C171.812323,214.3666 173.169323,211.8896 170.554323,208.8426 C169.045323,207.0856 166.690323,206.1126 164.502323,205.5516 C161.735323,204.8426 159.216323,204.8596 156.664323,206.2826 C155.440323,206.9656 154.350323,207.8586 153.196323,208.6466 C152.487323,209.1306 150.842323,210.4496 150.079323,210.7276 C149.570323,210.9126 147.033323,209.2786 145.744323,208.5906 C144.247323,207.7906 142.698323,207.0926 141.114323,206.4856 C137.973323,205.2806 134.689323,204.4756 131.368323,203.9636 C115.178323,201.4636 97.9113229,204.0556 81.9203229,206.8036 C73.4943229,208.2516 65.1013229,209.8886 56.7103229,211.5326 C52.9283229,212.2736 48.2163229,214.0016 44.3673229,213.9146 C41.1753229,213.8436 43.1783229,210.2296 40.7093229,209.2826 C38.2333229,208.3316 37.7153229,214.0866 37.8233229,215.5086 C38.0153229,218.0656 39.2383229,220.5466 41.2773229,222.1306 C43.8023229,224.0916 46.5793229,223.9476 49.4963229,223.4476 C52.7903229,222.8836 56.0643229,222.1926 59.3293229,221.4736 C76.4353229,217.7006 93.3503229,213.9016 110.827323,212.5656 C103.996323,214.4546 103.044323,218.5586 102.863323,218.9206 C102.188323,221.1036 101.547323,223.6626 100.817323,226.0106 C98.2423229,227.6336 95.3723229,228.8606 92.6693229,230.1576 C87.6833229,232.5486 82.7303229,235.0116 77.7513229,237.4196 C66.9763229,242.6316 56.2193229,248.0666 45.0453229,252.3646 C40.7663229,254.0116 36.3613229,255.3006 31.8933229,256.3326 C28.0583229,257.2186 23.7503229,258.1776 19.9203229,257.2156 C9.26932294,254.5426 11.1083229,242.4246 13.6523229,234.6016 C19.8823229,215.4446 33.1513229,200.1876 48.2163229,187.2556 C63.8353229,173.8486 81.5663229,162.9946 100.853323,155.7466 C110.975323,151.9436 121.565323,148.7316 132.461323,148.5376 C135.925323,148.4766 139.224323,148.7456 140.850323,145.0846 C142.802323,140.6916 141.896323,137.7826 137.316323,135.9516 C132.495323,134.0246 127.211323,134.4066 122.164323,134.9676 C116.734323,135.5726 111.361323,136.6346 106.097323,138.0926 C96.0803229,140.8666 86.3713229,144.9986 77.1033229,149.6746 C59.4813229,158.5656 43.0273229,170.2226 28.8933229,184.0106 C15.8793229,196.7056 2.24132294,213.9326 0.181322938,232.6286 C-1.63567706,249.1326 10.3933229,268.0886 27.7233229,270.2436 C38.2563229,271.5526 48.9523229,267.2576 58.4423229,263.2376 C61.8843229,261.7806 65.2763229,260.2046 68.6383229,258.5706 C75.3593229,255.3046 81.9233229,251.7526 88.7173229,248.6326 C91.1143229,247.5326 93.5473229,246.5276 95.8503229,245.2536 C94.1783229,249.5556 92.5423229,253.8656 90.8663229,258.1336 C89.8243229,260.7866 89.1353229,264.0166 90.4183229,266.7176 C91.6023229,269.2096 93.9243229,271.3646 95.7733229,273.3756 C98.4743229,276.3146 99.8583229,272.7266 100.530323,270.3736 C102.526323,263.3776 106.213323,248.5556 106.213323,248.5556 C106.213323,248.5556 106.219323,248.0096 106.870323,245.7586 C108.858323,238.8856 111.043323,232.0526 113.862323,225.4626 C115.103323,222.5616 117.230323,217.7496 118.818323,215.5336 C120.077323,214.2606 121.483323,213.1186 123.167323,212.4186 C126.872323,210.8816 131.692323,210.9026 135.266323,211.1906 C138.714323,211.4686 145.010323,213.9446 144.686323,214.4996 C144.236323,215.2716 141.005323,217.8586 140.269323,218.5576 C139.001323,219.7616 137.736323,220.9666 136.493323,222.1946 C131.463323,227.1626 126.965323,232.4746 123.740323,238.8026 C120.919323,244.3326 120.188323,249.7236 122.607323,255.5686 C124.858323,261.0076 133.226323,261.2196 137.623323,258.6826 C149.478323,251.8456 159.338323,242.9916 169.372323,233.8926 C169.796323,233.5086 170.418323,234.0516 170.095323,234.5246 C167.562323,238.2166 164.997323,241.8876 162.568323,245.6486 C159.969323,249.6726 156.999323,253.8516 155.297323,258.3546 C153.487323,263.1426 154.315323,267.5936 157.528323,271.5586 C158.984323,273.3556 160.030323,275.2026 162.520323,274.2806 C164.561323,273.5246 166.344323,272.0496 167.577323,270.2736 C170.775323,265.6626 172.997323,260.3396 176.196323,255.6726 C179.493323,250.8616 183.149323,246.3006 187.085323,241.9976 C194.907323,233.4476 203.524323,225.6566 212.089323,217.8626 C212.496323,217.4936 213.111323,217.9826 212.838323,218.4586 C209.397323,224.4496 205.590323,230.2506 202.124323,236.2256 C198.650323,242.2186 197.211323,249.1876 202.804323,254.5916 C207.346323,258.9786 216.538323,249.4926 219.726323,246.3996 C222.807323,243.4126 225.710323,240.2936 228.744323,237.3016 C229.939323,233.9686 231.472323,230.9956 232.969323,227.7626 C231.105323,229.3126 229.241323,230.8676 227.445323,232.4536 M327.354323,246.8906 C335.984323,240.2456 344.392323,233.3456 352.774323,226.3876 C356.968323,222.9046 361.008323,219.1156 365.476323,215.9856 C367.369323,214.6596 375.212323,209.6426 371.373323,206.5616 C368.248323,204.0546 360.730323,211.3406 358.571323,213.0916 C354.329323,216.5306 350.199323,220.1236 346.143323,223.7786 C338.708323,230.4786 332.448323,238.2826 327.354323,246.8906 M361.639323,224.3526 C355.598323,229.1436 349.446323,233.7696 343.386323,238.5316 C337.499323,243.1576 332.615323,248.1886 326.495323,252.4666 C324.852323,253.6146 322.996323,255.8526 320.796323,253.7496 C318.331323,251.3916 319.478323,247.2026 320.317323,244.3966 C322.207323,238.0776 326.193323,232.7336 330.490323,227.8416 C339.689323,217.3706 350.690323,208.2026 363.259323,202.0226 C366.019323,200.6656 369.446323,199.6586 372.271323,201.4466 C374.897323,203.1076 374.083323,206.3976 377.093323,207.5156 C379.218323,208.3066 382.083323,208.6226 382.880323,211.1686 C384.025323,214.8236 380.619323,216.3826 378.825323,218.8286 C376.618323,221.8376 375.064323,225.4436 373.124323,228.6386 C370.958323,232.2066 368.779323,235.7746 366.896323,239.5016 C363.428323,246.3636 361.235323,253.9356 359.158323,261.3436 C358.042323,265.3236 361.370323,267.2116 366.175323,268.3886 C364.025323,269.8896 361.785323,271.2656 359.430323,272.4236 C357.415323,273.4126 355.146323,274.0736 352.931323,273.7136 C346.699323,272.6996 345.356323,265.0146 345.686323,259.8076 C345.966323,255.3886 347.887323,251.1336 349.678323,247.1286 C351.535323,242.9756 353.681323,238.9566 355.964323,235.0236 C357.036323,233.1776 358.117323,231.3306 359.298323,229.5576 C359.890323,228.6466 360.474323,227.7216 361.112323,226.8416 C361.601323,226.1666 362.210323,225.5266 362.210323,224.6346 C362.190323,224.5266 362.167323,224.4326 362.084323,224.3536 C361.948323,224.2236 361.801323,224.2696 361.639323,224.3526 M278.816323,203.9046 C276.643323,214.8866 271.223323,223.8776 263.914323,232.1976 C260.507323,236.0766 256.925323,239.8046 253.182323,243.3606 C249.687323,246.6816 246.137323,250.3366 241.616323,252.2186 C240.324323,252.7566 237.870323,253.9176 236.626323,252.7586 C235.409323,251.6216 236.227323,249.4646 236.585323,248.1536 C237.880323,243.4206 239.777323,238.8766 242.040323,234.5286 C246.667323,225.6436 252.536323,217.4176 259.403323,210.1306 C262.442323,206.9056 265.937323,202.2366 270.406323,201.1126 C273.201323,200.4096 279.503323,199.2016 278.816323,203.9046 M352.868323,195.1986 C346.790323,193.8786 341.415323,199.4886 337.232323,203.0096 C331.885323,207.5086 326.740323,212.2446 321.787323,217.1756 C316.966323,221.9746 312.326323,226.9536 307.847323,232.0736 C305.366323,234.9086 302.935323,237.7876 300.548323,240.7036 C299.365323,242.1486 298.077323,244.5866 296.513323,246.0996 C296.142323,246.4596 295.543323,246.0546 295.750323,245.5806 C298.669323,238.9076 301.623323,232.2506 304.609323,225.6056 C307.518323,219.1316 309.986323,212.0466 313.818323,206.1436 C315.797323,203.0956 313.269323,199.0086 310.153323,197.8086 C307.958323,196.9626 305.430323,196.9916 303.118323,196.9086 C299.629323,196.7836 296.143323,196.6256 292.657323,196.4456 C288.978323,196.2556 285.293323,196.1006 281.618323,195.8666 C279.676323,195.7436 280.159323,195.9496 279.571323,194.5046 C278.939323,192.9556 279.001323,192.5296 277.188323,191.8566 C271.643323,189.8006 264.421323,194.5306 259.856323,197.3806 C254.497323,200.7286 249.804323,205.5996 245.764323,210.4146 C241.764323,215.1826 238.948323,220.7826 234.971323,225.5416 C233.533323,227.2626 231.939323,228.8476 230.277323,230.3686 C230.254323,230.4816 230.221323,230.5976 230.164323,230.7146 C228.652323,233.7636 227.221323,236.8256 225.926323,239.9286 C226.677323,239.2726 227.441323,238.6276 228.228323,238.0046 C228.557323,237.7436 229.205323,237.9616 229.104323,238.3696 C228.373323,241.3356 227.560323,245.2326 228.341323,248.5616 C228.991323,251.3276 229.858323,254.1446 231.602323,256.4346 C236.064323,262.2946 242.747323,261.6166 248.451323,258.2296 C254.768323,254.4796 259.839323,249.9626 264.892323,244.6596 C269.703323,239.6096 274.639323,234.6266 278.709323,228.9406 C282.458323,223.7036 285.016323,218.1136 286.626323,211.8886 C287.406323,208.8786 288.331323,205.8006 286.829323,202.8496 C285.459323,200.1636 285.457323,199.7416 288.751323,199.6606 C291.999323,199.5786 295.324323,199.9466 298.545323,199.7726 C299.389323,199.7266 301.032323,199.0576 301.727323,199.7866 C303.079323,201.2036 299.913323,205.4016 299.326323,206.5236 C297.740323,209.5476 296.237323,212.6146 294.787323,215.7066 C291.722323,222.2486 288.962323,228.9196 286.079323,235.5416 C283.607323,241.2226 280.077323,246.9706 280.905323,253.4236 C281.438323,257.5806 284.124323,264.2906 289.260323,261.0136 C294.563323,257.6296 298.175323,250.6766 301.790323,245.7016 C310.679323,233.4646 321.757323,222.6646 332.665323,212.3066 C337.343323,207.8656 342.366323,203.7756 347.871323,200.4136 C348.640323,199.9446 349.452323,199.5486 350.343323,199.3676 C351.639323,199.1026 353.218323,199.6466 354.425323,198.9896 C356.961323,197.6076 354.638323,195.5836 352.868323,195.1986" id="Fill-4"></path>
        </g>
    </g>
</svg>