<svg xmlns="http://www.w3.org/2000/svg" viewBox="0 0 100 100"><defs><style>.cls-1,.cls-2,.cls-3{fill:#fff;}.cls-1{opacity:0.55;}.cls-3{opacity:0.2;}</style></defs><title>RoastingScaleCompact_Genova</title><g id="Genova"><path class="cls-1" d="M63.66,45a7.56,7.56,0,0,1,.64,6c-1,3.88-4.4,7.72-9,10.26-7.53,4.16-16,3.62-18.95-1.22a6.85,6.85,0,0,1-.37-.71,32,32,0,0,1,12-3.86c5.73-.94,10.7-1.78,15.44-10.82C63.47,44.74,63.57,44.86,63.66,45Zm-1.95-2.07A11.5,11.5,0,0,0,54.89,41a21.46,21.46,0,0,0-10.19,2.8c-4.6,2.53-8,6.37-9,10.26a8.93,8.93,0,0,0-.31,2.71C40.94,51.1,45.18,50.05,49.3,49A26.16,26.16,0,0,0,61.71,42.93Z"/><path class="cls-2" d="M51,21.53v-3h2.82v-2H46.18v2H49v3a31,31,0,1,0,2,0ZM54.89,41a11.5,11.5,0,0,1,6.82,1.94A26.16,26.16,0,0,1,49.3,49c-4.12,1-8.36,2.07-13.91,7.73a8.93,8.93,0,0,1,.31-2.71c1-3.89,4.4-7.73,9-10.26A21.46,21.46,0,0,1,54.89,41Zm-7,14.44c5.73-.94,10.7-1.78,15.44-10.82.1.13.2.25.29.39a7.56,7.56,0,0,1,.64,6c-1,3.88-4.4,7.72-9,10.26-7.53,4.16-16,3.62-18.95-1.22a6.85,6.85,0,0,1-.37-.71A32,32,0,0,1,47.93,55.43Zm-7.74-.28A23.09,23.09,0,0,1,49.78,51a28.53,28.53,0,0,0,9.8-3.92c-3.58,5-7.25,5.63-12,6.4A42.9,42.9,0,0,0,40.19,55.15ZM24.44,38.82,26.55,40l1-1.74-2.1-1.21a29.38,29.38,0,0,1,9.29-9.24l1.2,2.07,1.73-1-1.19-2.06A28.61,28.61,0,0,1,49,23.53V39.87A25.13,25.13,0,0,0,43.73,42a21.39,21.39,0,0,0-9.23,9.46H21A28.71,28.71,0,0,1,24.44,38.82Zm50.15,29a29.22,29.22,0,0,1-9.24,9.24l-1.16-2-1.73,1,1.16,2A28.61,28.61,0,0,1,51,81.47V79.14H49v2.33a28.61,28.61,0,0,1-12.62-3.38l1.16-2-1.73-1-1.16,2a29.28,29.28,0,0,1-9.21-9.19l2.1-1.21-1-1.74-2.11,1.22A28.74,28.74,0,0,1,21,53.49H33.78v0A9.48,9.48,0,0,0,34.63,61c2,3.25,5.94,4.94,10.55,4.94a23.36,23.36,0,0,0,11.09-3c5.06-2.8,8.78-7.1,10-11.5a9.45,9.45,0,0,0-.86-7.5C62.88,39.84,57.16,38.25,51,39.4V23.53a28.64,28.64,0,0,1,12.62,3.38l-1.16,2,1.73,1,1.16-2a29.26,29.26,0,0,1,9.23,9.23l-2,1.16,1,1.74,2-1.17A28.78,28.78,0,0,1,79,51.49H76.64v2H79a28.83,28.83,0,0,1-3.39,12.63l-2-1.17-1,1.74Z"/><path class="cls-3" d="M75.59,66.12A28.83,28.83,0,0,0,79,53.49H76.64v-2H79a28.78,28.78,0,0,0-3.38-12.62l-2,1.17-1-1.74,2-1.16a29.26,29.26,0,0,0-9.23-9.23l-1.16,2-1.73-1,1.16-2A28.64,28.64,0,0,0,51,23.53V39.4c6.16-1.15,11.88.44,14.37,4.57a9.45,9.45,0,0,1,.86,7.5c-1.18,4.4-4.9,8.7-10,11.5a23.36,23.36,0,0,1-11.09,3C40.57,66,36.6,64.29,34.63,61a9.48,9.48,0,0,1-.86-7.51v0H21a28.74,28.74,0,0,0,3.4,12.68L26.54,65l1,1.74-2.1,1.21a29.28,29.28,0,0,0,9.21,9.19l1.16-2,1.73,1-1.16,2A28.61,28.61,0,0,0,49,81.47V79.14h2v2.33a28.61,28.61,0,0,0,12.62-3.38l-1.16-2,1.73-1,1.16,2a29.22,29.22,0,0,0,9.24-9.24l-2-1.16,1-1.74Z"/></g></svg>