<?xml version="1.0" encoding="UTF-8"?>
<svg width="80px" height="80px" viewBox="0 0 80 80" version="1.1" xmlns="http://www.w3.org/2000/svg" xmlns:xlink="http://www.w3.org/1999/xlink">
    <!-- Generator: Sketch 57.1 (83088) - https://sketch.com -->
    <title>ol_icon_1</title>
    <desc>Created with Sketch.</desc>
    <g id="Page-1" stroke="none" stroke-width="1" fill="none" fill-rule="evenodd">
        <g id="Became-a-member---Machines" transform="translate(-669.000000, -723.000000)">
            <g id="ol_icon_1" transform="translate(669.000000, 723.000000)">
                <path d="M40,0.75 C18.3228236,0.75 0.75,18.3228236 0.75,40 C0.75,61.6771764 18.3228236,79.25 40,79.25 C61.6771764,79.25 79.25,61.6771764 79.25,40 C79.25,18.3228236 61.6771764,0.75 40,0.75 Z" id="Icon" stroke="#000000" stroke-width="1.5"></path>
                <g id="Page-1" transform="translate(22.000000, 26.000000)" fill="#000000">
                    <path d="M5.32250746,25.1715821 C5.376,24.8589851 5.55653731,23.5718209 5.80226866,21.7781493 C6.3238209,17.9567761 7.13623881,11.872 7.59761194,8.41838806 L8.00549254,5.50638806 C8.01719403,5.45958209 8.02889552,5.41110448 8.04059701,5.37934328 C8.08573134,5.25397015 8.10579104,5.23558209 8.16262687,5.18543284 C8.25958209,5.1001791 8.42173134,5.00656716 8.68752239,4.84943284 C9.04191045,4.6321194 10.1284776,4.01361194 11.1732537,3.42185075 L13.705791,1.98591045 C13.8495522,1.90065672 13.9899701,1.81540299 14.1303881,1.74853731 C14.3159403,1.66161194 14.4680597,1.6198209 14.6084776,1.6198209 L21.7547463,1.61647761 C21.8918209,1.61647761 22.0456119,1.65826866 22.2328358,1.74686567 C22.3799403,1.81540299 22.5253731,1.904 22.6758209,1.99426866 L25.1866269,3.41349254 C26.2380896,4.00692537 27.3229851,4.62543284 27.6907463,4.84608955 C27.9682388,5.01492537 28.1888955,5.14865672 28.2457313,5.22053731 C28.2674627,5.24728358 28.2908657,5.28238806 28.3209552,5.36262687 C28.3343284,5.40107463 28.3426866,5.44620896 28.3477015,5.46626866 L28.4546866,6.10483582 C28.6118209,7.2398806 29.161791,11.3203582 29.7134328,15.4259104 C30.0176716,17.6993433 30.3319403,19.9811343 30.5776716,21.7631045 C30.8217313,23.5567761 31.0022687,24.8422687 31.0574328,25.1632239 C31.1209552,25.5293134 31.2513433,25.9104478 31.4034627,26.2982687 C31.425194,26.3567761 31.4435821,26.4136119 31.4686567,26.473791 L4.91964179,26.473791 C4.94304478,26.4136119 4.96143284,26.3567761 4.98483582,26.2982687 C5.13361194,25.913791 5.25898507,25.536 5.32250746,25.1715821 M35.6243582,26.4821493 L35.0192239,26.4821493 L35.0192239,26.4654328 C35.0058507,26.4654328 34.9941493,26.4587463 34.9807761,26.4587463 L33.2288955,26.4587463 C33.2054925,26.4119403 33.175403,26.3517612 33.1486567,26.2982687 C32.9714627,25.9405373 32.7424478,25.4156418 32.6538507,24.8807164 C32.6204179,24.7085373 32.5134328,23.9897313 32.1824478,21.5441194 C31.7294328,18.2543284 31.0591045,13.2845373 30.5826866,9.76071642 C30.2851343,7.55247761 30.0644776,5.91259701 30.0193433,5.61002985 C29.9775522,5.30746269 29.9257313,5.06173134 29.8505075,4.83271642 C29.7284776,4.48167164 29.521194,4.17743284 29.2537313,3.95008955 C29.0798806,3.79964179 28.8909851,3.68429851 28.6786866,3.55725373 L28.5165373,3.45862687 C28.1320597,3.22459701 27.0454925,2.60776119 25.9789851,2.00764179 L23.4982687,0.603462687 C23.3277612,0.499820896 23.1388657,0.386149254 22.9265672,0.284179104 C22.5170149,0.0936119403 22.1358806,0 21.7547463,0 L14.6084776,0.00334328358 C14.2206567,0.00334328358 13.8361791,0.0986268657 13.4333134,0.290865672 C13.216,0.396179104 13.0204179,0.511522388 12.8482388,0.616835821 L10.3775522,2.01432836 C9.31773134,2.6161194 8.22614925,3.23462687 7.84501493,3.47032836 L7.69456716,3.55892537 C7.40035821,3.73779104 7.12286567,3.90328358 6.86710448,4.2041791 C6.71498507,4.38471642 6.59797015,4.60202985 6.51438806,4.84608955 C6.44083582,5.05838806 6.38567164,5.30244776 6.33886567,5.62507463 L5.05504478,15.2236418 C4.74913433,17.4970746 4.44322388,19.7755224 4.19916418,21.5574925 C3.95844776,23.3294328 3.77791045,24.6232836 3.73110448,24.8991045 C3.64250746,25.4122985 3.42853731,25.9221493 3.26471642,26.2614925 C3.25802985,26.2748657 3.25134328,26.2848955 3.24632836,26.2982687 C3.21456716,26.3601194 3.18447761,26.4202985 3.1560597,26.4721194 L1.40250746,26.473791 C1.38913433,26.473791 1.37910448,26.4821493 1.36573134,26.4821493 L0.760597015,26.4821493 C0.342686567,26.4821493 0,26.8214925 0,27.2410746 C0,27.6606567 0.342686567,28 0.760597015,28 L1.36573134,28 L1.89062687,28 L4.16573134,28 L32.2108657,28 L34.4608955,28 L35.0192239,28 L35.6243582,28 C36.0439403,28 36.3832836,27.6606567 36.3832836,27.2410746 C36.3832836,26.8214925 36.0439403,26.4821493 35.6243582,26.4821493" id="Fill-1"></path>
                </g>
            </g>
        </g>
    </g>
</svg>