<?xml version="1.0" encoding="UTF-8"?>
<svg width="80px" height="80px" viewBox="0 0 80 80" version="1.1" xmlns="http://www.w3.org/2000/svg" xmlns:xlink="http://www.w3.org/1999/xlink">
    <!-- Generator: Sketch 57.1 (83088) - https://sketch.com -->
    <title>Vertuo</title>
    <desc>Created with Sketch.</desc>
    <g id="Page-1" stroke="none" stroke-width="1" fill="none" fill-rule="evenodd">
        <g id="Became-a-member---Machines" transform="translate(-1216.000000, -722.000000)">
            <g id="Vertuo" transform="translate(1136.000000, 722.000000)">
                <rect id="Rectangle" x="0" y="1" width="240" height="80"></rect>
                <g id="Group-11" transform="translate(80.000000, 0.000000)" fill="#000000">
                    <path d="M40,1.5 C18.7370371,1.5 1.5,18.7370371 1.5,40 C1.5,61.2629629 18.7370371,78.5 40,78.5 C61.2629629,78.5 78.5,61.2629629 78.5,40 C78.5,18.7370371 61.2629629,1.5 40,1.5 Z M40,0 C62.09139,0 80,17.90861 80,40 C80,62.09139 62.09139,80 40,80 C17.90861,80 7.10542736e-15,62.09139 7.10542736e-15,40 C7.10542736e-15,17.90861 17.90861,0 40,0 Z" id="Icon" fill-rule="nonzero"></path>
                    <g id="Page-1" transform="translate(17.000000, 24.000000)">
                        <path d="M13.7603137,4.00171878 C16.2641569,2.41138362 19.4390588,1.60461427 23.2020392,1.60461427 C27.002902,1.60461427 30.1922353,2.41138362 32.6852549,4.00171878 C34.844549,5.3760825 36.5618824,7.38943611 37.788549,9.98823296 C39.9911373,14.6414358 40.3573333,20.3512924 40.3916078,25.3936008 L35.1313725,25.3936008 C35.0916863,14.7860118 33.0243922,8.79949759 33.0027451,8.74238117 C32.9161569,8.5157004 32.66,8.39075825 32.430902,8.47643287 L31.8644706,8.67277054 C31.6317647,8.7530905 31.510902,9.01011437 31.5884706,9.2421498 C31.671451,9.48667945 33.5926275,15.2839955 33.6287059,25.3936008 L23.8676863,25.3936008 L23.8676863,5.9686653 C23.8676863,5.55814107 23.528549,5.22436703 23.115451,5.22436703 C22.700549,5.22436703 22.3650196,5.55814107 22.3650196,5.9686653 L22.3650196,25.3936008 L12.604,25.3936008 C12.6418824,15.0715938 14.6243922,9.29926621 14.6442353,9.2421498 C14.7254118,9.00832948 14.6027451,8.75487539 14.3664314,8.67277054 L13.7981961,8.47643287 C13.6863529,8.43895022 13.5618824,8.44430489 13.4536471,8.49606664 C13.3472157,8.54782839 13.2642353,8.64064256 13.224549,8.7530905 C13.1379608,9.00297481 11.1374118,14.8966748 11.1013333,25.3936008 L5.84109804,25.3936008 C5.87537255,20.6939909 6.25419608,14.8074304 8.58847059,9.99537251 C9.84941176,7.39479077 11.5901961,5.37965228 13.7603137,4.00171878 M45.1900392,25.3936008 L42.0115294,25.3936008 C41.9790588,20.1781583 41.5948235,14.2487605 39.2587451,9.30640576 C37.8985882,6.43095128 35.9828235,4.1909169 33.5655686,2.6505586 C30.8019608,0.892443974 27.3167843,0 23.2020392,0 C15.5299608,0 10.12,3.12890857 7.1254902,9.29926621 C4.65411765,14.3933364 4.25545098,20.5190719 4.21937255,25.3936008 L0.811764706,25.3936008 C0.364392157,25.3936008 0,25.7541482 0,26.1968004 C0,26.6394526 0.364392157,27 0.811764706,27 L45.1900392,27 C45.6374118,27 46,26.6394526 46,26.1968004 C46,25.7541482 45.6374118,25.3936008 45.1900392,25.3936008" id="Fill-1"></path>
                    </g>
                </g>
            </g>
        </g>
    </g>
</svg>