<?xml version="1.0" encoding="UTF-8"?>
<svg width="1150px" height="368px" viewBox="0 0 1150 368" version="1.1" xmlns="http://www.w3.org/2000/svg" xmlns:xlink="http://www.w3.org/1999/xlink">
    <!-- Generator: Sketch 60.1 (88133) - https://sketch.com -->
    <title>epdp/exp/m-d/scripting/venezia_L</title>
    <desc>Created with Sketch.</desc>
    <g id="epdp/exp/m-d/scripting/venezia" stroke="none" stroke-width="1" fill="none" fill-rule="evenodd">
        <path d="M640.881545,215.46748 C651.355118,201.512741 661.817713,187.481086 673.202508,174.262542 C684.806876,160.791275 696.652772,147.539767 707.971697,133.815775 C713.482948,127.135081 718.917349,120.377472 724.033371,113.389114 C726.657253,109.796044 729.127436,106.093093 731.597618,102.401131 C733.99095,98.8190483 736.230582,94.5776867 739.172844,91.4131475 C741.280732,89.1386349 744.058315,89.9847096 746.539476,91.3362316 C750.513725,93.4898763 747.428742,96.0830404 745.353789,98.6102766 C739.798623,105.356898 734.353243,112.191424 728.907864,119.02595 C706.895795,146.660728 683.193023,172.889044 661.795756,201.007294 C655.296431,209.555945 648.906893,218.1925 642.528334,226.840043 C641.342646,228.455276 640.091087,230.01557 638.850507,231.586852 C636.577939,234.465703 634.140692,238.30051 630.81418,240.014635 C623.82082,243.618693 619.407427,234.278908 618.946327,228.729976 C618.287611,220.829616 622.228925,212.215037 624.336813,204.73222 C629.771214,185.404357 636.10586,166.274278 640.837631,146.748632 C643.132156,137.27699 644.866773,127.728433 646.403775,118.102959 C646.919769,114.872492 649.532673,107.532519 647.567506,104.554776 C646.820962,103.434001 645.964632,103.653761 644.866773,103.159302 C643.472492,102.532987 642.231912,101.829756 642.045276,100.401318 C642.01234,99.4563513 642.978456,98.1377933 644.208058,97.5004903 C645.986589,96.5884876 649.389951,96.9071392 651.34414,97.028007 C656.251569,97.3576465 660.741811,99.3684474 664.145173,102.939542 C668.207251,107.213868 668.503673,112.246364 667.768107,117.839248 C666.867863,124.673773 665.561411,131.475335 664.112238,138.210969 C661.279762,151.352597 657.470192,164.230513 653.386157,177.020526 C651.366097,183.338617 649.137444,189.590779 647.051512,195.886894 C644.899709,202.413756 643.351728,209.09445 640.881545,215.46748 Z M750.94189,203.160939 C758.94528,194.788095 766.783992,186.173516 775.446098,178.459952 C779.771662,174.614158 784.382669,171.076027 789.487712,168.318043 C791.727344,167.109365 793.571747,166.735774 796.074865,167.296161 C796.854345,167.471969 798.995169,167.724692 799.412356,168.482863 C799.994221,169.526721 799.028105,170.889231 798.567004,171.955066 C793.637618,183.338617 788.938783,194.722167 784.832791,206.435358 C783.833739,209.292233 782.878602,212.182073 782.055208,215.093889 C781.638022,216.55529 781.297686,218.038668 780.902456,219.50007 C780.441356,221.214195 780.63897,221.708655 779.014139,221.598775 C773.974967,221.258147 772.108607,214.137934 772.844173,210.204236 C775.050869,198.403142 783.164045,188.843596 786.655236,177.624865 C786.688172,177.514985 786.545451,177.416094 786.457622,177.493009 C776.719614,185.547201 768.288059,194.755131 759.845525,204.127881 C751.501798,213.390751 743.16905,222.950297 736.614833,233.597653 C734.111714,237.674194 731.883061,241.937532 730.148444,246.409641 C729.917894,246.992004 729.423857,247.475476 728.798078,247.552392 C725.010465,248.035863 720.871537,242.596811 719.795636,239.761911 C717.402304,233.476785 720.46533,227.839949 723.286827,221.884462 C723.912606,220.554916 724.439578,219.17043 724.999486,217.80792 C725.833859,215.775144 727.173247,212.028241 728.896885,209.468041 C729.204286,209.017534 728.688292,208.457147 728.216213,208.720858 C725.241015,210.336092 721.39851,212.478749 719.103985,213.753355 C715.349308,215.841071 711.451909,217.687053 707.587446,219.544022 C701.757816,222.33497 693.743447,227.62019 686.947701,225.840136 C681.326664,224.367747 679.482261,218.489175 679.635961,213.247907 C679.855533,205.534343 683.434552,198.502034 687.705223,192.260859 C693.359196,183.997896 700.056135,176.372235 707.741146,169.977229 C708.751176,169.131154 709.794142,168.329031 710.848087,167.537896 C713.878177,165.252396 717.556004,162.010941 721.651017,162.527376 C726.481596,163.142703 732.794284,166.669846 733.7604,171.790246 C735.209573,179.492822 728.347956,183.42652 722.990405,187.151447 C716.02998,191.986159 705.402707,197.425211 696.916258,200.765558 C696.081886,201.095198 694.753477,201.424837 693.348217,203.204891 C687.57348,210.555851 686.124306,218.148548 687.836966,219.082527 C691.372072,221.0274 709.9698,211.028335 720.135972,205.347547 C725.109272,202.567587 730.236273,200.029363 734.199543,195.85393 C737.690734,192.172955 740.281681,187.777762 742.751863,183.371581 C745.628253,178.229204 748.328986,172.976948 751.370055,167.933464 C753.81828,163.86791 756.903263,157.670687 761.053169,155.099499 C764.094238,153.220554 769.342003,156.297189 771.164449,158.813438 C773.56876,162.142797 770.264205,167.768644 768.760138,170.834291 C766.02647,176.394211 762.392557,181.437695 759.307574,186.788843 C757.737636,189.502875 756.529991,192.337775 755.124732,195.139711 C754.542867,196.293449 750.184367,202.490672 750.94189,203.160939 Z M700.220813,192.711366 C701.384544,192.953102 702.855675,191.678496 703.777876,191.129097 C710.540686,187.096507 716.974139,182.679338 723.001383,177.602889 C723.155084,177.471033 723.308784,177.339178 723.462484,177.21831 C724.801872,176.086548 729.577558,172.757189 727.645326,170.559592 C720.487287,162.45046 698.134882,192.293823 700.220813,192.711366 Z M886.483537,198.908589 C892.653503,193.744237 899.108913,188.942488 905.707044,184.338523 C911.163403,180.536681 916.531932,176.591995 921.724804,172.438537 C924.809787,169.977229 927.806942,167.021461 931.572598,165.658951 C935.261403,164.329405 938.763573,164.219525 935.590761,159.747416 C933.570701,156.901529 930.771161,154.725908 927.653242,153.198578 C919.66083,149.275868 909.758143,148.726469 901.019187,148.264974 C891.006715,147.73755 880.994243,148.100154 870.981771,148.374853 C866.623271,148.495721 862.253793,149.26488 857.917251,149.253892 C855.35924,149.242904 853.602666,148.089166 851.253248,147.638658 C849.815053,147.363959 848.991659,147.561743 848.003586,148.726469 C845.917654,151.187777 846.719091,155.440127 848.574473,157.725627 C850.781169,160.428671 854.360188,160.648431 857.587893,161.109926 C876.833358,163.856922 896.430138,158.890353 915.620709,161.956001 C916.202574,162.043905 916.411168,162.791088 915.983003,163.186655 C913.611628,165.351288 910.504687,167.065413 907.957655,168.900406 C904.784843,171.185907 901.633988,173.482395 898.559984,175.899752 C892.093595,180.9762 885.726014,186.184504 879.336476,191.359844 C865.459541,202.589563 851.439884,213.687427 837.881328,225.290737 C834.060779,228.565156 830.492738,232.158227 827.440691,236.168841 C826.189132,237.817038 825.179102,239.838827 826.397725,241.7837 C827.396776,243.354982 829.691301,244.058213 831.447875,243.783513 C833.983929,243.387946 835.76246,240.75083 837.771542,239.322392 C840.04411,237.69617 842.525271,236.366624 845.09426,235.256838 C850.69334,232.828494 856.698628,231.224248 862.572172,229.576051 C875.603756,225.906064 888.591426,224.115023 902.073132,223.42278 C903.961449,223.323888 906.003466,222.994249 907.825912,223.69748 C910.054565,224.56553 910.241201,226.20274 911.371996,228.026745 C914.830251,233.619629 920.59401,223.785383 922.152969,221.071352 C928.7511,209.533969 935.195532,197.601019 939.586967,185.030766 C940.531125,182.316734 941.574091,179.94333 939.290545,177.657829 C937.512014,175.877776 935.469996,175.229485 933.406022,176.899658 C928.377829,180.987188 925.150124,188.206293 921.889483,193.667321 C918.486121,199.381072 915.082758,205.105812 912.206368,211.105251 C911.371996,212.85234 910.658388,214.654369 909.834993,216.401459 C909.121385,217.9178 909.286064,218.038668 907.814933,218.049656 C906.541417,218.060644 904.828757,217.027774 903.533284,216.676158 C901.897474,216.236639 900.239708,215.896011 898.570962,215.643288 C885.286871,213.643475 871.333085,217.500257 858.586945,220.939496 C867.303944,212.929256 877.492073,206.435358 886.483537,198.908589 Z M974.026797,197.842755 C968.526525,204.094917 962.191879,209.522981 956.515949,215.621312 C952.278215,220.170337 945.427576,223.763407 939.883389,218.653995 C934.833238,213.984102 939.960239,204.666292 942.836629,200.128255 C946.470541,194.392528 951.268184,189.2062 956.065827,184.426427 C965.869706,174.647122 977.638753,163.747042 990.824037,158.923317 C997.103789,156.626829 1004.85467,153.484266 1011.43085,156.440033 C1013.70341,157.461916 1016.65665,159.483705 1015.75641,162.28564 C1014.68051,165.647963 1011.39791,168.82349 1009.68525,171.944078 C1005.5573,179.481834 1002.28568,187.547014 998.65177,195.337494 C995.46798,202.150044 991.954831,209.083462 989.473671,216.236639 C989.155291,217.148641 990.220215,217.9178 990.988716,217.335437 C1006.71005,205.259643 1022.61803,193.876093 1040.63389,185.316454 C1051.94184,179.94333 1063.87556,175.064665 1076.18256,172.878056 C1078.83938,172.405573 1081.52913,172.229765 1084.22986,172.174825 C1088.1602,172.108898 1093.79221,171.82321 1096.93209,174.855893 C1097.07481,174.998737 1096.976,175.196521 1096.78937,175.141581 C1085.45947,172.185813 1072.97681,175.394305 1062.38247,179.635666 C1050.9867,184.195679 1040.09594,190.62365 1029.61139,196.952728 C1018.79748,203.47959 1008.80696,210.984383 999.145807,219.11549 C994.61165,222.928321 990.187279,226.774115 985.290829,230.12545 C981.020158,233.059241 976.255451,231.674756 972.358052,228.565156 C967.406709,224.609482 967.187137,219.785757 969.130347,214.181886 C970.052548,211.511806 970.875943,208.830738 971.787165,206.160658 C972.336095,204.556412 972.950896,202.985131 973.554718,201.402861 C973.77429,200.842474 974.015819,200.348015 974.257348,199.798616 C974.762363,198.633889 975.519885,196.952728 974.026797,197.842755 Z M994.326206,164.428297 C982.17291,169.010286 949.709225,199.77664 946.185098,213.050124 C945.998462,213.775331 946.239991,213.83027 946.393691,213.709403 C963.992368,198.644877 981.920402,185.316454 994.754371,164.988684 C994.941007,164.681021 994.655564,164.296441 994.326206,164.428297 Z M792.792267,210.358068 C793.330218,199.062421 798.984191,189.008416 805.582322,180.130125 C811.807181,171.746294 819.547086,165.417216 829.274115,161.505494 C832.929985,160.033104 838.430257,157.253144 841.657962,160.769299 C844.753924,164.14261 847.366828,168.691635 844.731967,173.031888 C839.03408,182.415626 828.209192,188.920512 819.711765,195.46935 C815.034886,199.073409 809.995714,201.798429 805.154157,205.06186 C802.17896,207.072661 801.388502,212.7974 800.740765,216.148735 C799.862478,220.675784 804.528378,221.302099 808.030547,221.335063 C813.618649,221.390003 818.701735,218.873755 823.686014,216.643194 C834.642644,211.731566 844.270866,204.864076 854.129638,198.095478 C855.161625,197.381259 857.576915,194.634263 858.872388,194.952915 C861.660949,195.656146 860.222754,199.842568 859.212724,201.19409 C855.952084,205.567307 850.945848,209.347173 846.642241,212.643568 C837.16772,219.917613 825.640202,226.191752 813.99192,229.114555 C808.623391,230.466077 802.464403,230.499041 798.621897,225.971992 C794.94407,221.675691 792.902053,215.994903 792.792267,210.358068 Z M810.698344,194.029924 C817.318433,189.491887 823.455463,184.316547 829.559558,179.097255 C832.721392,176.394211 835.828332,173.614251 838.759615,170.669472 C840.000195,169.416842 844.567288,165.768831 840.779675,164.801889 C838.067964,164.109646 833.885122,167.428017 831.865062,168.82349 C828.955736,170.845279 826.287939,173.196708 823.87265,175.789872 C821.369532,178.503904 819.338493,181.558563 817.043968,184.437415 C814.661614,187.45911 812.169475,190.414878 810.698344,194.029924 Z M948.688216,155.044559 C948.04048,156.154346 948.666259,157.604759 949.928797,157.824519 C953.771302,158.516762 955.945063,156.758685 959.787569,154.407256 C962.136987,152.96783 962.839616,152.781035 961.269678,150.154907 C960.490198,148.858325 959.480168,147.814466 958.184695,147.188151 C957.163686,146.693692 955.96702,146.836536 955.044819,147.484827 C952.574636,149.176976 950.302069,152.308551 948.688216,155.044559 Z M750.94189,203.160939 C758.94528,194.788095 766.783992,186.173516 775.446098,178.459952 C779.771662,174.614158 784.382669,171.076027 789.487712,168.318043 C791.727344,167.109365 793.571747,166.735774 796.074865,167.296161 C796.854345,167.471969 798.995169,167.724692 799.412356,168.482863 C799.994221,169.526721 799.028105,170.889231 798.567004,171.955066 C793.637618,183.338617 788.938783,194.722167 784.832791,206.435358 C783.833739,209.292233 782.878602,212.182073 782.055208,215.093889 C781.638022,216.55529 781.297686,218.038668 780.902456,219.50007 C780.441356,221.214195 780.63897,221.708655 779.014139,221.598775 C773.974967,221.258147 772.108607,214.137934 772.844173,210.204236 C775.050869,198.403142 783.164045,188.843596 786.655236,177.624865 C786.688172,177.514985 786.545451,177.416094 786.457622,177.493009 C776.719614,185.547201 768.288059,194.755131 759.845525,204.127881 C751.501798,213.390751 743.16905,222.950297 736.614833,233.597653 C734.111714,237.674194 731.883061,241.937532 730.148444,246.409641 C729.917894,246.992004 729.423857,247.475476 728.798078,247.552392 C725.010465,248.035863 720.871537,242.596811 719.795636,239.761911 C717.402304,233.476785 720.46533,227.839949 723.286827,221.884462 C723.912606,220.554916 724.439578,219.17043 724.999486,217.80792 C725.833859,215.775144 727.173247,212.028241 728.896885,209.468041 C729.204286,209.017534 728.688292,208.457147 728.216213,208.720858 C725.241015,210.336092 721.39851,212.478749 719.103985,213.753355 C715.349308,215.841071 711.451909,217.687053 707.587446,219.544022 C701.757816,222.33497 693.743447,227.62019 686.947701,225.840136 C681.326664,224.367747 679.482261,218.489175 679.635961,213.247907 C679.855533,205.534343 683.434552,198.502034 687.705223,192.260859 C693.359196,183.997896 700.056135,176.372235 707.741146,169.977229 C708.751176,169.131154 709.794142,168.329031 710.848087,167.537896 C713.878177,165.252396 717.556004,162.010941 721.651017,162.527376 C726.481596,163.142703 732.794284,166.669846 733.7604,171.790246 C735.209573,179.492822 728.347956,183.42652 722.990405,187.151447 C716.02998,191.986159 705.402707,197.425211 696.916258,200.765558 C696.081886,201.095198 694.753477,201.424837 693.348217,203.204891 C687.57348,210.555851 686.124306,218.148548 687.836966,219.082527 C691.372072,221.0274 709.9698,211.028335 720.135972,205.347547 C725.109272,202.567587 730.236273,200.029363 734.199543,195.85393 C737.690734,192.172955 740.281681,187.777762 742.751863,183.371581 C745.628253,178.229204 748.328986,172.976948 751.370055,167.933464 C753.81828,163.86791 756.903263,157.670687 761.053169,155.099499 C764.094238,153.220554 769.342003,156.297189 771.164449,158.813438 C773.56876,162.142797 770.264205,167.768644 768.760138,170.834291 C766.02647,176.394211 762.392557,181.437695 759.307574,186.788843 C757.737636,189.502875 756.529991,192.337775 755.124732,195.139711 C754.542867,196.293449 750.184367,202.490672 750.94189,203.160939 Z M700.220813,192.711366 C701.384544,192.953102 702.855675,191.678496 703.777876,191.129097 C710.540686,187.096507 716.974139,182.679338 723.001383,177.602889 C723.155084,177.471033 723.308784,177.339178 723.462484,177.21831 C724.801872,176.086548 729.577558,172.757189 727.645326,170.559592 C720.487287,162.45046 698.134882,192.293823 700.220813,192.711366 Z M886.483537,198.908589 C892.653503,193.744237 899.108913,188.942488 905.707044,184.338523 C911.163403,180.536681 916.531932,176.591995 921.724804,172.438537 C924.809787,169.977229 927.806942,167.021461 931.572598,165.658951 C935.261403,164.329405 938.763573,164.219525 935.590761,159.747416 C933.570701,156.901529 930.771161,154.725908 927.653242,153.198578 C919.66083,149.275868 909.758143,148.726469 901.019187,148.264974 C891.006715,147.73755 880.994243,148.100154 870.981771,148.374853 C866.623271,148.495721 862.253793,149.26488 857.917251,149.253892 C855.35924,149.242904 853.602666,148.089166 851.253248,147.638658 C849.815053,147.363959 848.991659,147.561743 848.003586,148.726469 C845.917654,151.187777 846.719091,155.440127 848.574473,157.725627 C850.781169,160.428671 854.360188,160.648431 857.587893,161.109926 C876.833358,163.856922 896.430138,158.890353 915.620709,161.956001 C916.202574,162.043905 916.411168,162.791088 915.983003,163.186655 C913.611628,165.351288 910.504687,167.065413 907.957655,168.900406 C904.784843,171.185907 901.633988,173.482395 898.559984,175.899752 C892.093595,180.9762 885.726014,186.184504 879.336476,191.359844 C865.459541,202.589563 851.439884,213.687427 837.881328,225.290737 C834.060779,228.565156 830.492738,232.158227 827.440691,236.168841 C826.189132,237.817038 825.179102,239.838827 826.397725,241.7837 C827.396776,243.354982 829.691301,244.058213 831.447875,243.783513 C833.983929,243.387946 835.76246,240.75083 837.771542,239.322392 C840.04411,237.69617 842.525271,236.366624 845.09426,235.256838 C850.69334,232.828494 856.698628,231.224248 862.572172,229.576051 C875.603756,225.906064 888.591426,224.115023 902.073132,223.42278 C903.961449,223.323888 906.003466,222.994249 907.825912,223.69748 C910.054565,224.56553 910.241201,226.20274 911.371996,228.026745 C914.830251,233.619629 920.59401,223.785383 922.152969,221.071352 C928.7511,209.533969 935.195532,197.601019 939.586967,185.030766 C940.531125,182.316734 941.574091,179.94333 939.290545,177.657829 C937.512014,175.877776 935.469996,175.229485 933.406022,176.899658 C928.377829,180.987188 925.150124,188.206293 921.889483,193.667321 C918.486121,199.381072 915.082758,205.105812 912.206368,211.105251 C911.371996,212.85234 910.658388,214.654369 909.834993,216.401459 C909.121385,217.9178 909.286064,218.038668 907.814933,218.049656 C906.541417,218.060644 904.828757,217.027774 903.533284,216.676158 C901.897474,216.236639 900.239708,215.896011 898.570962,215.643288 C885.286871,213.643475 871.333085,217.500257 858.586945,220.939496 C867.303944,212.929256 877.492073,206.435358 886.483537,198.908589 Z M974.026797,197.842755 C968.526525,204.094917 962.191879,209.522981 956.515949,215.621312 C952.278215,220.170337 945.427576,223.763407 939.883389,218.653995 C934.833238,213.984102 939.960239,204.666292 942.836629,200.128255 C946.470541,194.392528 951.268184,189.2062 956.065827,184.426427 C965.869706,174.647122 977.638753,163.747042 990.824037,158.923317 C997.103789,156.626829 1004.85467,153.484266 1011.43085,156.440033 C1013.70341,157.461916 1016.65665,159.483705 1015.75641,162.28564 C1014.68051,165.647963 1011.39791,168.82349 1009.68525,171.944078 C1005.5573,179.481834 1002.28568,187.547014 998.65177,195.337494 C995.46798,202.150044 991.954831,209.083462 989.473671,216.236639 C989.155291,217.148641 990.220215,217.9178 990.988716,217.335437 C1006.71005,205.259643 1022.61803,193.876093 1040.63389,185.316454 C1051.94184,179.94333 1063.87556,175.064665 1076.18256,172.878056 C1078.83938,172.405573 1081.52913,172.229765 1084.22986,172.174825 C1088.1602,172.108898 1093.79221,171.82321 1096.93209,174.855893 C1097.07481,174.998737 1096.976,175.196521 1096.78937,175.141581 C1085.45947,172.185813 1072.97681,175.394305 1062.38247,179.635666 C1050.9867,184.195679 1040.09594,190.62365 1029.61139,196.952728 C1018.79748,203.47959 1008.80696,210.984383 999.145807,219.11549 C994.61165,222.928321 990.187279,226.774115 985.290829,230.12545 C981.020158,233.059241 976.255451,231.674756 972.358052,228.565156 C967.406709,224.609482 967.187137,219.785757 969.130347,214.181886 C970.052548,211.511806 970.875943,208.830738 971.787165,206.160658 C972.336095,204.556412 972.950896,202.985131 973.554718,201.402861 C973.77429,200.842474 974.015819,200.348015 974.257348,199.798616 C974.762363,198.633889 975.519885,196.952728 974.026797,197.842755 Z M994.326206,164.428297 C982.17291,169.010286 949.709225,199.77664 946.185098,213.050124 C945.998462,213.775331 946.239991,213.83027 946.393691,213.709403 C963.992368,198.644877 981.920402,185.316454 994.754371,164.988684 C994.941007,164.681021 994.655564,164.296441 994.326206,164.428297 Z M792.792267,210.358068 C793.330218,199.062421 798.984191,189.008416 805.582322,180.130125 C811.807181,171.746294 819.547086,165.417216 829.274115,161.505494 C832.929985,160.033104 838.430257,157.253144 841.657962,160.769299 C844.753924,164.14261 847.366828,168.691635 844.731967,173.031888 C839.03408,182.415626 828.209192,188.920512 819.711765,195.46935 C815.034886,199.073409 809.995714,201.798429 805.154157,205.06186 C802.17896,207.072661 801.388502,212.7974 800.740765,216.148735 C799.862478,220.675784 804.528378,221.302099 808.030547,221.335063 C813.618649,221.390003 818.701735,218.873755 823.686014,216.643194 C834.642644,211.731566 844.270866,204.864076 854.129638,198.095478 C855.161625,197.381259 857.576915,194.634263 858.872388,194.952915 C861.660949,195.656146 860.222754,199.842568 859.212724,201.19409 C855.952084,205.567307 850.945848,209.347173 846.642241,212.643568 C837.16772,219.917613 825.640202,226.191752 813.99192,229.114555 C808.623391,230.466077 802.464403,230.499041 798.621897,225.971992 C794.94407,221.675691 792.902053,215.994903 792.792267,210.358068 Z M810.698344,194.029924 C817.318433,189.491887 823.455463,184.316547 829.559558,179.097255 C832.721392,176.394211 835.828332,173.614251 838.759615,170.669472 C840.000195,169.416842 844.567288,165.768831 840.779675,164.801889 C838.067964,164.109646 833.885122,167.428017 831.865062,168.82349 C828.955736,170.845279 826.287939,173.196708 823.87265,175.789872 C821.369532,178.503904 819.338493,181.558563 817.043968,184.437415 C814.661614,187.45911 812.169475,190.414878 810.698344,194.029924 Z M948.688216,155.044559 C948.04048,156.154346 948.666259,157.604759 949.928797,157.824519 C953.771302,158.516762 955.945063,156.758685 959.787569,154.407256 C962.136987,152.96783 962.839616,152.781035 961.269678,150.154907 C960.490198,148.858325 959.480168,147.814466 958.184695,147.188151 C957.163686,146.693692 955.96702,146.836536 955.044819,147.484827 C952.574636,149.176976 950.302069,152.308551 948.688216,155.044559 Z M524.365791,218.741899 C526.890867,219.928601 529.295177,219.203394 531.589702,218.390284 C535.541994,216.983822 539.362543,215.225744 543.19407,213.500631 C553.678621,208.775798 563.570329,202.941179 573.626716,197.436199 C580.543226,193.645345 587.492672,189.909431 594.420161,186.129564 C596.034014,185.250526 597.581995,184.272595 599.17389,183.349605 C599.525205,183.140833 599.898477,182.976013 600.282727,182.789217 C600.359577,183.107869 600.480342,183.327629 600.425449,183.404544 C598.218753,186.140552 595.693677,188.502969 592.696523,190.392902 C590.039705,192.074063 587.580501,194.062888 584.956618,195.820966 C582.991451,197.139524 580.916498,198.271286 578.907416,199.523916 C577.568029,200.359003 576.294512,201.292981 574.966103,202.128068 C572.759407,203.501566 570.508797,204.820124 568.258186,206.127694 C566.238126,207.29242 564.327852,208.720858 562.274856,209.896572 C559.102044,211.731566 555.94021,213.588535 552.789356,215.456492 C550.835167,216.61023 548.672385,217.489269 546.882875,218.785851 C543.786913,221.016412 540.339637,222.444849 536.925296,223.917239 C534.542942,224.95011 531.91906,225.708281 529.35007,225.961004 C524.662213,226.433487 520.962429,224.257867 518.426375,220.401085 C517.043073,218.291392 516.011086,215.917987 515.04497,213.577547 C514.056897,211.171178 514.133747,208.59999 514.474084,206.03979 C515.396285,199.029457 517.899403,192.601487 521.851695,186.788843 C524.552427,182.800205 527.461753,178.943423 530.404015,175.119605 C534.433157,169.867349 539.285692,165.406228 544.467586,161.329686 C547.15734,159.219993 549.869051,157.121288 552.745441,155.286295 C555.391281,153.594145 558.146907,152.055828 561.264826,151.264693 C563.186078,150.781222 565.04146,150.880114 566.918798,151.033945 C567.841,151.956936 568.77418,152.868939 569.674424,153.813905 C570.464882,154.638004 571.299255,155.429139 571.95797,156.363117 C574.691639,160.241875 574.395217,164.252489 572.221456,168.241127 C570.56369,171.273811 568.22525,173.812035 565.678218,176.086548 C563.262929,178.240192 560.671982,180.207041 558.070056,182.129938 C552.20749,186.459204 546.037524,190.29401 539.669943,193.821153 C536.683767,195.480338 533.719548,197.172488 530.667501,198.710805 C529.547685,199.271192 528.823098,200.018375 528.351019,201.08421 C527.747196,202.44672 527.143374,203.80923 526.671295,205.226679 C525.946708,207.391312 525.298971,209.577921 524.673192,211.775518 C524.003498,214.05003 523.838819,216.379483 524.365791,218.741899 Z M567.632407,155.560995 C566.402805,157.22018 564.799931,157.824519 563.120207,158.329966 C562.54932,158.505774 562.044305,158.890353 561.506354,159.187029 C558.004185,161.131902 555.270517,163.955814 552.811313,167.032449 C551.351161,168.867442 549.550672,170.427736 548.343027,172.471501 C548.079541,172.91102 547.618441,173.229672 547.256147,173.614251 C546.421775,174.504278 545.554466,175.383317 544.753029,176.306307 C541.228902,180.327909 538.132941,184.657175 535.234593,189.140272 C535.080893,189.382007 535.026,189.689671 534.729578,190.491794 C536.057988,189.810539 536.914317,189.425959 537.715754,188.942488 C540.350615,187.360218 542.985477,185.788937 545.576423,184.140739 C551.889111,180.130125 557.905378,175.734932 563.262929,170.493664 C566.040511,167.779632 568.324058,164.681021 569.696381,160.97807 C570.135525,159.78038 570.025739,158.714546 569.410938,157.714639 C568.949837,156.989432 568.313079,156.385093 567.632407,155.560995 Z M105.203303,106.884228 C104.851988,108.048954 104.709266,109.312572 104.21523,110.400383 C102.788014,113.531958 101.305904,116.630569 99.7140089,119.663253 C96.6619614,125.464908 93.5879568,131.255575 90.3822091,136.958339 C84.3330071,147.704586 65.9328937,191.700472 63.0894394,198.633889 C60.5863214,204.721232 58.1490748,210.863515 56.9633873,217.423341 C56.4583723,220.236265 55.7886784,222.983261 55.0640916,225.741244 C54.548098,227.697106 54.3065691,229.74087 54.0650401,231.773647 C53.8674255,233.421845 54.1089545,235.015102 54.9433272,236.49848 C55.8655285,238.146678 60.0154348,241.047505 61.8049446,241.234301 C63.0894394,241.366157 63.5285829,241.014541 64.0775123,239.509188 C64.2421912,239.05868 64.3739342,238.421377 64.7032919,238.223594 C65.8889794,237.509375 66.0426796,236.311685 66.2842085,235.103006 C66.4379088,234.311872 66.6135662,233.509749 66.8441165,232.74059 C67.3161958,231.191284 67.8541466,229.674943 68.3152473,228.125637 C68.7543908,226.675223 69.0068983,225.147893 69.5448492,223.752419 C71.9381813,217.632113 74.3315135,211.500818 76.8785459,205.446439 C79.7329788,198.644877 92.3363978,167.142329 96.1020534,160.00014 C99.0662722,154.38528 104.36893,143.100621 107.508806,137.595642 C110.011924,133.200448 112.262535,128.717351 114.161831,124.014494 C114.809567,122.421237 115.852533,120.882919 116.039169,119.234721 C116.236784,117.487632 115.621983,115.630663 115.347518,113.828634 C115.259689,113.224295 115.259689,112.565015 115.007182,112.04858 C114.513145,111.081638 114.052045,109.927899 113.250608,109.334548 C110.736511,107.466591 108.914066,106.598541 105.971804,105.181091 C105.675382,105.829382 105.367982,106.334829 105.203303,106.884228 Z M402.668144,211.533782 C400.702977,208.336279 389.900046,207.611072 389.845153,207.600084 C387.53965,207.380324 385.223168,207.017721 382.917664,207.006733 C378.273721,206.984757 364.956694,205.017908 350.91508,209.621873 C348.862084,210.29214 348.554684,210.325104 346.490709,210.951419 C346.666367,210.314116 347.928904,209.468041 348.335112,209.14939 C350.21245,207.698976 352.111746,206.270538 354.022021,204.875064 C376.451276,188.623837 394.873346,179.635666 397.617993,177.965493 C401.098206,175.866788 401.99845,175.020713 405.599427,173.119792 C406.027592,172.889044 406.51065,172.581381 406.960772,172.592369 C408.519731,172.625333 409.760312,171.867162 411.033828,171.163931 C411.187528,170.603544 411.33025,170.065133 411.461993,169.570673 C411.055785,168.834478 410.451963,168.186187 410.375113,167.482957 C410.243369,166.241314 409.595633,165.241408 409.200404,164.131622 C408.68441,162.703184 407.619487,161.857109 406.181292,161.483518 C405.02854,161.175854 403.86481,160.846215 402.690101,160.681395 C398.49628,160.088044 394.269524,160.00014 390.053746,160.197924 C380.710968,160.615467 371.412104,161.626361 362.135197,162.857016 C355.723702,163.714078 349.279271,164.307429 342.845818,164.966708 C341.901659,165.0656 340.880651,165.241408 339.925514,164.681021 C339.870621,164.406321 339.826706,164.131622 339.760835,163.856922 C339.673006,163.516295 339.618113,163.153691 339.475391,162.846028 C339.124077,162.109833 338.377533,161.977977 337.762732,162.516388 C336.785637,163.351475 336.093986,164.395333 335.577993,165.582035 C334.886342,167.153317 334.644813,168.82349 334.381327,170.482676 C333.997076,172.889044 335.610928,175.053677 338.048175,175.52616 C338.937441,175.701968 339.815728,175.96568 340.694015,176.196427 C341.166094,176.317295 341.638173,176.548043 342.110253,176.548043 C345.261107,176.504091 348.411962,176.427175 351.562817,176.328283 C352.682633,176.295319 353.79147,176.163463 354.911286,176.064572 C355.613916,176.009632 356.327524,176.009632 357.008196,175.8558 C358.578135,175.482208 360.137094,175.152569 361.739968,174.976761 C364.462658,174.680086 367.16339,174.207602 369.897059,173.921915 C375.342438,173.361528 380.798797,172.85608 386.255155,172.361621 C387.265185,172.273717 388.286194,172.119886 389.570688,172.328657 C389.175459,172.724225 389.01078,172.943984 388.813166,173.086828 C384.553474,176.207415 368.56865,183.888016 360.521345,189.689671 C352.814376,195.249591 342.725053,202.0072 335.819522,208.567026 C332.855303,211.37995 329.913041,214.203862 327.497752,217.533221 C326.948823,218.291392 326.323043,218.917707 325.444756,219.291298 C325.005613,219.478094 324.599405,219.763782 324.226133,219.983541 C323.973625,222.214102 324.204176,224.279843 325.148334,226.25768 C325.41182,226.334596 325.708242,226.36756 325.938792,226.510403 C327.311116,227.356478 328.584632,227.092766 329.913041,226.31262 C330.813286,225.785196 331.812337,225.411605 332.80041,225.05999 C334.315455,224.51059 335.874415,224.082059 337.378481,223.510684 C342.779946,221.477907 348.26924,219.741806 353.824406,218.214476 C368.788221,214.093982 379.613109,216.621218 385.607418,216.50035 C387.221271,216.467386 388.846102,216.269603 390.437997,216.434423 C391.568791,216.55529 400.571233,217.434329 401.625178,217.203581 C405.02854,215.830083 404.633311,214.731285 402.668144,211.533782 Z M515.736621,173.812035 C515.637814,172.427549 515.165735,171.350727 513.936133,170.922195 C512.234452,170.328844 510.598642,170.229952 508.995768,171.482582 C502.430573,176.624959 495.821463,181.712395 489.794218,187.503062 C489.377032,187.89863 489.014738,188.382101 488.158408,188.294197 C488.53168,187.393182 488.784188,186.656988 489.124524,185.964745 C490.628591,182.987001 492.2644,180.075185 493.680638,177.064478 C496.359413,171.361715 497.742716,165.329312 497.720758,159.000233 C497.720758,157.044372 495.84342,154.890728 493.922167,154.5501 C492.81333,154.352316 491.693514,154.154533 490.573698,154.022677 C490.09064,153.967737 489.651496,154.044653 489.168438,154.451208 C487.960794,155.484079 486.676299,156.429045 485.27104,157.209192 C482.131163,158.967269 479.013244,160.758311 475.873368,162.516388 C471.745419,164.834853 467.485727,166.944545 463.796922,169.988217 C462.72102,170.878243 461.568268,171.702342 460.503345,172.603357 C457.594019,175.042689 454.915244,177.668817 453.839342,181.503623 C453.718578,181.921167 453.531942,182.327722 453.301391,182.690326 C451.654603,185.28349 450.095644,187.931594 448.295155,190.414878 C446.099438,193.458549 443.695127,196.359377 441.378645,199.315144 C440.95048,199.864544 440.478401,200.402955 440.116107,200.996306 C437.06406,206.006826 432.464032,209.358161 427.710303,212.533688 C426.886909,213.083088 425.975686,213.280871 425.031527,213.203955 C424.482598,212.379857 424.680213,211.632674 424.888806,210.852527 C425.459692,208.698882 426.634401,206.852901 427.710303,204.940992 C429.906021,201.051246 432.354246,197.337307 435.1977,193.887081 C435.636843,193.348669 436.075987,192.79927 436.51513,192.260859 C439.457392,188.568897 442.267911,184.745078 445.407787,181.217936 C447.493718,178.877495 449.941944,176.822742 452.445062,174.932809 C453.93815,173.812035 455.453195,172.537429 457.451298,172.141861 C458.549157,171.922102 459.592122,171.361715 460.613131,170.867255 C462.226983,170.076121 462.523405,169.164118 461.820776,167.460981 C461.623161,166.977509 461.447504,166.472062 461.216953,165.999579 C459.877566,163.142703 459.120043,162.758124 455.925274,163.329499 C455.40928,163.417403 454.838394,163.384439 454.377293,163.59321 C450.12858,165.549071 446.077481,167.812596 442.761947,171.174919 C438.249747,175.734932 434.220606,180.712489 430.389078,185.854865 C426.337979,191.293917 422.780917,197.029644 419.586148,202.996119 C418.87254,204.325665 418.674925,205.732127 418.235782,207.204516 C417.423366,209.918548 412.746488,220.192313 422.012416,221.115303 C422.242966,221.115303 422.473516,221.126291 422.726024,221.181231 C423.209082,221.280123 423.758011,221.071352 424.274005,221.071352 C426.370915,221.08234 428.116511,219.983541 429.982871,219.313274 C433.836355,217.9178 437.107974,215.52242 440.039257,212.753448 C443.67317,209.314209 446.955768,205.534343 449.799222,201.391873 C450.58968,200.238135 451.358181,199.073409 452.159618,197.930659 C454.563929,194.49142 457.078026,191.118109 459.350593,187.590966 C460.679003,185.547201 461.590225,183.228737 462.764934,181.08608 C463.346799,180.020246 463.9616,178.888483 464.839887,178.097348 C468.078571,175.174545 471.372147,172.295693 474.77551,169.570673 C477.366456,167.493944 480.155018,165.669939 482.877707,163.75803 C483.32783,163.439379 483.821866,163.010847 484.579389,163.285547 C484.436667,163.70309 484.381774,164.054706 484.217095,164.340393 C481.406577,169.405854 478.683887,174.515266 475.730647,179.492822 C472.865235,184.338523 470.384074,189.360031 468.012699,194.447468 C465.981661,198.820685 463.939643,203.193903 462.007412,207.611072 C460.393559,211.303034 458.856557,215.038949 457.429341,218.807827 C456.660839,220.840604 456.770625,222.939309 457.681848,224.961098 C458.219799,226.158788 458.582092,227.45537 459.196893,228.59812 C460.305731,230.652873 460.964446,233.004302 462.808849,234.575583 C465.070438,234.311872 465.355881,234.333847 465.59741,233.476785 C466.135361,231.59784 467.474749,230.356198 468.671415,228.971712 C469.242301,228.312433 469.736338,227.576238 470.18646,226.829055 C471.591719,224.51059 473.084807,222.236078 474.30343,219.818721 C475.544011,217.379389 477.410371,215.41254 478.848566,213.12704 C480.846669,209.951512 483.196087,206.984757 485.50159,204.018001 C488.784188,199.820592 491.967978,195.52429 495.799505,191.755412 C498.039137,189.557815 500.015283,187.085519 502.145129,184.778042 C502.83678,184.03086 503.638217,183.393556 504.571397,182.536494 C504.428676,183.129845 504.373783,183.558376 504.231061,183.942956 C503.363753,186.140552 502.45253,188.327161 501.5962,190.535746 C499.389504,196.172581 497.336508,201.853369 495.854398,207.742928 C495.06394,210.874503 495.546998,213.852246 496.414306,216.819002 C496.6229,217.544209 497.16085,218.203488 497.676844,218.785851 C498.390452,219.587974 499.378525,219.642914 500.344641,219.346238 C501.255864,219.060551 501.760879,218.434236 501.848707,217.412353 C502.090236,214.687333 502.891673,212.083181 503.748003,209.511993 C505.63632,203.853182 507.557573,198.205358 509.577633,192.590499 C510.818214,189.129284 512.234452,185.723009 513.606775,182.305746 C514.715613,179.591714 515.956193,176.910646 515.736621,173.812035 Z M159.042298,225.675317 C160.645172,225.136905 162.302939,225.334689 163.92777,225.169869 C164.806057,225.993968 165.783151,225.664329 166.628503,225.246785 C170.185565,223.53266 174.006114,222.532753 177.574155,220.818628 C184.402836,217.533221 190.902161,213.665451 197.072127,209.358161 C205.119432,203.75429 212.716615,197.491139 220.511412,191.524664 C221.510464,190.766493 222.421687,189.854491 224.101411,189.107308 C223.673246,190.228082 223.48661,190.876373 223.179209,191.458736 C222.652237,192.469631 222.026457,193.425585 221.499485,194.43648 C219.468446,198.41413 217.459365,202.413756 215.439305,206.402394 C214.056003,209.138402 212.639765,211.874409 211.267441,214.621405 C210.608726,215.939963 210.476983,217.269509 211.12472,218.675971 C211.640713,219.785757 212.003007,220.97246 212.420193,222.126198 C212.727593,222.972273 213.045972,223.741432 214.15481,223.818347 C215.208754,223.895263 216.032148,223.719456 216.592056,222.708561 C217.404472,221.269135 218.370588,219.917613 219.117132,218.445224 C221.806886,213.138028 224.738169,207.918735 226.022663,202.018188 C226.110492,201.589657 226.297128,201.183102 226.472786,200.776546 C228.185445,196.743956 229.854191,192.68939 231.621743,188.678776 C232.379266,186.953663 232.829388,185.206574 232.730581,183.327629 C232.653731,181.789311 231.237493,180.767428 229.788319,181.239912 C229.217433,181.426707 228.668503,181.745359 228.152509,182.074998 C226.384957,183.228737 224.639361,184.393463 222.904744,185.580165 C219.512361,187.920606 216.130956,190.283022 212.738572,192.623463 C212.354321,192.887174 211.893221,193.062982 211.036891,193.491513 C211.388206,192.74433 211.465056,192.392715 211.66267,192.172955 C214.099917,189.469911 215.845512,186.338336 217.250772,182.997989 C219.215939,178.339084 219.226917,173.603263 217.667958,168.856454 C215.790619,163.175667 212.343343,158.560714 207.589614,155.011595 C200.793868,149.935147 193.119835,146.682704 184.76513,145.375134 C175.169844,143.880768 165.541622,143.880768 155.979272,145.913545 C152.378295,146.671716 148.755361,147.352971 145.395913,148.935241 C143.891847,149.638471 142.38778,150.363678 141.004478,151.275681 C139.500412,152.2646 139.533347,153.627109 140.982521,154.648992 C142.267016,155.560995 143.595425,156.407069 144.934813,157.242156 C146.625515,158.297002 148.272303,158.110207 149.589734,156.637817 C150.248449,155.901622 150.973036,155.374199 151.862302,154.923691 C155.024135,153.319446 158.317711,152.231636 161.852817,151.923972 C163.598412,151.77014 165.333029,151.539393 167.078625,151.374573 C174.2696,150.671342 181.460575,150.594426 188.552743,152.165708 C195.326531,153.660073 201.200076,156.824613 205.723254,162.241688 C207.271235,164.08767 208.533773,166.120447 208.874109,168.515827 C209.368145,172.064946 208.86313,175.493196 207.326128,178.789591 C205.075518,183.613316 201.957599,187.854678 198.345643,191.689484 C193.405279,196.94174 187.970878,201.677561 182.130269,205.896946 C176.586082,209.896572 170.899173,213.687427 165.267158,217.566185 C161.446609,220.203301 157.62606,222.840417 153.399304,225.752232 C155.704808,226.631271 157.384531,226.235704 159.042298,225.675317 Z M161.336823,170.7354 C160.1182,173.746107 158.778812,176.701875 157.417467,179.646654 C156.38548,181.877215 155.232728,184.052835 154.134869,186.250432 C150.797379,192.920138 147.459888,199.589844 144.111419,206.248562 C142.025487,210.40202 139.862705,214.522513 137.809709,218.686959 C134.713747,224.983074 131.782464,231.356104 128.598674,237.608267 C125.28314,244.113153 122.593386,250.859775 120.178097,257.716276 C118.915559,261.298359 118.037272,264.990321 118.377608,268.825127 C118.509351,270.275541 118.794795,271.857811 119.519382,273.077477 C120.496476,274.714686 121.769992,276.176088 122.692193,277.890214 C122.977637,278.417637 123.768095,279 124.317025,279 C125.239226,279 126.326106,278.758264 127.028736,278.219853 C128.477909,277.099079 129.79534,275.769533 130.432098,273.945528 C131.343321,271.297424 132.309437,268.671296 133.165766,266.001216 C133.923289,263.671763 134.505154,261.287371 135.262677,258.957918 C136.942401,253.782578 139.456497,248.936877 141.267964,243.805489 C142.398759,240.58601 143.957718,237.520363 145.384935,234.410763 C148.019796,228.675036 150.70955,222.961285 153.366368,217.225557 C155.68285,212.215037 157.977375,207.193529 160.293857,202.17202 C160.809851,201.062234 161.402695,199.985411 161.841838,198.842661 C162.961654,195.897882 163.938748,192.898162 165.102479,189.964371 C167.210368,184.668163 168.681498,179.174171 170.152629,173.680179 C170.811345,171.218871 170.339265,168.944358 169.329235,166.790714 C168.297248,164.593117 165.79413,162.571328 162.665232,164.263477 C162.775018,166.603918 162.149239,168.713611 161.336823,170.7354 Z M320.460477,170.021181 C320.559284,170.592556 320.636135,171.108991 320.723963,171.614438 C321.75595,172.405573 322.776959,173.207696 323.819925,173.976855 C324.445705,174.43835 325.049527,174.691074 325.96075,174.636134 C328.387018,174.49329 330.824264,176.581007 331.351236,178.701688 C331.592765,179.690606 331.318301,180.470753 330.813286,181.162996 C327.860045,185.239538 325.993685,189.898443 323.765032,194.348576 C321.020385,199.842568 318.747817,205.545331 316.8595,211.37995 C315.838492,214.533501 314.982162,217.774957 314.356382,221.0274 C313.796474,223.906251 312.962102,226.576331 310.887148,228.87282 C309.273296,228.400336 308.38403,227.18067 307.703358,225.708281 C306.759199,223.64254 305.738191,221.620751 304.848925,219.533034 C304.475653,218.675971 304.201188,217.698041 304.19021,216.77505 C304.179231,215.46748 304.376846,214.148922 304.640332,212.863328 C305.760148,207.314396 307.966844,202.150044 310.32724,197.040632 C310.579748,196.502221 310.832255,195.952821 311.117699,195.326506 C310.349198,195.051807 310.074733,195.590218 309.778311,195.90887 C305.222197,200.91939 300.018346,205.226679 295.034067,209.786693 C294.144802,210.599803 293.046943,211.193154 292.05887,211.896385 C291.707555,212.149109 291.345262,212.401833 291.04884,212.720484 C288.435936,215.46748 285.394867,217.665077 282.189119,219.642914 C281.815847,219.873661 281.431597,220.093421 281.124196,220.401085 C279.740894,221.84051 278.094106,221.994342 276.271661,221.532847 C275.503159,221.346051 274.734658,221.203207 273.955178,221.071352 C271.814354,220.719736 270.496923,219.258334 270.694538,217.038762 C270.859217,215.214756 271.111724,213.335811 271.726525,211.632674 C273.24157,207.4023 275.250652,203.402674 278.06117,199.853556 C280.78386,196.425305 283.418721,192.90915 286.328047,189.634731 C288.710401,186.953663 291.367219,184.514331 294.013059,182.096974 C296.406391,179.921354 298.964402,177.943517 301.423606,175.833824 C303.860852,173.735119 306.836049,172.614345 309.657547,171.229859 C310.601705,170.768364 311.611735,170.4607 312.577851,170.043157 C315.113905,168.977322 317.649959,168.834478 320.460477,170.021181 Z M277.567134,215.643288 C278.324656,215.181792 278.950436,214.874129 279.488387,214.456586 C283.243064,211.566746 287.096548,208.786786 290.675568,205.699163 C294.85841,202.095104 298.942445,198.35919 302.817886,194.425492 C308.30718,188.865572 313.511031,183.030953 319.889591,178.416 C320.36167,178.075373 320.680049,177.536961 321.064299,177.097442 C320.888642,176.745827 320.822771,176.482115 320.658092,176.284331 C320.493413,176.097535 320.240905,175.844812 320.043291,175.8558 C318.736839,175.921728 318.056166,174.877869 317.210815,174.196614 C314.488125,174.592182 312.182622,175.899752 309.888097,177.097442 C305.189261,179.547762 301.269905,183.118857 297.635993,186.876747 C292.783457,191.898256 287.799178,196.864824 284.077437,202.875251 C282.046398,206.14967 279.477408,209.09445 278.159978,212.786412 C277.863556,213.588535 277.248755,214.313742 277.567134,215.643288 Z M254.566992,198.381166 C254.534056,198.348202 254.501121,198.30425 254.457206,198.271286 C255.412343,196.315425 256.389438,194.370552 257.322618,192.392715 C257.498275,192.008135 257.61904,191.54664 257.597082,191.140085 C257.487297,188.426053 258.464391,186.008697 259.4854,183.59134 C261.011423,179.954318 262.548426,176.328283 263.997599,172.669285 C264.700229,170.922195 264.733165,169.076214 264.250107,167.241221 C264.118364,166.746762 263.997599,166.120447 263.646284,165.845747 C262.054389,164.626081 260.429558,163.406415 258.70592,162.406508 C257.421425,161.659325 255.928337,162.351568 255.214729,163.692102 C252.305403,169.186094 249.439992,174.71305 246.442837,180.174077 C241.919659,188.415065 237.769753,196.83186 234.245626,205.545331 C231.775444,211.643662 229.437004,217.796932 227.021715,223.906251 C226.659422,224.807266 226.813122,225.587413 227.285201,226.400523 C228.218381,227.982793 229.261347,229.543087 229.952998,231.224248 C230.677585,232.96035 231.522936,234.311872 233.521039,234.652499 C234.004097,234.729415 234.432262,235.13597 234.871405,235.41067 C236.364493,236.344648 237.341588,236.157853 237.978346,234.608547 C238.373575,233.619629 238.867611,233.015289 239.932534,232.718614 C240.415592,232.586758 240.876693,231.960443 241.107243,231.454996 C242.194123,229.158507 243.302961,226.862019 244.214184,224.499602 C246.091522,219.653902 248.397026,215.038949 251.284394,210.709683 C257.498275,201.402861 264.656314,192.876186 272.462091,184.887922 C275.173802,182.107962 278.127042,179.635666 281.40964,177.558937 C281.826826,177.295226 282.276948,177.075466 282.683156,176.844718 C283.81395,177.789685 283.319914,179.657642 285.054531,180.05321 C285.438781,179.77851 285.866946,179.492822 286.262176,179.174171 C287.963857,177.789685 289.665538,176.416187 291.334283,174.998737 C292.13572,174.317482 292.498014,173.097816 292.179635,172.405573 C291.784405,171.570486 290.917097,171.482582 290.170553,171.350727 C289.588688,171.251835 288.95193,171.339739 288.348107,171.449619 C283.759058,172.295693 279.77383,174.460326 276.04111,177.130406 C270.222459,181.294852 265.358944,186.470192 260.769894,191.909244 C259.243871,193.722261 257.750783,195.557254 256.191823,197.348295 C255.774637,197.820779 255.423322,198.633889 254.512099,198.227334 C254.523078,198.260298 254.545035,198.326226 254.566992,198.381166 Z M82.5654545,230.07051 C82.2800112,228.356385 82.7850262,227.257586 83.5425488,226.246692 C85.3430372,223.873287 87.1654828,221.510871 88.9879284,219.148454 C90.0418729,217.785944 91.2275604,216.511338 92.0948688,214.852153 C90.9201599,214.082994 89.240436,214.346706 88.8012924,212.533688 C89.3282647,212.269977 89.9101298,211.940337 90.5029736,211.687614 C91.0628816,211.445878 91.6447467,211.171178 92.2485691,211.105251 C95.4762739,210.775611 97.4524198,208.70987 99.4724799,206.413382 C107.475871,197.315331 115.764704,188.502969 124.635404,180.240005 C125.667391,179.284051 126.721335,178.350072 127.77528,177.438069 C129.630661,175.833824 131.475064,174.251554 132.737601,172.053958 C133.692739,170.383784 135.24072,169.471782 137.271758,169.460752 C138.940504,169.449806 140.894692,171.60345 139.500412,173.35054 C136.722829,176.822742 135.679863,180.987188 134.911362,185.217562 C134.175797,189.26114 133.517081,193.326693 132.891302,197.392247 C132.693687,198.666853 132.364329,199.963435 132.660751,201.369897 C136.239771,202.248936 140.049341,201.413849 143.474661,203.007107 C143.595425,203.062047 143.628361,203.303782 143.79304,203.666386 C143.277046,203.897133 142.783009,204.270725 142.256037,204.314677 C140.345763,204.479497 138.413531,204.556412 136.492279,204.644316 C134.658854,204.721232 132.814452,204.721232 131.046899,205.446439 C130.816349,206.050778 130.563841,206.611165 130.399162,207.193529 C128.906074,212.533688 126.029684,217.115678 122.439686,221.236171 C120.298861,223.69748 117.488343,225.092953 114.161831,225.202833 C112.591893,225.257773 110.97804,225.433581 109.441038,225.180857 C104.281101,224.323795 99.4395442,222.675597 95.6738885,218.489175 C95.2567022,218.829803 94.8065801,219.071539 94.5211368,219.456118 C92.5779267,222.049282 90.6676524,224.664422 88.7683567,227.29055 C88.3621489,227.850937 88.0327913,228.48824 87.7802838,229.136531 C87.2752687,230.400149 86.3640459,230.894609 85.0795511,230.685837 C84.2451784,230.553981 83.4217843,230.279282 82.5654545,230.07051 Z M105.104496,206.786973 C106.356055,206.775985 107.344128,206.446346 108.343179,206.20461 C112.086878,205.303595 115.79764,204.215785 119.574275,203.53453 C123.021551,202.908215 122.758065,202.996119 123.899838,199.600832 C123.954731,199.436012 124.020603,199.271192 124.064517,199.106373 C125.425862,194.205732 126.271213,189.2062 127.039714,184.195679 C127.083629,183.92098 126.853078,183.613316 126.743292,183.272689 C123.592438,185.448309 108.705472,202.358816 105.598532,205.699163 C105.389939,205.907934 105.324067,206.281526 105.104496,206.786973 Z M98.4953856,214.753261 C100.262938,216.511338 102.612356,217.038762 104.742202,217.97274 C104.961774,218.071632 105.313089,218.115584 105.499725,218.016692 C106.520733,217.445317 107.552721,217.9178 108.573729,217.895824 C111.83437,217.829896 114.78761,217.04975 116.686906,214.072006 C117.8177,212.302941 118.981431,210.566839 120.07929,208.786786 C120.375711,208.303315 120.474519,207.687988 120.738005,206.918829 C120.024397,206.973769 119.508403,206.940805 119.025345,207.061673 C117.246814,207.501192 115.479261,207.984663 113.711709,208.468135 C109.836267,209.533969 105.971804,210.610791 102.107341,211.687614 C100.449574,212.127133 99.0772508,212.90728 98.4953856,214.753261 Z M241.722044,160.516575 C239.800791,158.41787 237.539202,158.088231 235.233699,159.703464 C233.35636,161.022022 231.742508,162.604292 230.436056,164.494225 C229.667555,165.614999 228.602632,166.548978 228.086638,167.95544 C228.822203,168.394959 229.415047,168.746575 230.007891,169.09819 C232.34633,170.51564 234.717705,170.120073 237.01223,169.087202 C239.054247,168.164211 240.997457,167.054425 243.138282,165.944639 C243.434704,163.878898 243.149261,162.076869 241.722044,160.516575 Z M63.9457693,205.083836 L63.9567479,204.95198 L63.8250048,205.00692 L63.9457693,205.083836 Z M403.63426,206.567213 C401.109184,206.797961 400.121111,205.633235 400.724934,203.666386 C402.250957,198.710805 404.106339,193.876093 406.807071,189.425959 C409.266275,185.382381 411.824286,181.382756 414.338383,177.372142 C414.568933,176.99855 414.843398,176.657923 415.06297,176.273343 C416.45725,173.834011 420.958471,173.877963 422.660152,175.954692 C423.725076,177.262262 423.966604,178.36106 423.099296,179.800486 C420.354649,184.371487 417.566088,188.920512 414.788505,193.469537 C413.569882,195.480338 412.362237,197.502127 411.110678,199.490952 C410.265327,200.820498 409.31019,202.084116 408.497774,203.435638 C407.224258,205.523355 405.303005,206.358442 403.63426,206.567213 Z M428.621526,154.429232 C428.423911,154.945667 428.401954,155.626922 428.544676,156.165334 C428.74229,156.912516 429.126541,157.615747 429.510791,158.297002 C429.708406,158.648618 430.026785,159.022209 430.389078,159.198017 C431.399108,159.681488 432.453053,160.044092 433.48504,160.483611 C435.27455,161.25277 436.548066,160.362743 436.471216,158.384906 C436.416323,157.033384 435.999137,155.85767 435.12085,154.791836 C434.242563,153.726001 433.627762,152.451395 431.926081,152.429419 C431.399108,152.418431 430.883115,151.88002 430.136571,151.451489 C429.532749,152.583251 428.983819,153.473278 428.621526,154.429232 Z" id="script" fill="#FFFFFF" fill-rule="nonzero"></path>
    </g>
</svg>