<?xml version="1.0" encoding="UTF-8"?>
<svg width="1150px" height="368px" viewBox="0 0 1150 368" version="1.1" xmlns="http://www.w3.org/2000/svg" xmlns:xlink="http://www.w3.org/1999/xlink">
    <!-- Generator: Sketch 60.1 (88133) - https://sketch.com -->
    <title>epdp/exp/m-d/scripting/arpeggio_L</title>
    <desc>Created with Sketch.</desc>
    <g id="epdp/exp/m-d/scripting/arpeggio" stroke="none" stroke-width="1" fill="none" fill-rule="evenodd">
        <g id="script" transform="translate(102.000000, 30.000000)" fill="#FFFFFF">
            <path d="M582.424731,52.981 C581.436731,52.884 580.694731,52.422 580.218731,51.467 C579.762731,50.55 579.153731,49.71 578.693731,48.794 C578.491731,48.393 578.368731,47.871 578.429731,47.434 C578.700731,45.483 579.297731,43.712 581.323731,42.839 C582.626731,42.277 583.906731,41.662 585.239731,41.051 C586.168731,41.785 587.058731,42.439 587.892731,43.157 C588.746731,43.892 589.079731,44.883 588.781731,45.956 C588.309731,47.656 587.568731,49.193 586.001731,50.236 C584.820731,51.021 583.742731,51.96 582.424731,52.981 L582.424731,52.981 Z M393.813731,48.988 C393.813731,49.864 393.666731,50.438 393.843731,50.884 C394.233731,51.867 393.938731,52.555 393.252731,53.245 C392.509731,53.992 391.825731,54.769 390.621731,54.629 C389.865731,54.541 389.251731,54.827 388.655731,55.315 C387.158731,56.542 385.702731,56.076 384.268731,55.114 C382.786731,54.12 382.060731,52.613 381.564731,50.991 C381.269731,50.029 381.451731,49.101 382.206731,48.331 C382.764731,47.761 383.257731,47.128 383.803731,46.545 C384.511731,45.788 385.240731,45.594 386.156731,46.094 C388.057731,47.133 390.120731,47.653 392.189731,48.194 C392.782731,48.349 393.315731,48.738 393.813731,48.988 L393.813731,48.988 Z M308.861731,104.999 C313.028731,102.205 316.965731,99.483 320.987731,96.893 C324.611731,94.559 328.379731,92.446 331.995731,90.1 C338.633731,85.794 345.102731,81.226 350.780731,75.687 C354.507731,72.05 357.666731,67.912 359.793731,63.101 C361.173731,59.978 361.144731,56.729 360.256731,53.474 C359.955731,52.368 359.280731,51.492 358.425731,50.721 C353.396731,46.176 347.597731,43.121 340.965731,41.687 C336.223731,40.662 331.444731,40.844 326.671731,41.397 C321.825731,41.958 317.105731,43.164 312.359731,44.243 C308.783731,45.055 305.239731,45.95 302.014731,47.448 C300.705731,46.919 299.967731,46.182 299.548731,44.928 C299.207731,43.909 298.395731,43.048 297.782731,42.101 C298.016731,41.36 298.346731,40.792 299.260731,40.517 C302.315731,39.599 305.288731,38.385 308.370731,37.589 C313.237731,36.331 318.117731,34.939 323.081731,34.276 C337.084731,32.406 349.895731,35.497 361.158731,44.308 C364.173731,46.667 366.007731,49.701 367.216731,53.291 C369.262731,59.366 368.368731,65.067 365.485731,70.611 C364.381731,72.734 363.195731,74.805 361.661731,76.65 C361.206731,77.198 360.648731,77.66 360.155731,78.177 C359.168731,79.212 358.239731,80.309 357.199731,81.288 C356.102731,82.323 354.920731,83.271 353.745731,84.221 C351.887731,85.725 349.989731,87.179 348.136731,88.689 C345.958731,90.464 343.468731,91.732 341.059731,93.136 C338.720731,94.5 336.431731,95.954 334.054731,97.245 C332.170731,98.268 330.187731,99.11 328.242731,100.02 C326.882731,100.657 325.553731,101.396 324.137731,101.869 C321.896731,102.619 319.677731,103.499 317.281731,103.709 C316.814731,103.75 316.359731,103.944 315.902731,104.079 C315.366731,104.237 314.841731,104.514 314.299731,104.552 C312.860731,104.652 311.473731,104.89 310.119731,105.422 C309.832731,105.535 309.361731,105.18 308.861731,104.999 L308.861731,104.999 Z M435.313731,93.655 C436.078731,93.391 436.628731,93.282 437.098731,93.027 C441.107731,90.859 444.753731,88.154 448.230731,85.234 C451.891731,82.16 455.433731,78.945 459.048731,75.815 C463.391731,72.055 467.751731,68.316 472.112731,64.578 C473.234731,63.616 473.843731,62.36 474.406731,60.967 C473.465731,60.415 472.526731,60.154 471.585731,60.422 C469.315731,61.069 466.914731,61.418 465.053731,63.101 C464.710731,63.411 464.221731,63.569 463.785731,63.768 C459.182731,65.873 455.323731,69.175 450.995731,71.723 C450.796731,71.84 450.638731,72.04 450.481731,72.219 C448.583731,74.377 446.680731,76.529 444.798731,78.701 C443.288731,80.445 441.851731,82.255 440.298731,83.96 C437.850731,86.648 435.881731,89.563 435.313731,93.655 L435.313731,93.655 Z M476.276731,56.718 C477.258731,58.662 478.694731,60.005 480.325731,61.206 C481.277731,61.906 482.158731,62.743 482.928731,63.641 C483.652731,64.486 483.573731,65.189 482.681731,65.901 C481.701731,66.683 481.179731,67.732 480.549731,68.749 C477.892731,73.043 475.894731,77.666 474.104731,82.349 C472.114731,87.559 470.069731,92.771 468.851731,98.25 C468.523731,99.726 467.966731,101.149 467.561731,102.61 C467.422731,103.112 467.423731,103.653 467.311731,104.581 C470.481731,102.66 472.731731,100.121 475.834731,98.296 C475.743731,98.783 475.766731,99.096 475.631731,99.309 C474.652731,100.849 473.880731,102.506 472.637731,103.898 C471.636731,105.021 470.889731,106.369 470.023731,107.613 C469.569731,108.266 469.110731,108.917 468.635731,109.554 C467.267731,111.393 465.890731,113.224 464.515731,115.06 C464.368731,115.051 464.146731,115.104 464.076731,115.024 C461.930731,112.564 459.843731,110.07 458.480731,107.046 C457.868731,105.689 457.479731,104.344 457.801731,102.88 C458.453731,99.919 458.964731,96.91 459.867731,94.025 C461.176731,89.84 462.782731,85.748 464.260731,81.615 C464.685731,80.426 465.104731,79.234 465.693731,77.571 C464.962731,78.039 464.586731,78.213 464.292731,78.479 C460.432731,81.952 456.588731,85.443 452.731731,88.919 C450.246731,91.158 447.796731,93.439 445.235731,95.587 C443.717731,96.861 442.007731,97.907 440.394731,99.069 C439.312731,99.847 438.079731,100.061 436.787731,100.203 C435.690731,100.324 434.761731,100.088 433.838731,99.507 C432.027731,98.368 430.347731,95.453 430.34873,93.303 C430.351731,89.173 430.478731,89.234 432.228731,85.588 C433.720731,82.48 436.185731,80.201 438.311731,77.624 C441.541731,73.71 445.529731,70.64 449.527731,67.591 C451.614731,66 453.758731,64.47 455.969731,63.057 C460.154731,60.382 464.662731,58.331 469.296731,56.565 C470.816731,55.986 472.411731,55.889 474.018731,56.252 C474.715731,56.41 475.417731,56.542 476.276731,56.718 L476.276731,56.718 Z M681.671731,80.989 C684.402731,79.252 687.115731,77.6 689.749731,75.829 C693.117731,73.564 696.410731,71.188 699.756731,68.89 C702.133731,67.257 704.334731,65.408 706.246731,63.267 C707.455731,61.912 708.483731,60.369 709.427731,58.81 C710.290731,57.386 709.958731,56.721 708.392731,56.076 C706.319731,55.222 704.257731,55.449 702.442731,56.597 C700.380731,57.899 698.556731,59.574 696.509731,60.903 C695.368731,61.644 694.959731,62.935 693.986731,63.698 C691.049731,66 689.006731,69.031 686.895731,72.018 C686.115731,73.122 685.228731,74.165 684.570731,75.336 C683.865731,76.589 683.219731,77.849 682.207731,78.903 C681.733731,79.398 681.268731,80.005 681.671731,80.989 L681.671731,80.989 Z M708.828731,52.966 C709.990731,53.685 710.908731,54.179 711.745731,54.785 C714.629731,56.873 714.660731,59.147 713.040731,62.113 C712.401731,63.284 711.451731,64.319 710.508731,65.285 C707.825731,68.028 704.925731,70.544 701.742731,72.686 C696.979731,75.893 692.125731,78.966 687.334731,82.132 C684.737731,83.849 682.132731,85.541 679.285731,86.822 C678.604731,87.128 678.010731,87.527 677.788731,88.273 C677.197731,90.255 676.475731,92.218 676.109731,94.243 C675.744731,96.266 676.228731,96.944 678.116731,97.805 C680.480731,98.882 682.950731,99.339 685.573731,99.015 C693.403731,98.046 700.751731,95.374 708.125731,92.768 C709.998731,92.107 711.945731,91.658 713.831731,91.032 C715.190731,90.581 716.525731,90.042 717.835731,89.463 C721.269731,87.948 724.697731,86.422 728.097731,84.833 C729.245731,84.295 730.290731,83.538 731.403731,82.916 C731.787731,82.7 732.231731,82.589 732.745731,82.394 C733.131731,84.529 732.320731,86.144 731.194731,87.623 C729.029731,90.465 726.237731,92.573 723.136731,94.291 C720.067731,95.992 717.000731,97.671 713.681731,98.897 C710.172731,100.192 706.799731,101.856 703.305731,103.198 C700.407731,104.31 697.447731,105.249 694.451731,106.104 C691.500731,106.945 688.546731,107.4 685.512731,107.447 C681.061731,107.515 676.945731,106.424 673.544731,103.434 C670.567731,100.815 668.911731,97.441 668.118731,93.541 C667.421731,90.105 668.068731,86.923 669.107731,83.683 C671.295731,76.859 675.065731,71.089 679.897731,65.816 C684.306731,61.005 689.541731,57.481 695.214731,54.49 C697.382731,53.348 699.672731,52.426 701.945731,51.502 C702.972731,51.085 704.082731,50.83 705.179731,50.653 C705.861731,50.543 706.609731,50.628 707.291731,50.784 C708.406731,51.039 709.258731,51.598 708.828731,52.966 L708.828731,52.966 Z M415.388731,48.19 C420.988731,49.123 421.980731,49.053 424.552731,51.034 C424.588731,51.106 424.638731,51.174 424.656731,51.25 C425.167731,53.429 424.619731,55.406 423.805731,57.456 C421.451731,63.39 419.676731,69.543 417.051731,75.381 C416.235731,77.197 415.584731,79.088 414.867731,80.949 C414.678731,81.441 414.528731,81.949 414.692731,82.64 C415.042731,82.266 415.429731,81.92 415.735731,81.513 C417.942731,78.572 420.079731,75.576 422.339731,72.677 C427.263731,66.36 432.596731,60.413 438.851731,55.375 C440.392731,54.133 442.166731,53.156 443.911731,52.202 C445.663731,51.245 447.542731,51.034 449.524731,51.922 C449.959731,53.25 449.866731,54.56 449.033731,55.736 C447.555731,57.823 445.999731,59.852 444.520731,61.938 C443.828731,62.914 442.957731,63.492 441.753731,63.579 C440.188731,63.04 439.432731,61.767 439.033731,60.221 C436.954731,61.199 435.848731,62.927 434.579731,64.43 C431.283731,68.335 428.033731,72.285 424.899731,76.321 C422.647731,79.221 420.604731,82.283 418.481731,85.283 C416.448731,88.154 414.368731,90.995 412.425731,93.926 C409.691731,98.053 407.132731,102.287 405.366731,106.944 C405.197731,107.389 405.086731,107.937 404.761731,108.227 C404.015731,108.894 403.952731,109.731 403.982731,110.618 C402.745731,111.484 401.602731,111.105 400.608731,110.405 C399.635731,109.721 398.821731,108.832 397.523731,108.737 C397.251731,108.717 396.965731,108.435 396.745731,108.214 C392.984731,104.448 392.362731,100.128 395.025731,95.62 C395.488731,94.836 395.909731,94.196 395.744731,93.219 C395.659731,92.723 395.985731,92.146 396.164731,91.618 C397.668731,87.162 399.159731,82.701 400.710731,78.262 C401.013731,77.393 401.620731,76.634 401.968731,75.777 C402.291731,74.981 402.241731,73.956 402.730731,73.32 C403.986731,71.688 404.087731,69.659 404.784731,67.744 C404.524731,67.949 404.235731,68.127 404.008731,68.365 C401.031731,71.483 397.937731,74.501 395.122731,77.759 C390.580731,83.017 386.243731,88.451 381.778731,93.776 C379.679731,96.28 377.483731,98.705 375.329731,101.163 C374.441731,102.176 373.601731,103.238 372.644731,104.183 C370.619731,106.184 368.374731,107.798 365.358731,107.803 C364.320731,106.466 363.370731,105.086 362.258731,103.852 C360.849731,102.286 360.681731,100.569 361.396731,98.725 C362.720731,95.31 364.043731,91.891 365.501731,88.532 C367.344731,84.286 369.300731,80.088 371.252731,75.89 C372.126731,74.009 373.033731,72.134 374.079731,70.348 C374.486731,69.652 375.319731,69.207 375.927731,68.675 C376.488731,68.839 376.937731,69.064 377.396731,69.089 C379.091731,69.184 379.778731,70.281 379.994731,71.734 C380.240731,73.39 380.162731,74.962 379.550731,76.646 C377.089731,83.412 373.484731,89.679 371.083731,96.463 C370.663731,97.65 370.207731,98.825 369.586731,100.492 C370.399731,99.949 370.876731,99.74 371.206731,99.392 C372.526731,98.002 373.812731,96.581 375.089731,95.151 C376.896731,93.129 378.712731,91.114 380.475731,89.054 C384.374731,84.499 388.089731,79.776 392.160731,75.382 C398.027731,69.051 404.109731,62.916 410.176731,56.773 C411.896731,55.032 413.352731,53.226 414.066731,50.845 C414.333731,49.955 414.897731,49.154 415.388731,48.19 L415.388731,48.19 Z M269.257731,94.021 C270.957731,95.608 272.864731,95.909 274.769731,96.208 C276.489731,94.496 277.735731,92.608 278.569731,90.388 C276.977731,90.551 272.887731,91.82 271.098731,92.75 C270.493731,93.065 269.964731,93.526 269.257731,94.021 L269.257731,94.021 Z M298.450731,85.792 C297.148731,85.997 296.216731,86.132 295.289731,86.291 C292.693731,86.735 290.109731,87.263 287.500731,87.614 C285.576731,87.874 284.693731,89.076 283.870731,90.659 C282.438731,93.416 280.804731,96.068 279.242731,98.757 C279.043731,99.099 278.746731,99.383 278.528731,99.717 C276.611731,102.661 271.698731,103.569 268.606731,102.574 C268.456731,102.525 268.306731,102.462 268.171731,102.381 C265.837731,101 263.465731,99.678 261.192731,98.203 C260.018731,97.441 258.856731,96.547 258.349731,94.962 C260.287731,93.522 262.179731,92.083 264.113731,90.703 C264.554731,90.389 265.133731,90.256 265.662731,90.08 C269.982731,88.641 274.305731,87.211 278.627731,85.777 C279.006731,85.651 279.375731,85.489 279.761731,85.389 C281.021731,85.06 281.739731,84.273 282.242731,83.051 C283.860731,79.127 285.074731,75.105 285.801731,70.918 C286.087731,69.274 286.690731,67.687 287.140731,66.071 C287.261731,65.635 287.351731,65.19 287.561731,64.302 C286.223731,65.224 285.231731,65.844 284.307731,66.554 C279.499731,70.251 274.746731,74.022 270.171731,78.001 C268.009731,79.88 266.094731,82.04 264.023731,84.028 C261.779731,86.182 259.448731,88.247 257.222731,90.418 C254.650731,92.926 252.145731,95.503 249.621731,98.061 C247.776731,99.932 245.940731,101.813 244.115731,103.704 C243.452731,104.391 242.813731,105.104 242.200731,105.836 C241.185731,107.05 240.659731,107.157 239.400731,106.167 C238.996731,105.85 238.552731,105.34 238.505731,104.88 C238.457731,104.415 238.768731,103.8 239.113731,103.427 C240.685731,101.723 242.292731,100.048 243.945731,98.422 C253.979731,88.551 264.154731,78.829 274.759731,69.569 C280.181731,64.835 285.797731,60.338 291.785731,56.329 C292.462731,55.876 293.077731,55.433 293.469731,54.685 C294.039731,53.602 294.985731,53.089 296.213731,53.208 C297.154731,53.298 298.151731,53.294 299.015731,53.619 C300.724731,54.262 300.860731,55.602 299.414731,56.662 C298.965731,56.991 298.466731,57.256 297.977731,57.525 C296.517731,58.331 295.511731,59.44 295.103731,61.132 C294.865731,62.12 294.355731,63.056 293.881731,63.971 C291.741731,68.097 290.280731,72.452 289.254731,76.98 C288.885731,78.603 288.170731,80.145 287.651731,81.736 C287.516731,82.15 287.526731,82.61 287.447731,83.217 C292.156731,82.977 296.682731,82.746 301.348731,82.508 C302.573731,80.189 303.936731,77.925 305.000731,75.529 C307.085731,70.833 309.712731,66.465 312.565731,62.212 C314.746731,58.961 316.871731,55.673 319.003731,52.389 C319.816731,51.137 320.895731,50.571 322.227731,51.114 C323.542731,51.65 324.806731,52.38 325.971731,53.199 C327.135731,54.017 326.901731,55.378 326.673731,56.522 C326.377731,57.999 326.027731,59.534 325.328731,60.846 C323.947731,63.435 323.222731,66.368 321.253731,68.65 C321.001731,68.942 320.890731,69.355 320.712731,69.711 C319.430731,72.277 318.178731,74.859 316.850731,77.4 C316.336731,78.385 315.651731,79.281 315.037731,80.214 C314.777731,80.609 314.446731,80.968 314.238731,81.389 C311.553731,86.814 308.896731,92.253 306.208731,97.677 C304.400731,101.323 302.538731,104.942 300.728731,108.587 C298.531731,113.012 296.389731,117.465 294.175731,121.881 C291.566731,127.086 288.882731,132.252 286.278731,137.46 C284.779731,140.456 283.387731,143.506 281.923731,146.52 C281.122731,148.166 280.259731,149.782 279.444731,151.421 C278.983731,152.35 278.581731,153.31 278.113731,154.235 C277.755731,154.943 277.373731,155.647 276.932731,156.305 C275.962731,157.754 274.940731,159.169 273.953731,160.608 C273.637731,161.069 273.410731,161.595 273.064731,162.029 C272.059731,163.292 271.112731,163.349 269.805731,162.395 C268.077731,161.135 267.230731,159.358 266.858731,157.352 C266.550731,155.691 266.580731,153.989 267.131731,152.366 C268.106731,149.494 268.985731,146.576 270.184731,143.798 C272.333731,138.819 274.619731,133.896 276.980731,129.013 C278.854731,125.135 280.941731,121.361 282.903731,117.525 C284.941731,113.543 286.967731,109.553 288.952731,105.544 C291.957731,99.47 294.923731,93.378 297.898731,87.291 C298.069731,86.939 298.172731,86.554 298.450731,85.792 L298.450731,85.792 Z M580.349731,98.935 C580.809731,98.854 581.278731,98.841 581.694731,98.686 C584.573731,97.609 587.124731,95.984 589.354731,93.879 C591.786731,91.582 594.131731,89.202 596.314731,86.652 C599.171731,83.315 601.862731,79.853 604.367731,76.254 C605.361731,74.826 606.133731,73.226 606.872731,71.642 C608.051731,69.116 609.071731,66.517 610.248731,63.99 C611.047731,62.274 611.424731,60.522 611.224731,58.644 C611.138731,57.836 610.968731,57.075 610.156731,56.651 C608.532731,57.409 607.084731,58.334 606.083731,59.854 C605.825731,60.246 605.460731,60.588 605.088731,60.88 C603.010731,62.512 601.191731,64.402 599.525731,66.44 C598.252731,67.997 596.848731,69.391 595.131731,70.458 C594.796731,70.666 594.502731,70.955 594.227731,71.242 C591.630731,73.954 589.434731,77.004 587.528731,80.197 C585.208731,84.085 582.655731,87.881 581.305731,92.294 C580.872731,93.706 580.230731,96.96 580.349731,98.935 L580.349731,98.935 Z M616.802731,67.438 C620.028731,63.984 623.602731,60.905 627.369731,58.076 C631.265731,55.151 635.300731,52.412 639.284731,49.607 C639.805731,49.241 640.355731,48.871 640.947731,48.664 C642.255731,48.208 643.131731,47.386 643.422731,46.095 C644.230731,45.692 644.904731,45.779 645.557731,46.193 C647.300731,47.299 649.069731,48.369 650.779731,49.523 C652.294731,50.544 652.577731,51.48 651.647731,53.205 C650.020731,56.221 648.250731,59.16 646.523731,62.121 C644.069731,66.328 641.580731,70.514 639.143731,74.73 C637.830731,77 636.591731,79.312 635.562731,81.816 C636.388731,81.05 637.214731,80.284 638.038731,79.517 C642.715731,75.168 647.313731,70.731 652.094731,66.501 C655.556731,63.438 659.220731,60.596 662.877731,57.763 C664.943731,56.163 665.794731,56.271 668.109731,57.889 C667.332731,60.971 667.010731,64.206 665.612731,67.203 C664.947731,68.629 664.639731,70.221 664.160731,71.735 C663.847731,72.725 663.572731,73.732 663.185731,74.693 C661.933731,77.804 660.785731,80.94 660.165731,84.255 C660.006731,85.104 659.560731,85.9 659.234731,86.716 C657.678731,90.595 656.737731,94.636 656.162731,98.759 C655.991731,99.986 655.889731,101.276 656.339731,102.566 C658.007731,102.765 659.062731,101.18 660.748731,101.172 C660.790731,102.77 660.612731,104.142 659.497731,105.203 C658.578731,106.078 657.585731,106.875 656.587731,107.739 C655.501731,107.762 654.674731,107.266 653.959731,106.416 C653.138731,105.439 652.194731,104.567 651.354731,103.606 C649.189731,101.129 648.270731,98.209 648.548731,94.957 C648.849731,91.445 649.562731,87.994 650.778731,84.689 C651.652731,82.319 652.908731,80.091 653.777731,77.721 C655.166731,73.929 657.698731,70.809 659.605731,67.325 C660.329731,65.999 661.044731,64.667 661.850731,63.178 C661.299731,62.815 660.808731,62.491 660.215731,62.1 C659.391731,62.733 658.622731,63.287 657.896731,63.89 C654.884731,66.39 652.313731,69.262 650.007731,72.449 C648.100731,75.085 645.752731,77.408 643.563731,79.837 C638.272731,85.706 633.019731,91.597 628.798731,98.327 C627.791731,99.934 626.692731,101.479 625.384731,102.913 C623.697731,104.763 622.398731,106.967 620.773731,109.241 C620.268731,109.525 619.548731,109.171 619.031731,108.739 C617.056731,107.086 615.445731,105.087 614.367731,102.753 C613.572731,101.029 613.599731,99.225 614.455731,97.422 C617.092731,91.871 619.441731,86.173 622.598731,80.884 C625.418731,76.16 628.373731,71.515 631.271731,66.837 C631.354731,66.703 631.549731,66.59 631.553731,66.463 C631.609731,64.192 633.553731,62.906 634.410731,61.038 C635.233731,59.246 636.598731,57.709 637.672731,56.026 C638.139731,55.295 638.474731,54.481 638.861731,53.704 C638.853731,53.702 638.748731,53.68 638.748731,53.68 L638.938731,53.7 C638.493731,53.783 637.969731,53.742 637.618731,53.968 C634.274731,56.134 630.774731,58.095 627.841731,60.834 C626.035731,62.519 624.309731,64.297 622.633731,66.113 C620.583731,68.334 618.435731,70.502 616.661731,72.935 C612.708731,78.355 608.001731,83.155 604.074731,88.596 C602.221731,91.163 600.111731,93.572 597.917731,95.859 C594.658731,99.258 591.070731,102.268 586.738731,104.293 C584.885731,105.159 582.959731,105.551 580.954731,105.646 C579.804731,105.7 578.683731,105.413 577.881731,104.551 C575.749731,102.261 574.092731,99.65 572.940731,96.738 C571.919731,94.162 572.419731,91.54 572.832731,88.943 C573.417731,85.27 575.123731,82.057 576.946731,78.863 C579.492731,74.4 582.698731,70.422 585.851731,66.413 C587.165731,64.742 588.810731,63.263 590.521731,61.987 C593.269731,59.937 596.044731,57.95 598.677731,55.732 C601.244731,53.57 604.351731,52.208 607.677731,51.478 C608.919731,51.206 610.036731,51.619 611.109731,52.108 C612.089731,53.163 611.222731,54.248 611.144731,55.36 C613.694731,56.315 615.222731,58.389 616.890731,60.22 C616.741731,62.687 616.349731,65.055 616.893731,67.418 C616.853731,67.366 616.811731,67.318 616.770731,67.271 L616.802731,67.438 Z M489.946731,103.591 C490.979731,103.814 491.777731,103.218 492.647731,102.842 C497.774731,100.622 502.856731,98.284 508.053731,96.239 C513.843731,93.961 519.686731,91.774 525.782731,90.419 C531.163731,89.223 536.540731,87.955 542.047731,87.483 C547.095731,87.051 552.117731,87.123 556.963731,88.92 C557.248731,89.026 557.565731,89.05 557.747731,89.088 C558.898731,86.021 559.911731,82.997 561.163731,80.075 C562.260731,77.515 563.507731,75.002 564.897731,72.588 C566.767731,69.338 568.835731,66.203 570.823731,63.021 C571.035731,62.683 571.279731,62.364 571.507731,62.036 C572.142731,61.118 573.080731,61.002 574.053731,61.17 C575.936731,61.496 576.260731,62.407 575.190731,63.988 C574.116731,65.572 572.890731,67.104 572.119731,68.831 C570.202731,73.123 567.704731,77.137 566.136731,81.596 C565.610731,83.093 564.741731,84.468 564.053731,85.911 C563.161731,87.781 562.293731,89.662 561.361731,91.654 C561.929731,92.559 562.471731,93.421 563.122731,94.458 C562.599731,95.145 562.030731,95.892 561.425731,96.689 C560.824731,96.617 560.276731,96.58 559.737731,96.484 C555.297731,95.691 550.845731,95.639 546.373731,96.189 C542.965731,96.607 539.544731,96.923 536.142731,97.384 C533.932731,97.684 531.736731,98.112 529.554731,98.576 C527.530731,99.005 525.551731,99.657 523.520731,100.038 C518.411731,100.995 513.461731,102.498 508.519731,104.073 C503.885731,105.549 499.184731,106.813 494.520731,108.195 C493.221731,108.58 491.956731,109.079 490.662731,109.481 C489.142731,109.954 487.622731,110.45 486.071731,110.801 C484.795731,111.09 483.620731,111.498 482.635731,112.382 C482.339731,112.648 482.033731,112.952 481.675731,113.09 C479.848731,113.794 478.277731,114.799 477.199731,116.493 C476.787731,117.14 476.068731,117.033 475.446731,116.956 C474.785731,116.874 474.514731,116.293 474.483731,115.735 C474.402731,114.304 474.394731,112.866 474.420731,111.432 C474.426731,111.16 474.712731,110.885 474.888731,110.625 C476.550731,108.167 478.413731,105.869 480.547731,103.811 C485.091731,99.427 489.617731,95.023 494.255731,90.74 C498.362731,86.947 505.681731,78.856 509.906731,75.194 C516.974731,69.069 529.924731,61.41 533.407731,59.168 C536.151731,57.402 538.956731,55.732 541.818731,53.969 C541.655731,53.828 541.515731,53.595 541.361731,53.586 C537.297731,53.371 533.234731,53.091 529.167731,53.014 C526.782731,52.968 520.779731,53.442 519.059731,53.728 C515.283731,54.355 511.505731,54.961 507.725731,55.551 C504.777731,56.012 501.826731,55.744 498.885731,55.46 C497.910731,55.366 497.051731,54.94 496.486731,54.072 C496.443731,54.005 496.389731,53.946 496.339731,53.883 C493.944731,50.859 493.941731,50.859 493.938731,46.777 C493.938731,45.822 493.996731,44.866 493.980731,43.911 C493.938731,41.608 494.999731,40.155 497.387731,39.469 C497.646731,40.15 497.889731,40.791 498.165731,41.517 C498.289731,41.57 498.495731,41.702 498.720731,41.749 C501.052731,42.239 503.298731,41.457 505.577731,41.229 C507.634731,41.023 509.654731,40.474 511.709731,40.225 C518.369731,39.419 533.090731,39.527 539.380731,39.977 C543.121731,40.244 546.870731,40.526 550.581731,41.045 C553.499731,41.454 556.376731,42.187 559.249731,42.869 C560.912731,43.264 561.902731,44.645 562.812731,45.926 C563.859731,47.4 564.743731,49.014 565.502731,50.657 C565.739731,51.17 566.247731,52.028 565.138731,52.684 C564.439731,53.097 564.422731,54.217 564.723731,55.088 C564.903731,55.609 565.200731,56.09 565.543731,56.789 C564.436731,56.708 563.416731,56.805 562.512731,56.528 C561.005731,56.066 559.639731,56.485 558.312731,56.968 C552.828731,58.964 529.466731,72.134 528.073731,72.894 C526.186731,73.924 524.343731,75.038 522.491731,76.134 C521.670731,76.62 520.875731,77.15 520.068731,77.659 C519.595731,77.955 519.093731,78.211 518.651731,78.546 C514.528731,81.67 510.541731,84.964 506.631731,88.343 C502.466731,91.942 498.443731,95.707 494.350731,99.392 C492.987731,100.62 491.597731,101.817 490.237731,103.049 C490.093731,103.18 490.069731,103.445 489.990731,103.648 C489.991731,103.647 489.888731,103.645 489.888731,103.645 L489.946731,103.591 Z M260.957731,1.336 C260.663731,2.246 260.553731,3.235 260.145731,4.085 C258.970731,6.531 257.746731,8.959 256.428731,11.331 C253.907731,15.868 251.377731,20.401 248.728731,24.863 C243.738731,33.271 239.542731,42.903 235.744731,51.882 C233.040731,58.276 230.447731,64.719 227.704731,71.097 C225.370731,76.526 222.841731,81.871 220.495731,87.294 C218.434731,92.059 216.420731,96.858 215.446731,101.994 C215.029731,104.193 214.477731,106.346 213.881731,108.5 C213.457731,110.032 213.260731,111.633 213.054731,113.215 C212.887731,114.505 213.095731,115.755 213.777731,116.911 C214.538731,118.199 217.959731,120.471 219.437731,120.612 C220.493731,120.713 220.860731,120.44 221.315731,119.263 C221.453731,118.907 221.557731,118.415 221.832731,118.258 C222.813731,117.7 222.936731,116.761 223.132731,115.82 C223.261731,115.198 223.403731,114.576 223.596731,113.972 C223.983731,112.762 224.429731,111.571 224.813731,110.36 C225.172731,109.225 225.379731,108.03 225.831731,106.935 C227.806731,102.144 229.783731,97.352 231.881731,92.613 C234.236731,87.291 236.771731,82.047 239.136731,76.729 C241.729731,70.901 244.216731,65.025 246.757731,59.174 C247.042731,58.516 247.409731,57.894 247.688731,57.233 C250.170731,51.353 253.106731,44.844 256.208731,39.259 C258.650731,34.865 260.916731,32.664 263.504731,28.358 C265.568731,24.924 267.425731,21.411 268.993731,17.734 C269.526731,16.486 270.389731,15.282 270.539731,13.993 C270.697731,12.623 270.193731,11.175 269.969731,9.763 C269.895731,9.294 269.898731,8.773 269.685731,8.373 C269.281731,7.615 268.897731,6.713 268.239731,6.248 C266.165731,4.782 264.021731,1.103 261.592731,0 C261.346731,0.508 261.096731,0.904 260.957731,1.336 L260.957731,1.336 Z"></path>
            <path d="M847.679763,198.616153 C849.470763,198.773153 853.069763,198.535153 854.056763,196.652153 C854.872763,195.092153 855.139763,190.574153 853.459763,189.361153 C852.928763,188.978153 852.508763,188.485153 851.989763,188.093153 C850.294763,186.816153 847.947763,188.704153 846.249763,189.087153 C842.336763,189.970153 843.097763,194.980153 844.389763,197.695153 C844.831763,198.625153 846.871763,198.545153 847.679763,198.616153 M564.367763,176.054153 C562.862763,176.951153 548.704763,190.773153 543.363763,195.984153 C540.525763,198.754153 530.417763,209.655153 529.574763,209.775153 C540.283763,208.252153 544.680763,207.687153 555.389763,206.164153 C558.373763,197.422153 560.560763,188.478153 563.307763,179.666153 C563.642763,178.592153 563.943763,177.508153 564.367763,176.054153 M633.783763,206.919153 C632.703763,208.589153 631.767763,210.381153 630.134763,211.637153 C629.158763,212.388153 628.023763,211.972153 626.922763,211.287153 C626.603763,211.088153 626.235763,210.958153 625.940763,210.730153 C625.012763,210.012153 624.130763,210.198153 623.235763,210.784153 C619.617763,213.155153 616.388763,216.576153 613.473763,219.747153 C610.761763,222.698153 607.678763,225.297153 605.140763,228.408153 C602.337763,231.842153 599.777763,235.563153 597.281763,239.161153 C595.923763,241.117153 594.487763,243.018153 593.036763,244.906153 C591.589763,246.789153 590.168763,248.819153 588.604763,250.608153 C587.469763,251.907153 585.543763,253.557153 584.168763,251.591153 C582.318763,248.944153 581.355763,244.991153 582.531763,241.892153 C583.339763,239.761153 584.168763,237.637153 585.026763,235.524153 C586.662763,231.492153 588.200763,227.415153 590.065763,223.479153 C592.607763,218.111153 595.982763,213.184153 598.480763,207.793153 C599.056763,206.548153 597.257763,206.139153 596.314763,206.290153 C592.515763,206.898153 585.906763,207.383153 581.265763,207.857153 C577.662763,208.231153 573.472763,208.621153 570.003763,208.825153 C569.607763,209.835153 569.189763,210.722153 568.906763,211.650153 C566.665763,218.984153 564.428763,226.325153 562.618763,233.780153 C561.292763,239.242153 560.600763,244.830153 559.873763,250.396153 C559.475763,253.445153 559.573763,257.062153 558.383763,259.926153 C558.182763,260.412153 557.853763,260.822153 557.492763,261.200153 C557.069763,261.646153 556.539763,261.920153 555.908763,261.835153 C555.135763,261.730153 554.446763,261.088153 553.805763,260.677153 C553.014763,260.169153 552.218763,259.669153 551.435763,259.147153 C549.950763,258.158153 548.653763,256.934153 547.250763,255.824153 C539.805763,249.927153 541.925763,248.893153 543.287763,244.033153 C543.935763,241.724153 544.652763,239.481153 545.354763,237.214153 C546.394763,233.852153 547.551763,230.527153 548.607763,227.170153 C549.336763,224.846153 549.920763,222.476153 550.663763,220.157153 C551.587763,217.270153 552.616763,214.417153 553.579763,211.543153 C553.816763,210.839153 553.977763,210.111153 554.179763,209.373153 C553.896763,209.282153 553.742763,209.182153 553.598763,209.194153 C549.539763,209.542153 545.475763,209.850153 541.423763,210.271153 C537.048763,210.725153 532.684763,211.285153 528.315763,211.802153 C527.937763,211.846153 527.561763,211.907153 527.185763,211.970153 C526.100763,212.152153 525.198763,212.558153 524.351763,213.370153 C514.816763,222.510153 504.795763,231.138153 495.362763,240.380153 C493.118763,242.578153 490.634763,244.545153 488.550763,246.893153 C484.884763,251.024153 480.902763,254.861153 477.206763,258.964153 C476.630763,259.603153 476.220763,260.387153 475.680763,261.061153 C475.095763,261.791153 474.684763,262.593153 474.329763,263.455153 C474.189763,263.798153 474.096763,264.137153 474.030763,264.477153 C473.673763,265.566153 471.291763,264.899153 469.870763,263.847153 C469.655763,263.688153 469.446763,263.520153 469.242763,263.344153 C468.497763,262.702153 468.180763,261.789153 467.906763,260.877153 C467.585763,259.812153 467.175763,258.691153 467.369763,257.563153 C467.461763,257.033153 467.898763,256.857153 468.375763,256.720153 C468.596763,256.656153 468.933763,256.497153 469.116763,256.359153 C470.617763,255.224153 471.977763,253.940153 473.232763,252.533153 C476.638763,248.714153 480.199763,245.037153 483.726763,241.331153 C485.308763,239.668153 486.884763,237.998153 488.436763,236.307153 C491.073763,233.433153 493.755763,230.675153 496.473763,227.882153 C498.793763,225.499153 501.243763,222.834153 503.265763,220.208153 C504.142763,219.070153 505.161763,218.053153 506.115763,216.981153 C506.861763,216.141153 507.676763,215.363153 508.511763,214.506153 C508.358763,214.205153 508.017763,214.325153 507.743763,214.379153 C503.693763,215.164153 499.623763,215.872153 495.600763,216.784153 C492.114763,217.575153 488.690763,218.637153 485.222763,219.514153 C480.266763,220.769153 477.747763,221.608153 474.576763,222.804153 C468.560763,225.073153 466.969763,227.721153 465.839763,227.342153 C463.404763,224.315153 468.014763,221.244153 472.917763,219.592153 C477.215763,218.114153 477.983763,217.896153 482.384763,216.718153 C487.111763,215.453153 491.847763,214.256153 496.650763,213.344153 C501.130763,212.492153 505.632763,211.749153 510.137763,211.036153 C511.296763,210.852153 512.118763,210.333153 512.868763,209.481153 C525.308763,195.328153 538.185763,181.594153 551.288763,168.054153 C555.816763,163.376153 560.337763,158.680153 564.548763,153.712153 C565.204763,152.938153 565.805763,152.105153 566.549763,151.413153 C568.397763,149.694153 573.535763,145.811153 576.151763,146.007153 C576.945763,146.066153 577.453763,146.535153 577.989763,147.066153 C579.424763,148.493153 581.232763,149.581153 582.349763,151.310153 C583.237763,152.685153 583.503763,154.284153 584.484763,155.637153 C586.020763,157.756153 587.861763,161.246153 586.186763,163.888153 C585.261763,165.343153 585.145763,165.271153 584.354763,166.801153 C582.846763,169.717153 582.165763,172.977153 581.170763,176.082153 C579.566763,181.088153 577.856763,186.060153 576.037763,190.992153 C574.981763,193.857153 571.659763,203.179153 570.965763,205.103153 C571.527763,205.138153 571.849763,205.182153 572.170763,205.176153 C575.271763,205.118153 579.099763,204.641153 582.188763,204.366153 C586.974763,203.939153 593.715763,203.057153 595.327763,202.827153 C598.119763,202.430153 600.783763,201.731153 603.598763,201.563153 C605.460763,201.452153 607.158763,202.012153 608.372763,203.497153 C609.565763,204.955153 610.507763,207.629153 609.659763,209.491153 C609.472763,209.905153 609.134763,210.012153 608.768763,210.225153 C607.633763,210.888153 606.617763,212.819153 606.069763,213.927153 C604.386763,217.329153 603.410763,218.934153 601.006763,223.474153 C600.425763,224.571153 599.917763,225.704153 599.346763,226.805153 C598.944763,227.582153 598.375763,229.300153 597.665763,229.809153 C599.944763,228.178153 600.742763,227.476153 602.004763,226.087153 C603.298763,224.664153 604.030763,223.862153 605.302763,222.420153 C609.117763,218.098153 612.759763,213.748153 616.896763,209.702153 C619.350763,207.303153 622.145763,205.299153 625.052763,203.480153 C626.855763,202.354153 628.852763,202.106153 630.838763,202.928153 C631.606763,203.247153 632.306763,203.851153 632.884763,204.469153 C633.423763,205.045153 634.160763,206.337153 633.783763,206.919153 M802.973763,209.352153 C806.344763,206.040153 809.560763,202.488153 812.653763,198.970153 C813.292763,198.242153 813.211763,197.699153 812.344763,197.289153 C811.119763,196.710153 809.860763,196.178153 808.568763,195.777153 C807.921763,195.575153 807.113763,195.521153 806.479763,195.721153 C804.476763,196.356153 802.420763,196.917153 800.658763,198.122153 C799.676763,198.794153 798.725763,199.527153 797.846763,200.327153 C791.654763,205.965153 786.118763,212.800153 781.705763,219.911153 C780.572763,221.738153 779.529763,223.622153 778.574763,225.548153 C778.090763,226.522153 777.631763,227.509153 777.200763,228.507153 C777.024763,228.913153 776.369763,231.298153 776.033763,231.413153 C776.785763,231.156153 777.196763,231.069153 777.552763,230.882153 C778.318763,230.478153 779.042763,229.997153 779.809763,229.595153 C781.518763,228.699153 782.835763,227.486153 784.327763,226.303153 C785.833763,225.108153 787.303763,223.914153 788.712763,222.603153 C789.849763,221.544153 790.990763,220.489153 792.122763,219.425153 C794.996763,216.725153 797.959763,214.116153 800.829763,211.411153 C801.550763,210.732153 802.266763,210.047153 802.973763,209.352153 M784.843763,246.339153 C784.170763,246.010153 783.581763,246.109405 783.015763,246.184153 C780.701763,246.488153 778.390763,246.808153 776.080763,247.140153 C775.169763,247.271153 774.265763,247.448153 773.357763,247.602153 C771.166763,247.974153 768.977763,248.345153 766.786763,248.715153 C764.704763,249.066153 762.606763,249.341153 760.544763,249.783153 C758.169763,250.292153 756.626763,250.762153 754.268763,251.348153 C753.383763,251.568153 752.751763,252.026153 752.274763,252.857153 C750.977763,255.116153 749.671763,257.378153 748.207763,259.529153 C745.608763,263.345153 742.926763,266.928153 739.575763,270.134153 C737.821763,271.811153 734.960763,273.361153 732.976763,274.747153 C732.111763,275.352153 731.216763,275.910153 730.309763,276.446153 C732.908763,276.971153 735.405763,277.875153 738.038763,278.362153 C739.673763,278.664153 741.329763,278.864153 742.988763,278.979153 C744.564763,279.088153 746.161763,279.136153 747.736763,278.980153 C752.595763,278.500153 757.099763,275.983153 761.121763,273.375153 C763.847763,271.608153 767.629763,268.281153 769.741763,265.829153 C773.927763,260.971153 776.600763,257.209153 780.538763,252.144153 C781.740763,250.599153 782.917763,249.036153 784.096763,247.474153 C784.350763,247.138153 784.561763,246.771153 784.843763,246.339153 M724.544763,270.319153 C732.159763,266.644153 738.461763,261.582153 743.225763,254.542153 C743.281763,254.460153 743.273763,254.334153 743.296763,254.218153 C743.025763,253.544153 742.475763,253.625153 741.932763,253.750153 C740.770763,254.016153 739.611763,254.298153 738.452763,254.583153 C736.240763,255.127153 734.027763,255.670153 731.818763,256.228153 C726.981763,257.449153 722.223763,258.939153 717.491763,260.509153 C714.867763,261.380153 712.223763,262.200153 709.636763,263.170153 C706.538763,264.331153 703.473763,265.584153 700.427763,266.879153 C695.322763,269.048153 690.139763,271.247153 685.487763,274.298153 C683.913763,275.328153 681.833763,276.610153 681.160763,278.472153 C680.515763,280.259153 682.960763,279.932153 684.057763,280.012153 C691.579763,280.558153 699.140763,278.762153 706.444763,277.193153 C712.783763,275.831153 718.734763,273.123153 724.544763,270.319153 M765.105763,203.323153 C765.054763,202.934153 764.428763,202.766153 764.062763,202.667153 C763.054763,202.394153 761.910763,202.433153 760.881763,202.543153 C758.186763,202.831153 755.724763,204.279153 753.376763,205.640153 C748.906763,208.233153 745.168763,212.468153 742.095763,216.561153 C738.224763,221.719153 734.658763,226.327153 731.554763,231.981153 C731.010763,232.970153 730.503763,233.945153 730.121763,234.999153 C729.887763,235.648153 729.616763,236.283153 729.362763,236.925153 C729.457763,237.025153 729.553763,237.125153 729.649763,237.225153 C730.270763,236.935153 730.952763,236.731153 731.500763,236.339153 C732.601763,235.551153 733.651763,234.688153 734.682763,233.809153 C737.447763,231.450153 740.199763,229.076153 742.939763,226.689153 C744.778763,225.086153 746.694763,223.552153 748.389763,221.806153 C751.489763,218.614153 754.457763,215.294153 757.467763,212.015153 C759.667763,209.619153 761.853763,207.210153 764.026763,204.789153 C764.304763,204.480153 765.167763,203.801153 765.105763,203.323153 M670.281763,211.828153 C666.281763,210.644153 662.432763,213.867153 659.258763,215.974153 C655.177763,218.683153 652.170763,221.789153 648.535763,225.123153 C644.906763,228.451153 642.315763,230.998153 639.082763,234.708153 C639.033763,234.765153 639.083763,234.909153 639.091763,235.100153 C639.450763,235.106153 639.827763,235.181153 640.172763,235.105153 C641.496763,234.815153 642.820763,234.511153 644.126763,234.149153 C647.785763,233.136153 650.378763,232.328153 654.042763,231.335153 C657.761763,230.326153 661.492763,229.360153 665.232763,228.438153 C666.207763,228.198153 666.843763,227.723153 667.355763,226.863153 C669.024763,224.060153 670.289763,221.040153 671.359763,217.964153 C672.052763,215.969153 673.283763,212.717153 670.281763,211.828153 M664.948763,230.894153 C664.882763,230.776153 662.756763,231.215153 662.200763,231.373153 C660.062763,231.982153 657.933763,232.628153 655.794763,233.238153 C651.052763,234.592153 646.357763,236.091153 641.769763,237.905153 C640.678763,238.336153 638.566763,238.823153 639.260763,240.324153 C640.663763,241.791153 642.019763,242.580153 643.906763,243.500153 C644.548763,243.813153 645.197763,243.978153 645.945763,243.888153 C647.302763,243.725153 648.547763,243.244153 649.796763,242.748153 C651.266763,242.164153 652.562763,241.277153 653.867763,240.406153 C657.003763,238.315153 659.825763,236.452153 662.351763,233.673153 C662.995763,232.962153 664.368763,231.664153 664.948763,230.894153 M698.049763,217.456153 C699.502763,216.685153 701.332763,215.858153 702.545763,215.084153 C704.879763,213.595153 707.133763,211.983153 709.449763,210.465153 C712.263763,208.620153 715.062763,206.761153 717.744763,204.719153 C718.999763,203.764153 720.544763,202.411153 720.896763,200.797153 C721.302763,198.929153 719.627763,198.648153 718.123763,198.549153 C714.460763,198.305153 711.312763,200.596153 708.855763,203.069153 C707.462763,204.470153 706.259763,206.031153 704.980763,207.531153 C702.685763,210.220153 700.550763,213.054153 698.768763,216.111153 C698.625763,216.356153 698.145763,216.927153 698.049763,217.456153 M944.750763,203.826153 C943.382763,204.819153 941.404763,204.265153 939.881763,204.062153 C937.831763,203.788153 932.540763,203.678153 930.475763,203.635153 C925.779763,203.537153 921.077763,203.781153 916.424763,204.419153 C912.928763,204.898153 908.595763,205.033153 905.817763,207.491153 C905.221763,208.019153 905.166763,208.308153 905.470763,209.062153 C907.200763,213.355153 905.891763,219.152153 904.185763,223.278153 C902.389763,227.622153 899.561763,231.394153 896.616763,235.018153 C893.810763,238.470153 890.948763,241.928153 887.528763,244.798153 C883.867763,247.870153 879.610763,250.228153 875.077763,251.743153 C873.474763,252.279153 871.759763,252.572153 870.009763,252.717153 C865.197763,253.116153 859.167763,250.095153 856.778763,245.829153 C854.565763,241.878153 855.102763,236.901153 855.758763,232.671153 C856.354763,228.829153 857.252763,225.043153 859.078763,221.584153 C860.272763,219.324153 861.465763,217.070153 863.142763,215.108153 C863.585763,214.590153 863.861763,213.929153 864.339763,213.122153 C863.920763,213.235153 863.697763,213.235153 863.555763,213.342153 C861.437763,214.941153 859.309763,216.524153 857.340763,218.314153 C855.815763,219.702153 854.184763,220.973153 852.639763,222.342153 C846.429763,227.846153 841.377763,234.263153 835.926763,240.461153 C833.271763,243.481153 830.984763,246.252153 827.780763,248.720153 C825.336763,250.602153 822.728763,249.418153 821.658763,246.780153 C821.393763,246.126153 820.421763,243.158153 819.704763,242.978153 C819.559763,242.942153 819.453763,242.888153 819.351763,242.894153 C815.236763,243.121153 811.113763,243.264153 807.009763,243.625153 C804.965763,243.804153 802.916763,243.993153 800.874763,244.218153 C800.445763,244.264153 800.024763,244.390153 799.598763,244.475153 C799.093763,244.576153 798.697763,244.812153 798.437763,245.281153 C798.123763,245.848153 797.774763,246.395153 797.444763,246.953153 C796.533763,248.487153 795.638763,250.029153 794.710763,251.552153 C794.430763,252.012153 794.040763,252.404153 793.741763,252.854153 C792.103763,255.320153 790.562763,257.853153 788.705763,260.165153 C784.873763,264.938153 780.562763,269.164153 776.452763,273.673153 C774.488763,275.829153 772.343763,277.743153 769.958763,279.422153 C766.327763,281.978153 762.131763,284.615153 757.807763,285.761153 C756.804763,286.027153 755.787763,286.237153 754.770763,286.433153 C745.074763,288.301153 735.660763,284.537153 728.408763,278.233153 C728.338763,278.172153 728.103763,278.014153 727.819763,277.817153 C726.363763,278.565153 724.877763,279.257153 723.368763,279.891153 C720.718763,281.006153 718.053763,282.102153 715.314763,282.982153 C709.714763,284.780153 704.159763,286.224153 698.369763,287.091153 C692.782763,287.928153 686.471763,287.752153 681.028763,285.785153 C677.347763,284.455153 673.117763,281.660153 673.450763,277.217153 C673.473763,276.921153 673.492763,276.532153 673.630763,276.262153 C674.061763,275.415153 675.172763,274.924153 675.934763,274.458153 C681.319763,271.164153 686.911763,268.246153 692.693763,265.726153 C697.622763,263.577153 702.617763,261.570153 707.642763,259.654153 C710.683763,258.494153 713.829763,257.609153 716.939763,256.634153 C719.736763,255.758153 722.531763,254.869153 725.354763,254.089153 C729.437763,252.961153 733.537763,251.895153 737.645763,250.862153 C740.380763,250.175153 743.131763,249.543153 745.896763,248.992153 C746.809763,248.810153 747.290763,248.325153 747.767763,247.616153 C749.621763,244.855153 750.983763,241.821153 752.644763,238.954153 C754.966763,234.946153 756.682763,230.658153 758.519763,226.420153 C760.700763,221.390153 762.791763,216.318153 765.297763,211.433153 C765.716763,210.615153 766.031763,209.739153 766.350763,208.874153 C766.404763,208.729153 766.287763,208.423153 766.155763,208.335153 C766.018763,208.244153 765.685763,208.245153 765.575763,208.350153 C765.068763,208.837153 764.582763,209.354153 764.134763,209.898153 C761.098763,213.585153 757.978763,217.201153 754.635763,220.615153 C753.081763,222.202153 751.614763,223.868153 750.025763,225.427153 C746.656763,228.731153 743.391763,232.140153 740.081763,235.504153 C738.353763,237.261153 736.600763,238.853153 734.617763,240.328153 C732.138763,242.173153 728.562763,244.345153 725.304763,243.844153 C724.219763,243.677153 723.485763,242.912153 722.939763,242.012153 C720.396763,237.822153 719.015763,231.650153 721.500763,227.138153 C721.815763,226.567153 722.158763,226.012153 722.458763,225.434153 C722.545763,225.267153 722.526763,225.046153 722.586763,224.631153 C720.272763,226.426153 718.103763,228.039153 716.011763,229.746153 C713.740763,231.600153 711.610763,233.632153 709.286763,235.415153 C708.135763,236.299153 707.082763,237.304153 705.937763,238.195153 C702.001763,241.254153 697.587763,244.154153 692.518763,244.736153 C689.840763,245.043153 686.974763,245.094153 684.439763,244.046153 C680.116763,242.259153 677.321763,237.074153 677.812763,232.514153 C677.992763,230.847153 678.243763,229.353153 678.532763,227.588153 C678.379763,227.564153 677.890763,227.666153 677.670763,227.713153 C676.069763,228.055153 675.085763,228.133153 673.568763,228.484153 C672.375763,228.760153 671.723763,229.605153 671.137763,230.498153 C669.069763,233.647153 666.374763,236.739153 663.809763,239.496153 C660.297763,243.270153 656.117763,246.349153 651.615763,248.839153 C647.502763,251.112153 640.024763,252.376153 636.524763,248.140153 C635.237763,246.583153 634.059763,244.970153 633.079763,243.207153 C632.880763,242.849153 632.609763,242.531153 632.323763,242.125153 C631.960763,242.437153 631.685763,242.616153 631.486763,242.856153 C629.836763,244.847153 628.249763,246.889153 626.734763,248.984153 C622.619763,254.671153 618.943763,260.657153 615.089763,266.519153 C613.595763,268.793153 612.169763,271.112153 610.671763,273.385153 C609.452763,275.234153 608.383763,277.174153 607.338763,279.125153 C604.902763,283.708153 602.204763,288.172153 599.568763,292.642153 C597.402763,296.314153 595.771763,300.266153 593.612763,303.938153 C592.692763,305.502153 591.539763,306.861153 589.958763,307.816153 C585.356763,310.595153 584.893763,300.115153 584.640763,297.802153 C584.450763,296.065153 585.526763,294.566153 586.353763,293.143153 C590.447763,286.108153 594.615763,278.949153 598.869763,271.945153 C600.054763,269.994153 601.226763,268.035153 602.449763,266.109153 C605.245763,261.704153 608.092763,257.331153 610.876763,252.919153 C613.632763,248.553153 616.418763,244.204153 618.857763,239.646153 C620.673763,236.249153 622.466763,232.839153 624.335763,229.471153 C626.416763,225.722153 628.513763,221.979153 630.710763,218.298153 C633.441763,213.724153 636.026763,209.088153 638.624763,204.437153 C639.934763,202.092153 641.240763,199.744153 642.597763,197.426153 C643.294763,196.236153 644.016763,195.061153 644.737763,193.885153 C645.464763,192.695153 645.165763,190.829153 646.879763,190.405153 C648.115763,190.099153 649.630763,190.426153 650.816763,190.810153 C652.697763,191.419153 654.359763,192.667153 655.447763,194.320153 C656.169763,195.418153 656.377763,196.664153 656.129763,198.052153 C655.776763,200.033153 654.581763,201.719153 653.504763,203.368153 C652.288763,205.230153 651.200763,207.170153 650.010763,209.047153 C646.818763,214.081153 643.312763,218.933153 640.546763,224.225153 C640.052763,225.170153 639.602763,226.137153 639.040763,227.281153 C639.454763,227.233153 639.741763,227.284153 639.900763,227.165153 C640.332763,226.840153 640.727763,226.459153 641.108763,226.072153 C643.940763,223.199153 647.036763,220.630153 650.203763,218.145153 C652.512763,216.334153 654.801763,214.476153 657.256763,212.881153 C659.617763,211.347153 662.180763,210.122153 664.658763,208.769153 C665.038763,208.561153 668.872763,206.821153 670.551763,206.581153 C673.496763,206.160153 676.579763,207.964153 677.601763,210.718153 C677.791763,211.232153 677.768763,211.732153 677.757763,212.283153 C677.701763,215.104153 676.730763,217.710153 676.020763,220.377153 C675.908763,220.792153 675.722763,221.188153 675.559763,221.588153 C675.190763,222.491153 674.854763,223.412153 674.427763,224.287153 C674.104763,224.949153 673.843763,225.657153 673.565763,226.225153 C675.153763,226.170153 677.609763,225.850153 679.095763,225.574153 C679.706763,225.460153 679.947763,224.930153 680.209763,224.462153 C681.497763,222.166153 682.641763,219.789153 684.029763,217.550153 C685.222763,215.627153 686.641763,213.857153 688.074763,212.111153 C692.053763,207.260153 696.490763,202.764153 701.853763,199.439153 C702.801763,198.851153 703.790763,198.344153 704.792763,197.856153 C710.217763,195.218153 716.220763,194.952153 721.817763,197.369153 C724.484763,198.520153 726.311763,201.683153 724.926763,204.497153 C724.338763,205.692153 723.713763,206.918153 722.785763,207.891153 C721.795763,208.930153 720.450763,209.449153 719.241763,210.172153 C713.533763,213.579153 707.566763,216.309153 701.670763,219.362153 C699.607763,220.430153 697.442763,221.306153 695.314763,222.248153 C694.916763,222.423153 694.542763,222.542153 694.290763,222.970153 C693.483763,224.343153 692.637763,225.697153 691.916763,227.119153 C690.337763,230.237153 689.012763,233.483153 688.058763,236.845153 C687.684763,238.162153 688.635763,239.411153 690.022763,239.374153 C691.094763,239.346153 692.217763,239.229153 693.216763,238.870153 C694.637763,238.358153 696.031763,237.695153 697.321763,236.909153 C703.776763,232.974153 710.035763,228.746153 716.160763,224.312153 C720.297763,221.318153 724.485763,218.384153 728.776763,215.619153 C733.274763,212.722153 737.436763,209.346153 741.832763,206.303153 C745.461763,203.791153 749.286763,201.362153 753.552763,200.098153 C755.613763,199.487153 757.760763,199.174153 759.910763,199.266153 C762.178763,199.364153 764.169763,200.102153 766.340763,200.641153 C768.020763,201.058153 768.298763,200.488153 769.164763,199.347153 C769.488763,198.921153 769.663763,198.350153 770.306763,198.316153 C771.110763,198.273153 772.283763,198.089153 773.075763,198.187153 C773.669763,198.260153 774.305763,198.864153 773.950763,199.423153 C773.691763,199.833153 773.520763,200.632153 773.110763,201.364153 C771.990763,203.596153 768.802763,212.662153 767.223763,217.051153 C765.646763,221.375153 763.780763,225.586153 762.225763,229.918153 C760.956763,233.451153 759.731763,236.953153 758.133763,240.358153 C757.290763,242.154153 756.518763,243.982153 755.741763,245.738153 C756.002763,246.386153 756.459763,246.479153 756.979763,246.403153 C757.784763,246.285153 758.590763,246.157153 759.392763,246.010153 C762.116763,245.510153 764.469763,245.019153 767.205763,244.607153 C773.166763,243.709153 779.141763,242.896153 785.112763,242.056153 C785.918763,241.942153 786.729763,241.841153 787.541763,241.791153 C788.033763,241.761153 788.338763,241.533153 788.599763,241.150153 C789.393763,239.981153 790.264763,238.860153 790.991763,237.652153 C793.597763,233.324153 796.158763,228.970153 798.731763,224.622153 C799.394763,223.501153 800.043763,222.371153 800.687763,221.238153 C800.807763,221.026153 800.865763,220.778153 801.056763,220.266153 C799.790763,220.960153 798.900763,221.693153 798.201763,222.509153 C797.025763,223.881153 795.589763,224.949153 794.289763,226.167153 C791.997763,228.313153 789.711763,230.482153 787.136763,232.306153 C786.740763,232.587153 786.412763,232.963153 786.037763,233.277153 C783.862763,235.102153 781.526763,236.702153 778.816763,237.589153 C776.089763,238.482153 773.430763,238.003153 771.386763,236.015153 C770.134763,234.798153 769.017763,233.387153 768.418763,231.729153 C767.760763,229.907153 767.977763,228.037153 768.201763,226.157153 C768.734763,221.691153 771.628763,217.880153 774.112763,214.231153 C776.656763,210.492153 779.471763,206.934153 782.608763,203.673153 C785.923763,200.224153 789.314763,196.859153 793.314763,194.159153 C795.879763,192.426153 798.642763,191.200153 801.635763,190.549153 C803.137763,190.221153 804.770763,190.176153 806.307763,190.484153 C808.354763,190.893153 808.983763,191.644153 810.256763,192.255153 C812.210763,193.193153 813.919763,194.615153 815.999763,195.653153 C816.293763,195.800153 817.315763,194.153153 817.511763,193.925153 C817.927763,193.444153 818.409763,192.781153 818.873763,192.414153 C819.773763,191.702153 821.754763,192.575153 822.678763,192.908153 C823.718763,193.283153 824.325763,193.909153 824.396763,194.713153 C824.045763,195.606153 823.817763,196.246153 823.543763,196.866153 C822.820763,198.509153 821.877763,200.040153 821.054763,201.632153 C819.075763,205.451153 817.480763,209.475153 815.508763,213.311153 C813.395763,217.420153 811.164763,220.799153 808.769763,225.472153 C806.404763,230.084153 804.254763,234.713153 801.855763,239.294153 C801.660763,239.666153 801.548763,240.080153 801.391763,240.492153 C802.397763,240.682153 818.775763,240.378153 820.537763,240.154153 C820.617763,240.043153 820.767763,239.926153 820.795763,239.783153 C822.356763,231.910153 827.644763,224.625153 831.399763,217.661153 C831.616763,217.259153 831.770763,216.824153 832.062763,216.155153 C830.560763,216.740153 829.582763,217.603153 828.513763,218.288153 C826.372763,219.662153 824.303763,221.147153 822.193763,222.568153 C821.295763,223.172153 820.398763,223.788153 819.445763,224.294153 C818.584763,224.749153 817.385763,224.263153 816.967763,223.408153 C816.714763,222.891153 816.670763,222.089153 816.859763,221.154153 C818.827763,221.613153 820.409763,220.610153 821.971763,219.672153 C823.362763,218.837153 824.657763,217.846153 826.016763,216.958153 C826.651763,216.543153 827.360763,216.242153 827.995763,215.827153 C830.085763,214.464153 832.158763,213.075153 834.234763,211.690153 C834.724763,211.363153 834.715763,211.351153 835.474763,209.589153 C836.365763,207.854153 842.003763,210.630153 841.885763,213.259153 C841.861763,213.802153 841.571763,214.407153 841.380763,214.909153 C840.421763,217.454153 838.672763,219.497153 837.343763,221.840153 C834.384763,227.055153 830.207763,232.554153 828.522763,238.333153 C828.466763,238.526153 828.428763,238.724153 828.320763,239.180153 C828.407763,238.814153 830.438763,237.592153 830.811763,237.227153 C831.618763,236.438153 832.348763,235.575153 833.095763,234.731153 C834.663763,232.961153 836.376763,231.367153 838.103763,229.754153 C839.435763,228.510153 840.786763,227.285153 842.217763,226.156153 C844.036763,224.718153 845.673763,223.096153 847.453763,221.616153 C852.212763,217.660153 857.121763,213.858153 862.391763,210.602153 C865.301763,208.804153 868.141763,206.892153 871.031763,205.060153 C872.038763,204.422153 873.130763,203.915153 874.131763,203.267153 C876.819763,201.527153 879.475763,199.737153 882.152763,197.979153 C883.921763,196.818153 885.692763,195.658153 887.492763,194.545153 C887.885763,194.303153 888.414763,194.133153 888.866763,194.163153 C890.166763,194.252153 891.440763,194.491153 892.610763,195.158153 C894.325763,196.137153 894.484763,198.169153 892.783763,199.220153 C891.559763,199.977153 890.238763,200.679153 888.666763,200.366153 C888.431763,200.319153 888.125763,200.379153 887.916763,200.499153 C883.844763,202.831153 879.311763,206.256153 876.205763,209.768153 C874.421763,211.787153 872.818763,213.955153 871.326763,216.197153 C868.949763,219.772153 855.690763,239.827153 863.378763,241.941153 C866.798763,242.881153 871.819763,239.570153 874.353763,237.678153 C877.680763,235.194153 880.548763,232.102153 883.088763,228.832153 C886.696763,224.187153 890.197763,219.753153 892.617763,214.343153 C893.200763,213.041153 892.778763,211.848153 891.387763,210.925153 C891.152763,210.768153 890.739763,210.733153 890.458763,210.816153 C888.722763,211.329153 886.927763,211.318153 885.150763,211.449153 C884.112763,211.524153 883.286763,210.966153 882.584763,210.289153 C880.071763,207.864153 888.798763,204.183153 890.512763,204.255153 C893.906763,204.397153 897.410763,202.929153 900.689763,202.204153 C902.316763,201.844153 903.968763,201.588153 905.611763,201.315153 C913.558763,199.994153 921.600763,199.366153 929.637763,200.189153 C933.051763,200.538153 939.680763,200.994153 942.998763,201.879153 C943.617763,202.043153 944.234763,202.297153 944.783763,202.626153 C945.295763,202.933153 945.249763,203.465153 944.750763,203.826153 M357.368763,228.911153 C357.368763,228.911153 357.368763,228.912153 357.368763,228.911153 C363.034763,224.930153 368.400763,220.381153 373.596763,215.808153 C375.881763,213.798153 378.047763,211.654153 380.026763,209.342153 C380.836763,208.394153 382.084763,207.174153 382.532763,206.035153 C383.126763,204.523153 381.912763,204.442153 380.414763,204.048153 C374.275763,202.430153 369.210763,209.230153 366.241763,213.431153 C362.544763,218.663153 359.866763,222.891153 357.368763,228.911153 M452.913763,199.786153 C452.842763,199.921153 452.733763,200.021153 452.628763,200.129153 C452.522763,200.237153 452.424763,200.356153 452.321763,200.468153 C452.103763,200.706153 451.886763,200.945153 451.669763,201.183153 C451.111763,201.796153 450.555763,202.410153 449.998763,203.023153 C449.440763,203.637153 448.881763,204.249153 448.319763,204.859153 C447.757763,205.467153 447.191763,206.073153 446.619763,206.673153 C446.049763,207.272153 445.472763,207.866153 444.888763,208.451153 C444.304763,209.035153 443.713763,209.612153 443.112763,210.178153 C438.875763,214.162153 434.264763,217.767153 429.931763,221.633153 C423.102763,227.725153 415.836763,233.320153 408.008763,238.059153 C398.535763,243.794153 388.766763,248.613153 378.151763,251.764153 C370.239763,254.113153 355.495763,258.346153 349.876763,249.651153 C347.877763,246.556153 347.690763,243.053153 343.203763,243.958153 C337.868763,245.035153 332.409763,245.573153 327.033763,246.603153 C316.100763,248.699153 305.104763,250.476153 294.365763,253.454153 C289.569763,254.784153 284.368763,255.980153 279.809763,257.988153 C278.180763,258.704153 276.722763,260.810153 274.869763,260.525153 C273.045763,260.244153 272.030763,258.398153 271.495763,256.821153 C270.106763,252.726153 274.318763,252.283153 276.268763,249.475153 C278.919763,245.661153 281.612763,242.566153 285.120763,239.453153 C294.047763,231.533153 304.076763,224.917153 313.886763,218.163153 C319.036763,214.617153 324.199763,211.090153 329.366763,207.567153 C332.100763,205.702153 334.831763,203.831153 337.573763,201.975153 C339.551763,200.636153 342.130763,199.549153 344.034763,198.015153 C344.435763,197.693153 344.258763,197.053153 343.752763,196.956153 C342.438763,196.706153 340.991763,196.911153 339.659763,196.918153 C337.531763,196.929153 335.403763,196.934153 333.274763,196.959153 C328.987763,197.008153 324.710763,197.172153 320.429763,197.408153 C316.090763,197.646153 311.752763,197.929153 307.415763,198.222153 C305.609763,198.344153 303.802763,198.468153 301.994763,198.592153 C300.028763,198.725153 297.252763,199.451153 295.353763,198.803153 C292.423763,197.801153 292.109763,194.524153 292.367763,191.928153 C292.479763,190.801153 292.289763,187.214153 293.193763,186.446153 C293.988763,185.770153 295.708763,186.217153 296.672763,186.208153 C303.518763,186.141153 310.364763,186.069153 317.206763,185.839153 C326.287763,185.534153 341.139763,185.771153 350.205763,186.386153 C353.367763,186.600153 356.526763,186.875153 359.675763,187.290153 C360.130763,187.350153 360.583763,187.478153 360.964763,187.735153 C361.968763,188.413153 362.770763,189.673153 363.538763,190.519153 C364.846763,191.961153 366.472763,193.514153 366.898763,195.502153 C367.403763,197.865153 365.916763,198.270153 363.914763,198.273153 C360.503763,198.277153 358.530763,199.820153 355.575763,201.320153 C348.609763,204.856153 342.082763,209.338153 335.561763,213.624153 C320.411763,223.583153 305.943763,234.340153 291.238763,244.915153 C291.047763,245.052153 291.181763,245.353153 291.411763,245.302153 C301.090763,243.115153 310.788763,240.730153 320.637763,239.452153 C325.899763,238.770153 331.241763,238.521153 336.519763,239.177153 C339.158763,239.505153 341.701763,240.109153 344.258763,240.826153 C345.218763,241.096153 345.497763,241.434153 346.100763,240.793153 C346.584763,240.280153 346.330763,237.735153 346.414763,236.975153 C347.366763,228.364153 350.811763,220.291153 356.197763,213.522153 C361.590763,206.742153 369.879763,197.507153 379.451763,199.681153 C383.191763,200.531153 388.798763,202.725153 389.572763,207.027153 C390.356763,211.383153 386.333763,215.128153 383.534763,217.856153 C375.975763,225.226153 366.405763,229.998153 357.189763,234.938153 C355.136763,236.039153 354.429763,236.388153 353.965763,238.593153 C353.481763,240.884153 352.875763,243.378153 353.882763,245.688153 C355.593763,249.616153 361.241763,248.374153 364.585763,248.049153 C374.881763,247.050153 384.697763,243.283153 394.014763,238.965153 C404.947763,233.899153 414.728763,227.273153 424.331763,220.048153 C429.181763,216.399153 434.058763,212.787153 438.923763,209.158153 C441.510763,207.228153 444.094763,205.294153 446.680763,203.361153 C446.858763,203.228153 447.029763,203.087153 447.200763,202.946153 C447.581763,202.632153 447.959763,202.315153 448.340763,202.002153 C448.805763,201.618153 449.274763,201.240153 449.750763,200.871153 C450.230763,200.499153 450.717763,200.137153 451.220763,199.797153 C451.448763,199.645153 451.678763,199.497153 451.913763,199.359153 C452.164763,199.211153 452.549763,198.947153 452.834763,199.171153 C452.844763,199.178153 452.852763,199.185153 452.861763,199.193153 C453.017763,199.345153 453.008763,199.605153 452.913763,199.786153 M195.195763,223.193153 C200.728763,221.414153 206.258763,219.668153 211.492763,217.102153 C215.082763,215.342153 218.580763,213.236153 221.714763,210.747153 C222.457763,210.158153 223.199763,209.515153 223.614763,208.662153 C224.489763,206.864153 223.184763,205.066153 221.465763,204.478153 C217.468763,203.111153 211.875763,205.306153 207.900763,208.265153 C202.394763,212.364153 198.300763,217.820153 195.195763,223.193153 M283.457763,208.638153 C278.541763,221.339153 273.829763,234.118153 268.861763,246.792153 C268.518763,247.665153 268.158763,248.531153 267.753763,249.376153 C266.946763,251.064153 265.992763,252.459153 264.172763,251.202153 C259.872763,248.232153 260.929763,244.237153 262.357763,240.025153 C264.346763,234.163153 266.504763,228.375153 268.970763,222.695153 C271.410763,217.076153 274.340763,211.702153 276.876763,206.137153 C276.918763,206.045153 276.798763,205.960153 276.725763,206.031153 C269.209763,213.362153 261.826763,220.740153 254.932763,228.674153 C248.700763,235.845153 242.324763,243.724153 238.008763,252.239153 C236.306763,255.596153 236.121763,262.137153 231.146763,261.512153 C227.060763,260.999153 223.609763,256.460153 223.428763,252.484153 C223.253763,248.670153 225.387763,245.219153 226.623763,241.741153 C227.440763,239.444153 230.293763,233.064153 232.915763,227.257153 C225.709763,234.604153 212.944763,242.954153 210.387763,244.613153 C206.761763,246.966153 202.898763,248.936153 198.845763,250.439153 C194.602763,252.012153 190.252763,253.370153 185.917763,251.259153 C179.892763,248.324153 178.692763,240.970153 179.075763,234.928153 C179.089763,234.720153 179.418763,231.939153 179.685763,231.219153 C179.718763,231.129153 179.655763,231.038153 179.559763,231.031153 C177.543763,230.885153 170.621763,230.551153 172.205763,229.162153 C172.786763,228.652153 178.226763,227.772153 178.963763,227.690153 C179.132763,227.672153 179.636763,227.594153 180.132763,227.493153 C181.035763,227.322153 181.818763,227.009153 182.964763,225.440153 C185.588763,221.845153 187.642763,217.858153 190.633763,214.464153 C197.752763,206.388153 207.016763,200.395153 217.920763,199.329153 C222.588763,198.873153 230.658763,200.095153 231.662763,205.882153 C232.606763,211.324153 224.833763,216.196153 220.931763,218.556153 C215.916763,221.588153 210.378763,223.605153 204.844763,225.460153 C202.463763,226.259153 200.141763,226.965153 197.676763,227.444153 C197.600763,227.459153 197.526763,227.473153 197.450763,227.489153 C195.679763,227.843153 193.532763,227.820153 192.350763,229.227153 C190.604763,231.305153 189.167763,233.549153 187.944763,235.961153 C186.856763,238.104153 185.231763,240.598153 185.949763,243.025153 C186.183763,243.818153 186.637763,244.577153 187.339763,245.015153 C188.010763,245.433153 188.846763,245.519153 189.630763,245.410153 C191.652763,245.131153 193.757763,244.126153 195.638763,243.368153 C197.704763,242.537153 199.736763,241.624153 201.745763,240.666153 C207.691763,237.831153 213.481763,234.578153 219.136763,231.201153 C220.909763,230.143153 231.893763,222.768153 236.272763,219.821153 C237.053763,218.082153 237.606763,216.824153 237.770763,216.384153 C240.308763,209.575153 243.800763,203.281153 247.184763,196.867153 C247.977763,195.365153 248.842763,193.870153 249.522763,192.313153 C249.881763,191.491153 250.151763,189.601153 250.825763,189.001153 C252.654763,187.371153 257.542763,190.080153 259.122763,191.281153 C264.007763,194.995153 263.230763,202.184153 260.797763,207.084153 C257.507763,213.711153 253.627763,220.069153 250.035763,226.533153 C257.221763,218.966153 264.185763,210.957153 272.028763,204.053153 C275.210763,201.252153 279.787763,196.834153 284.390763,197.671153 C286.624763,198.077153 287.062763,199.108153 286.366763,201.156153 C285.508763,203.677153 284.419763,206.154153 283.457763,208.638153 M191.989763,195.731153 C189.442763,198.377153 191.813763,201.299153 194.710763,199.223153 C196.783763,197.738153 200.583763,195.556153 200.576773,192.543153 C200.569763,189.356153 194.175763,191.014153 192.427763,191.689153 C188.874763,193.060153 185.617763,195.160153 182.647763,197.521153 C169.687763,207.823153 150.533763,234.473153 150.533763,234.473153 C150.533763,234.473153 150.588763,233.938153 151.429763,231.788153 C153.999763,225.221153 156.760763,218.713153 160.120763,212.500153 C161.603763,209.756153 163.183763,207.064153 164.856763,204.431153 C165.657763,203.170153 166.470763,201.909153 167.387763,200.748153 C168.003763,199.969153 169.377763,198.571153 168.747763,197.451153 C168.171763,196.427153 165.305763,195.286153 164.184763,195.405153 C162.269763,195.607153 160.854763,197.938153 159.437763,199.101153 C156.866763,201.305153 153.874763,203.003153 151.120763,204.962153 C144.339763,209.786153 137.887763,215.138153 132.045763,221.071153 C126.104763,227.107153 120.735763,233.681153 114.697763,239.623153 C114.683763,239.637153 114.669763,239.651153 114.655763,239.664153 C114.513763,239.013153 114.855763,238.365153 115.185763,237.785153 C118.381763,232.176153 121.577763,226.567153 124.773763,220.957153 C126.371763,218.153153 127.969763,215.348153 129.567763,212.543153 C130.677763,210.595153 133.046763,207.830153 131.986763,205.443153 C131.322763,203.949153 129.357763,203.267153 127.969763,202.685153 C126.049763,201.879153 125.535763,202.310153 124.431763,203.962153 C117.743763,213.972153 109.499763,223.618153 105.250763,235.022153 C104.558763,236.878153 103.993763,238.845153 104.200763,240.815153 C104.415763,242.848153 105.756763,246.483153 107.582763,247.570153 C109.400763,248.651153 112.102763,247.485153 113.702763,246.511153 C116.091763,245.058153 117.928763,242.756153 119.833763,240.756153 C121.931763,238.554153 124.024763,236.345153 126.118763,234.139153 C130.429763,229.596153 134.745763,225.057153 139.131763,220.586153 C143.182763,216.455153 147.701763,212.940153 152.095763,209.191153 C145.545763,219.844153 140.216763,231.337153 134.608763,242.491153 C133.347763,245.000153 132.381763,248.108153 133.396763,250.874153 C134.333763,253.426153 136.418763,255.750153 138.051763,257.890153 C140.437763,261.018153 142.119763,257.621153 142.990763,255.373153 C145.580763,248.687153 150.264763,242.743153 154.339763,236.909153 C159.926763,228.912153 165.856763,221.148153 172.254763,213.782153 C178.136763,207.010153 184.292763,200.464153 191.989763,195.731153 M153.515763,152.672153 C143.684763,150.690153 133.772763,149.411153 123.773763,148.678153 C108.142763,147.533153 92.4267633,146.700153 76.8117633,148.046153 C61.1967633,149.391153 45.6087633,152.983153 31.7317633,160.266153 C28.1347633,162.154153 24.3327633,164.731153 23.5377633,168.714153 C22.8327633,172.244153 24.7967633,175.824153 27.3957633,178.313153 C28.2457633,179.127153 29.6337633,179.124153 30.4587633,178.280153 C31.4107633,177.307153 31.4097633,175.823153 31.9967633,174.650153 C33.1177633,172.410153 35.6707633,172.026153 37.8467633,171.382153 C40.2547633,170.669153 42.1047633,170.371153 44.5207633,169.687153 C49.2677633,168.343153 54.0397633,167.082153 58.8577633,166.016153 C63.1747633,165.061153 67.5117633,164.200153 71.8587633,163.397153 C74.0397633,162.993153 76.2227633,162.605153 78.4087633,162.226153 C79.2047633,162.088153 84.2707633,161.618153 84.1737633,161.828153 C84.1297633,161.833153 84.0867633,161.836153 84.0437633,161.840153 C82.7467633,164.643153 81.4497633,167.445153 80.1487633,170.246153 C75.6247633,179.981153 70.9717633,189.647153 66.0477633,199.176153 C65.6677633,199.786153 64.0177633,202.165153 61.1417633,202.644153 C60.9597633,202.675153 60.8077633,202.713153 60.6777633,202.757153 C50.3707633,204.274153 40.1077633,206.844153 29.7817633,207.721153 C28.6237633,207.819153 27.4677633,207.875153 26.3087633,207.925153 C25.6177633,207.954153 24.3587633,207.705153 24.0637633,208.801153 C23.9547633,209.204153 24.0297633,209.636153 24.1047633,210.042153 C24.6247633,212.836153 24.8627633,216.237153 25.8687633,218.805153 C26.2737633,219.838153 26.9517633,220.748153 27.8387633,221.056153 C28.6777633,221.347153 29.5837633,221.077153 30.4437633,220.806153 C36.7947633,218.806153 42.9217633,215.926153 49.2977633,214.042153 C52.2847633,213.159153 55.2917633,212.402153 58.3097633,211.746153 C59.0747633,211.653153 58.9547633,212.343153 58.7477633,212.786153 C57.9567633,214.207153 57.1657633,215.629153 56.3587633,217.042153 C49.3817633,229.249153 42.0017633,241.216153 32.9827633,252.038153 C29.0477633,256.891153 24.8417633,261.856153 19.9617633,265.791153 C15.7947633,269.151153 10.7757633,271.737153 5.33576334,271.905153 C4.66376334,271.925153 0.26676334,271.350153 0.14576334,271.579153 C-0.82123666,273.404153 3.29576334,275.651153 4.47576334,276.385153 C6.59576334,277.701153 8.94076334,278.636153 11.3777633,279.162153 C16.2197633,280.209153 21.3207633,279.646153 25.9407633,277.925153 C32.7847633,275.375153 39.1667633,271.081153 43.9887633,265.590153 C48.5227633,260.425153 52.3787633,254.509153 55.9827633,248.670153 C63.0647633,237.198153 69.1407633,225.174153 74.6377633,212.879153 L74.6447633,212.877153 C74.6447633,212.877153 74.6607633,212.832153 74.6867633,212.768153 C74.7357633,212.658153 74.7837633,212.547153 74.8327633,212.437153 C75.2887633,211.472153 76.6287633,209.233153 79.2657633,208.997153 C82.3877633,208.854153 85.5087633,208.818153 88.6227633,208.908153 C95.3387633,209.103153 102.044763,209.514153 108.739763,210.068153 C109.080763,210.095153 109.421763,210.121153 109.762763,210.147153 C111.562763,210.283153 113.389763,210.369153 115.171763,209.888153 C115.919763,209.686153 116.849763,208.948153 116.587763,208.063153 C116.463763,207.643153 116.113763,207.438153 115.764763,207.297153 C115.710763,207.275153 115.656763,207.254153 115.602763,207.235153 C104.175763,203.070153 92.4927633,201.432153 80.6587633,201.395153 C79.9057633,201.295153 79.9217633,200.732153 79.9847633,200.441153 C82.4477633,194.506153 84.8447633,188.523153 86.9717633,182.461153 C89.1747633,176.184153 91.0967633,169.415153 94.0757633,163.456153 C94.1607633,163.250153 94.2707633,162.956153 94.3937633,162.623153 C95.1267633,161.416153 95.9467633,160.530153 96.8037633,160.519153 C107.058763,160.519153 117.304763,160.975153 127.560763,161.014153 C132.851763,161.033153 138.148763,160.955153 143.420763,160.501153 C147.324763,160.164153 151.471763,159.789153 154.964763,157.864153 C155.679763,157.470153 156.388763,156.980153 156.762763,156.254153 C157.874763,154.098153 155.117763,152.995153 153.515763,152.672153 M138.660763,181.321153 C139.643763,181.408153 141.537763,182.799153 142.228763,183.461153 C144.776763,185.903153 142.385763,189.143153 140.221763,190.922153 C138.495763,192.342153 135.676763,193.359153 133.437763,192.877153 C133.102763,192.805153 132.766763,192.685153 132.517763,192.450153 C132.238763,192.188153 132.103763,191.810153 132.083763,191.423153 C132.074763,191.261153 132.085763,191.097153 132.114763,190.939153 C132.311763,189.868153 133.055763,188.736153 133.558763,187.780153 C134.128763,186.696153 134.743763,185.635153 135.414763,184.610153 C136.042763,183.652153 137.263763,181.198153 138.660763,181.321153"></path>
        </g>
    </g>
</svg>