<?xml version="1.0" encoding="UTF-8"?>
<svg width="79px" height="79px" viewBox="0 0 79 79" version="1.1" xmlns="http://www.w3.org/2000/svg" xmlns:xlink="http://www.w3.org/1999/xlink">
    <title>Fruity</title>
    <g id="Fruity" stroke="none" stroke-width="1" fill="none" fill-rule="evenodd">
        <g id="_brand-icons/80x80/Fruity" transform="translate(5.000000, 5.000000)">
            <rect id="bounding-box" x="0" y="0" width="69.4893402" height="69.3082502"></rect>
            <path d="M54.5579288,56.3913776 C55.6949089,60.6779204 53.1316393,65.0972634 48.8281258,66.2617452 C44.5219489,67.4268953 40.1093441,64.8907293 38.9716285,60.6016141 C37.8346484,56.3150714 40.397918,51.8957283 44.7014315,50.7312466 C49.0076084,49.5660964 53.4202132,52.1022625 54.5579288,56.3913776 Z M45.063569,52.0692759 C41.5083549,53.0312763 39.3863015,56.6899167 40.3283767,60.2416459 C41.2698071,63.7907784 44.9134137,65.884959 48.4659883,64.9237158 C52.0212025,63.9617154 54.1432558,60.3030751 53.2011807,56.7513458 C52.2597502,53.2022134 48.6161436,51.1080328 45.063569,52.0692759 Z M38.8546443,43.8406169 C39.9916245,48.1271596 37.4283548,52.5465027 33.1248413,53.7109844 C28.8186644,54.8761346 24.4060597,52.3399685 23.268344,48.0508534 C22.1313639,43.7643106 24.6946335,39.3449676 28.998147,38.1804859 C33.3043239,37.0153357 37.7169287,39.5515018 38.8546443,43.8406169 Z M29.3602845,39.5185152 C25.8050704,40.4805156 23.683017,44.139156 24.6250922,47.6908852 C25.5665227,51.2400176 29.2101292,53.3341982 32.7627038,52.3729551 C36.317918,51.4109547 38.4399713,47.7523143 37.4978962,44.2005851 C36.5564657,40.6514526 32.9128591,38.557272 29.3602845,39.5185152 Z M57.6958381,37.6106508 C58.8328182,41.8971935 56.2695486,46.3165365 51.9660351,47.4810183 C47.6598582,48.6461684 43.2472534,46.1100024 42.1095378,41.8208872 C40.9725577,37.5343445 43.5358273,33.1150015 47.8393408,31.9505197 C52.1455177,30.7853696 56.5581225,33.3215356 57.6958381,37.6106508 Z M48.2014783,33.288549 C44.6462642,34.2505495 42.5242108,37.9091898 43.466286,41.460919 C44.4077164,45.0100515 48.051323,47.1042321 51.6038976,46.142989 C55.1591117,45.1809886 57.2811651,41.5223482 56.3390899,37.970619 C55.3976595,34.4214865 51.7540529,32.3273059 48.2014783,33.288549 Z M24.1924144,31.2933216 C25.3293945,35.5798643 22.7661249,39.9992073 18.4626114,41.1636891 C14.1564345,42.3288393 9.74382972,39.7926732 8.60611408,35.5035581 C7.46913394,31.2170153 10.0324036,26.7976723 14.3359171,25.6331905 C18.642094,24.4680404 23.0546987,27.0042064 24.1924144,31.2933216 Z M14.6980546,26.9712199 C11.1428404,27.9332203 9.02078706,31.5918606 9.96286224,35.1435898 C10.9042927,38.6927223 14.5478993,40.7869029 18.1004739,39.8256598 C21.655688,38.8636594 23.7777414,35.205019 22.8356662,31.6532898 C21.8942357,28.1041573 18.2506292,26.0099767 14.6980546,26.9712199 Z M36.8513105,1.56854606 L37.8002723,2.58994896 C36.8104567,3.48675129 35.9756481,4.41984209 35.2871681,5.3853307 C32.4097442,9.42048026 32.1947317,13.7078441 33.5568834,17.6912951 C33.7279171,18.191463 33.9107026,18.6386462 34.0925928,19.0256903 C34.1229666,19.0903227 34.1512272,19.1489734 34.1770809,19.2014795 C38.1459288,18.641203 41.9836608,21.106323 43.0333997,25.0637713 C44.1703798,29.350314 41.6071102,33.7696571 37.3035967,34.9341388 C32.9974198,36.099289 28.584815,33.5631229 27.4470994,29.2740078 C26.3455428,25.121016 28.717259,20.84337 32.7797904,19.5218574 L32.819339,19.6092089 C32.6166596,19.1779276 32.4148754,18.6842641 32.2269774,18.1347788 C30.7337376,13.7679763 30.9713448,9.03007311 34.1394882,4.58723365 C34.8866472,3.53945679 35.7882389,2.53172041 36.8513105,1.56854606 Z M33.5390399,20.7416696 C29.9838257,21.70367 27.8617724,25.3623104 28.8038475,28.9140396 C29.745278,32.463172 33.3888846,34.5573526 36.9414592,33.5961095 C40.4966733,32.6341091 42.6187267,28.9754687 41.6766515,25.4237395 C40.7352211,21.874607 37.0916145,19.7804264 33.5390399,20.7416696 Z M61.8566791,18.7669989 C62.9936593,23.0535417 60.4303896,27.4728847 56.1268761,28.6373665 C51.8206992,29.8025166 47.4080945,27.2663506 46.2703788,22.9772354 C45.1333987,18.6906927 47.6966683,14.2713496 52.0001818,13.1068679 C56.3063587,11.9417177 60.7189635,14.4778838 61.8566791,18.7669989 Z M52.3623193,14.4448972 C48.8071052,15.4068976 46.6850518,19.065538 47.627127,22.6172672 C48.5685575,26.1663997 52.212164,28.2605803 55.7647386,27.2993371 C59.3199528,26.3373367 61.4420061,22.6786964 60.499931,19.1269671 C59.5585005,15.5778347 55.9148939,13.4836541 52.3623193,14.4448972 Z M26.2868202,8.31545819 C27.0776621,9.57784826 27.6726946,10.9254898 28.1014967,12.2728604 C28.2516969,12.7448154 28.3706175,13.1839064 28.461677,13.5794902 C28.5172323,13.8208355 28.5515775,13.9969953 28.5680408,14.097293 L28.141661,14.8493968 C20.0668153,18.1212542 14.3738248,15.986058 10.8194354,10.4641209 C10.0010251,9.19267592 9.36595192,7.83512818 8.89012701,6.47779355 C8.72346346,6.00237033 8.58836938,5.5601086 8.48209186,5.1617786 C8.41733053,4.91905203 8.37606042,4.74216053 8.35560927,4.64190724 L8.79939204,3.85527402 C17.1839561,0.781798002 22.8998491,2.90896835 26.2868202,8.31545819 Z M9.87688468,4.94614979 C9.96832483,5.27576395 10.0810193,5.63763782 10.2165776,6.02433035 C10.6588783,7.28603426 11.2490152,8.54752505 12.0040522,9.72051608 C15.1313004,14.5788663 19.9518777,16.4772541 27.0676852,13.7792509 C26.9882405,13.4469555 26.8872128,13.0806832 26.7623877,12.6884613 C26.3665072,11.4445361 25.8173889,10.2008819 25.093101,9.04472934 C22.1269134,4.30991989 17.284434,2.41486178 9.87688468,4.94614979 Z" id="Combined-Shape" fill="#FFFFFF"></path>
        </g>
    </g>
</svg>