<?xml version="1.0" encoding="utf-8"?>
<!-- Generator: Adobe Illustrator 23.0.6, SVG Export Plug-In . SVG Version: 6.00 Build 0)  -->
<svg version="1.1" id="Stormio" xmlns="http://www.w3.org/2000/svg" xmlns:xlink="http://www.w3.org/1999/xlink" x="0px" y="0px"
	 viewBox="0 0 906.4 268.6" style="enable-background:new 0 0 906.4 268.6;" xml:space="preserve">
<style type="text/css">
	.st0{opacity:0.7;fill:#FFFFFF;}
</style>
<title>Stormio_White</title>
<path class="st0" d="M209.9,168.5c-11,0-21.2,0.7-31.2,3c-6.8,1.6-13.6,3.5-20.4,5.3l-0.4,0.1c-6.1,2.1-6.3,2.7-4.6,8.8
	c2.7,8.8,4,18,3.8,27.2c-0.3,8.2-4.4,14.7-10.7,19.8c-5.5,4.6-11.8,8.2-18.5,10.6c-9.4,3.1-18.8,6.6-28.5,9c-11.3,2.9-22.4,3.7-34,5
	c-12.8,1.4-26.1,0.9-38.8,0.2c-3.7-0.2-7.4-0.4-11-0.8c-6.3-0.6-20-2.5-14.3-11.9c2.8-4.5,8.1-7.8,12.4-10.7
	c9-6.1,18.1-12.2,27.5-17.5c12.8-7.3,25.8-14.3,39.1-20.6c12.4-5.9,25.4-10.6,38.2-15.8c3.2-1.3,6.5-2.4,10-3.6
	c-0.3-1-0.6-1.9-1-2.8c-4.9-9.1-10-18.1-14.8-27.4c-8.8-16.9-16.3-34.6-22.3-52.7c-3.6-10.9-3.6-22.2-3-33.5
	c0.9-16.5,9.9-28.4,22.2-38.3c7.9-6.3,17.1-10.2,26.5-13.8c17.7-6.7,36.6-9.3,55.5-7.8c9,0.7,18,2.6,27,3.9c5.8,0.9,11.5,2.3,17,4.2
	c2.7,0.8,4.5,2.3,5.1,4.6c1.1,3.6,1.7,7.4,1.7,11.1c0,4.3-0.4,8.6-1.2,12.9c-0.8,4.5-2.9,7.9-7.5,8.5c-2.7-0.3-3.7-2.5-5.8-3.7
	c-3.5-2-7-4.4-10.9-5.4c-6.6-1.9-13.4-3.5-20.2-4.6c-6.8-1.1-13.6-1.7-20.5-1.8c-13,0.1-25.9,1.8-38.2,6.7c-6.2,2.6-12.1,6-17.5,10
	c-8.6,6.3-12.9,14.7-13.5,25c-0.1,3.5,0.5,6.9,1.7,10.2c4.6,14.3,10.1,28.2,16.5,41.8c7.1,14.7,14.1,29.6,21.1,44.4
	c0.4,0.8,0.8,1.6,1.4,2.8c20.5-5.7,41.9-7.6,63.2-5.9l27.4-56.3c-5.2,0.9-10,1.8-14.9,2.7c-10.3,1.8-20.6,3.9-31.2,4.1
	c-5.4,0.1-10.9-0.4-15.1-4.4c-4.6-4.4-8.1-9.6-7.9-16.5c0-1.2,0-2.3,0-3.4c0-1.4,0-1.4,2.1-2.9c2.1,1.5,2.1,4,2.3,6.2
	c0.1,2.4,1.8,4.4,4.1,4.9c2.1,0.6,4.2,1,6.4,1.1c9.1,0.5,18.1-1.1,27.1-2.7c10.9-1.8,21.8-3.5,32.6-5.2c2.5-0.2,4.8-1.7,6-3.9
	c6-10,12.4-19.7,18.6-29.6c2.3-3.6,4.5-7.2,7-10.5c1.8-2.3,3.9-4.4,6.2-6.2c4.5-3.5,9.5-2.9,13.5,1.2c4.5,4.7,5,9.3,2.5,15.4
	c-2.3,5.6-6.3,9.8-9.5,14.7c-2.8,4.3-5.9,8.5-9.2,13.2c2.5,0,4.6,0.2,6.6,0c17-1.7,34-2,51.1-1c12.8,0.8,25.5,2.4,37.7,6.8
	c1.6,0.6,3.2,1.5,5.3,2.5c-2.6,1.4-4.8,1-6.8,0.9c-2.4-0.1-4.8-0.7-7.2-0.8c-7.3-0.3-14.5-0.9-21.8-0.6c-10,0.4-20,1.5-30,2.6
	c-10.1,1.1-20.2,2.5-30.3,4.1c-5.2,0.8-10.3,2-15.3,3.6c-1.3,0.4-2.3,2.2-3,3.5c-3.1,5.8-5.9,11.8-8.9,17.6
	c-2.9,5.5-6.1,10.9-9,16.4c-1.9,3.6-3.6,7.3-5.4,11c-2,4.1-4.4,8-6.2,12.2c-2.3,5.4-5.3,10.5-7.9,15.8c-1.7,3.3-3.5,6.5-5.1,9.8
	c-2,4.2-3.9,8.6-5.9,12.8c-2.3,4.7-4.8,9.3-6.9,14c-1.6,3.6-2.7,7.4-4.1,11.1c-2.1,5.6-4.4,11.1-6.6,16.7c-0.9,2.2-1.5,4.5-1.8,6.8
	c1.3-1.4,2.7-2.7,4-4.2c12.9-15.3,25.6-30.7,38.6-45.9c14.9-17.5,29.7-35,46.7-50.5c8.7-7.9,17.9-15.3,27-22.8
	c2.9-2.3,5.9-4.4,9.1-6.4c4.3-2.8,8-2.3,11.7,1.3c0.4,0.4,0.8,0.7,1.3,1.2c1.9,1.5,7.3-1.1,8.3-1.6c9.5-5,19.1-9.9,29.5-13
	c5.9-1.8,11.8-3.3,18-3.6c5.2-0.3,9.5,1.6,13.6,4.3c2.5,1.6,4.6,3.7,7.1,5.2c4.5,2.7,4.7,6.7,4.4,11.3c-0.6,11.1-5.3,20.9-10,30.6
	c-0.6,1.1-1,2.3-1,3.5c2.1-2,4.2-4.1,6.3-6c7.9-7.1,15.5-14.5,23.7-21.3c4.5-3.8,9.7-6.7,14.7-9.8c3.3-2.1,7.3-2.7,11-1.5
	c3.5,1,5,3.6,3.7,7c-0.5,1.2-0.9,2.4-1.4,3.6c-0.2,0.6-0.5,1.1-1,1.6c-2.5,1.6-5.1,3.3-7.8,4.7c-4.2,2.2-6.9,0.3-6.8-4.4
	c0-0.2-0.2-0.4-0.4-0.9c-2.4,1.6-4.7,3.4-6.9,5.3c-10.2,9.9-21,19.2-30.1,30.1c-4.1,4.9-8,9.9-11.7,15.2c-6.2,8.9-12.2,18-18.3,26.9
	c-3,4.3-4.9,8.4-8.5,13.5c-0.5,0.7-0.9,1.4-1.3,2.1c-4.7,8.4-7.9,11-10.8,18.1c-0.4,0.8-1,1.4-1.7,1.9c-0.5,0.4-1.1,0.5-1.7,0.2
	c-3.3-1.5-5.2-3.8-7.1-6.6c-1.6-2.5-3.8-4.6-5.5-7.2c-1.3-1.8-1.6-4.1-0.8-6.1c1-3.3,2.2-6.6,3.6-9.7c5.7-11.5,11.4-22.9,17.3-34.3
	c3.1-6,6.9-11.7,9.9-17.7c4.7-9.4,9.1-18.9,13.5-28.4c2.2-4.6,4.2-9.3,6-14.1c1.1-3.1,2-6.4,2.4-9.6c0.5-3.2-0.6-3.8-3.7-3.3
	c-10,1.4-19.7,4.6-28.6,9.5c-6.2,3.4-12,7.8-17.9,11.8c-1.3,0.9-1.9,2.5-1.4,4c0.8,3.6,2.4,6.3,1.8,11c0.1,0.6,0.1,1.3,0,1.9
	c-1.5,6.7-2.8,13.3-7,19.1c-6,8.3-11.6,16.7-18.4,24.3c-3.7,4.1-7.9,7.9-11.9,11.9c-1.5,1.5-3.1,3-4.8,4.4
	c-3.7,3.2-8.2,4.5-12.9,5.3c-21.2,3.4-19.3-29-11.7-40c4.4-6.3,9.1-11.6,8.9-11.8c-3.1,3.2-6.4,6.3-9.4,9.7c-2.8,3.1-5.2,6.6-8,9.8
	c-5.8,6.8-12,13.3-17.6,20.3c-4.8,5.9-9,12.4-13.5,18.5c-3.2,4.3-6.7,8.5-10,12.7c-2.9,3.6-5.8,7.2-8.8,10.7
	c-5.7,6.7-11.3,13.5-17.3,19.9c-3.1,3.2-7.5,4.8-11.9,4.5c-5.5-0.2-9.2-4.1-10.8-10.3c-1.4-5.3-0.5-10.5,0.7-15.6
	c3.3-14.7,7.8-29,13.6-42.9c2.5-6,5.3-11.9,7.9-17.8C205.7,177.7,207.7,173.3,209.9,168.5z M20.3,247c0.9,0,1.8,0,2.6-0.1
	c20.3-2,40.6-3.9,60.4-8.8c12.3-3,24.4-6.7,35.6-12.7c4-2.1,7.6-4.7,10.9-7.7c4.6-4.3,8-9.6,7.7-16.2c-0.2-5.4-2.3-10.4-4.6-15.2
	c-0.5,0-0.9,0-1.4,0c-1.1,0.3-2.2,0.6-3.3,1c-22.4,7.9-44.4,17.2-65.6,27.9c-10,5.2-19.7,11-29.1,17.3c-4.4,2.9-13.6,7.5-14.4,13.4
	c-0.1,0.6,0.4,1.1,1,1.2C20.3,247,20.3,247,20.3,247z M288.1,194.8c0.9-0.4,1.8-0.8,2.6-1.3c5-4.4,10.2-8.5,14.8-13.3
	c8.8-9.1,16.9-18.9,22.6-30.3c2.8-5.6,3.7-11.6,5.5-17.7c-4.2-0.5-7,1.3-9.8,3.5c-5.6,4.4-9.7,10.1-13.8,15.8
	c-1.7,2.4-3.6,4.6-5.2,7.1c-2.9,4.4-5.2,9.1-8.4,13.2c-4.5,5.8-6,12.6-7.9,19.3C288.4,192.3,288.2,193.6,288.1,194.8z"/>
<path class="st0" d="M497.3,160c-7.6,5.4-14.6,11.6-21,18.4c-4.2,4.4-8.7,8.6-12.9,12.9c-6.4,6.6-12.3,13.4-18.5,20.2
	c-2,2.2-3.8,7.8-5.6,7.3c-6.5-2.4-9.8-9.4-7-15.1c3.8-7.7,7.8-15.3,12.1-22.7c9.4-16.3,19-32.5,28.5-48.8c0.6-1.2,1.1-2.5,1.3-3.9
	c0.8-3.2,2.2-3.8,5.3-2.9c3.7,1.2,6.7,4,8.1,7.6c0.5,1.4,0.5,3,0.1,4.5c-1.3,4.5-3.4,8.8-6.3,12.6c-3.7,5.2-6.9,10.7-10.3,16.1
	c-1.8,2.9-3.7,5.8-5.5,8.8c-0.3,0.6-0.4,1.3-0.2,2c2.2-1.8,4.4-3.7,6.6-5.4c8.5-6.7,16.9-13.3,25.4-19.9c1.4-1.1,3.1-1.8,4.5-2.9
	c2.9-2.3,6-1.8,9.1-0.7c1.8,0.6,2.8,1.8,2.5,3.8c-0.4,2.5-0.6,5.1-1.5,7.4c-2.3,5.8-5.1,11.3-7.6,17c-0.5,1.4-0.9,2.9-1.3,4.4
	c4.8-5.2,8.9-9.8,13.2-14.2c16.3-16.7,33-33,52.6-45.9c2.8-1.8,5.8-3.3,8.8-4.6c1.5-0.7,3.2-0.8,4.8-0.4c5.1,1.6,9.5,4.3,12.1,9.3
	c1,1.8,1.4,3.9,1,5.9c-1.4,7.2-2.8,14.5-5.7,21.3c-3.9,9.1-7.9,18.2-11.9,27.3c-1.2,2.7-2.8,5.2-4.1,7.8c-1.2,2.4-2,5-3.3,7.3
	c-4.2,7.3-7.6,15-11.5,22.4c-2,3.9-2.7,8-4.9,11.8c3.3-1.5,6.3-3.5,8.9-6c7.7-6.8,15-13.9,21.9-21.5c8.8-9.7,18.4-18.8,27.8-28
	c3.7-3.6,7.6-6.9,11.2-10.5c1.6-1.7,3-3.5,4.2-5.4c1.4-2,2.7-2.6,4.7-1.6c4.8,2.4,9.1,5.3,10.1,11.1c0.1,0.6,0.4,1.3,0.2,1.8
	c-1.8,5.3-3.4,10.6-5.5,15.8c-2.8,7-6.1,13.7-9.1,20.6c-2.1,4.8-4.1,9.6-6.2,14.5c-0.3,0.8-0.3,1.6,0,2.4c3.3-4.1,6.7-8,9.9-12.2
	c10.7-13.8,22.7-26.4,35-38.8c16.7-16.9,35.2-31.8,55.2-44.6c3.5-2.3,6.6-5.2,10.1-7.4c3.3-2.2,7.1-3.6,11-4.1c1-0.1,2-0.4,2.9-0.7
	c1.8-0.6,2.4-0.8,3.2-0.2c1.3,1.2,1.4,3.2,0.2,4.4c0,0,0,0,0,0c-0.9,1-1.9,1.8-2.9,2.6c-8.5,6.9-18.5,12-25.6,20.6
	c-5.5,6.6-11.1,13-15.7,20.3c-3,4.7-5.6,9.7-7.8,14.8c-1.6,4.1-2.9,8.4-4,12.7c-0.8,2.8-1.2,5.7-1.9,8.6c-0.8,3.4-0.1,6.6,0.9,9.8
	c1.6,5.1,5.3,7.7,10.6,8.1c3.8,0.4,7.7-0.1,11.3-1.4c16.5-6.4,30.4-16.3,40.9-30.6c5.8-7.8,10.6-16.4,14.3-25.4
	c3-7.5,3.5-15.2-0.7-22.6c-1.3-2.3-2-2.6-4.6-2.1c-5.6,1.2-11.3,2.2-16.9,3.5c-1.6,0.4-3,1.4-4.5,2c-1,0.4-2.4,1-3.2,0.6
	c-1.2-0.7-2.1-1.8-2.5-3.1c-0.4-1.4,0.9-2.3,2.2-2.7c3.9-1.3,7.7-2.8,11.7-3.7c16.7-3.9,33.3-8.1,50.2-11.3
	c20.7-3.9,41.8-4.9,62.8-3c8.2,0.7,16.3,1.7,24.2,4.2c4.1,1.4,8.1,3.1,11.9,5.2c1.7,0.9,3,2.7,4.2,4.3c1.9,2.5,1.3,5-0.6,7.6
	c-0.6-0.5-1.3-0.8-1.4-1.2c-1.9-5.5-6.7-7.6-11.6-9.2c-7.9-2.5-16.2-3.9-24.5-4.2c-12.4-0.6-24.8-0.4-37.2,0.5
	c-13.8,0.9-27.4,3-40.8,6.2c-1.9,0.2-3.7,1.3-4.7,3c2.2,1.9,4.8,3.4,6.5,5.6c4.3,5.5,5.2,12.1,4.7,18.9c-0.5,7.8-3.4,15-6.8,22
	c-3.8,8.1-8.6,15.7-14.4,22.6c-5.5,6.4-12,11.9-19.1,16.4c-4.8,3.1-9.7,5.9-14.8,8.5c-13.2,6.9-24.8,7.9-38.8,3.1
	c-4.2-1.4-8.3-3.1-11.3-6.5c-10.1-11.2-8.3-32.1-2.5-44.8c5-11.1,10.7-21.9,18.9-31c0.6-0.8,1.1-1.7,1.6-2.7l-0.6-0.6
	c-0.6,0.2-1.3,0.4-1.9,0.8c-4.2,3.2-8.3,6.4-12.5,9.6c-7.5,6-14.5,12.6-20.8,19.8c-8.8,9.7-17.2,19.8-25.7,29.9
	c-3.4,4.1-6.7,8.3-9.9,12.5c-3.7,5-8.1,9.6-13.1,13.4c-1.2,0.7-2.5,1.1-3.9,1.3c-0.8,0.2-1.7,0.4-2.4,0.5c-3.4,0.6-7.2-2.5-9.6-4.6
	c-0.7-0.6-1.4-1.3-1.9-2.1c-0.7-0.9-1.5-1.8-2.2-2.8c-0.6-0.8-1-1.7-1.5-2.5c-0.6-0.9-1.2-1.9-1.6-2.9c-0.4-1-0.5-2-0.5-3
	c0.2-3.8,2-8.1,3.5-11.4c2.6-5.6,5.8-10.8,8.7-16.2c0.7-1.2,1.2-2.6,1.4-4.1c-1.4,1.4-2.8,2.7-4.1,4c-1.1,1.1-1.9,2.4-3.1,3.4
	c-5.8,5.1-9.8,11.7-14.9,17.4c-3.2,3.6-6.6,7.1-10,10.6c-5.6,5.9-11,12-16.8,17.8c-2.7,2.7-5.8,5.1-9,7.1c-2.1,1.5-4.9,1.3-6.7-0.5
	c-2.6-2.4-5.6-4.4-8-7.1c-4.1-4.4-5.8-10.5-4.6-16.4c1.1-6.7,4-12.7,7-18.6c7.7-14.8,15.6-29.4,23.2-44.2
	c4.3-8.4,8.1-17.1,12.1-25.7c0.9-2.2,1.6-4.5,2.2-6.8l-0.8-0.6c-2.2,1.3-4.6,2.5-6.7,4c-8.5,6.1-17.1,12.1-25.4,18.4
	c-2.7,2.2-5.1,4.7-7.3,7.3c-9.4,10.3-19.1,20.3-28.1,30.9c-5.9,6.9-10.8,14.6-16.1,22c-4.2,5.9-7.5,10.2-11.7,16.1
	c-1.3,1.9-2.7,4.9-4.4,6.2c-4.3,0.1-4.4-2.8-6.8-6.6c-1.5-2.3-3.8-5.2-3.4-6.9C477,194.7,487.5,177.6,497.3,160z"/>
<path class="st0" d="M657.2,113.5c3.2,0.7,3-0.3,5.6,2.9c4.8,5.9,7.3,21.3-5.1,20.3c-6-0.5-15,2.5-19.7-3.2l0,0
	c-2.7-4.4,0.4-8.2,1.4-9.6C644.5,116.6,648.1,113.5,657.2,113.5z"/>
</svg>
