<?xml version="1.0" encoding="utf-8"?>
<!-- Generator: Adobe Illustrator 23.0.6, SVG Export Plug-In . SVG Version: 6.00 Build 0)  -->
<svg version="1.1" id="Altissio" xmlns="http://www.w3.org/2000/svg" xmlns:xlink="http://www.w3.org/1999/xlink" x="0px" y="0px"
	 viewBox="0 0 665.5 217.7" style="enable-background:new 0 0 665.5 217.7;" xml:space="preserve">
<style type="text/css">
	.st0{opacity:0.7;fill:#FFFFFF;}
</style>
<title>Altissio_White</title>
<path class="st0" d="M316,139.2c-3.2,3.5-6.7,6.7-9.7,10.4c-7.3,9.1-14.4,18.4-21.6,27.6c-6.3,8.2-12.6,16.5-19,24.6
	c-3,3.8-6.3,7.5-9.8,10.8c-2.1,1.9-4.9,4.2-7.4,4.3c-6.3,0-12.7-6.8-13.7-13.4c-1.2-7.9,0.4-15.4,2.8-22.8
	c7.7-24.3,22.4-44.9,35.1-66.6c1-1.7,1.7-3.5,3.1-6.2c-0.9,0.4-1.8,1-2.6,1.6c-12,11.6-24,23.1-35.9,34.8
	c-10.3,10-20.3,20.3-30.7,30.2c-2.7,2.6-5.9,4.6-9.3,6.1c-4.2,1.8-9.6-0.7-11.7-3.8c-0.5-0.7-1-1.4-1.5-2
	c-6.3-7.4-3.1-12.4-0.2-18.7c4-8.8,8.2-17.4,12.9-25.8c9.1-16.2,18-32.5,27.9-48.2c11.4-18,23.6-35.5,35.7-53
	c6.2-9,13-17.6,19.8-26.3c3-3.9,7.1-3.7,12.9,0.4c4.4,3.2,9,6.5,6.7,13.2c-0.2,0.6-0.3,1.4-0.7,1.7c-5.7,3.9-8.7,9.8-12.6,15.2
	c-4.5,6.3-9.8,12-14.5,18.1c-4.1,5.4-7.9,11-11.9,16.4c-4.3,5.8-8.8,11.4-12.9,17.3c-5.4,7.6-10.9,15.2-15.7,23.2
	c-6.7,11.4-12.7,23.2-19.2,34.8c-4.7,8.4-9.5,16.7-13.9,25.5l66.2-59.7c-1.3,0-2.7-0.1-4-0.4c-3.4-1.1-6.7-2.5-9.9-4.1
	c-2.4-1.3-3.4-7.2-1.9-9.6c0.6-0.5,1.3-0.7,2-0.5c2.3,3.2,5.6,2.4,8.5,2.1c7.8-1,15.6-2.3,23.3-3.7c6.2-1.1,9.8-5.9,14-10
	c2.8-2.8,16.4-21,19.5-23.4c1.7-1.2,9.8,1.3,10.8,4.3c0.4,1.7-12.8,19.2-13.9,21.3c-0.6,0.9-1.2,1.7-1.8,2.5
	c5.6-0.7,10.5-1.4,15.3-2c19.4-2.4,38.9-4.2,58.2,0.3c3,0.8,6,2,8.7,3.6c2.3,1.2,4.9,2.3,6.1,4.7c0.3,0.5,0.1,1.1-0.4,1.4
	c0,0,0,0,0,0c-4.5-0.5-9.1-1.4-13.6-1.5c-9.4-0.4-18.8-1.2-28.1-0.4c-16.1,1.4-32,4-48.1,6c-7.8,1-11.3,6.9-14.6,12.9
	c-4.8,8.6-9.8,17.2-14.5,26c-3.4,6.4-6.6,12.9-9.6,19.4c-7.2,15.3-13.6,30.8-17.6,47.3c-0.3,1.1-0.4,2.3-0.8,4.7
	c3-4,5.3-7.1,7.7-10.2c17.4-22.6,34.9-45.1,55.6-64.9c3-2.9,6.2-5.7,9.5-8.3c0.8-0.6,2.9-0.6,3.4,0c1.4,1.7,3.4,4.1,3.1,5.8
	c-0.7,3.9-2.5,7.5-4,11.2c-3.3,7.9-6.7,15.8-10.3,23.7c-2.6,5.8-5.6,11.4-8.4,17.1c-3.1,6.1-5.1,6.1-10.5,2
	c-3.1-2.3-2.7-4.4-1.5-6.9c6.1-12.4,12.3-24.7,18.5-37.1C315.3,141.1,315.6,140.1,316,139.2z"/>
<path class="st0" d="M227.1,3.4c-0.8-1.5-4.7-3-6.2-2.3c-3.6,1.9-6.9,4.4-9.7,7.3c-3.6,3.3-6.7,7.1-9.1,9.6c-3.1-0.1-6-1.2-7.3-0.2
	c-9.4,6.7-18.7,13.4-27.5,20.9c-20.6,17.5-40.9,35.2-61,53.2c-12.5,11.2-24.7,22-36.2,34.1c-10.2,0.9-14.2,1.1-19.7,1.6
	c-2,0.2-4,0.3-6,0.3c-4.7-0.1-9.3-2-11.9,4.4c-2.5,5.3-3.5,8.8-3,10.6c0.8,3.1,3,3.4,5.6,3c2.3-0.4,9.5-1.3,18.8-2.5
	c-16.8,18.1-33.3,36.4-49.9,54.6c-4.8,5-5.3,12.7-1.2,18.2c0.8,1.1,3.2,1.2,4.9,1.4c0.6,0,1.4-1.2,1.9-2c1.3-2,2.4-4.2,3.8-6.1
	c4.5-6,9.4-11.6,13.9-17.6c2.8-3.7,5.6-7.3,8.7-10.8c9-10.3,18.3-20.3,27.5-30.4c2.8-3.1,5.6-6.3,8.5-9.5
	c18.1-2.2,36.8-4.5,40.7-5.1c7-1.1,14-1.9,21-2.7c5.4-0.6,10.8-0.8,16.2-1.2c0.2,0.7,0.3,0.9,0.3,1.1c-0.1,0.6-0.4,1.2-0.5,1.8
	c-1.7,9.6-4.1,19.2-5,28.9c-1.4,14.3,0,27.1,12.9,37.8c4,3.3,11.7,4.3,14.7,1c1.2-1.4,2.6-3.9,2.5-5c-0.2-0.6-2.7,0-4,0.1
	c-4.1,0.5-6.3-1.3-7-5.5c-1.7-10-0.8-19.9,1.6-29.5c2.8-11.2,5.2-17.5,8.9-28.4c2.1-6.4,1.3-6,4.9-6.9c1.6-0.4,3.3-1,3.9-1.2
	c2.4-0.6,4.8-1.4,7-2.4c1.3-0.5,1.2-1.3,1.3-2.3l0.3-2.5c0-0.4-0.2-0.7-0.6-0.8c-2.3-0.3-4.9,0.3-9.4,0.2c-1.9,0-2.4-0.9-1.8-2.6
	c1.9-4.9,2.8-8,4.7-12.9c3.7-9.7,7.5-19.3,11.2-29c2.6-6.8,4.8-13.7,7.7-20.3c5-11.3,10.3-22.4,15.8-33.5c1.8-3.6,4.8-6.7,6.7-10.2
	C227,8.2,228,5.1,227.1,3.4z M186,45.5c-10,24-20.1,48-30.2,71.8c-0.5,1-1.4,1.7-2.5,1.9c-13.4,1.1-26.9,1.8-40.3,3.3
	c-3.3,0.4-13.7,1.3-25.6,2.4c4.5-4.9,9.1-10,14-14.7c8-7.7,16.4-15.1,24.9-22.3c4.2-3.5,8.5-6.8,12.8-10.1c5-3.8,9.8-7.8,14.7-11.6
	c5.4-4.2,10.9-8.4,16.2-12.7c4.3-3.4,8.5-7,12.8-10.4c0.9-0.5,1.9-0.5,2.8-0.2C186.1,43.2,186.3,44.8,186,45.5z"/>
<path class="st0" d="M485.9,140.2c-1-1.9-2.2-3.6-3.7-5.1c-0.7-1-2-1.3-3.1-0.7c-0.1,0.1-0.2,0.1-0.3,0.2c-1.7,1.6-3.1,2.9-4.7,3.5
	c-17.3,6.2-34.6,12.2-52.3,18.3c0-1.2-0.1-2.7,0-4.2c0.2-3,0.3-6,0.5-9c0.9-13.4,0.9-32.2,16-37.9c2.9-1.1,8.5-2.2,11.2-0.2
	c2.1,1.5,2.3,4.3,3.9,6.2c2.5,2.9,5.5,1.1,8.6-0.4c2.5-1.2,2.2-6.1,1-9.7c-1.7-4.5-5.9-7.7-10.7-8c-7.6-0.6-14.5,0.9-20.8,5.9
	c-8,6.3-14.5,13.3-17.4,23.3c-1.2,4.4-1.9,8.6-7.1,11.3c-14.6,7.5-28.7,16-42.9,24.1c-2.2,1.3-2.8,0.7-3-1.7
	c-0.7-7.6-1.5-15.2-2.4-22.8c-0.9-7.1,2.5-13.8,8-15.9c6.6-2.5,11.1-4.5,17.8-3c5,1.1,7,10.7,12.1,8.4c5.4-2.4,0.2-9.2-2.2-12.2
	c-3.6-4.7-9.5-7-15.4-6.1c-17.2,2.1-31.7,12.1-32.3,31.5c-0.3,9.8,0,19.6-0.1,29.4c-0.1,1.1-0.7,2.2-1.6,2.9
	c-5.2,3.4-10.5,6.9-15.9,10c-12.6,7.1-21.3,17.8-27.6,30.6c-1.3,1.6,0.8,3.1,1.4,3.2c4,0.6,8,0.8,12,0.6c5.4-0.3,10.8-1,16.1-2.1
	c8.6-1.8,17.5-3.2,25.2-8c1.7-1,3.7-3.1,3.8-4.8c0.9-7.8,1.2-15.7,1.6-23.5c0.2-4-0.8-8.4,3.3-11.2c1.8-1.3,3.7-2.4,5.6-3.6
	c7.8-4.6,15.6-9.1,23.5-13.6c4.3-2.5,8.8-4.7,13.2-7.2c2.6-1.5,2.6-1.5,2.2,1.7c-0.5,4.7-1.4,9.4-1.4,14.1c0.1,3.2-1,6.4-3,8.9
	c-2.3,2.7-5.9,4.2-8.9,6c-6.8,4.1-12.6,7.8-19,14.3c-2.7,2.8-5.2,5.8-7.3,9c-1,1.5-0.3,3.1,1.8,3.9c10.5,4.2,22.3,3.3,33.3,2.6
	c3.8-0.2,10-2.3,11.2-6.9c1.8-6.9,3.1-11.6,3.3-18.7c0.2-8.9,5-13.2,12.1-16.2c9.8-4.1,19.7-8.1,29.5-12c2.7-1.1,7.5-2.6,11.1-3.8
	c-0.8,3.2-3,6.5-4,8.5c-5,9.6-10.4,19.1-15.4,28.8c-0.8,1.9-1.1,4.1-0.8,6.1c0.3,3,0.9,5.9,2,8.7c0.8,1.9,2.5,3.4,4,4.8
	c1,0.5,2.1,0.7,3.2,0.7c3.1,0.2,3.4-1,4.2-3c1.8-4.7,3.5-9.5,5.3-14.2c2.7-7,5.4-13.9,8.1-20.9c2-5.1,4.5-10.9,6.4-16
	C486.1,143.7,486.5,141.6,485.9,140.2z M335.4,196.3c-4.6,1.8-9.8,1.9-14.8,2.5c-2.1,0.4-1.7-1.6-1.5-1.9c1.7-2.8,3.3-5.7,5.6-8
	c4.1-4,8.5-7.8,13.1-11.3c2.1-1.6,4.8-2.4,7.4-3.2c0.5-0.2,2,1.1,2.2,1.9c0.2,1.8,0.3,3.6,0.1,5.4
	C348.6,191.2,344.5,192.8,335.4,196.3z M406.8,181.6c0.2,2.8-1.1,3.9-3.7,4c-1.7,0.1-5.1,0.2-5.1,0.1c-2.6,0-5.2-0.1-7.8,0
	s-2.6-1.8-1.4-2.8c3-2.5,6.1-4.9,9.3-7.2c2-1.5,4-2.7,6.3-3.8c0.8-0.4,1.5-0.8,2.3-1.1c0.2,1,0.3,2,0.4,3
	C407,176.4,406.7,179,406.8,181.6z"/>
<path class="st0" d="M541.2,107.1c-4.2-2.2-8.7-3.7-13.3-4.5c-5.1-1.3-7-1.2-11.3-2.3c0,0-5.5-3.8-2.9-4.4c4.7-1.2,22,1.3,32.7,3.7
	c22,5,37.2,2.4,55.6,3.4c12.3,0.7,24.7,0.7,37,0.6c10.5-0.2,17.6,0,26.6-5.8c0,1.3-1.1,6.6-4.4,9.1c-8.2,4.7-11.7,4.1-20.2,4.7
	c-6.6,0.5-12.9,0.5-19.5,0.5c-10.6-0.1-21.2-0.8-31.8-1.3c-5.3-0.2-9.5-0.4-14.8-0.4c-1.2,0-3.9-0.4-4.4-0.2
	c0.5-0.3,7.9,10.9,8.6,12.2c2.6,4.7,3.6,10.1,2.8,15.4c-1.5,11.6-8.7,21.9-15.4,31.2c-8.7,12.1-18.4,20-31.4,27.2
	c-6.4,3.5-13.2,6.1-20.3,7.7c-4.6,1-9.9,0-14.7-1.1c-5.4-1.3-8.8-5.8-11-10.6c-8.3-17.3-2.9-32.9,7.7-46.9
	c6.4-8.3,13.6-15.9,21.6-22.7C525.3,116.9,533.4,112.4,541.2,107.1z M509.6,185.2c3.4,0.1,6.4-1.2,9.6-2.7
	c16.1-7.4,28.3-19.2,37-34.6c5.5-9.8,5.9-19.3-0.7-28.5c-1.2-1.7-2-5.5-5.7-3.5c-5.5,3-11,5.9-16.1,9.4c-5.8,4.1-11,9-15.3,14.6
	c-3.6,5.2-7.1,9.3-9.5,14.6c-3.3,7.6-6.6,15.5-7.9,24c-0.6,4.1,0.7,5.4,4,6.1C506.2,184.9,507.5,184.9,509.6,185.2z"/>
<path class="st0" d="M498.3,104c-0.1,5.9,0.1,6.6-2.5,10.2c-2.7,3.4-6.7,5.6-11,6c-4.5,0.2-7.6-5.3-6.8-9.3c0.7-3.4,2.9-6.6,5.2-9.4
	c2.1-2.6,7-6.8,10.7-5.8S498.3,100.9,498.3,104z"/>
<path class="st0" d="M341.6,106.2c2.3,1.3,3.1,4.3,1.8,6.6c-0.4,0.7-1,1.3-1.7,1.8c-2.6,1.5-5.5,2.5-8.6,2.8
	c-1.3,0.1-3.6-0.8-3.8-1.7c-0.6-2.1-0.9-4.9,0-6.7c2.2-4.7,7.7-5.6,12.2-2.9C341.5,106.1,341.5,106.1,341.6,106.2z"/>
</svg>
