<svg height="128" viewBox="0 0 300 128" width="300" xmlns="http://www.w3.org/2000/svg" xmlns:xlink="http://www.w3.org/1999/xlink"><mask id="a" fill="#fff"><path d="m70.2363271 0-70.07553148 80.8063456 35.03776578 8.9574766 22.871378-1.9540732-21.6164134 58.753709 195.166629 28.83909 65.76652-15.663115-6.468137-50.640211-67.877895-28.2928764v-18.9971784l42.94676-51.526697z" fill="#fff" fill-rule="evenodd"/></mask><g fill="#fff" fill-rule="nonzero" mask="url(#a)" transform="translate(11 -19)"><path d="m111.821395 23.4964341c-.168682-.7044961-9.272558 8.1364341-9.227907 8.1513178 4.167442-.496124 6.63814-.5407752 6.63814-.5407752.309695-.5315322.586393-1.0816154.828527-1.6471317 1.379225-2.9767442 1.92-5.6607752 1.751318-5.9534884m-3.066047 8.7913178c-.833488.0297675-4.365891.1537985-6.112248.5755039-1.88031.4564341-2.351628.9922481-.540775 2.2772093 1.28.8979845 2.058915.9376744 3.472868.6102326 1.086512-.2530233 2.103566-1.4883721 3.180155-3.4728683m-21.953488-1.2750387c.4068217-.4961241 3.1355039-3.2446512 2.8031008-3.6613954-.9475969-1.1906976-8.7665117 5.407752-9.6942636 6.2362791-.8136434.7293023-6.9209302 6.9457364-6.3355039 7.3327132 3.2396899-1.5379845 6.1965892-4.107907 9.0244961-6.275969 1.4883721-1.1410853 3.0164342-2.1779845 4.2021706-3.6316279m25.252713 1.0964341s-1.622325 4.4651163-5.536744 6.6083721c-2.207752 1.2006201-4.703256.4564341-6.375194-1.443721-.9922479-1.1212403-.5953487-1.6818604-1.7662014-.60031-1.0517829.992248-2.0589147 1.9844961-3.0908527 2.9767442-1.7413953 1.6719379-3.5423256 3.2694573-5.3531783 4.8570542-1.3593798 1.1956589-3.3289922 3.2545737-5.3283721 2.7931783-1.9993798-.4613953-3.820155-1.8852713-4.2021705-4.0731783-.4217054-2.396279 1.8158139-4.9612403 2.788217-7.0251163-.1587597.3423256-9.1485271 9.4263566-11.7184496 7.7097675-2.7435659-1.8356589-.5258914-5.655814 1.0815504-7.2831008 2.4260465-2.4458915 5.1795349-4.4651163 7.9379845-6.4942636 2.4806202-1.8058914 4.9910078-3.6415503 7.9379845-4.6089922 1.6868217-.5506977 5.2489923-.9227907 6.0725581 1.1410853.5258915 1.3196899-.2827907 2.4806201-.8979845 3.5026356-.8136434 1.3643411-1.5528682 2.7931783-2.3367441 4.1823256-.7293024 1.2948837-1.3941086 2.5947287-1.9844962 3.9689923-.4266666.9475969-1.7066666 2.808062-1.4139534 3.8945736 2.0737984-.7541085 4.2517829-3.1305426 5.8939534-4.5544186.9922481-.8483721 1.939845-1.7116279 2.8924031-2.579845.4661149-.3451269.8891838-.7448771 1.2601551-1.1906976.1934884-.2976745-.0297675-.7243411.1190697-.9922481.5308528-.9277519 2.108527-1.0666667 2.108527-1.0666667s1.537985-1.4089922 2.287132-2.1234108c2.197829-2.0787597 4.425426-4.1128682 6.796899-5.9931783 1.031938-.8235659 2.108527-1.5875969 3.150388-2.4012403.873178-.67969 1.404031-1.691783 2.247442-2.3565892.625116-.496124 2.187907-.8731783 2.679069.0793799.367132.7044961-1.036899 1.5578294-1.270077 2.0986046-1.944806 4.4651163-2.391318 7.2086822-3.552248 9.8827907 0-.0446511 3.84.0248062 3.84.0248062s-.188527.4961241-1.691783.6846512c-.684651.0893023-2.579845.4018604-2.579845.4018604m30.337984-4.688372c.094264.9624806 3.730853-.8831008 4.465117-1.2849613 1.12124-.6003101 4.812403-2.4806201 4.88186-3.8995349 0-2.168062-3.810232.3423256-4.574263.8533334-.764031.5110077-4.842171 3.3091473-4.772714 4.3311628m44.611473-4.3410853c-3.075969-1.8306977-5.457364-1.2651163-8.667287.2232558-3.094573 1.5078326-6.019972 3.3405726-8.726821 5.4672868-4.961241 3.7705427-8.994729 8.6772093-12.819845 13.5342636-.828527 1.0468217-1.88031 3.2992248-3.145427 3.7705426-1.537984.5804651-1.810852-.888062-2.28217-1.9844961-.778915-1.8356589.253023-3.6217054 1.022015-5.3184496.496124-1.0567442 2.163101-3.4182946 1.666977-4.6189147.064496.1141085-6.51907 4.336124-7.44186 4.8570542-2.450853 1.3693023-5.244031 2.8179845-7.972713 3.5125582-1.121241.2877519-2.540156.5308527-3.67628.1736434-1.418914-.4465117-1.771162-1.8058915-2.158139-3.1057365-.386977-1.2998449-.243101-1.9150387-1.488372-.8979845-1.245272 1.0170543-2.168062 2.1085272-3.314109 3.1057365-2.594728 2.272248-5.035659 4.6784496-7.729612 6.8713178-1.830698 1.4883721-5.521861 5.3829457-7.937985 3.1156589-4.713178-4.3906977 1.101396-13.6285271 3.542326-17.8604651 1.929922-3.4182946 12.12031-18.4111628 13.167132-19.6514729.917829-1.0865116 2.138294-1.9844961.099225-1.8058914-3.428218.3224806-6.821706 1.0964341-10.235039 1.5677519-3.532403.496124-7.868527 1.2006202-11.262016-.2579845-2.932093-1.260155-4.599069-4.5544186-2.857674-7.49147287.525891-.88806201 1.984496-1.89023255 1.830698-.07937984-.094264 1.21054263-1.59752 2.01426357-1.071628 3.51255814 1.022015 2.90728687 6.896124 2.10356587 9.148527 1.98449617 3.582015-.1984497 7.134263-.8979845 10.676589-1.4139535 1.577674-.2282171 3.16031-.42170546 4.752868-.56558143.962481-.08930233 1.453644.13891473 2.366512-.12899225.590387-.17364341 2.381395-3.06108527 2.976744-3.30418605.595349-.24310077 2.510388-.74914728 2.976744-.13395348.75907 1.0220155.724341 2.97674418 1.686822 2.97674418 2.044031-.03968992 7.44186-.49612403 9.485891-.44651163 2.18417.02934688 4.36249.23340886 6.514109.61023256 1.294884.23813954 4.80248.59534884 5.60124 1.6967442.094264.1289922-2.48062-.1488372-2.674108-.1786047-2.111832-.2745562-4.236404-.4401503-6.365272-.496124-2.013349-.0306381-4.026631.0654692-6.027907.2877519-1.895193.1934884-7.243411.8384497-8.538294 2.083721-2.03907 1.9596899-16.372093 25.1733333-19.661396 31.2905426-.649922 1.2155039-1.984496 3.2248062-2.073798 4.6437209-.109147 1.7066667 1.984496-.496124 2.748527-1.0567441 3.43814-2.4806202 6.59845-5.3432559 9.857985-8.0421706 1.418914-1.1906977 3.145426-2.1829457 3.899534-3.9392248.754109-1.7562791 1.334574-3.4728682 2.445892-4.9612403 2.238352-3.0350158 4.87493-5.7550292 7.83876-8.0868217 2.76341-2.1928682 6.390077-3.8648062 9.853023-2.2672868 3.899535 1.8058914-.669768 4.8074418-2.67907 6.0973643-1.688579 1.080403-3.511705 1.9344202-5.422636 2.540155-1.577674.4961241-3.472868.1835659-4.539534 1.3792249-1.349444 1.5042128-2.506067 3.1708153-3.443101 4.9612403-.391938.7739535-2.187907 4.1327131-1.657054 4.9860465.937674 1.4883721 7.610542-1.671938 8.88062-2.3516279 3.137311-1.7247553 6.181153-3.6143224 9.118759-5.6607752 1.39907-.9575194 3.125582-1.7612403 3.968993-3.2893024 1.061705-1.9844961 2.088682-3.9689922 3.190077-5.9534883.87814-1.567752 1.547907-3.3339535 2.445892-4.8421706.302271-.5364579.913316-.8200149 1.518139-.7044961 1.294884.267907 3.219845 1.6272868 3.373644 3.0263566.193488 1.776124-1.488373 3.9689922-2.406202 5.3382946-1.175814 1.7810852-2.316899 3.6167442-3.35876 5.4573643-.451473.7987597-1.850542 2.6443411-1.617364 3.4083721.396899-1.1162791 1.910078-2.3417054 2.723721-3.1851163 1.031938-1.0666666 2.138294-2.1283721 3.23969-3.1206201 2.526726-2.2542425 5.325007-4.1842069 8.329922-5.7451163 2.822946-1.4586047 6.017985-3.2396899 9.322171-2.7733333 1.422336.1339772 2.709637.8987101 3.507597 2.0837209.709457 1.1113178.714418 1.8356589-.496124 1.1113178m-103.0400003-10.9345736c-8.0152643 9.4227025-15.1387312 19.5689509-21.2787597 30.308217-1.632248 2.8775194-3.2 5.8046512-4.7627907 8.7268217-.9575193 1.7860465-3.1900775 6.295814-5.1398449 3.0610853-1.5627907-2.5947287.1488372-5.8244961 1.2899225-8.2455814 1.1063565-2.3317829 2.664186-4.5494574 4.0186046-6.752248 3.8747287-6.3106977 8.711938-11.8722481 13.1472868-17.7662016 2.1978295-2.9221705 4.8620155-5.5565891 7.3227907-8.2555039 1.6818605-1.8505426 3.9689923-5.10511625 3.9689923-5.10511625s-6.419845 4.39565895-13.7922481 10.68651165c-4.852093 4.1376744-9.6347287 8.6275969-14.0403101 13.2167442-2.3813953 2.4806201-4.6933333 5.0158139-7.2781395 7.3029457-1.2403101 1.0964341-2.292093 2.2772093-3.9243411 1.9100775-1.3551256-.2750294-2.4769647-1.2211137-2.9767442-2.5103876-1.2303876-3.1305426 1.1857365-7.0052713 2.7286822-9.5751938 1.8505426-3.075969 4.2666667-5.7996899 6.543876-8.5581395 2.6096124-3.1503876 5.1547287-6.3603101 7.9032558-9.3866667 2.4806201-2.74356587 5.76-4.91162789 8.1215504-7.7196899-.5655814-.26790698-2.4806202 1.13612403-3.0263566 1.48837209-1.2551938.72434108-2.4012403 1.6124031-3.6018605 2.42108527-2.4062015 1.62232558-4.5345736 3.59193794-6.7224806 5.50697674-4.1724031 3.6465116-8.0570543 7.6353488-11.8524031 11.6489923-4.2368992 4.4651162-8.1513178 9.1584496-12.1996899 13.7972093-3.9689923 4.5494573-7.5212403 9.2775193-12.6362791 12.6610852-4.0235659 2.6641861-12.09054263 4.8074419-14.88372092-.8582945-.20341086-.4167442-.70449613-1.3494574-.18356589-1.6372093.52093023-.287752.82852713.5953488 1.10635658.8285271.86634656.8113367 1.95747033 1.3422004 3.13054264 1.5231008 2.62449612.2579845 5.20930229-1.7314729 7.20868219-3.1950388 4.7776744-3.5026357 8.5730232-8.3100775 12.6313178-12.5767442 4.3857364-4.6089922 8.6821706-9.3122481 13.2911628-13.6930232 4.7024819-4.5692275 9.6636302-8.864472 14.8589147-12.86449617 4.6189148-3.47286822 10.0862016-7.03007752 16.0248062-7.55596899.7590698-.06945736 1.795969 1.43379845 1.8009303 1.89023256.0248062 1.87038759-1.443721 3.02635659-2.7137985 4.12775194-2.949725 2.60165221-5.6549769 5.46799046-8.0818605 8.56310076-1.404031 1.7662016-13.7872868 20.0186047-13.2117829 20.3410853s5.8790698-5.1993799 6.5686822-5.8096124c2.396279-2.1085272 4.7429457-4.2865116 7.2086821-6.3057365 5.0852714-4.1624806 10.0911628-8.4787596 15.379845-12.4031007 2.9767442-2.20775197 6.0179845-4.38573646 9.1931783-6.32558143 1.5085208-.83057431 2.9694069-1.74487033 4.375814-2.73860465 1.136124-.88310077 1.88031-2.09860465 3.4728682-1.82573643 3.572093.62015504-1.7860465 4.04341085-2.8427907 5.13984496-2.063876 2.14325581-4.2120931 4.24682171-6.1320931 6.52403105" opacity=".5" transform="translate(-137 84.547954)"/><path d="m80.9029457 21.6806202c.1443148.0518886.3021969.0518886.4465117 0 2.044031-.8235659 3.9689922-1.8505427 5.3581395-3.5720931.4266667-.5258914-.3820155-1.2155038-.7789147-1.671938-.3175194-.3671317-.7937985-1.0269767-1.4883721-.496124-1.6471318 1.2452713-2.6244961 3.0462016-3.8499225 4.6437209l-.0545736.0744187c-.1208619.1812216-.1482764.4091411-.0738353.6138541.0744411.2047129.241853.3617865.4508895.4230451m47.3153488 1.8257364c.372098.0226173.742732-.0635768 1.066667-.248062 1.170852-.6648062 2.396279-1.2452713 3.572093-1.9150388.352248-.1984496.902945-.6151938.828527-.868217-.243101-.8384496-.992248-1.3196899-1.756279-1.6620155-.555659-.248062-1.146047-.3869768-1.51814.0396899-.992248 1.1212403-1.944806 2.2623256-2.847752 3.4728682-.257984.3373644-.873178.6846512-.580465 1.1658915.377054.620155.858295-.1289923 1.235349.0347287m32.977364 17.1658914c-1.407627.419842-2.775588.96271-4.088062 1.6223256-1.214297.6763461-2.375282 1.4442546-3.472868 2.2970543-.228217.1736434-.71938.5258915-1.210542.9475969-.313481.2606744-.603957.547831-.868218.8582946-.386976.496124-.605271.9426356-.367131 1.3048062.21642.2841448.568857.430046.92279.3820155.19845 0 .401861 0 .60031-.0297675.969478-.0884294 1.912802-.3630042 2.778295-.8086821 2.748527-1.4089923 4.747907-3.9044962 6.449612-6.4496124.168683-.2530233.029768-.3770543-.714418-.1339535m41.069147-20.9463566c-.694574 6.7274418-7.486512 10.7956589-13.16217 13.1224806-5.978295 2.4508527-12.403101 3.4728682-18.564962 5.3035659-.684651.1984496-1.810852.496124-2.455814.7491473-.188527.0694573-.496124 1.2006201-.659845 1.7116279-.064496.2232558-.168682.4266666-.248062.6350387-1.225337 3.205329-3.70252 5.7738613-6.861395 7.1144186-1.984496.8979845-4.093023 1.7413954-6.285891 1.8604652-1.320007.109388-2.641685-.1902847-3.785427-.8582946-.952558-.6102326-1.915039-1.671938-1.284961-2.8527132.458405-.8140912 1.071935-1.5304374 1.805891-2.1085271 1.174011-.945832 2.456414-1.7485831 3.820156-2.3913179 2.364822-1.1585831 4.800715-2.1660817 7.293023-3.0164341.619926-.1206053 1.102452-.6090395 1.215504-1.2303876 0-.0992248.759069-2.6195348.992248-3.6068217.099225-.4018604.198449-.8037209.302635-1.2055814.648047-2.8396086 1.592556-5.603297 2.817985-8.2455814-1.610493 1.2362928-3.150864 2.5613431-4.613954 3.9689923-.759069.7243411-1.488372 1.4536434-2.212713 2.1978295-3.651473 3.7705426-7.312868 7.536124-10.835349 11.4108527-1.915019 2.1987072-4.161362 4.0851664-6.657984 5.5913178-1.180775.6846512-2.778295.8533333-3.616744.0942636-.83845-.7590698-1.761241-1.9497675-1.151008-3.5572093 1.637209-4.3361241 4.326201-8.0620155 6.752248-11.9367442.992248-1.5925582 2.192868-3.0511628 3.284341-4.5494574-1.949767.9178295-3.626667 2.3516279-5.422636 3.6068217-5.248992 3.6613954-9.396589 8.3696124-12.983565 13.5888372-1.190698 1.7265116-2.168063 3.5968992-3.656435 5.1150388-.2409.2865903-.604775.4400585-.978151.4125465-.373377-.0275119-.710827-.2326567-.90712-.5514612-1.488372-1.8257365-1.175814-3.6514729-.173643-5.7252714 4.023566-8.3547286 9.237829-15.9206201 14.923411-23.1937984.764031-.9922481 1.275038-2.1829458 2.48062-2.7981395.595349-.3026357.952558 0 1.299845.2679069 1.518139 1.0914729 1.458604 3.2992248.357209 4.9612403-3.036279 4.5593799-6.801861 8.6027907-9.396589 13.459845-.064496.1190698-.114109.248062-.372093.8533333 3.338915-3.8846511 7.04-6.5587597 10.875039-9.0741085 1.929922-1.260155 3.879689-2.4806202 5.864186-3.6713178.52093-.3075969 1.324651-.3820155 1.726511.124031.605272.7689922 1.151008 1.7215504.496124 2.7286822-1.736434 2.7534883-3.929302 5.204341-5.397829 8.1413953-1.686822 3.3637209-3.701085 6.5686822-5.124961 10.3044961 1.977827-1.1138799 3.752612-2.5548444 5.248992-4.2617054 5.422635-5.7054264 10.939535-11.3116279 16.778915-16.5854264 1.061705-.9575193 2.128372-1.9100775 3.214883-2.8427907 2.852713-2.4806201 5.571473-5.204341 9.267597-6.4992248l.104186-.0297674c.961931-.3042341 2.006887.091987 2.525272.9575194.118276.1665299.222807.3424073.312558.5258915.312558.64-.496124 1.3097674-1.488372.992248h-.044652c-1.900155-.5655814-3.08093.6846512-3.968992 1.9596899-.503773.7257737-.954753 1.4868025-1.349457 2.2772093-1.984496 3.8846512-3.130543 8.3448062-3.750698 12.6362791-.084341.5854264-.168682 1.175814-.262946 1.7662016v.0942635c4.802481-1.384186 9.674419-2.6592248 14.432248-4.212093 7.441861-2.4210853 15.146667-6.3702326 18.897365-13.564031.292713-.5655814.555659-.3026357.52093.0297674m-98.376434 21.9832558c-2.660512.8028816-5.2533947 1.814819-7.7544187 3.0263566-4.5196899 2.2127132-9.0939535 4.3212403-13.2266667 7.2384496-2.4508527 1.7265117-5.1646511 3.4728683-7.0598449 5.8542636-.4273022.449855-.5480158 1.1098854-.3075969 1.6818605.2387711.3399976.5903428.58434.992248.6896124 1.7215504.6052713 3.4232558.0644961 5.0852713-.4514729 8.071938-2.4806201 14.3875969-7.6700775 19.4579849-14.3032558.878139-1.1460465 1.736434-2.3020155 2.817984-3.735814m19.810233-4.7925581c-.580465.9178295-1.170853 1.8306977-1.666977 2.7931783s-.79876 1.9844961-1.255194 2.9271318c-.138915.2976744-.342325.888062-.669767 1.0418605-1.155969.5506976-1.984496-.7640311-1.160931-3.3041861.143876-.4415504.292714-.8831008.431628-1.3246512.074419-.2182945.148838-.4365891.218295-.6598449.029767-.1041861.064496-.2133334.084341-.3224806.019845-.1091473.03969-.1289923-.089302-.163721-.235753-.0196147-.473107-.0045711-.704496.0446512-.218295 0-.441551.0545736-.659845.0942636-.87814.1587596-1.746357.4167441-2.604652.620155l-3.428217.7888372c-.699534.1537985-.992248.6945737-1.260155 1.2353488-1.566943 2.993045-3.34422 5.8711719-5.318449 8.6127132-1.078926 1.4845078-2.238282 2.9088596-3.472868 4.2666667-5.5367446 6.0626356-12.7851167 10.096124-21.1348842 10.1804651-2.4409302 0-5.0207752-.3125581-7.1094573-1.6620155-1.9547287-1.2700775-2.8924031-3.324031-1.1361241-5.2390698 2.4806202-2.6889922 5.4325582-4.8868217 8.463876-6.9010852 7.1059993-4.7367316 14.9832724-8.1985681 23.2781396-10.2300776 1.344496-.3224806 1.518139-1.632248 2.108527-2.5500775 2.092049-3.222654 3.917245-6.6108809 5.457364-10.1308527-2.118449 1.6768992-4.0831 3.2644961-6.077519 4.8124031-2.817984 2.1895607-5.649199 4.362584-8.4936434 6.5190698-1.3147287.992248-2.5947287 2.0837209-4.068217 2.7832558-1.0627877.4865795-2.3211803.0793257-2.8973644-.9376744-.8186046-1.4089923-1.3891473-3.0362791-.4415504-4.7528682 1.6620155-3.0065117 4.003721-5.4970543 6.2908527-8.3844962-2.6671676 1.9918061-5.225863 4.1248803-7.6651162 6.3900776-3.6068217 3.4381395-7.1689923 6.9457364-11.1578295 9.9224806-1.6471318 1.2353488-3.2595349 2.5351938-5.0158139 3.6018604-1.4586047.8880621-3.2049613 1.4883721-4.7727132.3423256-1.567752-1.1460465-1.9051163-3.7606201-1.0269768-5.9088372 1.9001551-4.6486822 5.1100775-8.4341085 8.1413954-12.3485271.6747287-.8632558 1.0220155-1.8505427 1.6124031-2.7336434.8186046-1.2155039 1.8158139-.7193799 2.6790697-.4564341 1.0468218.3175193.9624807 1.3792248.7044962 2.1928682-.8235659 2.5996899-2.7733334 4.4948837-4.3807752 6.5835659-2.0986047 2.7286821-3.6663566 5.7302325-5.2341085 9.0244961 2.2474418-1.1906977 3.944186-2.7187597 5.7550387-4.088062 6.9457364-5.2589148 13.3407752-11.2322481 20.7776744-15.8313179 6.0080623-3.7209302 12.3485273-6.7423255 19.2347283-8.4936434.974383-.2662865 2.002362-.2662865 2.976745 0 .893023.2431008.868217 1.1013954.863255 1.6768993-.004961.5755038-.595348.7789147-1.284961.6251162-1.850542-.4117829-3.284341.8086822-4.832248 1.443721-5.095194 2.0886821-9.376744 5.3730232-13.276279 9.2328682-2.6766635 2.7529416-5.076213 5.7623489-7.164031 8.9848062-.1364818.2391481-.2590624.4859658-.3671318.7392248 1.8108528-.7193799 3.0908528-1.9051163 4.4651163-2.9023256 5.4275965-3.8763824 10.8353485-7.7792248 16.2232555-11.7085271.388889-.3570539.736678-.7564292 1.0369-1.1906977.307596-.3522481.610232-.7392248 1.16093-.5506977.729302.248062 1.443721.4961241 1.379225 1.5131783-.297675 4.8124031-2.431008 9.0493024-4.15752 13.3953489-.044651.1141085-.133953.2133333-.178604.3224806-.104186.2629457-.193489.5258915-.312559.8582946 2.619535-.3770543 5.189458-.7094574 7.729613-1.175814.347287-.0595349.555659-.8235659.833488-1.2551938 1.582636-2.4260465 3.095814-4.8967442 4.79752-7.2384496.530852-.7293023 1.552868-.496124 2.227596.143876.580466.5606201.610233.992248-.024806 1.7910077-.496124.64-.967442 1.3097675-1.408992 1.9844961-.992248 1.6421706-2.009302 3.3041861-3.036279 4.9364341m-54.1023256-11.4604651c-5.2241861 3.3736434-8.96 8.2306977-12.8992248 12.8992248-1.9344842 2.3657771-4.0192053 4.6046151-6.2412403 6.7026357-.8533334.783876-1.4883721-.7144186-1.9844962-1.2948837-1.2551938-1.3643411-.6151938-2.9072868.1339535-4.212093 2.0561552-3.6085379 4.4198582-7.0329193 7.0648062-10.2350388.535814-.6449612.9525582-1.3990698 1.691783-2.5054264-2.2375194 1.4089923-4.1376744 2.4806202-5.9534884 3.755659-6.0576744 4.2517829-12.0260465 8.6375193-18.1333333 12.8198449-4.1029458 2.8179845-8.4341085 5.4573644-13.1026357 7.1739535-4.3510077 1.5875969-9.4610853 2.7386047-13.82201549.620155-6.35038759-3.0858914-7.64527131-9.9224806-5.02573643-16.0347286 3.61178295-8.4341086 10.15069772-14.3875969 17.01209302-20.1327132 2.0193652-1.6830128 4.1401502-3.2404643 6.3503876-4.6635659 1.4122997-.90956074 2.8593282-1.76454782 4.3410853-2.56496125 3.8775333-2.06571679 7.9280635-3.78885218 12.1054263-5.14976745 1.7562791-.58046511 3.5423256-1.09147286 5.3432558-1.52806201 1.6911485-.46174348 3.4282651-.73462388 5.1795349-.81364341 3.7506977-.05953488 7.7544186 1.14604651 9.6992248 4.60403101.1537985.27286821.3125582.46635659 0 .72434108-.1184217.11624721-.2836594.17168789-.4482302.1503905-.1645707-.02129739-.310252-.11697466-.3951806-.25953779-1.7612403-1.98449612-4.0731783-2.59968992-6.6182946-2.75844961-2.0142636-.12403101-3.8697674.49612403-5.7451163 1.13116279-.8979845.30263566-1.7810852.62511628-2.664186.99224806-4.0403662 1.63943563-7.9581835 3.56601361-11.7234109 5.76496128-3.6659401 2.1875858-7.1995296 4.5896977-10.5823256 7.1937984-3.4168988 2.5468226-6.6208594 5.3675026-9.580155 8.4341085-4.42542635 4.6685272-7.99751937 9.8827907-9.26759689 16.2827907-.63007752 3.1950388.68465116 5.12 4.02852713 5.1993799 3.29972566.0128171 6.56246576-.6949283 9.56031006-2.0737985 3.8251163-1.6620155 7.288062-4.0434108 10.6865116-6.4496124 1.1658915-.8186046 2.3020155-1.671938 3.4034109-2.5798449 6.0427907-4.9612403 11.8474419-10.1953489 16.7392248-16.3324031 2.4806202-3.0908527 4.3658915-6.4893024 4.4651163-9.7488372.0237182-1.83853342-.2942314-3.66548179-.9376744-5.38790702-.1088094-.30075491-.0659765-.6355183.1150509-.89918868.1810274-.26367039.4780507-.42391495.7978173-.43042372.1335737-.00052491.2632413.04503399.3671318.12899225 4.5345736 3.68124031 3.3091473 8.46883717 2.2325581 13.12248057-1.0220155 4.4651163-3.5274419 8.195969-6.4496124 11.8226357 3.0114729-1.7165891 5.8493023-3.3984496 8.7516279-4.9612403.9327132-.496124 1.8654264-1.2651163 3.0114729-1.1460465 2.4260465.2579845 2.6989147.992248 1.3990697 2.9420155-1.9844961 2.9767442-3.8350387 5.9832558-6.0378294 9.4263566 3.2148837-3.6217054 6.0626356-6.8564341 9.5404651-9.4263566 1.3990698-1.031938 2.9122481-1.92 4.3857364-2.8576744.2342921-.1482674.4904448-.2587647.7590698-.3274419.8682171-.2232558 2.1333333-.496124 2.4806202.3125582.496124 1.1559689-.2629458 2.1234108-1.5826357 2.3516279-.3820155.0644961-.9426357.5556589-1.1807752-.4068217-.0694574-.2976745-.8334884.3572093-1.2254263.6102325" opacity=".6" transform="translate(51.031008 82.563458)"/><path d="m128.014884 26.9444961c-.193489-.8086821-10.656744 9.3469768-10.602171 9.3668217 4.787597-.5705426 7.625427-.620155 7.625427-.620155.363807-.6097685.68699-1.2428746.967441-1.8951938 1.587597-3.4431008 2.207752-6.5041861 2.009303-6.8514729m-3.51752 10.1209303c-.96248.0347286-5.025736.1786046-7.025116.6648062-2.163101.5258914-2.708837 1.1510077-.625116 2.6145736 1.488372 1.031938 2.366511 1.0765891 3.968992.6995349 1.250233-.2927132 2.421085-1.6818605 3.661395-3.9689923m-25.2427903-1.4883721c.4663566-.5755038 3.6018603-3.7258914 3.2198453-4.2071317-1.086512-1.3643411-10.0762794 6.2164341-11.1429461 7.1689922-.9327132.8334884-7.9379845 7.9776744-7.2781395 8.4341085 3.7258914-1.7662015 7.1243411-4.7131783 10.3739535-7.2086821 1.7066666-1.3097675 3.4728682-2.5054264 4.8272868-4.1724031m29.0331783 1.2651162s-1.835659 5.1497675-6.365271 7.5906977c-2.535194 1.3742636-5.402791.496124-7.322791-1.6620155-1.131163-1.2899225-.684651-1.9299225-2.034109-.6846511-1.205581 1.1113178-2.36155 2.2970542-3.547286 3.4331782-1.984497 1.92-4.073179 3.7606202-6.151938 5.5813954-1.562791 1.3742636-3.8251167 3.7407752-6.1221709 3.2148837-2.2970543-.5258915-4.3906977-2.168062-4.8322481-4.6834108-.496124-2.7584496 2.0886822-5.7004652 3.2049613-8.071938-.1835659.3869767-10.5128683 10.8353488-13.4648062 8.8558139-3.1553489-2.1085271-.6052714-6.4992248 1.2452713-8.3646511 2.788217-2.8130233 5.9534884-5.139845 9.1435659-7.4666667 2.8527131-2.0787597 5.7302325-4.1872868 9.1286817-5.2936434 1.934884-.6350388 6.027907-1.0617054 6.975504 1.3097674.60031 1.5181396-.327442 2.847752-1.031938 4.0235659-.937674 1.567752-1.781085 3.2148837-2.684031 4.8074419-.838449 1.4883721-1.60248 2.9767442-2.306976 4.5345736-.496124 1.0865117-1.984497 3.2248062-1.622326 4.4651163 2.381395-.8632558 4.886822-3.5968992 6.772093-5.2341085 1.117933-.9724031 2.225943-1.9646512 3.324031-2.9767442.537847-.3983317 1.024426-.8615815 1.448682-1.3792248.218295-.3423256-.034728-.8334884.138915-1.136124.605271-1.0666667 2.421085-1.2254264 2.421085-1.2254264s1.771163-1.6223256 2.629458-2.435969c2.52031-2.3913178 5.085271-4.728062 7.808992-6.8911628 1.185736-.9426356 2.421085-1.8257364 3.621705-2.7584496.992248-.783876 1.612403-1.9448062 2.584806-2.7088372.714419-.5655814 2.510388-.9922481 3.075969.0893023.421706.8136434-1.190697 1.795969-1.463565 2.4111628-2.232559 5.139845-2.743566 8.2852713-4.07814 11.3612403 0-.0496124 4.410543.0297675 4.410543.0297675s-.213334.5506976-1.944807.7838759c-.783876.1041861-2.976744.4613954-2.976744.4613954m34.892403-5.3779845c.104186 1.1063566 4.286512-1.0170543 5.144807-1.4883721 1.289922-.6945736 5.531783-2.8775194 5.616124-4.4651163 0-2.4806201-4.380776.3968992-5.263876.9922481-.883101.5953488-5.606202 3.8300775-5.497055 4.9612403m51.259535-4.9910078c-3.532403-2.1035659-6.290852-1.4536434-9.957209.2629458-3.565814 1.7345846-6.934132 3.8487239-10.046512 6.3057364-5.670697 4.3311628-10.314418 9.972093-14.710077 15.5386047-.947597 1.2055814-2.15814 3.7903876-3.611783 4.336124-1.766202.6648062-2.083721-1.0220155-2.624496-2.3020155-.893024-2.1085271.292713-4.1624806 1.175814-6.1122481.550697-1.2155039 2.48062-3.9293023 1.915038-5.3085271.074419.1339535-7.486511 4.9860465-8.558139 5.5813953-2.817985 1.5776745-6.032868 3.2347287-9.168372 4.0384497-1.284961.3274418-2.917209.6052713-4.222016.1984496-1.627287-.4961241-2.034108-2.0787597-2.48062-3.5720931-.446511-1.4933333-.277829-2.1978294-1.691783-1.0319379-1.413953 1.1658914-2.48062 2.4210852-3.810232 3.572093-2.976745 2.6096124-5.784807 5.3779845-8.880621 7.8933333-2.103565 1.7066667-6.345426 6.1866667-9.138604 3.5869768-5.412713-5.0505427 1.265116-15.6675969 4.068217-20.5345737 2.232558-3.8846511 13.941085-21.1249612 15.141705-22.543876 1.056745-1.2452713 2.48062-2.2970542.11907-2.0737984-3.939225.372093-7.843721 1.260155-11.763101 1.8058915-4.058294.5606201-9.044341 1.3742635-12.943876-.2976745-3.368682-1.4486821-5.283721-5.2390697-3.284341-8.61271313.605272-.99224806 2.267287-2.16806201 2.103566-.08930233-.109147 1.39410853-1.835659 2.31689923-1.225426 4.03844966 1.170853 3.3389147 7.937984 2.416124 10.512868 2.272248 4.112868-.228217 8.191008-1.031938 12.264186-1.6272868 1.810853-.2629457 3.636589-.496124 5.457364-.6449612 1.111318-.1041861 1.6769.1587596 2.728683-.1537985.674728-.1984496 2.733643-3.51751937 3.40341-3.79038759.669768-.27286822 2.882481-.86325581 3.408373-.15875969.868217 1.17581395.828527 3.42821708 1.934883 3.40837208 2.346667-.0446511 8.553179-.57054262 10.914729-.49612402 2.506687.03670112 5.0066.27060132 7.476589.69953492 1.488372.2778294 5.526822.6846511 6.449612 1.9497674.109148.1537985-2.827907-.1686822-3.071007-.1984496-2.425487-.3233295-4.866664-.5154439-7.312869-.5755039-2.31999-.0390265-4.640075.0720062-6.945736.3324031-2.202791.2083721-8.35969.9475969-9.848062 2.3665116-2.341705 2.2524031-18.808062 28.9289923-22.588527 35.9590698-.749147 1.3941085-2.282171 3.7060465-2.386357 5.3333333-.124031 1.9844962 2.267287-.5655813 3.165272-1.2105426 3.944186-2.8427907 7.580775-6.1370542 11.32155-9.2378294 1.671938-1.3841861 3.646512-2.5203101 4.504806-4.5147287.858295-1.9944186 1.537985-3.9689923 2.813023-5.7252713 2.571091-3.4859435 5.599852-6.6098225 9.004652-9.2874419 3.175193-2.5203101 7.347597-4.4651163 11.32155-2.6096124 4.465116 2.0737984-.768992 5.5268217-3.075969 7.0102326-1.937061 1.2589883-4.030202 2.2596931-6.226357 2.9767441-1.810852.5804652-3.968992.2083721-5.214263 1.5875969-1.557215 1.7149954-2.890835 3.6204043-3.968992 5.6706977-.456434.8930233-2.52031 4.7528682-1.910078 5.7351938 1.081551 1.7265116 8.746667-1.92 10.210233-2.703876 3.603325-1.9818378 7.099271-4.1529343 10.473178-6.504186 1.612403-1.1013954 3.591938-2.0241861 4.539535-3.7804651 1.220465-2.2772093 2.40124-4.5643411 3.666356-6.8217054.992249-1.8009303 1.781086-3.8350388 2.813024-5.5665117.347096-.6149837 1.047593-.9402855 1.741395-.8086821 1.488372.3075969 3.701085 1.8703875 3.874729 3.4728682.223256 2.0390697-1.711628 4.5544186-2.75845 6.1370542-1.354418 2.044031-2.664186 4.1525582-3.859845 6.275969-.496124.9227907-2.128372 3.0412403-1.860465 3.9193799.451473-1.2849613 2.19783-2.6939535 3.130543-3.6613954 1.185736-1.2254263 2.450852-2.4458915 3.72093-3.5820155 2.902831-2.5922289 6.117738-4.8121643 9.570232-6.6083721 3.244652-1.671938 6.915969-3.7209302 10.71628-3.1851163 1.633835.1554741 3.112073 1.0347708 4.028527 2.3962791.813643 1.2750388.818604 2.1085271-.585427 1.2750388m-118.3404648-12.5916279c-9.2116563 10.8274442-17.3981097 22.4867875-24.4539535 34.8279069-1.8753488 3.3091473-3.6812403 6.6728683-5.4573643 10.0266667-1.0964341 2.0589147-3.6663566 7.2384496-5.903876 3.5224806-1.795969-2.9767442.1686822-6.6927131 1.4883721-9.475969 1.2700775-2.684031 3.0610853-5.2291472 4.6189147-7.7593798 4.4651163-7.2533333 10.011783-13.6434109 15.1069768-20.4155039 2.5252713-3.3587597 5.5863566-6.3851163 8.4341085-9.4908527 1.9348837-2.1234108 4.5544186-5.86418604 4.5544186-5.86418604s-7.3724031 5.05054264-15.8462015 12.27906974c-5.5764342 4.7578295-11.0734884 9.9224806-16.1339535 15.1913179-2.7386047 2.8527131-5.3978295 5.76-8.3646512 8.3894573-1.4288372 1.2601551-2.6344186 2.6195349-4.5097674 2.1928682-1.5524583-.3185367-2.8364986-1.4044572-3.4083721-2.8824806-1.4139535-3.5968992 1.3593798-8.052093 3.1355038-11.004031 2.1234109-3.5324031 4.9017055-6.6629457 7.5212404-9.8331783 2.9767441-3.6217054 5.9187596-7.3128682 9.0790697-10.7857364 2.8675969-3.15038762 6.6133334-5.64093025 9.332093-8.87565893-.6499224-.30263566-2.8328682 1.30976744-3.4728682 1.68186046-1.4437209.83844961-2.7634108 1.85550388-4.1376744 2.78325581-2.7634108 1.86542636-5.2142636 4.13271316-7.7246512 6.33054266-4.7975193 4.1872868-9.2576744 8.7714728-13.6235658 13.3953488-4.8669768 5.139845-9.3668218 10.527752-14.0155039 15.875969-4.5643411 5.2291473-8.6424806 10.6617054-14.5215504 14.5513178-4.6288372 3.0561241-13.89147288 5.5218605-17.11131784-.992248-.2331783-.4961241-.80868217-1.5528682-.20837209-1.8803101.60031007-.3274419.94759689.6846512 1.27007751.9475969.99524237.9326763 2.24892528 1.5430902 3.59689923 1.7513178 3.01643411.2976744 5.98821709-1.9844961 8.28527129-3.6713178 5.4920931-4.0235659 9.8530233-9.5503876 14.5116279-14.452093 5.0406202-5.2986047 9.9770543-10.7013954 15.2756589-15.7370543 5.4039656-5.2481184 11.1038255-10.1826964 17.071628-14.77953487 5.2589147-4.02356589 11.5448062-8.09674419 18.3913178-8.71193799.8731783-.0744186 2.063876 1.65209303 2.0737984 2.17302326.0297675 2.15317829-1.6620155 3.47286822-3.1206201 4.74790698-3.3904931 2.99172992-6.4993381 6.28823492-9.2874419 9.84806202-1.6124031 2.0291473-15.8462015 23.0003101-15.1813953 23.3624806.6648062.3621706 6.7572093-5.9832558 7.5510077-6.6778294 2.7485272-2.4210853 5.4573644-4.9265117 8.2803101-7.2483721 5.8443411-4.7826357 11.5993798-9.743876 17.6868217-14.2337985 3.4083721-2.5351938 6.8812403-5.0356589 10.5376744-7.26821704 1.6768992-1.02697675 3.4728679-1.92992248 5.0257369-3.14046512 1.304806-.99224806 2.1631-2.41612403 3.968992-2.10356589 4.102946.71441861-2.053954 4.64868217-3.264496 5.90883721-2.371473 2.48062015-4.8372096 4.88186044-7.0449616 7.49643414" opacity=".6" transform="translate(16.302326 20.547954)"/><path d="m93.2365891 24.5829457c.1613421.0516486.334782.0516486.4961241 0 2.3466666-.9426356 4.5494573-2.1283721 6.151938-4.1079069.4961238-.6003101-.4415504-1.3941086-.8930233-1.92-.3671318-.4217055-.9128682-1.175814-1.7215504-.5606202-1.8902325 1.4288372-3.0164341 3.5026357-4.4254263 5.3333333l-.0644962.0893024c-.1398689.2076665-.1721199.4696547-.0867916.7050433.0853284.2353886.2779688.4158537.5184195.4856543m54.3751941 2.0936434c.427587.0307053.854533-.0678205 1.225426-.2827906 1.349457-.7590698 2.75845-1.4337985 4.102946-2.1978295.406822-.2331783 1.036899-.7044961.952558-.9922481-.277829-.992248-1.141085-1.5181395-2.019225-1.9150387-.64-.2827907-1.314729-.4415504-1.741395.0496124-1.131163 1.2849612-2.232558 2.5996899-3.269458 3.9689922-.297674.3869768-.992248.783876-.669767 1.3345737.436589.7144186.992248-.1488372 1.418915.0396899m37.893953 19.7308527c-1.616794.4810349-3.187461 1.1053171-4.693333 1.8654264-1.405534.7704662-2.747637 1.651377-4.013644 2.6344186-.267906.2034108-.833488.6052713-1.394108 1.0914728-.358607.3016667-.690581.6336414-.992248.9922481-.446512.5407752-.694574 1.0865116-.421706 1.4883721.249591.3238308.650572.4932593 1.056745.4465116.233178 0 .466356 0 .694573-.0347287 1.113245-.1039152 2.196197-.4205479 3.190078-.9327131 3.16031-1.6223256 5.457364-4.4651163 7.40217-7.3972093.193489-.2927132.034729-.4365892-.823566-.1537985m47.19628-24.071938c-.79876 7.7345737-8.602791 12.4031008-15.126822 15.0821706-6.866357 2.8130232-14.233799 4.0086821-21.333333 6.0874418-.788838.2331783-2.083721.5854264-2.822946.8632558-.213334.0793799-.580465 1.3792248-.754109 1.9844962-.07938.2579845-.193488.496124-.287752.7293023-1.420825 3.6582387-4.263196 6.5847354-7.878449 8.1116279-2.272248 1.031938-4.708217 1.9844961-7.223566 2.1382946-1.516319.1250028-3.034226-.2215513-4.346047-.9922481-1.101395-.6995349-2.20279-1.92-1.488372-3.2793798.530009-.9337402 1.235942-1.7559244 2.07876-2.4210853 1.348047-1.0889382 2.822205-2.0117442 4.390698-2.7485271 2.716206-1.335254 5.515108-2.495249 8.379534-3.4728683.773954-.2728682 1.220466-.5755038 1.394109-1.4139535 0-.1141085.873178-3.0114728 1.151008-4.1426356.114108-.4613954.233178-.9227907.347287-1.3891473.754505-3.2514308 1.845234-6.4155429 3.254573-9.4412403-1.849326 1.4186662-3.618262 2.9391569-5.298604 4.5544186-.873179.8285271-1.71659 1.671938-2.545117 2.5252713-4.197209 4.336124-8.404341 8.6623256-12.452713 13.1324031-2.200855 2.5259953-4.781897 4.6936018-7.650232 6.4248062-1.354419.783876-3.190078.9922481-4.15752.1041861-.967442-.8880621-2.019225-2.2375194-1.31969-4.0880621 1.885272-4.9612403 4.961241-9.2626356 7.75938-13.7128682 1.141085-1.8306976 2.52031-3.5075969 3.775504-5.2291473-2.242481 1.051783-4.167442 2.703876-6.236279 4.1475969-6.027907 4.2071318-10.795659 9.6148838-14.91845 15.6080621-1.369302 1.9844961-2.48062 4.1376744-4.197209 5.8790697-.813643.8334884-1.657054.4961241-2.173023-.1537984-1.696744-2.1035659-1.344496-4.1972093-.19845-6.5835659 4.623876-9.6 10.617054-18.2970543 17.151008-26.651783.883101-1.1262015 1.463566-2.4806201 2.872558-3.2148837.67969-.3472868 1.086512 0 1.488372.3075969 1.746357 1.2551938 1.676899 3.7953489.411783 5.6905427-3.472868 5.2390697-7.813953 9.8827907-10.80062 15.464186-.074419.1389147-.124031.2877519-.421706.9922481 3.830078-4.4651163 8.086822-7.5361241 12.492404-10.4186047 2.217674-1.4536434 4.465116-2.8675969 6.742325-4.2220155.595349-.3572093 1.51814-.4365891 1.984496.143876.694574.8831008 1.324651 1.9844961.595349 3.1305426-1.984496 3.1652713-4.514729 5.9832558-6.20155 9.3568992-1.939845 3.8697675-4.256744 7.5510078-5.888993 11.8424807 2.480621-1.3048062 4.296435-3.0710078 6.032869-4.8967442 6.231317-6.5537985 12.571783-13.0034109 19.27938-19.0610853 1.21385-1.1013953 2.444237-2.1895607 3.691162-3.2644961 3.27938-2.827907 6.404962-5.9534884 10.651783-7.4418605l.11907-.0396899c1.106853-.3458087 2.306528.1115032 2.902326 1.1063566.13604.1895051.255549.3903468.357209.6003101.36217.7392248-.555659 1.488372-1.676899 1.1609302h-.049613c-2.187907-.6499225-3.547287.7888372-4.554418 2.2524031-.576317.8370244-1.095133 1.7122156-1.552869 2.6195349-2.262325 4.4651163-3.596899 9.5851163-4.306356 14.5215504-.099225.6697674-.19845 1.3444961-.302636 2.0291472-.002355.0346888-.002355.0694973 0 .1041861 5.521861-1.5875969 11.11814-3.0511628 16.585427-4.8372093 8.538294-2.7832558 17.404031-7.3227907 21.715348-15.5882171.337365-.6499224.64-.3472868.60031.0347287m-113.076589 25.3023256c-3.063167.9217711-6.049113 2.0829724-8.930232 3.4728682-5.189458 2.5451163-10.448372 4.9612403-15.1962793 8.32-2.8130233 1.9844961-5.9534884 4.0086822-8.1066667 6.7274419-.4365891.5457364-.7044961 1.3296124-.3572093 1.9299225.2697753.3915743.6711838.6732644 1.1311628.7937984 1.9844961.6995349 3.9342636.0744186 5.8493023-.496124 9.2725582-2.8675969 16.5308532-8.8111628 22.3603102-16.4365892.992248-1.3147287 1.984496-2.6493023 3.234729-4.2964341m22.76217-5.5020155c-.664806 1.051783-1.339535 2.1035659-1.915039 3.2099225-.575503 1.1063566-.912868 2.2524031-1.438759 3.3587597-.163721.3472868-.391938 1.0220155-.773954 1.2006201-1.324651.6300776-2.292093-.8831007-1.334573-3.80031.168682-.4961241.337364-.9922481.496124-1.5181396.084341-.2530232.173643-.496124.248062-.764031.038975-.1203125.070456-.2429248.094263-.3671318.029768-.1637209.049613-.1488372-.099225-.1835659-.270458-.0278927-.543662-.0111317-.808682.0496125-.253023.0248062-.496124.0644961-.75907.1091472-.992248.1786047-1.984496.4961241-2.976744.7094574-1.309767.3026357-2.624496.6102326-3.939225.9029457-.80372.1786047-1.116279.803721-1.44372 1.4189148-1.803182 3.4482954-3.849055 6.7641351-6.122171 9.9224806-1.233343 1.7045046-2.558289 3.340813-3.968992 4.9017054-6.36031 6.9457364-14.690233 11.5993799-24.3100778 11.6986047-2.8031008.0297674-5.7699225-.3572093-8.1662016-1.9150388-2.2474418-1.4536434-3.324031-3.8151938-1.3097674-6.0130232 2.827907-3.0908528 6.2462016-5.6161241 9.7289922-7.9379845 8.1658306-5.4443899 17.2183836-9.4233495 26.7510076-11.7581396 1.537985-.3671318 1.741396-1.8753488 2.421085-2.9271318 2.409366-3.7034085 4.511677-7.5977443 6.285892-11.644031-2.435969 1.9249613-4.693333 3.7506977-6.980465 5.531783-3.238036 2.5136951-6.49261 5.0108527-9.763721 7.4914728-1.488372 1.1460466-2.976744 2.3962791-4.67845 3.2-1.219812.5527059-2.659866.0863002-3.324031-1.0765891-.942635-1.6223256-1.597519-3.4728682-.496124-5.4573643 1.905117-3.4728683 4.594109-6.3206202 7.223566-9.63969-3.063284 2.2917285-6.002817 4.7443749-8.806201 7.3475969-4.1475973 3.9689923-8.2356593 7.9379845-12.8198454 11.4108527-1.8902325 1.423876-3.7457364 2.9172093-5.7649612 4.1426357-1.6768992 1.0220155-3.6862016 1.6967442-5.4871318.391938s-2.187907-4.3212403-1.1758139-6.7869768c2.1829457-5.348217 5.8691472-9.7141085 9.3568992-14.1891472.7739535-.9922481 1.1708527-2.1283721 1.8505426-3.1454264.9426357-1.3941085 2.0886822-.8285271 3.075969-.5258915 1.2055814.3671318 1.1063566 1.5875969.8136434 2.5203101-.9475969 2.9767442-3.1900775 5.1646512-5.0356589 7.5658915-2.4111628 3.1355039-4.212093 6.5835659-6.0179845 10.3689922 2.5848062-1.3693023 4.5395349-3.1255814 6.6182946-4.6982945 7.9727132-6.0378295 15.3302329-12.8992249 23.8734879-18.187907 6.906047-4.2765892 14.189148-7.7494574 22.107287-9.763721 1.117993-.3000766 2.295341-.3000766 3.413334 0 1.022015.2827907.992248 1.2700776.992248 1.9299225 0 .659845-.689613.8979845-1.488372.7193799-2.123411-.4961241-3.775504.9327131-5.551628 1.6570542-5.854264 2.4012403-10.780776 6.1767442-15.255814 10.6120931-3.16031 3.1255814-5.76 6.6679069-8.235659 10.324341-.1547.2755436-.295446.5586918-.421706.8483721 2.07876-.8235659 3.552248-2.1879069 5.149768-3.3339535 6.234625-4.4551938 12.447752-8.940155 18.63938-13.4548837.446892-.4100337.847808-.8675103 1.195659-1.3643411.347286-.4117829.699534-.8533333 1.334573-.64.83845.287752 1.657054.5903876 1.582636 1.7463566-.342326 5.5218605-2.788217 10.4186047-4.777675 15.4096124-.054573.1289923-.153798.2381396-.20341.3671318-.11907.2976744-.223256.6052713-.35721.9922481 3.011473-.4365892 5.953489-.8136434 8.88062-1.3494574.3969-.0744186.635039-.9525581.95752-1.4486822 1.820775-2.7832558 3.557209-5.6260465 5.511938-8.3150387.610232-.8384496 1.786046-.5804651 2.56.1686822.664806.64.699535 1.1262015-.029768 2.0539534-.575503.7342636-1.111317 1.4883721-1.617364 2.2871318-1.16093 1.8902326-2.306977 3.7953489-3.472868 5.6756589m-62.2238761-13.315969c-5.9981396 3.8747287-10.2896125 9.4263566-14.8093024 14.8192249-2.224655 2.7185477-4.6208613 5.2920666-7.1739535 7.7048062-.992248.8979845-1.6917829-.8186047-2.3020155-1.4883721-1.4437209-1.567752-.7094573-3.343876.1488372-4.8421706 2.362479-4.1454254 5.0780704-8.0793812 8.1165892-11.7581395.620155-.7441861 1.0964341-1.6074419 1.9497674-2.8824806-2.5748837 1.6223255-4.7578294 2.8725581-6.8117829 4.316279-6.9457364 4.8818605-13.8220155 9.9224807-20.8372093 14.7348838-4.7181395 3.2297674-9.6694574 6.2660465-15.0623256 8.2356589-4.995969 1.8306976-10.8700775 3.1503876-15.87596899.7144186-7.29798449-3.5423256-8.78635659-11.4108527-5.77488372-18.4260465 4.15255814-9.6644962 11.66387601-16.5506977 19.55224811-23.1293024 2.3168787-1.9357142 4.7508458-3.726809 7.288062-5.3631007 1.6272868-1.0418605 3.2893023-2.02914732 4.9910077-2.94697678 4.4501035-2.37065072 9.0981418-4.34938701 13.8914729-5.91379845 2.024186-.66976744 4.0731783-1.26015504 6.1420155-1.75627907 1.9430706-.53474942 3.9401162-.84928412 5.9534884-.93767442 4.3063566-.06945736 8.9054263 1.31968992 11.1479069 5.28868217.1736435.31255814.3572093.53581395-.0248062.83348837-.1354595.13496638-.3259771.19926939-.51552.17399701-.1895429-.02527239-.3565569-.13724629-.4519218-.30298925-2.0241861-2.28217055-4.6834109-2.97674419-7.6055814-3.16527132-2.3168992-.14387597-4.4651163.55069767-6.6034109 1.29984496-1.031938.35224806-2.0489922.71937984-3.0610852 1.13116279-4.6423666 1.88508431-9.1437988 4.10015371-13.4697675 6.62821709-4.2161489 2.511952-8.2783799 5.2736727-12.1649612 8.2703876-3.9390492 2.9198845-7.6326097 6.1571426-11.043721 9.6793798-5.0902325 5.3631008-9.19317825 11.3562791-10.6517829 18.7088372-.72930232 3.6713178.78883721 5.884031 4.62387597 5.9782946 3.79262563.0096015 7.54209073-.8046164 10.98914733-2.3863566 4.4006201-1.9100775 8.3745736-4.6486822 12.284031-7.3972093 1.3345736-.9376744 2.6443411-1.92 3.9044961-2.9767442 6.9457364-5.7103876 13.6186046-11.7184496 19.2396899-18.7733333 2.827907-3.5522481 5.015814-7.4418605 5.1051163-11.2024806.0348908-2.1103783-.3252008-4.20866907-1.0617054-6.18666671-.1091911-.34116949-.0518347-.7138126.1548961-1.00635611.2067307-.29254351.5388385-.47102897.8968868-.48201598.1552381-.00172773.3061856.05092838.4266667.14883721 5.2093023 4.22697674 3.8003101 9.73395349 2.5649612 15.07720929-1.1807752 5.1150388-4.0533333 9.4263566-7.3972093 13.5888372 3.4728682-1.9844961 6.7224806-3.9044961 10.0564341-5.7004651 1.0765892-.5755039 2.1432558-1.4536434 3.4728682-1.3147287 2.7882171.2976744 3.1057365 1.1262016 1.6124031 3.3786047-2.2573643 3.4034108-4.4105426 6.876279-6.9457364 10.8452713 3.696124-4.1624806 6.9457364-7.8784496 10.9643411-10.8303876 1.6124031-1.1857364 3.3488372-2.2027907 5.0356589-3.2843411.2717275-.1698163.5678797-.2969777.8781395-.3770543.9922481-.2579845 2.4458915-.5606201 2.8328683.3621706.5556589 1.3246511-.3026357 2.435969-1.8207752 2.6989147-.4365892.0793799-1.0815504.64-1.3544186-.4663566-.0793799-.3423256-.9575194.411783-1.4139535.7044961" opacity=".5" transform="translate(231.620155 18.563458)"/></g></svg>