<?xml version="1.0" encoding="utf-8"?>
<!-- Generator: Adobe Illustrator 23.0.6, SVG Export Plug-In . SVG Version: 6.00 Build 0)  -->
<svg version="1.1" id="Intenso" xmlns="http://www.w3.org/2000/svg" xmlns:xlink="http://www.w3.org/1999/xlink" x="0px" y="0px"
	 viewBox="0 0 734.4 233.6" style="enable-background:new 0 0 734.4 233.6;" xml:space="preserve">
<style type="text/css">
	.st0{opacity:0.7;fill:#FFFFFF;}
</style>
<title>Intenso_White</title>
<path class="st0" d="M329.6,118c5.8-12.1,11.5-24.3,17.7-36.2c1.9-3.7,3.5-8.4,8.5-9.3c4.9-1,10-1.8,15-2.1
	c7.8-0.5,15.6-0.7,23.5-0.7c12.5,0,25.1,0.5,37.3,3.6c0.8,0.2,1.6,0.3,2.5,0.4c-0.6-0.7-1.2-1.4-1.9-1.9c-6.6-4.7-15.3-6.7-25.2-8.4
	c-15.9-2.8-29-1.5-45.2-2.5c-4.5,0-3.3-1.3-0.4-10.4c0.8-3.5,3.8-7.8,1.7-9.1c-13.2-4.9-13-6.2-17.7,1.2c-2.5,3.8-8.5,16-10.8,18.8
	c-0.8,1-1.9,1.6-3.1,1.9c-8.2,1.1-16.5,2.2-24.7,3.1c-13.8,1.4-27.6,2.9-41.4,3.9c-2.9,0.2-6.2-0.8-8.9-2.1
	c-1.1-0.5-1.2-3.2-1.8-4.8c-0.2-0.4-0.6-0.7-1-1c-0.4,0.4-1,0.8-1.1,1.3c-2.1,5.4,0.1,12.1,5.4,14.4c3.3,1.5,6.9,2.2,10.5,2.2
	c10.6-0.4,21.2-1.3,31.7-2.2c7.3-0.6,14.6-1.7,21.9-2.5c0.8,0,1.6,0,2.4,0.2c-0.3,0.8-0.6,1.5-0.9,2.2c-2.1,3.7-4.3,7.3-6.3,11
	c-5.5,10.3-10.8,20.7-16.4,31c-3.1,5.6-5.1,11.6-10.1,16.2c-11.3,10.3-19,17.2-30,27.8c-8.3,8-14.5,14.3-24.8,19.7
	c-0.7,0.4-1.5,0.6-2.3,0.8c-0.5,0.2-1.1-0.1-1.2-0.7c0-0.1,0-0.2,0-0.3c0-0.8,0.1-1.6,0.4-2.4c4.5-13.9,12.7-25.7,20.1-38.1
	c6.7-11.3,11-18.3,17.8-29.5c2.8-4.6-2.8-10.7-7.9-11.8c-6-1.2-11.9-0.3-16.4,3.9c-8.3,7.6-16.3,15.4-24,23.6
	c-7.2,7.6-13.7,15.9-20.6,23.8c-0.3,0.3-0.7,0.6-1.1,0.8c0.1-0.4,0.2-0.7,0.4-1.1c3.8-6.6,7.4-13.4,11.5-19.8c3.2-5,3.5-4.8,0-9.7
	c-6.5-8.9-10.4-10.2-21-6.7c-1.6,0.5-3.2,0.9-4.7,1.5c-3.9,1.6-25.3,12.2-36.3,20c10.6-26.3,21.1-52.7,32.2-78.8
	c3.8-9.1,7.1-18.5,9.8-28c1.5-5.3,2.8-10.5,3.8-15.7s-1.3-8.4-5.3-11.3c-4.3-3.2-8.7-5.4-14.1-3.7c-1.5,0.6-2.6,1.7-3.2,3.2
	c-0.8,3.3-0.8,6.8-1.3,10.2c-0.2,0.9-0.8,1.7-1.7,2.1c-23.4,9.3-44.9,22.1-65.2,36.7C74.5,75,46,100.1,17.6,125.4
	c-5,4.4-9.3,10.1-15,13c-4.7,2.3-1.8,3.4-1,5.4c0.2,0.3,0.3,0.5,0.5,0.8c2.6,4,3.5,4.2,6.7,0.8c4.4-4.7,8.2-9.9,12.7-14.4
	c11.4-11.3,23-22.5,34.8-33.5c7.8-7.3,15.7-14.5,24.1-21c11-8.6,22.3-17,34-24.6c12.8-8.4,26.2-16,39.4-23.8c4.3-2.5,9-4.2,13.6-6
	c2.6-1.4,2.9,0.8,2.8,1c-0.3,2.4-0.9,4.8-1.7,7.1c-5.2,12.6-10.1,25.3-15.8,37.6c-8.1,17.8-16.3,35.7-25.3,53
	c-8.8,16.8-18.5,33.2-28.1,49.5c-1.3,2.2-2.6,4.5-4.8,6c-2.5,1.6-4.3,1.2-5.1,4.4c-1.1,4.2,1.4,10.4,3.6,13.9
	c2.9,4.6,6.7,8.9,12.3,11.1c2.3,0.9,4.2,1.4,5.9-0.5c4.3-4.9,9-9.6,12.7-14.9c8.8-12.3,15.3-25.8,21-39.8c0.6-1.5,1.2-3.1,1.9-4.6
	c8.2-3.6,42-21.3,48.1-23.8c0.5-0.1,1-0.2,1.5-0.2c0,0.5,0,1-0.1,1.4c-3.4,7.4-6.8,14.9-10.4,22.2c-4.7,9.5-9.6,18.9-14.5,28.3
	c-2.3,4.2-1.1,7.7,1.5,11.2c0.7,0.9,1.4,1.8,2.1,2.7c2.8,3.9,7.2,4.2,10.2,0.6c2.5-3,4.7-6.3,7.1-9.4c5-6.8,9.6-14,15-20.4
	c7.3-8.6,15.2-16.8,22.9-25.1c2.1-2.2,4.2-4.4,6.4-6.5c5.8-5.5,11.7-11,17.6-16.4c0.5-0.5,1.4-1.2,2.1-0.8c0.3,0.4-0.4,1.4-0.7,2
	c-7.8,15-17.7,32.5-25,47.7c-4.4,9.1-7.7,18.8-11.1,28.4c-1.4,3.9-0.3,9.6,3.1,12.1c3,2.1,5.5,0.7,8.1-0.7
	c14.2-7.5,27.1-21.5,38.6-32.4c4.6-4.4,9.4-8.6,14.1-12.8c-1.2,4-2.2,8.1-3.7,12c-5.3,13.9-9.4,25.3-11.1,40.2
	c-0.9,8.1,0.5,14.3,6.1,20.1c3.1,3.3,12.2,12.3,14.8,4c1.3-4.2,2.3-8.4,3.1-12.7c3.1-16,7-31.7,13.2-46.8
	c4.5-11.1,9.3-22.2,14.1-33.2C323.2,130.9,326.5,124.5,329.6,118z"/>
<path class="st0" d="M733.4,79.8c-4-0.5-14.3-0.7-18.4-0.9c-22.6-1.3-24.7-1.7-49.8-1.5c-12.4,0.1-24.8,0.8-37.1,1.7
	c-2.1-0.1-4.3,0.2-6.3,0.8c-0.7,0.1-2.3,0.8-2.4,1.4c0.4,0.8,1,1.6,1.8,2.1c3.7,1.6,7.8,1.6,11.1,3.7c5,3.2,10.3,6.5,13,12.1
	c3.8,7.8,1.8,15.5-1.3,22.9c-7.8,19.1-22.3,31.9-39.9,41.7c-6,3.6-13.1,5-20,4c-3.2-0.5-4.9-2.3-4.5-5.5c1-8.1,4.1-15.8,7.5-23.1
	c3.7-7.9,9.1-12.4,14.6-18.9c6.7-7.9,15.2-12.6,24.9-15.8c1.1-0.4,2.1-2.1,2.4-3.3c0-1.2-0.7-2.3-1.7-2.8c-2.5-0.7-5.4-1.7-7.7-1.1
	c-4.5,1.3-8.9,2.8-13.2,4.7c-1.1,0.6-2.2,1-3.3,1.4c-5.1,1.3-13.1,3.2-17.9,5.2c-12.5,5.2-24.8,11.1-37.1,16.8
	c-1.6,0.7-2.5,1.3-2.8-1.1c-1.6-11.1-3-22.3,0.7-33.2c2-6,6.6-9.3,12.5-11.2c6.9-2.1,11.5,7.8,15.8,4.3c2-1.6-1.7-6.3-2.7-7.5
	c-9-10.9-23.6-5.2-30.3,5.6c-2,3.2-4.4,6.2-7.2,8.8c-4.1,4-8.9,7.3-12.8,11.4c-14.5,15.3-28.7,30.9-43,46.4
	c-6.4,7-12.8,13.9-19.2,20.9c-0.6,0.5-1.2,1-1.9,1.4c0.1-0.7,0.1-1.5,0.3-2.2c0.3-1.5,0.7-3,1.2-4.5c3.6-8.9,7.5-17.6,11-26.6
	c2.1-5.3,3.8-10.7,5-16.3c0.4-1.9-0.6-5.1-2-6.2c-3.2-2.5-11.3-1.2-14.4,1.6c-9.7,8.8-19.4,17.6-29.1,26.4c-0.5,0.5-1,1-1.6,1.5
	c-0.2,0.1-0.5,0.2-0.8,0.2c0-0.3,0-0.5,0.1-0.8c5.2-9.5,10.3-19,15.7-28.4c4.4-7.7-0.6-17.7-9.3-17.9c-1.7,0-3.4,0.8-4.6,2.1
	c-3.2,4.9-5.5,10.5-9.2,14.9c-5.1,6-11.1,11.2-16.8,16.7c-15.4,15.2-30,31.2-48.1,43.3c-4.8,3.2-10.5,5.3-15.9,7.4
	c-3.4,1.3-6.2-1.1-6.2-4.8c0.1-3.3,0.5-6.6,1.1-9.8c0.3-1.4,1.1-2.6,2.2-3.4c5.8-3.8,11.8-7.3,17.6-11.1
	c13.4-8.7,23.8-20.4,32.3-33.9c2.8-4.4-3.6-8.6-3.9-8.8c-8.7-5.5-16.7-2.6-24.5,2c-12.4,7.3-21.6,17.7-30,29.1
	c-5.3,7.3-8.7,15.3-8.4,24.5c0,0.7,0.8,7.3,1.5,9.3c3.2,8.3,5.9,12.3,13.4,15.1c15,5.5,29.1-9.4,38.9-18.5
	c9.4-8.7,18.4-17.9,27.6-26.8c0.8-0.7,1.7-1.3,2.6-1.8c-0.3,0.9-0.6,1.9-1,2.9c-2.9,6.8-5.8,13.6-8.7,20.5
	c-1.4,3.4-2.9,6.8-4.3,10.2c-1.2,2.9-3,6-3.7,9.1c-1.2,5.3,3.1,21.5,11.1,18.6c4.8-1.8,6.8-11.1,9.4-15c6-8.9,12.3-19.1,19.2-27.3
	c7.8-9.2,17.1-15.7,25.3-24.6c4-4.4,8.4-8.5,12.7-12.7c-0.3,0.9-0.5,1.8-0.9,2.7c-4.3,10.1-8.6,20.2-12.8,30.4
	c-3.1,7.5-1.9,14.9,1.7,21.9c1.8,3.5,5.1,4.6,8.3,2.4c3.5-2.2,6.7-4.8,9.6-7.8c7-7.8,13.8-15.8,20.3-23.9c5.3-6.5,10.5-13.1,15.2-20
	c7.9-11.6,17.8-21.5,27.9-31.2c0.3-0.2,0.7-0.4,1.1-0.5c0.1,0.4,0.1,0.8,0.1,1.1c-0.9,11.1-1.8,22.3-2.9,33.5
	c-0.2,1.4-0.9,2.8-2.1,3.7c-4.6,3.6-9.4,6.8-14.1,10.3c-9.5,7.2-18.6,14.6-23.2,26.2c-2.2,5.5-1.5,9.9,2.8,12.1
	c1.7,0.8,3.5,1.3,5.3,1.6c6.9,1.3,14,2.4,20.9,0.3c11.9-3.5,23.8-7.7,25.7-21.6c1.2-9.2,1-18.6,0.5-27.9c-0.2-4,0.9-6.3,4.2-8
	c9.9-5.2,19.7-10.5,29.8-15.4c3.5-1.7,7.6-2.4,11.4-3.5c-0.4,0.2-0.9,0.5-1.3,0.7c-8.1,5.3-12.9,13.3-17.5,21.5
	c-4,7.2-8.3,14.3-9.2,22.9c-1.4,13.2,4.3,23.4,13.5,31.5c5.9,5.2,13.6,5.3,21.1,3.6c17.2-4.1,31.2-13.7,43.5-25.9
	c9.4-9.3,16.8-19.9,21.1-32.6c2.7-8,5.1-16.2,2.9-24.6c-1.5-5.6-4-11-6.5-16.3c-0.3-0.5-0.6-1-0.9-1.5c-0.7-1.3-1.6-2.6-2.6-3.7
	c0.2-1.5,2.3-2.2,3.6-2.4c7-1.1,14.1-1.8,21.2-2c18.9-0.9,25.9-0.2,44.8-0.8l8.8-0.2v-1.1C734.4,80.4,734,79.9,733.4,79.8z
	 M339.9,153.6c4.9-7,9.8-13.3,14.7-20.3c3.4-5.2,8.1-9.5,13.5-12.4c1.3-0.6,2.6-1.1,4.1-1.7c0.5-0.2,1-0.1,1.4,0.1
	c0.7,0.4,1.3,0.9,1.8,1.6c0.3,0.9,0.2,1.9-0.3,2.7c-5.4,8.6-12.4,16.2-20.5,22.4c-4.4,3.4-9.1,6.5-13.7,9.6
	c-0.6,0.3-1.2,0.5-1.9,0.6C338.5,155.7,339.5,154.1,339.9,153.6z M530.9,154.5c-0.3,5.3,1,11.1-3.9,15.1c-6.1,4.9-13,8.1-21,8.3
	c-1.4,0-2.9-0.1-4.3-0.4c-2-0.9-1.5-3.7,0.1-6c3.2-4.5,6.2-9.3,10.2-13.1c5.2-5,11.3-9,17-13.5c1.6-1.3,1.8-0.7,1.8,0.9
	c0,2.8,0,5.6,0,8.4h0V154.5z M592.3,111.8L592.3,111.8l-0.2-0.1L592.3,111.8z"/>
</svg>
