<?xml version="1.0" encoding="UTF-8"?>
<svg width="1150px" height="368px" viewBox="0 0 1150 368" version="1.1" xmlns="http://www.w3.org/2000/svg" xmlns:xlink="http://www.w3.org/1999/xlink">
    <!-- Generator: Sketch 60.1 (88133) - https://sketch.com -->
    <title>epdp/exp/m-d/scripting/ristretto_L</title>
    <desc>Created with Sketch.</desc>
    <g id="epdp/exp/m-d/scripting/ristretto" stroke="none" stroke-width="1" fill="none" fill-rule="evenodd">
        <g id="script" transform="translate(177.000000, 46.000000)" fill="#FEFEFE">
            <path d="M128.369144,202.767808 C128.749882,204.268541 128.218229,204.661449 127.280192,205.570357 C126.473342,206.35322 125.668465,207.211907 124.833996,207.988861 C123.900891,208.85838 122.476574,209.799785 121.28208,208.837701 C120.315439,208.057793 119.859736,206.87119 119.74729,205.645197 C119.676271,204.868243 119.744331,204.075533 119.907082,203.360617 C120.33122,201.503411 121.598705,200.339457 123.526071,200.204548 C125.657615,200.056838 127.765486,200.386724 128.369144,202.767808 M583.719612,196.830854 C586.275295,197.521151 589.011483,199.541823 589.01247,202.484205 C589.014442,206.35519 583.651553,206.710678 580.922269,207.382266 C577.474908,207.413777 576.003245,204.680159 577.155325,201.666877 C578.428727,198.334541 579.884608,195.794915 583.719612,196.830854 M236.335151,210.636808 C233.268529,212.993273 230.454418,215.67864 227.903667,218.582617 C222.574313,224.650541 217.665154,231.129098 212.71358,237.504258 C210.620504,240.200457 208.666507,242.949831 206.771691,245.788815 C205.38387,247.871525 202.449421,253.521922 199.445927,253.583453 C197.177278,253.629258 195.338685,250.294953 194.746864,248.528342 C193.578016,245.041403 195.239062,241.613548 196.711711,238.505732 C200.23009,231.0838 204.129208,223.840106 208.2256,216.722457 C210.391667,212.955854 212.646507,209.384228 214.224698,205.335006 C215.550378,201.933739 218.146502,202.796365 220.525624,204.84264 C226.614482,210.078464 220.997109,218.334464 218.481867,223.928732 C223.286472,217.943525 228.455047,212.621044 234.553768,207.949472 C237.087751,206.009548 248.359979,197.361625 250.188707,203.567411 C250.722333,205.379319 250.453054,208.168083 248.900509,209.445281 C247.953595,210.224205 246.490809,210.496976 245.479781,209.74267 C244.399706,208.93519 244.809049,206.59448 243.86608,206.080449 C242.513768,205.342884 237.525699,209.721991 236.335151,210.636808 M451.255151,154.593693 C451.851905,154.670503 452.445699,155.008266 452.959597,155.30467 C453.465605,155.596151 453.950898,155.924067 454.459865,156.210625 C455.577421,156.840854 456.645659,157.564632 457.551146,158.480434 C459.136242,160.083579 460.188698,162.10622 460.602973,164.318915 C461.59526,169.612838 460.044688,175.217938 458.274155,180.180006 C456.546036,185.021938 454.281332,189.636396 452.04326,194.258732 C447.818641,202.985434 443.353347,211.612678 438.69867,220.119785 C434.119944,228.488044 428.760014,236.271373 423.662457,244.318609 C418.566874,252.363877 414.462591,260.683884 410.466809,269.292419 C409.329525,271.741449 406.632792,278.679877 402.906289,276.6208 C399.082135,274.507564 399.448078,268.610983 400.1701,265.04822 C402.061957,255.707044 405.652341,247.219632 409.764514,238.665258 C414.037466,229.77706 418.29069,220.87409 422.971999,212.190716 C428.233292,202.432999 433.716519,192.800342 438.839721,182.9668 C441.326358,178.192815 443.746908,173.38338 446.048108,168.516831 C447.213996,166.050075 448.659027,163.502571 449.519141,160.911739 C449.884098,159.812777 449.806175,158.634052 449.873248,157.494716 C449.925525,156.637014 449.769679,154.838892 450.824108,154.60551 C450.950363,154.577938 451.093387,154.573014 451.255151,154.593693 M105.755642,267.860617 C104.807741,271.38793 95.8465761,269.149632 93.5562267,268.361846 C85.0044051,265.421434 77.1045737,258.197434 71.2928859,251.488449 C64.2886777,243.400838 59.2867992,234.276304 55.0108884,224.569793 C54.5571585,223.540747 54.4960036,223.312289 53.5579665,223.415686 C51.3879541,223.656945 47.816311,224.020312 43.50785,224.463441 C37.7513989,235.681518 32.6913246,247.265915 27.0571833,258.537167 C25.6920483,261.266846 24.3782044,265.310159 21.2060408,266.520396 C17.9372131,267.767067 16.3027992,263.829121 15.8392056,261.167388 C15.2345613,257.69522 16.6213965,254.205327 17.7498029,250.985251 C19.1297335,247.049273 20.7759838,243.213739 22.5346802,239.432365 C29.4678698,224.519571 36.8281573,209.270983 46.7766777,196.105106 C52.2293271,188.888983 57.6819764,181.698464 63.0300706,174.402579 C64.3685737,172.576884 65.6646629,170.568029 67.3335997,169.019044 C68.7115575,167.739877 69.281679,167.899403 70.8243605,168.766953 C73.3080383,170.163304 75.2807769,171.564579 75.1762217,174.739357 C75.1150668,176.575884 72.7181895,179.05938 71.7357657,180.471487 C70.2493072,182.609342 68.7628488,184.747197 67.2763903,186.885052 C61.2230421,195.59009 54.9221152,204.182869 49.5700755,213.344823 C48.540306,215.10848 47.5421003,216.888877 46.5655947,218.680106 C57.7283357,216.029205 68.8486629,211.581167 79.3663184,207.77419 C89.7074138,204.03122 100.183642,199.53493 109.706051,193.944602 C116.380812,190.025365 126.71303,183.205106 122.162908,174.117991 C117.812033,165.429693 105.068142,162.905823 96.3792155,161.682785 C75.1564944,158.69609 51.4352998,158.624205 31.2906802,166.659625 C22.272306,170.255869 12.7153742,174.874266 6.31581034,182.366113 C4.68041009,184.281419 4.46242248,184.879151 4.83132459,187.208044 C5.07791691,188.768846 4.40126759,190.61719 2.32397391,190.044075 C-1.72408557,188.927388 0.455790511,181.816632 1.86333946,179.65022 C4.5837459,175.463136 9.55110154,172.452808 13.7007571,169.835388 C18.1926827,167.002312 22.9450098,164.564113 27.8374014,162.496174 C37.7592899,158.302197 48.2522862,155.956564 58.9869429,155.201273 C70.0027149,154.427273 81.3222887,154.666564 92.2739466,156.11609 C102.068593,157.411999 112.822978,159.751724 120.87471,165.810785 C127.901605,171.0988 132.093674,179.377449 128.923483,188.064762 C125.855875,196.471426 115.838308,202.453678 108.367548,206.510777 C99.1065266,211.537838 89.136306,215.49548 79.0191164,218.420136 C76.4476517,219.163609 65.1132825,221.829281 65.018591,222.112884 C64.743394,222.93809 71.9359987,232.474243 73.1235873,234.05277 C79.7904572,242.915365 86.6960284,251.090617 95.4283556,258.00738 C97.3064027,259.494327 99.2485637,260.90151 101.076306,262.45148 C102.337872,263.521884 106.286308,265.889182 105.755642,267.860617 M142.735612,238.367869 C142.655716,238.510655 142.587657,238.634732 142.539325,238.73222 C141.769957,240.313701 140.906883,242.321571 139.532871,243.461892 C138.334432,244.457457 136.747364,244.744014 135.22441,244.717426 C133.385818,244.686899 132.077892,243.643083 131.263151,242.027136 C131.031354,241.568251 130.856767,241.043388 130.986968,240.546098 C131.115196,240.061609 131.514675,239.692335 131.944732,239.430396 C134.055563,238.150243 136.404108,237.343747 138.75068,236.611106 C139.432261,236.399388 140.084251,236.099044 140.764846,235.885357 C141.417823,235.679548 142.505788,235.269899 143.181451,235.601754 C144.068197,236.037991 143.210056,237.521983 142.735612,238.367869 M211.02097,184.824991 C212.231245,183.810716 214.066878,183.902296 215.556296,183.737846 C217.362338,183.539915 219.171339,183.363648 220.981327,183.211999 C229.686036,182.482312 238.646214,181.905258 246.846888,185.507411 C248.138046,186.073632 249.395667,186.72651 250.591146,187.472938 C251.438437,187.995831 252.259097,188.561067 253.047206,189.165693 C253.394408,189.432556 255.037699,191.218861 255.283305,191.063273 C255.907677,190.639838 253.891538,186.005686 249.424271,183.242525 C246.27874,181.298663 242.826447,179.867846 239.239022,179.012113 C232.560316,177.4198 225.711954,177.406014 218.895156,177.491686 C217.977833,177.503503 214.605436,177.967312 214.315444,177.474945 C214.02841,176.987503 216.579161,172.965854 216.868167,172.086487 C217.483662,170.21451 217.52213,168.463655 216.774462,166.624174 C215.736802,164.074701 213.418834,161.473037 210.704346,163.435609 C207.942512,165.433632 205.84845,169.05351 204.045367,171.884617 C202.953456,173.599037 202.036133,175.404052 200.990581,177.14309 C200.189649,178.475434 199.983498,178.56406 198.421089,178.720632 C189.644375,179.59606 180.888375,180.410434 172.121525,181.451296 C167.710482,181.97419 163.287602,182.355281 158.855845,182.662518 C155.863201,182.870296 151.681981,183.609831 149.101639,181.756564 C147.867691,180.871289 147.317297,179.656128 147.556985,178.148503 C147.765109,176.841762 149.383741,175.384357 149.249595,174.122915 C148.892529,170.758083 144.584068,176.176083 144.142175,177.164754 C141.096266,183.976151 145.383027,192.958884 152.787701,194.373945 C155.635349,194.918503 158.570784,194.589602 161.445064,194.206541 C168.272712,193.296648 175.059919,192.091335 181.782026,190.593556 C183.536777,190.203602 185.284623,189.790014 187.033456,189.374457 C188.738888,188.968747 194.653159,187.506419 195.082229,187.35477 C194.305957,189.197205 193.102586,190.996312 192.145808,192.778678 C187.644019,201.170571 183.408549,209.706235 179.505486,218.392564 C179.067538,219.36548 178.677922,220.36006 178.289292,221.353655 C177.902636,222.346266 177.490333,223.32706 177.058304,224.300961 C176.769297,224.954823 176.46155,225.629365 175.916088,226.112869 C174.807409,227.093663 173.009258,227.379235 171.608613,227.687457 C169.90614,228.061655 168.175062,228.293067 166.442011,228.459487 C165.244559,228.573716 164.044147,228.657419 162.84275,228.735212 C161.200445,228.841564 159.559126,228.999121 157.909917,229.068052 C156.850556,229.112365 155.717218,229.213793 154.663776,229.035556 C154.63813,229.030632 154.291914,228.967609 154.300792,228.931174 C155.506135,223.848968 158.185114,218.81009 160.108534,213.981945 C161.864271,209.573296 163.637763,205.057312 167.559567,202.107052 C168.942457,201.06619 170.600544,200.133648 168.625833,198.492098 C167.544772,197.592052 165.434928,197.305495 164.237476,197.969205 C163.573649,198.33848 163.218556,199.095739 162.656326,199.574319 C161.821857,200.282342 160.857188,200.669342 159.882655,201.164663 C157.385168,202.434968 154.9587,203.840182 152.593387,205.340915 C143.374779,211.187273 134.756871,218.242884 126.789966,225.685495 C122.561401,229.637228 118.480792,233.741594 114.366646,237.811495 C111.195468,240.950823 107.956232,245.005953 103.891404,247.147747 C103.347914,247.433319 102.731434,246.869067 102.97408,246.306785 C103.888445,244.195518 105.762546,242.033044 106.86728,240.259541 C108.678254,237.354579 110.487255,234.448632 112.258774,231.521022 C114.981154,227.020793 119.086422,221.270938 118.798403,215.71606 C118.725411,214.281304 117.282353,211.555564 115.398388,211.962258 C113.830061,212.301006 112.877228,215.642205 112.227211,216.852441 C109.522586,221.890335 106.651265,226.84748 103.455429,231.592907 C100.927364,235.347693 97.7118004,239.077861 97.5954089,243.828212 C97.4869082,248.215197 101.213411,253.648953 105.900638,250.780426 C110.412291,248.02022 114.180222,243.519991 117.86727,239.793762 C121.902507,235.714999 126.027503,231.727815 130.237327,227.829258 C138.510992,220.169022 147.151587,213.30248 156.602978,207.138052 C155.414403,210.671273 153.764207,213.955357 152.211662,217.332006 C150.873159,220.239922 149.661897,223.205938 148.582809,226.21922 C147.980137,227.902128 147.439607,230.728312 145.665129,231.613586 C144.980589,231.940518 142.484088,232.581579 141.753188,232.761785 C138.833535,233.479655 135.912896,234.190632 132.994229,234.905548 C130.831121,235.436319 128.693659,236.102983 126.687384,237.070976 C126.067944,237.370335 125.530373,237.783922 125.281808,238.477174 C125.07467,239.053243 125.106234,239.693319 125.261094,240.284159 C125.753292,242.172877 126.963567,243.849877 128.192584,245.328945 C129.18783,246.527365 130.305387,247.803579 131.593585,248.703625 C133.965803,250.362899 136.76216,251.549503 139.784395,251.466785 C145.023002,251.323999 148.858992,245.803586 150.505243,241.360472 C151.050705,239.888296 151.396921,238.374762 151.78555,236.859258 C152.040033,235.865663 152.301421,234.920319 153.219731,234.349174 C153.799716,233.987777 154.428033,233.927709 155.086928,233.836128 C158.58558,233.34967 162.054641,232.674144 165.501015,231.902113 C166.195419,231.74751 166.889823,231.587983 167.581268,231.421564 C168.978953,231.086754 173.644479,229.964159 173.845699,229.918861 C174.716663,229.723884 172.607805,234.029136 172.216217,235.046365 C171.692455,236.41219 171.163761,237.776044 170.648876,239.145808 C169.785803,241.446144 168.949362,243.76322 168.217476,246.109838 C166.705372,250.960632 165.863999,256.104877 168.336826,260.803037 C168.962185,261.992594 170.419052,264.795144 172.023875,264.924144 C173.809203,265.067915 175.512663,262.404212 176.356009,261.10535 C178.831795,257.296403 180.177203,252.573625 181.790903,248.356014 C189.559548,228.039991 198.559181,208.284281 208.585624,188.985487 C209.307647,187.596029 209.778145,185.865854 211.02097,184.824991 M259.354051,211.503373 C260.093828,210.643701 260.845441,209.792892 261.606918,208.952915 C263.102254,207.304472 264.638031,205.693449 266.21129,204.118861 C267.679007,202.64964 269.22958,201.290709 271.27531,200.696915 C271.309833,200.687067 271.344356,200.67722 271.377892,200.668357 C272.317902,200.413312 274.560906,200.69593 275.137932,201.649151 C276.267325,203.518174 271.987468,207.23751 270.770289,208.494029 C268.273788,211.073044 265.527736,213.601838 262.944435,216.087304 C258.185203,220.664342 243.721084,234.698754 247.033312,228.438808 C248.725922,225.239411 251.03304,222.204464 253.16557,219.287686 C255.123513,216.612167 257.190943,214.016411 259.354051,211.503373 M367.051766,194.72648 C366.049615,194.462571 365.027736,194.254793 363.994021,194.101174 C360.527919,193.586159 357.015458,193.484732 353.51582,193.537907 C350.120737,193.589113 346.686199,193.996793 343.295062,193.892411 C342.663786,193.872716 342.031523,193.800831 341.425892,193.613732 C341.326269,193.58222 341.225659,193.54677 341.151681,193.473899 C341.072772,193.395121 341.036276,193.283846 341.010631,193.175525 C340.694992,191.853029 341.565957,190.719602 342.160737,189.623594 C343.310844,187.507403 345.144504,185.465067 345.740271,183.104663 C346.277843,180.97567 345.75704,177.488732 344.81703,175.50351 C341.815508,169.1638 337.32161,176.808281 335.410026,179.736877 C331.518799,185.697464 328.660301,197.186342 319.468326,195.048487 C320.545441,195.298609 322.083191,191.765388 322.441243,191.0938 C323.336866,189.4168 324.712851,187.39219 324.663533,185.432571 C324.576732,181.933815 321.348346,177.242548 317.591265,179.979121 C315.479449,181.518258 313.970304,184.480335 312.470036,186.552212 C311.517203,187.867815 310.539711,189.173571 309.636197,190.52364 C305.787384,196.282357 305.207399,197.260197 299.738968,197.567434 C295.18786,197.823464 289.305154,198.938182 284.864519,197.829373 C282.827667,197.223762 282.554442,195.724999 281.140975,194.593541 C279.452311,193.242487 278.688861,195.139083 278.72437,196.791464 C278.825966,201.697403 282.669848,204.795373 287.29296,205.203052 C288.283275,205.290693 300.388985,204.953915 300.458031,204.775678 C299.233947,207.964243 297.286854,210.992296 295.705704,214.021335 C291.980187,221.164586 286.455533,225.085793 280.082601,229.734716 C275.33126,233.199006 270.361932,236.369846 265.378794,239.488495 C260.676772,242.431861 255.78438,245.094579 250.342581,246.377686 C248.889659,246.719388 247.278918,247.301365 245.853615,246.560846 C243.922304,245.556419 243.128276,242.392472 243.149976,240.491938 C243.183513,237.623411 242.919166,236.579594 246.326085,234.949861 C248.430011,233.943464 250.464891,232.796251 252.359706,231.438304 C260.847414,225.35167 268.62099,218.381732 275.625198,210.653548 C277.932316,208.108014 281.019652,205.223732 279.05875,201.481747 C277.688683,198.865312 274.202854,197.937693 271.488365,197.730899 C268.182056,197.477823 265.221962,198.235083 262.68502,200.361121 C258.616247,203.768296 254.765461,207.475815 251.252014,211.453151 C247.515647,215.684548 243.781253,220.096151 241.017446,225.012922 C240.202705,226.462449 239.528028,227.984846 238.948043,229.542693 C238.370031,231.098571 238.16388,231.796747 237.954769,233.44322 C237.890655,233.949373 237.948851,234.481128 237.671681,234.886838 C237.468489,235.184228 235.927781,235.963151 235.612142,236.103968 C234.917738,236.41022 229.884296,238.947877 229.474953,239.623403 C228.309064,241.547571 235.852817,239.481602 237.468489,239.116266 C237.49808,239.926701 238.160921,243.26593 238.646214,244.719396 C239.16899,246.286106 239.828871,247.836075 240.790581,249.190083 C245.240093,255.451999 253.343116,252.859197 259.227795,250.404258 C268.848841,246.389503 276.719082,239.853831 285.336004,234.187678 C284.338784,240.098044 279.460202,245.760258 281.200157,251.962106 C281.77817,254.019212 282.934194,257.544556 285.477054,257.73264 C288.664014,257.968976 289.553719,254.154121 290.468083,251.89219 C295.782641,238.736159 301.801466,225.997655 308.454527,213.452159 C309.262363,211.929762 310.663007,209.483686 311.537917,207.998709 C314.439815,203.077014 313.849966,202.873174 319.088574,200.93719 C320.033515,200.587609 321.008048,200.303022 321.997377,200.115922 C323.903042,199.753541 324.206844,200.01351 323.373362,201.901243 C317.834898,214.436892 313.485996,227.28864 309.258418,240.311732 C307.478021,245.796693 304.892747,251.381113 303.613426,256.992121 C302.997932,259.692258 303.274115,262.314602 304.86217,264.635617 C305.65817,265.800556 306.447265,266.549938 307.742368,267.075785 C308.685337,267.459831 312.225416,266.984205 312.944479,265.056098 C313.544192,263.448029 314.130095,261.835037 314.697258,260.215151 C315.94896,256.642541 317.099067,253.037434 318.213664,249.42051 C320.304767,242.631762 322.27356,235.801655 324.554046,229.072976 C326.537634,223.221693 328.87533,217.491533 331.653932,211.969151 C333.434328,208.430022 335.234452,203.213892 338.246824,200.497999 C341.938804,197.168617 349.003181,198.233113 353.593743,198.136609 C359.364004,198.015487 364.985322,198.517701 370.641163,199.651128 C382.112638,201.949495 371.583146,219.430472 368.002626,224.57767 C364.994199,228.904586 361.487657,232.8898 357.481025,236.322579 C353.928123,239.367373 345.925709,245.343716 344.178849,244.355044 C341.748435,243.374251 347.499954,232.000586 349.725203,226.468357 C351.707805,221.541739 354.199374,216.603304 357.819349,212.607258 C359.665833,210.569846 361.800336,208.796342 364.181431,207.414762 C365.98846,206.366022 369.527553,206.427075 370.5879,204.361106 C370.603681,204.32664 370.619463,204.293159 370.634259,204.259678 C371.526923,202.110991 368.48496,201.794892 366.923538,201.920938 C363.164484,202.22522 359.725015,204.62009 356.687984,206.668335 C348.680638,212.06664 341.938804,219.260113 337.930199,228.101044 C334.670249,235.374281 331.730869,248.504709 341.707994,252.097014 C346.581644,253.851808 351.795592,251.898098 356.021198,249.396877 C361.482725,246.164983 366.279439,241.807541 370.665823,237.256106 C374.905238,232.856319 378.733337,227.869632 381.145996,222.223174 C382.154066,219.864739 382.900747,217.387151 383.245976,214.842602 C383.952217,209.640258 381.769382,204.677205 378.147434,201.006121 C375.074893,197.892396 371.227067,195.826426 367.051766,194.72648 M503.39759,224.261571 C497.672703,229.601777 486.135141,240.20735 484.796638,238.372793 C483.457149,236.538235 493.185709,225.22267 498.821823,219.585075 C501.347914,217.057266 504.036757,214.679136 506.984028,212.648617 C508.394536,211.675701 509.859295,210.779594 511.380276,209.988854 C512.338041,209.491564 515.371126,207.565426 516.437392,207.871678 C518.740564,208.532434 512.847007,214.770716 511.874447,215.849983 C509.212237,218.802212 506.302447,221.551586 503.39759,224.261571 M553.245734,207.724953 C554.922561,204.388678 556.721699,201.111487 558.667805,197.922922 C562.506755,191.631464 566.862561,185.576342 571.239082,179.648251 C575.515979,173.855067 580.21011,168.332686 584.941724,162.905823 C587.177823,160.340594 589.515518,157.855128 592.107696,155.644403 C593.070393,154.824121 594.410869,153.355884 595.638898,152.954113 C596.499012,152.67248 601.895439,152.360319 594.200772,165.228808 C593.280489,166.766961 592.433198,168.347457 591.528698,169.895457 C588.097119,175.762495 583.973109,181.197235 579.490061,186.300121 C574.506923,191.972182 569.234779,197.405938 564.032668,202.878098 C561.485862,205.557556 558.943989,208.244892 556.356742,210.88693 C554.15418,213.135075 549.494571,218.926289 548.696598,218.206449 C547.580028,217.825357 551.765193,210.671273 553.245734,207.724953 M541.412261,264.144235 C537.227097,264.892632 539.817302,253.422464 540.092499,251.418533 C540.941763,245.235396 542.323667,239.315182 543.979781,233.307327 C545.592494,227.457029 548.565411,223.794808 552.878804,219.60477 C560.790472,211.91893 568.755404,204.3808 576.239974,196.264632 C583.511488,188.378892 590.718888,180.489212 596.064023,171.131296 C598.641406,166.618266 601.520618,161.637487 602.928167,156.610426 C603.38387,154.981678 604.335716,151.003357 603.342442,149.46619 C602.718071,148.498197 600.958388,148.301251 599.951305,148.147632 C595.929877,147.536113 592.828732,148.876335 589.5747,151.206212 C585.645991,154.018609 581.920475,157.372609 578.418864,160.690174 C570.840589,167.866907 564.004063,175.991938 557.471339,184.115983 C551.148712,191.979075 545.753273,200.573823 541.447771,209.696388 C539.28269,214.284258 537.297129,219.015899 535.77812,223.857831 C534.622095,227.54467 533.771845,231.518067 531.064261,234.445678 C529.492975,236.145327 527.370308,237.193083 525.545525,238.585495 C523.530373,240.122663 521.645421,241.823296 519.716083,243.464846 C515.853461,246.752869 512.374536,250.443648 508.257431,253.430342 C508.158794,253.501243 508.046348,253.576083 507.927984,253.553434 C507.803701,253.530785 507.724792,253.412617 507.667582,253.299373 C506.970219,251.922716 507.53245,250.12164 507.76326,248.693777 C508.609565,243.440228 510.963042,238.639655 513.320465,233.899151 C514.823691,230.876022 516.442323,227.910006 518.170442,225.008983 C519.773292,222.319678 521.283424,219.331999 523.279835,216.923342 C524.301714,215.687503 525.453793,214.494006 526.047587,212.976533 C526.770596,211.063197 525.777322,209.442327 524.471369,208.063701 C522.872465,206.377838 521.499439,206.387686 519.373813,205.846083 C517.202814,205.294632 515.468777,204.158251 513.125163,204.261648 C510.816073,204.36406 508.578988,205.244411 506.531285,206.250808 C502.196192,208.38177 498.161942,211.176441 494.268742,214.014441 C478.383265,225.59293 463.54038,238.398396 450.920772,253.500258 C449.342581,254.251609 450.08729,252.31267 450.769857,250.874961 C451.186105,249.997564 451.58953,249.116228 452.026492,248.249663 C452.964529,246.384579 454.005149,244.573655 454.951077,242.711525 C457.070784,238.538228 458.967572,234.257594 460.868306,229.981884 C462.794685,225.652014 464.748683,221.340854 466.948286,217.139983 C468.718819,213.756441 470.352247,209.57822 473.655597,207.407869 C476.369099,205.625503 479.777005,204.779617 482.76669,203.557564 C487.030764,201.815571 491.504935,200.692976 495.876524,199.26019 C504.459909,196.447793 513.080777,195.289747 522.096192,193.440419 C519.736797,191.156823 516.10104,191.049487 512.980167,191.009113 C509.318764,190.961846 505.650457,191.205075 502.017659,191.655098 C494.247042,192.617182 486.631285,194.52067 479.094437,196.595503 C481.039558,193.410877 482.809104,189.726991 485.045203,186.752113 C486.685535,184.57093 489.098194,183.385312 486.640162,180.508907 C485.790898,179.516296 484.606269,178.91167 483.494631,178.271594 C481.61757,177.188388 481.349278,176.767907 479.796732,178.347419 C476.927384,181.267151 474.694244,184.882106 472.468009,188.290266 C469.878789,192.252831 467.272802,197.879594 463.494021,200.886968 C461.778725,202.252793 458.131131,203.687548 455.976901,202.489128 C454.390819,201.607793 453.601724,197.620609 451.67929,200.762892 C449.754883,203.911083 451.972242,208.104075 454.525952,210.177922 C455.441302,210.92238 456.480935,210.918441 457.446591,211.452167 C457.85988,211.67964 458.021644,211.901205 457.973312,212.377815 C457.907225,213.04251 457.379518,213.752503 457.059934,214.3138 C456.385258,215.503357 455.698745,216.685037 455.064509,217.897243 C453.374859,221.125197 451.687181,224.354136 450.048821,227.608678 C446.654725,234.356067 443.338551,241.25806 440.903206,248.419037 C439.673203,252.033006 440.041119,254.456434 442.310755,257.51009 C443.717317,259.400777 445.336935,262.631686 448.119483,261.623319 C451.13876,260.529281 454.101813,257.551449 456.451344,255.443136 C458.920227,253.229457 461.230304,250.846403 463.526571,248.455472 C468.976261,242.780457 478.483875,233.385121 483.833942,227.616556 C481.745798,230.484098 480.125193,236.005495 480.552291,238.470281 C480.983335,240.955747 482.360306,243.656869 485.129045,243.993648 C488.282467,244.376709 491.049233,241.746487 493.339582,239.994648 C496.13298,237.856793 499.033892,235.860739 501.871677,233.783938 C499.427453,238.119716 495.372489,243.094586 495.146611,248.239815 C495.032192,250.827693 496.214849,253.261953 497.862085,255.196953 C499.384053,256.984243 501.688212,259.084678 504.093966,259.470693 C505.966095,259.770052 507.900365,259.258976 509.485461,258.249625 C510.856514,257.377151 511.906011,256.20138 513.124177,255.151655 C514.38673,254.063525 515.680846,252.989182 516.946358,251.896128 C520.591979,248.747938 524.245491,245.607625 527.901962,242.47322 C528.377392,242.065541 528.853808,241.658846 529.328251,241.251167 C529.535389,241.073915 530.629273,240.365892 530.646041,240.123648 C530.136088,247.985754 528.753198,257.487441 534.000683,264.153098 C535.098512,265.54551 536.835508,267.558304 538.526145,268.242693 C540.405178,269.002907 543.003275,267.440136 544.637689,266.498732 C547.966685,264.580472 554.256762,258.060556 553.283216,257.307235 C552.309669,256.553915 548.794249,260.461335 546.467404,261.679449 C545.235429,262.324449 542.839538,263.888205 541.412261,264.144235 M704.43247,194.506884 C708.319751,192.742243 722.182185,192.763907 729.47244,198.240991 C729.699305,198.41135 729.551349,198.766838 729.27122,198.727449 C720.619776,197.500472 713.576113,196.494075 704.536038,195.212938 C703.808098,195.110525 703.763711,194.811167 704.43247,194.506884 M795.49704,199.238525 C794.976237,197.793922 792.82102,199.531976 791.734041,199.939655 C789.624197,200.732365 787.42558,201.267075 785.204276,201.641273 C775.740063,203.236541 765.658383,203.318273 756.125124,202.390655 C752.241788,202.012518 748.295325,201.932754 744.432703,201.490609 C739.887513,200.97067 738.213644,197.78506 734.660742,195.508357 C727.467151,190.897838 717.660668,189.278938 709.404757,191.33309 C706.985193,191.935747 704.782631,192.498029 702.512009,193.508365 C701.344147,194.028304 699.549942,194.870251 700.836167,196.340457 C701.882705,197.537892 705.164356,198.050938 706.791865,198.434983 C709.216361,199.007113 711.673406,199.430548 714.142289,199.763388 C718.577005,200.361121 722.988048,200.981503 727.408955,201.659983 C728.960514,201.897304 731.170968,202.194693 732.564707,203.023838 C734.121198,203.948503 734.686388,205.642243 735.094745,207.32909 C737.077347,215.510251 730.799106,224.339365 727.2393,231.228556 C723.271136,238.909472 718.158784,244.621907 711.813471,250.39835 C709.009223,252.949793 705.813387,255.923686 702.06617,256.989167 C697.016945,258.423922 697.138269,254.264411 697.52098,250.477128 C698.421535,241.537724 703.482596,233.918846 708.691612,226.875052 C711.162467,223.535823 713.389689,219.964197 716.035131,216.760861 C717.505808,214.980464 719.172772,213.564419 720.989664,212.16019 C722.138784,211.269991 724.664876,209.907121 725.152142,208.466457 C725.825833,206.481235 723.879726,205.944556 722.472177,206.449724 C720.35247,207.210922 718.255449,208.794373 716.345838,209.976052 C712.838308,212.146403 709.902874,215.030686 706.792851,217.708174 C699.971121,223.582106 692.719335,228.731273 686.238888,235.041441 C680.058299,241.060128 674.171647,247.349617 667.955548,253.334823 C667.754328,253.5298 667.415017,253.316113 667.505763,253.05122 C669.958864,245.857747 673.585743,239.165503 677.293506,232.550067 C679.129139,229.273861 680.887835,225.959251 682.692891,222.667289 C683.693069,220.843564 685.92325,218.283258 685.297892,216.037083 C684.445669,212.968655 680.872053,212.069594 678.370621,213.43148 C674.764455,215.395037 671.481818,218.264548 668.386591,220.93219 C662.316475,226.16309 656.637947,231.770159 651.069892,237.518044 C651.073838,235.774083 652.935116,233.62835 653.771558,232.212304 C654.788504,230.489022 655.799533,228.7618 656.820425,227.041472 C659.138393,223.137006 661.772985,219.395022 663.927216,215.402915 C664.769575,213.840144 665.458061,212.192686 666.050869,210.519625 C666.691022,208.716579 666.911969,207.691472 665.282487,206.239976 C663.241689,204.422159 659.754874,201.105579 656.729679,201.601884 C654.865441,201.908136 653.613738,203.814579 652.392613,205.071098 C650.908128,206.599403 649.370378,208.074533 647.877015,209.593976 C644.978076,212.540296 642.290219,215.701289 639.647736,218.876067 C634.448584,225.122228 629.833362,231.736678 625.26154,238.432861 C625.083007,238.693815 624.67761,238.485052 624.789069,238.189632 C626.174918,234.515594 627.616004,230.859281 629.259295,227.292579 C630.892722,223.74951 633.374427,220.302945 634.281887,216.477258 C634.939795,213.699327 634.299642,211.100617 631.769605,209.544739 C627.968137,207.205014 626.106859,209.464976 623.487062,212.208441 C617.302527,218.686999 611.710799,225.664815 604.974883,231.602754 C601.718878,234.474235 598.349441,237.216716 594.992826,239.971014 C592.120519,242.32748 588.716559,246.208312 585.240593,247.678518 C585.059102,247.755327 584.865773,247.611556 584.862814,247.415594 C584.841114,245.429388 587.426388,242.041907 588.331875,240.516556 C589.972207,237.753396 591.783181,235.090678 593.72041,232.526434 C597.366031,227.700258 602.024653,223.76822 606.239409,219.459029 C610.499538,215.100602 615.27751,211.270976 620.592068,208.265571 C623.399275,206.679167 625.922408,206.512747 628.936752,205.678678 C631.328698,205.016938 637.000321,203.914037 635.239652,201.691495 C631.635458,197.142029 620.317857,201.658014 616.28558,203.617632 C609.113689,207.102602 602.538551,212.091258 596.25242,216.945991 C589.480995,222.174922 582.916707,227.651022 576.537857,233.347701 C573.292703,236.24577 570.022888,239.115281 566.731374,241.960174 C564.555444,243.841014 562.291726,245.734655 559.504247,246.54706 C559.280341,246.612052 559.08504,246.362915 559.189595,246.156121 C561.560826,241.509167 564.11355,237.292541 567.113099,232.984335 C569.964693,228.887846 572.801491,224.651525 574.786066,220.048884 C575.742844,217.830281 576.089059,215.20006 574.205094,213.316266 C573.195052,212.306915 570.361213,211.164625 569.086824,212.01051 C568.031409,212.70967 567.262041,216.357121 566.722497,217.462976 C565.589159,219.783006 564.139196,221.970098 562.753347,224.144388 C560.128618,228.262541 557.371716,232.322594 555.266804,236.74109 C553.555453,240.33438 550.182071,247.230464 554.535905,250.337296 C558.285094,253.012815 564.229942,247.878419 566.994735,245.786846 C571.292346,242.535258 575.51302,239.186182 579.76723,235.878464 C579.986204,235.707121 580.28902,235.943457 580.17756,236.198503 C578.233426,240.603212 576.549694,245.38409 578.670388,250.077327 C580.8404,254.87593 585.010769,255.780899 589.383344,253.342701 C594.09819,250.71248 597.942071,246.774533 601.938839,243.210785 C605.863602,239.712029 609.76272,236.184716 613.671701,232.667251 C613.882784,232.477197 614.206313,232.702701 614.099786,232.966609 C611.828177,238.625869 607.349074,246.514564 611.279756,251.950289 C612.619245,253.803556 616.370408,257.105365 618.842249,256.146235 C621.275622,255.202861 623.22666,250.476144 624.543463,248.452518 C633.319191,234.966602 642.502289,221.561434 652.747706,209.13509 C652.952871,208.886938 653.353337,209.152815 653.203409,209.437403 C651.059042,213.489579 648.240985,217.312312 645.945704,221.237457 C643.119756,226.069541 640.333263,230.925258 637.474764,235.737648 C634.826363,240.195533 631.694641,244.488968 629.316504,249.093579 C627.314175,252.972441 627.192851,256.90251 629.97244,260.487922 C631.550631,262.521396 633.039062,263.441136 634.97925,261.386983 C636.67186,259.595754 638.059681,257.357457 639.544167,255.386022 C642.999419,250.797167 646.456643,246.199449 650.289674,241.914877 C653.947131,237.827251 657.915295,234.035044 661.833154,230.200495 C665.45017,226.659396 668.882735,222.732281 673.178373,219.983892 C673.415102,219.832243 673.692271,220.109938 673.546289,220.349228 C671.745178,223.303426 670.083146,226.436846 668.330368,229.42551 C666.366507,232.774586 664.503255,236.174869 662.790918,239.658854 C661.186095,242.922258 658.536707,246.772564 660.037962,250.548029 C660.631756,252.043838 661.797644,253.223548 662.458512,254.687846 C662.958601,255.79567 663.066115,257.131953 664.258636,257.756273 C669.089872,260.287037 676.617843,250.499777 679.332331,247.691319 C684.638011,242.202419 689.524484,236.307808 695.189203,231.17538 C695.403245,230.981388 695.737624,231.223632 695.621233,231.486556 C694.210725,234.654441 692.674948,237.755365 691.800038,241.134968 C689.847027,248.669159 690.657823,256.557854 697.662031,261.063006 C705.056841,265.819266 711.511642,260.952716 717.688286,256.320533 C724.577089,251.15364 730.392722,244.709548 734.818561,237.328976 C739.144777,230.114823 743.50157,222.171968 743.621907,213.550632 C743.654457,211.239464 743.230318,209.953403 742.989644,207.684579 C742.887062,206.715602 742.755875,205.829342 743.706735,205.282815 C745.100475,204.481243 748.286447,204.689022 749.808415,204.837716 C752.160906,205.068144 754.518328,205.209945 756.879696,205.294632 C766.548088,205.642243 776.009342,205.198128 785.550492,203.538854 C787.198715,203.252296 796.4696,201.939648 795.49704,199.238525"></path>
            <path d="M598.096805,75.9771384 C599.775038,72.5103019 601.355597,68.9832327 603.80043,65.9567862 C604.536445,65.0453962 605.335604,64.175478 606.177187,63.3608553 C607.134205,62.4356415 608.206656,61.6545912 608.616101,60.2643019 C608.751268,59.8041635 609.268254,59.3943836 609.705325,59.0981572 C610.282495,58.7071384 610.943528,58.4385597 611.580881,58.1403585 C613.512675,57.2358805 614.075046,56.7579686 615.110992,55.0467673 C616.471535,55.5493648 617.820239,56.0855346 618.936101,57.1460252 C618.82856,59.1959119 617.764988,60.7609748 616.603742,62.235195 C614.398656,65.035522 611.705195,67.3599119 608.968323,69.6053082 C606.233424,71.8487296 603.362373,73.9233019 600.558411,76.0827925 C599.818449,76.6525346 599.117952,77.2894214 597.737677,77.042566 C597.904415,76.5419434 597.967558,76.2437421 598.096805,75.9771384 M655.720094,72.7443208 C655.720094,71.1249497 647.976147,76.2032579 642.339612,80.0097673 C640.899153,80.8164906 639.510985,81.7249182 638.084338,82.5612642 C635.369172,84.1539748 632.731948,85.9145472 629.902335,87.2712642 C625.93318,89.1730377 622.029141,91.235761 617.878449,92.7524403 C615.438549,93.6440818 613.069684,94.7371572 610.607092,95.5517799 C607.244706,96.6646038 603.900078,97.8593836 600.373914,98.4044403 C597.60843,98.8319937 594.869585,98.7214025 592.158365,98.1042642 C590.377524,97.698434 589.822059,96.9381195 589.764836,95.0995409 C589.716491,93.5808868 589.946373,92.121478 590.677455,90.7568616 C591.160897,89.8553459 591.630526,88.9390189 592.012346,87.9910943 C592.835184,85.9491069 593.831665,84.1312642 596.318923,83.8103522 C596.529073,83.7827044 596.708637,83.5536226 596.910893,83.4311824 C598.728239,82.3272453 600.58801,81.288478 602.355038,80.1104843 C606.019329,77.6685912 609.66882,75.2020126 613.258128,72.6515031 C616.2456,70.5295346 619.459994,68.7235409 622.063673,66.0614528 C623.53965,64.5536604 624.612101,62.9046667 625.099489,60.8518176 C625.379688,59.6688868 625.1577,58.6133333 624.287505,57.8105597 C622.846059,56.4795157 621.48453,55.0240566 619.599107,54.2706541 C618.281975,53.7433711 616.991482,53.1449937 615.659551,52.6631321 C613.042059,51.7152075 610.451206,51.4752642 607.9896,53.1647421 C607.670923,53.3839497 607.249639,53.4510943 606.918136,53.656478 C605.058365,54.8097862 603.055535,55.798195 601.394075,57.192434 C598.630564,59.5089245 596.080162,62.0821447 593.462671,64.5704465 C593.009814,64.9999748 592.660553,65.5381195 592.268866,66.0298553 C592.027145,66.3329937 591.853501,66.7417862 591.543704,66.9323585 C590.141723,67.7963522 589.36131,69.1945409 588.458556,70.4712767 C587.688996,71.5613899 587.086174,72.7680189 586.374824,73.9005912 C583.80765,77.9924654 582.405669,82.4595597 582.083046,87.266327 C581.865004,90.4961824 582.423428,93.5433648 584.33253,96.2587736 C585.056706,97.2896415 585.656568,98.4093774 586.376797,99.444195 C586.818801,100.079107 587.318029,100.705132 587.902105,101.206742 C590.777103,103.680233 594.199673,104.643956 597.927107,104.787132 C601.767015,104.935245 605.489516,104.126547 609.020614,102.872522 C614.19048,101.037893 619.444208,99.3859371 624.31809,96.7337233 C627.416063,95.0491824 630.587046,93.478195 633.713631,91.8341384 C634.478258,91.4312704 635.303069,91.123195 636.020338,90.652195 C639.267291,88.522327 642.49451,86.3608616 645.72173,84.2023585 C650.936981,80.6318428 655.720094,74.3636918 655.720094,72.7443208 M491.726809,69.1264088 C489.230671,73.3979937 486.727627,77.6656289 484.271941,81.9599245 C482.402304,85.2273019 480.557333,88.5055409 478.397631,91.594195 C477.552101,92.8018113 476.725317,92.9321509 475.763367,91.8301887 C474.991834,90.947434 474.339681,89.9531006 473.7043,88.9646918 C473.464553,88.5934214 473.417195,88.0977358 473.343199,87.8548302 C473.898663,85.0732642 474.778725,82.6442075 475.912346,80.2941447 C478.961975,73.9746478 482.66573,68.0343208 486.374419,62.0949811 C486.663497,61.6318805 486.938763,61.1460692 487.128193,60.6375472 C487.515933,59.6027296 488.265761,59.1583899 489.317493,59.2038113 C490.327788,59.2472579 491.387413,59.1761635 492.332591,59.4615283 C494.820836,60.2119686 495.651566,62.3941698 494.388698,64.6721509 C493.550075,66.1848805 492.59799,67.6324403 491.726809,69.1264088 M395.360109,71.7134528 C389.778824,77.3881635 384.136369,83.0184403 378.015405,88.1243962 C375.47783,90.2414277 372.779436,92.1629497 370.158985,94.1792642 C369.659757,94.5633711 369.188155,94.9830252 368.69386,95.374044 C368.388996,95.6149748 368.075252,96.0079686 367.745723,96.0306792 C366.165164,96.1343585 365.030556,97.2185472 363.311872,97.5513082 C363.627589,96.8581384 363.868323,96.1185597 364.269876,95.4796981 C365.231826,93.9541321 366.191803,92.4364654 367.278067,90.9770566 C369.201967,88.3919874 371.189011,85.8661635 373.28557,83.4242704 C374.309677,82.230478 375.360423,81.0485346 376.497004,79.9623711 C381.104499,75.5594591 385.751459,71.1980189 390.38066,66.8158428 C391.463964,65.7899119 392.523589,64.7363333 393.605906,63.7084277 C394.745447,62.6281887 395.879069,61.5420252 397.057088,60.5072075 C397.396484,60.2090063 397.875979,60.0668176 398.297264,59.8722956 C400.358304,58.9214088 402.535765,58.2134277 404.335352,56.7362453 C405.142403,56.074673 406.127046,55.8396667 407.21035,55.8801509 C408.304507,55.9226101 408.996124,56.3560881 409.357226,57.5014969 C408.785975,58.5688994 407.916767,59.4733774 407.011054,60.3176226 C403.036966,64.0244025 399.173379,67.8368365 395.360109,71.7134528 M475.594656,96.2261887 C470.791811,94.4409308 465.779803,93.9689434 460.714518,93.8553899 C456.29152,93.7566478 451.89812,94.1575409 447.509654,94.689761 C443.596736,95.1627358 439.65126,95.3898428 435.755115,95.9615597 C428.964239,96.9578679 422.246373,98.345195 415.653807,100.291403 C415.293692,100.398044 414.914832,100.443465 414.296224,100.567881 C414.526105,100.03961 414.548797,99.8480503 414.655352,99.7651069 C416.997577,97.9324528 419.395054,96.1975535 421.562648,94.1160692 C423.00508,92.730717 424.69022,91.5211258 426.272751,90.2384654 C429.508851,87.6148868 432.869264,85.1413962 436.210931,82.6491447 C438.73864,80.7641572 441.309761,78.9354528 443.876935,77.1027987 C447.139673,74.7754465 450.815803,73.0405472 453.735199,70.2175094 C453.951268,70.0071887 454.289677,69.9291824 454.555076,69.764283 C459.169478,66.8918742 463.770067,63.9967547 468.398281,61.1470566 C473.294855,58.1324591 478.237799,55.1919182 483.121547,52.1575723 C486.80261,49.8716918 490.712568,47.9580692 494.182495,45.3226415 C494.659031,44.9592704 495.32401,44.8338679 495.912032,44.6284843 C497.435367,44.098239 498.976461,44.4655597 500.72869,44.7292013 C500.373509,43.5689811 500.117975,42.6072327 499.785486,41.6741195 C499.25666,40.1910126 498.659757,38.7325912 498.123038,37.2524465 C497.77279,36.2887233 497.084132,35.6814591 496.181379,35.2973522 C495.458189,34.9902642 494.731054,34.6051698 493.970373,34.4866792 C491.013486,34.0255535 488.052652,33.5249308 485.074059,33.2830126 C478.85838,32.7774528 472.626916,32.756717 466.398411,33.1319371 C460.188652,33.5061698 453.97988,33.729327 447.779,34.4106478 C442.617027,34.9774277 437.438281,35.4879245 432.262495,35.9658365 C429.452614,36.2255283 426.612147,36.505956 423.812132,35.7466289 C423.696698,35.7150314 423.534893,35.8562327 423.232988,35.9865723 C422.443696,38.0641069 421.610006,40.2561824 420.798021,42.3929623 C421.184774,43.4504906 421.528117,44.4142138 421.889218,45.3710252 C422.221707,46.251805 422.820583,46.8126604 423.793386,46.9212767 C426.69305,47.2441635 429.588767,47.5719874 432.513096,47.2629245 C435.169065,46.9834843 437.826021,46.7089811 440.483964,46.4413899 C441.189394,46.3702956 441.915543,46.4127547 442.604201,46.2676038 C446.306969,45.4905031 450.088667,45.4490314 453.830901,45.0560377 C456.55692,44.770673 459.31451,44.7815346 462.058289,44.6600818 C463.944698,44.5761509 465.837027,44.6037987 467.6524,43.8869308 C468.202931,43.6696981 468.885669,43.7644906 469.507237,43.7605409 C470.127818,43.7556038 470.749386,43.8336101 471.369967,43.828673 C474.125585,43.8089245 476.881203,43.7635031 479.63682,43.7536289 C479.970296,43.7526415 480.303772,43.9145786 480.818786,44.0478805 C480.451765,44.4487736 480.283054,44.7390755 480.032453,44.8911384 C475.448637,47.6549308 470.938816,50.5243774 466.545417,53.5893333 C464.680713,54.8907547 462.62066,55.9077987 460.827979,57.3464717 C459.982449,58.0258176 459.001753,58.5382893 458.081241,59.125805 C456.028094,60.4341384 453.939428,61.6911258 451.930679,63.0646289 C449.786763,64.5299623 447.725723,66.115761 445.616338,67.6314528 C442.36248,69.9686792 439.079023,72.2654214 435.844897,74.6283208 C433.815428,76.1104403 431.876728,77.7159874 429.852193,79.203044 C427.765501,80.735522 425.602839,82.1623459 423.515161,83.6918616 C421.820155,84.9320629 420.440866,86.5227987 418.683704,87.7462138 C415.945845,89.6558868 413.604606,92.1066667 411.013753,94.2414717 C408.773149,96.0869623 406.805837,98.2622516 404.708293,100.282516 C403.827245,101.130711 402.920545,101.95422 401.691222,103.099629 C401.845134,102.356101 401.813562,101.995692 401.97734,101.799195 C403.08235,100.48 403.501662,98.8813648 403.926893,97.2758176 C404.656002,94.532761 405.212453,91.725522 406.180323,89.0683711 C407.716484,84.8530692 408.708032,80.4511447 410.655612,76.3721069 C412.04378,73.4641509 413.00573,70.3527862 414.832943,67.6521887 C415.00856,67.3915094 415.257187,67.1031824 415.266067,66.8207799 C415.316384,65.4660377 416.184606,64.5161384 416.796308,63.4270126 C417.090319,62.9017044 417.369532,62.2322327 417.305401,61.6684151 C417.155436,60.3719308 417.365585,59.144566 417.703994,57.9320126 C417.956568,57.0314843 417.65269,56.4113836 417.013363,55.8426289 C415.85409,54.811761 414.343581,54.542195 412.985011,53.9408553 C411.425172,54.5461447 410.208675,53.6466038 409.083933,52.8675283 C407.712537,51.9186164 406.271092,51.9867484 404.783275,52.1338742 C404.081792,52.2029937 403.386227,52.3915912 402.699543,52.569327 C399.635115,53.3651887 396.63087,54.3387862 393.98674,56.1388553 C391.316958,57.9557107 388.663948,59.8012013 386.077042,61.7335849 C383.677593,63.5247673 381.313662,65.3742075 379.048392,67.3302893 C376.911382,69.1728176 374.878954,71.1427233 372.880071,73.136327 C368.11373,77.8877987 363.908774,83.1142201 360.281975,88.7741195 C358.494227,91.5655597 357.647711,94.6769245 358.732988,98.0371195 C358.877034,98.4824465 358.902686,98.966283 358.969776,99.4343208 C359.301279,101.717239 361.223206,103.668384 363.530901,103.826371 C364.665509,103.90339 365.826755,104.054465 366.958403,103.344509 C371.565899,100.44939 376.006656,97.3202516 380.166227,93.822805 C384.626717,90.0715912 388.965853,86.1762138 393.009004,81.9638742 C394.066656,80.8619119 395.231849,79.8616541 396.347711,78.8149874 C396.287528,79.7757484 395.974771,80.5627233 395.679772,81.3566101 C394.716836,83.9416792 393.716407,86.5139119 392.813654,89.1207044 C391.73331,92.2370063 391.638595,95.3138113 393.499352,98.2267044 C393.583214,98.357044 393.606893,98.5239182 393.681876,98.6621572 C394.865814,100.866082 395.99253,103.113453 398.162097,104.580761 C398.827076,103.963623 399.452591,103.479786 400.582266,104.318107 C397.867099,106.467723 396.190839,109.664994 392.76235,110.770906 C392.620277,111.731667 393.285256,112.178969 393.813096,112.223403 C395.215076,112.342881 396.662442,112.387314 398.043704,112.165145 C399.892621,111.868918 401.749432,111.440377 403.506595,110.801516 C405.640644,110.024415 407.657287,108.916528 409.999512,108.850371 C413.513837,107.404786 417.183061,106.524006 420.897669,105.781465 C423.1363,105.334164 425.335467,104.485969 427.58495,104.340818 C430.199482,104.172956 432.739031,103.678258 435.309164,103.300075 C438.424897,102.841912 441.533723,102.312654 444.661294,101.968044 C448.341371,101.563201 452.036247,101.302522 455.728162,101.021107 C457.298855,100.901629 458.894212,101.014195 460.449119,100.804862 C463.832224,100.347686 467.216315,100.524434 470.599421,100.617252 C472.320078,100.66366 474.044683,100.835472 475.747581,101.083314 C477.538289,101.343994 479.309264,101.740937 481.080239,102.121094 C481.795535,102.274145 482.468407,102.447931 483.084055,101.607635 C482.667704,101.083314 482.256285,100.517522 481.796522,99.9932013 C480.127168,98.0884654 477.907283,97.0862327 475.594656,96.2261887 M363.819979,65.1085912 C359.945539,69.5648239 356.172721,74.1089371 352.907023,79.0381447 C350.340836,82.9127862 347.893042,86.8683962 345.452155,90.8240063 C344.801975,91.8785723 343.80352,92.7603396 343.660461,94.1091572 C343.638755,94.3135535 343.416767,94.5031384 343.273707,94.6877862 C342.371941,95.851956 341.467214,97.0131635 340.551635,98.1901698 L337.445769,98.1901698 C335.737937,97.3478994 334.559918,95.2012453 333.201348,93.3448931 C332.237424,92.027673 332.382457,90.1693459 332.614312,88.5094906 C333.370059,83.0954591 334.825317,77.8670629 336.890304,72.8094906 C338.111734,69.8185912 339.385455,66.8484277 340.63747,63.8703648 C340.749945,63.6027736 340.872285,63.3401195 340.745011,62.8868931 C339.561073,63.974044 338.342602,65.0256478 337.200101,66.1542704 C334.566824,68.7561258 331.887176,71.3174969 329.379199,74.0368553 C325.905325,77.8018931 322.527153,81.658761 319.194365,85.5501887 C316.945868,88.1757421 314.882855,90.9573082 312.669876,93.6144591 C310.859436,95.7857987 308.987826,97.9087547 307.066885,99.9823396 C306.379214,100.723893 305.492247,101.292648 304.644744,101.865352 C304.274763,102.116157 303.787375,102.252421 303.335505,102.311667 C302.40414,102.432132 301.459948,102.466692 300.407229,102.545686 C300.003704,102.215887 299.522235,101.822893 298.935199,101.343006 C299.484744,100.339786 298.933226,99.5222013 298.403413,98.7520126 C297.22934,97.0457484 297.173103,95.3562704 297.845975,93.3824151 C298.869096,90.3865786 299.993837,87.4519623 301.49152,84.6654591 C304.477019,79.1151635 307.474358,73.5707925 310.447031,68.0590063 C314.921333,69.3772138 314.947971,69.3959748 316.895551,72.8795975 C316.180254,73.5688176 315.416614,74.2145912 314.765447,74.9591069 C314.359948,75.423195 313.94261,76.0047862 313.842962,76.5873648 C313.413784,79.0736918 311.865784,81.0208868 310.809119,83.2001258 C308.884231,87.1715346 306.911987,91.1182579 304.9723,95.0827547 C304.885478,95.2604906 304.919023,95.4974717 304.875612,95.9023145 C305.921424,95.4451384 306.471956,94.6848239 307.066885,94.0005409 C310.999535,89.4771635 314.862136,84.8915786 318.860889,80.4274465 C321.538564,77.4355597 324.328713,74.5325409 327.199765,71.7243145 C333.062235,65.9903585 338.814205,60.1379119 345.082174,54.8285472 C346.020445,54.033673 346.753501,52.9376352 347.397761,51.8692453 C348.32814,50.3308428 349.089807,48.6907358 349.979734,46.9894088 C351.813853,47.1730692 353.494059,48.0341006 355.270954,48.5860692 C357.159336,49.1725975 357.813463,51.0546226 359.439405,51.9196038 C358.853356,53.8312516 358.107474,55.5246792 357.16131,57.1608365 C354.990755,60.9150126 352.89617,64.7126352 350.798625,68.508283 C350.635834,68.803522 350.695031,69.2221887 350.615115,69.883761 C352.334786,68.1537987 353.789057,66.624283 355.316338,65.1707987 C357.701975,62.8987421 359.757096,60.3018239 362.322296,58.202566 C364.880591,56.1102201 367.323451,53.8776604 369.85708,51.7547044 C372.613684,49.4461132 375.836958,48.3313145 379.41344,48.1703648 C380.903229,48.1032201 382.201616,48.4646164 383.294786,49.6850692 C383.002748,50.415761 382.75412,51.1523774 382.420644,51.847522 C381.837554,53.0620503 380.870671,53.3632138 379.72225,52.7233648 C379.449945,52.5713019 379.220063,52.344195 378.96453,52.161522 C378.377493,51.7438428 377.761845,51.7823522 377.195528,52.1585597 C376.540415,52.5940126 375.873463,53.0383522 375.306159,53.5774843 C372.682748,56.0697358 370.068216,58.5728491 367.499069,61.1213836 C366.217455,62.3941698 365.006878,63.7439748 363.819979,65.1085912 M316.146709,54.0958805 C316.06778,53.9250566 316.170388,53.6209308 316.274969,53.4214717 C317.513172,51.0556101 318.715857,48.6680252 320.039895,46.3505472 C320.70882,45.1804528 321.201141,45.0560377 322.357455,45.4608805 C324.568461,46.2340314 326.388767,47.4633711 327.186939,50.045478 C326.402579,50.3160314 325.440629,50.1777925 325.381432,51.3261635 C325.373539,51.4861258 325.10518,51.6648491 324.922656,51.7803774 C324.005103,52.3639434 323.025394,52.8606164 322.163092,53.5152767 C320.550962,54.7396792 318.627061,54.6399497 316.789983,54.8887799 C316.606472,54.9134654 316.290755,54.4069182 316.146709,54.0958805 M498.238472,48.4152453 C499.124453,48.9050063 500.042992,49.3661321 500.831298,49.9882075 C501.481478,50.5006792 502.158296,51.1365786 501.856392,52.1625094 C501.57126,53.1341321 501.010862,53.813478 499.96505,54.0198491 C499.505287,54.1097044 499.051444,54.2390566 498.604507,54.3802579 C497.715566,54.6606855 496.823665,54.9351887 495.949524,55.2620252 C494.928377,55.6451447 494.503145,55.5276415 494.041409,54.6458742 C493.682281,53.9576415 493.289608,53.2842201 492.965998,52.5801887 C492.775581,52.1644843 492.688759,51.7003962 492.555566,51.2580314 C492.504262,50.4098365 492.957119,49.8035597 493.606312,49.5221447 C494.813929,48.9968365 496.086663,48.6117421 497.351505,48.2276352 C497.607038,48.1496289 497.979979,48.2730566 498.238472,48.4152453 M558.634151,68.2831509 C558.65783,68.2703145 558.682495,68.257478 558.706174,68.2446415 L558.787076,68.313761 C558.736759,68.3028994 558.687428,68.2910503 558.634151,68.2831509 M527.522212,59.4289434 C523.850029,66.3073208 520.297226,73.255805 515.871268,79.6908302 C514.41009,81.8167484 512.675619,83.7599937 511.002319,85.7318742 C507.427811,89.942239 503.600728,93.8948868 499.057363,97.0911698 C497.590266,98.1230252 496.065945,99.0265157 494.060155,99.7127736 C494.98856,96.7840818 495.472988,94.0311509 496.824652,91.5260629 C498.126985,89.1137925 499.228048,86.5948805 500.540247,84.189522 C501.319673,82.7597358 502.312208,81.4415283 503.252453,80.1045597 C504.246962,78.6915597 505.221738,77.2538742 506.333654,75.9356667 C508.554526,73.3041887 510.373845,70.3596981 512.904514,67.9602642 C515.17965,65.8057107 517.1736,63.3588805 519.363887,61.1115094 C520.511321,59.9354906 521.769256,58.8532767 523.059749,57.8352453 C524.474556,56.721434 525.986052,55.7310503 527.524185,54.6369874 C528.781134,56.426195 528.360836,57.8569686 527.522212,59.4289434 M586.346212,50.6438553 C586.472499,50.2557987 586.237684,49.7492516 586.164675,49.2713396 C585.786801,49.1429748 585.493776,49.0511447 585.204698,48.9435157 C583.696162,48.3796981 582.375084,48.5060881 581.051046,49.5952138 C579.048216,51.2402579 576.822411,52.6147484 574.8403,54.2815157 C569.775015,58.542239 564.749195,62.8533208 560.052904,67.5297484 C559.913792,67.6689748 559.674044,67.7084717 559.471788,67.7854906 C559.516185,67.4359434 559.487574,67.0439371 559.648392,66.7605472 C560.117034,65.94 560.738602,65.2053585 561.180606,64.3729623 C562.659543,61.5913962 564.104935,58.7920566 565.516782,55.9769182 C565.829539,55.3528679 566.034755,54.6468616 566.147229,53.9556667 C566.335673,52.7984088 566.368231,51.6184403 566.538916,50.4582201 C567.047023,46.980522 565.949906,44.1495849 563.372866,41.762 C561.079971,39.6380566 558.492078,39.0604151 555.526312,39.7377862 C549.737837,41.0599434 544.124981,42.8540881 538.936369,45.8173396 C538.416423,46.1145535 537.834319,46.3051258 537.148621,46.6023396 C536.691818,45.234761 535.722962,44.8733648 534.53113,44.8654654 C534.060514,44.8625031 533.589899,44.7746226 533.12027,44.7153774 C531.42625,44.5030818 529.842732,44.7607987 528.34209,45.6415786 C527.394939,46.1965094 526.346166,46.5746918 525.366457,47.0763019 C521.147688,49.2357925 517.036461,51.5601824 513.488591,54.7653522 C511.850809,56.2445094 510.15679,57.6604717 508.506182,59.1248176 C504.422579,62.7486541 500.6764,66.6785912 497.682021,71.2730629 C495.832117,74.1109119 494.028583,76.9773962 492.161906,79.8033962 C489.649983,83.6069434 488.177952,87.8400189 487.025585,92.1975094 C486.531291,94.0696604 486.689149,95.9368742 487.45279,97.7557044 C487.940178,98.9139497 488.359489,100.109717 488.689019,101.321283 C488.995857,102.449906 489.600652,103.361296 490.501432,104.018918 C492.505249,105.483264 494.761639,106.163597 497.187727,105.382547 C498.674556,104.90266 500.128828,104.21739 501.471612,103.414616 C505.204966,101.180082 508.485463,98.3372956 511.722549,95.4540252 C517.733998,90.1012138 522.387864,83.6711258 526.369845,76.7275786 C528.173379,73.5836289 529.964086,70.4278302 531.645279,67.2167358 C532.773967,65.0621824 533.754663,62.8246855 534.697868,60.5802767 C535.304637,59.1337044 535.561157,57.581478 535.68251,56.004566 C535.754533,55.0655283 535.967642,54.1551258 536.798373,53.499478 C540.710304,50.4098365 544.803772,47.5986478 549.457639,45.7531572 C551.324315,45.0116038 553.153501,44.0547925 555.390159,43.8049748 C555.249073,44.2266038 555.198755,44.5188805 555.062602,44.7647484 C554.187474,46.3535094 553.304453,47.9373333 552.405646,49.5122704 C550.106832,53.5488491 547.686663,57.5202579 545.527948,61.6299057 C543.550771,65.393956 541.927788,69.3426541 540.01178,73.1402767 C537.596545,77.9263082 535.163551,82.7113522 532.491795,87.355195 C531.213141,89.5759057 531.180583,91.6090063 532.013287,93.8593396 C532.92492,96.3269057 534.515344,98.3688931 536.047558,100.595528 C536.896048,100.401006 537.984285,100.480987 538.478579,99.9774025 C539.922985,98.502195 541.577539,97.3182767 543.16895,96.0415409 C543.469868,95.8015975 543.710602,95.4727862 543.935551,95.1548365 C544.936966,93.7428239 545.851558,92.2626792 546.931902,90.9148491 C548.057631,89.5097484 548.726556,87.8252075 549.975612,86.4793522 C551.564063,84.7661761 552.630595,82.6116226 554.353226,80.9823774 C554.809042,80.5508742 555.180996,80.0295157 555.579589,79.5407421 C557.912935,76.6801824 560.170312,73.7534654 562.5964,70.9738742 C564.921853,68.3088239 567.404178,65.7790503 569.856904,63.2285409 C570.563321,62.4948868 571.380239,61.8550377 572.204063,61.2497484 C572.674679,60.9031635 573.233103,60.8814403 573.640575,61.5153648 C573.609004,61.7237107 573.635642,61.9883396 573.531061,62.1789119 C572.084683,64.796566 570.565294,67.3747233 569.177126,70.022 C567.49396,73.2301321 565.774289,76.4323396 564.328897,79.7500755 C561.942273,85.2282893 559.725348,90.7825346 557.518289,96.3367799 C556.795099,98.1585723 556.27318,100.06627 555.752247,101.960145 C555.475994,102.968302 555.640759,103.961648 556.188331,104.921421 C556.849363,106.078679 557.426533,107.29222 557.935627,108.524522 C558.357899,109.549465 559.822036,109.888151 560.618235,108.848396 C561.30196,107.95478 561.830786,107.022654 562.207673,105.975987 C563.141998,103.384006 564.022059,100.768327 565.056032,98.2158428 C568.221096,90.4043522 571.344721,82.5760755 575.007038,74.9749057 C575.927551,73.0652327 576.523467,70.9946101 577.486403,69.1096226 C579.744767,64.6958491 581.890656,60.2238176 584.38482,55.9255723 C585.314212,54.3229874 585.762136,52.4310881 586.346212,50.6438553 M166.787895,75.0509371 C164.453562,80.3010566 161.951505,85.4790943 159.628025,90.7351384 C157.559092,95.4135409 155.609539,100.146252 153.659987,104.876987 C153.214036,105.958214 153.009807,107.137195 152.655612,108.258906 C152.276751,109.454673 151.837707,110.630692 151.455887,111.825472 C151.264484,112.421874 151.124384,113.03605 150.997111,113.649239 C150.803734,114.57939 150.68238,115.506579 149.713524,116.05756 C149.443191,116.212585 149.339597,116.697409 149.20443,117.048931 C148.75552,118.211126 148.393432,118.480692 147.351566,118.38195 C145.892361,118.241736 142.517149,115.999302 141.767321,114.727503 C141.094449,113.585057 140.889233,112.351767 141.053998,111.077994 C141.257241,109.515893 141.451604,107.934044 141.869929,106.422302 C142.457952,104.294409 143.001577,102.169478 143.412996,99.9971509 C144.37396,94.9257547 146.36199,90.1881069 148.395405,85.483044 C150.710992,80.1272704 153.205157,74.8495031 155.507918,69.4897799 C158.214205,63.1910189 160.772499,56.8300503 163.440308,50.5154906 C167.187474,41.649434 171.07178,32.8524969 175.994992,24.5502579 C178.607551,20.1443836 181.105662,15.6684025 183.591933,11.1884717 C184.891306,8.84630818 186.09991,6.44884906 187.259184,4.03361635 C187.661723,3.1952956 187.77025,2.21774843 188.059329,1.31919497 C188.197455,0.892628931 188.443122,0.501610063 188.686816,0 C191.083306,1.08912579 193.19861,2.45472956 195.244851,3.90130189 C195.894044,4.36045283 196.272904,5.25110692 196.671497,5.99957233 C196.881646,6.3955283 196.878686,6.90898742 196.951696,7.37208805 C197.172698,8.76632704 197.670939,10.1961132 197.51308,11.5488805 C197.366075,12.8226541 196.514625,14.010522 195.989746,15.2428239 C194.441746,18.8735723 192.6096,22.3433711 190.572239,25.7341761 C188.018878,29.9850252 185.784193,34.4264465 183.374878,38.7651761 C180.314396,44.2799245 177.673226,49.9931447 175.224445,55.8001698 C174.94918,56.4518679 174.587092,57.0670314 174.30492,57.7157673 C171.798916,63.4931698 169.346189,69.2952579 166.787895,75.0509371 M202.047566,96.8354277 C198.599344,99.1321698 194.893616,100.794 190.978725,102.051975 C190.772522,102.118132 190.526855,102.060862 190.03848,102.060862 C190.069065,100.768327 190.608744,99.9240818 191.39705,99.2417736 C193.06443,97.8001384 194.674587,96.2706226 196.470227,95.0077107 C199.041348,93.2007296 201.756514,91.5981447 204.417417,89.9205157 C204.532851,89.8474465 204.716361,89.885956 205.048851,89.8573208 C204.782465,92.5371824 204.668017,95.0896667 202.047566,96.8354277 M302.247268,72.6801384 C304.236285,70.1148176 306.174985,67.5327107 307.501983,64.5566226 C309.821516,59.3548868 309.68931,52.5989497 304.303375,47.8968491 C302.998082,46.7583522 301.598075,45.7304465 300.242465,44.6521824 C294.283306,39.9125597 287.420407,37.2633082 279.973432,36.1415975 C274.276713,35.2835283 268.549409,34.9705157 262.766855,35.4928616 C256.478166,36.0616164 250.201317,36.6846792 244.02609,38.0048616 C237.225348,39.4583459 230.681126,41.6997925 224.573975,44.8536164 C224.573975,46.4354654 224.42401,47.929434 224.605547,49.3829182 C224.952836,52.1555975 225.872361,53.5360126 227.931428,54.9401258 C228.447428,54.7683145 228.976254,54.6251384 229.477455,54.415805 C230.365409,54.0445346 231.046174,53.5834088 231.310587,52.4735472 C231.656889,51.0279623 232.882266,50.0691761 234.100736,49.4016792 C238.526694,46.9775597 243.104591,44.9049623 248.158036,44.1327987 C250.491382,43.7763396 252.835581,43.4811006 255.151168,43.0387358 C258.943719,42.3129811 262.756988,41.843956 266.609723,41.5684654 C272.702075,41.1320252 278.727336,41.4381258 284.722013,42.6378428 C290.105975,43.7151195 294.839757,46.0987547 299.049646,49.5655912 C302.174258,52.1388113 303.005975,55.2867107 301.678977,59.1119811 C300.916323,61.3080063 299.636683,63.1929937 298.192277,64.9851635 C294.309945,69.8047673 289.496247,73.6537358 284.836461,77.6429182 C282.826725,79.3639937 280.459834,80.6861509 278.187658,82.0794025 C275.711252,83.5980566 273.168744,85.0090818 270.634128,86.4289937 C267.550954,88.1579686 264.450021,89.8533711 261.350075,91.5507484 C259.968813,92.3071132 258.584591,93.0595283 257.17669,93.7625723 C255.360331,94.6690252 253.49464,95.4767358 251.695054,96.416761 C250.374962,97.1069686 249.172277,98.0302075 247.838373,98.6907925 C244.747306,100.22327 241.609868,101.659969 238.490189,103.131226 C237.96235,103.380057 237.425631,103.612101 236.822809,103.884629 C236.822809,103.582478 236.79617,103.494597 236.826755,103.438314 C238.60069,100.105767 240.376598,96.775195 242.15744,93.4485723 C243.345325,91.2337862 244.54505,89.0259119 245.731948,86.8121132 C246.363382,85.6341195 246.886289,84.3870063 247.619344,83.2781321 C249.408078,80.5686478 250.980744,77.7643711 252.01965,74.6737421 C252.294916,73.8551698 252.698442,73.0790566 253.024025,72.2772704 C254.177379,69.4354717 255.478725,66.6420566 256.432782,63.7350881 C257.690717,59.9058679 256.98134,56.1378679 253.382166,53.9843019 C252.714227,53.5843962 252.076874,53.0709371 251.56186,52.4893459 C250.698572,51.5157484 249.635,51.1800252 248.40173,51.1770629 C247.795948,51.1760755 247.094465,50.8768868 246.682059,51.5749937 C246.262748,52.2849497 246.608063,52.9712075 246.949432,53.5843962 C247.171421,53.9843019 247.550281,54.3052138 247.88869,54.6300755 C248.406663,55.1297107 248.486579,55.7231509 248.297149,56.3699119 C248.187635,56.7461195 248.032736,57.1114654 247.874878,57.4718742 C246.707711,60.1438365 245.555344,62.8227107 244.354633,65.4798616 C243.838633,66.6232956 243.169707,67.6985975 242.660614,68.8449937 C242.196904,69.8857358 241.417478,70.3419245 240.359826,70.6549371 C232.123558,73.0918931 223.754097,75.1151195 215.800988,78.4476667 C215.342212,78.6412013 214.807467,78.6540377 214.129662,78.7853648 C214.172086,78.1050314 214.140514,77.6360063 214.239176,77.1946289 C214.61409,75.5041635 214.962365,73.8018491 215.448767,72.1419937 C216.261738,69.368327 216.67217,66.4613585 218.107696,63.8841887 C218.254702,63.6205472 218.283314,63.2788994 218.322778,62.9668742 C218.463864,61.8668868 219.083459,61.0927484 219.948721,60.463761 C220.647245,59.955239 221.329983,59.4249937 222.01864,58.9016604 C223.82612,57.5281572 223.894197,56.7194591 222.334358,54.8650818 C222.121249,54.9006289 221.860782,54.8818679 221.668392,54.987522 C219.114044,56.3837358 216.500499,57.6891069 214.03396,59.2294843 C206.981631,63.6323962 200.589348,68.9160881 194.480224,74.5216792 C190.473577,78.1998239 186.701746,82.1396352 182.88157,86.017239 C177.282526,91.7028113 172.111673,97.7497799 167.64921,104.388214 C166.11305,106.673107 164.428897,108.85827 162.725011,111.211296 C162.519795,112.584799 162.997317,113.903994 163.993799,115.197516 C164.701203,114.976333 165.359275,114.769962 165.683872,114.668258 C171.705187,105.700497 178.156667,97.4979874 185.353042,89.8750943 C192.536591,82.2650377 199.918449,74.8781384 208.55331,68.370044 C208.515818,69.0444528 208.562189,69.4265849 208.465501,69.7692201 C207.416728,73.4987107 206.87409,77.3299057 206.313692,81.1462893 C206.10453,82.5711384 205.540185,83.3719371 204.29113,83.9900629 C198.543107,86.8318616 193.234128,90.3846038 188.112606,94.218761 C186.796461,95.2042075 185.640147,96.4108365 184.455222,97.5621698 C183.580094,98.4103648 183.109478,99.4915912 182.929914,100.699208 C182.828293,101.389415 182.716805,102.078635 182.614197,102.744157 C183.689608,104.404013 185.221822,105.147541 187.129937,105.382547 C188.198442,105.513874 189.224522,105.969075 190.276254,106.247528 C190.650182,106.34627 191.105998,106.50722 191.422702,106.38083 C192.585922,105.916742 193.606082,106.405516 194.61835,106.784686 C196.103206,107.338629 197.529853,107.295182 199.00287,106.759013 C199.731979,106.493396 200.528178,106.416377 201.277019,106.196182 C201.871948,106.020421 202.449119,105.773566 203.021356,105.526711 C203.5857,105.283805 204.121432,104.973755 204.688736,104.741711 C207.368384,103.647648 209.306097,101.938421 210.29074,99.0650252 C211.497371,95.5428931 212.735574,92.0533459 212.827329,88.2873208 C212.875673,86.3430881 213.694564,85.0633899 215.540522,84.2981384 C218.374082,83.1231069 221.112927,81.7209686 223.948461,80.5498868 C227.368071,79.1368868 230.839971,77.8483019 234.302006,76.5399686 C235.659589,76.0265094 237.047757,75.5890818 238.611543,75.542673 C237.083275,78.3824969 235.627031,81.0830943 234.177692,83.7866541 C233.58079,84.8984906 233.010526,86.0241509 232.40869,87.1320377 C228.712828,93.923522 216.544897,115.564836 211.113577,127.567931 C208.799964,132.678824 206.769509,137.897346 205.06365,143.229421 C204.399658,145.303006 204.249692,147.562226 204.03757,149.753314 C203.878725,151.410208 204.758786,152.808396 205.738495,154.061434 C206.55344,155.103164 207.724553,155.544541 209.203489,155.601811 C210.647895,153.841239 212.299489,152.200145 213.437057,150.077189 C215.886824,145.501478 217.696277,140.635465 219.973386,135.983723 C221.250067,133.373969 222.620476,130.819509 223.597226,128.04683 C224.424996,125.69973 231.278029,113.97805 232.540897,111.189572 C233.336109,109.435912 234.580231,108.714107 236.305822,108.42183 C237.155298,108.277667 238.025493,108.161151 238.827612,107.870849 C239.51627,107.623006 240.167436,107.595358 240.881746,107.557836 C242.516568,107.472918 244.195788,107.360352 245.755627,106.909101 C248.239925,106.191245 250.641348,105.185063 253.080262,104.307245 C254.114235,103.934987 255.203459,103.68122 256.185141,103.204296 C261.64014,100.553069 267.080338,97.8761698 272.498832,95.1538491 C274.676293,94.0597862 276.835994,92.9114151 278.910847,91.6386289 C281.798671,89.867195 284.663803,88.0454025 287.421394,86.0794465 C290.170105,84.1194151 292.913883,82.1100126 295.400155,79.837956 C297.829203,77.6172453 300.204973,75.3106289 302.247268,72.6801384"></path>
        </g>
    </g>
</svg>