<?xml version="1.0" encoding="utf-8"?>
<!-- Generator: Adobe Illustrator 23.0.6, SVG Export Plug-In . SVG Version: 6.00 Build 0)  -->
<svg version="1.1" id="what_else_" xmlns="http://www.w3.org/2000/svg" xmlns:xlink="http://www.w3.org/1999/xlink" x="0px" y="0px"
	 viewBox="0 0 1122.2 183" style="enable-background:new 0 0 1122.2 183;" xml:space="preserve">
<style type="text/css">
	.st0{opacity:0.7;fill:#FFFFFF;enable-background:new    ;}
	.st1{opacity:0.7;fill:#FFFFFF;}
</style>
<title>Decaffeinato_Ontuoso_VL_White</title>
<path class="st0" d="M166.9,22.2c-4.3-5.4-9.8-9.7-16-12.8c-15.9-8.1-33-9.7-50.5-9.3C81.2,0.5,62.8,5.2,45.3,12.7
	C28.1,20,12.6,29.7,2.3,46c-1.6,2.6-2.6,4.8-2.2,8s2,5.5,3.9,7.6c1,0.7,2.2,1,3.4,0.8c1.5-0.3,2.1-1.7,1.7-3.3
	c-0.8-3-0.1-6.2,1.7-8.7c2.8-4.1,6-8,9.3-11.6C29,30,39.7,23.3,51.5,19.1C67.1,13.4,83.1,8.8,99.9,7.7c10.8-0.8,21.6-0.2,32.3,1.7
	c7.4,1.4,14.6,3.7,20.9,7.9c5.3,3.6,9.5,8,9.5,14.7c0.1,3.5-0.5,7.1-1.7,10.4C155.3,56.2,145.5,67.9,133,76
	c-21.3,13.9-44.3,25.2-68.3,33.6c-1.4,0.4-2.7,0.8-4,1.4c-1.8,1-1.2,1.3,0.4,1.6c2.7,0.4,5.4,0.6,8.1,0.5c7.7-0.2,15.4-1.2,22.8-3.1
	c8.4-2.1,16.5-5,24.2-8.9c1.3-0.6,2.5-1.2,3.8-1.7c9.9-5.1,17.1-9.7,17.1-9.7c3.4-2.4,6.9-4.7,10.1-7.2
	c10.4-8.1,18.8-17.9,23.3-30.4C174.3,41.4,174,31.2,166.9,22.2z"/>
<path class="st0" d="M408.8,76.7c-1.5-1-3.6-1.1-5.5-1.3c-0.9-0.1-1.9,2.6-2.3,3.3c-0.9,1.5-1.9,2.8-3.1,4c-3.5,3-7,6.1-10.7,8.8
	c-8,5.9-15.6,12.5-25.1,16.1c-1.8,0.7-3.6,1.1-5.5,1.3c-2.6,0.2-3.7-1-3.1-3.5c1-3.9,1.8-4.8,3.1-8.6c0.7-1.8,2.3-3.1,4.3-3.4
	c7.4-1.8,14.5-4.9,20.8-9.3c4.9-3.4,12.5-9.1,14.1-15.1c1.3-4.8-3.3-8.2-8.4-8.1c-0.8,0-1.5,0.1-2.3,0.2c-6,1.1-11.8,2.7-16.9,6.3
	c-1.2,0.7-2.5,1.1-3.9,1c-4.8-0.1-9.6-0.5-14.5-0.8c-1-0.1-1.9-0.3-3.6-0.7c2.5-4,4-8.3,7-10.9c8.5-7.7,17.1-15.2,24.8-23.8
	c5.4-5.8,10-12.2,13.8-19.1c0.9-2.1,1.7-4.3,2.3-6.5c-5.8-4.3-11.9-5-17-1.3c-4.6,3.2-8.8,6.8-12.6,10.9c-8.6,9.7-15,20.8-20.9,32.3
	c-2.6,5.2-5.5,10.3-8.2,15.5c-0.9,2.2-3.1,3.5-5.5,3.2c-3.5-0.2-7.1,0-10.7,0H309c2-3.2,3.4-5.9,5.3-8.2c5-6,10.3-11.9,15.5-17.8
	c6.6-7.5,13.4-15,19.9-22.6c3-3.2,5-7.1,6-11.3c0.7-3.5-0.9-5.3-4.5-5.2c-0.9,0.1-1.8,0.3-2.6,0.6c-4,1.7-7.8,3.6-10.6,7
	c-9.7,11.7-17.7,24.6-25.3,37.7c-3.3,5.6-6.3,11.3-9.6,17c-1.1,1.8-2.1,3.9-4.6,4c-3.2,0.1-6.4,0.1-9.5,0.2c-0.3,0-0.6,0-0.8-0.1
	c-0.5,0-0.9,0-1.4-0.1c-2.4,0-2.2,1.6-2.2,2.7c0.1,2.7,1,3.5,3.9,3.6c1.6,0.1,3.2,0,5.6,0c-9.8,11.4-19.5,21.9-29.8,31.9
	c0.7-4.2,1.9-8.2,3.4-12.2c3.1-7.6,6.6-15.1,9.9-22.6c0.3-0.7,0.5-1.5,0.6-2.2c0.3-2.7-0.7-3.5-3.4-4c-3.4-0.7-5,1.5-6.6,3.8
	c-2.1-0.3-4-0.5-5.9-0.9c-3.4-0.6-7,0.4-9.6,2.7c-3.2,2.6-6.2,5.3-9.8,7.5c-11.8,7.1-23.4,14.4-35.9,20.2c-1.3,0.5-2.7,1-4.1,1.3
	c-0.3,0.1-0.5-0.2-0.5-0.5c1.1-4.5,2.6-8.8,4.7-12.9c1.3-2.7,2.9-5.3,4.4-7.9c1.4-2.4,2.9-4.8,4.6-7c3.8-4.8,9.3-9,15.7-8.7
	c0.4,0,0.8,0.2,1,0.6c0.8,1.3,1.7,2.8,2.5,2.8c2-0.1,3.7-1.3,4.3-3.2c0.2-0.4,0.1-0.9-0.1-1.3c-2.1-3.7-5.3-4.2-8.9-3.7
	c-1.9,0.3-3.8,0.3-5.7,0.7c-14.2,2.8-22.4,13.3-29.8,24.4c-1.2,1.9-2.3,3.6-4.3,4.6c-10.6,5.6-21.2,11.2-31.8,16.7
	c-1.5,0.6-3.1,1.1-4.7,1.4c-0.2,0.1-0.4-0.1-0.5-0.3c0-0.1,0-0.1,0-0.2c0.2-1.1,0.6-2.2,1.1-3.2c3.2-5.2,6.5-10.3,9.8-15.4
	c1.5-2.4,3.8-3.4,6.5-4.2c7.3-2.1,14.5-4.8,20.6-9.7c2.1-1.6,3.6-3.5,3.7-6.5c0-0.4-0.3-0.8-0.7-1c-0.9-0.5-2-0.8-3-1
	c-4.8-1-10.4-1-14.8,1.4c-5.3,2.8-10,6.3-14.2,10.6c-3.3,3.4-8,8.3-10.4,12.4c-0.9,1.6-1.9,3.2-2.8,4.9c-2.5,4.7-3.3,9.6-1.3,14.6
	c0.8,1.7,2,3.2,3.6,4.2c4.6,2.7,8.6,0.4,12.4-2c3-1.9,5.6-4.3,8.5-6.4c5.6-4,11.2-7.7,16.9-11.6c0.6-0.4,1.2-0.8,1.9-1.2
	c-0.5,5.1,0.8,10.2,3.5,14.5c4.2,6.6,7,7.1,13.4,2.1c10.4-8,20.7-16.1,31.1-24.2c-0.4,1.1-0.8,2.1-1.3,3.2c-1.9,3.4-4,6.8-5.9,10.3
	c-0.9,1.8-1.6,3.7-1.9,5.8c-0.6,3.8,2.4,6.4,6.1,5.2c1.2-0.3,2.4-0.9,3.4-1.7c4.1-3.4,8.2-6.8,12.2-10.3c1.3-1.1,2.4-2.4,3.5-3.6
	c0.2,1.2,0,2.5-0.5,3.6c-1.5,4.4-3.4,8.4-2.2,13.5c0.3,1.6,0.9,3.1,1.7,4.5c1,1.8,3.3,2.4,5,1.3c0.1-0.1,0.3-0.2,0.4-0.3
	c12.6-9.9,21.9-23,33.6-33.7c-3.8,8.6-7.9,17-11.6,25.7C276,122,269.9,136.9,264,152c-3.5,8.8-4.2,17.8-0.2,26.7
	c0.9,2.1,1.5,4.1,4.2,4.3s4.8-0.4,6.4-3c7-11.3,11.4-24,12.9-37.1c1.2-9.7,2.3-19.4,3.3-29.2c0.3-3.6,1.9-6.9,4.6-9.3
	c10.7-9.3,21.3-18.6,31.9-27.8c0.6-0.4,1.3-0.7,2-1c-0.8,1.7-1.2,2.8-1.7,3.8c-7.5,17.1-15.1,34.2-22.6,51.3
	c-4.2,9.4-7.3,19.3-9.5,29.4c-0.8,3.9-1,7.7,1.2,11.4c0.5,0.8,0.8,1.7,1.1,2.6c1,3.7,2.7,4.9,6.2,4c3.7-0.9,6.1-3.4,8-6.6
	c7.6-13.4,14.7-27.1,15.9-42.9c0.6-7.6,1.1-15.2,1.6-22.8c0-1.4,0.2-2.8,0.6-4.1c4.2-9.4,8.6-18.7,12.9-28.1
	c0.8-1.8,2.7-3.1,4.7-3.1c3.9-0.1,7.9-0.4,11.8-0.6c1.3-0.1,2.6,0,3.9,0l0.4,0.8c-0.9,1-1.8,2-2.6,3c-2.6,3.3-5.3,6.5-7.6,10
	c-2.1,3.4-3.8,7-5.2,10.7c-1.5,4.5-1.8,9.4-0.9,14.1c1,5.3,5,8.8,10.3,7.8c1.9-0.2,3.7-0.9,5.4-1.8c6.6-4.4,13.3-8.9,19.6-13.8
	c4.3-3.3,7.9-7.4,11.8-11.1l0.7,0.5c-1,2.4-1.7,4.4-3.2,7.1c-1.8,3.5-1.8,6.7-1.3,10.2c0.2,1.4,0.6,2.9,1,4.3
	c0.1,0.5,0.7,0.9,1.2,0.7c0.1,0,0.1,0,0.2-0.1c1.8-1.1,3.2-2.8,3.8-4.8c3.2-8.4,11.9-24.1,11.9-24.1c0.3-0.4,0.6-0.9,0.8-1.4
	C410.4,80.2,410.6,77.9,408.8,76.7z M374.8,17.2c2-3,4.9-5.3,8.3-6.6c0.8,2.8-0.6,5-2,7c-4.2,5.8-8.6,11.6-13.1,17.2
	c-2.5,3.1-5.5,5.9-8.3,8.9l-0.9-0.7C364.1,34.3,369.4,25.7,374.8,17.2L374.8,17.2z M323.8,40.2c5.3-8.1,10.6-16.1,16.2-24
	c3-4.3,5.7-6,10.4-7.6c-1.1,2.2-1.7,3.9-2.8,5.2c-4.2,5.3-8.6,10.4-12.9,15.5c-3.9,4.7-7.9,9.4-11.9,14.1
	C323,42.3,323.4,41.2,323.8,40.2L323.8,40.2z M189.2,68c1.1,0.1,1,0.5,0.9,0.9c-0.6,1.1-1,2.7-2,3.4c-4.9,3.6-10.7,5.2-16.5,6.8
	C176.4,73.5,181.3,68.2,189.2,68z M240.5,98.8c-0.8,0.9-2,1.4-3.3,1.3c1.6-2.3,3.1-4.6,4.8-6.8c5.4-7.5,11.7-14.3,18.8-20.3
	c0.8-0.5,1.8-0.8,2.8-0.9c0.4-0.1,0.9,0.2,0.9,0.6c0,0.2,0,0.3-0.1,0.5c-0.1,0.4-0.3,0.7-0.6,1C256.1,82.4,248.4,90.7,240.5,98.8
	L240.5,98.8z M277.6,164.6c-1.5,3.3-3.3,6.6-5.3,9.6c-0.7,1.1-1.9,1.8-3.6,3.4c2.4-18.5,5.9-35.7,13.7-51.7c0.2,0.2,0.6,0.3,0.6,0.4
	C283,139.3,282.6,152.3,277.6,164.6L277.6,164.6z M319.9,77.3c-7.9,6.8-15.7,13.6-23.6,20.4c-1,0.7-2,1.2-3.1,1.6v0.3l-0.1-0.2
	c3.4-7.1,7-14,10-21.3c1.7-4.1,4.1-5.9,8.5-5.9c3.4,0,6.8-0.7,10.2-1c1.3-0.1,2.7,0,4,0L326,72C324.1,73.8,322,75.5,319.9,77.3z
	 M324.2,126.7c-1.8,9.6-3,19.4-7.7,28.2c-2.8,5.2-6.5,9.9-9.9,14.9c1.1-5.2,1.8-10.6,3.5-15.6c4.5-13.1,9.4-26,14.2-39
	c0.4-1.1,1.1-2.2,1.6-3.2l0.8,0.2C325.9,117,325.1,121.8,324.2,126.7L324.2,126.7z M377.7,68.5c2.1-1.4,4.4-2.2,6.9-2.5
	c1.4-0.1,3.4-0.2,4.5,0.7c1.7,1.3-0.1,4.6-1.2,5.8c-6.8,8.3-16.1,12.3-26.3,14.9C365.2,79.5,370.4,73,377.7,68.5z"/>
<path class="st0" d="M331.8,43.5L331.8,43.5L331.8,43.5L331.8,43.5z"/>
<path class="st0" d="M921.5,53.2c-5.1-0.7-10.3-0.7-15.5-0.1c-6,0.4-12,1.4-17.9,3c-1.3,0.4-2.3,1.2-3,2.3
	c-7,13.8-14.3,27.5-20.7,41.6c-3.7,8.1-6,16.9-9.1,25.3c-0.6,1.7-1.9,3.2-3.3,5.4c-3.1-2.6-5.6-4.8-8.2-6.9c-1.5-1.2-1.9-3.3-1-5
	c2.6-6.6,4.9-13.4,8-19.8c5.2-10.5,11-20.6,16.5-31c0.3-0.8,0.6-1.5,0.7-2.3l0.2-0.1H868c-8.5,10.4-17,20.7-25.5,31.1
	c-4.8,5.9-9.6,11.9-14.4,17.8c-0.6,0.8-1.3,1.5-2.1,2.1c-2,1.4-3.8,4-6.8,2.3c-4-2.3-5.7-5.4-4.7-9.1c1-3.5,2.3-7,3.8-10.4
	c3.2-7.6,6.6-15.1,9.9-22.6c-0.2-0.2-0.4-0.4-0.7-0.7c-2.1,1.5-4.3,2.8-6.3,4.4c-10.2,8-19.2,17.4-26.8,27.9c-2.1,3-4.1,6-6.7,9.7
	c-1.8-2.3-3.3-3.9-4.5-5.7s0.1-3.4,1-4.8c5.4-8.5,10.9-17,16.4-25.5c2.3-3.5,4.6-6.9,6.7-10.6c-5,2.4-9.7,5.6-13.8,9.4
	c-6.9,6.3-13.4,13-20.3,19.4c-8.7,8.2-17.1,16.5-26.2,24.2s-19.6,11.6-31.8,10.1c-3.4-0.4-6.6-1.6-8.8-4.2
	c-5.3-6.3-10.2-13-11.9-21.4c-1.4-7.1-0.1-13.9,2-20.7c5.5-17.8,15.8-32.7,28.2-46.4c1-1.1,1.9-2.3,2.8-3.4l0.8-0.8h0.3l-0.2,0.1
	c-0.3,0.3-0.5,0.6-0.8,0.8c-1.7,0.6-3.3,1.3-4.8,2.2c-16.3,11.7-31.2,25.2-46.3,38.4c-10,8.7-20.2,17.2-30.5,25.6
	c-2,1.6-4.2,3-6.5,4.2c-2.2,1.4-5,1.1-6.9-0.7c-0.7-0.6-0.8-2-1.1-3.1l-0.1-0.1c1.9,2,3.9,1.1,5.6-0.1c5-3.4,10.1-6.7,14.7-10.6
	c15.4-13.2,30.7-26.7,46-40.1c12.1-10.6,24.4-20.8,38.1-29.2c3.4-2,7-3.7,10.7-4.9c2.3-0.8,4.9-1.2,6.8,1.2c1.2,1.5,0.2,4.6-1.8,7
	c-5.7,6.9-11.1,14.1-17.1,20.8c-6.4,7.2-11.6,15.3-16.6,23.5c-5.4,8.6-9.2,18.1-11.2,28c-1,4.9-1.9,9.6-0.8,14.6
	c2.2,9.2,6.5,12.3,16.3,8.5c4.5-1.8,8.7-4.7,12.6-7.6c17.1-12.5,29.3-29.1,38.5-47.9c5.4-11.1,8.6-22.9,7.3-35.4
	c-0.9-8.5-5-14.9-12.9-18.9c-7.3-3.7-14.4-3.4-21.7-0.5c-1.9,0.8-3.8,1.6-6.1,2.5c3-4.9,10.9-9.6,15.7-9.6c5.7,0,11.3,0.9,16.6,2.9
	c1.8,0.7,3.8,0.9,5.6,1.6c6.8,2.5,11.1,7.5,14.8,13.6c5.3,8.7,4.8,17.6,2.8,27c-2.4,11.6-7.4,22.1-13.1,32.3c-0.6,1-1,2.1-1.5,3.2
	l0.7,0.6c0.8-0.7,1.7-1.5,2.5-2.1c8.3-6.2,16.6-12.3,24.8-18.7c2.7-2.1,4.9-1.6,7.3,0c1.1,0.7,2.1,1.6,3.3,2.4
	c-4.7,6.9-9.3,13.5-13.9,20.1c-0.1,0.2-0.1,0.5-0.2,0.7l0.4-0.5c3.5-3.1,7-6.2,10.6-9.1c3.3-2.6,6.7-5.1,10.1-7.4
	c2.1-1.5,7.4-0.9,8.7,1.2c0.8,1.5,0.9,3.2,0.4,4.8c-1.8,5-3.9,9.8-6,14.7s-4.4,9.9-6.6,14.9c-0.1,0.5-0.1,1-0.1,1.5
	c14-15.9,27.8-31.1,40.3-47.4l-0.4-0.8c-3,0.4-5.9,0.9-8.9,1.3c-1.7,0.2-3.4,0.4-5.1,0.4c-5.2,0-9.5-4.2-9.5-9.5
	c0-1.1,0.2-2.2,0.6-3.3c0.3-0.5,0.6-0.9,1-1.3c0.8,5.2,4.3,4.6,7.6,4.2c7.5-0.8,14.9-1.7,22.4-2.7c1.3-0.2,2.5-0.8,3.4-1.7
	c6.3-7.1,12.9-14,17.5-22.4c0.4-0.6,0.8-1.2,1.3-1.8c0.4-0.3,0.8-0.6,1.2-0.9c1.8,0.8,3.7,1.5,5.4,2.3c2.8,1.4,3.1,3.3,1,5.8
	c-4.1,4.8-7,10.3-10.2,16.5c3.1-0.2,6.2-0.1,9.3,0.1c6,0.7,11.9,1.7,17.8,2.7C920.9,51.8,921.5,53.2,921.5,53.2z"/>
<path class="st0" d="M1038.8,62.9c-0.5,0.3-2.1-1.3-2.4-1.6c-3.6-2.9-6-1.9-9.7,1.2c-1.7,1.8-2.1,3.1-2.9,5.5
	c-2.2,6.4-3.4,13.2-3.6,20c1.2-0.4,2.1-0.6,2.9-0.9c5.8-2.4,11.5-4.7,17.2-7.1c1.2-0.5,2.3-1.2,3.3-2c5.1-4.4,10.1-8.9,15.2-13.3
	l-2.7-2.7c-0.7-0.6-0.1-1.6,0.3-1.6c4.4-0.6,5.7-0.3,10.2-0.1c4-0.2,6.6-0.2,9.9-0.5c12.8-1,25.6-2.4,38.4-1.1
	c1.5,0.1,2.9,0.3,4.4,0.7c1,0.4,1.9,1,2.7,1.7c0.5,0.4,0.4,0.9-0.3,1c-1.4,0.1-2.8,0.3-4.2,0.3c-12.4,0.6-24.8,1.2-37.2,1.7
	c-0.7,0-1.4,0.1-2.1,0.3c-2.8,0.6-3.5,1.4-2.3,3.7c2.2,4.5,1.4,8.8-0.7,12.8c-5.4,10.3-12.7,19.1-22.7,25.2
	c-1.8,0.9-3.8,1.6-5.9,1.9c-7.9,1.8-12.5-6.1-11.3-12.1c0.8-3.8,1.9-7.6,3-11.9c-2.1,1-4.1,1.8-6,2.8c-3.3,1.8-6.4,3.7-9.7,5.4
	c-2,1.1-2.6,2.6-2.6,4.8c0.2,3.4,0.2,6.9-0.1,10.3c-0.3,5.1-3,9.8-7.3,12.6c-2.3,1.6-3.5,2.1-7.4,2.1c-5.3-0.5-6.7-0.5-12.8-1
	c-3.9-0.3-7.9-0.8-11.7-1.6c-1.6-0.9-1.3-4.6,0.6-6c8.9-7.2,18.5-13.6,28.5-19.1c2.3-1.3,2.6-3.2,3.1-10.3c0.7-10,4.2-15.6,3.9-16.4
	c-4.8,3.8-9.7,7.3-14.2,11.2c-7.2,6.2-14.1,12.6-21.3,18.9c-6.3,5.4-13.4,9.6-20.8,13.3c-3.6,1.7-7.7,2.1-11.5,0.9
	c-3.4-0.7-6.3-2.9-8-5.9c-0.9-1.5-1.5-3.1-1.8-4.8c-1.1-2.9-1.6-6-1.5-9.1c-1,1.1-2.3,2.2-3.4,3.4c-5,6.1-9.9,12.3-15,18.2
	c-2.9,3.4-6,6.5-9.3,9.4c-4,3.4-6.7,2.3-8.8-2.4c-1.9-4.2-2-9-0.2-13.3c2.6-6.3,5.5-12.4,8.3-18.6c-0.5,0.4-2.9,2.7-3.5,3.3
	c-5.3,4.9-10.6,10-16,14.8c-1.9,1.6-3.9,3-6.1,4.1c-2.5,1.3-5.6,0.7-6.8-0.9c-1.6-2.1-1.5-5.1,0.2-7.2c2.7-3.7,5.5-7.2,8.2-11
	c4.1-5.9,8.1-11.8,12.1-17.7c0.6-0.7,0.9-1.6,1.1-2.5c-0.2-0.6-2.3,0.6-3.1,1c-4.8,2.5-9.5,5-14.3,7.6c-1.8,1-2.5-4.6-2.1-4.8
	l17.7-7.9c0.1-0.1,0.3-0.1,0.5-0.1c2.3-0.4,5.2-1,6.3,1.3c0.7,1.4,0,3.9-0.9,5.4c-2.6,4.6-5.6,9-8.6,13.4
	c-3.5,5.2-7.2,10.3-10.7,15.5c-0.5,0.8-1.3,1.7-0.7,3.1c0.5,0.5,2.9-1.1,4-2.1c6.8-5.6,13.7-11.2,20.4-17.1c4.5-4,8.6-8.4,13-12.5
	c0.8-0.7,1.8-1,2.9-0.9c1,0.4,1.7,1.3,1.9,2.4c0.1,1.4-0.2,2.9-0.9,4.1c-1.4,2.5-3.4,4.8-4.8,7.3c-4.3,7.7-8.7,15.5-11.3,24
	c-0.3,0.9-0.6,1.9-0.8,2.8c0,0.6,0.1,1.2,0.2,1.7c1.2-0.7,2.3-1.4,3.3-2.3c7-6.9,14-13.9,21-20.8c6.7-6.5,13.2-13.2,19.3-20.3
	c5.9-6.8,13.3-12,21.6-15.3c3.9-1.5,8-2.3,12.1-2.3c5.3-0.1,9,4.6,8.9,10c-0.1,6.1-1.8,11.8-4.1,17.4c-0.5,1-0.8,2.2-0.7,3.3
	c3.3-2.8,6.6-5.7,10.1-8.4c6.1-4.6,12.3-9.1,18.4-13.7c2.3-1.7,4.3-3.6,6.5-5.4c2.2-1.8,4.1-3.5,6.3-5.1c1.6-1.2,5.6-2.8,7.3-1.1
	c1.3,1.3,2.8,5.6,3.1,7.5C1040.2,60.6,1040.5,62.3,1038.8,62.9z M947,98.6c0.1,3.7,1.2,4.7,3.8,3.7c4.5-1.6,8.8-3.8,12.8-6.3
	c10.8-7.4,16.8-18.4,20.9-30.5c0.6-1.7,1.6-3.5,0-5.2s-3.4-0.6-5.2-0.5c-0.5,0.1-0.9,0.3-1.4,0.5c-5.1,1.6-8.9,5.1-12.8,8.5
	c-6.9,5.9-11.3,13.9-15.5,21.8C948.1,93.2,947.6,96.5,947,98.6z M1064.7,68.4c0-0.5-0.4-1-1-0.4c-4.4,4.2-8.9,8.3-13.2,12.6
	c-3.3,3.2-5.8,7-7.4,11.3c-1.2,2.8-1.5,5.9-0.8,8.8c0.7,0.8,4.8-2.8,6.7-4.5c5.8-5.3,10.7-11.6,14.4-18.5c0.8-1.5,1.4-3.2,1.6-4.9
	C1065.1,71.3,1065,69.8,1064.7,68.4z M990.6,113.5c4.7,1.2,9.7,1.2,14.4,0.3c7.2-1.7,10.5-10.3,8.4-16.1
	C1005.7,102.5,997.9,107,990.6,113.5z"/>
<path class="st0" d="M425.3,91c4.7-4.5,9.3-9,14-13.4c2.5-2.2,5.1-4.1,7.9-5.9c1.8-1.3,4.1-1.6,6.2-0.7c2.9,1.2,3.8,2.5,2.9,5.6
	c-1.9,6.4-4,12.8-6,19.3c-1.1,3.7-2.1,7.5-3.2,11.3c-0.1,0.3,0.5,0.6,0.7,0.5c1.6-1.1,3.3-2,4.8-3.2c13.3-9.5,26.7-19,40.1-28.5
	c3.9-2.8,8.5-3.1,13-3.9c1-0.2,2.4-0.5,2.9-1.2c0.9-1.3,2.6-1.7,4-0.9c1.3,0.7,2.3,1.8,2.7,3.3c0.3,1.9,0.1,3.8-0.5,5.6
	c-2.2,7.9-4,16-8,23.3c-0.3,0.8-0.6,1.7-0.7,2.6h0.2H506c1.6-1.1,3.5-1.9,4.8-3.3c11.5-12.9,23-25.9,34.3-38.9c1-1.3,1.9-2.6,2.8-4
	c-2.9,0.3-5.1,0.4-7.3,0.7c-7.8,0.9-15.6,2.3-23.4,2.7c-3.7,0.2-7.5-1.1-11.2-2.1c-2.5-0.7-4.5-2.7-5-5.3c-1-3.9,0.1-9.3,2.6-12
	c0.2,0.2,0.5,0.3,0.5,0.5c1,4.3,1.3,5.1,5.8,5.3c8.2,0.3,16.5,0.2,24.8-0.1c6.2-0.2,12.4-1,18.6-1.2c1.8,0.1,3.4-0.9,4.2-2.5
	c2.1-3.8,4.4-7.5,6.8-11.1c2-3,4.4-3.3,8.2-1.2c-2.1,4.6-4.2,9.2-6.5,14.3c13.2,1,25.9,1.6,38,5.7l-0.1,0.9c-2.3,0.2-4.7,0.4-7,0.5
	c-5.8,0.3-11.7,0.3-17.5,0.7c-4.4,0.3-8.8,1-13.3,1.3c-2.5,0-4.6,1.8-5.2,4.2c-5.5,16.6-11.3,33.2-16.8,49.9
	c-2.3,7.1-4.4,14.2-6.8,21.9c-2.3-3.3-3.6-6.6-3.2-10.3c0.4-3,1.1-6,2.2-8.9c6-16.8,12-33.5,18-50.3c0.4-0.9,0.5-2,0.3-3
	c-3.2,4.2-6.4,8.3-9.6,12.5c-11.4,15-23.6,29.4-36.6,43c-2.4,2.5-5.5,4.5-8.3,6.6c-1.9,1.4-3.6,0.8-5-1c-3.7-4.4-4.9-10.3-3.2-15.8
	c0.9-3.2,2.1-6.2,2.8-9.7c-1.4,1.6-2.8,3.3-4.3,4.8c-3.8,3.9-7.7,7.7-11.7,11.4c-1.3,1.1-2.7,1.9-4.3,2.5c-2.5,1.1-5.5-0.1-6.5-2.7
	c-0.3-0.6-0.4-1.3-0.4-1.9c0.1-1.9,0.3-3.7,0.8-5.6c0.3-1.2,0.3-2.4,0.1-3.6c-2.7,2.3-5.4,4.5-8.1,6.8s-5.5,4.6-8.4,6.6
	s-3.8,1.6-6.4-1c-4.7-4.6-5.3-9.9-3.3-15.8c2-5.7,3.7-11.5,5.1-17.4c-1.2,1-2.5,1.8-3.5,2.9c-9.1,9.2-18,18.6-25.4,29.4
	c-3.4,4.9-7.3,9.5-10.9,14.2c-1.4,1-3.6-3.5-5.4-5.7c-1.3-2.3-1.7-4.2-0.8-6.7c2.6-7,6.8-14.6,10.2-21.2c4.7-9.1,7.7-17.1,11.3-27.2
	c0.7-2,1.2-4.1,1.5-6.2c0.3,0,1.3-0.3,1.9,0c2.4,1.3,4.8,2.8,7.1,4.4c1.7,1.2,1.5,3.1,1.4,4.9c-0.6,6.6-3.9,12.3-7,17.9
	C426.9,87.3,425.2,91.1,425.3,91z M474.2,106c4.4-1.4,25.1-22.1,26.8-26.7C494.6,80.3,477.1,97.8,474.2,106L474.2,106z"/>
<path class="st1" d="M18.9,126.1c5.3-5.9,10.4-12.7,15-17.9c8.3-9.4,13.7-18.9,20.7-29.2c9.8-14.3,19.5-28.6,29.6-42.6
	c5.4-7.5,9.3-13.6,17.7-17.7c3.2-1.6,6.5-2.5,10.1-0.6s4.9,5.5,1.7,9c-2.8,3.2-2.8,3.2-6.4,7.4c-2.5,2.9-4.9,5.9-7.2,9
	C94.4,51.3,88.2,60,82.5,67.7C74,79.1,65.2,90.2,56.4,101.4c-3.4,4.5-7.1,8.9-11.1,13c-5.3,5.4-6,8.4-13.2,10.9
	C30.6,125.8,18.9,127.6,18.9,126.1z"/>
<path class="st0" d="M591.7,68.5c1.7-0.2,3.3-0.2,5-0.2c10-0.4,18.9-0.6,29-0.7c4.5-0.1,9.1,0.8,13.6,1.6c2.8,0.5,5.7,1.4,7.5,3.9
	c-0.2,0.2-0.4,0.6-0.5,0.5c-12.2-3.8-24.7-2.7-37.1-2c-3.3,0.2-6.6,0.6-9.8,1.2c-3.8,0.6-4.4,1.6-3.5,5.1c0.8,3.1,0.8,6.3-0.1,9.4
	c-3,12-10.5,20.6-20.8,27c-3.5,2.2-7.4,3.9-11.4,5c-4.9,1.3-8.5-0.3-10.6-4.9c-2-4.2-2.3-9-1-13.4c2.2-7.8,6.3-14.8,12.1-20.5
	c4.9-4.8,7.3-8.1,13.3-11.6C581.4,66.7,585,67.9,591.7,68.5z M576.6,75.8c-8.2,9.1-15.2,18.8-18.9,31c-0.1,0.4,0,0.8,0.4,1
	c0.1,0,0.2,0.1,0.3,0c12.8-0.8,26.9-17,27.9-32.5l-2.4,0.2c-2.9,0.3-4-0.2-6.2-0.6L576.6,75.8z"/>
<path class="st0" d="M411.4,56.8c0.4-0.1,0.9-0.3,1.2,0.1c3.1,3.3,3.4,5,1.4,6.9c-3.5,3.4-6.1,3.7-9.5,0.6c-0.5-0.5-0.3-1.2,0-1.8
	C405.8,59.6,408.3,57.5,411.4,56.8z"/>
</svg>
